<svg width="46" height="1862" viewBox="0 0 46 1862" fill="none" xmlns="http://www.w3.org/2000/svg">
<line x1="22" y1="7" x2="21.9999" y2="1832" stroke="black" stroke-width="2"/>
<g clip-path="url(#clip0_1216_5133)">
<path d="M26.9393 6.79573C26.634 4.33895 24.9936 0 23.016 0C21.0384 0 19.3979 4.33442 19.0926 6.79573H19.038L19.038 40.3943H19.1154C19.48 42.8782 21.0885 47.0045 23.0205 47.0045C24.9526 47.0045 26.5611 42.8782 26.9256 40.3943H27.0031L27.0031 6.79573H26.9484H26.9393Z" fill="black"/>
<path d="M19.0334 40.3943L12.4398 44.4708V46.3213L20.4961 44.6654L19.0334 40.3943Z" fill="black"/>
<path d="M7.21784 20.3827H4.85291L4.85291 24.5813H7.21784V20.3827Z" fill="black"/>
<path d="M14.2717 15.0709H11.9067V19.2696H14.2717V15.0709Z" fill="black"/>
<path d="M19.0334 13.3426L0 28.409L0 32.1146L19.0334 24.8302V13.3426Z" fill="black"/>
<path d="M26.9666 40.3943L33.5602 44.4708V46.3213L25.5039 44.6654L26.9666 40.3943Z" fill="black"/>
<path d="M38.7867 24.5813H41.1516V20.3827H38.7867V24.5813Z" fill="black"/>
<path d="M31.7238 19.2696H34.0887V15.0709H31.7238V19.2696Z" fill="black"/>
<path d="M26.9667 13.3426L46.0001 28.409V32.1146L26.9667 24.8302V13.3426Z" fill="black"/>
</g>
<g clip-path="url(#clip1_1216_5133)">
<path d="M26.9393 1821.8C26.634 1819.34 24.9936 1815 23.016 1815C21.0384 1815 19.3979 1819.33 19.0926 1821.8H19.038L19.038 1855.39H19.1154C19.48 1857.88 21.0885 1862 23.0205 1862C24.9526 1862 26.5611 1857.88 26.9256 1855.39H27.0031L27.0031 1821.8H26.9484H26.9393Z" fill="black"/>
<path d="M19.0334 1855.39L12.4398 1859.47V1861.32L20.4961 1859.67L19.0334 1855.39Z" fill="black"/>
<path d="M7.21784 1835.38H4.85291L4.85291 1839.58H7.21784V1835.38Z" fill="black"/>
<path d="M14.2717 1830.07H11.9067V1834.27H14.2717V1830.07Z" fill="black"/>
<path d="M19.0334 1828.34L0 1843.41L0 1847.11L19.0334 1839.83V1828.34Z" fill="black"/>
<path d="M26.9666 1855.39L33.5602 1859.47V1861.32L25.5039 1859.67L26.9666 1855.39Z" fill="black"/>
<path d="M38.7867 1839.58H41.1516V1835.38H38.7867V1839.58Z" fill="black"/>
<path d="M31.7238 1834.27H34.0887V1830.07H31.7238V1834.27Z" fill="black"/>
<path d="M26.9667 1828.34L46.0001 1843.41V1847.11L26.9667 1839.83V1828.34Z" fill="black"/>
</g>
<defs>
<clipPath id="clip0_1216_5133">
<rect width="46" height="47" fill="white"/>
</clipPath>
<clipPath id="clip1_1216_5133">
<rect width="46" height="47" fill="white" transform="translate(0 1815)"/>
</clipPath>
</defs>
</svg>
