<svg width="1335" height="8699" viewBox="0 0 1335 8699" fill="none" xmlns="http://www.w3.org/2000/svg">
<path fill-rule="evenodd" clip-rule="evenodd" d="M57.9924 119.123C57.9924 119.123 58.0457 123.017 56.6373 126.828C55.1375 130.883 52.1684 134.876 52.1684 134.876L41 130.753C41 130.753 44.4944 127.368 45.8876 123.603C47.4026 119.503 46.8316 115 46.8316 115L58 119.123H57.9924Z" fill="#FED430"/>
<path fill-rule="evenodd" clip-rule="evenodd" d="M230.995 478.474C230.995 478.474 231.03 480.81 230.118 483.097C229.148 485.53 227.227 487.926 227.227 487.926L220 485.452C220 485.452 222.261 483.421 223.163 481.162C224.143 478.702 223.773 476 223.773 476L231 478.474H230.995Z" fill="#FED430"/>
<path fill-rule="evenodd" clip-rule="evenodd" d="M974.489 26.8518C974.489 26.8518 976.841 26.8141 979.143 27.7164C981.592 28.6772 984.006 30.583 984.006 30.583L981.527 37.7685C981.527 37.7685 979.48 35.5244 977.206 34.6319C974.729 33.6613 972.011 34.0324 972.011 34.0324L974.489 26.8469L974.489 26.8518Z" fill="#FED430"/>
<path fill-rule="evenodd" clip-rule="evenodd" d="M1237.77 53.367C1237.77 53.367 1241.45 56.9123 1243.6 61.8308C1245.88 67.0648 1246.64 73.7006 1246.64 73.7006L1231.68 80.9738C1231.68 80.9738 1232 74.3789 1229.88 69.5177C1227.57 64.2264 1222.81 60.6326 1222.81 60.6326L1237.78 53.3594L1237.77 53.367Z" fill="#FED430"/>
<path fill-rule="evenodd" clip-rule="evenodd" d="M87.7714 386.817C87.7714 386.817 91.4528 390.362 93.5998 395.28C95.8826 400.514 96.6447 407.15 96.6447 407.15L81.6761 414.423C81.6761 414.423 82.0043 407.829 79.8846 402.967C77.5745 397.676 72.8104 394.082 72.8104 394.082L87.779 386.809L87.7714 386.817Z" fill="#FED430"/>
<path fill-rule="evenodd" clip-rule="evenodd" d="M923.771 515.817C923.771 515.817 927.453 519.362 929.6 524.28C931.883 529.514 932.645 536.15 932.645 536.15L917.676 543.423C917.676 543.423 918.004 536.829 915.885 531.967C913.574 526.676 908.81 523.082 908.81 523.082L923.779 515.809L923.771 515.817Z" fill="#FED430"/>
<path fill-rule="evenodd" clip-rule="evenodd" d="M1246.88 411.287C1246.88 411.287 1247.79 414.315 1247.46 417.626C1247.1 421.149 1245.5 424.974 1245.5 424.974L1235.17 424.414C1235.17 424.414 1237.36 420.939 1237.69 417.667C1238.05 414.105 1236.56 410.725 1236.56 410.725L1246.88 411.285L1246.88 411.287Z" fill="#FED430"/>
<path fill-rule="evenodd" clip-rule="evenodd" d="M1294.42 1217.21C1294.42 1217.21 1296.37 1219.7 1297.26 1222.9C1298.2 1226.32 1298.09 1230.46 1298.09 1230.46L1288.27 1233.69C1288.27 1233.69 1289.05 1229.66 1288.17 1226.49C1287.21 1223.04 1284.6 1220.43 1284.6 1220.43L1294.42 1217.2L1294.42 1217.21Z" fill="#FED430"/>
<path fill-rule="evenodd" clip-rule="evenodd" d="M1130.91 1937.67C1130.91 1937.67 1129.9 1934.68 1130.13 1931.36C1130.38 1927.82 1131.86 1923.95 1131.86 1923.95L1142.2 1924.19C1142.2 1924.19 1140.13 1927.73 1139.9 1931.01C1139.65 1934.58 1141.24 1937.91 1141.24 1937.91L1130.9 1937.68L1130.91 1937.67Z" fill="#FED430"/>
<path fill-rule="evenodd" clip-rule="evenodd" d="M1140.52 2689.87C1140.52 2689.87 1138.23 2687.69 1136.89 2684.64C1135.46 2681.4 1134.98 2677.28 1134.98 2677.28L1144.24 2672.68C1144.24 2672.68 1144.05 2676.78 1145.37 2679.79C1146.81 2683.07 1149.77 2685.28 1149.77 2685.28L1140.51 2689.88L1140.52 2689.87Z" fill="#FED430"/>
<path fill-rule="evenodd" clip-rule="evenodd" d="M41.1262 2965.99C41.1262 2965.99 38.8383 2963.81 37.4988 2960.76C36.0745 2957.52 35.59 2953.4 35.59 2953.4L44.8528 2948.8C44.8528 2948.8 44.6615 2952.9 45.984 2955.91C47.4253 2959.19 50.3843 2961.4 50.3843 2961.4L41.1215 2965.99L41.1262 2965.99Z" fill="#FED430"/>
<path fill-rule="evenodd" clip-rule="evenodd" d="M25.1262 894.99C25.1262 894.99 22.8383 892.805 21.4988 889.759C20.0745 886.518 19.59 882.397 19.59 882.397L28.8528 877.8C28.8528 877.8 28.6615 881.901 29.984 884.911C31.4253 888.188 34.3843 890.398 34.3843 890.398L25.1215 894.995L25.1262 894.99Z" fill="#FED430"/>
<path fill-rule="evenodd" clip-rule="evenodd" d="M29.1262 1951.99C29.1262 1951.99 26.8383 1949.81 25.4988 1946.76C24.0745 1943.52 23.59 1939.4 23.59 1939.4L32.8528 1934.8C32.8528 1934.8 32.6615 1938.9 33.984 1941.91C35.4253 1945.19 38.3843 1947.4 38.3843 1947.4L29.1215 1951.99L29.1262 1951.99Z" fill="#FED430"/>
<path fill-rule="evenodd" clip-rule="evenodd" d="M13.1262 3815.99C13.1262 3815.99 10.8383 3813.81 9.49878 3810.76C8.07452 3807.52 7.59004 3803.4 7.59004 3803.4L16.8528 3798.8C16.8528 3798.8 16.6615 3802.9 17.984 3805.91C19.4253 3809.19 22.3843 3811.4 22.3843 3811.4L13.1215 3815.99L13.1262 3815.99Z" fill="#FED430"/>
<path fill-rule="evenodd" clip-rule="evenodd" d="M52.1262 4972.99C52.1262 4972.99 49.8383 4970.8 48.4988 4967.76C47.0745 4964.52 46.59 4960.4 46.59 4960.4L55.8528 4955.8C55.8528 4955.8 55.6615 4959.9 56.984 4962.91C58.4253 4966.19 61.3843 4968.4 61.3843 4968.4L52.1215 4972.99L52.1262 4972.99Z" fill="#FED430"/>
<path fill-rule="evenodd" clip-rule="evenodd" d="M1269.13 3348.54C1269.13 3348.54 1266.84 3346.35 1265.5 3343.31C1264.07 3340.07 1263.59 3335.94 1263.59 3335.94L1272.85 3331.35C1272.85 3331.35 1272.66 3335.45 1273.98 3338.46C1275.43 3341.74 1278.38 3343.95 1278.38 3343.95L1269.12 3348.54L1269.13 3348.54Z" fill="#FED430"/>
<path fill-rule="evenodd" clip-rule="evenodd" d="M1295.42 4216.54C1295.42 4216.54 1293.13 4214.35 1291.79 4211.31C1290.37 4208.07 1289.88 4203.94 1289.88 4203.94L1299.14 4199.35C1299.14 4199.35 1298.95 4203.45 1300.27 4206.46C1301.72 4209.74 1304.68 4211.95 1304.68 4211.95L1295.41 4216.54L1295.42 4216.54Z" fill="#FED430"/>
<path fill-rule="evenodd" clip-rule="evenodd" d="M1251.92 4682.51C1251.92 4682.51 1253.74 4685.1 1254.45 4688.35C1255.21 4691.81 1254.87 4695.95 1254.87 4695.95L1244.89 4698.63C1244.89 4698.63 1245.88 4694.65 1245.18 4691.43C1244.41 4687.94 1241.94 4685.19 1241.94 4685.19L1251.93 4682.5L1251.92 4682.51Z" fill="#FED430"/>
<path fill-rule="evenodd" clip-rule="evenodd" d="M1014.23 453.221C1014.23 453.221 1015.15 456.249 1014.81 459.56C1014.45 463.082 1012.85 466.907 1012.85 466.907L1002.52 466.348C1002.52 466.348 1004.71 462.873 1005.04 459.601C1005.4 456.039 1003.91 452.659 1003.91 452.659L1014.24 453.219L1014.23 453.221Z" fill="#FED430"/>
<path fill-rule="evenodd" clip-rule="evenodd" d="M1092.84 1340.69C1092.84 1340.69 1094.79 1343.18 1095.68 1346.39C1096.62 1349.8 1096.51 1353.95 1096.51 1353.95L1086.69 1357.17C1086.69 1357.17 1087.46 1353.14 1086.59 1349.97C1085.63 1346.52 1083.02 1343.91 1083.02 1343.91L1092.84 1340.69L1092.84 1340.69Z" fill="#FED430"/>
<path fill-rule="evenodd" clip-rule="evenodd" d="M1297.14 1953.11C1297.14 1953.11 1296.13 1950.11 1296.36 1946.79C1296.61 1943.26 1298.09 1939.38 1298.09 1939.38L1308.43 1939.62C1308.43 1939.62 1306.36 1943.16 1306.13 1946.44C1305.88 1950.02 1307.47 1953.35 1307.47 1953.35L1297.13 1953.11L1297.14 1953.11Z" fill="#FED430"/>
<path fill-rule="evenodd" clip-rule="evenodd" d="M1294.85 2626.23C1294.85 2626.23 1292.57 2624.05 1291.23 2621C1289.8 2617.76 1289.32 2613.64 1289.32 2613.64L1298.58 2609.04C1298.58 2609.04 1298.39 2613.14 1299.71 2616.15C1301.15 2619.43 1304.11 2621.64 1304.11 2621.64L1294.85 2626.24L1294.85 2626.23Z" fill="#FED430"/>
<path fill-rule="evenodd" clip-rule="evenodd" d="M37.1262 3126.54C37.1262 3126.54 34.8383 3124.35 33.4988 3121.31C32.0745 3118.07 31.59 3113.94 31.59 3113.94L40.8528 3109.35C40.8528 3109.35 40.6615 3113.45 41.984 3116.46C43.4253 3119.74 46.3843 3121.95 46.3843 3121.95L37.1215 3126.54L37.1262 3126.54Z" fill="#FED430"/>
<path fill-rule="evenodd" clip-rule="evenodd" d="M21.1262 1055.54C21.1262 1055.54 18.8383 1053.35 17.4988 1050.31C16.0745 1047.07 15.59 1042.94 15.59 1042.94L24.8528 1038.35C24.8528 1038.35 24.6615 1042.45 25.984 1045.46C27.4253 1048.74 30.3843 1050.95 30.3843 1050.95L21.1215 1055.54L21.1262 1055.54Z" fill="#FED430"/>
<path fill-rule="evenodd" clip-rule="evenodd" d="M25.1262 2112.54C25.1262 2112.54 22.8383 2110.35 21.4988 2107.31C20.0745 2104.07 19.59 2099.94 19.59 2099.94L28.8528 2095.35C28.8528 2095.35 28.6615 2099.45 29.984 2102.46C31.4253 2105.74 34.3843 2107.95 34.3843 2107.95L25.1215 2112.54L25.1262 2112.54Z" fill="#FED430"/>
<path fill-rule="evenodd" clip-rule="evenodd" d="M9.12622 3976.54C9.12622 3976.54 6.83834 3974.35 5.49878 3971.31C4.07452 3968.07 3.59004 3963.94 3.59004 3963.94L12.8528 3959.35C12.8528 3959.35 12.6615 3963.45 13.984 3966.46C15.4253 3969.74 18.3843 3971.95 18.3843 3971.95L9.12153 3976.54L9.12622 3976.54Z" fill="#FED430"/>
<path fill-rule="evenodd" clip-rule="evenodd" d="M48.1262 5133.54C48.1262 5133.54 45.8383 5131.35 44.4988 5128.31C43.0745 5125.07 42.59 5120.94 42.59 5120.94L51.8528 5116.35C51.8528 5116.35 51.6615 5120.45 52.984 5123.46C54.4253 5126.74 57.3843 5128.95 57.3843 5128.95L48.1215 5133.54L48.1262 5133.54Z" fill="#FED430"/>
<path fill-rule="evenodd" clip-rule="evenodd" d="M1291.47 3112.35C1291.47 3112.35 1289.18 3110.17 1287.84 3107.12C1286.41 3103.88 1285.93 3099.76 1285.93 3099.76L1295.19 3095.16C1295.19 3095.16 1295 3099.26 1296.32 3102.27C1297.76 3105.55 1300.72 3107.76 1300.72 3107.76L1291.46 3112.36L1291.47 3112.35Z" fill="#FED430"/>
<path fill-rule="evenodd" clip-rule="evenodd" d="M1317.76 3980.35C1317.76 3980.35 1315.47 3978.17 1314.13 3975.12C1312.7 3971.88 1312.22 3967.76 1312.22 3967.76L1321.48 3963.16C1321.48 3963.16 1321.29 3967.26 1322.61 3970.27C1324.05 3973.55 1327.01 3975.76 1327.01 3975.76L1317.75 3980.36L1317.76 3980.35Z" fill="#FED430"/>
<path fill-rule="evenodd" clip-rule="evenodd" d="M1183.52 4909.67C1183.52 4909.67 1185.33 4912.27 1186.05 4915.52C1186.81 4918.97 1186.47 4923.11 1186.47 4923.11L1176.48 4925.79C1176.48 4925.79 1177.48 4921.81 1176.77 4918.6C1176.01 4915.1 1173.54 4912.35 1173.54 4912.35L1183.53 4909.67L1183.52 4909.67Z" fill="#FED430"/>
<path fill-rule="evenodd" clip-rule="evenodd" d="M326.573 69.5207C326.573 69.5207 322.076 71.0308 317.093 70.892C311.794 70.7369 306 68.9331 306 68.9331L306.435 55C306.435 55 311.734 57.6119 316.641 57.7589C321.991 57.9139 327 55.5958 327 55.5958L326.565 69.5289L326.573 69.5207Z" fill="#2496F0"/>
<path fill-rule="evenodd" clip-rule="evenodd" d="M113.905 236.898C113.905 236.898 110.835 236.093 108.135 234.168C105.266 232.116 102.761 228.942 102.761 228.942L108.391 221.161C108.391 221.161 110.31 224.613 112.965 226.515C115.862 228.585 119.527 229.119 119.527 229.119L113.897 236.9L113.905 236.898Z" fill="#2496F0"/>
<path fill-rule="evenodd" clip-rule="evenodd" d="M413.1 353.99C413.1 353.99 416.271 353.832 419.432 354.853C422.791 355.943 426.147 358.213 426.147 358.213L423.156 367.324C423.156 367.324 420.275 364.613 417.164 363.601C413.772 362.502 410.116 363.097 410.116 363.097L413.107 353.986L413.1 353.99Z" fill="#2496F0"/>
<path fill-rule="evenodd" clip-rule="evenodd" d="M1215.67 310.217C1215.67 310.217 1218.11 312.226 1219.76 315.098C1221.5 318.154 1222.43 322.079 1222.43 322.079L1214.04 326.803C1214.04 326.803 1213.76 322.87 1212.15 320.038C1210.39 316.953 1207.28 314.943 1207.28 314.943L1215.67 310.219L1215.67 310.217Z" fill="#2496F0"/>
<path fill-rule="evenodd" clip-rule="evenodd" d="M1228.66 1134.35C1228.66 1134.35 1231.67 1135.33 1234.24 1137.41C1236.98 1139.63 1239.27 1142.95 1239.27 1142.95L1233.17 1150.39C1233.17 1150.39 1231.47 1146.83 1228.94 1144.78C1226.19 1142.54 1222.56 1141.79 1222.56 1141.79L1228.67 1134.35L1228.66 1134.35Z" fill="#2496F0"/>
<path fill-rule="evenodd" clip-rule="evenodd" d="M1154.28 2056.87C1154.28 2056.87 1151.77 2054.94 1150.04 2052.12C1148.2 2049.12 1147.14 2045.22 1147.14 2045.22L1155.38 2040.24C1155.38 2040.24 1155.79 2044.16 1157.49 2046.94C1159.34 2049.97 1162.51 2051.89 1162.51 2051.89L1154.27 2056.87L1154.28 2056.87Z" fill="#2496F0"/>
<path fill-rule="evenodd" clip-rule="evenodd" d="M1216.63 2784.53C1216.63 2784.53 1213.51 2783.99 1210.67 2782.29C1207.65 2780.49 1204.9 2777.54 1204.9 2777.54L1209.88 2769.29C1209.88 2769.29 1212.06 2772.58 1214.86 2774.25C1217.91 2776.07 1221.6 2776.29 1221.6 2776.29L1216.62 2784.53L1216.63 2784.53Z" fill="#2496F0"/>
<path fill-rule="evenodd" clip-rule="evenodd" d="M117.242 3060.65C117.242 3060.65 114.122 3060.1 111.279 3058.41C108.258 3056.61 105.51 3053.66 105.51 3053.66L110.487 3045.41C110.487 3045.41 112.674 3048.69 115.47 3050.37C118.52 3052.19 122.211 3052.41 122.211 3052.41L117.234 3060.65L117.242 3060.65Z" fill="#2496F0"/>
<path fill-rule="evenodd" clip-rule="evenodd" d="M101.242 989.647C101.242 989.647 98.1218 989.105 95.2788 987.414C92.2582 985.61 89.5097 982.656 89.5097 982.656L94.4865 974.413C94.4865 974.413 96.674 977.694 99.4697 979.366C102.52 981.185 106.211 981.407 106.211 981.407L101.234 989.649L101.242 989.647Z" fill="#2496F0"/>
<path fill-rule="evenodd" clip-rule="evenodd" d="M105.242 2046.65C105.242 2046.65 102.122 2046.1 99.2788 2044.41C96.2582 2042.61 93.5097 2039.66 93.5097 2039.66L98.4865 2031.41C98.4865 2031.41 100.674 2034.69 103.47 2036.37C106.52 2038.19 110.211 2038.41 110.211 2038.41L105.234 2046.65L105.242 2046.65Z" fill="#2496F0"/>
<path fill-rule="evenodd" clip-rule="evenodd" d="M89.2418 3910.65C89.2418 3910.65 86.1218 3910.1 83.2788 3908.41C80.2582 3906.61 77.5097 3903.66 77.5097 3903.66L82.4865 3895.41C82.4865 3895.41 84.674 3898.69 87.4697 3900.37C90.52 3902.19 94.2109 3902.41 94.2109 3902.41L89.2341 3910.65L89.2418 3910.65Z" fill="#2496F0"/>
<path fill-rule="evenodd" clip-rule="evenodd" d="M128.242 4720.65C128.242 4720.65 125.122 4720.1 122.279 4718.41C119.258 4716.61 116.51 4713.66 116.51 4713.66L121.487 4705.41C121.487 4705.41 123.674 4708.69 126.47 4710.37C129.52 4712.19 133.211 4712.41 133.211 4712.41L128.234 4720.65L128.242 4720.65Z" fill="#2496F0"/>
<path fill-rule="evenodd" clip-rule="evenodd" d="M1213.24 3270.65C1213.24 3270.65 1210.12 3270.1 1207.28 3268.41C1204.26 3266.61 1201.51 3263.66 1201.51 3263.66L1206.49 3255.41C1206.49 3255.41 1208.67 3258.69 1211.47 3260.37C1214.52 3262.19 1218.21 3262.41 1218.21 3262.41L1213.23 3270.65L1213.24 3270.65Z" fill="#2496F0"/>
<path fill-rule="evenodd" clip-rule="evenodd" d="M1239.53 4138.65C1239.53 4138.65 1236.41 4138.1 1233.57 4136.41C1230.55 4134.61 1227.8 4131.66 1227.8 4131.66L1232.78 4123.41C1232.78 4123.41 1234.96 4126.69 1237.76 4128.37C1240.81 4130.19 1244.5 4130.41 1244.5 4130.41L1239.52 4138.65L1239.53 4138.65Z" fill="#2496F0"/>
<path fill-rule="evenodd" clip-rule="evenodd" d="M1291.38 4422.88C1291.38 4422.88 1294.33 4424.02 1296.79 4426.24C1299.39 4428.6 1301.5 4432.04 1301.5 4432.04L1295 4439.14C1295 4439.14 1293.5 4435.5 1291.09 4433.31C1288.46 4430.92 1284.88 4429.98 1284.88 4429.98L1291.39 4422.88L1291.38 4422.88Z" fill="#2496F0"/>
<path fill-rule="evenodd" clip-rule="evenodd" d="M1048.91 15.8982C1048.91 15.8982 1045.84 15.093 1043.13 13.1677C1040.27 11.1162 1037.76 7.94156 1037.76 7.94156L1043.39 0.161223C1043.39 0.161223 1045.31 3.6131 1047.96 5.51454C1050.86 7.58503 1054.53 8.1194 1054.53 8.1194L1048.9 15.8997L1048.91 15.8982Z" fill="#2496F0"/>
<path fill-rule="evenodd" clip-rule="evenodd" d="M315.567 414.613C315.567 414.613 312.362 412.107 310.153 408.472C307.81 404.603 306.457 399.599 306.457 399.599L316.974 393.312C316.974 393.312 317.499 398.344 319.666 401.928C322.034 405.834 326.074 408.324 326.074 408.324L315.557 414.611L315.567 414.613Z" fill="#2496F0"/>
<path fill-rule="evenodd" clip-rule="evenodd" d="M1117.57 553.613C1117.57 553.613 1114.36 551.107 1112.15 547.472C1109.81 543.603 1108.46 538.599 1108.46 538.599L1118.97 532.312C1118.97 532.312 1119.5 537.344 1121.67 540.928C1124.03 544.834 1128.07 547.324 1128.07 547.324L1117.56 553.611L1117.57 553.613Z" fill="#2496F0"/>
<path fill-rule="evenodd" clip-rule="evenodd" d="M1225.55 1396.75C1225.55 1396.75 1221.66 1395.58 1218.28 1392.99C1214.69 1390.24 1211.62 1386.07 1211.62 1386.07L1219.14 1376.39C1219.14 1376.39 1221.45 1380.89 1224.77 1383.44C1228.4 1386.23 1233.06 1387.08 1233.06 1387.08L1225.54 1396.75L1225.55 1396.75Z" fill="#2496F0"/>
<path fill-rule="evenodd" clip-rule="evenodd" d="M1190.72 1855.98C1190.72 1855.98 1194 1858.39 1196.33 1861.95C1198.79 1865.75 1200.3 1870.71 1200.3 1870.71L1189.98 1877.32C1189.98 1877.32 1189.3 1872.31 1187.02 1868.79C1184.53 1864.96 1180.42 1862.6 1180.42 1862.6L1190.73 1855.99L1190.72 1855.98Z" fill="#2496F0"/>
<path fill-rule="evenodd" clip-rule="evenodd" d="M1155.48 2589.74C1155.48 2589.74 1159.5 2590.34 1163.22 2592.42C1167.16 2594.63 1170.8 2598.32 1170.8 2598.32L1164.74 2608.97C1164.74 2608.97 1161.81 2604.85 1158.16 2602.8C1154.17 2600.56 1149.43 2600.38 1149.43 2600.38L1155.49 2589.73L1155.48 2589.74Z" fill="#2496F0"/>
<path fill-rule="evenodd" clip-rule="evenodd" d="M56.0907 2865.86C56.0907 2865.86 60.1135 2866.46 63.8262 2868.54C67.7711 2870.75 71.4124 2874.44 71.4124 2874.44L65.3541 2885.09C65.3541 2885.09 62.4195 2880.97 58.7682 2878.91C54.7846 2876.68 50.0423 2876.5 50.0423 2876.5L56.1005 2865.85L56.0907 2865.86Z" fill="#2496F0"/>
<path fill-rule="evenodd" clip-rule="evenodd" d="M40.0907 794.855C40.0907 794.855 44.1135 795.459 47.8262 797.535C51.7711 799.749 55.4124 803.438 55.4124 803.438L49.3541 814.089C49.3541 814.089 46.4195 809.967 42.7682 807.915C38.7846 805.681 34.0423 805.503 34.0423 805.503L40.1005 794.852L40.0907 794.855Z" fill="#2496F0"/>
<path fill-rule="evenodd" clip-rule="evenodd" d="M44.0907 1851.86C44.0907 1851.86 48.1135 1852.46 51.8262 1854.53C55.7711 1856.75 59.4124 1860.44 59.4124 1860.44L53.3541 1871.09C53.3541 1871.09 50.4195 1866.97 46.7682 1864.91C42.7846 1862.68 38.0423 1862.5 38.0423 1862.5L44.1005 1851.85L44.0907 1851.86Z" fill="#2496F0"/>
<path fill-rule="evenodd" clip-rule="evenodd" d="M28.0907 3715.86C28.0907 3715.86 32.1135 3716.46 35.8262 3718.54C39.7711 3720.75 43.4124 3724.44 43.4124 3724.44L37.3541 3735.09C37.3541 3735.09 34.4195 3730.97 30.7682 3728.91C26.7846 3726.68 22.0423 3726.5 22.0423 3726.5L28.1005 3715.85L28.0907 3715.86Z" fill="#2496F0"/>
<path fill-rule="evenodd" clip-rule="evenodd" d="M67.091 4525.86C67.091 4525.86 71.1137 4526.46 74.8264 4528.54C78.7713 4530.75 82.4126 4534.44 82.4126 4534.44L76.3544 4545.09C76.3544 4545.09 73.4197 4540.97 69.7685 4538.91C65.7849 4536.68 61.0426 4536.5 61.0426 4536.5L67.1008 4525.85L67.091 4525.86Z" fill="#2496F0"/>
<path fill-rule="evenodd" clip-rule="evenodd" d="M1224.29 3042.24C1224.29 3042.24 1228.32 3042.84 1232.03 3044.92C1235.97 3047.13 1239.61 3050.82 1239.61 3050.82L1233.56 3061.47C1233.56 3061.47 1230.62 3057.35 1226.97 3055.3C1222.99 3053.07 1218.24 3052.89 1218.24 3052.89L1224.3 3042.24L1224.29 3042.24Z" fill="#2496F0"/>
<path fill-rule="evenodd" clip-rule="evenodd" d="M1250.58 3910.24C1250.58 3910.24 1254.61 3910.84 1258.32 3912.92C1262.26 3915.13 1265.91 3918.82 1265.91 3918.82L1259.85 3929.47C1259.85 3929.47 1256.91 3925.35 1253.26 3923.3C1249.28 3921.07 1244.54 3920.89 1244.54 3920.89L1250.59 3910.24L1250.58 3910.24Z" fill="#2496F0"/>
<path fill-rule="evenodd" clip-rule="evenodd" d="M1235.57 4644.64C1235.57 4644.64 1231.75 4643.25 1228.52 4640.49C1225.09 4637.54 1222.24 4633.21 1222.24 4633.21L1230.28 4623.96C1230.28 4623.96 1232.34 4628.58 1235.52 4631.31C1238.99 4634.28 1243.6 4635.39 1243.6 4635.39L1235.56 4644.64L1235.57 4644.64Z" fill="#2496F0"/>
<path fill-rule="evenodd" clip-rule="evenodd" d="M1292.57 5499.91C1292.57 5499.91 1288.75 5498.53 1285.52 5495.76C1282.09 5492.82 1279.24 5488.48 1279.24 5488.48L1287.28 5479.23C1287.28 5479.23 1289.34 5483.85 1292.52 5486.58C1295.99 5489.56 1300.6 5490.67 1300.6 5490.67L1292.56 5499.92L1292.57 5499.91Z" fill="#2496F0"/>
<path fill-rule="evenodd" clip-rule="evenodd" d="M1234.46 5924.09C1234.46 5924.09 1233.87 5928.11 1231.8 5931.83C1229.61 5935.79 1225.93 5939.44 1225.93 5939.44L1215.26 5933.42C1215.26 5933.42 1219.37 5930.47 1221.41 5926.81C1223.63 5922.82 1223.79 5918.08 1223.79 5918.08L1234.46 5924.1L1234.46 5924.09Z" fill="#2496F0"/>
<path fill-rule="evenodd" clip-rule="evenodd" d="M108.371 7079.25C108.371 7079.25 107.782 7083.28 105.719 7087C103.519 7090.95 99.8428 7094.61 99.8428 7094.61L89.1707 7088.59C89.1707 7088.59 93.2821 7085.64 95.3212 7081.98C97.5407 7077.99 97.7017 7073.24 97.7017 7073.24L108.374 7079.26L108.371 7079.25Z" fill="#2496F0"/>
<path fill-rule="evenodd" clip-rule="evenodd" d="M1255.59 6394.74C1255.59 6394.74 1251.96 6396.59 1247.73 6397.05C1243.24 6397.54 1238.13 6396.65 1238.13 6396.65L1236.87 6384.47C1236.87 6384.47 1241.66 6386.12 1245.82 6385.67C1250.36 6385.17 1254.32 6382.56 1254.32 6382.56L1255.58 6394.75L1255.59 6394.74Z" fill="#2496F0"/>
<path fill-rule="evenodd" clip-rule="evenodd" d="M91.0803 6714.7C91.0803 6714.7 87.4553 6716.54 83.2272 6717.01C78.7302 6717.5 73.623 6716.61 73.623 6716.61L72.3678 6704.42C72.3678 6704.42 77.1509 6706.07 81.3151 6705.62C85.8553 6705.13 89.8189 6702.52 89.8189 6702.52L91.0741 6714.71L91.0803 6714.7Z" fill="#2496F0"/>
<path fill-rule="evenodd" clip-rule="evenodd" d="M1265.4 6648.17C1265.4 6648.17 1265.8 6652.22 1264.7 6656.33C1263.52 6660.69 1260.83 6665.13 1260.83 6665.13L1249.02 6661.86C1249.02 6661.86 1252.3 6658.01 1253.4 6653.96C1254.59 6649.56 1253.6 6644.91 1253.6 6644.91L1265.41 6648.18L1265.4 6648.17Z" fill="#2496F0"/>
<path fill-rule="evenodd" clip-rule="evenodd" d="M1176.46 6829.38C1176.46 6829.38 1176.86 6833.43 1175.76 6837.54C1174.58 6841.9 1171.9 6846.34 1171.9 6846.34L1160.09 6843.07C1160.09 6843.07 1163.36 6839.22 1164.46 6835.17C1165.65 6830.77 1164.66 6826.12 1164.66 6826.12L1176.47 6829.39L1176.46 6829.38Z" fill="#2496F0"/>
<path fill-rule="evenodd" clip-rule="evenodd" d="M54.4634 7391.38C54.4634 7391.38 54.864 7395.43 53.7608 7399.54C52.5812 7403.9 49.8961 7408.34 49.8961 7408.34L38.086 7405.07C38.086 7405.07 41.3632 7401.22 42.4583 7397.17C43.6479 7392.77 42.6585 7388.12 42.6585 7388.12L54.4687 7391.39L54.4634 7391.38Z" fill="#2496F0"/>
<path fill-rule="evenodd" clip-rule="evenodd" d="M1258.29 6999.55C1258.29 6999.55 1254.27 7000.19 1250.11 6999.33C1245.68 6998.4 1241.09 6995.98 1241.09 6995.98L1243.66 6984C1243.66 6984 1247.7 6987.05 1251.8 6987.91C1256.27 6988.84 1260.85 6987.58 1260.85 6987.58L1258.28 6999.56L1258.29 6999.55Z" fill="#2496F0"/>
<path fill-rule="evenodd" clip-rule="evenodd" d="M1288.51 7476.61C1288.51 7476.61 1284.49 7477.25 1280.32 7476.39C1275.89 7475.47 1271.31 7473.05 1271.31 7473.05L1273.88 7461.06C1273.88 7461.06 1277.92 7464.11 1282.02 7464.97C1286.49 7465.9 1291.07 7464.64 1291.07 7464.64L1288.5 7476.62L1288.51 7476.61Z" fill="#2496F0"/>
<path fill-rule="evenodd" clip-rule="evenodd" d="M78.5066 7836.61C78.5066 7836.61 74.489 7837.25 70.3233 7836.39C65.8948 7835.47 61.3111 7833.05 61.3111 7833.05L63.8794 7821.06C63.8794 7821.06 67.9194 7824.11 72.0193 7824.97C76.4908 7825.9 81.0664 7824.64 81.0664 7824.64L78.4982 7836.62L78.5066 7836.61Z" fill="#2496F0"/>
<path fill-rule="evenodd" clip-rule="evenodd" d="M1222.51 8125.61C1222.51 8125.61 1218.49 8126.25 1214.32 8125.39C1209.89 8124.47 1205.31 8122.05 1205.31 8122.05L1207.88 8110.06C1207.88 8110.06 1211.92 8113.11 1216.02 8113.97C1220.49 8114.9 1225.07 8113.64 1225.07 8113.64L1222.5 8125.62L1222.51 8125.61Z" fill="#2496F0"/>
<path fill-rule="evenodd" clip-rule="evenodd" d="M91.5066 8245.61C91.5066 8245.61 87.489 8246.25 83.3233 8245.39C78.8948 8244.47 74.3111 8242.05 74.3111 8242.05L76.8794 8230.06C76.8794 8230.06 80.9194 8233.11 85.0193 8233.97C89.4908 8234.9 94.0664 8233.64 94.0664 8233.64L91.4982 8245.62L91.5066 8245.61Z" fill="#2496F0"/>
<path fill-rule="evenodd" clip-rule="evenodd" d="M295.426 4845.91C295.426 4845.91 291.601 4844.53 288.37 4841.76C284.938 4838.82 282.094 4834.48 282.094 4834.48L290.131 4825.23C290.131 4825.23 292.196 4829.85 295.372 4832.58C298.838 4835.56 303.452 4836.67 303.452 4836.67L295.416 4845.92L295.426 4845.91Z" fill="#2496F0"/>
<path fill-rule="evenodd" clip-rule="evenodd" d="M31.4263 6124.91C31.4263 6124.91 27.6011 6123.53 24.3698 6120.76C20.938 6117.82 18.0944 6113.48 18.0944 6113.48L26.131 6104.23C26.131 6104.23 28.1966 6108.85 31.3724 6111.58C34.8382 6114.56 39.4526 6115.67 39.4526 6115.67L31.4161 6124.92L31.4263 6124.91Z" fill="#2496F0"/>
<path fill-rule="evenodd" clip-rule="evenodd" d="M88.426 5819.91C88.426 5819.91 84.6008 5818.53 81.3696 5815.76C77.9377 5812.82 75.0942 5808.48 75.0942 5808.48L83.1307 5799.23C83.1307 5799.23 85.1964 5803.85 88.3721 5806.58C91.8379 5809.56 96.4524 5810.67 96.4524 5810.67L88.4158 5819.92L88.426 5819.91Z" fill="#2496F0"/>
<path fill-rule="evenodd" clip-rule="evenodd" d="M958.426 4703.91C958.426 4703.91 954.601 4702.53 951.37 4699.76C947.938 4696.82 945.094 4692.48 945.094 4692.48L953.131 4683.23C953.131 4683.23 955.196 4687.85 958.372 4690.58C961.838 4693.56 966.452 4694.67 966.452 4694.67L958.416 4703.92L958.426 4703.91Z" fill="#2496F0"/>
<path fill-rule="evenodd" clip-rule="evenodd" d="M1226.43 5679.91C1226.43 5679.91 1222.6 5678.53 1219.37 5675.76C1215.94 5672.82 1213.09 5668.48 1213.09 5668.48L1221.13 5659.23C1221.13 5659.23 1223.2 5663.85 1226.37 5666.58C1229.84 5669.56 1234.45 5670.67 1234.45 5670.67L1226.42 5679.92L1226.43 5679.91Z" fill="#2496F0"/>
<path fill-rule="evenodd" clip-rule="evenodd" d="M363.867 476.521C363.867 476.521 368.008 475.589 372.396 476.218C377.067 476.889 382 479.135 382 479.135L380.133 491.901C380.133 491.901 375.723 488.962 371.393 488.341C366.671 487.662 362 489.287 362 489.287L363.867 476.521Z" fill="#FF837E"/>
<path fill-rule="evenodd" clip-rule="evenodd" d="M1134.31 42.8135C1134.31 42.8135 1136.54 43.5143 1138.44 45.0389C1140.46 46.6634 1142.15 49.1229 1142.15 49.1229L1137.59 54.7852C1137.59 54.7852 1136.34 52.1356 1134.47 50.6306C1132.43 48.9885 1129.75 48.4759 1129.75 48.4759L1134.31 42.8135Z" fill="#FF837E"/>
<path fill-rule="evenodd" clip-rule="evenodd" d="M1241.94 253.263C1241.94 253.263 1243.38 255.091 1244.08 257.413C1244.83 259.886 1244.82 262.864 1244.82 262.864L1237.84 264.981C1237.84 264.981 1238.32 262.098 1237.63 259.806C1236.88 257.306 1234.96 255.381 1234.96 255.381L1241.94 253.263Z" fill="#FF837E"/>
<path fill-rule="evenodd" clip-rule="evenodd" d="M1232.48 1071.74C1232.48 1071.74 1234.49 1072.92 1235.98 1074.83C1237.57 1076.87 1238.65 1079.64 1238.65 1079.64L1232.92 1084.15C1232.92 1084.15 1232.32 1081.29 1230.84 1079.4C1229.23 1077.35 1226.74 1076.25 1226.74 1076.25L1232.48 1071.74Z" fill="#FF837E"/>
<path fill-rule="evenodd" clip-rule="evenodd" d="M1277.77 1771.75C1277.77 1771.75 1276.27 1769.97 1275.5 1767.67C1274.67 1765.22 1274.58 1762.24 1274.58 1762.24L1281.49 1759.91C1281.49 1759.91 1281.11 1762.81 1281.87 1765.08C1282.7 1767.55 1284.68 1769.42 1284.68 1769.42L1277.77 1771.75Z" fill="#FF837E"/>
<path fill-rule="evenodd" clip-rule="evenodd" d="M1193.37 2474.69C1193.37 2474.69 1191.21 2473.81 1189.46 2472.13C1187.59 2470.34 1186.13 2467.75 1186.13 2467.75L1191.16 2462.47C1191.16 2462.47 1192.16 2465.22 1193.89 2466.87C1195.78 2468.68 1198.4 2469.41 1198.4 2469.41L1193.37 2474.69Z" fill="#FF837E"/>
<path fill-rule="evenodd" clip-rule="evenodd" d="M93.9789 2750.81C93.9789 2750.81 91.8231 2749.93 90.0701 2748.25C88.2047 2746.46 86.7403 2743.87 86.7403 2743.87L91.7729 2738.59C91.7729 2738.59 92.7757 2741.34 94.5052 2742.99C96.3909 2744.8 99.0114 2745.53 99.0114 2745.53L93.9789 2750.81Z" fill="#FF837E"/>
<path fill-rule="evenodd" clip-rule="evenodd" d="M77.9789 679.806C77.9789 679.806 75.8231 678.925 74.0701 677.249C72.2047 675.463 70.7403 672.871 70.7403 672.871L75.7729 667.59C75.7729 667.59 76.7757 670.336 78.5052 671.991C80.3909 673.796 83.0114 674.526 83.0114 674.526L77.9789 679.806Z" fill="#FF837E"/>
<path fill-rule="evenodd" clip-rule="evenodd" d="M81.9789 1736.81C81.9789 1736.81 79.8231 1735.93 78.0701 1734.25C76.2047 1732.46 74.7403 1729.87 74.7403 1729.87L79.7729 1724.59C79.7729 1724.59 80.7757 1727.34 82.5052 1728.99C84.3909 1730.8 87.0114 1731.53 87.0114 1731.53L81.9789 1736.81Z" fill="#FF837E"/>
<path fill-rule="evenodd" clip-rule="evenodd" d="M65.9789 3600.81C65.9789 3600.81 63.8231 3599.93 62.0701 3598.25C60.2047 3596.46 58.7403 3593.87 58.7403 3593.87L63.7729 3588.59C63.7729 3588.59 64.7757 3591.34 66.5052 3592.99C68.3909 3594.8 71.0114 3595.53 71.0114 3595.53L65.9789 3600.81Z" fill="#FF837E"/>
<path fill-rule="evenodd" clip-rule="evenodd" d="M104.979 4410.81C104.979 4410.81 102.823 4409.93 101.07 4408.25C99.205 4406.46 97.7406 4403.87 97.7406 4403.87L102.773 4398.59C102.773 4398.59 103.776 4401.34 105.505 4402.99C107.391 4404.8 110.012 4405.53 110.012 4405.53L104.979 4410.81Z" fill="#FF837E"/>
<path fill-rule="evenodd" clip-rule="evenodd" d="M1189.98 2960.81C1189.98 2960.81 1187.82 2959.93 1186.07 2958.25C1184.2 2956.46 1182.74 2953.87 1182.74 2953.87L1187.77 2948.59C1187.77 2948.59 1188.78 2951.34 1190.51 2952.99C1192.39 2954.8 1195.01 2955.53 1195.01 2955.53L1189.98 2960.81Z" fill="#FF837E"/>
<path fill-rule="evenodd" clip-rule="evenodd" d="M1216.27 3828.81C1216.27 3828.81 1214.11 3827.93 1212.36 3826.25C1210.5 3824.46 1209.03 3821.87 1209.03 3821.87L1214.06 3816.59C1214.06 3816.59 1215.07 3819.34 1216.8 3820.99C1218.68 3822.8 1221.3 3823.53 1221.3 3823.53L1216.27 3828.81Z" fill="#FF837E"/>
<path fill-rule="evenodd" clip-rule="evenodd" d="M1253.18 4731.23C1253.18 4731.23 1255.12 4732.52 1256.51 4734.51C1257.99 4736.63 1258.91 4739.46 1258.91 4739.46L1252.94 4743.64C1252.94 4743.64 1252.5 4740.76 1251.13 4738.79C1249.64 4736.65 1247.21 4735.42 1247.21 4735.42L1253.18 4731.23Z" fill="#FF837E"/>
<path fill-rule="evenodd" clip-rule="evenodd" d="M837.053 4592.94C837.053 4592.94 838.993 4594.23 840.382 4596.22C841.859 4598.34 842.785 4601.17 842.785 4601.17L836.811 4605.36C836.811 4605.36 836.368 4602.47 834.998 4600.5C833.505 4598.36 831.08 4597.13 831.08 4597.13L837.053 4592.94Z" fill="#FF837E"/>
<path fill-rule="evenodd" clip-rule="evenodd" d="M928.32 380.049C928.32 380.049 929.763 381.877 930.463 384.199C931.207 386.672 931.205 389.649 931.205 389.649L924.225 391.767C924.225 391.767 924.704 388.884 924.014 386.592C923.262 384.092 921.34 382.166 921.34 382.166L928.32 380.049Z" fill="#FF837E"/>
<path fill-rule="evenodd" clip-rule="evenodd" d="M1209.62 465.572C1209.62 465.572 1207.36 468.499 1204.05 470.487C1200.52 472.601 1195.91 473.776 1195.91 473.776L1189.88 463.95C1189.88 463.95 1194.53 463.542 1197.8 461.581C1201.37 459.443 1203.59 455.746 1203.59 455.746L1209.62 465.572Z" fill="#FF837E"/>
<path fill-rule="evenodd" clip-rule="evenodd" d="M1279.4 1281.31C1279.4 1281.31 1278.35 1284.86 1275.99 1287.91C1273.46 1291.16 1269.6 1293.93 1269.6 1293.93L1260.41 1286.96C1260.41 1286.96 1264.59 1284.9 1266.93 1281.88C1269.48 1278.59 1270.21 1274.34 1270.21 1274.34L1279.4 1281.31Z" fill="#FF837E"/>
<path fill-rule="evenodd" clip-rule="evenodd" d="M1234.53 2068.73C1234.53 2068.73 1236.7 2065.73 1239.95 2063.64C1243.41 2061.42 1247.98 2060.1 1247.98 2060.1L1254.32 2069.74C1254.32 2069.74 1249.68 2070.29 1246.48 2072.35C1242.98 2074.6 1240.87 2078.36 1240.87 2078.36L1234.53 2068.73Z" fill="#FF837E"/>
<path fill-rule="evenodd" clip-rule="evenodd" d="M1293.2 2757.71C1293.2 2757.71 1293.72 2754.05 1295.63 2750.68C1297.66 2747.11 1301.09 2743.82 1301.09 2743.82L1311.18 2749.4C1311.18 2749.4 1307.34 2752.04 1305.45 2755.36C1303.4 2758.98 1303.29 2763.29 1303.29 2763.29L1293.2 2757.71Z" fill="#FF837E"/>
<path fill-rule="evenodd" clip-rule="evenodd" d="M44.0233 3240.89C44.0233 3240.89 44.5472 3237.23 46.4536 3233.87C48.4853 3230.29 51.9161 3227 51.9161 3227L62.0077 3232.58C62.0077 3232.58 58.1616 3235.22 56.2796 3238.54C54.2258 3242.16 54.1148 3246.47 54.1148 3246.47L44.0233 3240.89Z" fill="#FF837E"/>
<path fill-rule="evenodd" clip-rule="evenodd" d="M28.0233 1169.89C28.0233 1169.89 28.5472 1166.23 30.4536 1162.87C32.4853 1159.29 35.9161 1156 35.9161 1156L46.0077 1161.58C46.0077 1161.58 42.1616 1164.22 40.2796 1167.54C38.2258 1171.16 38.1148 1175.47 38.1148 1175.47L28.0233 1169.89Z" fill="#FF837E"/>
<path fill-rule="evenodd" clip-rule="evenodd" d="M32.0233 2226.89C32.0233 2226.89 32.5472 2223.23 34.4536 2219.87C36.4853 2216.29 39.9161 2213 39.9161 2213L50.0077 2218.58C50.0077 2218.58 46.1616 2221.22 44.2796 2224.54C42.2258 2228.16 42.1148 2232.47 42.1148 2232.47L32.0233 2226.89Z" fill="#FF837E"/>
<path fill-rule="evenodd" clip-rule="evenodd" d="M16.0233 4090.89C16.0233 4090.89 16.5472 4087.23 18.4536 4083.87C20.4853 4080.29 23.9161 4077 23.9161 4077L34.0077 4082.58C34.0077 4082.58 30.1616 4085.22 28.2796 4088.54C26.2258 4092.16 26.1148 4096.47 26.1148 4096.47L16.0233 4090.89Z" fill="#FF837E"/>
<path fill-rule="evenodd" clip-rule="evenodd" d="M55.0233 4900.89C55.0233 4900.89 55.5472 4897.23 57.4536 4893.87C59.4853 4890.29 62.9161 4887 62.9161 4887L73.0077 4892.58C73.0077 4892.58 69.1616 4895.22 67.2796 4898.54C65.2258 4902.16 65.1148 4906.47 65.1148 4906.47L55.0233 4900.89Z" fill="#FF837E"/>
<path fill-rule="evenodd" clip-rule="evenodd" d="M48.0233 6240.89C48.0233 6240.89 48.5472 6237.23 50.4536 6233.87C52.4853 6230.29 55.9161 6227 55.9161 6227L66.0077 6232.58C66.0077 6232.58 62.1616 6235.22 60.2796 6238.54C58.2258 6242.16 58.1148 6246.47 58.1148 6246.47L48.0233 6240.89Z" fill="#FF837E"/>
<path fill-rule="evenodd" clip-rule="evenodd" d="M41.0233 5887.89C41.0233 5887.89 41.5472 5884.23 43.4536 5880.87C45.4853 5877.29 48.9161 5874 48.9161 5874L59.0077 5879.58C59.0077 5879.58 55.1616 5882.22 53.2796 5885.54C51.2258 5889.16 51.1148 5893.47 51.1148 5893.47L41.0233 5887.89Z" fill="#FF837E"/>
<path fill-rule="evenodd" clip-rule="evenodd" d="M411.023 4681.89C411.023 4681.89 411.547 4678.23 413.454 4674.87C415.485 4671.29 418.916 4668 418.916 4668L429.008 4673.58C429.008 4673.58 425.162 4676.22 423.28 4679.54C421.226 4683.16 421.115 4687.47 421.115 4687.47L411.023 4681.89Z" fill="#FF837E"/>
<path fill-rule="evenodd" clip-rule="evenodd" d="M1289.81 3243.82C1289.81 3243.82 1290.33 3240.17 1292.24 3236.8C1294.27 3233.22 1297.7 3229.93 1297.7 3229.93L1307.79 3235.51C1307.79 3235.51 1303.95 3238.16 1302.06 3241.48C1300.01 3245.1 1299.9 3249.41 1299.9 3249.41L1289.81 3243.82Z" fill="#FF837E"/>
<path fill-rule="evenodd" clip-rule="evenodd" d="M1316.1 4111.82C1316.1 4111.82 1316.62 4108.17 1318.53 4104.8C1320.56 4101.22 1323.99 4097.93 1323.99 4097.93L1334.08 4103.51C1334.08 4103.51 1330.24 4106.16 1328.36 4109.48C1326.3 4113.1 1326.19 4117.41 1326.19 4117.41L1316.1 4111.82Z" fill="#FF837E"/>
<path fill-rule="evenodd" clip-rule="evenodd" d="M1211.03 4434.1C1211.03 4434.1 1209.8 4437.58 1207.27 4440.51C1204.57 4443.61 1200.56 4446.16 1200.56 4446.16L1191.76 4438.71C1191.76 4438.71 1196.05 4436.87 1198.55 4433.99C1201.28 4430.85 1202.23 4426.64 1202.23 4426.64L1211.03 4434.1Z" fill="#FF837E"/>
<path fill-rule="evenodd" clip-rule="evenodd" d="M1021.14 4844.7C1021.14 4844.7 1019.91 4848.19 1017.38 4851.11C1014.68 4854.22 1010.67 4856.77 1010.67 4856.77L1001.87 4849.31C1001.87 4849.31 1006.17 4847.48 1008.66 4844.59C1011.39 4841.45 1012.35 4837.25 1012.35 4837.25L1021.14 4844.7Z" fill="#FF837E"/>
<path fill-rule="evenodd" clip-rule="evenodd" d="M1177.14 5538.7C1177.14 5538.7 1175.91 5542.19 1173.38 5545.11C1170.68 5548.22 1166.67 5550.77 1166.67 5550.77L1157.87 5543.31C1157.87 5543.31 1162.17 5541.48 1164.66 5538.59C1167.39 5535.45 1168.35 5531.25 1168.35 5531.25L1177.14 5538.7Z" fill="#FF837E"/>
<path fill-rule="evenodd" clip-rule="evenodd" d="M1156.14 6030.7C1156.14 6030.7 1154.91 6034.19 1152.38 6037.11C1149.68 6040.22 1145.67 6042.77 1145.67 6042.77L1136.87 6035.31C1136.87 6035.31 1141.17 6033.48 1143.66 6030.59C1146.39 6027.45 1147.35 6023.25 1147.35 6023.25L1156.14 6030.7Z" fill="#FF837E"/>
<path fill-rule="evenodd" clip-rule="evenodd" d="M55.143 6625.7C55.143 6625.7 53.909 6629.19 51.3779 6632.11C48.6813 6635.22 44.6699 6637.77 44.6699 6637.77L35.8745 6630.31C35.8745 6630.31 40.166 6628.48 42.6644 6625.59C45.3903 6622.45 46.3477 6618.25 46.3477 6618.25L55.143 6625.7Z" fill="#FF837E"/>
<path fill-rule="evenodd" clip-rule="evenodd" d="M1243.14 6100.7C1243.14 6100.7 1241.91 6104.19 1239.38 6107.11C1236.68 6110.22 1232.67 6112.77 1232.67 6112.77L1223.87 6105.31C1223.87 6105.31 1228.17 6103.48 1230.66 6100.59C1233.39 6097.45 1234.35 6093.25 1234.35 6093.25L1243.14 6100.7Z" fill="white"/>
<path fill-rule="evenodd" clip-rule="evenodd" d="M36.143 6844.7C36.143 6844.7 34.909 6848.19 32.3779 6851.11C29.6813 6854.22 25.6699 6856.77 25.6699 6856.77L16.8745 6849.31C16.8745 6849.31 21.166 6847.48 23.6644 6844.59C26.3903 6841.45 27.3477 6837.25 27.3477 6837.25L36.143 6844.7Z" fill="white"/>
<path fill-rule="evenodd" clip-rule="evenodd" d="M1270.14 6891.7C1270.14 6891.7 1268.91 6895.19 1266.38 6898.11C1263.68 6901.22 1259.67 6903.77 1259.67 6903.77L1250.87 6896.31C1250.87 6896.31 1255.17 6894.48 1257.66 6891.59C1260.39 6888.45 1261.35 6884.25 1261.35 6884.25L1270.14 6891.7Z" fill="white"/>
<path fill-rule="evenodd" clip-rule="evenodd" d="M38.143 7211.7C38.143 7211.7 36.909 7215.19 34.3779 7218.11C31.6813 7221.22 27.6699 7223.77 27.6699 7223.77L18.8745 7216.31C18.8745 7216.31 23.166 7214.48 25.6644 7211.59C28.3903 7208.45 29.3477 7204.25 29.3477 7204.25L38.143 7211.7Z" fill="white"/>
<path fill-rule="evenodd" clip-rule="evenodd" d="M1257.14 7526.7C1257.14 7526.7 1255.91 7530.19 1253.38 7533.11C1250.68 7536.22 1246.67 7538.77 1246.67 7538.77L1237.87 7531.31C1237.87 7531.31 1242.17 7529.48 1244.66 7526.59C1247.39 7523.45 1248.35 7519.25 1248.35 7519.25L1257.14 7526.7Z" fill="white"/>
<path fill-rule="evenodd" clip-rule="evenodd" d="M50.143 7907.7C50.143 7907.7 48.909 7911.19 46.3779 7914.11C43.6813 7917.22 39.6699 7919.77 39.6699 7919.77L30.8745 7912.31C30.8745 7912.31 35.166 7910.48 37.6644 7907.59C40.3903 7904.45 41.3477 7900.25 41.3477 7900.25L50.143 7907.7Z" fill="white"/>
<path fill-rule="evenodd" clip-rule="evenodd" d="M64.143 8366.7C64.143 8366.7 62.909 8370.19 60.3779 8373.11C57.6813 8376.22 53.6699 8378.77 53.6699 8378.77L44.8745 8371.31C44.8745 8371.31 49.166 8369.48 51.6644 8366.59C54.3903 8363.45 55.3477 8359.25 55.3477 8359.25L64.143 8366.7Z" fill="white"/>
<path fill-rule="evenodd" clip-rule="evenodd" d="M1272.43 8018.14C1272.43 8018.14 1268.81 8017.4 1265.56 8015.3C1262.11 8013.07 1259.02 8009.45 1259.02 8009.45L1265.17 7999.7C1265.17 7999.7 1267.59 8003.69 1270.79 8005.76C1274.29 8008.02 1278.58 8008.38 1278.58 8008.38L1272.43 8018.14Z" fill="white"/>
<path fill-rule="evenodd" clip-rule="evenodd" d="M1305.56 8417.11C1305.56 8417.11 1301.94 8416.37 1298.69 8414.28C1295.23 8412.04 1292.15 8408.43 1292.15 8408.43L1298.3 8398.67C1298.3 8398.67 1300.72 8402.67 1303.92 8404.74C1307.42 8407 1311.71 8407.36 1311.71 8407.36L1305.56 8417.11Z" fill="white"/>
<path fill-rule="evenodd" clip-rule="evenodd" d="M1229.56 8487.11C1229.56 8487.11 1225.94 8486.37 1222.69 8484.28C1219.23 8482.04 1216.15 8478.43 1216.15 8478.43L1222.3 8468.67C1222.3 8468.67 1224.72 8472.67 1227.92 8474.74C1231.42 8477 1235.71 8477.36 1235.71 8477.36L1229.56 8487.11Z" fill="white"/>
<path fill-rule="evenodd" clip-rule="evenodd" d="M1268.91 5808.92C1268.91 5808.92 1265.25 5808.38 1261.9 5806.47C1258.33 5804.42 1255.05 5800.98 1255.05 5800.98L1260.67 5790.91C1260.67 5790.91 1263.3 5794.76 1266.61 5796.66C1270.22 5798.72 1274.53 5798.85 1274.53 5798.85L1268.91 5808.92Z" fill="white"/>
<path fill-rule="evenodd" clip-rule="evenodd" d="M1140.87 4830.61C1140.87 4830.61 1137.21 4830.07 1133.86 4828.15C1130.28 4826.11 1127.01 4822.66 1127.01 4822.66L1132.63 4812.59C1132.63 4812.59 1135.26 4816.45 1138.57 4818.34C1142.18 4820.41 1146.49 4820.54 1146.49 4820.54L1140.87 4830.61Z" fill="white"/>
<path fill-rule="evenodd" clip-rule="evenodd" d="M53.8688 5680.61C53.8688 5680.61 50.2121 5680.07 46.8565 5678.15C43.2851 5676.11 40.0077 5672.66 40.0077 5672.66L45.6254 5662.59C45.6254 5662.59 48.2559 5666.45 51.5667 5668.34C55.177 5670.41 59.4865 5670.54 59.4865 5670.54L53.8688 5680.61Z" fill="white"/>
<path fill-rule="evenodd" clip-rule="evenodd" d="M111.869 6380.61C111.869 6380.61 108.212 6380.07 104.857 6378.15C101.285 6376.11 98.0077 6372.66 98.0077 6372.66L103.625 6362.59C103.625 6362.59 106.256 6366.45 109.567 6368.34C113.177 6370.41 117.487 6370.54 117.487 6370.54L111.869 6380.61Z" fill="white"/>
<path fill-rule="evenodd" clip-rule="evenodd" d="M247.093 5066.45C247.093 5066.45 247.448 5062.78 249.198 5059.33C251.064 5055.66 254.34 5052.22 254.34 5052.22L264.677 5057.33C264.677 5057.33 260.956 5060.15 259.228 5063.55C257.343 5067.26 257.429 5071.57 257.429 5071.57L247.093 5066.45Z" fill="white"/>
<path fill-rule="evenodd" clip-rule="evenodd" d="M1286.14 6283.7C1286.14 6283.7 1284.91 6287.19 1282.38 6290.11C1279.68 6293.22 1275.67 6295.77 1275.67 6295.77L1266.87 6288.31C1266.87 6288.31 1271.17 6286.48 1273.66 6283.59C1276.39 6280.45 1277.35 6276.25 1277.35 6276.25L1286.14 6283.7Z" fill="#FF837E"/>
<path fill-rule="evenodd" clip-rule="evenodd" d="M1168.14 6688.7C1168.14 6688.7 1166.91 6692.19 1164.38 6695.11C1161.68 6698.22 1157.67 6700.77 1157.67 6700.77L1148.87 6693.31C1148.87 6693.31 1153.17 6691.48 1155.66 6688.59C1158.39 6685.45 1159.35 6681.25 1159.35 6681.25L1168.14 6688.7Z" fill="#FF837E"/>
<path fill-rule="evenodd" clip-rule="evenodd" d="M1222.14 7678.7C1222.14 7678.7 1220.91 7682.19 1218.38 7685.11C1215.68 7688.22 1211.67 7690.77 1211.67 7690.77L1202.87 7683.31C1202.87 7683.31 1207.17 7681.48 1209.66 7678.59C1212.39 7675.45 1213.35 7671.25 1213.35 7671.25L1222.14 7678.7Z" fill="#FF837E"/>
<path fill-rule="evenodd" clip-rule="evenodd" d="M1288.14 7918.7C1288.14 7918.7 1286.91 7922.19 1284.38 7925.11C1281.68 7928.22 1277.67 7930.77 1277.67 7930.77L1268.87 7923.31C1268.87 7923.31 1273.17 7921.48 1275.66 7918.59C1278.39 7915.45 1279.35 7911.25 1279.35 7911.25L1288.14 7918.7Z" fill="#FF837E"/>
<path fill-rule="evenodd" clip-rule="evenodd" d="M1259.14 8366.7C1259.14 8366.7 1257.91 8370.19 1255.38 8373.11C1252.68 8376.22 1248.67 8378.77 1248.67 8378.77L1239.87 8371.31C1239.87 8371.31 1244.17 8369.48 1246.66 8366.59C1249.39 8363.45 1250.35 8359.25 1250.35 8359.25L1259.14 8366.7Z" fill="#FF837E"/>
<path fill-rule="evenodd" clip-rule="evenodd" d="M50.143 8311.7C50.143 8311.7 48.909 8315.19 46.3779 8318.11C43.6813 8321.22 39.6699 8323.77 39.6699 8323.77L30.8745 8316.31C30.8745 8316.31 35.166 8314.48 37.6644 8311.59C40.3903 8308.45 41.3477 8304.25 41.3477 8304.25L50.143 8311.7Z" fill="#FF837E"/>
<path fill-rule="evenodd" clip-rule="evenodd" d="M50.143 7674.7C50.143 7674.7 48.909 7678.19 46.3779 7681.11C43.6813 7684.22 39.6699 7686.77 39.6699 7686.77L30.8745 7679.31C30.8745 7679.31 35.166 7677.48 37.6644 7674.59C40.3903 7671.45 41.3477 7667.25 41.3477 7667.25L50.143 7674.7Z" fill="#FF837E"/>
<path fill-rule="evenodd" clip-rule="evenodd" d="M1269.14 7171.7C1269.14 7171.7 1267.91 7175.19 1265.38 7178.11C1262.68 7181.22 1258.67 7183.77 1258.67 7183.77L1249.87 7176.31C1249.87 7176.31 1254.17 7174.48 1256.66 7171.59C1259.39 7168.45 1260.35 7164.25 1260.35 7164.25L1269.14 7171.7Z" fill="#FF837E"/>
<path fill-rule="evenodd" clip-rule="evenodd" d="M91.143 7304.7C91.143 7304.7 89.909 7308.19 87.3779 7311.11C84.6813 7314.22 80.6699 7316.77 80.6699 7316.77L71.8745 7309.31C71.8745 7309.31 76.166 7307.48 78.6644 7304.59C81.3903 7301.45 82.3477 7297.25 82.3477 7297.25L91.143 7304.7Z" fill="#FF837E"/>
<path fill-rule="evenodd" clip-rule="evenodd" d="M174.696 20.1256C174.696 20.1256 177.913 21.1968 180.648 23.435C183.558 25.8197 185.99 29.3874 185.99 29.3874L179.385 37.337C179.385 37.337 177.6 33.5115 174.902 31.3022C171.96 28.8916 168.091 28.0752 168.091 28.0752L174.696 20.1256Z" fill="#FF837E"/>
</svg>
