<svg width="634" height="386" viewBox="0 0 634 386" fill="none" xmlns="http://www.w3.org/2000/svg">
<rect x="11" y="7.99365" width="492" height="318" rx="20" fill="#FED430"/>
<rect x="2.5" y="1.49365" width="489" height="315" rx="18.5" stroke="black" stroke-width="3"/>
<line y1="82.5" x2="493" y2="82.5" stroke="black" stroke-width="3"/>
<path d="M193.072 165.154H226.592V174.994H186.512V167.794C191.152 162.754 195.632 157.714 199.552 153.234C208.272 143.394 212.192 138.114 212.192 129.474C212.192 121.554 208.432 116.594 202.272 116.594C201.312 116.594 200.272 116.674 199.232 116.914L197.472 124.834C196.592 130.194 193.952 131.474 191.472 131.474C189.152 131.474 187.232 130.194 186.272 128.194C186.992 118.994 196.032 113.874 206.752 113.874C219.392 113.874 225.232 120.754 225.232 130.274C225.232 138.834 217.792 145.074 202.992 156.754C200.432 158.834 196.752 161.874 193.072 165.154ZM246.144 144.994C246.144 167.554 250.064 173.554 254.784 173.554C259.504 173.554 263.584 167.474 263.584 144.994C263.584 122.674 259.504 116.674 254.784 116.674C250.064 116.674 246.144 122.594 246.144 144.994ZM254.784 113.874C265.824 113.874 275.664 123.314 275.664 144.994C275.664 166.834 265.824 176.354 254.784 176.354C243.664 176.354 233.984 166.834 233.984 144.994C233.984 123.314 243.664 113.874 254.784 113.874ZM294.816 144.994C294.816 167.554 298.736 173.554 303.456 173.554C308.176 173.554 312.256 167.474 312.256 144.994C312.256 122.674 308.176 116.674 303.456 116.674C298.736 116.674 294.816 122.594 294.816 144.994ZM303.456 113.874C314.496 113.874 324.336 123.314 324.336 144.994C324.336 166.834 314.496 176.354 303.456 176.354C292.336 176.354 282.656 166.834 282.656 144.994C282.656 123.314 292.336 113.874 303.456 113.874Z" fill="black"/>
<path d="M203.96 232.234L206.92 228.434C206.92 228.434 210.28 230.954 212.28 232.714C212.16 233.154 211.72 233.354 211.12 233.354H177.08L176.76 232.234H190.84V223.714H180.92L180.6 222.594H190.84V214.874H182.64L182.32 213.754H198.12L200.76 210.434C200.76 210.434 203.76 212.674 205.6 214.234C205.48 214.674 205.04 214.874 204.48 214.874H196.96V222.594H201.28L204.04 218.994C204.04 218.994 207.16 221.434 209.04 223.074C208.96 223.514 208.52 223.714 207.92 223.714H196.96V232.234H203.96ZM195.56 196.834L199.92 199.714C199.44 200.274 197.96 200.634 196.2 200.754C199.24 204.154 206.48 207.594 213.68 208.874V209.394C211.2 210.154 209.24 212.514 208.56 214.874C203.12 211.634 197.88 206.554 195.36 200.994C191.32 207.794 183.68 213.474 175.12 216.554L174.92 216.194C180.92 212.234 186.2 206.154 188.28 200.594H182.6L182.24 199.474H193.96L195.56 196.834ZM226.8 207.794V201.074H223.64V207.794H226.8ZM223.64 223.114L226.8 222.594V216.674H223.64V223.114ZM226.8 215.554V208.914H223.64V215.554H226.8ZM233.8 201.074H231.48V233.354C231.44 233.674 230.04 234.674 227.64 234.674H226.8V224.674C225.04 225.954 222.84 227.474 220.16 229.194C219.96 229.714 219.52 230.154 219 230.274L216.8 224.154C217.36 224.074 218.16 223.994 219.12 223.834V201.074H217.2L216.88 199.954H227.8L230.32 196.794C230.32 196.794 233.2 198.914 234.92 200.434C234.8 200.874 234.36 201.074 233.8 201.074ZM250.84 210.754C250.64 209.834 250.32 208.914 250.04 208.114C248.84 209.194 247.6 210.194 246.4 211.074C247.68 210.994 249.24 210.874 250.84 210.754ZM244.6 208.914L242.92 204.954C242.08 205.874 241.04 206.834 239.92 207.834C241.84 208.794 242.88 209.914 243.4 210.954C243.68 210.874 244.08 210.754 244.32 210.634C245.24 209.914 246.28 208.634 247.24 207.234L245.6 207.914C245.32 208.434 244.96 208.754 244.6 208.914ZM235.6 211.154C236.84 211.074 238.36 210.994 239.96 210.834C239.76 209.994 239.52 209.154 239.24 208.394C238.04 209.394 236.8 210.354 235.6 211.154ZM250.76 200.634L255.28 203.834C255.08 204.154 254.56 204.394 253.8 204.194C253 205.234 251.84 206.434 250.56 207.634C257.84 211.314 254.04 216.874 251.24 214.074C251.28 213.434 251.2 212.754 251.12 212.074C249.52 212.874 247.44 213.914 245.32 214.874C245.24 214.954 245.16 214.994 245.08 215.074L249.76 215.514C249.68 216.034 249.36 216.474 248.28 216.634V223.594H249.8V216.074L254.96 216.554C254.88 216.994 254.64 217.314 253.8 217.434V226.034C253.8 226.354 252 226.994 250.52 226.994H249.8V224.714H248.28V233.554C248.28 233.914 246.36 234.714 244.68 234.714H243.88V216.034C243.68 216.234 243.36 216.354 242.84 216.434V222.594C242.76 227.514 240.96 232.314 232.4 234.914L232.04 234.474C236.68 231.914 238.16 228.394 238.52 224.714H237.32L236 226.874L231.76 224.274C232.04 223.914 232.52 223.474 233 223.154V215.834L238.52 216.234C238.44 216.714 238.12 217.074 237 217.274V223.594H238.6C238.64 223.234 238.64 222.914 238.64 222.554V214.874L243.88 215.394V214.954L244.32 214.994L243.72 212.994C243.44 214.594 241.72 215.354 240.28 213.914C240.32 213.394 240.28 212.794 240.2 212.234C238.6 213.034 236.52 214.034 234.4 214.954C234.2 215.114 233.96 215.234 233.72 215.314L232.44 210.954C232.44 210.954 233.28 210.794 233.64 210.554C234.6 209.834 235.68 208.634 236.72 207.234L235 207.954C234.76 208.314 234.48 208.554 234.16 208.674L232.28 204.354C232.28 204.354 232.96 204.194 233.28 203.994C234.68 202.754 236.44 198.754 236.92 196.714L242.28 199.194C242.12 199.554 241.72 199.834 240.96 199.754C239.48 201.354 237.28 203.314 235.28 204.594C236.24 204.634 237.36 204.594 238.48 204.594C239.36 203.154 240.08 201.754 240.52 200.714L244.32 203.474C245.52 201.714 246.76 198.434 247.08 196.634L252.48 199.074C252.32 199.434 251.92 199.754 251.16 199.674C249.84 201.234 247.88 203.154 246.04 204.514C246.92 204.554 247.88 204.554 248.92 204.514C249.72 203.074 250.4 201.674 250.76 200.634ZM262.84 197.074L263.12 196.914C274.28 198.594 267.88 206.234 263.72 202.194C263.88 200.314 263.4 198.394 262.84 197.074ZM279.28 223.914H287.24V219.474H279.28V223.914ZM269.04 213.674V214.274C270.24 214.714 271.2 215.194 271.92 215.714L271.72 214.994H290.72L292.2 213.154C291.56 213.314 290.8 213.394 289.92 213.394H289.04V212.874H277.8V213.074C277.8 213.394 276.32 214.194 273.84 214.194H272.96V207.794C272.76 207.834 272.56 207.834 272.32 207.874C271.52 209.794 270.4 211.754 269.04 213.674ZM279.04 202.754H277.8V206.714H279.04V202.754ZM284 202.754H282.72V206.714H284V202.754ZM289.04 202.754H287.68V206.714H289.04V202.754ZM287.68 207.834V211.754H289.04V207.834H287.68ZM282.72 207.834V211.754H284V207.834H282.72ZM277.8 207.834V211.754H279.04V207.834H277.8ZM289.92 231.674L292.64 228.194C292.64 228.194 295.76 230.514 297.64 232.154C297.52 232.594 297.08 232.794 296.52 232.794H270.68L270.36 231.674H284.24C284.92 229.754 285.6 227.154 286 225.354L287.24 225.754V225.034H279.28V225.754C279.28 225.834 279.16 225.954 278.92 226.114C285.44 228.674 280.48 233.714 277.4 230.514C277.52 229.234 277.32 227.834 277.04 226.714C276.52 226.794 275.92 226.834 275.24 226.834H274.36V216.354L279.68 218.354H287.08L289.08 216.114H272.44C276.28 219.354 272.88 223.394 270.04 220.834C270 219.354 269.56 217.754 269.04 216.314V233.114C269.04 233.434 267.36 234.714 264.8 234.714H263.84V219.514C262.32 220.874 260.64 222.114 258.88 223.114L258.52 222.834C262.6 218.114 265.6 211.914 266.8 206.634H259.64L259.28 205.514H266.52L269.36 202.754L272.96 206.194V199.634L278.24 201.634H279.04V196.994L283.56 197.434C283.52 197.794 283.28 198.074 282.72 198.194V201.634H284V196.994L288.72 197.434C288.64 197.874 288.4 198.154 287.68 198.314V201.634H288.88L291.2 198.994L295.64 202.314C295.36 202.674 295 202.914 294.12 203.074V212.394C294.12 212.474 293.92 212.594 293.56 212.754C294.4 213.394 295.92 214.554 297 215.474C296.92 215.914 296.48 216.114 295.92 216.114H289.88L293.84 219.034C293.6 219.394 293.24 219.634 292.36 219.754V225.274C292.36 225.434 290.92 226.114 288.52 226.194L291.88 227.314C291.68 227.794 291.2 228.074 290.32 227.994C289.12 229.074 287.24 230.474 285.44 231.674H289.92ZM305.28 198.194L305.56 197.994C318 199.554 312.48 208.994 307.52 204.914C307.44 202.474 306.44 199.954 305.28 198.194ZM324.68 218.994L327.24 216.594C326.76 215.754 326.36 214.914 326.08 214.154H315.52C314.16 215.914 312.52 217.554 310.6 218.994H324.68ZM337.84 214.154H327.24C329.08 215.714 333.16 216.994 339.4 217.634V218.154C336.88 218.754 335.56 219.874 335.48 222.914C333.92 222.434 332.56 221.754 331.4 220.954C331.2 220.994 331 221.034 330.8 221.074C330.4 228.634 329.6 232.114 327.48 233.594C326.12 234.514 324.52 234.954 321.84 234.954C321.84 233.354 321.68 232.034 320.96 231.234C320.24 230.394 318.92 229.754 317.12 229.354V228.954C318.8 229.074 321.44 229.194 322.24 229.194C322.84 229.194 323.16 229.114 323.44 228.874C324.24 228.234 324.72 225.274 325.04 220.114H320.36C318.52 227.674 312.8 232.594 302.48 234.794L302.32 234.354C309.56 231.074 312.96 226.234 313.88 220.114H309C306.72 221.554 304.12 222.794 301.04 223.754L300.76 223.354C305.04 220.874 308.16 217.714 310.44 214.154H301.68L301.36 213.034H311.12C312.04 211.394 312.84 209.634 313.48 207.874H303.72L303.4 206.754H313.84C314.96 203.394 315.56 199.874 315.92 196.394L323.64 198.074C323.52 198.554 323.2 198.874 322.12 198.954C321.52 201.594 320.76 204.234 319.72 206.754H324.2C325.12 204.154 326.28 200.554 326.92 197.874L333.16 201.034C332.92 201.434 332.36 201.714 331.48 201.594C329.92 203.114 327.84 205.154 325.68 206.754H329.88L332.44 202.954C332.44 202.954 335.4 205.554 337.04 207.234C336.96 207.674 336.52 207.874 335.96 207.874H319.24C318.44 209.674 317.48 211.394 316.36 213.034H331.2L334 208.954C334 208.954 337.2 211.714 339 213.514C338.88 213.954 338.44 214.154 337.84 214.154Z" fill="black"/>
<path d="M219.382 269.94C217.542 266.94 216.442 263.72 216.442 259.78C216.442 255.86 217.542 252.62 219.382 249.64L220.522 250.16C218.782 253.02 217.962 256.38 217.962 259.78C217.962 263.18 218.782 266.56 220.522 269.4L219.382 269.94ZM228.699 257.92L228.899 259.26L226.459 260.02V265.82C226.459 266.64 226.259 267.04 225.739 267.28C225.239 267.5 224.439 267.54 223.119 267.54C223.059 267.16 222.859 266.58 222.659 266.18C223.559 266.2 224.399 266.2 224.639 266.2C224.919 266.2 225.019 266.1 225.019 265.82V260.46L222.399 261.28L221.999 259.84C222.839 259.62 223.879 259.32 225.019 258.98V254.66H222.259V253.28H225.019V249.28H226.459V253.28H228.679V254.66H226.459V258.6C227.199 258.38 227.939 258.14 228.699 257.92ZM235.359 264.64H238.659V260.56H235.359V264.64ZM230.799 260.56V264.64H233.939V260.56H230.799ZM233.939 255.26H230.799V259.16H233.939V255.26ZM238.659 255.26H235.359V259.16H238.659V255.26ZM235.359 253.84H240.119V267.34H238.659V266.06H230.799V267.48H229.379V253.84H233.939V249.3H235.359V253.84ZM242.239 266V264.92C246.839 260.9 248.959 257.98 248.959 255.46C248.959 253.78 248.079 252.56 246.259 252.56C245.059 252.56 244.019 253.3 243.219 254.26L242.159 253.22C243.359 251.92 244.619 251.06 246.479 251.06C249.099 251.06 250.739 252.78 250.739 255.4C250.739 258.32 248.439 261.3 244.999 264.56C245.759 264.5 246.659 264.42 247.399 264.42H251.459V266H242.239ZM258.013 266.26C255.213 266.26 253.433 263.72 253.433 258.62C253.433 253.52 255.213 251.06 258.013 251.06C260.793 251.06 262.573 253.54 262.573 258.62C262.573 263.72 260.793 266.26 258.013 266.26ZM258.013 264.8C259.673 264.8 260.793 262.94 260.793 258.62C260.793 254.34 259.673 252.54 258.013 252.54C256.333 252.54 255.213 254.34 255.213 258.62C255.213 262.94 256.333 264.8 258.013 264.8ZM269.107 266.26C266.307 266.26 264.527 263.72 264.527 258.62C264.527 253.52 266.307 251.06 269.107 251.06C271.887 251.06 273.667 253.54 273.667 258.62C273.667 263.72 271.887 266.26 269.107 266.26ZM269.107 264.8C270.767 264.8 271.887 262.94 271.887 258.62C271.887 254.34 270.767 252.54 269.107 252.54C267.427 252.54 266.307 254.34 266.307 258.62C266.307 262.94 267.427 264.8 269.107 264.8ZM281.181 265.12H290.061V260.58H281.181V265.12ZM289.281 252.62H281.881C281.461 253.04 281.001 253.42 280.541 253.82C281.901 254.78 283.581 256.04 284.561 256.98C286.481 255.78 288.141 254.3 289.281 252.62ZM291.581 259.2V267.52H290.061V266.48H281.181V267.52H279.721V260.94C278.621 261.32 277.501 261.64 276.401 261.9C276.281 261.5 275.941 260.86 275.641 260.54C278.181 260.02 280.821 259.08 283.181 257.8C282.221 256.84 280.701 255.64 279.381 254.66C278.681 255.14 277.941 255.6 277.141 256C276.921 255.66 276.441 255.1 276.121 254.88C279.341 253.32 281.601 251.1 282.801 249.2L284.461 249.56C284.081 250.12 283.661 250.7 283.161 251.26H290.241L290.481 251.18L291.481 251.8C289.841 254.98 286.961 257.44 283.641 259.2H291.581ZM296.621 269.94L295.501 269.4C297.221 266.56 298.061 263.18 298.061 259.78C298.061 256.38 297.221 253.02 295.501 250.16L296.621 249.64C298.481 252.62 299.581 255.86 299.581 259.78C299.581 263.72 298.481 266.94 296.621 269.94Z" fill="black"/>
<path d="M367.96 143.994H339.32L339 142.874H360.6L363.64 139.034C363.64 139.034 367.08 141.594 369.12 143.354C369 143.794 368.56 143.994 367.96 143.994ZM371.16 163.234L371.28 169.634C372.76 170.274 373.08 170.954 373.08 172.114C373.08 174.434 371.16 175.594 364.6 175.594H361.08C356.56 175.594 355.48 174.594 355.48 170.674V154.074H351.28C350.64 164.594 347.36 173.074 334.48 176.794L334.32 176.434C342.96 170.954 344.64 163.034 344.72 154.074H335.24L334.92 152.954H363.64L366.76 148.874C366.76 148.874 370.32 151.594 372.44 153.434C372.32 153.874 371.84 154.074 371.24 154.074H361.4V155.074V169.114C361.4 169.754 361.64 169.954 362.6 169.954H365.32C366.12 169.954 366.88 169.954 367.4 169.914C367.92 169.914 368.16 169.794 368.44 169.274C369 168.394 369.8 166.114 370.76 163.234H371.16Z" fill="black"/>
<circle cx="136.5" cy="146.494" r="34.5" fill="white"/>
<path d="M144.863 161.714H148.063V150.834H144.863V161.714ZM136.543 150.834V161.714H139.463V150.834H136.543ZM127.143 139.274V146.354C128.503 146.154 129.943 145.914 131.343 145.674V139.274H127.143ZM139.463 139.194H136.543V149.714H139.463V139.194ZM148.063 139.194H144.863V149.714H148.063V139.194ZM150.143 135.314L155.063 139.194C154.783 139.554 154.263 139.874 153.463 140.074V164.794C153.423 165.194 150.863 166.314 148.943 166.314H148.063V162.834H136.543V164.594C136.543 165.194 134.463 166.434 132.183 166.434H131.343V146.354C130.223 147.114 128.863 147.994 127.143 149.034V160.754C127.143 164.394 126.423 166.314 120.983 166.794C120.903 165.074 120.743 163.834 120.263 163.034C119.823 162.234 119.183 161.674 117.583 161.354V160.794C117.583 160.794 120.423 160.994 121.103 160.994C121.663 160.994 121.823 160.834 121.823 160.434V152.114L120.023 153.074C119.823 153.594 119.343 154.034 118.823 154.114L116.783 147.754C117.863 147.634 119.663 147.434 121.823 147.114V139.274H117.423L117.103 138.154H121.823V128.834L128.583 129.474C128.543 130.074 128.143 130.474 127.143 130.594V137.514L128.943 134.554C128.943 134.554 130.143 135.754 131.343 137.034V135.874L136.823 138.074H139.463V129.394L146.143 130.034C146.103 130.554 145.823 130.914 144.863 131.074V138.074H147.663L150.143 135.314Z" fill="black"/>
<path d="M195.8 45.76L197.28 44.52C199.42 46.06 202.5 48.36 203.94 49.94L201.92 51.76C200.68 50.28 197.96 48 195.8 46.34V56.7H193.2V46.94C191.38 48.88 189.24 50.62 186.84 51.86C186.46 51.22 185.72 50.24 185.2 49.7C188.84 48 191.96 44.9 193.82 41.84H185.84V39.4H203.18V41.84H196.96C196.62 42.46 196.22 43.08 195.8 43.68V45.76ZM212.16 38.74L213.72 39.64C213.2 41.32 212.54 43.34 212 44.88C213.2 46.44 213.44 47.86 213.44 49.04C213.44 50.32 213.18 51.18 212.54 51.66C212.24 51.9 211.86 52.02 211.42 52.1C211.06 52.16 210.58 52.16 210.12 52.14C210.12 51.56 209.92 50.68 209.6 50.1C209.94 50.12 210.24 50.14 210.46 50.12C210.66 50.12 210.86 50.08 211 49.96C211.24 49.78 211.36 49.34 211.36 48.78C211.36 47.8 211.1 46.52 209.96 45.12C210.34 43.9 210.78 42.28 211.1 40.96H209.16V56.7H207.08V38.84H211.84L212.16 38.74ZM216.64 44.38V45.98H221.04V44.38H216.64ZM221.04 40.9H216.64V42.46H221.04V40.9ZM222.96 48.24L224.5 49.92C223.64 50.6 222.6 51.36 221.7 51.94C222.54 53.08 223.62 54.02 224.94 54.62C224.42 55.08 223.7 56.02 223.36 56.68C220.38 55.04 218.78 51.96 217.84 48.04H216.64V53.66L219.42 53.04C219.4 53.72 219.44 54.7 219.52 55.2C215.62 56.2 214.88 56.5 214.4 56.8C214.22 56.28 213.72 55.34 213.38 54.94C213.8 54.68 214.3 54.14 214.3 53.2V38.86H223.34V48.04H219.88C220.1 48.82 220.36 49.54 220.68 50.22C221.5 49.6 222.38 48.86 222.96 48.24ZM231.62 38.1L233.82 38.82C233.28 40.2 232.62 41.62 231.84 42.96V56.68H229.58V46.4C229.12 46.98 228.64 47.52 228.18 48.02C227.96 47.44 227.3 46.16 226.9 45.58C228.76 43.78 230.58 40.94 231.62 38.1ZM235.18 50.34L237.32 50.98C236.5 52.7 235.28 54.64 234.26 55.86C233.84 55.5 232.96 54.86 232.42 54.58C233.42 53.48 234.5 51.82 235.18 50.34ZM236.48 41.02V43.7H242.34V41.02H236.48ZM245.72 49.72H240.54V56.74H238.14V49.72H232.92V47.56H238.14V45.8H234.22V38.92H244.72V45.8H240.54V47.56H245.72V49.72ZM241.22 51.3L242.98 50.32C244.12 51.64 245.34 53.36 245.92 54.54L244.04 55.68C243.5 54.5 242.28 52.66 241.22 51.3ZM253.3 51.52V52.36H261.9V51.52H253.3ZM258.58 44.78H255.88C255.66 45.24 255.34 45.66 254.94 46.04H258.58V44.78ZM252.28 42.52L252.14 43.4H254.04C254.12 43.12 254.16 42.82 254.18 42.52H252.28ZM256.36 40.34V41.14H258.58V40.34H256.36ZM262.92 40.34H260.84V41.14H262.92V40.34ZM258.58 43.4V42.52H256.36C256.34 42.82 256.32 43.12 256.28 43.4H258.58ZM264.02 44.78H260.84V46.04H262.62C262.54 45.8 262.46 45.56 262.34 45.38C262.82 45.44 263.24 45.46 263.46 45.44C263.64 45.44 263.76 45.44 263.88 45.32C263.94 45.22 264 45.06 264.02 44.78ZM261.9 49.44H253.3V50.26H261.9V49.44ZM261.9 47.38H253.3V48.18H261.9V47.38ZM264.32 53.7H262.12C263.76 54.26 265.38 54.86 266.44 55.34L264.7 56.76C263.42 56.12 261.18 55.16 259.02 54.46L259.78 53.7H254.9L256.36 54.38C254.72 55.36 252.14 56.28 250.1 56.78C249.74 56.32 248.9 55.46 248.38 55.06C250.2 54.76 252.18 54.3 253.6 53.7H250.98V47.76C250.52 47.86 250.02 47.96 249.5 48.04C249.3 47.52 248.74 46.62 248.36 46.18C250.74 45.88 252.16 45.4 253.02 44.78H249.8C250.02 43.78 250.26 42.32 250.38 41.14H254.2V40.34H249.66V38.94H254.2V38.06H256.36V38.94H258.58V38.06H260.84V38.94H265.08V42.52H260.84V43.4H266.36C266.36 43.4 266.34 43.78 266.34 44.02C266.24 45.26 266.12 45.96 265.78 46.32C265.5 46.64 265.08 46.78 264.64 46.8C264.56 46.8 264.44 46.82 264.32 46.82V53.7ZM275.32 43.84H282.02C280.76 43.06 279.58 42.18 278.56 41.24C277.6 42.24 276.5 43.08 275.32 43.84ZM282.68 50.24H279.76V54.14H282.26L280.92 53.58C281.54 52.68 282.28 51.28 282.68 50.24ZM277.2 50.24H274.18C274.88 51.22 275.64 52.54 275.92 53.42L274.28 54.14H277.2V50.24ZM283.78 46.02H279.76V48.1H286.14V50.24H282.98L284.98 50.96C284.28 52.08 283.5 53.28 282.88 54.14H287.18V56.32H269.88V54.14H273.82C273.5 53.22 272.82 51.9 272.16 50.9L273.74 50.24H270.84V48.1H277.2V46.02H273.14V45.04C272.3 45.44 271.44 45.8 270.56 46.12C270.24 45.42 269.58 44.52 268.98 43.92C272.74 42.84 276.34 40.82 278.24 37.84L280.5 38.86C280.32 39.12 280.14 39.38 279.94 39.66C281.9 41.42 285.14 43.08 288.14 43.92C287.6 44.44 286.86 45.38 286.5 46C285.6 45.68 284.68 45.28 283.78 44.84V46.02ZM293.78 54.38H296.38V52.4H293.78V54.38ZM292.7 50.56H297.72C297.06 50.08 296.18 49.52 295.24 48.94C294.46 49.58 293.6 50.12 292.7 50.56ZM299.54 49.26L298.4 50.56H298.46V56.72H296.38V56.22H293.78V56.74H291.8V50.96C291.56 51.06 291.32 51.16 291.08 51.24C290.86 50.7 290.32 49.78 289.94 49.36C291.16 49 292.36 48.5 293.4 47.82C293.04 47.6 292.7 47.4 292.36 47.2L293.68 45.82L295 46.54C295.42 46.16 295.8 45.7 296.12 45.22H293.7C293.12 46.06 292.42 46.8 291.5 47.46C291.28 46.96 290.72 46.2 290.34 45.9C291.88 44.9 292.8 43.52 293.22 42.2L295.02 42.56C294.92 42.86 294.82 43.16 294.68 43.46H297.2L297.54 43.4L297.56 43.42V41.9H292.18V43.62H290.46V40.02H293.98C293.84 39.58 293.68 39.12 293.54 38.76L295.44 38.1C295.68 38.68 295.96 39.4 296.2 40.02H299.4V43.62H297.84L298.7 44.24C298.22 45.5 297.52 46.58 296.72 47.52C297.8 48.14 298.86 48.78 299.54 49.26ZM302.42 49.78V50.96H306V49.78H302.42ZM302.42 46.9V48.1H306V46.9H302.42ZM302.42 44.06V45.22H306V44.06H302.42ZM308.24 52.78H305.76C306.84 53.42 308.26 54.42 309.02 55.12L307.66 56.74C306.96 56 305.44 54.86 304.34 54.12L305.52 52.78H302.54L303.96 54.26C302.76 55.2 301.02 56.2 299.66 56.84C299.44 56.34 299.02 55.58 298.68 55.1C299.9 54.54 301.52 53.58 302.46 52.78H300.3V42.24H302.84C302.92 41.8 303 41.32 303.06 40.86H299.8V38.86H308.74V40.86H305.22C305.1 41.34 304.94 41.82 304.8 42.24H308.24V52.78Z" fill="black"/>
<path d="M624.771 209.144C625.225 215.37 624.771 222.252 619.199 226.255C608.721 230.249 601.371 222.925 591.782 230.701C592.004 232.251 588.44 234.031 587.542 235.368C586.876 239.141 583.979 241.586 582.192 244.694C575.722 255.357 571.27 265.578 567.697 277.357C564.8 282.025 564.578 287.799 561.014 292.688C557.895 298.241 554.775 303.572 551.656 309.125C547.861 312.234 549.425 317.123 545.639 320.231C543.186 325.563 539.623 330.673 536.503 335.783V338.228L531.375 339.113C533.375 340.22 532.042 342.895 534.939 343.117C539.623 347.12 532.486 350.893 534.939 355.339C532.93 358.447 532.486 362.893 530.478 365.116C526.46 369.332 519.333 371.555 513.529 370.669C509.299 369.11 506.393 366.232 503.496 362.672C500.82 353.789 504.616 344.897 509.512 337.794C491.009 336.014 476.513 339.353 457.344 341.124C459.352 341.797 460.685 343.347 461.805 345.127C461.361 347.793 463.814 350.016 461.805 353.125C463.814 357.792 459.13 360.679 459.13 365.126C453.336 369.12 451.327 377.348 443.08 375.346C438.618 373.787 433.944 375.789 431.26 370.679C427.696 366.897 428.362 361.574 429.029 357.128C432.593 351.575 436.832 346.022 441.293 342.24C437.285 340.239 432.38 340.912 429.26 336.245C428.816 330.692 427.029 325.581 429.26 320.25C431.713 320.471 433.5 320.692 435.277 319.364C435.953 320.471 436.841 320.25 437.73 320.25C437.508 312.926 432.157 305.592 431.26 297.374C431.037 292.706 428.362 287.596 430.593 283.38L429.705 282.716L429.038 283.38C428.816 277.828 425.03 272.496 423.022 267.164L423.688 265.827C419.902 262.718 419.671 256.049 419.226 251.17C418.116 248.946 416.996 246.723 417.218 243.836C421.457 240.728 427.029 240.949 432.157 239.842C443.968 238.726 455.789 240.285 467.378 240.285L468.72 241.401C469.164 241.401 469.164 240.737 469.164 240.285C480.309 238.735 489.454 241.622 500.82 239.842C501.487 241.844 501.931 239.399 503.273 239.842C518.657 239.169 535.383 239.621 549.425 242.287C553.887 228.293 561.014 215.186 575.731 209.854C587.552 202.3 600.705 203.185 612.738 201.414C617.19 203.148 622.762 204.264 624.771 209.144Z" fill="black"/>
<path d="M484.77 216.256C483.66 217.584 483.872 220.25 481.419 220.25C479.411 219.364 475.625 217.141 475.403 214.697C474.292 210.703 475.847 208.249 475.847 204.255C481.207 205.814 483.66 211.367 484.77 216.256Z" fill="black"/>
<path d="M541.622 214.706C541.4 216.487 540.058 216.929 538.503 217.815C535.828 216.265 533.153 218.258 530.922 215.37C532.255 212.031 534.717 209.144 535.383 205.371C538.716 206.921 540.724 211.146 541.622 214.706Z" fill="black"/>
<path d="M511.965 214.254C512.854 214.476 513.53 215.37 513.298 216.256C510.401 218.922 506.606 217.141 503.486 218.257C499.479 215.37 501.922 210.26 502.376 206.709L502.82 205.814C506.615 206.709 511.299 210.039 511.965 214.254Z" fill="black"/>
<path d="M454.224 212.704C456.899 212.031 456.01 215.37 457.788 215.813L456.677 218.257C454.446 216.92 453.104 214.476 450.216 214.254C449.994 211.588 447.097 211.146 446.652 208.701C449.327 209.375 455.122 209.144 454.224 212.704Z" fill="black"/>
<path d="M617.634 211.146C617.412 212.705 616.523 214.476 615.181 215.37C604.694 216.034 591.319 218.479 583.516 226.698C567.687 241.134 561.893 265.578 552.979 285.797C549.193 290.907 547.407 298.241 543.621 303.351C540.946 309.347 537.827 314.014 535.596 320.231C533.143 324.013 531.134 328.459 528.015 332.232C524.896 333.118 521.101 332.675 518.426 331.125C513.298 335.128 503.708 331.568 497.469 332.684C477.624 332.241 456.677 336.235 435.721 337.13C435.721 334.021 433.934 330.018 437.285 328.69C439.294 328.026 441.747 330.692 443.08 327.362C444.866 328.026 447.985 327.362 449.318 327.14C455.113 328.026 460.907 326.919 466.711 327.14C470.052 326.255 474.292 325.369 478.3 324.696C489.889 326.033 498.367 326.919 510.845 327.14C513.742 324.917 519.536 327.804 523.331 326.255C525.34 325.369 529.126 328.256 530.014 324.253C529.57 318.479 530.912 312.704 534.92 308.258C533.587 303.812 538.484 301.146 538.484 296.7H539.382L543.39 287.153L541.381 285.373C546.287 284.487 544.723 277.376 547.398 275.374C552.526 265.375 555.201 260.717 557.431 249.823C553.868 245.607 558.32 240.94 559.662 236.715C565.901 216.284 588.644 213.166 606.703 210.279C610.053 211.819 614.737 209.144 617.634 211.146Z" fill="#FBFBFB"/>
<path d="M436.619 219.816C435.73 222.482 433.277 219.816 431.713 219.816C429.26 218.036 426.14 215.813 424.576 213.156C425.465 211.376 427.696 212.714 429.038 213.378C431.935 215.592 434.61 217.141 436.619 219.816Z" fill="black"/>
<path d="M477.855 248.697C478.299 246.917 480.308 248.255 481.419 248.697C482.983 250.699 480.975 253.365 481.197 255.809H463.369C464.258 253.586 465.378 251.363 465.822 249.14C466.488 250.699 468.941 245.81 470.728 248.697C473.847 250.69 475.402 244.694 477.855 248.697Z" fill="#FBFBFB"/>
<path d="M440.183 248.245C440.627 246.686 442.636 248.467 443.08 247.803L443.746 249.131L445.079 247.36L445.746 249.131C447.977 247.803 451.762 250.016 455.104 248.245L455.77 249.131C456.215 248.909 456.215 248.245 456.215 247.803H457.325L455.761 255.8L428.122 256.243C433.916 264.24 447.069 260.689 455.317 262.238L455.77 265.126H456.215C453.984 266.011 457.325 269.12 455.104 269.35L455.326 277.791C450.207 279.119 445.07 280.235 439.276 279.792C439.054 282.237 441.729 285.124 444.182 286.24C447.523 283.795 451.985 287.347 455.326 285.124C457.557 286.461 456.002 288.675 457.113 290.234C454.882 289.348 456.002 295.344 456.224 296.672C453.771 298.231 449.763 297.346 447.754 296.23C447.31 296.008 447.088 295.344 446.644 295.344C444.857 299.348 449.319 301.34 451.772 303.784C456.9 302.456 457.122 307.345 459.13 309.337C457.566 312.446 459.797 316.228 460.241 319.336C455.113 317.999 442.849 325.332 443.746 314.226C440.627 308.452 438.619 300.897 438.619 293.785C436.166 293.564 438.174 290.898 437.286 289.782C434.388 275.115 427.252 264.231 425.688 249.343C430.593 248.457 435.499 249.786 439.285 247.351L440.183 248.245Z" fill="#FBFBFB"/>
<path d="M506.393 249.362V256.252L488.778 255.809C488.778 253.365 488.778 250.256 487.214 249.14C489.222 248.476 492.12 248.698 495.239 247.812C499.932 250.247 502.607 246.475 506.393 249.362Z" fill="#FBFBFB"/>
<path d="M523.341 249.804C523.785 249.583 524.451 249.362 525.349 249.362L524.461 257.138C520.221 258.245 515.325 258.245 512.427 255.357C512.427 252.692 510.419 250.247 508.41 248.697C511.307 249.362 515.325 249.14 518 247.803C519.101 251.142 521.776 248.024 523.341 249.804Z" fill="#FBFBFB"/>
<path d="M544.519 250.69C542.066 260.689 538.503 270.688 535.374 279.792C536.041 280.235 536.263 281.121 536.041 281.794H535.374C531.366 294.237 525.34 305.565 521.999 318.23C508.401 319.115 498.368 318.23 484.77 319.115C486.103 316.007 483.659 314.005 485.214 311.339C487.001 308.231 482.984 304.227 485.437 301.34C487.223 298.674 488.565 303.342 491.24 301.119C493.471 300.455 495.248 303.12 497.479 301.119C502.385 305.122 494.36 313.562 501.496 317.787C504.171 313.341 503.06 307.345 505.504 302.678C509.299 303.342 513.761 300.455 517.324 302.678C519.777 302.678 520.222 299.569 520.444 297.346V296.239L520.888 296.682C522.674 293.352 523.341 291.129 523.563 287.135C524.23 286.249 526.238 285.355 524.905 284.248C526.914 273.142 532.486 261.814 530.922 250.699C534.263 249.362 538.503 251.806 541.622 248.698C540.946 249.804 543.399 250.247 544.519 250.69Z" fill="#FBFBFB"/>
<path d="M480.753 261.353C480.531 266.021 480.087 270.688 479.198 275.356C473.395 275.356 467.378 277.357 462.25 276.241C464.925 273.132 461.361 269.351 463.361 265.356V261.805C466.036 262.027 469.155 261.805 471.83 260.698C474.292 263.355 478.078 260.468 480.753 261.353Z" fill="#FBFBFB"/>
<path d="M505.282 261.805C504.837 265.799 504.384 270.688 503.273 274.682C499.043 273.354 492.128 275.577 487.223 275.355L488.343 262.248C495.248 262.691 498.811 261.353 505.282 261.805Z" fill="#FBFBFB"/>
<path d="M523.341 264.24L520.444 275.346C516.871 275.789 513.974 274.673 510.855 274.673C510.41 272.007 512.641 266.463 512.419 262.681C515.983 263.133 519.546 264.914 523.341 264.24Z" fill="#FBFBFB"/>
<path d="M502.829 281.13L501.264 294.237C496.136 295.787 490.786 294.237 485.436 294.237C482.761 291.793 487.445 289.349 484.77 287.126C486.103 285.124 485.436 283.796 486.769 281.794C488.111 281.13 489.444 284.238 489.888 281.342C490.777 283.344 493.23 280.899 493.906 282.237C495.692 279.792 498.367 282.91 499.478 279.128C499.487 281.573 501.709 279.792 502.829 281.13Z" fill="#FBFBFB"/>
<path d="M517.315 281.13C521.101 282.458 517.759 285.354 517.537 287.799L515.316 297.798C512.863 296.47 510.41 293.573 507.513 295.796L509.299 280.244C512.187 281.13 515.084 282.015 517.315 281.13Z" fill="#FBFBFB"/>
<path d="M477.855 283.353C478.077 287.347 479.42 290.907 478.3 294.68L464.258 295.353C465.369 293.13 464.036 292.245 463.813 289.801C464.036 288.242 463.591 285.354 465.369 284.248C469.83 284.46 474.292 283.796 477.855 283.353Z" fill="#FBFBFB"/>
<path d="M478.745 319.336C475.181 318.23 468.489 322.888 467.156 317.335L465.147 313.783C466.934 312.677 465.147 311.56 465.147 309.78V306.229H463.139C464.481 302.899 468.044 304.449 469.387 301.792L469.831 303.12C473.617 302.899 474.737 300.233 477.412 301.34L479.198 304.227L478.745 319.336Z" fill="#FBFBFB"/>
<path d="M525.34 344.223C528.459 347.111 526.451 350.219 526.451 353.328C526.006 354.001 526.006 354.656 525.34 355.108C526.451 352.885 523.776 349.334 521.323 347.332C517.981 347.996 518.426 343.771 514.862 345.33C513.298 347.332 512.631 351.105 512.409 353.328C515.084 355.551 518.213 361.104 522.443 358.217L524.007 356.658C524.451 359.102 522.443 361.104 520.443 363.327C517.102 364.443 513.973 366.657 510.41 365.771C506.615 361.325 507.068 354.001 509.956 349.112C513.298 346.225 516.426 337.342 521.554 341.779C522.221 343.329 523.563 344.223 525.34 344.223Z" fill="#FBFBFB"/>
<path d="M455.123 354.222C453.114 359.775 451.337 367.33 445.089 370.217C441.97 371.776 437.508 372.44 434.167 371.103C432.158 368.437 431.269 364.886 431.714 361.768C434.611 355.32 438.184 349.324 444.2 345.109C449.106 348.217 454.225 348.217 455.123 354.222Z" fill="#FBFBFB"/>
<path d="M449.328 352.664C447.319 356.888 450.217 361.777 445.764 365.107C443.089 365.55 440.192 364.222 438.628 361.777C437.517 359.554 437.961 357.331 439.072 355.117C441.525 352.442 446.422 347.996 449.328 352.664Z" fill="black"/>
<path d="M445.089 357.11C444.644 358.226 443.524 359.333 442.636 359.776C443.302 358.881 442.414 355.994 445.089 357.11Z" fill="#FBFBFB"/>
</svg>
