<svg width="392" height="190" viewBox="0 0 392 190" fill="none" xmlns="http://www.w3.org/2000/svg">
<path d="M363.39 153.05C363.39 153.05 330.907 101.841 330.344 94.9421C329.78 88.0436 320.277 26.4557 320.277 26.4557C320.277 26.4557 320.205 17.1259 317.348 18.7697C315.113 20.0558 314.883 29.1759 314.883 29.1759C314.883 29.1759 313.917 29.2447 313.917 30.1973C313.917 31.1498 313.917 32.3363 313.917 32.3363L314.267 32.5117L313.652 47.3507L311.386 71.5848C311.386 71.5848 306.054 103.852 304.214 109.251C302.375 114.651 294.254 141.866 294.254 141.866L287.23 161.492V162.239L303.025 161.2C303.025 161.2 311.568 139.49 315.852 136.006C320.139 132.523 326.737 131.295 329.323 132.894C331.908 134.493 339.341 148.307 339.341 148.307L352.447 155.364L363.39 153.05Z" fill="#FBFBFB"/>
<path d="M291.885 163.377C291.782 163.332 291.686 163.284 291.593 163.222C289.248 161.658 292.851 153.163 293.573 151.203C294.646 148.301 296.671 144.961 296.87 141.822C297.087 138.414 303.427 123.454 306.61 108.261C309.794 93.068 313.466 82.6411 314.906 60.6285C316.35 38.6159 317.231 24.8842 317.433 22.0161C317.636 19.1481 320.83 17.4389 321.04 21.294C321.25 25.1524 334.386 71.0932 335.83 79.7524C337.274 88.4116 345 111.377 349.328 122.564C351.883 129.163 358.013 138.438 361.313 144.683C362.64 147.2 363.087 149.129 364.297 151.705C365.597 154.47 367.216 157.575 367.797 160.781C368.437 164.288 361.011 164.137 358.656 164.202C355.31 164.295 351.962 164.319 348.617 164.275C346.674 164.247 344.016 164.33 342.978 162.531C342.476 161.664 342.356 160.282 342.101 159.319C341.273 156.227 340.444 153.136 339.482 150.082C338.192 145.993 336.202 137.344 331.505 135.687C325.372 133.52 317.437 134.964 313.827 140.738C310.636 147.111 308.766 154.119 306.614 160.918C305.648 163.968 304.359 164.054 301.364 164.13C298.521 164.202 295.674 164.03 292.862 163.607C292.528 163.563 292.191 163.504 291.885 163.377Z" fill="#FF8585"/>
<path d="M286.815 162.62C286.811 162.62 286.811 162.617 286.808 162.617C286.553 162.465 286.402 162.139 286.502 161.853C286.732 161.196 286.949 160.533 287.203 159.883C287.812 158.397 288.379 156.898 288.871 155.371C289.579 153.008 290.297 150.646 291.019 148.29C291.889 145.587 292.872 142.922 293.828 140.247C295.853 134.957 297.194 129.452 298.892 124.056C300.691 118.447 302.774 112.928 304.3 107.229C306.119 100.056 308.069 92.8718 308.907 85.5021C309.323 81.1072 309.794 76.7156 310.616 72.3723C311.531 67.3308 312.057 62.42 312.562 57.3579C312.944 54.06 313.336 50.7586 313.415 47.4366C313.511 43.8222 313.504 40.201 313.714 36.5902C313.765 35.7751 313.845 34.9635 313.92 34.1485C313.992 33.6946 313.944 33.1994 314.123 32.7729C313.824 32.7386 313.535 32.6148 313.497 32.2674C313.411 31.7619 313.422 31.2392 313.449 30.7268C313.48 29.7914 313.8 28.887 314.845 28.7528C314.872 28.746 314.9 28.7391 314.927 28.7322C314.797 28.1476 314.821 27.3326 314.793 27.0024C314.793 25.1867 314.787 23.309 315.412 21.5827C315.756 20.6163 316.186 19.6637 316.798 18.8349C316.946 18.6527 317.083 18.4429 317.245 18.2641C317.159 17.793 317.197 17.2221 317.155 16.8644C317.128 16.156 317.107 15.4442 317.114 14.7357C317.118 13.116 317.1 11.4963 317.159 9.87996C317.162 9.36756 317.148 8.85516 317.159 8.3462C317.145 8.07452 317.203 7.68249 317.537 7.65497C317.736 7.6481 317.884 7.83036 317.929 8.00575C318.066 8.8586 318.008 9.73553 318.049 10.5953C318.097 11.7335 318.173 12.8753 318.19 14.0136C318.194 14.8767 318.201 15.7365 318.221 16.5996C318.225 17.0811 318.221 17.5625 318.214 18.0406C318.214 18.0715 318.214 18.1025 318.214 18.1334C318.723 18.4945 319.184 19.3577 319.428 19.7084C320.397 21.3798 320.889 23.2746 321.257 25.1557C321.367 25.7025 321.453 26.2596 321.515 26.8098C321.542 27.0884 321.618 27.4323 321.563 27.7212C321.714 27.7143 321.862 27.728 322.003 27.7831C322.615 27.5526 322.787 28.0891 322.725 28.5946C322.718 29.1586 322.742 29.7226 322.722 30.2866C322.718 30.799 322.605 31.1463 322.412 31.3939C322.601 32.6182 322.766 33.8425 322.945 35.0667C323.347 37.756 323.908 40.4211 324.399 43.0932C324.482 43.1998 324.564 43.3098 324.647 43.4199C324.76 43.6537 324.698 43.8429 324.557 43.9667C324.836 45.5451 325.125 47.1236 325.527 48.678C325.957 50.3493 326.428 52.0103 326.823 53.692C327.521 56.5394 328.047 59.4247 328.656 62.2928C329.539 66.3782 331.014 70.3055 332.176 74.3153C333.978 80.0721 334.249 86.1658 335.845 91.9776C337.467 98.0714 339.166 104.162 341.648 109.974C341.71 110.121 341.768 110.273 341.83 110.421C342.043 110.421 342.263 110.448 342.38 110.648C342.552 110.93 342.477 111.291 342.287 111.555C344.739 117.636 347.073 123.76 349.483 129.854C350.914 133.609 352.987 137.055 354.933 140.556C357.48 145.353 359.646 150.354 362.527 154.972C363.751 157.018 364.961 159.075 366.251 161.08C366.282 161.124 366.313 161.169 366.344 161.214C366.381 161.221 366.419 161.227 366.457 161.238C366.643 161.327 366.725 161.478 366.725 161.644C366.749 161.664 366.773 161.685 366.801 161.705C366.852 161.767 366.887 161.867 366.852 161.946C366.794 162.087 366.667 162.135 366.536 162.139C366.412 162.29 366.244 162.4 366.062 162.414C365.907 162.435 365.749 162.424 365.591 162.424C363.665 162.431 361.743 162.355 359.822 162.29C354.802 162.266 349.782 162.142 344.766 161.912C344.233 161.891 343.704 161.881 343.175 161.826C342.996 161.809 342.772 161.778 342.676 161.619C342.642 161.616 342.604 161.606 342.566 161.592C342.542 161.582 342.521 161.571 342.501 161.561C342.353 161.568 342.205 161.578 342.057 161.592C340.971 161.685 339.891 161.812 338.808 161.908C338.231 161.957 337.605 162.063 337.055 161.826C336.34 161.482 336.195 160.663 336.106 159.952C336.016 159.374 335.889 158.803 335.772 158.229C335.336 155.997 335.002 153.737 334.308 151.564C333.754 149.752 333.177 147.943 332.788 146.086C332.468 144.573 332.248 143.042 331.905 141.536C331.475 139.641 330.835 137.86 330.027 136.103C329.398 134.686 328.659 133.3 327.583 132.172C327.452 132.017 327.304 131.876 327.153 131.739C326.191 131.522 325.2 131.439 324.221 131.556C321.852 131.814 319.469 132.533 317.527 133.95C316.272 134.827 315.268 135.986 314.34 137.193C311.833 140.47 309.887 144.139 308.21 147.898C308.172 148.012 308.13 148.129 308.093 148.242C308.069 148.325 308.024 148.407 307.962 148.469C306.556 151.887 305.504 155.436 304.342 158.941C304.149 159.539 303.977 160.141 303.795 160.743C303.668 161.138 303.424 162.084 303.032 161.932C302.939 162.039 302.822 162.118 302.698 162.142C302.303 162.269 301.884 162.259 301.474 162.297C300.072 162.441 298.545 162.6 297.201 162.661C293.869 162.871 290.524 162.741 287.189 162.858C287.024 162.847 286.88 162.754 286.815 162.62ZM289.572 155.983C289.063 157.427 288.65 158.779 288.207 160.206C288.073 160.639 287.915 161.069 287.753 161.492C287.963 161.362 288.221 161.269 288.406 161.141C289.455 160.543 290.476 159.9 291.514 159.284C293.398 158.191 295.214 156.994 297.026 155.794C295.468 153.947 293.749 152.235 291.965 150.605C291.906 150.598 291.848 150.594 291.789 150.587C291.786 150.587 291.779 150.587 291.776 150.587C291.026 152.379 290.249 154.16 289.572 155.983ZM295.509 157.692C294.155 158.542 292.817 159.422 291.477 160.292C290.861 160.694 290.235 161.086 289.599 161.454C289.847 161.451 290.091 161.448 290.335 161.437C291.48 161.417 292.625 161.396 293.77 161.368C296.348 161.32 298.927 161.21 301.502 161.076C300.849 160.416 300.237 159.718 299.68 158.972C299.02 158.119 298.339 157.379 297.655 156.564C297.624 156.526 297.593 156.489 297.562 156.447C296.871 156.846 296.183 157.255 295.509 157.692ZM349.057 160.749C352.536 160.88 356.005 161.269 359.492 161.186C360.812 161.179 362.132 161.148 363.452 161.124C363.851 161.131 364.253 161.114 364.659 161.107C363.139 160.027 361.551 159.047 360.028 157.974C358.402 156.819 356.765 155.914 355.043 154.972C353.836 154.295 352.595 153.682 351.343 153.094C350.298 154.439 349.305 155.825 348.225 157.142C347.417 158.108 346.568 159.04 345.64 159.893C345.327 160.172 345.004 160.44 344.68 160.705C344.794 160.701 344.907 160.701 345.017 160.701C346.362 160.708 347.709 160.729 349.057 160.749ZM305.796 151.623C305.775 151.64 305.755 151.653 305.731 151.667C304.17 152.561 302.657 153.538 301.107 154.446C300.154 154.996 299.192 155.522 298.232 156.066C299.123 157.211 300.013 158.359 300.935 159.48C301.433 160.055 301.942 160.574 302.533 161.028C302.64 161.031 302.746 161.042 302.853 161.059C302.86 161.028 302.863 160.997 302.87 160.97C303.107 159.828 303.468 158.851 303.802 157.764C304.438 155.763 305.177 153.796 305.844 151.805C305.865 151.743 305.885 151.681 305.903 151.623C305.868 151.619 305.83 151.619 305.796 151.623ZM339.341 148.304C340.077 150.845 340.857 153.369 341.744 155.859C342.26 157.434 342.865 158.982 343.326 160.571C343.343 160.629 343.353 160.694 343.357 160.76C343.405 160.756 343.456 160.753 343.505 160.749C343.333 160.557 343.37 160.247 343.587 160.086C344.096 159.649 344.618 159.229 345.107 158.765C345.88 158.015 346.647 157.255 347.386 156.471C348.531 155.292 349.576 154.026 350.611 152.754C350.016 152.479 349.421 152.207 348.83 151.932C346.028 150.653 343.312 149.205 340.665 147.63C340.149 147.338 339.637 147.021 339.094 146.777C339.169 147.289 339.248 147.798 339.341 148.304ZM353.152 150.914C352.694 151.416 352.261 151.935 351.835 152.465C353.331 153.29 354.84 154.085 356.387 154.804C358.883 155.894 361.118 157.441 363.387 158.93C361.908 156.905 360.746 154.659 359.574 152.444C358.625 150.653 357.563 148.926 356.545 147.173C355.448 148.448 354.283 149.666 353.152 150.914ZM293.924 151.42C294.97 152.42 296.056 153.39 296.998 154.491C297.228 154.779 297.455 155.068 297.682 155.361C297.875 155.233 298.071 155.106 298.263 154.975C300.144 153.762 302.09 152.654 304.084 151.64C303.919 151.64 303.75 151.64 303.585 151.64C300.12 151.626 296.696 150.986 293.244 150.739C293.227 150.739 293.209 150.735 293.192 150.735C293.443 150.962 293.68 151.196 293.924 151.42ZM341.191 146.76C344.632 148.307 347.864 150.25 351.154 152.09C352.193 150.811 353.234 149.532 354.365 148.331C354.737 147.936 355.115 147.551 355.486 147.155C355.631 147.021 355.761 146.863 355.895 146.708C353.753 145.133 351.45 143.82 349.208 142.406C347.947 141.595 346.716 140.731 345.495 139.861C344.079 141.464 342.662 143.066 341.026 144.449C340.544 144.872 340.07 145.305 339.609 145.749C339.585 145.773 339.561 145.797 339.537 145.824C339.675 145.818 339.809 145.818 339.939 145.811C342.508 145.828 345.065 146.199 347.637 146.148C350.116 146.131 352.595 146.144 355.07 146.258C355.775 146.33 355.304 147.214 354.768 147.135C353.423 147.025 352.072 147.032 350.731 146.925C349.528 146.818 348.321 146.756 347.115 146.739C345.375 146.719 343.635 146.715 341.899 146.619C341.507 146.598 341.115 146.574 340.723 146.554C340.881 146.622 341.036 146.691 341.191 146.76ZM296.114 147.262C294.915 148.218 293.612 149.03 292.395 149.958C294.413 150.102 296.445 150.505 298.452 150.601C300.488 150.718 302.526 150.711 304.565 150.718C304.895 150.718 305.229 150.718 305.559 150.718C305.597 150.718 305.638 150.718 305.676 150.718C304.173 148.352 302.551 146.065 300.746 143.93C299.188 145.02 297.638 146.12 296.114 147.262ZM309.495 137.791C307.886 138.902 306.27 139.999 304.696 141.151C303.633 141.904 302.564 142.65 301.498 143.4C301.939 143.851 302.372 144.311 302.774 144.8C304.122 146.433 305.359 148.166 306.442 149.982C307.023 148.218 307.625 146.461 308.32 144.738C308.722 143.17 309.117 141.601 309.526 140.033C309.798 139.046 310.128 138.08 310.431 137.103C310.1 137.323 309.791 137.568 309.495 137.791ZM292.707 148.29C292.532 148.744 292.35 149.195 292.168 149.645C292.35 149.483 292.529 149.318 292.711 149.157C294.045 147.939 295.554 146.942 297.108 146.027C298.091 145.46 298.999 144.779 299.865 144.043C300.061 143.888 300.257 143.734 300.453 143.579C299.817 142.839 299.157 142.117 298.473 141.419C297.638 140.563 296.647 139.789 296.008 138.768C294.987 141.969 293.942 145.164 292.707 148.29ZM346.754 138.448C346.527 138.699 346.3 138.953 346.076 139.208C348.634 140.821 351.226 142.386 353.716 144.102C354.293 144.5 354.885 144.882 355.476 145.264C355.445 145.202 355.411 145.144 355.38 145.082C354.063 142.613 352.908 140.061 351.763 137.509C351.343 136.532 350.914 135.559 350.477 134.593C349.215 135.862 347.933 137.103 346.754 138.448ZM337.526 137.42C338.107 139.882 338.502 142.379 338.839 144.882C339.076 144.655 339.32 144.452 339.482 144.28C340.672 143.156 342.03 142.231 343.212 141.096C343.8 140.566 344.374 140.02 344.938 139.462C343.783 138.637 342.628 137.808 341.452 137.01C339.85 135.9 338.262 134.775 336.69 133.623C336.632 133.582 336.573 133.541 336.515 133.499C336.879 134.796 337.227 136.103 337.526 137.42ZM297.125 138.933C297.118 138.936 297.112 138.936 297.105 138.94C298.016 139.989 299.068 140.903 300.03 141.908C300.395 142.289 300.77 142.664 301.144 143.039C302.451 142.024 303.785 141.044 305.187 140.167C306.57 139.29 307.934 138.389 309.224 137.392C308.354 137.488 307.477 137.533 306.607 137.64C305.277 137.801 303.964 138.094 302.633 138.255C301.708 138.376 300.783 138.475 299.852 138.524C298.848 138.589 297.823 138.527 296.823 138.606C296.881 138.682 296.94 138.744 297.001 138.785C297.06 138.799 297.139 138.83 297.187 138.782C297.222 138.764 297.246 138.799 297.246 138.837C297.249 138.868 297.235 138.898 297.201 138.895C297.177 138.909 297.153 138.926 297.125 138.933ZM337.031 140.804C337.179 141.154 337.316 141.505 337.447 141.863C336.821 139.191 336.185 136.522 335.535 133.854C335.442 134.259 335.325 134.62 335.209 134.875C335.033 135.236 334.83 135.594 334.6 135.924C334.555 135.986 334.476 135.975 334.421 135.938C335.425 137.485 336.326 139.101 337.031 140.804ZM310.998 138.145C310.809 138.809 310.63 139.48 310.455 140.147C310.884 139.383 311.355 138.647 311.888 137.949C312.308 137.416 312.731 136.876 313.164 136.35C312.689 135.49 312.253 134.596 312.022 133.64C311.706 135.147 311.4 136.653 310.998 138.145ZM336.962 132.856C337.371 133.114 337.766 133.389 338.165 133.661C339.891 134.823 341.486 136.161 343.195 137.351C343.965 137.867 344.746 138.369 345.53 138.864C346.86 137.502 348.129 136.082 349.384 134.644C349.562 134.448 349.745 134.256 349.927 134.063C349.707 133.909 349.483 133.757 349.26 133.613C348.779 133.534 348.304 133.413 347.819 133.358C345.904 133.076 343.979 132.87 342.04 132.867C341.397 132.873 340.754 132.856 340.111 132.842C339.561 132.829 339.014 132.815 338.464 132.815C337.966 132.812 337.464 132.825 336.962 132.856ZM303.431 133.496C301.887 134.696 300.199 135.711 298.645 136.863C298.036 137.292 297.428 137.712 296.826 138.149C297.442 138.07 298.06 138.008 298.676 137.918C300.55 137.681 302.434 137.533 304.3 137.262C305.676 137.066 307.037 136.777 308.409 136.553C308.918 136.467 309.427 136.385 309.939 136.316C310.066 136.299 310.2 136.316 310.3 136.402C310.32 136.422 310.341 136.446 310.358 136.467C310.451 136.388 310.544 136.309 310.633 136.226C310.534 136.168 310.451 136.079 310.358 136.01C310.348 136.003 310.334 135.993 310.324 135.986C310.334 135.993 310.345 135.999 310.355 136.006C309.43 135.263 308.67 134.342 307.818 133.52C307.164 132.863 306.518 132.196 305.875 131.525C305.067 132.189 304.259 132.856 303.431 133.496ZM299.652 128.031C298.748 130.686 297.668 133.472 296.847 136.099C296.644 136.746 296.438 137.392 296.235 138.039C296.572 137.791 296.905 137.54 297.235 137.282C298.604 136.213 299.889 135.043 301.244 133.957C302.571 132.915 303.943 131.917 305.318 130.941C303.85 129.407 302.382 127.877 300.818 126.443C300.756 126.377 300.691 126.315 300.625 126.25C300.515 126.26 300.402 126.257 300.295 126.226C300.281 126.219 300.268 126.212 300.257 126.205C300.058 126.817 299.859 127.426 299.652 128.031ZM312.486 131.498C312.401 131.869 312.318 132.241 312.235 132.616C312.297 133.121 312.428 133.63 312.6 134.081C312.834 134.751 313.129 135.38 313.449 136.006C313.92 135.446 314.412 134.899 314.931 134.383C314.69 134.012 314.426 133.658 314.164 133.303C313.728 132.719 313.336 132.079 312.762 131.611C312.669 131.529 312.586 131.494 312.514 131.494C312.507 131.494 312.497 131.494 312.486 131.498ZM333.545 134.644C333.813 135.026 334.077 135.415 334.332 135.807C334.318 135.745 334.325 135.676 334.363 135.621C335.147 134.545 335.642 132.922 334.892 131.721C334.191 132.034 333.668 132.636 333.118 133.155C332.994 133.269 332.902 133.434 332.74 133.496C332.692 133.506 332.647 133.499 332.609 133.482C332.943 133.854 333.252 134.242 333.545 134.644ZM308.461 129.486C307.783 129.988 307.12 130.511 306.466 131.044C307.347 131.9 308.199 132.784 309.035 133.685C309.523 134.204 310.056 134.765 310.565 135.25C310.664 135.346 310.767 135.439 310.867 135.539C311.146 134.411 311.373 133.272 311.617 132.138C312.015 130.26 312.394 128.375 312.854 126.511C312.878 126.412 312.902 126.309 312.93 126.209C311.452 127.316 309.956 128.403 308.461 129.486ZM313.948 125.449C313.851 125.679 313.8 125.92 313.752 126.164C313.649 126.938 313.673 127.725 313.745 128.503C313.896 130.349 314.553 132.151 315.381 133.792C315.399 133.829 315.419 133.864 315.436 133.902C315.643 133.716 315.852 133.534 316.069 133.358C316.681 132.86 317.338 132.413 318.025 132.017C317.96 131.9 317.898 131.776 317.819 131.663C317.107 130.511 316.519 129.294 315.89 128.1C315.433 127.323 314.804 125.803 313.985 125.425C313.965 125.425 313.951 125.432 313.948 125.449ZM332.472 133.331C332.431 133.235 332.424 133.118 332.472 133.039C332.599 132.784 332.668 132.505 332.764 132.241C333.104 131.319 333.359 130.37 333.524 129.4C333.617 128.764 333.864 127.763 333.978 126.824C333.837 126.154 333.689 125.487 333.527 124.819C332.994 124.916 332.382 125.865 332.135 126.178C331.595 126.955 331.258 127.849 330.976 128.75C330.773 129.431 330.605 130.119 330.474 130.817C330.327 131.157 329.955 130.927 329.921 130.638C329.893 130.483 329.969 130.336 330.01 130.188C330.076 129.988 330.1 129.772 330.134 129.582C330.302 128.657 330.409 127.725 330.433 126.787C330.454 125.954 330.45 125.105 330.168 124.31C330.086 124.08 329.976 123.857 329.845 123.647C329.715 123.468 329.601 123.224 329.371 123.158C329.299 123.138 329.164 123.241 329.137 123.255C329.051 123.31 328.975 123.372 328.9 123.444C328.295 124.145 328.054 125.074 327.714 125.92C327.487 126.532 327.246 127.144 327.057 127.77C326.93 128.183 326.864 128.602 326.878 129.036C326.84 129.28 326.95 129.923 326.679 130.005C326.407 130.043 326.349 129.706 326.397 129.5C326.428 127.97 326.51 126.419 326.204 124.912C326.067 124.393 325.943 123.808 325.589 123.392C325.338 123.416 325.087 123.437 324.836 123.458L324.833 123.461C323.375 125.16 323.54 128 323.615 130.112C324.231 130.026 324.853 129.978 325.472 129.968C328.233 130.005 330.646 131.367 332.472 133.331ZM344.811 122.567C343.384 123.967 342.03 125.438 340.73 126.955C340.988 127.134 341.242 127.316 341.5 127.495C343.24 128.716 345.041 129.851 346.802 131.04C347.761 131.67 348.717 132.299 349.7 132.891C348.101 129.404 346.444 125.941 344.952 122.412C344.904 122.464 344.856 122.515 344.811 122.567ZM346.822 132.612C347.166 132.646 347.506 132.681 347.85 132.719C347.458 132.475 347.07 132.23 346.685 131.979C345.451 131.164 344.278 130.263 343.075 129.404C342.153 128.743 341.211 128.121 340.256 127.512C339.465 128.451 338.691 129.407 337.938 130.373C337.46 130.979 336.976 131.584 336.543 132.22C337.151 132.12 337.784 132.12 338.409 132.124C338.681 132.124 338.949 132.124 339.217 132.117C341.772 132.141 344.292 132.334 346.822 132.612ZM312.741 130.449C312.689 130.648 312.641 130.848 312.593 131.051C313.033 131.133 313.611 131.601 314.202 132.382C313.917 131.69 313.614 131.01 313.394 130.294C313.27 129.868 313.174 129.431 313.105 128.991C312.985 129.476 312.861 129.961 312.741 130.449ZM333.232 131.972C333.579 131.629 334.232 130.875 334.81 130.844C334.61 129.913 334.425 128.981 334.232 128.049C333.985 129.373 333.569 130.676 333.232 131.972ZM334.016 124.31C334.273 124.548 334.435 124.988 334.456 125.524C334.462 125.741 334.462 125.954 334.456 126.168C334.94 128.083 335.504 129.978 336.051 131.876C336.144 131.732 336.24 131.594 336.322 131.453C336.622 130.996 336.941 130.556 337.254 130.109C337.911 129.17 338.64 128.282 339.389 127.412C339.475 127.316 339.558 127.22 339.644 127.124C339.358 126.945 339.073 126.766 338.784 126.587C337.151 125.535 335.532 124.458 333.847 123.482C333.878 123.643 333.909 123.805 333.94 123.963C333.988 124.029 334.04 124.084 334.115 124.118C334.139 124.118 334.146 124.159 334.139 124.18C334.095 124.252 334.016 124.121 333.967 124.101C333.985 124.173 333.998 124.242 334.016 124.31ZM316.543 126.855C317.018 128.227 317.609 129.548 318.197 130.872C318.314 131.157 318.445 131.439 318.534 131.735C319.053 131.463 319.589 131.223 320.14 131.01C320.102 130.951 320.071 130.882 320.057 130.807C319.369 128.919 318.888 126.958 317.815 125.246C317.53 124.85 317.265 124.355 316.808 124.139C315.866 124.716 316.213 126.023 316.543 126.855ZM320.714 123.712C319.985 124.617 320.012 126.594 320.112 127.581C320.205 128.674 320.473 129.747 320.624 130.834C321.474 130.538 322.347 130.318 323.23 130.174C323.21 130.143 323.193 130.105 323.186 130.067C322.935 128.647 322.718 127.213 322.23 125.875C322.044 125.366 321.852 124.861 321.614 124.372C321.487 124.152 321.384 123.898 321.236 123.688C321.061 123.691 320.889 123.702 320.714 123.712ZM309.712 125.174C307.415 125.445 305.102 125.579 302.808 125.886C302.344 125.947 301.88 126.02 301.416 126.099C301.358 126.106 301.299 126.112 301.241 126.126C301.285 126.171 301.333 126.216 301.378 126.26C302.265 127.099 303.145 127.949 304.032 128.788C304.672 129.352 305.301 129.93 305.916 130.518C307.261 129.551 308.55 128.516 309.863 127.512C310.767 126.807 311.654 126.085 312.566 125.387C312.81 125.201 313.047 125.005 313.281 124.809C313.291 124.764 313.305 124.716 313.318 124.672C312.119 124.857 310.919 125.04 309.712 125.174ZM314.15 124.541C314.161 124.558 314.175 124.572 314.181 124.589C314.24 124.72 314.254 124.837 314.23 124.95C315.24 125.638 316.609 128.399 316.891 128.881C316.688 128.327 316.485 127.77 316.282 127.216C315.938 126.309 315.536 125.177 315.935 124.259C315.34 124.348 314.745 124.445 314.15 124.541ZM317.774 124.001C317.833 124.063 317.888 124.128 317.936 124.187C318.878 125.335 319.29 126.797 319.737 128.186C319.658 127.22 319.614 124.995 320.208 123.747C319.394 123.808 318.582 123.894 317.774 124.001ZM329.948 122.907C330.309 123.409 330.543 124.152 330.633 124.592C330.846 125.7 330.815 126.845 330.777 127.966C331.217 126.756 331.729 125.528 332.658 124.606C332.912 124.348 333.149 124.2 333.362 124.149C333.259 123.802 333.149 123.451 333.132 123.097C333.053 123.059 332.977 123.021 332.895 122.983C332.73 122.925 332.685 122.684 332.833 122.577C332.881 122.543 332.929 122.515 332.984 122.498C331.973 122.639 330.963 122.777 329.948 122.907ZM321.896 123.654C322.591 124.678 323.079 126.498 323.227 127.234C323.323 126.274 323.471 125.304 323.842 124.41C323.939 124.152 324.097 123.812 324.296 123.502C323.499 123.568 322.697 123.619 321.896 123.654ZM338.708 122.058C336.859 122.141 335.095 122.226 333.276 122.453C333.768 122.478 334.356 122.89 334.734 123.069C336.615 124.111 338.392 125.318 340.152 126.549C341.198 125.363 342.236 124.169 343.278 122.98C343.676 122.519 344.103 122.079 344.491 121.611C344.436 121.614 344.378 121.611 344.323 121.611C342.446 121.721 340.586 121.972 338.708 122.058ZM326.156 123.337C326.761 124.242 326.888 125.404 326.923 126.47C327.174 125.49 327.49 124.063 328.119 123.128C327.466 123.203 326.813 123.275 326.156 123.337ZM300.519 125.366C300.574 125.346 300.632 125.335 300.691 125.325C301.808 125.174 302.929 125.06 304.043 124.885C306.714 124.469 309.365 123.912 312.05 123.585C314.405 123.275 316.774 123.066 319.129 122.735C321.212 122.45 323.299 122.185 325.393 122C329.45 121.697 333.5 121.535 337.55 121.26C339.286 121.126 341.012 120.861 342.745 120.7C343.23 120.662 343.718 120.624 344.206 120.607C343.869 119.768 343.539 118.922 343.226 118.072C342.858 117.13 342.508 116.181 342.164 115.228C342.143 115.228 342.126 115.228 342.105 115.228C341.768 115.225 341.435 115.239 341.101 115.249C339.867 115.311 338.633 115.428 337.402 115.538C334.903 115.723 332.396 115.792 329.904 116.05C327.507 116.27 325.159 116.834 322.77 117.127C319.256 117.598 315.698 117.66 312.198 118.224C311.042 118.399 309.887 118.578 308.718 118.671C306.642 118.86 304.538 118.774 302.468 118.953C302.43 118.929 302.403 118.904 302.385 118.88C301.787 121.05 301.186 123.217 300.519 125.366ZM303.737 113.98C303.3 115.521 302.881 117.068 302.454 118.616C303.138 118.065 306.855 117.532 307.168 117.491C311.41 116.996 315.687 117.03 319.913 116.432C322.969 115.995 326.056 115.937 329.12 115.586C332.018 115.239 334.889 114.685 337.797 114.406C339.121 114.303 340.448 114.197 341.775 114.117C341.517 113.382 341.266 112.642 341.015 111.899C340.307 111.862 339.599 111.862 338.891 111.848C335.398 111.865 331.901 111.841 328.412 111.992C323.21 112.364 318.018 112.89 312.799 112.948C311.042 112.952 309.289 112.996 307.543 113.151C306.325 113.223 305.108 113.464 303.888 113.409C303.833 113.605 303.785 113.794 303.737 113.98ZM308.791 108.681C307.446 109.932 306.054 111.249 304.699 112.481C305.246 112.494 305.789 112.477 306.319 112.45C309.351 112.212 312.37 111.841 315.395 111.497C314.15 110.28 312.81 109.162 311.579 107.927C311.269 107.628 310.963 107.329 310.661 107.026C310.018 107.57 309.389 108.123 308.791 108.681ZM304.211 112.174C304.338 112.064 304.445 111.968 304.5 111.903C306.37 110.09 308.35 108.402 310.235 106.603C309.097 105.462 307.972 104.306 306.803 103.192C305.947 106.187 305.029 109.165 304.211 112.174ZM319.452 88.3324C319.053 92.38 318.603 96.3244 318.455 100.365C318.228 103.471 317.647 106.531 317.076 109.585C316.98 110.17 316.884 110.758 316.791 111.342C317.984 111.212 319.177 111.095 320.37 110.995C322.367 110.875 324.437 110.84 326.466 110.778C326.417 110.603 326.39 110.414 326.366 110.225C326.246 109.471 326.139 108.725 326.036 108.041C325.826 106.631 325.627 105.3 325.444 103.897C324.977 99.5502 324.324 95.2274 323.932 90.8737C323.763 88.7072 323.323 86.6129 323.179 84.4601C323.086 84.3329 323.034 84.1609 323.028 83.989C322.03 83.989 321.03 83.9821 320.033 83.9752C319.7 85.423 319.565 86.8846 319.452 88.3324ZM313.425 104.767C312.724 105.328 312.009 105.902 311.307 106.486C312.335 107.515 313.346 108.557 314.377 109.551C314.965 110.101 315.564 110.641 316.141 111.205C316.179 110.94 316.22 110.675 316.255 110.41C316.506 108.264 316.657 106.184 316.891 104.045C316.973 103.33 317.059 102.614 317.148 101.899C315.973 102.934 314.649 103.787 313.425 104.767ZM333.768 108.189C333.256 108.963 332.706 109.716 332.204 110.496C334.645 110.383 337.089 110.321 339.534 110.362C338.592 109.643 337.636 108.942 336.738 108.165C336.12 107.611 335.559 106.995 334.93 106.456C334.545 107.033 334.153 107.611 333.768 108.189ZM331.011 107.714C331.162 108.502 331.337 109.279 331.571 110.039C331.757 109.747 331.963 109.468 332.07 109.275C332.534 108.581 333.005 107.893 333.483 107.205C333.771 106.793 334.064 106.383 334.363 105.974C333.41 105.173 332.465 104.365 331.547 103.522C331.042 103.068 330.547 102.594 330.021 102.171C330.423 104.004 330.718 105.857 331.011 107.714ZM336.756 103.667C336.322 104.365 335.876 105.052 335.418 105.733C335.425 105.74 335.432 105.747 335.439 105.754C336.116 106.349 336.728 107.02 337.443 107.573C337.98 107.989 338.523 108.392 339.094 108.763C339.458 108.997 339.833 109.214 340.197 109.451C339.644 107.773 339.094 106.094 338.523 104.423C338.248 103.677 337.969 102.934 337.687 102.195C337.378 102.686 337.069 103.178 336.756 103.667ZM307.501 102.944C307.494 102.951 307.488 102.958 307.484 102.962C308.653 103.907 309.757 104.949 310.836 106.015C312.359 104.54 314.03 103.24 315.708 101.944C315.845 101.837 315.976 101.727 316.11 101.61C313.212 101.916 310.348 102.349 307.501 102.944ZM330.653 101.376C331.654 102.164 332.53 103.092 333.455 103.966C333.919 104.409 334.401 104.832 334.882 105.259C335.27 104.722 335.655 104.186 336.027 103.643C336.515 102.968 336.907 102.219 337.392 101.545C337.357 101.545 337.32 101.545 337.285 101.545C335.552 101.524 333.823 101.469 332.09 101.387C331.808 101.369 331.523 101.362 331.241 101.362C331.045 101.366 330.849 101.369 330.653 101.376ZM307.443 100.905C307.323 101.352 307.199 101.799 307.072 102.246C307.219 102.208 307.371 102.174 307.518 102.14C308.165 101.497 309.09 100.74 309.327 100.489C310.458 99.4367 311.527 98.319 312.61 97.2186C311.682 96.211 310.798 95.1621 309.88 94.151C309.616 93.8519 309.341 93.5595 309.079 93.2569C308.608 95.8189 308.069 98.3741 307.443 100.905ZM308.791 101.761C308.725 101.823 308.66 101.885 308.591 101.947C309.557 101.799 310.527 101.706 311.486 101.534C312.803 101.283 314.126 101.063 315.454 100.867C315.684 100.833 315.914 100.795 316.145 100.761C315.148 99.7187 314.085 98.7558 313.085 97.7275C311.624 99.0309 310.217 100.406 308.791 101.761ZM335.377 100.644C335.793 100.671 336.206 100.695 336.618 100.726C335.315 99.3989 333.981 98.0989 332.606 96.8506C332.52 96.995 332.437 97.1395 332.352 97.2805C331.674 98.4188 330.945 99.5227 330.261 100.654C331.014 100.585 331.77 100.558 332.527 100.558C333.479 100.558 334.432 100.596 335.377 100.644ZM314.893 96.18C314.463 96.5308 314.037 96.8884 313.621 97.253C314.04 97.731 314.474 98.1987 314.934 98.6388C315.605 99.3026 316.261 99.9835 316.932 100.647C316.99 100.64 317.045 100.633 317.104 100.627C317.166 100.627 317.234 100.616 317.303 100.606C317.496 99.0103 317.674 97.4111 317.788 95.8052C317.829 95.1655 317.864 94.5224 317.898 93.8794C316.784 94.4777 315.876 95.3925 314.893 96.18ZM328.04 93.8863C328.456 95.9668 329.003 98.0233 329.508 100.083C329.546 100.224 329.584 100.365 329.622 100.506C329.983 99.5123 330.935 98.1574 331.293 97.5246C331.557 97.1429 331.812 96.7509 332.059 96.3554C331.499 95.8671 330.918 95.4028 330.34 94.9386C329.477 94.2267 328.669 93.4495 327.83 92.7101C327.903 93.1022 327.971 93.4942 328.04 93.8863ZM332.998 96.1869C333.771 96.9263 334.538 97.6759 335.336 98.3947C335.803 98.7867 336.25 99.196 336.701 99.6052C336.116 98.0577 335.549 96.5067 335.037 94.9317C334.885 94.4846 334.751 94.0341 334.628 93.5836C334.053 94.4365 333.524 95.31 332.998 96.1869ZM311.582 94.9214C312.115 95.4991 312.621 96.1009 313.133 96.6958C313.195 96.6339 313.257 96.572 313.315 96.5136C314.429 95.4028 315.588 94.323 316.873 93.4186C314.515 93.1744 312.146 93.195 309.791 93.0712C310.389 93.6834 310.991 94.2989 311.582 94.9214ZM328.876 92.4935C329.384 92.9371 329.883 93.3945 330.395 93.8278C331.11 94.4227 331.798 95.0486 332.472 95.6882C333.008 94.8079 333.531 93.9138 334.095 93.0506C334.191 92.9199 334.263 92.748 334.359 92.6104C334.315 92.5691 334.273 92.5279 334.229 92.4866C333.245 92.4385 332.262 92.4522 331.275 92.4763C331.069 92.4728 330.859 92.4694 330.653 92.4694C330.065 92.4694 329.47 92.4866 328.876 92.4935ZM314.013 89.5773C312.82 90.4164 311.62 91.2451 310.396 92.043C310.348 92.067 310.259 92.1255 310.145 92.2012C310.953 92.2252 311.764 92.2906 312.569 92.3318C313.951 92.4178 315.337 92.4935 316.715 92.6551C316.86 92.6689 317.008 92.6861 317.152 92.7033C316.21 91.5856 315.185 90.5367 314.254 89.4088C314.175 89.4638 314.095 89.5188 314.013 89.5773ZM317.341 87.201C316.512 87.8578 315.646 88.463 314.773 89.058C314.931 89.2609 315.093 89.4603 315.254 89.6598C316.11 90.688 317.097 91.62 317.967 92.631C318.087 90.4783 318.235 88.3186 318.568 86.1934C318.163 86.5372 317.757 86.8743 317.341 87.201ZM309.282 92.153C309.488 92.0155 309.709 91.8951 309.922 91.7644C310.455 91.4343 310.97 91.0766 311.479 90.7087C312.27 90.1137 313.047 89.505 313.82 88.8895C312.658 87.4864 311.565 86.0317 310.482 84.5702C310.125 87.1012 309.733 89.6323 309.282 92.153ZM330.33 91.8298C330.464 91.8298 330.602 91.8298 330.739 91.8298C330.76 91.8298 330.78 91.8298 330.801 91.8298C331.753 91.8298 332.706 91.8642 333.658 91.9467C332.517 90.8772 331.379 89.8042 330.316 88.6556C330.302 88.6384 330.285 88.6212 330.272 88.604C329.904 89.0992 329.539 89.5945 329.189 90.1034C328.81 90.6502 328.432 91.197 328.054 91.7438C328.044 91.7541 328.033 91.7679 328.023 91.7816C328.078 91.8229 328.13 91.8676 328.185 91.9123C328.769 91.8401 329.36 91.8298 329.948 91.8298C330.076 91.8298 330.203 91.8298 330.33 91.8298ZM325.991 84.4911C326.613 86.7573 327.129 89.058 327.576 91.3689C327.827 90.8772 328.26 90.3201 328.377 90.0965C328.817 89.3916 329.288 88.7106 329.776 88.0435C329.068 87.2319 328.374 86.41 327.638 85.6225C327.105 85.0276 326.562 84.4636 325.881 84.044C325.915 84.1988 325.943 84.357 325.991 84.4911ZM332.881 84.9725C332.221 86.0042 331.485 86.9843 330.753 87.961C331.87 89.0064 333.001 90.0415 334.06 91.1489C333.875 90.1928 333.716 89.2334 333.565 88.2705C333.376 87.1219 333.173 85.9767 332.964 84.835C332.936 84.8797 332.908 84.9278 332.881 84.9725ZM312.782 83.9649C312.156 83.9752 311.534 83.9959 310.912 84.0337C312.101 85.4746 313.184 87.0015 314.326 88.4837C315.804 87.2938 317.262 86.073 318.716 84.8487C318.747 84.8178 318.785 84.7937 318.819 84.7731C318.874 84.5014 318.933 84.2332 318.995 83.9615C317.812 83.9546 316.629 83.9477 315.443 83.9477C314.556 83.9512 313.669 83.9546 312.782 83.9649ZM330.014 83.7689C328.903 83.8033 327.796 83.8583 326.689 83.903C327.339 84.4498 328.026 85.3027 328.295 85.5537C328.913 86.2071 329.56 86.833 330.213 87.452C330.863 86.582 331.53 85.7222 332.173 84.8487C332.382 84.5358 332.589 84.2263 332.795 83.9133C332.792 83.8996 332.788 83.8824 332.788 83.8686C332.754 83.8755 332.719 83.8755 332.685 83.8755C331.973 83.8342 331.265 83.7517 330.55 83.7517C330.368 83.7517 330.192 83.7586 330.014 83.7689ZM310.699 83.0502C311.452 82.8989 312.239 82.9126 313.002 82.8782C316.842 82.696 320.686 83.0055 324.52 83.0261C326.847 83.002 329.158 82.6581 331.485 82.6306C331.839 82.6237 332.193 82.61 332.544 82.6306C332.358 81.6677 332.162 80.7083 331.96 79.7488C331.915 79.7557 331.874 79.7625 331.829 79.7591C331.437 79.7591 331.049 79.7247 330.66 79.7041C326.782 79.5012 322.887 79.6525 319.015 79.3224C316.667 79.0576 314.46 78.6586 312.115 78.6311C311.957 78.6277 311.802 78.6243 311.644 78.6174C311.527 78.7205 311.393 78.8443 311.252 78.8409C311.077 80.244 310.891 81.6471 310.699 83.0502ZM323.227 78.1703C325.128 78.215 327.029 78.3629 328.927 78.4592C329.539 78.4901 330.151 78.5108 330.76 78.5348C330.811 78.5383 330.859 78.5383 330.911 78.5417C330.859 78.5073 330.808 78.4729 330.753 78.442C329.639 77.7267 328.446 76.9976 327.339 76.3511C324.843 74.9515 322.474 73.3352 319.92 72.0387C319.211 72.5098 318.506 72.9878 317.815 73.4899C316.083 74.7245 314.536 76.0416 312.964 77.4275C312.837 77.541 312.71 77.6579 312.583 77.7714C313.239 77.7817 313.92 77.8436 314.281 77.8402C317.262 77.9846 320.243 78.1325 323.227 78.1703ZM312.572 68.8267C312.273 70.9417 311.967 73.0566 311.723 75.1784C311.61 76.0726 311.496 76.9667 311.383 77.8608C311.452 77.8436 311.531 77.8299 311.613 77.8195C311.685 77.7542 311.751 77.6923 311.795 77.6373C312.847 76.5643 313.989 75.5877 315.196 74.6901C316.526 73.7066 317.815 72.6611 319.122 71.6432C317.812 71.007 316.464 70.4499 315.13 69.8584C314.305 69.5042 313.518 69.0606 312.662 68.7889C312.631 68.8061 312.603 68.8164 312.572 68.8267ZM328.418 66.4401C326.692 67.4752 325.042 68.6307 323.375 69.7552C322.457 70.3846 321.532 70.9829 320.611 71.5882C322.361 72.4548 324.138 73.2664 325.833 74.2396C327.463 75.1544 329.058 76.131 330.629 77.1455C330.928 77.3381 331.227 77.5307 331.53 77.7233C331.165 76.0726 330.773 74.4288 330.364 72.7918C330.003 71.2787 329.711 69.7518 329.326 68.2456C329.158 67.5715 328.972 66.9044 328.776 66.2407C328.645 66.306 328.522 66.3679 328.418 66.4401ZM323.884 66.533C321.652 66.8287 319.438 67.2414 317.224 67.6575C316.024 67.8776 314.811 68.0495 313.624 68.335C313.831 68.4209 314.037 68.5172 314.236 68.586C316.086 69.4079 317.908 70.2986 319.737 71.1652C320.432 70.6356 321.133 70.1163 321.855 69.6211C323.684 68.3797 325.599 67.2655 327.466 66.0893C326.266 66.2235 325.087 66.4057 323.884 66.533ZM313.9 57.5264C313.879 57.547 313.858 57.5642 313.831 57.578C313.659 59.8821 313.432 62.1793 313.16 64.4765C313.03 65.5632 312.882 66.643 312.731 67.7263C312.796 67.7056 312.865 67.685 312.927 67.6644C312.985 67.6472 313.043 67.6334 313.105 67.6197C313.669 67.1623 314.25 66.729 314.807 66.2613C316.131 65.1333 317.355 63.9022 318.61 62.702C319.27 62.0761 319.944 61.4674 320.624 60.8656C318.878 59.8511 317.087 58.9226 315.275 58.025C314.855 57.8118 314.443 57.5883 314.02 57.3923C313.979 57.4335 313.937 57.4817 313.9 57.5264ZM317.341 64.7585C316.354 65.5873 315.409 66.4642 314.432 67.3067C315.625 67.0522 316.832 66.8631 318.035 66.674C320.421 66.3335 322.722 66.0721 325.073 65.6182C325.943 65.4359 326.82 65.3156 327.693 65.1711C325.819 64.1257 324.035 62.9255 322.199 61.8182C321.938 61.6531 321.673 61.4949 321.412 61.3333C320.085 62.506 318.733 63.6546 317.341 64.7585ZM325.09 57.9528C324.066 58.9192 323.034 59.8752 321.989 60.814C322.722 61.2198 323.457 61.6153 324.2 62.0004C325.128 62.4922 326.036 63.0218 326.954 63.5308C327.339 63.7577 327.738 63.9641 328.13 64.1842C327.868 63.3657 327.607 62.5507 327.356 61.7322C326.909 60.1709 326.5 58.5993 326.118 57.0209C325.771 57.3304 325.434 57.6433 325.09 57.9528ZM318.795 56.8352C317.606 56.9727 316.409 57.0381 315.213 57.0862C315.509 57.2272 315.801 57.3751 316.086 57.5298C317.802 58.4446 319.486 59.4178 321.181 60.367C321.608 59.9921 322.037 59.6173 322.46 59.239C323.598 58.2348 324.743 57.2272 325.819 56.1577C323.471 56.2609 321.13 56.5188 318.795 56.8352ZM314.226 49.5653C314.175 51.8487 314.068 54.1287 313.913 56.4053C313.955 56.395 313.999 56.3881 314.044 56.3812C314.267 56.0855 314.487 55.7897 314.707 55.4905C316.255 53.2449 318.073 51.1953 319.579 48.9222C318.396 47.7839 317.166 46.6972 315.969 45.5727C315.539 45.1978 315.134 44.7817 314.683 44.4344C314.635 44.455 314.587 44.4619 314.536 44.4378C314.401 46.147 314.271 47.8527 314.226 49.5653ZM316.873 53.6163C316.224 54.5242 315.564 55.4218 314.883 56.3021C315.77 56.2299 316.653 56.1611 317.54 56.0924C320.27 55.886 322.993 55.6591 325.72 55.4218C324.998 54.5345 324.162 53.7505 323.378 52.9182C322.295 51.8178 321.284 50.6485 320.212 49.5412C320.157 49.4862 320.105 49.4346 320.05 49.3796C318.995 50.7964 317.925 52.1995 316.873 53.6163ZM320.532 48.7365C321.209 49.4724 321.869 50.2221 322.539 50.9649C323.416 51.9278 324.396 52.8219 325.352 53.7229C324.681 50.7207 324.062 47.7048 323.406 44.7026C322.481 46.0713 321.515 47.4091 320.532 48.7365ZM322.979 43.4027C322.825 43.413 322.667 43.4164 322.512 43.4268C320.226 43.5781 317.96 43.9082 315.677 44.118C316.643 44.9227 317.558 45.7928 318.479 46.6456C319.015 47.1511 319.534 47.6739 320.036 48.2103C320.707 47.1546 321.333 46.0679 322.03 45.0259C322.395 44.4894 322.749 43.9495 323.072 43.3889C323.041 43.3958 323.01 43.4027 322.979 43.4027ZM314.811 33.9009C314.828 33.9319 314.848 34.0006 314.811 34.0178C314.838 35.6204 314.917 37.2195 314.872 38.822C314.835 40.3627 314.728 41.9033 314.611 43.4405C314.649 43.4508 314.687 43.4612 314.725 43.4749C314.738 43.4543 314.749 43.4336 314.759 43.413C315.02 43.0003 315.292 42.5911 315.553 42.1784C316.564 40.5725 317.492 38.9183 318.496 37.3089C317.369 35.9196 316.175 34.5887 314.842 33.4092C314.817 33.5742 314.79 33.7427 314.811 33.9009ZM317.509 40.5587C316.839 41.525 316.096 42.4398 315.398 43.3821C315.828 43.2961 316.258 43.2548 316.457 43.2101C317.63 43.0382 318.816 42.9488 319.999 42.8765C320.889 42.825 321.783 42.7871 322.673 42.739C321.817 41.525 320.855 40.3799 319.971 39.1866C319.696 38.822 319.418 38.4609 319.132 38.0999C318.613 38.9321 318.077 39.754 317.509 40.5587ZM319.572 37.3914C319.641 37.4671 319.71 37.5427 319.779 37.615C320.745 38.6845 321.697 39.7712 322.622 40.8785C322.254 38.9321 321.934 36.9753 321.742 35.0014C321.714 34.6368 321.68 34.2723 321.645 33.9112C320.961 35.0736 320.281 36.2394 319.572 37.3914ZM320.432 32.1333C318.727 32.5357 316.973 32.7145 315.22 32.7661C315.708 33.0962 316.1 33.557 316.512 33.9766C317.348 34.8329 318.118 35.7476 318.905 36.6452C319.6 35.5 320.332 34.3789 321.03 33.2372C321.116 33.0825 321.195 32.9174 321.357 32.8314C321.419 32.8005 321.474 32.7833 321.529 32.7798C321.498 32.4978 321.463 32.2193 321.429 31.9373C321.126 32.0095 320.789 32.0611 320.432 32.1333ZM316.791 29.2824C316.017 29.3994 315.23 29.4956 314.487 29.7536C314.312 29.9737 314.333 30.321 314.291 30.5961C314.271 31.026 314.25 31.4593 314.288 31.8891C314.316 31.8926 314.343 31.8926 314.371 31.896C315.447 31.8651 316.392 31.6003 317.427 31.3939C318.764 31.1429 320.091 30.8471 321.425 30.5858C321.467 29.8946 321.401 29.193 321.463 28.5018C319.913 28.8079 318.352 29.0451 316.791 29.2824ZM320.274 26.4522C319.82 26.5382 319.369 26.6413 318.916 26.7376C318.056 26.9268 317.238 27.1056 316.399 27.3188C316.172 27.3773 315.938 27.4288 315.715 27.5011C315.729 27.8484 315.735 28.1957 315.763 28.5396C316.035 28.4812 316.306 28.4261 316.578 28.3711C317.901 28.0891 319.246 27.9653 320.587 27.8174C320.562 27.7452 320.552 27.6661 320.552 27.5939C320.504 27.2053 320.442 26.8202 320.366 26.4384C320.336 26.4453 320.305 26.4487 320.274 26.4522ZM315.729 23.4225C315.636 24.492 315.656 25.5168 315.684 26.5622C315.931 26.4487 316.231 26.3937 316.471 26.3284C317.702 26.0533 318.943 25.8125 320.188 25.6131C319.641 23.3606 318.957 21.0806 317.633 19.1479C316.609 20.3446 315.904 21.8509 315.729 23.4225Z" fill="black"/>
<path d="M304.782 124.991C304.7 124.936 304.658 124.844 304.641 124.747C304.597 124.362 304.573 123.977 304.5 123.595C304.284 122.11 304.081 120.61 304.091 119.107C304.108 118.781 304.132 118.368 304.442 118.175C304.573 118.103 304.731 118.131 304.824 118.248C304.992 118.461 304.92 118.836 304.909 119.08C304.892 119.407 304.882 119.737 304.903 120.063C304.923 120.431 304.951 120.803 304.978 121.171C305.033 121.89 305.095 122.608 305.167 123.324C305.195 123.743 305.236 124.163 305.253 124.582C305.267 124.775 305.116 125.029 304.92 125.029C304.872 125.029 304.827 125.019 304.782 124.991Z" fill="black"/>
<path d="M308.598 124.235C308.474 124.156 308.412 124.015 308.392 123.874C308.24 122.914 308.158 121.944 308.041 120.982C307.951 120.187 307.859 119.396 307.797 118.598C307.783 118.392 307.752 118.162 307.879 117.983C307.972 117.842 308.192 117.859 308.24 118.028C308.56 119.455 308.849 120.882 309.096 122.323C309.169 122.729 309.206 123.141 309.275 123.547C309.344 123.85 309.107 124.29 308.79 124.29C308.732 124.29 308.667 124.273 308.598 124.235Z" fill="black"/>
<path d="M311.843 123.348C311.733 123.303 311.651 123.189 311.627 123.072C311.362 121.92 311.152 120.755 310.881 119.603C310.788 119.204 310.695 118.801 310.575 118.409C310.485 118.255 310.482 118.059 310.557 117.893C310.774 117.457 311.169 117.632 311.297 118.031C311.836 119.544 312.115 121.14 312.386 122.722C312.438 122.99 312.249 123.368 311.964 123.368C311.922 123.368 311.881 123.361 311.843 123.348Z" fill="black"/>
<path d="M315.199 123.568C315.099 123.506 315.054 123.392 315.034 123.282C314.972 122.883 314.914 122.485 314.855 122.086C314.707 120.72 314.542 119.324 314.697 117.952C314.738 117.766 314.793 117.56 314.965 117.457C315.082 117.388 315.233 117.443 315.278 117.574C315.371 118.189 315.333 118.822 315.395 119.444C315.457 120.37 315.505 121.295 315.632 122.209C315.649 122.653 315.962 123.334 315.446 123.592C315.415 123.602 315.381 123.609 315.347 123.609C315.295 123.612 315.247 123.599 315.199 123.568Z" fill="black"/>
<path d="M318.637 122.639C318.544 122.581 318.499 122.474 318.482 122.371C318.355 121.563 318.248 120.755 318.169 119.943C318.111 119.403 318.046 118.863 317.984 118.323C317.967 117.897 317.802 117.429 317.939 117.02C317.98 116.937 318.049 116.869 318.138 116.875C318.458 116.886 318.503 117.783 318.582 118.041C318.682 118.574 318.771 119.111 318.843 119.647C318.957 120.473 319.056 121.301 319.142 122.134C319.184 122.361 319.019 122.684 318.785 122.684C318.737 122.68 318.689 122.67 318.637 122.639Z" fill="black"/>
<path d="M321.831 123.021C321.718 122.918 321.732 122.756 321.718 122.615C321.677 122.251 321.625 121.89 321.591 121.525C321.453 120.07 321.309 118.605 321.35 117.144C321.347 116.937 321.587 116.594 321.769 116.855C321.893 117.615 321.917 118.406 322.007 119.18C322.093 120.108 322.172 121.04 322.254 121.972C322.234 122.319 322.464 122.928 322.02 123.076C322.007 123.079 321.996 123.079 321.983 123.079C321.924 123.083 321.873 123.062 321.831 123.021Z" fill="black"/>
<path d="M325.063 122.612C324.747 122.44 324.829 121.941 324.75 121.635C324.713 121.356 324.675 121.081 324.647 120.803C324.548 119.75 324.479 118.688 324.503 117.629C324.527 117.343 324.499 116.628 324.909 116.645C325.125 116.714 325.084 116.999 325.173 117.164C325.266 117.171 325.177 117.34 325.132 117.243C325.122 117.24 325.111 117.237 325.101 117.23C325.067 117.223 325.036 117.206 325.005 117.188C325.111 118.447 325.311 119.695 325.431 120.951C325.466 121.315 325.514 121.68 325.558 122.044C325.596 122.288 325.435 122.629 325.177 122.629C325.139 122.632 325.101 122.625 325.063 122.612Z" fill="black"/>
<path d="M328.206 121.975C328.044 120.5 327.817 119.035 327.611 117.563C327.559 117.178 327.515 116.793 327.494 116.404C327.487 116.287 327.48 116.157 327.532 116.05C327.693 115.758 327.9 115.964 327.941 116.208C328.343 118.038 328.553 119.912 328.759 121.773C328.8 122.02 328.618 122.233 328.446 122.233C328.347 122.237 328.25 122.161 328.206 121.975Z" fill="black"/>
<path d="M330.921 121.102C330.767 119.847 330.653 118.588 330.591 117.326C330.591 116.886 330.478 116.432 330.571 115.995C330.619 115.803 330.866 115.655 331.014 115.84C331.152 116.033 331.155 116.291 331.196 116.518C331.372 118.007 331.509 119.444 331.609 120.913C331.63 121.198 331.416 121.422 331.217 121.422C331.093 121.422 330.973 121.329 330.921 121.102Z" fill="black"/>
<path d="M334.026 121.724C333.748 120.167 333.449 118.612 333.318 117.037C333.291 116.576 333.201 116.098 333.301 115.641C333.373 115.294 333.803 115.153 333.878 115.579C333.885 115.703 333.868 115.823 333.909 115.947C333.958 116.019 333.947 116.122 333.899 116.195C334.016 117.577 334.236 118.946 334.432 120.318C334.477 120.703 334.539 121.085 334.59 121.466C334.611 121.632 334.549 121.828 334.394 121.91C334.356 121.931 334.319 121.941 334.281 121.941C334.164 121.941 334.054 121.855 334.026 121.724Z" fill="black"/>
<path d="M337.007 121.821C336.921 121.766 336.876 121.666 336.859 121.566C336.794 121.13 336.742 120.689 336.68 120.249C336.604 119.723 336.519 119.2 336.443 118.674C336.374 117.948 335.882 115.686 336.381 115.197C336.759 114.991 336.776 115.617 336.828 115.851C336.965 116.724 337.082 117.601 337.196 118.478C337.32 119.448 337.436 120.414 337.488 121.391C337.509 121.594 337.344 121.859 337.141 121.859C337.1 121.862 337.051 121.848 337.007 121.821Z" fill="black"/>
<path d="M340.129 121.687C340.032 121.625 339.988 121.515 339.967 121.405C339.881 120.937 339.809 120.466 339.737 119.998C339.548 118.451 339.245 116.92 339.046 115.376C338.991 115.104 339.18 114.606 339.523 114.781C339.723 114.932 339.733 115.214 339.798 115.441C339.981 116.301 340.118 117.168 340.245 118.038C340.325 118.585 340.38 119.138 340.448 119.689C340.51 120.177 340.6 120.662 340.651 121.153C340.696 121.391 340.52 121.731 340.276 121.731C340.235 121.731 340.184 121.717 340.129 121.687Z" fill="black"/>
<path d="M306.195 117.684C306.02 116.518 305.955 115.338 305.965 114.159C305.992 113.791 305.917 113.337 306.168 113.031C306.309 112.886 306.505 113.034 306.47 113.217C306.377 113.946 306.463 114.685 306.501 115.414C306.549 116.122 306.573 116.821 306.649 117.519C306.683 117.722 306.532 117.897 306.391 117.897C306.309 117.897 306.233 117.835 306.195 117.684Z" fill="black"/>
<path d="M313.494 117.295C313.411 117.243 313.377 117.151 313.359 117.061C313.167 116.023 313.098 114.967 312.947 113.921C312.923 113.75 312.899 113.578 312.878 113.406C312.864 113.268 312.833 113.093 312.93 112.979C313.064 112.811 313.229 112.976 313.201 113.144C313.377 114.038 313.562 114.933 313.734 115.827C313.806 116.167 313.875 116.504 313.934 116.848C313.978 117.044 313.824 117.329 313.617 117.329C313.58 117.333 313.535 117.319 313.494 117.295Z" fill="black"/>
<path d="M322.57 115.926C322.488 115.871 322.45 115.779 322.433 115.686C322.374 115.373 322.333 115.056 322.288 114.743C322.202 113.977 322.037 113.182 322.175 112.415C322.213 112.205 322.495 112.016 322.611 112.278C322.742 112.659 322.711 113.131 322.752 113.529C322.797 113.946 322.897 114.382 322.921 114.792C322.942 115.16 323.22 115.73 322.783 115.947C322.756 115.957 322.728 115.961 322.701 115.961C322.649 115.964 322.608 115.954 322.57 115.926Z" fill="black"/>
<path d="M329.023 115.724C328.968 115.672 328.948 115.6 328.944 115.528C328.924 115.263 328.906 114.998 328.889 114.771C328.855 114.32 328.776 113.877 328.703 113.433C328.659 112.959 328.459 112.484 328.514 112.01C328.545 111.906 328.669 111.807 328.769 111.896C328.924 112.151 328.903 112.488 328.979 112.773C329.075 113.327 329.185 113.88 329.267 114.437C329.319 114.757 329.353 115.08 329.391 115.404C329.425 115.555 329.302 115.768 329.154 115.768C329.102 115.772 329.061 115.758 329.023 115.724Z" fill="black"/>
<path d="M334.899 114.819C334.813 114.764 334.779 114.671 334.762 114.578C334.707 114.293 334.672 114.004 334.628 113.718C334.531 113.106 334.469 112.484 334.504 111.861C334.511 111.71 334.528 111.538 334.624 111.411C334.751 111.225 335.009 111.263 335.023 111.5C335.061 111.793 335.081 112.195 335.109 112.463C335.157 113.099 335.277 113.729 335.356 114.358C335.394 114.561 335.246 114.857 335.033 114.857C334.989 114.857 334.944 114.843 334.899 114.819Z" fill="black"/>
<path d="M312.202 83.009C312.133 82.9643 312.092 82.8783 312.098 82.7958C312.136 82.4313 312.188 82.0702 312.246 81.7091C312.425 80.7806 312.587 79.828 312.961 78.9545C313.034 78.7998 313.144 78.645 313.319 78.6038C313.443 78.5728 313.577 78.6381 313.587 78.7757C313.549 79.0611 313.408 79.3259 313.36 79.6148C313.192 80.3542 313.064 81.1004 312.893 81.8398C312.831 82.1218 312.783 82.4072 312.731 82.6926C312.7 82.8715 312.521 83.0469 312.339 83.0469C312.291 83.0469 312.246 83.0331 312.202 83.009Z" fill="black"/>
<path d="M314.467 83.2256C314.409 83.1706 314.398 83.0949 314.409 83.0193C314.495 82.3556 314.622 81.7022 314.708 81.0384C314.79 80.4676 314.856 79.8933 314.952 79.3224C314.993 79.1333 315.014 78.9304 315.131 78.7722C315.406 78.4696 315.688 78.645 315.578 79.037C315.481 79.6938 315.392 80.3541 315.282 81.0075C315.172 81.6575 315.076 82.3074 314.969 82.9574C314.945 83.1156 314.78 83.2737 314.619 83.2737C314.567 83.2806 314.515 83.2634 314.467 83.2256Z" fill="black"/>
<path d="M316.609 83.4697C316.526 83.4181 316.478 83.3149 316.485 83.2152C316.526 82.7922 316.574 82.3658 316.626 81.9428C316.757 80.918 316.918 79.8863 317.217 78.8924C317.269 78.662 317.523 78.2253 317.788 78.466C317.877 78.6379 317.781 78.8408 317.771 79.0231C317.675 79.6077 317.589 80.1923 317.516 80.7804C317.42 81.5507 317.351 82.3245 317.238 83.0914C317.207 83.3046 316.99 83.5144 316.77 83.5144C316.715 83.5109 316.66 83.5006 316.609 83.4697Z" fill="black"/>
<path d="M320.023 83.2119C319.958 83.1706 319.909 83.0949 319.906 83.0158C319.889 82.6719 319.909 82.328 319.92 81.9842C319.934 81.317 319.937 80.6533 319.947 79.9861C319.961 79.6663 319.923 79.3362 319.995 79.0198C320.047 78.865 320.205 78.7275 320.377 78.755C320.559 78.8031 320.576 79.0232 320.607 79.1745C320.735 80.024 320.752 80.8837 320.714 81.74C320.697 82.108 320.676 82.4725 320.631 82.837C320.604 83.0468 320.391 83.2462 320.178 83.2462C320.126 83.2497 320.074 83.2394 320.023 83.2119Z" fill="black"/>
<path d="M322.67 83.6968C322.595 83.6658 322.547 83.597 322.54 83.5179C322.509 83.15 322.519 82.7786 322.526 82.4072C322.533 81.7056 322.557 81.0006 322.571 80.2957C322.595 79.9346 322.526 79.5528 322.646 79.209C322.801 78.927 323.1 78.9717 323.097 79.319C323.134 79.9552 323.128 80.5948 323.131 81.231C323.128 81.9326 323.162 82.6307 323.145 83.3288C323.138 83.5214 322.956 83.7105 322.763 83.7105C322.732 83.714 322.701 83.7105 322.67 83.6968Z" fill="black"/>
<path d="M324.994 84.0578C324.921 84.0131 324.894 83.934 324.894 83.8514C324.894 83.3975 324.894 82.9057 324.873 82.4621C324.86 81.5267 324.77 80.5982 324.86 79.6697C324.89 79.4702 324.983 79.1676 325.238 79.1814C325.331 79.1848 325.386 79.2605 325.386 79.3499C325.386 79.453 325.362 79.5665 325.413 79.6594C325.437 79.711 325.423 79.766 325.392 79.8107C325.427 80.8183 325.492 81.8259 325.502 82.837C325.506 83.1258 325.516 83.4181 325.513 83.707C325.513 83.8996 325.32 84.0956 325.128 84.0956C325.083 84.0922 325.038 84.0818 324.994 84.0578Z" fill="black"/>
<path d="M327.321 83.6968C327.232 83.6383 327.198 83.542 327.198 83.4423C327.194 83.0847 327.218 82.727 327.232 82.3659C327.249 81.9773 327.256 81.5887 327.266 81.2001C327.321 80.6912 327.208 79.5013 327.665 79.209C327.796 79.1333 327.975 79.1849 327.961 79.3568C328.009 80.3369 327.975 81.3239 327.992 82.304C327.961 82.7029 328.067 83.1637 327.865 83.5214C327.779 83.6383 327.631 83.7346 327.483 83.7346C327.428 83.7415 327.373 83.7277 327.321 83.6968Z" fill="black"/>
<path d="M329.948 83.6177C329.845 83.5524 329.811 83.4457 329.807 83.3288C329.801 83.0193 329.814 82.7098 329.832 82.4003C329.887 81.5543 329.852 80.6877 330.041 79.8589C330.134 79.5288 330.554 79.4875 330.45 79.9105C330.433 80.0171 330.612 80.2063 330.447 80.2407C330.478 81.207 330.681 82.1596 330.67 83.1259C330.664 83.3942 330.399 83.6658 330.131 83.6658C330.072 83.6658 330.007 83.6521 329.948 83.6177Z" fill="black"/>
<path d="M315.179 31.2013C315.148 30.5582 315.216 29.9151 315.271 29.2755C315.302 28.7562 315.784 28.6358 315.808 29.2308C315.822 29.6366 316.024 31.5073 315.485 31.5177C315.478 31.5177 315.471 31.5177 315.464 31.5177C315.302 31.5177 315.189 31.3491 315.179 31.2013Z" fill="black"/>
<path d="M316.832 31.8822C316.647 31.6208 316.763 31.2529 316.746 30.9502C316.76 30.3691 316.726 29.781 316.825 29.2033C316.884 28.708 317.296 28.6874 317.314 29.2101C317.369 29.7741 317.338 30.3381 317.32 30.9021C317.269 31.2288 317.444 31.8581 317.018 31.9578C317.011 31.9578 317.008 31.9578 317.001 31.9578C316.935 31.9578 316.877 31.9303 316.832 31.8822Z" fill="black"/>
<path d="M318.489 31.277C318.314 31.0328 318.42 30.6889 318.396 30.4069C318.42 29.7742 318.413 29.2067 318.606 28.6118C318.63 28.4777 318.809 28.2266 318.929 28.4192C319.015 28.8009 318.946 29.2136 318.963 29.6022C318.957 30.0493 318.963 30.5376 318.943 30.9709C318.957 31.1463 318.809 31.3492 318.651 31.3492C318.596 31.3526 318.541 31.3286 318.489 31.277Z" fill="black"/>
<path d="M319.947 30.878C319.954 30.3072 319.982 29.7329 320.03 29.162C320.061 28.8869 320.057 28.5361 320.284 28.3401C320.762 28.1269 320.686 29.0554 320.704 29.3236C320.7 29.8429 320.686 30.3656 320.659 30.8849C320.645 31.0706 320.508 31.2976 320.305 31.3148C320.295 31.3148 320.288 31.3148 320.277 31.3148C320.061 31.3182 319.951 31.0706 319.947 30.878Z" fill="black"/>
<path d="M248.322 178.015C245.837 177.022 243.169 176.685 240.543 176.241C237.553 175.738 234.783 174.731 231.886 173.891C225.84 172.136 220.678 174.422 214.637 174.274C209.082 174.14 203.499 173.221 197.995 172.519C194.673 172.094 191.412 171.429 188.053 171.415C184.763 171.401 181.446 171.674 178.181 171.133C179.325 170.598 180.731 170.27 181.6 169.291C183.161 167.536 179.914 167.254 178.905 167.282C179.694 165.817 177.737 165.891 176.835 166.016C175.891 166.118 175.606 165.009 174.578 164.898C173.765 164.811 172.943 164.991 172.135 165.046C170.948 165.129 164.202 165.402 165.594 167.836C158.763 168.03 151.942 168.607 145.107 168.422C151.676 167.471 158.38 166.63 164.636 164.335C167.547 163.268 167.313 161.85 164.37 161.12C160.87 160.252 156.894 160.391 153.306 160.308C145.457 160.118 137.589 160.229 129.773 161.06C121.887 161.901 114.103 163.476 106.146 163.536C103.119 163.559 100.026 163.476 97.0498 164.113C94.3213 164.7 94.7931 166.155 97.3861 165.055C100.129 163.896 103.969 164.132 106.894 164.095C110.814 164.049 114.762 164.164 118.644 163.554C133.754 161.176 149.48 159.485 164.608 162.626C161.09 163.734 157.493 164.575 153.895 165.383C151.895 165.836 149.896 166.302 147.887 166.713C146.228 167.051 143.883 167.069 142.397 167.887C139.622 169.406 148.018 169.789 148.756 169.808C152.713 169.909 156.666 169.679 160.623 169.655C158.147 172.066 164.533 171.983 165.659 171.955C167.664 171.9 169.691 171.803 171.668 171.494C173.915 171.143 174.653 169.485 176.751 169.452C174.345 170.75 175.499 172.662 177.783 172.856C180.465 173.082 183.133 172.316 185.815 172.33C192.318 172.362 198.784 173.78 205.19 174.736C208.848 175.281 212.497 175.927 216.179 176.297C219.729 176.657 223.275 176.015 226.826 176.024C230.419 176.034 233.947 176.828 237.497 177.271C239.45 177.516 241.408 177.535 243.37 177.664C243.945 177.701 248.341 178.772 248.491 178.546C248.57 178.324 248.509 178.149 248.322 178.015ZM178.961 171.24C178.797 171.221 178.797 171.221 178.961 171.24ZM167.645 169.702C167.271 169.692 166.285 169.808 165.692 169.845C166.51 169.66 166.668 169.669 167.645 169.702ZM98.8812 164.741C98.7597 164.755 98.7597 164.755 98.8812 164.741Z" fill="black"/>
<path d="M383.408 164.879C382.457 165.598 381.468 166.366 380.276 166.634C379.881 164.292 377.136 163.324 376.22 161.164C375.825 160.23 374.464 156.637 372.908 157.597C369.573 159.66 375.737 168.007 372.581 171.352C372.261 170.613 373.127 168.918 372.9 167.903C372.506 166.143 371.597 164.406 370.709 162.848C368.933 159.717 365.545 158.713 363.725 155.77C358.395 147.152 360.171 158.809 361.304 158.702C361.192 158.714 360.475 153.906 360.545 153.427C362.915 154.578 364.255 158.437 365.36 160.673C366.743 163.472 366.687 168.846 369.444 170.779C370.06 171.213 372.244 172.625 372.949 172.135C373.807 171.538 374.207 170.196 374.279 169.214C374.516 165.975 372.799 162.828 373.313 159.569C373.466 160.005 373.799 161.603 373.78 161.478C374.098 163.302 376.056 169.573 378.629 169.14C380.184 168.875 379.962 167.271 381.175 166.751C382.179 166.306 383.146 165.076 383.408 164.879ZM377.268 162.768C377.09 162.644 377.09 162.644 377.268 162.768ZM360.796 155.809C360.806 155.868 360.806 155.868 360.796 155.809Z" fill="black"/>
<path d="M362.411 163.79C361.573 163.823 361.598 167.989 361.404 168.64C359.068 166.257 356.17 168.617 354.153 170.161C352.914 171.106 351.63 171.934 350.053 172.161C348.798 172.34 344.844 170.708 344.051 171.288C343.437 171.734 345.954 172.488 345.853 172.46C347.476 172.925 349.058 173.492 350.76 173.113C352.462 172.742 354.127 171.988 355.857 171.781C356.225 171.737 357.227 172.919 358.02 172.902C359.388 172.863 360.428 171.908 361.144 170.835C361.527 170.248 363.673 163.75 362.411 163.79ZM356.526 171.378C356.446 171.376 356.446 171.376 356.526 171.378Z" fill="black"/>
<path d="M343.971 171.702C340.837 170.891 337.335 171.262 334.445 169.607C333.194 168.892 331.987 167.732 330.419 168.289C328.344 169.023 327.988 170.442 325.619 170.157C324.295 169.995 322.858 170.103 321.586 169.64C320.091 169.089 319.04 167.155 317.879 166.112C314.312 162.881 315.722 167.365 313.84 169.392C311.605 171.793 310.299 168.383 308.881 166.941C306.623 164.647 302.904 163.236 300.265 165.775C299.481 166.534 298.647 169.325 297.305 168.925C295.99 168.531 293.989 168.315 293.151 167.118C292.512 166.202 292.129 164.679 290.788 164.584C289.309 164.647 288.542 166.331 287.655 167.279C286.71 168.29 285.264 168.477 284.114 169.206C282.926 169.957 281.614 171.038 280.139 170.48C278.481 169.85 277.576 169.735 275.809 169.726C274.069 169.716 272.835 168.114 271.015 169.066C268.155 170.565 267 169.501 264.908 167.232C262.676 164.818 260.71 162.688 259.175 159.745C257.872 157.246 255.599 153.822 252.271 154.634C248.477 155.562 248.781 160.012 248.976 163.013C249.165 165.888 248.469 168.375 248.172 171.167C247.973 172.989 248.208 175.836 250.765 174.65C253.405 173.42 253.016 167.287 252.626 164.93C252.163 162.134 251.367 155.253 255.827 159.46C257.184 160.739 258.306 162.227 259.505 163.638C261.054 165.477 263.201 166.665 264.821 168.46C265.735 169.475 266.735 170.467 268.012 171.021C269.396 171.617 270.517 170.426 271.742 170.024C273.019 169.607 274.186 170.51 275.384 170.798C276.602 171.084 277.682 170.709 278.889 171.187C281.822 172.358 283.019 170.403 285.668 169.483C286.84 169.077 288.013 168.704 288.924 167.814C289.12 167.62 290.252 165.826 290.653 166.052C291.305 166.412 291.739 168.303 292.107 168.947C292.799 170.158 293.627 171.296 294.588 172.302C296.237 174.023 298.86 175.619 300.983 173.666C302.993 171.811 302.539 169.504 302.598 167.107C302.683 163.604 307.656 166.907 308.671 167.944C309.971 169.278 311.094 171.752 313.205 170.514C314.164 169.952 315.209 169.235 315.532 168.101C315.788 167.216 315.31 165.922 315.855 165.149C317.129 164.672 319.649 169.964 320.045 170.507C321.665 172.719 327.648 176.544 329.981 173.688C330.656 172.862 330.783 170.104 331.802 169.831C332.861 169.549 334.253 170.859 335.07 171.363C336.604 172.316 338.373 171.961 340.103 172.163C341.314 172.304 342.508 172.664 343.687 172.966C344.477 173.153 344.775 171.909 343.971 171.702ZM331.894 169.668C331.714 169.65 331.714 169.65 331.894 169.668ZM331.792 169.62C331.694 169.638 331.694 169.638 331.792 169.62ZM331.749 169.542C331.616 169.661 331.616 169.661 331.749 169.542ZM317.514 165.957C317.439 165.908 317.439 165.908 317.514 165.957ZM311.805 170.282C311.785 170.27 311.717 170.247 311.805 170.282ZM302.967 165.971C302.909 166.007 302.738 166.168 302.967 165.971ZM302.939 165.94C302.859 166.056 302.859 166.056 302.939 165.94ZM302.859 166.049C302.834 166.09 302.713 166.182 302.859 166.049ZM298.7 169.183C298.602 169.201 298.602 169.201 298.7 169.183ZM290.915 166.271C290.863 166.155 290.863 166.155 290.915 166.271ZM269.023 170.021C268.924 170.039 268.924 170.039 269.023 170.021ZM262.361 165.971C262.272 165.909 262.272 165.909 262.361 165.971ZM253.303 157.986C253.057 157.964 253.057 157.964 253.303 157.986ZM249.259 165.222C249.242 165.421 249.242 165.421 249.259 165.222ZM261 165.049C261.226 165.211 260.734 164.864 261 165.049ZM315.016 166.836C315.024 166.723 315.014 166.81 315.016 166.836Z" fill="black"/>
<path d="M250.178 174.128C249.011 173.522 247.243 177.668 248.326 178.192C249.375 178.698 251.358 174.747 250.178 174.128Z" fill="black"/>
<path d="M25.4668 128.672L27 128.672L27 135.781L25.4668 135.781L25.4668 128.672ZM12.7812 135.41L27 135.41L27 137.295L12.7812 137.295L12.7812 135.41ZM19.4414 116.211L20.3398 116.211C21.4075 116.211 22.3646 116.344 23.2109 116.611C24.0573 116.878 24.7767 117.262 25.3691 117.764C25.9616 118.265 26.4141 118.867 26.7266 119.57C27.0391 120.267 27.1953 121.048 27.1953 121.914C27.1953 122.754 27.0391 123.525 26.7266 124.229C26.4141 124.925 25.9616 125.531 25.3691 126.045C24.7767 126.553 24.0573 126.947 23.2109 127.227C22.3646 127.507 21.4075 127.646 20.3398 127.646L19.4414 127.646C18.3737 127.646 17.4199 127.51 16.5801 127.236C15.7337 126.956 15.0143 126.562 14.4219 126.055C13.8229 125.547 13.3672 124.945 13.0547 124.248C12.7422 123.545 12.5859 122.773 12.5859 121.934C12.5859 121.068 12.7422 120.286 13.0547 119.59C13.3672 118.887 13.8229 118.285 14.4219 117.783C15.0143 117.275 15.7337 116.888 16.5801 116.621C17.4199 116.348 18.3737 116.211 19.4414 116.211ZM20.3398 118.076L19.4219 118.076C18.5755 118.076 17.8268 118.164 17.1758 118.34C16.5247 118.509 15.9779 118.76 15.5352 119.092C15.0924 119.424 14.7572 119.831 14.5293 120.312C14.3014 120.788 14.1875 121.328 14.1875 121.934C14.1875 122.52 14.3014 123.05 14.5293 123.525C14.7572 123.994 15.0924 124.398 15.5352 124.736C15.9779 125.068 16.5247 125.326 17.1758 125.508C17.8268 125.69 18.5755 125.781 19.4219 125.781L20.3398 125.781C21.1927 125.781 21.9479 125.69 22.6055 125.508C23.2565 125.326 23.8066 125.065 24.2559 124.727C24.6986 124.382 25.0339 123.975 25.2617 123.506C25.4896 123.031 25.6035 122.5 25.6035 121.914C25.6035 121.302 25.4896 120.758 25.2617 120.283C25.0339 119.808 24.6986 119.408 24.2559 119.082C23.8066 118.75 23.2565 118.499 22.6055 118.33C21.9479 118.161 21.1927 118.076 20.3398 118.076ZM12.7812 108.408L27 108.408L27 110.264L12.7812 110.264L12.7812 108.408ZM12.7812 103.838L14.3242 103.838L14.3242 114.824L12.7812 114.824L12.7812 103.838ZM12.7812 96.3184L27 96.3184L27 98.1738L12.7812 98.1738L12.7812 96.3184ZM12.7812 91.748L14.3242 91.748L14.3242 102.734L12.7812 102.734L12.7812 91.748ZM25.4668 80.6055L27 80.6055L27 88.1348L25.4668 88.1348L25.4668 80.6055ZM12.7812 87.7539L27 87.7539L27 89.6387L12.7812 89.6387L12.7812 87.7539ZM18.8945 81.6016L20.4277 81.6016L20.4277 88.1348L18.8945 88.1348L18.8945 81.6016ZM12.7812 80.7031L14.3242 80.7031L14.3242 88.1348L12.7812 88.1348L12.7812 80.7031ZM12.7812 78.2715L12.7812 73.5645C12.7812 72.4967 12.944 71.5951 13.2695 70.8594C13.595 70.1172 14.0768 69.554 14.7148 69.1699C15.3463 68.7793 16.1243 68.584 17.0488 68.584C17.6999 68.584 18.2956 68.7174 18.8359 68.9844C19.3698 69.2448 19.8255 69.6224 20.2031 70.1172C20.5742 70.6055 20.8509 71.1914 21.0332 71.875L21.2383 72.4023L21.2383 76.8262L19.7051 76.8457L19.7051 73.5059C19.7051 72.8288 19.5879 72.2656 19.3535 71.8164C19.1126 71.3672 18.7904 71.0286 18.3867 70.8008C17.9831 70.5729 17.5371 70.459 17.0488 70.459C16.5019 70.459 16.0234 70.5664 15.6133 70.7812C15.2031 70.9961 14.8874 71.3346 14.666 71.7969C14.4381 72.2526 14.3242 72.8418 14.3242 73.5645L14.3242 76.3867L27 76.3867L27 78.2715L12.7812 78.2715ZM27 69.9609L20.5547 73.418L20.5449 71.4551L26.8828 67.9492L27 67.9492L27 69.9609ZM12.7812 65.7617L19.9199 62.0703L12.7812 58.3691L12.7812 56.2305L21.6875 61.1328L27 61.1328L27 63.0176L21.6875 63.0176L12.7812 67.9199L12.7812 65.7617Z" fill="black"/>
</svg>
