<svg width="341" height="241" viewBox="0 0 341 241" fill="none" xmlns="http://www.w3.org/2000/svg">
<rect x="9.41992" y="7.6687" width="286" height="233" rx="20" fill="#FED430"/>
<rect x="1.58398" y="1" width="284" height="231" rx="19" stroke="black" stroke-width="2"/>
<path d="M1 62H285" stroke="black" stroke-width="2"/>
<path d="M113.12 121.85H134.07V128H109.02V123.5C111.92 120.35 114.72 117.2 117.17 114.4C122.62 108.25 125.07 104.95 125.07 99.55C125.07 94.6 122.72 91.5 118.87 91.5C118.27 91.5 117.62 91.55 116.97 91.7L115.87 96.65C115.32 100 113.67 100.8 112.12 100.8C110.67 100.8 109.47 100 108.87 98.75C109.32 93 114.97 89.8 121.67 89.8C129.57 89.8 133.22 94.1 133.22 100.05C133.22 105.4 128.57 109.3 119.32 116.6C117.72 117.9 115.42 119.8 113.12 121.85ZM146.29 109.25C146.29 123.35 148.74 127.1 151.69 127.1C154.64 127.1 157.19 123.3 157.19 109.25C157.19 95.3 154.64 91.55 151.69 91.55C148.74 91.55 146.29 95.25 146.29 109.25ZM151.69 89.8C158.59 89.8 164.74 95.7 164.74 109.25C164.74 122.9 158.59 128.85 151.69 128.85C144.74 128.85 138.69 122.9 138.69 109.25C138.69 95.7 144.74 89.8 151.69 89.8ZM176.71 109.25C176.71 123.35 179.16 127.1 182.11 127.1C185.06 127.1 187.61 123.3 187.61 109.25C187.61 95.3 185.06 91.55 182.11 91.55C179.16 91.55 176.71 95.25 176.71 109.25ZM182.11 89.8C189.01 89.8 195.16 95.7 195.16 109.25C195.16 122.9 189.01 128.85 182.11 128.85C175.16 128.85 169.11 122.9 169.11 109.25C169.11 95.7 175.16 89.8 182.11 89.8Z" fill="black"/>
<path d="M110.85 161.775L112.7 159.4C112.7 159.4 114.8 160.975 116.05 162.075C115.975 162.35 115.7 162.475 115.325 162.475H94.05L93.85 161.775H102.65V156.45H96.45L96.25 155.75H102.65V150.925H97.525L97.325 150.225H107.2L108.85 148.15C108.85 148.15 110.725 149.55 111.875 150.525C111.8 150.8 111.525 150.925 111.175 150.925H106.475V155.75H109.175L110.9 153.5C110.9 153.5 112.85 155.025 114.025 156.05C113.975 156.325 113.7 156.45 113.325 156.45H106.475V161.775H110.85ZM105.6 139.65L108.325 141.45C108.025 141.8 107.1 142.025 106 142.1C107.9 144.225 112.425 146.375 116.925 147.175V147.5C115.375 147.975 114.15 149.45 113.725 150.925C110.325 148.9 107.05 145.725 105.475 142.25C102.95 146.5 98.175 150.05 92.825 151.975L92.7 151.75C96.45 149.275 99.75 145.475 101.05 142H97.5L97.275 141.3H104.6L105.6 139.65ZM125.125 146.5V142.3H123.15V146.5H125.125ZM123.15 156.075L125.125 155.75V152.05H123.15V156.075ZM125.125 151.35V147.2H123.15V151.35H125.125ZM129.5 142.3H128.05V162.475C128.025 162.675 127.15 163.3 125.65 163.3H125.125V157.05C124.025 157.85 122.65 158.8 120.975 159.875C120.85 160.2 120.575 160.475 120.25 160.55L118.875 156.725C119.225 156.675 119.725 156.625 120.325 156.525V142.3H119.125L118.925 141.6H125.75L127.325 139.625C127.325 139.625 129.125 140.95 130.2 141.9C130.125 142.175 129.85 142.3 129.5 142.3ZM140.15 148.35C140.025 147.775 139.825 147.2 139.65 146.7C138.9 147.375 138.125 148 137.375 148.55C138.175 148.5 139.15 148.425 140.15 148.35ZM136.25 147.2L135.2 144.725C134.675 145.3 134.025 145.9 133.325 146.525C134.525 147.125 135.175 147.825 135.5 148.475C135.675 148.425 135.925 148.35 136.075 148.275C136.65 147.825 137.3 147.025 137.9 146.15L136.875 146.575C136.7 146.9 136.475 147.1 136.25 147.2ZM130.625 148.6C131.4 148.55 132.35 148.5 133.35 148.4C133.225 147.875 133.075 147.35 132.9 146.875C132.15 147.5 131.375 148.1 130.625 148.6ZM140.1 142.025L142.925 144.025C142.8 144.225 142.475 144.375 142 144.25C141.5 144.9 140.775 145.65 139.975 146.4C144.525 148.7 142.15 152.175 140.4 150.425C140.425 150.025 140.375 149.6 140.325 149.175C139.325 149.675 138.025 150.325 136.7 150.925C136.65 150.975 136.6 151 136.55 151.05L139.475 151.325C139.425 151.65 139.225 151.925 138.55 152.025V156.375H139.5V151.675L142.725 151.975C142.675 152.25 142.525 152.45 142 152.525V157.9C142 158.1 140.875 158.5 139.95 158.5H139.5V157.075H138.55V162.6C138.55 162.825 137.35 163.325 136.3 163.325H135.8V151.65C135.675 151.775 135.475 151.85 135.15 151.9V155.75C135.1 158.825 133.975 161.825 128.625 163.45L128.4 163.175C131.3 161.575 132.225 159.375 132.45 157.075H131.7L130.875 158.425L128.225 156.8C128.4 156.575 128.7 156.3 129 156.1V151.525L132.45 151.775C132.4 152.075 132.2 152.3 131.5 152.425V156.375H132.5C132.525 156.15 132.525 155.95 132.525 155.725V150.925L135.8 151.25V150.975L136.075 151L135.7 149.75C135.525 150.75 134.45 151.225 133.55 150.325C133.575 150 133.55 149.625 133.5 149.275C132.5 149.775 131.2 150.4 129.875 150.975C129.75 151.075 129.6 151.15 129.45 151.2L128.65 148.475C128.65 148.475 129.175 148.375 129.4 148.225C130 147.775 130.675 147.025 131.325 146.15L130.25 146.6C130.1 146.825 129.925 146.975 129.725 147.05L128.55 144.35C128.55 144.35 128.975 144.25 129.175 144.125C130.05 143.35 131.15 140.85 131.45 139.575L134.8 141.125C134.7 141.35 134.45 141.525 133.975 141.475C133.05 142.475 131.675 143.7 130.425 144.5C131.025 144.525 131.725 144.5 132.425 144.5C132.975 143.6 133.425 142.725 133.7 142.075L136.075 143.8C136.825 142.7 137.6 140.65 137.8 139.525L141.175 141.05C141.075 141.275 140.825 141.475 140.35 141.425C139.525 142.4 138.3 143.6 137.15 144.45C137.7 144.475 138.3 144.475 138.95 144.45C139.45 143.55 139.875 142.675 140.1 142.025ZM147.65 139.8L147.825 139.7C154.8 140.75 150.8 145.525 148.2 143C148.3 141.825 148 140.625 147.65 139.8ZM157.925 156.575H162.9V153.8H157.925V156.575ZM151.525 150.175V150.55C152.275 150.825 152.875 151.125 153.325 151.45L153.2 151H165.075L166 149.85C165.6 149.95 165.125 150 164.575 150H164.025V149.675H157V149.8C157 150 156.075 150.5 154.525 150.5H153.975V146.5C153.85 146.525 153.725 146.525 153.575 146.55C153.075 147.75 152.375 148.975 151.525 150.175ZM157.775 143.35H157V145.825H157.775V143.35ZM160.875 143.35H160.075V145.825H160.875V143.35ZM164.025 143.35H163.175V145.825H164.025V143.35ZM163.175 146.525V148.975H164.025V146.525H163.175ZM160.075 146.525V148.975H160.875V146.525H160.075ZM157 146.525V148.975H157.775V146.525H157ZM164.575 161.425L166.275 159.25C166.275 159.25 168.225 160.7 169.4 161.725C169.325 162 169.05 162.125 168.7 162.125H152.55L152.35 161.425H161.025C161.45 160.225 161.875 158.6 162.125 157.475L162.9 157.725V157.275H157.925V157.725C157.925 157.775 157.85 157.85 157.7 157.95C161.775 159.55 158.675 162.7 156.75 160.7C156.825 159.9 156.7 159.025 156.525 158.325C156.2 158.375 155.825 158.4 155.4 158.4H154.85V151.85L158.175 153.1H162.8L164.05 151.7H153.65C156.05 153.725 153.925 156.25 152.15 154.65C152.125 153.725 151.85 152.725 151.525 151.825V162.325C151.525 162.525 150.475 163.325 148.875 163.325H148.275V153.825C147.325 154.675 146.275 155.45 145.175 156.075L144.95 155.9C147.5 152.95 149.375 149.075 150.125 145.775H145.65L145.425 145.075H149.95L151.725 143.35L153.975 145.5V141.4L157.275 142.65H157.775V139.75L160.6 140.025C160.575 140.25 160.425 140.425 160.075 140.5V142.65H160.875V139.75L163.825 140.025C163.775 140.3 163.625 140.475 163.175 140.575V142.65H163.925L165.375 141L168.15 143.075C167.975 143.3 167.75 143.45 167.2 143.55V149.375C167.2 149.425 167.075 149.5 166.85 149.6C167.375 150 168.325 150.725 169 151.3C168.95 151.575 168.675 151.7 168.325 151.7H164.55L167.025 153.525C166.875 153.75 166.65 153.9 166.1 153.975V157.425C166.1 157.525 165.2 157.95 163.7 158L165.8 158.7C165.675 159 165.375 159.175 164.825 159.125C164.075 159.8 162.9 160.675 161.775 161.425H164.575ZM174.175 140.5L174.35 140.375C182.125 141.35 178.675 147.25 175.575 144.7C175.525 143.175 174.9 141.6 174.175 140.5ZM186.3 153.5L187.9 152C187.6 151.475 187.35 150.95 187.175 150.475H180.575C179.725 151.575 178.7 152.6 177.5 153.5H186.3ZM194.525 150.475H187.9C189.05 151.45 191.6 152.25 195.5 152.65V152.975C193.925 153.35 193.1 154.05 193.05 155.95C192.075 155.65 191.225 155.225 190.5 154.725C190.375 154.75 190.25 154.775 190.125 154.8C189.875 159.525 189.375 161.7 188.05 162.625C187.2 163.2 186.2 163.475 184.525 163.475C184.525 162.475 184.425 161.65 183.975 161.15C183.525 160.625 182.7 160.225 181.575 159.975V159.725C182.625 159.8 184.275 159.875 184.775 159.875C185.15 159.875 185.35 159.825 185.525 159.675C186.025 159.275 186.325 157.425 186.525 154.2H183.6C182.45 158.925 178.875 162 172.425 163.375L172.325 163.1C176.85 161.05 178.975 158.025 179.55 154.2H176.5C175.075 155.1 173.45 155.875 171.525 156.475L171.35 156.225C174.025 154.675 175.975 152.7 177.4 150.475H171.925L171.725 149.775H177.825C178.4 148.75 178.9 147.65 179.3 146.55H173.2L173 145.85H179.525C180.225 143.75 180.6 141.55 180.825 139.375L185.65 140.425C185.575 140.725 185.375 140.925 184.7 140.975C184.325 142.625 183.85 144.275 183.2 145.85H186C186.575 144.225 187.3 141.975 187.7 140.3L191.6 142.275C191.45 142.525 191.1 142.7 190.55 142.625C189.575 143.575 188.275 144.85 186.925 145.85H189.55L191.15 143.475C191.15 143.475 193 145.1 194.025 146.15C193.975 146.425 193.7 146.55 193.35 146.55H182.9C182.4 147.675 181.8 148.75 181.1 149.775H190.375L192.125 147.225C192.125 147.225 194.125 148.95 195.25 150.075C195.175 150.35 194.9 150.475 194.525 150.475Z" fill="black"/>
<path d="M113.605 192.152C112.133 189.752 111.253 187.176 111.253 184.024C111.253 180.888 112.133 178.296 113.605 175.912L114.517 176.328C113.125 178.616 112.469 181.304 112.469 184.024C112.469 186.744 113.125 189.448 114.517 191.72L113.605 192.152ZM121.06 182.536L121.22 183.608L119.268 184.216V188.856C119.268 189.512 119.108 189.832 118.692 190.024C118.292 190.2 117.652 190.232 116.596 190.232C116.548 189.928 116.388 189.464 116.228 189.144C116.948 189.16 117.62 189.16 117.812 189.16C118.036 189.16 118.116 189.08 118.116 188.856V184.568L116.02 185.224L115.7 184.072C116.372 183.896 117.204 183.656 118.116 183.384V179.928H115.908V178.824H118.116V175.624H119.268V178.824H121.044V179.928H119.268V183.08C119.86 182.904 120.452 182.712 121.06 182.536ZM126.388 187.912H129.028V184.648H126.388V187.912ZM122.74 184.648V187.912H125.252V184.648H122.74ZM125.252 180.408H122.74V183.528H125.252V180.408ZM129.028 180.408H126.388V183.528H129.028V180.408ZM126.388 179.272H130.196V190.072H129.028V189.048H122.74V190.184H121.604V179.272H125.252V175.64H126.388V179.272ZM131.892 189V188.136C135.572 184.92 137.268 182.584 137.268 180.568C137.268 179.224 136.564 178.248 135.108 178.248C134.148 178.248 133.316 178.84 132.676 179.608L131.828 178.776C132.788 177.736 133.796 177.048 135.284 177.048C137.38 177.048 138.692 178.424 138.692 180.52C138.692 182.856 136.852 185.24 134.1 187.848C134.708 187.8 135.428 187.736 136.02 187.736H139.267V189H131.892ZM144.511 189.208C142.271 189.208 140.847 187.176 140.847 183.096C140.847 179.016 142.271 177.048 144.511 177.048C146.735 177.048 148.159 179.032 148.159 183.096C148.159 187.176 146.735 189.208 144.511 189.208ZM144.511 188.04C145.839 188.04 146.735 186.552 146.735 183.096C146.735 179.672 145.839 178.232 144.511 178.232C143.167 178.232 142.271 179.672 142.271 183.096C142.271 186.552 143.167 188.04 144.511 188.04ZM153.386 189.208C151.146 189.208 149.722 187.176 149.722 183.096C149.722 179.016 151.146 177.048 153.386 177.048C155.61 177.048 157.034 179.032 157.034 183.096C157.034 187.176 155.61 189.208 153.386 189.208ZM153.386 188.04C154.714 188.04 155.61 186.552 155.61 183.096C155.61 179.672 154.714 178.232 153.386 178.232C152.042 178.232 151.146 179.672 151.146 183.096C151.146 186.552 152.042 188.04 153.386 188.04ZM163.045 188.296H170.149V184.664H163.045V188.296ZM169.525 178.296H163.605C163.269 178.632 162.901 178.936 162.533 179.256C163.621 180.024 164.965 181.032 165.749 181.784C167.285 180.824 168.613 179.64 169.525 178.296ZM171.365 183.56V190.216H170.149V189.384H163.045V190.216H161.877V184.952C160.997 185.256 160.101 185.512 159.221 185.72C159.125 185.4 158.853 184.888 158.613 184.632C160.645 184.216 162.757 183.464 164.645 182.44C163.877 181.672 162.661 180.712 161.605 179.928C161.045 180.312 160.453 180.68 159.812 181C159.637 180.728 159.253 180.28 158.997 180.104C161.573 178.856 163.381 177.08 164.341 175.56L165.669 175.848C165.365 176.296 165.029 176.76 164.629 177.208H170.293L170.485 177.144L171.285 177.64C169.973 180.184 167.669 182.152 165.013 183.56H171.365ZM175.397 192.152L174.501 191.72C175.877 189.448 176.549 186.744 176.549 184.024C176.549 181.304 175.877 178.616 174.501 176.328L175.397 175.912C176.885 178.296 177.765 180.888 177.765 184.024C177.765 187.176 176.885 189.752 175.397 192.152Z" fill="black"/>
<path d="M222.499 106.875H204.599L204.399 106.175H217.899L219.799 103.775C219.799 103.775 221.949 105.375 223.224 106.475C223.149 106.75 222.874 106.875 222.499 106.875ZM224.499 118.9L224.574 122.9C225.499 123.3 225.699 123.725 225.699 124.45C225.699 125.9 224.499 126.625 220.399 126.625H218.199C215.374 126.625 214.699 126 214.699 123.55V113.175H212.074C211.674 119.75 209.624 125.05 201.574 127.375L201.474 127.15C206.874 123.725 207.924 118.775 207.974 113.175H202.049L201.849 112.475H219.799L221.749 109.925C221.749 109.925 223.974 111.625 225.299 112.775C225.224 113.05 224.924 113.175 224.549 113.175H218.399V113.8V122.575C218.399 122.975 218.549 123.1 219.149 123.1H220.849C221.349 123.1 221.824 123.1 222.149 123.075C222.474 123.075 222.624 123 222.799 122.675C223.149 122.125 223.649 120.7 224.249 118.9H224.499Z" fill="black"/>
<circle cx="82" cy="110.583" r="20" fill="white"/>
<path d="M87.3754 120.2H89.3754V113.4H87.3754V120.2ZM82.1754 113.4V120.2H84.0004V113.4H82.1754ZM76.3004 106.175V110.6C77.1504 110.475 78.0504 110.325 78.9254 110.175V106.175H76.3004ZM84.0004 106.125H82.1754V112.7H84.0004V106.125ZM89.3754 106.125H87.3754V112.7H89.3754V106.125ZM90.6754 103.7L93.7504 106.125C93.5754 106.35 93.2504 106.55 92.7504 106.675V122.125C92.7254 122.375 91.1254 123.075 89.9254 123.075H89.3754V120.9H82.1754V122C82.1754 122.375 80.8754 123.15 79.4504 123.15H78.9254V110.6C78.2254 111.075 77.3754 111.625 76.3004 112.275V119.6C76.3004 121.875 75.8504 123.075 72.4504 123.375C72.4004 122.3 72.3004 121.525 72.0004 121.025C71.7254 120.525 71.3254 120.175 70.3254 119.975V119.625C70.3254 119.625 72.1004 119.75 72.5254 119.75C72.8754 119.75 72.9754 119.65 72.9754 119.4V114.2L71.8504 114.8C71.7254 115.125 71.4254 115.4 71.1004 115.45L69.8254 111.475C70.5004 111.4 71.6254 111.275 72.9754 111.075V106.175H70.2254L70.0254 105.475H72.9754V99.65L77.2004 100.05C77.1754 100.425 76.9254 100.675 76.3004 100.75V105.075L77.4254 103.225C77.4254 103.225 78.1754 103.975 78.9254 104.775V104.05L82.3504 105.425H84.0004V100L88.1754 100.4C88.1504 100.725 87.9754 100.95 87.3754 101.05V105.425H89.1254L90.6754 103.7Z" fill="black"/>
<path d="M92.9487 33.688L94.4287 32.448C96.5687 33.988 99.6487 36.288 101.089 37.868L99.0687 39.688C97.8287 38.208 95.1087 35.928 92.9487 34.268V44.628H90.3487V34.868C88.5287 36.808 86.3887 38.548 83.9887 39.788C83.6087 39.148 82.8687 38.168 82.3487 37.628C85.9887 35.928 89.1087 32.828 90.9687 29.768H82.9887V27.328H100.329V29.768H94.1087C93.7687 30.388 93.3687 31.008 92.9487 31.608V33.688ZM109.309 26.668L110.869 27.568C110.349 29.248 109.689 31.268 109.149 32.808C110.349 34.368 110.589 35.788 110.589 36.968C110.589 38.248 110.329 39.108 109.689 39.588C109.389 39.828 109.009 39.948 108.569 40.028C108.209 40.088 107.729 40.088 107.269 40.068C107.269 39.488 107.069 38.608 106.749 38.028C107.089 38.048 107.389 38.068 107.609 38.048C107.809 38.048 108.009 38.008 108.149 37.888C108.389 37.708 108.509 37.268 108.509 36.708C108.509 35.728 108.249 34.448 107.109 33.048C107.489 31.828 107.929 30.208 108.249 28.888H106.309V44.628H104.229V26.768H108.989L109.309 26.668ZM113.789 32.308V33.908H118.189V32.308H113.789ZM118.189 28.828H113.789V30.388H118.189V28.828ZM120.109 36.168L121.649 37.848C120.789 38.528 119.749 39.288 118.849 39.868C119.689 41.008 120.769 41.948 122.089 42.548C121.569 43.008 120.849 43.948 120.509 44.608C117.529 42.968 115.929 39.888 114.989 35.968H113.789V41.588L116.569 40.968C116.549 41.648 116.589 42.628 116.669 43.128C112.769 44.128 112.029 44.428 111.549 44.728C111.369 44.208 110.869 43.268 110.529 42.868C110.949 42.608 111.449 42.068 111.449 41.128V26.788H120.489V35.968H117.029C117.249 36.748 117.509 37.468 117.829 38.148C118.649 37.528 119.529 36.788 120.109 36.168ZM128.769 26.028L130.969 26.748C130.429 28.128 129.769 29.548 128.989 30.888V44.608H126.729V34.328C126.269 34.908 125.789 35.448 125.329 35.948C125.109 35.368 124.449 34.088 124.049 33.508C125.909 31.708 127.729 28.868 128.769 26.028ZM132.329 38.268L134.469 38.908C133.649 40.628 132.429 42.568 131.409 43.788C130.989 43.428 130.109 42.788 129.569 42.508C130.569 41.408 131.649 39.748 132.329 38.268ZM133.629 28.948V31.628H139.489V28.948H133.629ZM142.869 37.648H137.689V44.668H135.289V37.648H130.069V35.488H135.289V33.728H131.369V26.848H141.869V33.728H137.689V35.488H142.869V37.648ZM138.369 39.228L140.129 38.248C141.269 39.568 142.489 41.288 143.069 42.468L141.189 43.608C140.649 42.428 139.429 40.588 138.369 39.228ZM150.449 39.448V40.288H159.049V39.448H150.449ZM155.729 32.708H153.029C152.809 33.168 152.489 33.588 152.089 33.968H155.729V32.708ZM149.429 30.448L149.289 31.328H151.189C151.269 31.048 151.309 30.748 151.329 30.448H149.429ZM153.509 28.268V29.068H155.729V28.268H153.509ZM160.069 28.268H157.989V29.068H160.069V28.268ZM155.729 31.328V30.448H153.509C153.489 30.748 153.469 31.048 153.429 31.328H155.729ZM161.169 32.708H157.989V33.968H159.769C159.689 33.728 159.609 33.488 159.489 33.308C159.969 33.368 160.389 33.388 160.609 33.368C160.789 33.368 160.909 33.368 161.029 33.248C161.089 33.148 161.149 32.988 161.169 32.708ZM159.049 37.368H150.449V38.188H159.049V37.368ZM159.049 35.308H150.449V36.108H159.049V35.308ZM161.469 41.628H159.269C160.909 42.188 162.529 42.788 163.589 43.268L161.849 44.688C160.569 44.048 158.329 43.088 156.169 42.388L156.929 41.628H152.049L153.509 42.308C151.869 43.288 149.289 44.208 147.249 44.708C146.889 44.248 146.049 43.388 145.529 42.988C147.349 42.688 149.329 42.228 150.749 41.628H148.129V35.688C147.669 35.788 147.169 35.888 146.649 35.968C146.449 35.448 145.889 34.548 145.509 34.108C147.889 33.808 149.309 33.328 150.169 32.708H146.949C147.169 31.708 147.409 30.248 147.529 29.068H151.349V28.268H146.809V26.868H151.349V25.988H153.509V26.868H155.729V25.988H157.989V26.868H162.229V30.448H157.989V31.328H163.509C163.509 31.328 163.489 31.708 163.489 31.948C163.389 33.188 163.269 33.888 162.929 34.248C162.649 34.568 162.229 34.708 161.789 34.728C161.709 34.728 161.589 34.748 161.469 34.748V41.628ZM172.469 31.768H179.169C177.909 30.988 176.729 30.108 175.709 29.168C174.749 30.168 173.649 31.008 172.469 31.768ZM179.829 38.168H176.909V42.068H179.409L178.069 41.508C178.689 40.608 179.429 39.208 179.829 38.168ZM174.349 38.168H171.329C172.029 39.148 172.789 40.468 173.069 41.348L171.429 42.068H174.349V38.168ZM180.929 33.948H176.909V36.028H183.289V38.168H180.129L182.129 38.888C181.429 40.008 180.649 41.208 180.029 42.068H184.329V44.248H167.029V42.068H170.969C170.649 41.148 169.969 39.828 169.309 38.828L170.889 38.168H167.989V36.028H174.349V33.948H170.289V32.968C169.449 33.368 168.589 33.728 167.709 34.048C167.389 33.348 166.729 32.448 166.129 31.848C169.889 30.768 173.489 28.748 175.389 25.768L177.649 26.788C177.469 27.048 177.289 27.308 177.089 27.588C179.049 29.348 182.289 31.008 185.289 31.848C184.749 32.368 184.009 33.308 183.649 33.928C182.749 33.608 181.829 33.208 180.929 32.768V33.948ZM190.929 42.308H193.529V40.328H190.929V42.308ZM189.849 38.488H194.869C194.209 38.008 193.329 37.448 192.389 36.868C191.609 37.508 190.749 38.048 189.849 38.488ZM196.689 37.188L195.549 38.488H195.609V44.648H193.529V44.148H190.929V44.668H188.949V38.888C188.709 38.988 188.469 39.088 188.229 39.168C188.009 38.628 187.469 37.708 187.089 37.288C188.309 36.928 189.509 36.428 190.549 35.748C190.189 35.528 189.849 35.328 189.509 35.128L190.829 33.748L192.149 34.468C192.569 34.088 192.949 33.628 193.269 33.148H190.849C190.269 33.988 189.569 34.728 188.649 35.388C188.429 34.888 187.869 34.128 187.489 33.828C189.029 32.828 189.949 31.448 190.369 30.128L192.169 30.488C192.069 30.788 191.969 31.088 191.829 31.388H194.349L194.689 31.328L194.709 31.348V29.828H189.329V31.548H187.609V27.948H191.129C190.989 27.508 190.829 27.048 190.689 26.688L192.589 26.028C192.829 26.608 193.109 27.328 193.349 27.948H196.549V31.548H194.989L195.849 32.168C195.369 33.428 194.669 34.508 193.869 35.448C194.949 36.068 196.009 36.708 196.689 37.188ZM199.569 37.708V38.888H203.149V37.708H199.569ZM199.569 34.828V36.028H203.149V34.828H199.569ZM199.569 31.988V33.148H203.149V31.988H199.569ZM205.389 40.708H202.909C203.989 41.348 205.409 42.348 206.169 43.048L204.809 44.668C204.109 43.928 202.589 42.788 201.489 42.048L202.669 40.708H199.689L201.109 42.188C199.909 43.128 198.169 44.128 196.809 44.768C196.589 44.268 196.169 43.508 195.829 43.028C197.049 42.468 198.669 41.508 199.609 40.708H197.449V30.168H199.989C200.069 29.728 200.149 29.248 200.209 28.788H196.949V26.788H205.889V28.788H202.369C202.249 29.268 202.089 29.748 201.949 30.168H205.389V40.708Z" fill="black"/>
<path d="M336.526 117.839C336.746 120.873 336.526 124.225 333.825 126.175C328.747 128.121 325.184 124.553 320.536 128.341C320.644 129.096 318.916 129.964 318.481 130.615C318.158 132.453 316.754 133.644 315.888 135.159C312.752 140.354 310.593 145.333 308.862 151.071C307.457 153.345 307.35 156.158 305.622 158.54C304.11 161.245 302.598 163.843 301.086 166.548C299.247 168.063 300.005 170.444 298.17 171.959C296.981 174.556 295.254 177.046 293.742 179.535V180.726L291.256 181.158C292.225 181.697 291.579 183 292.983 183.108C295.254 185.058 291.794 186.896 292.983 189.062C292.01 190.577 291.794 192.743 290.821 193.826C288.874 195.88 285.419 196.963 282.606 196.531C280.555 195.772 279.146 194.37 277.742 192.635C276.445 188.307 278.285 183.975 280.658 180.515C271.69 179.648 264.664 181.275 255.372 182.137C256.345 182.465 256.991 183.22 257.534 184.088C257.319 185.386 258.508 186.469 257.534 187.984C258.508 190.258 256.238 191.664 256.238 193.83C253.429 195.776 252.455 199.785 248.458 198.81C246.295 198.05 244.029 199.025 242.728 196.536C241.001 194.693 241.324 192.1 241.647 189.934C243.374 187.229 245.429 184.524 247.592 182.681C245.649 181.706 243.271 182.034 241.759 179.76C241.544 177.055 240.678 174.565 241.759 171.968C242.948 172.076 243.814 172.183 244.675 171.536C245.003 172.076 245.434 171.968 245.864 171.968C245.757 168.4 243.163 164.827 242.728 160.823C242.621 158.549 241.324 156.06 242.405 154.006L241.974 153.682L241.651 154.006C241.544 151.301 239.709 148.703 238.735 146.106L239.058 145.454C237.223 143.94 237.111 140.691 236.896 138.313C236.357 137.23 235.814 136.147 235.922 134.741C237.977 133.226 240.678 133.334 243.163 132.795C248.888 132.251 254.618 133.011 260.235 133.011L260.886 133.554C261.101 133.554 261.101 133.231 261.101 133.011C266.503 132.256 270.936 133.662 276.445 132.795C276.769 133.77 276.984 132.579 277.634 132.795C285.091 132.467 293.199 132.687 300.005 133.986C302.168 127.169 305.622 120.783 312.756 118.185C318.486 114.505 324.861 114.936 330.694 114.073C332.852 114.918 335.553 115.462 336.526 117.839Z" fill="black"/>
<path d="M268.666 121.304C268.128 121.951 268.231 123.25 267.042 123.25C266.068 122.818 264.233 121.735 264.126 120.545C263.587 118.599 264.341 117.403 264.341 115.458C266.939 116.217 268.128 118.922 268.666 121.304Z" fill="black"/>
<path d="M296.223 120.549C296.115 121.417 295.464 121.632 294.711 122.064C293.414 121.309 292.117 122.279 291.036 120.873C291.682 119.246 292.876 117.839 293.199 116.001C294.814 116.756 295.788 118.815 296.223 120.549Z" fill="black"/>
<path d="M281.847 120.329C282.278 120.437 282.605 120.873 282.493 121.304C281.089 122.603 279.249 121.735 277.737 122.279C275.795 120.873 276.979 118.383 277.199 116.653L277.414 116.217C279.254 116.653 281.524 118.275 281.847 120.329Z" fill="black"/>
<path d="M253.86 119.574C255.156 119.246 254.725 120.873 255.587 121.088L255.049 122.279C253.967 121.628 253.317 120.437 251.917 120.329C251.809 119.03 250.405 118.814 250.189 117.624C251.486 117.952 254.295 117.839 253.86 119.574Z" fill="black"/>
<path d="M333.067 118.815C332.959 119.574 332.529 120.437 331.878 120.873C326.795 121.196 320.312 122.387 316.529 126.391C308.857 133.424 306.048 145.333 301.728 155.183C299.893 157.673 299.027 161.245 297.192 163.735C295.895 166.656 294.383 168.93 293.302 171.959C292.113 173.801 291.139 175.967 289.627 177.805C288.115 178.237 286.276 178.021 284.979 177.266C282.493 179.216 277.845 177.482 274.821 178.025C265.202 177.81 255.049 179.756 244.891 180.192C244.891 178.677 244.025 176.727 245.649 176.08C246.623 175.756 247.812 177.055 248.458 175.433C249.324 175.756 250.836 175.433 251.482 175.325C254.29 175.756 257.099 175.217 259.912 175.325C261.532 174.893 263.587 174.462 265.529 174.134C271.147 174.785 275.256 175.217 281.304 175.325C282.709 174.242 285.517 175.648 287.357 174.893C288.331 174.462 290.166 175.868 290.596 173.918C290.381 171.105 291.032 168.292 292.974 166.126C292.328 163.96 294.702 162.661 294.702 160.495H295.137L297.08 155.844L296.106 154.977C298.484 154.545 297.726 151.08 299.022 150.105C301.508 145.234 302.805 142.964 303.886 137.657C302.158 135.604 304.317 133.33 304.967 131.271C307.991 121.318 319.015 119.799 327.768 118.392C329.393 119.143 331.663 117.839 333.067 118.815Z" fill="#FBFBFB"/>
<path d="M245.326 123.039C244.896 124.337 243.707 123.039 242.948 123.039C241.76 122.171 240.248 121.088 239.489 119.794C239.92 118.927 241.001 119.578 241.652 119.902C243.056 120.98 244.353 121.735 245.326 123.039Z" fill="black"/>
<path d="M265.314 137.109C265.529 136.242 266.503 136.893 267.041 137.109C267.799 138.084 266.826 139.383 266.933 140.574H258.292C258.723 139.491 259.266 138.408 259.481 137.325C259.804 138.084 260.993 135.702 261.859 137.109C263.371 138.08 264.125 135.159 265.314 137.109Z" fill="#FBFBFB"/>
<path d="M247.053 136.889C247.269 136.129 248.242 136.997 248.458 136.673L248.781 137.32L249.427 136.457L249.75 137.32C250.831 136.673 252.666 137.752 254.286 136.889L254.609 137.32C254.824 137.212 254.824 136.889 254.824 136.673H255.363L254.605 140.569L241.207 140.785C244.016 144.681 250.392 142.951 254.389 143.706L254.609 145.113H254.824C253.743 145.544 255.363 147.058 254.286 147.171L254.394 151.283C251.913 151.93 249.422 152.473 246.614 152.258C246.506 153.449 247.803 154.855 248.992 155.399C250.611 154.208 252.774 155.938 254.394 154.855C255.475 155.507 254.721 156.585 255.26 157.345C254.178 156.913 254.721 159.834 254.829 160.481C253.64 161.241 251.697 160.81 250.724 160.266C250.508 160.158 250.401 159.834 250.185 159.834C249.319 161.785 251.482 162.755 252.671 163.946C255.156 163.299 255.264 165.681 256.238 166.652C255.479 168.166 256.561 170.008 256.776 171.523C254.29 170.871 248.346 174.444 248.781 169.033C247.269 166.22 246.295 162.54 246.295 159.075C245.106 158.967 246.08 157.668 245.649 157.125C244.245 149.979 240.786 144.677 240.027 137.424C242.405 136.992 244.783 137.639 246.618 136.453L247.053 136.889Z" fill="#FBFBFB"/>
<path d="M279.147 137.432V140.789L270.609 140.574C270.609 139.383 270.609 137.868 269.851 137.325C270.824 137.001 272.229 137.109 273.741 136.677C276.015 137.864 277.312 136.026 279.147 137.432Z" fill="#FBFBFB"/>
<path d="M287.362 137.648C287.577 137.54 287.9 137.433 288.336 137.433L287.905 141.221C285.85 141.76 283.477 141.76 282.072 140.354C282.072 139.055 281.099 137.864 280.125 137.109C281.529 137.433 283.477 137.325 284.773 136.673C285.307 138.3 286.604 136.781 287.362 137.648Z" fill="#FBFBFB"/>
<path d="M297.627 138.08C296.438 142.951 294.71 147.822 293.194 152.258C293.517 152.473 293.625 152.905 293.517 153.233H293.194C291.251 159.295 288.33 164.813 286.711 170.984C280.12 171.415 275.256 170.984 268.665 171.415C269.312 169.901 268.127 168.925 268.881 167.627C269.747 166.112 267.8 164.162 268.988 162.755C269.854 161.457 270.505 163.73 271.802 162.647C272.883 162.324 273.744 163.623 274.826 162.647C277.204 164.598 273.314 168.71 276.773 170.768C278.069 168.602 277.531 165.681 278.716 163.407C280.555 163.73 282.718 162.324 284.445 163.407C285.634 163.407 285.849 161.892 285.957 160.809V160.27L286.172 160.486C287.038 158.864 287.361 157.781 287.469 155.835C287.792 155.403 288.766 154.967 288.12 154.428C289.093 149.018 291.794 143.499 291.036 138.084C292.656 137.432 294.71 138.623 296.223 137.109C295.895 137.648 297.084 137.864 297.627 138.08Z" fill="#FBFBFB"/>
<path d="M266.719 143.275C266.611 145.549 266.396 147.822 265.965 150.096C263.152 150.096 260.236 151.071 257.75 150.528C259.047 149.013 257.319 147.171 258.288 145.225V143.495C259.585 143.603 261.097 143.495 262.394 142.956C263.587 144.25 265.422 142.843 266.719 143.275Z" fill="#FBFBFB"/>
<path d="M278.608 143.495C278.393 145.441 278.173 147.822 277.634 149.768C275.584 149.121 272.232 150.204 269.854 150.096L270.397 143.711C273.744 143.926 275.472 143.275 278.608 143.495Z" fill="#FBFBFB"/>
<path d="M287.361 144.681L285.957 150.092C284.225 150.307 282.821 149.764 281.309 149.764C281.093 148.465 282.175 145.764 282.067 143.922C283.794 144.142 285.522 145.009 287.361 144.681Z" fill="#FBFBFB"/>
<path d="M277.42 152.909L276.661 159.295C274.176 160.05 271.582 159.295 268.989 159.295C267.692 158.104 269.963 156.913 268.666 155.83C269.312 154.855 268.989 154.208 269.635 153.233C270.286 152.909 270.932 154.424 271.147 153.013C271.578 153.988 272.767 152.797 273.094 153.449C273.96 152.258 275.257 153.777 275.795 151.934C275.8 153.125 276.877 152.258 277.42 152.909Z" fill="#FBFBFB"/>
<path d="M284.441 152.909C286.276 153.557 284.656 154.968 284.549 156.158L283.472 161.03C282.283 160.383 281.094 158.972 279.689 160.055L280.555 152.478C281.955 152.909 283.36 153.341 284.441 152.909Z" fill="#FBFBFB"/>
<path d="M265.314 153.992C265.422 155.938 266.072 157.673 265.529 159.511L258.723 159.839C259.262 158.756 258.615 158.325 258.508 157.134C258.615 156.374 258.4 154.968 259.262 154.428C261.424 154.532 263.587 154.208 265.314 153.992Z" fill="#FBFBFB"/>
<path d="M265.745 171.523C264.018 170.984 260.774 173.253 260.128 170.548L259.154 168.818C260.02 168.278 259.154 167.734 259.154 166.867V165.137H258.181C258.831 163.515 260.559 164.27 261.209 162.976L261.425 163.623C263.26 163.515 263.802 162.216 265.099 162.755L265.965 164.162L265.745 171.523Z" fill="#FBFBFB"/>
<path d="M288.33 183.647C289.842 185.054 288.869 186.568 288.869 188.083C288.653 188.411 288.653 188.73 288.33 188.95C288.869 187.867 287.572 186.137 286.383 185.162C284.763 185.485 284.979 183.427 283.251 184.186C282.493 185.162 282.17 187 282.062 188.083C283.359 189.166 284.875 191.871 286.926 190.464L287.684 189.705C287.9 190.896 286.926 191.871 285.957 192.954C284.337 193.498 282.821 194.576 281.093 194.145C279.254 191.979 279.474 188.411 280.873 186.029C282.493 184.622 284.01 180.295 286.495 182.456C286.818 183.211 287.469 183.647 288.33 183.647Z" fill="#FBFBFB"/>
<path d="M254.295 188.519C253.321 191.224 252.46 194.904 249.431 196.311C247.919 197.07 245.757 197.394 244.137 196.742C243.163 195.444 242.733 193.713 242.948 192.195C244.352 189.053 246.084 186.132 249 184.079C251.378 185.593 253.859 185.593 254.295 188.519Z" fill="#FBFBFB"/>
<path d="M251.486 187.759C250.512 189.817 251.916 192.199 249.758 193.821C248.462 194.037 247.057 193.39 246.299 192.199C245.761 191.116 245.976 190.033 246.515 188.955C247.703 187.651 250.077 185.485 251.486 187.759Z" fill="black"/>
<path d="M249.431 189.925C249.216 190.469 248.673 191.008 248.242 191.224C248.565 190.788 248.135 189.381 249.431 189.925Z" fill="#FBFBFB"/>
</svg>
