<svg width="997" height="1338" viewBox="0 0 997 1338" fill="none" xmlns="http://www.w3.org/2000/svg">
<path fill-rule="evenodd" clip-rule="evenodd" d="M580.177 81.3961C580.177 81.3961 580.23 85.2908 578.822 89.1017C577.322 93.1561 574.353 97.1496 574.353 97.1496L563.185 93.0268C563.185 93.0268 566.679 89.6418 568.072 85.8765C569.587 81.7765 569.016 77.2733 569.016 77.2733L580.185 81.3961H580.177Z" fill="#FED430"/>
<path fill-rule="evenodd" clip-rule="evenodd" d="M132.119 628.444C132.119 628.444 134.848 625.665 138.547 623.983C142.482 622.195 147.409 621.494 147.409 621.494L152.341 632.329C152.341 632.329 147.477 632.229 143.821 633.889C139.842 635.699 137.045 639.274 137.045 639.274L132.114 628.438L132.119 628.444Z" fill="#FED430"/>
<path fill-rule="evenodd" clip-rule="evenodd" d="M987.133 1289.61C987.133 1289.61 989.564 1292.65 990.79 1296.53C992.093 1300.65 992.198 1305.62 992.198 1305.62L980.85 1309.22C980.85 1309.22 981.532 1304.4 980.322 1300.58C979.003 1296.41 975.79 1293.2 975.79 1293.2L987.139 1289.61L987.133 1289.61Z" fill="#FED430"/>
<path fill-rule="evenodd" clip-rule="evenodd" d="M108.119 1292.44C108.119 1292.44 110.848 1289.66 114.547 1287.98C118.482 1286.19 123.409 1285.49 123.409 1285.49L128.341 1296.33C128.341 1296.33 123.477 1296.23 119.821 1297.89C115.842 1299.7 113.045 1303.27 113.045 1303.27L108.114 1292.44L108.119 1292.44Z" fill="#FED430"/>
<path fill-rule="evenodd" clip-rule="evenodd" d="M387.721 1331.36C387.721 1331.36 386.571 1327.64 386.847 1323.58C387.141 1319.27 388.863 1314.6 388.863 1314.6L400.741 1315.41C400.741 1315.41 398.344 1319.64 398.069 1323.65C397.773 1328.01 399.591 1332.17 399.591 1332.17L387.714 1331.36L387.721 1331.36Z" fill="#FED430"/>
<path fill-rule="evenodd" clip-rule="evenodd" d="M522.646 529.605C522.646 529.605 522.234 525.732 523.285 521.808C524.404 517.632 526.991 513.382 526.991 513.382L538.493 516.456C538.493 516.456 535.326 520.149 534.286 524.027C533.156 528.249 534.14 532.68 534.14 532.68L522.639 529.606L522.646 529.605Z" fill="#FED430"/>
<path fill-rule="evenodd" clip-rule="evenodd" d="M660.049 7.63469C660.049 7.63469 658.528 10.4202 656.01 12.5781C653.328 14.8688 649.644 16.5356 649.644 16.5356L643.447 9.19841C643.447 9.19841 647.259 8.16717 649.744 6.04785C652.451 3.73425 653.852 0.305475 653.852 0.305475L660.048 7.64269L660.049 7.63469Z" fill="#2496F0"/>
<path fill-rule="evenodd" clip-rule="evenodd" d="M416.054 447.315C416.054 447.315 419.103 446.434 422.408 446.705C425.923 446.998 429.7 448.442 429.7 448.442L428.849 458.008C428.849 458.008 425.433 456.026 422.179 455.752C418.63 455.457 415.209 456.875 415.209 456.875L416.06 447.31L416.054 447.315Z" fill="#2496F0"/>
<path fill-rule="evenodd" clip-rule="evenodd" d="M93.054 397.315C93.054 397.315 96.1029 396.434 99.4085 396.705C102.923 396.998 106.7 398.442 106.7 398.442L105.849 408.008C105.849 408.008 102.433 406.026 99.1792 405.752C95.6305 405.457 92.2087 406.875 92.2087 406.875L93.06 397.31L93.054 397.315Z" fill="#2496F0"/>
<path fill-rule="evenodd" clip-rule="evenodd" d="M491.664 44.2832C491.664 44.2832 491.337 40.0515 492.589 35.7992C493.924 31.2727 496.855 26.7134 496.855 26.7134L509.22 30.3939C509.22 30.3939 505.679 34.3361 504.443 38.5319C503.093 43.1076 504.03 47.9638 504.03 47.9638L491.664 44.2832Z" fill="#FF837E"/>
<path fill-rule="evenodd" clip-rule="evenodd" d="M66.9088 471.827C66.9088 471.827 64.1329 475.038 60.2312 477.142C56.0759 479.379 50.7744 480.506 50.7744 480.506L44.6859 469.131C44.6859 469.131 49.9789 468.872 53.8296 466.798C58.0301 464.536 60.8202 460.452 60.8202 460.452L66.9088 471.827Z" fill="#FF837E"/>
<path fill-rule="evenodd" clip-rule="evenodd" d="M505.909 396.827C505.909 396.827 503.133 400.038 499.231 402.142C495.076 404.379 489.774 405.506 489.774 405.506L483.686 394.131C483.686 394.131 488.979 393.872 492.83 391.798C497.03 389.536 499.82 385.452 499.82 385.452L505.909 396.827Z" fill="#FF837E"/>
<path fill-rule="evenodd" clip-rule="evenodd" d="M273.909 1221.83C273.909 1221.83 271.133 1225.04 267.231 1227.14C263.076 1229.38 257.774 1230.51 257.774 1230.51L251.686 1219.13C251.686 1219.13 256.979 1218.87 260.83 1216.8C265.03 1214.54 267.82 1210.45 267.82 1210.45L273.909 1221.83Z" fill="#FF837E"/>
<path fill-rule="evenodd" clip-rule="evenodd" d="M931.909 1247.83C931.909 1247.83 929.133 1251.04 925.231 1253.14C921.076 1255.38 915.774 1256.51 915.774 1256.51L909.686 1245.13C909.686 1245.13 914.979 1244.87 918.83 1242.8C923.03 1240.54 925.82 1236.45 925.82 1236.45L931.909 1247.83Z" fill="#FF837E"/>
<path fill-rule="evenodd" clip-rule="evenodd" d="M838.909 1325.83C838.909 1325.83 836.133 1329.04 832.231 1331.14C828.076 1333.38 822.774 1334.51 822.774 1334.51L816.686 1323.13C816.686 1323.13 821.979 1322.87 825.83 1320.8C830.03 1318.54 832.82 1314.45 832.82 1314.45L838.909 1325.83Z" fill="#FF837E"/>
<path fill-rule="evenodd" clip-rule="evenodd" d="M14.1634 1222.9C14.1634 1222.9 17.0855 1225.98 18.795 1230.07C20.6124 1234.42 21.2123 1239.81 21.2123 1239.81L9.2933 1244.75C9.2933 1244.75 9.55676 1239.45 7.8709 1235.42C6.03357 1231.02 2.24443 1227.84 2.24443 1227.84L14.1634 1222.9Z" fill="#FF837E"/>
<path fill-rule="evenodd" clip-rule="evenodd" d="M251.909 695.827C251.909 695.827 249.133 699.038 245.231 701.142C241.076 703.379 235.774 704.506 235.774 704.506L229.686 693.131C229.686 693.131 234.979 692.872 238.83 690.798C243.03 688.536 245.82 684.452 245.82 684.452L251.909 695.827Z" fill="#FF837E"/>
<path fill-rule="evenodd" clip-rule="evenodd" d="M758.909 55.8275C758.909 55.8275 756.133 59.0384 752.231 61.142C748.076 63.3792 742.774 64.5062 742.774 64.5062L736.686 53.1311C736.686 53.1311 741.979 52.8725 745.83 50.7976C750.03 48.536 752.82 44.4525 752.82 44.4525L758.909 55.8275Z" fill="#FF837E"/>
</svg>
