<svg width="414" height="1545" viewBox="0 0 414 1545" fill="none" xmlns="http://www.w3.org/2000/svg">
<path fill-rule="evenodd" clip-rule="evenodd" d="M133.028 45.0358C133.028 45.0358 133.053 47.1906 132.39 49.2992C131.684 51.5424 130.287 53.752 130.287 53.752L125.03 51.4709C125.03 51.4709 126.675 49.598 127.331 47.5147C128.044 45.2462 127.775 42.7546 127.775 42.7546L133.031 45.0358H133.028Z" fill="#FED430"/>
<path fill-rule="evenodd" clip-rule="evenodd" d="M170.619 4.22413C170.619 4.22413 169.904 5.76533 168.718 6.95926C167.456 8.22669 165.722 9.14895 165.722 9.14895L162.806 5.08932C162.806 5.08932 164.6 4.51874 165.77 3.34614C167.044 2.06604 167.703 0.168929 167.703 0.168929L170.619 4.22855L170.619 4.22413Z" fill="#2496F0"/>
<path fill-rule="evenodd" clip-rule="evenodd" d="M91.3688 24.5015C91.3688 24.5015 91.2147 22.1601 91.8038 19.8073C92.4323 17.3029 93.8115 14.7802 93.8115 14.7802L99.6315 16.8166C99.6315 16.8166 97.9647 18.9978 97.3829 21.3193C96.7477 23.851 97.1888 26.5379 97.1888 26.5379L91.3688 24.5015Z" fill="#FF837E"/>
<path fill-rule="evenodd" clip-rule="evenodd" d="M217.148 30.889C217.148 30.889 215.841 32.6655 214.005 33.8294C212.049 35.0673 209.554 35.6908 209.554 35.6908L206.688 29.3971C206.688 29.3971 209.18 29.254 210.992 28.106C212.969 26.8547 214.282 24.5953 214.282 24.5953L217.148 30.889Z" fill="#FF837E"/>
<path fill-rule="evenodd" clip-rule="evenodd" d="M82.05 649.562C82.05 649.562 83.8261 649.049 85.7517 649.207C87.7991 649.377 89.9993 650.218 89.9993 650.218L89.5034 655.791C89.5034 655.791 87.5138 654.636 85.6181 654.477C83.5509 654.305 81.5577 655.131 81.5577 655.131L82.0535 649.559L82.05 649.562Z" fill="#2496F0"/>
<path fill-rule="evenodd" clip-rule="evenodd" d="M66.8201 692.967C66.8201 692.967 65.2031 694.837 62.9302 696.063C60.5097 697.366 57.4215 698.022 57.4215 698.022L53.8748 691.396C53.8748 691.396 56.958 691.245 59.2012 690.037C61.648 688.719 63.2734 686.341 63.2734 686.341L66.8201 692.967Z" fill="#FF837E"/>
<path fill-rule="evenodd" clip-rule="evenodd" d="M385.038 881.321C385.038 881.321 384.769 878.796 385.454 876.239C386.183 873.517 387.87 870.747 387.87 870.747L395.366 872.751C395.366 872.751 393.302 875.158 392.624 877.685C391.888 880.437 392.529 883.325 392.529 883.325L385.033 881.321L385.038 881.321Z" fill="#FED430"/>
<path fill-rule="evenodd" clip-rule="evenodd" d="M315.566 827.688C315.566 827.688 317.553 827.115 319.708 827.291C321.998 827.482 324.46 828.423 324.46 828.423L323.905 834.658C323.905 834.658 321.679 833.366 319.558 833.187C317.245 832.995 315.015 833.919 315.015 833.919L315.57 827.685L315.566 827.688Z" fill="#2496F0"/>
<path fill-rule="evenodd" clip-rule="evenodd" d="M374.129 794.783C374.129 794.783 372.32 796.876 369.777 798.247C367.069 799.705 363.614 800.44 363.614 800.44L359.646 793.026C359.646 793.026 363.095 792.858 365.605 791.505C368.343 790.031 370.161 787.37 370.161 787.37L374.129 794.783Z" fill="#FF837E"/>
<path fill-rule="evenodd" clip-rule="evenodd" d="M75.718 1542.47C75.718 1542.47 75.0217 1540.21 75.1887 1537.76C75.3672 1535.15 76.4094 1532.32 76.4094 1532.32L83.6 1532.81C83.6 1532.81 82.1487 1535.37 81.9828 1537.8C81.8033 1540.44 82.9041 1542.95 82.9041 1542.95L75.7135 1542.47L75.718 1542.47Z" fill="#FED430"/>
<path fill-rule="evenodd" clip-rule="evenodd" d="M6.81775 1476.16C6.81775 1476.16 5.1373 1478.1 2.77528 1479.38C0.259751 1480.73 -2.94963 1481.41 -2.94963 1481.41L-6.63549 1474.53C-6.63549 1474.53 -3.43124 1474.37 -1.10011 1473.11C1.44277 1471.74 3.13188 1469.27 3.13188 1469.27L6.81775 1476.16Z" fill="#FF837E"/>
<path fill-rule="evenodd" clip-rule="evenodd" d="M215.981 890.715C215.981 890.715 217.634 889.033 219.873 888.015C222.255 886.932 225.238 886.508 225.238 886.508L228.223 893.068C228.223 893.068 225.279 893.007 223.066 894.012C220.657 895.107 218.964 897.272 218.964 897.272L215.978 890.712L215.981 890.715Z" fill="#FED430"/>
<path fill-rule="evenodd" clip-rule="evenodd" d="M288.499 931.508C288.499 931.508 286.819 933.452 284.457 934.726C281.941 936.08 278.732 936.762 278.732 936.762L275.046 929.876C275.046 929.876 278.25 929.719 280.582 928.463C283.124 927.094 284.814 924.622 284.814 924.622L288.499 931.508Z" fill="#FF837E"/>
<path fill-rule="evenodd" clip-rule="evenodd" d="M405.662 1465.16C405.662 1465.16 403.982 1467.1 401.62 1468.38C399.104 1469.73 395.895 1470.41 395.895 1470.41L392.209 1463.53C392.209 1463.53 395.413 1463.37 397.745 1462.11C400.288 1460.74 401.977 1458.27 401.977 1458.27L405.662 1465.16Z" fill="#FF837E"/>
<path fill-rule="evenodd" clip-rule="evenodd" d="M349.362 1512.38C349.362 1512.38 347.681 1514.32 345.319 1515.6C342.804 1516.95 339.594 1517.63 339.594 1517.63L335.908 1510.75C335.908 1510.75 339.113 1510.59 341.444 1509.33C343.987 1507.96 345.676 1505.49 345.676 1505.49L349.362 1512.38Z" fill="#FF837E"/>
</svg>
