<svg width="282" height="40" viewBox="0 0 282 40" fill="none" xmlns="http://www.w3.org/2000/svg">
<path d="M31.64 4.86H24.64V9.22H31.64V4.86ZM24.64 14.7H31.64V10.34H24.64V14.7ZM24.64 20.34H31.64V15.86H24.64V20.34ZM24.64 21.5V22.7C24.64 23.18 22.76 24.22 20.84 24.22H20.2V1.82L24.8 3.74H31.24L33.4 1.3L37.92 4.78C37.64 5.1 37.12 5.46 36.28 5.66V22.82C36.24 23.14 33.96 24.06 32.4 24.06H31.64V21.5H24.64ZM17.92 24.1L18.28 23.86C28.88 26.26 24.8 34.02 20.92 30.82C20.72 28.46 19.32 25.82 17.92 24.1ZM6.48 25.86L7 25.78C9.16 30.86 7.72 34.42 5.72 35.58C4.32 36.42 2.44 36.06 1.92 34.58C1.48 33.14 2.36 31.98 3.56 31.34C5 30.5 6.6 28.34 6.48 25.86ZM13 12.54V23.34C13 23.78 11.04 24.7 9.36 24.7H8.52V16.18C6.64 18.86 4.2 21.22 1.36 23.18L0.92 22.7C4 18.94 6.12 13.58 7.24 8.38H1.84L1.52 7.26H8.52V0.379998L14.36 0.979998C14.24 1.46 14 1.82 13 1.98V7.26H13.76L15.92 4.06C15.92 4.06 18.44 6.26 19.92 7.74C19.8 8.18 19.4 8.38 18.84 8.38H13V11.38C22.64 13.66 18.88 20.86 15.2 17.94C15.04 16.06 14.12 14.06 13 12.54ZM29.76 27.86L29.84 32.22C31.28 32.7 31.64 33.26 31.64 34.06C31.64 36.1 29.72 36.7 21.72 36.7H16.48C11.88 36.7 10.84 36.02 10.84 32.9V25.06L16.8 25.54C16.76 26.06 16.36 26.42 15.56 26.54V32.02C15.56 32.58 15.72 32.7 17.24 32.7H22.24C23.96 32.7 25.52 32.7 26.2 32.66C26.84 32.62 27.08 32.5 27.4 32.1C27.88 31.46 28.48 30.02 29.32 27.86H29.76ZM29.84 25.7L30.2 25.46C42.16 28.82 38 37.9 33.68 34.34C33.52 31.34 31.76 27.9 29.84 25.7ZM66.24 24.54H59.6C58.52 26.22 57.32 27.98 56.24 29.42C58.68 29.54 60.88 29.74 62.84 29.98C64.68 28.34 65.68 26.54 66.24 24.54ZM52.24 10.42V17.18H55.68V10.42H52.24ZM60.16 4.46V9.26H63.92V4.46H60.16ZM71.96 10.42H68.44V17.18H71.96V10.42ZM60.16 17.18H63.92V10.42H60.16V17.18ZM73.6 23.38L76.16 20.22C76.16 20.22 79.04 22.34 80.84 23.9C80.72 24.34 80.32 24.54 79.72 24.54H71.2C70.56 26.86 69.64 28.94 67.64 30.74C83.8 33.78 78.6 39.46 74.52 37.7C72 36.22 68.44 34.66 64.04 33.22C60.2 35.18 54.4 36.82 45.4 38.06L45.2 37.38C52.2 35.7 56.84 33.94 60.04 32.02C57.12 31.22 53.96 30.5 50.52 29.86C51.52 28.62 52.88 26.62 54.12 24.54H43.56L43.24 23.38H54.84C56 21.46 57.08 19.58 57.72 18.3H52.24V18.7C52.24 19.1 50.2 20.1 48.32 20.1H47.68V7.34L52.6 9.26H55.68V4.46H44.36L44.04 3.34H73.04L75.64 0.0199981C75.64 0.0199981 78.6 2.26 80.44 3.82C80.32 4.26 79.88 4.46 79.32 4.46H68.44V9.26H71.56L73.72 6.94L78.24 10.34C78 10.66 77.4 10.98 76.6 11.18V18.78C76.56 19.06 74.2 19.82 72.76 19.82H71.96V18.3H59.48L63.96 19.9C63.8 20.34 63.4 20.7 62.12 20.58C61.68 21.38 61.08 22.34 60.4 23.38H66.52C66.72 22.38 66.84 21.3 66.92 20.18L73.24 20.74C73.16 21.26 72.72 21.7 71.76 21.82C71.68 22.34 71.56 22.86 71.48 23.38H73.6ZM95.32 22.06H101.56C101.64 21.06 101.68 20.02 101.68 18.9V16.98H95.32V22.06ZM101.68 10.94H95.32V15.82H101.68V10.94ZM113 10.94H106.4V15.82H113V10.94ZM106.28 22.06H113V16.98H106.4V18.78C106.4 19.9 106.36 21.02 106.28 22.06ZM113 23.18H106.16C105.76 25.9 104.92 28.38 103.16 30.54C108.48 32.54 115.4 33.14 122.52 33.1V33.62C120.56 34.26 119.44 35.78 119.08 38.06C111.76 37.3 105.6 35.86 101 32.62C97.92 35.06 93.16 36.94 85.8 38.14L85.6 37.66C92.08 35.58 96.04 33.3 98.4 30.46C97 29.02 95.76 27.34 94.8 25.34L95.24 24.94C96.36 26.5 97.8 27.82 99.56 28.86C100.56 27.18 101.12 25.3 101.44 23.18H95.32V24.22C95.32 24.66 93.28 25.7 91.36 25.7H90.68V7.86L95.6 9.78H101.68V5.3H86.52L86.2 4.14H114.12L116.92 0.739998C116.92 0.739998 120.04 3.06 121.96 4.66C121.84 5.1 121.4 5.3 120.84 5.3H106.4V9.78H112.6L114.76 7.42L119.28 10.86C119.04 11.18 118.56 11.54 117.72 11.7V24.3C117.68 24.62 115.32 25.46 113.8 25.46H113V23.18ZM159.52 17.98L164.32 22.1C163.96 22.5 163.32 22.62 162.2 22.74C155.56 31.9 145.24 36.62 127.88 37.98L127.68 37.42C141.28 34.42 150.76 29.94 156.52 21.66H147.44C146.2 22.5 144.88 23.38 143.48 24.18C150.92 25.58 148.36 32.1 144.48 29.94C144.04 28.3 142.76 26.58 141.44 25.26C138.36 26.78 134.96 28.1 131.36 29.02L131.08 28.58C136.64 25.94 141.64 21.74 144.72 18.02C140.28 19.82 135.04 21.1 128.96 21.86L128.72 21.34C139.84 18.1 148.36 13.54 153.64 6.7H143.36C142.28 7.5 141.12 8.26 139.88 9.02C147.84 9.82 145.44 16.42 141.52 14.42C141.04 12.86 139.64 11.14 138.24 9.94C135.68 11.3 132.88 12.46 129.92 13.3L129.68 12.9C135.36 9.7 140.48 4.5 142.76 0.579998L149.76 2.18C149.6 2.7 149.08 3.02 147.72 3.02C146.88 3.86 145.96 4.7 144.88 5.54H154.08L156.72 3.1L161.44 7.1C161.08 7.5 160.44 7.66 159.36 7.7C156.44 11.26 152.76 14.14 148.2 16.46L153.44 17.7C153.24 18.22 152.68 18.54 151.32 18.54C150.6 19.18 149.88 19.86 149 20.5H156.88L159.52 17.98ZM178.76 14.86H176.4C176.12 18.86 174.84 22.46 169.64 24.86L169.2 24.3C172.04 21.5 172.28 18.34 172.36 14.86H169.88L169.52 13.74H178.76V9.9H175.72L174.64 11.38L170.52 9.38C170.76 9.06 171.16 8.7 171.52 8.42V1.7L176.96 2.58C176.88 3.02 176.48 3.3 175.48 3.46V8.78H178.76V0.539999L184.48 1.06C184.4 1.58 184.12 1.98 183.16 2.1V22.62C183.16 23.18 181.08 24.5 179.44 24.5H178.76V14.86ZM189.6 29.9L189.84 29.42C207.16 29.46 207.32 38.98 202.08 37.98C199.32 35.18 193.64 31.66 189.6 29.9ZM198.48 5.06H191.64C191.4 5.18 191.2 5.3 190.96 5.42C193.96 6.06 194.76 7.58 194.44 8.66C196 7.62 197.32 6.42 198.48 5.06ZM201.08 15.26V19.02C201.08 21.9 200.44 23.38 196.08 23.82C197.4 25.46 195.4 27.54 193.48 26.1C193.32 24.94 192.48 23.5 191.6 22.66C191.4 23.14 190.96 23.38 190.2 23.46C190.04 24.7 189.8 25.9 189.4 27.02H198.24L200.92 23.62C200.92 23.62 204 25.9 205.84 27.54C205.76 27.98 205.32 28.18 204.72 28.18H188.92C186.84 32.9 181.84 36.38 170.24 38.14L170 37.62C178.56 35.38 182.44 32.14 184.12 28.18H170.44L170.12 27.02H184.56C185.08 25.34 185.24 23.54 185.24 21.7L191.4 22.38L191.72 22.14C193.64 22.3 194.84 22.74 195.6 23.34C195.52 22.34 195.32 21.62 194.92 21.1C194.44 20.54 193.8 20.1 192.16 19.82L192.12 19.3C192.12 19.3 195.32 19.5 196 19.5C196.48 19.5 196.64 19.34 196.64 18.9V15.26H183.76L183.44 14.14H196.64V10.7C193.2 12.26 189 13.34 183.68 13.9L183.4 13.34C186.96 12.38 190.12 11.22 192.72 9.7C192.4 9.66 192.08 9.54 191.76 9.34C191.56 8.22 190.64 6.94 189.76 6.02C188.04 6.82 186.16 7.46 184.24 7.94L183.92 7.5C187.12 5.7 190.2 2.62 191.56 0.259997L197.4 1.78C197.24 2.3 196.68 2.54 195.44 2.54C194.88 2.98 194.24 3.46 193.52 3.94H199L201.2 1.7L205.52 5.18C205.24 5.5 204.64 5.7 203.68 5.74C202.2 7.34 200.44 8.66 198.4 9.82L202.4 10.14C202.32 10.78 201.92 11.06 201.08 11.18V14.14H201.6L203.52 11.42C203.52 11.42 205.64 13.3 206.84 14.62C206.72 15.06 206.36 15.26 205.84 15.26H201.08ZM185.64 15.94L185.96 15.62C195.12 15.66 192.24 22.66 188.64 20.38C188.32 18.74 186.96 16.94 185.64 15.94ZM190.92 8.1L191 8.66C190.04 9.3 188.52 10.26 186.48 11.38C186.28 11.9 185.92 12.14 185.56 12.22L184.12 8.94C185.44 8.82 188.28 8.5 190.92 8.1ZM226.52 22.54L226.64 22.98C224.2 24.9 220.44 27.74 214.96 31.3C214.84 31.82 214.48 32.26 214.04 32.46L211.04 27.38C212.2 27.06 214.12 26.5 216.48 25.78V8.02H211.68L211.36 6.9H220.32L222.8 3.62C222.8 3.62 225.56 5.86 227.24 7.38C227.12 7.82 226.68 8.02 226.08 8.02H221.36V24.26C223.04 23.7 224.76 23.14 226.52 22.54ZM220.88 38.1L220.6 37.58C224.92 35.74 229.8 32.18 232.08 29.34L236.88 32.42C236.68 32.74 236.2 32.82 235.56 32.58C232.44 34.98 226.16 37.3 220.88 38.1ZM237.08 30.18L237.36 29.86C251.12 30.22 249.16 39.78 244.16 37.7C242.76 35.02 239.6 31.98 237.08 30.18ZM241.2 10.5H232.08V15.26H241.2V10.5ZM232.08 27.26H241.2V22.38H232.08V27.26ZM232.08 16.42V21.26H241.2V16.42H232.08ZM242 3.9L244.52 0.619998C244.52 0.619998 247.4 2.86 249.16 4.42C249.08 4.86 248.64 5.06 248.04 5.06H239.12C237.96 6.58 236.56 8.18 235.32 9.38H240.84L243 7.1L247.28 10.38C247.08 10.66 246.56 10.98 245.88 11.1V28.7C245.84 28.98 243.6 29.9 242 29.9H241.2V28.38H232.08V29.02C232.08 29.5 230.12 30.54 228.12 30.54H227.44V7.42L232.28 9.38H233.84C233.92 8.18 234 6.5 234.08 5.06H225.2L224.92 3.9H242ZM270.52 28.7C272.36 28.7 273.76 30.14 273.76 31.9C273.76 33.62 272.36 35.06 270.52 35.06C268.68 35.06 267.32 33.62 267.32 31.9C267.32 30.14 268.68 28.7 270.52 28.7ZM267.92 5.62L267.16 9.22C266.72 11.82 265.76 12.66 264.12 12.66C263.12 12.66 262.28 12.22 261.72 11.42C262 6.54 266.16 3.78 271.68 3.78C278.08 3.78 281.32 6.62 281.32 10.78C281.32 13.94 279.76 15.98 275.68 18.46C272.56 20.38 271.56 21.1 271.32 23.22L271.12 25.66H269.68C269.48 24.34 269.2 22.66 269.2 21.62C269.2 19.74 270.2 18.7 272.76 16.5C275.2 14.46 276.32 13.02 276.32 10.38C276.32 6.94 273.92 5.26 270.32 5.26C269.44 5.26 268.72 5.34 267.92 5.62Z" fill="black"/>
</svg>
