<svg width="562" height="424" viewBox="0 0 562 424" fill="none" xmlns="http://www.w3.org/2000/svg">
<rect x="66" y="106" width="496" height="318" rx="20" fill="#FF837E"/>
<rect x="61.5" y="100.5" width="493" height="315" rx="18.5" stroke="black" stroke-width="3"/>
<line x1="63" y1="173.5" x2="556" y2="173.5" stroke="black" stroke-width="3"/>
<path d="M258.232 224.16L257.112 239.36C260.552 238.32 264.072 237.92 267.912 237.92C281.432 237.92 289.752 244.48 289.752 256.32C289.752 268.64 279.832 275.36 266.232 275.36C255.032 275.36 248.232 269.84 247.592 261.12C248.552 258.72 250.632 257.52 252.792 257.52C256.072 257.52 257.912 259.28 258.472 264L259.592 271.92C260.872 272.4 262.152 272.56 263.992 272.56C271.192 272.56 276.072 267.04 276.072 256.96C276.072 247.68 271.352 242.4 263.992 242.4C260.952 242.4 258.232 242.8 255.432 243.76L253.112 242.08L255.032 214.24H287.592V224.16H258.232ZM308.344 244C308.344 266.56 312.264 272.56 316.984 272.56C321.704 272.56 325.784 266.48 325.784 244C325.784 221.68 321.704 215.68 316.984 215.68C312.264 215.68 308.344 221.6 308.344 244ZM316.984 212.88C328.024 212.88 337.864 222.32 337.864 244C337.864 265.84 328.024 275.36 316.984 275.36C305.864 275.36 296.184 265.84 296.184 244C296.184 222.32 305.864 212.88 316.984 212.88ZM357.016 244C357.016 266.56 360.936 272.56 365.656 272.56C370.376 272.56 374.456 266.48 374.456 244C374.456 221.68 370.376 215.68 365.656 215.68C360.936 215.68 357.016 221.6 357.016 244ZM365.656 212.88C376.696 212.88 386.536 222.32 386.536 244C386.536 265.84 376.696 275.36 365.656 275.36C354.536 275.36 344.856 265.84 344.856 244C344.856 222.32 354.536 212.88 365.656 212.88Z" fill="black"/>
<path d="M214.56 314.4C215.76 314.8 216.88 315.16 217.88 315.56C218.96 312.12 219.56 308.48 219.84 304.92C218.84 305.2 217.8 305.44 216.72 305.72C216.04 308.8 215.28 311.88 214.56 314.4ZM229 301.52L229.04 302.04C227.92 302.44 226.76 302.84 225.48 303.24C224.96 308.32 224 313.2 221.92 317.52C229.96 322.32 224.8 327.08 221.28 324.8C220.72 323.84 220.04 322.88 219.2 321.92C216.84 325 213.64 327.68 209.24 329.76L208.84 329.4C212.36 326.48 214.84 322.92 216.52 319.12C214.4 317.12 212 315.32 209.76 314.04C210.28 312.24 210.88 309.72 211.44 307L210.76 307.16C210.48 307.68 210 308 209.48 308.08L208.56 302.4C209.52 302.44 210.8 302.44 212.36 302.4C213.12 298.16 213.76 294.08 213.96 291.84L220.72 292.84C220.6 293.32 220.4 293.76 219.12 293.88C218.76 295.96 218.16 298.96 217.48 302.24L220 302.12C220.04 300.64 220.04 299.2 220 297.76L227.32 299C227.16 299.64 226.72 300 225.76 300.08L225.64 301.8C226.76 301.72 227.88 301.6 229 301.52ZM239.6 309.88L242.4 306.04C242.4 306.04 245.52 308.64 247.36 310.36C247.24 310.8 246.8 311 246.24 311H237.92V323.48C237.92 327.24 237.12 329.28 231.2 329.8C231.08 328 230.92 326.72 230.32 325.84C229.72 325 228.96 324.4 227 324.04V323.52C227 323.52 230.84 323.76 231.64 323.76C232.16 323.76 232.36 323.56 232.36 323.16V311H225.44L225.12 309.88H232.36V303.16L236.08 303.48C236.88 301.44 237.72 298.72 238.32 296.8H226.6L226.24 295.68H238.16L241.12 292.8L246.04 297.16C245.68 297.52 245.28 297.64 244.4 297.72C242.6 299.4 239.92 301.8 237.48 303.6L239.32 303.76C239.24 304.36 238.84 304.72 237.92 304.84V309.88H239.6ZM254.84 292.08L255.12 291.92C266.28 293.6 259.88 301.24 255.72 297.2C255.88 295.32 255.4 293.4 254.84 292.08ZM271.28 318.92H279.24V314.48H271.28V318.92ZM261.04 308.68V309.28C262.24 309.72 263.2 310.2 263.92 310.72L263.72 310H282.72L284.2 308.16C283.56 308.32 282.8 308.4 281.92 308.4H281.04V307.88H269.8V308.08C269.8 308.4 268.32 309.2 265.84 309.2H264.96V302.8C264.76 302.84 264.56 302.84 264.32 302.88C263.52 304.8 262.4 306.76 261.04 308.68ZM271.04 297.76H269.8V301.72H271.04V297.76ZM276 297.76H274.72V301.72H276V297.76ZM281.04 297.76H279.68V301.72H281.04V297.76ZM279.68 302.84V306.76H281.04V302.84H279.68ZM274.72 302.84V306.76H276V302.84H274.72ZM269.8 302.84V306.76H271.04V302.84H269.8ZM281.92 326.68L284.64 323.2C284.64 323.2 287.76 325.52 289.64 327.16C289.52 327.6 289.08 327.8 288.52 327.8H262.68L262.36 326.68H276.24C276.92 324.76 277.6 322.16 278 320.36L279.24 320.76V320.04H271.28V320.76C271.28 320.84 271.16 320.96 270.92 321.12C277.44 323.68 272.48 328.72 269.4 325.52C269.52 324.24 269.32 322.84 269.04 321.72C268.52 321.8 267.92 321.84 267.24 321.84H266.36V311.36L271.68 313.36H279.08L281.08 311.12H264.44C268.28 314.36 264.88 318.4 262.04 315.84C262 314.36 261.56 312.76 261.04 311.32V328.12C261.04 328.44 259.36 329.72 256.8 329.72H255.84V314.52C254.32 315.88 252.64 317.12 250.88 318.12L250.52 317.84C254.6 313.12 257.6 306.92 258.8 301.64H251.64L251.28 300.52H258.52L261.36 297.76L264.96 301.2V294.64L270.24 296.64H271.04V292L275.56 292.44C275.52 292.8 275.28 293.08 274.72 293.2V296.64H276V292L280.72 292.44C280.64 292.88 280.4 293.16 279.68 293.32V296.64H280.88L283.2 294L287.64 297.32C287.36 297.68 287 297.92 286.12 298.08V307.4C286.12 307.48 285.92 307.6 285.56 307.76C286.4 308.4 287.92 309.56 289 310.48C288.92 310.92 288.48 311.12 287.92 311.12H281.88L285.84 314.04C285.6 314.4 285.24 314.64 284.36 314.76V320.28C284.36 320.44 282.92 321.12 280.52 321.2L283.88 322.32C283.68 322.8 283.2 323.08 282.32 323C281.12 324.08 279.24 325.48 277.44 326.68H281.92ZM301 309.72H306.48V303.52H301V309.72ZM301 302.4H306.48V296.44H301V302.4ZM306.08 295.32L308.52 292.64L313.52 296.48C313.24 296.8 312.72 297.16 311.92 297.32V311.88C311.84 312.16 309.2 313.16 307.4 313.16H306.48V310.84H301V320.2C302.68 319.52 304.52 318.72 306.44 317.88C305.96 316.32 305.36 314.88 304.68 313.56L305.08 313.36C317.44 319.32 312.32 329.96 307.52 325.24C307.6 323.4 307.36 321.44 306.92 319.56C305 321.56 302.44 324.04 299.36 326.72C298.96 327.6 298.36 328.24 297.8 328.56L294.28 322.44C295.48 321.6 295.68 321.16 295.68 320.08V293.12L301.56 295.32H306.08ZM325.72 292.72L330.64 296.52C330.4 296.84 329.92 297.16 329.16 297.32V316.76C329.16 320.44 328.44 322.52 323.04 323C323 321.16 322.84 319.76 322.44 318.96C322 318.08 321.4 317.52 319.92 317.16V316.64C319.92 316.64 322.44 316.8 323.08 316.8C323.64 316.8 323.76 316.56 323.76 316.08V296.52H319.36V327.72C319.36 328.4 317.32 329.76 314.88 329.76H313.96V293.08L319.52 295.4H323.36L325.72 292.72ZM347.92 307.12H359.88V302.56H347.92V307.12ZM348.24 301.44H359.48L362 298.64L367.4 302.64C367.16 302.96 366.68 303.32 365.84 303.52V308.72C365.8 309 362.76 309.88 360.92 309.88H359.88V308.24H347.92V309C347.92 309.48 345.28 310.72 342.92 310.72H342.12V299.16L348.24 301.44ZM335.84 298.64L335.52 297.52H352.16C352 297.44 351.84 297.36 351.68 297.24C351.48 295.24 350.4 293.12 349.24 291.84L349.48 291.64C358.08 291.32 358.16 295.96 355.72 297.52H364.4L367.36 293.44C367.36 293.44 370.72 296.16 372.68 298C372.56 298.44 372.08 298.64 371.52 298.64H335.84ZM364.8 318.72L367.76 314.8C367.76 314.8 371.12 317.44 373.12 319.2C373.04 319.64 372.56 319.84 371.96 319.84H356.8V323.4C356.8 327.28 355.8 329.28 349.12 329.8C348.96 328 348.72 326.76 347.92 325.88C347.16 325.08 346.28 324.48 343.8 324.04V323.56C343.8 323.56 349 323.88 349.92 323.88C350.44 323.88 350.64 323.72 350.64 323.24V319.84H335.28L334.96 318.72H350.64V314.48L356.36 314.92C358.08 314.2 359.8 313.4 361.24 312.64H338.88L338.52 311.52H362.72L365.92 308.68L370.84 313.36C370.48 313.72 370.08 313.84 369.16 313.88C365.88 314.8 361 315.6 356.8 316.16V318.72H364.8ZM381.28 293.2L381.56 293C394 294.56 388.48 304 383.52 299.92C383.44 297.48 382.44 294.96 381.28 293.2ZM400.68 314L403.24 311.6C402.76 310.76 402.36 309.92 402.08 309.16H391.52C390.16 310.92 388.52 312.56 386.6 314H400.68ZM413.84 309.16H403.24C405.08 310.72 409.16 312 415.4 312.64V313.16C412.88 313.76 411.56 314.88 411.48 317.92C409.92 317.44 408.56 316.76 407.4 315.96C407.2 316 407 316.04 406.8 316.08C406.4 323.64 405.6 327.12 403.48 328.6C402.12 329.52 400.52 329.96 397.84 329.96C397.84 328.36 397.68 327.04 396.96 326.24C396.24 325.4 394.92 324.76 393.12 324.36V323.96C394.8 324.08 397.44 324.2 398.24 324.2C398.84 324.2 399.16 324.12 399.44 323.88C400.24 323.24 400.72 320.28 401.04 315.12H396.36C394.52 322.68 388.8 327.6 378.48 329.8L378.32 329.36C385.56 326.08 388.96 321.24 389.88 315.12H385C382.72 316.56 380.12 317.8 377.04 318.76L376.76 318.36C381.04 315.88 384.16 312.72 386.44 309.16H377.68L377.36 308.04H387.12C388.04 306.4 388.84 304.64 389.48 302.88H379.72L379.4 301.76H389.84C390.96 298.4 391.56 294.88 391.92 291.4L399.64 293.08C399.52 293.56 399.2 293.88 398.12 293.96C397.52 296.6 396.76 299.24 395.72 301.76H400.2C401.12 299.16 402.28 295.56 402.92 292.88L409.16 296.04C408.92 296.44 408.36 296.72 407.48 296.6C405.92 298.12 403.84 300.16 401.68 301.76H405.88L408.44 297.96C408.44 297.96 411.4 300.56 413.04 302.24C412.96 302.68 412.52 302.88 411.96 302.88H395.24C394.44 304.68 393.48 306.4 392.36 308.04H407.2L410 303.96C410 303.96 413.2 306.72 415 308.52C414.88 308.96 414.44 309.16 413.84 309.16Z" fill="black"/>
<path d="M430.96 240H402.32L402 238.88H423.6L426.64 235.04C426.64 235.04 430.08 237.6 432.12 239.36C432 239.8 431.56 240 430.96 240ZM434.16 259.24L434.28 265.64C435.76 266.28 436.08 266.96 436.08 268.12C436.08 270.44 434.16 271.6 427.6 271.6H424.08C419.56 271.6 418.48 270.6 418.48 266.68V250.08H414.28C413.64 260.6 410.36 269.08 397.48 272.8L397.32 272.44C405.96 266.96 407.64 259.04 407.72 250.08H398.24L397.92 248.96H426.64L429.76 244.88C429.76 244.88 433.32 247.6 435.44 249.44C435.32 249.88 434.84 250.08 434.24 250.08H424.4V251.08V265.12C424.4 265.76 424.64 265.96 425.6 265.96H428.32C429.12 265.96 429.88 265.96 430.4 265.92C430.92 265.92 431.16 265.8 431.44 265.28C432 264.4 432.8 262.12 433.76 259.24H434.16Z" fill="black"/>
<circle cx="200.5" cy="243.5" r="34.5" fill="white"/>
<path d="M208.863 258.72H212.063V247.84H208.863V258.72ZM200.543 247.84V258.72H203.463V247.84H200.543ZM191.143 236.28V243.36C192.503 243.16 193.943 242.92 195.343 242.68V236.28H191.143ZM203.463 236.2H200.543V246.72H203.463V236.2ZM212.063 236.2H208.863V246.72H212.063V236.2ZM214.143 232.32L219.063 236.2C218.783 236.56 218.263 236.88 217.463 237.08V261.8C217.423 262.2 214.863 263.32 212.943 263.32H212.063V259.84H200.543V261.6C200.543 262.2 198.463 263.44 196.183 263.44H195.343V243.36C194.223 244.12 192.863 245 191.143 246.04V257.76C191.143 261.4 190.423 263.32 184.983 263.8C184.903 262.08 184.743 260.84 184.263 260.04C183.823 259.24 183.183 258.68 181.583 258.36V257.8C181.583 257.8 184.423 258 185.103 258C185.663 258 185.823 257.84 185.823 257.44V249.12L184.023 250.08C183.823 250.6 183.343 251.04 182.823 251.12L180.783 244.76C181.863 244.64 183.663 244.44 185.823 244.12V236.28H181.423L181.103 235.16H185.823V225.84L192.583 226.48C192.543 227.08 192.143 227.48 191.143 227.6V234.52L192.943 231.56C192.943 231.56 194.143 232.76 195.343 234.04V232.88L200.823 235.08H203.463V226.4L210.143 227.04C210.103 227.56 209.823 227.92 208.863 228.08V235.08H211.663L214.143 232.32Z" fill="black"/>
<path d="M212.66 143.7H215.16V155.8H212.66V143.7ZM209.3 147.24V148.32H218.76V147.24H209.3ZM209.3 144.46V145.52H218.76V144.46H209.3ZM206.94 142.62H221.22V150.16H206.94V142.62ZM205.06 151.2H222.98V153.26H205.06V151.2ZM208.36 139.24V140.4H211.18V139.24H208.36ZM206.22 137.8H213.42V141.82H206.22V137.8ZM216.74 139.24V140.4H219.62V139.24H216.74ZM214.62 137.8H221.86V141.82H214.62V137.8ZM226.88 144.98H245.14V146.72H226.88V144.98ZM228.52 149.86H243.48V151.6H228.52V149.86ZM227.26 152.32H244.76V154.12H227.26V152.32ZM229.28 142.62H243.06V149.16H229.08V147.48H240.58V144.3H229.28V142.62ZM234.7 141.68H237.16V155.8H234.7V141.68ZM229.48 138.1H235.76V139.9H229.48V138.1ZM237.7 138.1H245.26V139.9H237.7V138.1ZM229.6 136.84L231.7 137.48C230.86 139.18 229.48 140.9 228.18 141.98C227.86 141.56 227.06 140.72 226.6 140.32C227.8 139.48 228.94 138.16 229.6 136.84ZM237.8 136.84L239.98 137.42C239.28 139.1 238.06 140.8 236.86 141.84C236.46 141.46 235.58 140.74 235.08 140.4C236.24 139.54 237.24 138.2 237.8 136.84ZM230.74 140.6L232.26 139.44C232.88 140 233.68 140.82 234.04 141.36L232.44 142.64C232.1 142.08 231.34 141.2 230.74 140.6ZM239.46 140.5L241.12 139.4C241.74 139.96 242.54 140.76 242.92 141.3L241.18 142.54C240.86 141.96 240.1 141.1 239.46 140.5ZM259.64 144.1H262.06V155.8H259.64V144.1ZM254.38 146.56H267.26V148.74H254.38V146.56ZM257.98 140V142.68H263.86V140H257.98ZM255.7 137.9H266.26V144.8H255.7V137.9ZM253.08 137.06L255.32 137.78C253.98 141.18 251.84 144.76 249.62 147.02C249.42 146.46 248.76 145.14 248.36 144.56C250.22 142.76 252.02 139.92 253.08 137.06ZM251.02 142.6L253.3 140.32L253.32 140.34V155.74H251.02V142.6ZM256.64 149.36L258.8 150C258 151.72 256.76 153.68 255.74 154.9C255.32 154.54 254.42 153.9 253.88 153.6C254.9 152.5 255.98 150.86 256.64 149.36ZM262.72 150.32L264.52 149.34C265.64 150.66 266.88 152.4 267.48 153.58L265.56 154.74C265.02 153.54 263.8 151.68 262.72 150.32ZM273.54 140.1H285.44V139.32H272.1V137.9H287.62V141.52H273.54V140.1ZM272.84 140.1H274.94C274.78 141.38 274.56 142.8 274.34 143.8H272.24C272.48 142.76 272.72 141.32 272.84 140.1ZM273.16 142.38H287.42V143.8H272.72L273.16 142.38ZM286.66 142.38H288.9C288.9 142.38 288.88 142.78 288.88 143C288.78 144.26 288.66 144.96 288.32 145.34C288.02 145.64 287.6 145.78 287.16 145.82C286.78 145.86 286.04 145.86 285.26 145.8C285.24 145.4 285.06 144.78 284.86 144.38C285.34 144.44 285.76 144.46 285.98 144.44C286.16 144.44 286.28 144.44 286.4 144.3C286.52 144.14 286.6 143.68 286.66 142.62V142.38ZM276.66 137.02H278.84V141.16C278.84 144 277.88 146.16 271.94 147.04C271.74 146.52 271.2 145.62 270.8 145.2C275.94 144.52 276.66 143.08 276.66 141.1V137.02ZM281.08 137.02H283.36V145.08H281.08V137.02ZM275.76 148.46V149.28H284.4V148.46H275.76ZM275.76 150.56V151.38H284.4V150.56H275.76ZM275.76 146.38V147.18H284.4V146.38H275.76ZM273.44 145.02H286.84V152.74H273.44V145.02ZM281.52 153.5L282.86 152.16C285.06 152.84 287.52 153.74 288.98 154.4L287.24 155.84C285.94 155.16 283.68 154.22 281.52 153.5ZM276.7 152.44L278.84 153.42C277.2 154.4 274.62 155.32 272.58 155.84C272.18 155.38 271.36 154.52 270.84 154.12C272.96 153.76 275.34 153.16 276.7 152.44ZM297.72 138.44H311.22V140.52H297.72V138.44ZM300.52 147.3H302.14V148.74H300.52V147.3ZM303.28 143.24H305.38V155.66H303.28V143.24ZM308.72 144.62H310.84V153.76C310.84 154.68 310.68 155.16 310.08 155.46C309.5 155.74 308.66 155.76 307.52 155.76C307.44 155.22 307.22 154.5 307 154C307.6 154.02 308.26 154.02 308.44 154.02C308.66 154.02 308.72 153.96 308.72 153.74V144.62ZM298 144.62H309.8V146.62H300.02V155.76H298V144.62ZM293.32 138.94L294.66 137.2C295.76 137.66 297.16 138.44 297.86 139.06L296.44 140.98C295.8 140.34 294.42 139.46 293.32 138.94ZM292.54 144.28L293.86 142.52C294.98 142.94 296.4 143.66 297.08 144.28L295.68 146.22C295.04 145.6 293.66 144.78 292.54 144.28ZM292.88 154.36C293.66 152.8 294.7 150.26 295.5 147.92L297.44 149.16C296.74 151.3 295.88 153.62 295.06 155.58L292.88 154.36ZM300.42 137H302.68V141.66H306.1V137H308.44V143.66H300.42V137ZM301.12 147.3H302.52C302.56 149.52 302.92 151.34 303.74 152.2C303.44 152.36 302.92 152.82 302.72 153.14C301.86 152.08 301.46 150.22 301.38 147.94H301.12V147.3ZM301.04 149.24H302.32C302.18 150.84 301.76 152.38 300.66 153.38C300.48 153.08 300.06 152.62 299.76 152.42C300.62 151.66 300.96 150.4 301.04 149.24ZM305.84 147.3H307.38V148.74H305.84V147.3ZM306.42 147.3H307.84C307.88 149.52 308.26 151.32 309.12 152.16C308.8 152.36 308.3 152.8 308.08 153.12C307.2 152.06 306.76 150.22 306.7 147.94H306.42V147.3ZM306.36 149.24H307.66C307.5 150.76 307.1 152.22 305.96 153.16C305.78 152.86 305.38 152.4 305.06 152.2C305.94 151.52 306.28 150.34 306.36 149.24Z" fill="black"/>
<path d="M269.382 364.44C267.522 361.44 266.422 358.24 266.422 354.3C266.422 350.38 267.522 347.14 269.382 344.14L270.502 344.68C268.782 347.52 267.942 350.9 267.942 354.3C267.942 357.7 268.782 361.08 270.502 363.92L269.382 364.44ZM271.919 354.34C273.639 353.9 276.199 353.14 278.679 352.42L278.859 353.78C276.579 354.5 274.179 355.26 272.319 355.8L271.919 354.34ZM272.179 347.74H278.659V349.14H272.179V347.74ZM274.959 343.72H276.419V360.38C276.419 361.2 276.219 361.62 275.699 361.84C275.179 362.08 274.379 362.12 273.039 362.1C272.999 361.74 272.779 361.14 272.599 360.74C273.499 360.76 274.339 360.76 274.579 360.76C274.859 360.76 274.959 360.66 274.959 360.38V343.72ZM279.359 348.32H290.179V361.92H288.679V349.74H280.779V362.04H279.359V348.32ZM280.219 353.66H289.119V355.08H280.219V353.66ZM280.259 359.2H289.159V360.64H280.259V359.2ZM283.959 343.74H285.379V360.08H283.959V343.74ZM293.119 360.5V358.98H296.379V348.06H293.759V346.88C295.079 346.66 296.019 346.32 296.799 345.84H298.199V358.98H301.159V360.5H293.119ZM308.013 360.78C305.213 360.78 303.433 358.24 303.433 353.12C303.433 348.04 305.213 345.58 308.013 345.58C310.773 345.58 312.553 348.04 312.553 353.12C312.553 358.24 310.773 360.78 308.013 360.78ZM308.013 359.3C309.673 359.3 310.793 357.44 310.793 353.12C310.793 348.86 309.673 347.04 308.013 347.04C306.333 347.04 305.193 348.86 305.193 353.12C305.193 357.44 306.333 359.3 308.013 359.3ZM319.107 360.78C316.307 360.78 314.527 358.24 314.527 353.12C314.527 348.04 316.307 345.58 319.107 345.58C321.867 345.58 323.647 348.04 323.647 353.12C323.647 358.24 321.867 360.78 319.107 360.78ZM319.107 359.3C320.767 359.3 321.887 357.44 321.887 353.12C321.887 348.86 320.767 347.04 319.107 347.04C317.427 347.04 316.287 348.86 316.287 353.12C316.287 357.44 317.427 359.3 319.107 359.3ZM331.921 359.92H341.581V361.3H331.921V359.92ZM331.241 345.72H338.581V347.06H331.241V345.72ZM332.141 343.64L333.821 343.98C332.321 346.58 329.921 349.3 326.441 351.36C326.221 350.98 325.721 350.46 325.381 350.2C328.681 348.4 330.981 345.82 332.141 343.64ZM338.081 345.72H338.361L338.641 345.64L339.641 346.18C337.241 352.22 331.601 356.24 326.161 358C325.981 357.6 325.601 356.98 325.281 356.66C330.461 355.16 336.001 351.24 338.081 345.98V345.72ZM328.741 349.28L329.861 348.32C331.441 349.4 333.361 351 334.281 352.14L333.061 353.22C332.221 352.08 330.321 350.4 328.741 349.28ZM340.841 353.6H342.381V362.14H340.841V353.6ZM332.601 353.6H341.601V354.98H332.601V362.1H331.101V354.78L332.301 353.6H332.601ZM346.621 364.44L345.481 363.92C347.201 361.08 348.041 357.7 348.041 354.3C348.041 350.9 347.201 347.52 345.481 344.68L346.621 344.14C348.461 347.14 349.561 350.38 349.561 354.3C349.561 358.24 348.461 361.44 346.621 364.44Z" fill="black"/>
<path d="M412.7 145.4H415.18V152.32C415.18 153.1 415.3 153.2 415.94 153.2C416.22 153.2 417.4 153.2 417.76 153.2C418.44 153.2 418.56 152.7 418.64 149.8C419.16 150.22 420.22 150.64 420.86 150.8C420.62 154.42 420.02 155.46 417.98 155.46C417.52 155.46 416 155.46 415.56 155.46C413.28 155.46 412.7 154.68 412.7 152.34V145.4ZM402.54 143.86H420.48V146.2H402.54V143.86ZM404.36 138.42H418.64V140.74H404.36V138.42ZM407.12 145.7H409.7C409.38 150.1 408.62 153.72 403.58 155.74C403.32 155.14 402.64 154.26 402.1 153.8C406.5 152.16 406.88 149.22 407.12 145.7Z" fill="black"/>
<path d="M326.636 152.08H343.396V157H323.356V153.4C325.676 150.88 327.916 148.36 329.876 146.12C334.236 141.2 336.196 138.56 336.196 134.24C336.196 130.28 334.316 127.8 331.236 127.8C330.756 127.8 330.236 127.84 329.716 127.96L328.836 131.92C328.396 134.6 327.076 135.24 325.836 135.24C324.676 135.24 323.716 134.6 323.236 133.6C323.596 129 328.116 126.44 333.476 126.44C339.796 126.44 342.716 129.88 342.716 134.64C342.716 138.92 338.996 142.04 331.596 147.88C330.316 148.92 328.476 150.44 326.636 152.08ZM353.172 142C353.172 153.28 355.132 156.28 357.492 156.28C359.852 156.28 361.892 153.24 361.892 142C361.892 130.84 359.852 127.84 357.492 127.84C355.132 127.84 353.172 130.8 353.172 142ZM357.492 126.44C363.012 126.44 367.932 131.16 367.932 142C367.932 152.92 363.012 157.68 357.492 157.68C351.932 157.68 347.092 152.92 347.092 142C347.092 131.16 351.932 126.44 357.492 126.44ZM377.508 142C377.508 153.28 379.468 156.28 381.828 156.28C384.188 156.28 386.228 153.24 386.228 142C386.228 130.84 384.188 127.84 381.828 127.84C379.468 127.84 377.508 130.8 377.508 142ZM381.828 126.44C387.348 126.44 392.268 131.16 392.268 142C392.268 152.92 387.348 157.68 381.828 157.68C376.268 157.68 371.428 152.92 371.428 142C371.428 131.16 376.268 126.44 381.828 126.44Z" fill="black"/>
<g clip-path="url(#clip0_515_3272)">
<path fill-rule="evenodd" clip-rule="evenodd" d="M124.689 18.435C124.689 18.435 80.6588 75.6627 74.8265 83.4453C68.998 91.2233 15.7082 152.966 15.7082 152.966L39.2924 173.987C39.2924 173.987 45.1424 174.09 47.271 173.771C49.4042 173.456 55.128 171.556 61.5681 177.036C68.0043 182.52 66.6933 192.139 64.9598 193.808C63.2264 195.477 64.9206 196.572 64.9206 196.572L90.9882 216.856C90.9882 216.856 144.637 146.906 148.858 141.815C153.079 136.725 202.95 79.9398 202.95 79.9398C202.95 79.9398 195.421 72.7282 190.383 67.3188C185.345 61.9093 174.531 59.1466 169.259 60.3605C163.989 61.5828 160.293 62.8638 156.263 57.6628C152.237 52.4571 149.429 47.5803 150.745 43.7365C152.06 39.8928 150.251 37.4556 150.251 37.4556L124.689 18.435Z" fill="#FBFBFB"/>
<path fill-rule="evenodd" clip-rule="evenodd" d="M134.393 14.2654C134.393 14.2654 85.2064 78.9845 67.6236 106.08C50.0408 133.175 25.7931 153.404 25.7931 153.404C25.7931 153.404 29.2271 159.118 35.457 163.633C41.9293 168.334 41.5742 162.617 51.4229 162.085C62.6264 161.483 67.0969 166.856 72.4508 175.913C77.8009 184.974 76.6126 191.053 76.6126 191.053L103.553 210.032C103.553 210.032 165.309 129.321 173.533 120.678C181.756 112.036 213.493 81.8199 213.493 81.8199C213.493 81.8199 189.054 61.4369 184.898 56.2092C180.743 50.9815 173.412 57.9477 165.143 55.6762C156.873 53.4047 152.923 51.3763 155.299 40.8204C157.524 30.9526 146.559 24.1375 146.559 24.1375L134.393 14.2654Z" fill="#FFFAF1"/>
<path d="M174.963 56.3211C174.381 56.0481 173.567 56.0933 173.049 56.4928C168.372 60.1749 161.448 60.5528 156.691 56.6694C151.942 52.7937 150.803 45.2025 154.037 40.0375C154.531 39.2543 154.639 38.1971 153.793 37.5498C144.63 30.5012 135.283 23.7112 125.797 17.0993C125.039 16.5712 123.812 16.4678 123.215 17.3367C114.019 30.5718 104.562 43.6062 94.8262 56.433C94.3743 57.0342 93.9223 57.6355 93.4733 58.2237C68.4934 91.045 41.7991 122.514 13.4767 152.556C12.8719 153.201 12.9565 154.542 13.7179 155.057C20.3194 159.555 33.3936 172.473 37.9533 176.192C39.1845 177.19 40.5099 178.421 42.2143 178.37C44.2239 178.317 45.8936 176.378 47.616 175.622C52.0014 173.696 57.6819 174.069 61.5673 177.028C65.9466 180.365 65.2721 190.658 61.1555 194.077C60.3146 194.782 59.9883 196.262 61.0427 197.005C70.946 204.032 80.8654 211.049 90.7772 218.075C91.5953 218.653 92.8658 218.723 93.5186 217.823C111.181 193.536 129.359 169.63 148.183 146.236C152.786 140.526 160.597 130.975 168.475 121.504C169.174 120.651 169.883 119.805 170.584 118.961C179.119 108.733 187.397 99.0044 191.383 94.7963C195.409 90.5507 198.008 87.7635 204.5 81.8919C206.626 79.975 206.035 77.587 203.911 75.6324C196.5 68.8129 186.597 61.9172 174.963 56.3211ZM201.375 78.7659C186.917 92.7815 174.242 108.423 173.78 108.961C171.704 111.408 169.631 113.871 167.565 116.334C166.849 117.188 166.12 118.048 165.41 118.923C158.561 127.117 151.792 135.363 145.1 143.687C126.656 166.622 108.769 190.018 91.5559 213.895C82.7072 207.704 73.8578 201.504 65.0037 195.301C67.7732 191.764 68.1011 187.078 68.0035 182.512C67.8741 176.804 64.152 173.152 58.8534 171.438C54.1322 169.909 48.7645 170.331 44.4215 172.748C42.6617 173.737 42.3201 174.205 40.5568 173.052C39.2987 172.218 38.1391 171.125 36.9667 170.122C31.1099 163.77 24.6506 158.266 17.5476 153.399C45.3003 123.969 71.5194 93.0353 96.0551 60.8527C96.5946 60.1459 97.1334 59.4307 97.6729 58.7239C107.061 46.3446 116.207 33.7883 125.094 21.048C133.621 27.0271 142.049 33.1638 150.402 39.4007C147.168 45.9225 148.281 54.2582 153.896 59.2711C159.535 64.3116 168.252 64.4516 174.359 60.3285C184.195 65.2163 193.213 71.409 201.375 78.7659Z" fill="#1D1D1B"/>
<path d="M102.435 63.5016C102.608 64.1259 102.173 64.5857 101.559 64.5573C99.3542 64.4716 97.5905 62.4204 96.0559 60.8612C95.9392 60.7489 95.8226 60.6367 95.7235 60.5313C94.9613 59.783 94.2173 59.0034 93.4817 58.223C93.9307 57.6347 94.3865 57.0289 94.8346 56.4322C95.7644 57.2033 96.7149 57.9682 97.6737 58.7323L97.8256 58.8583C99.5101 60.2087 101.827 61.3398 102.435 63.5016Z" fill="#1D1D1B"/>
<path d="M113.186 71.2395C111.209 69.5767 109.205 67.9844 107.058 66.545C105.817 65.7093 104.4 67.3236 105.554 68.3581C107.352 69.9652 109.2 71.5126 111.001 73.1152C112.456 74.4146 113.704 76.1232 115.721 76.3703C116.193 76.4286 116.77 76.0321 116.664 75.4949C116.264 73.5133 114.68 72.5014 113.186 71.2395Z" fill="#1D1D1B"/>
<path d="M126.74 82.6884C125.83 81.9961 124.525 80.3946 123.233 79.958C123.178 79.9206 123.124 79.8832 123.058 79.8595C123.023 79.8458 122.987 79.8321 122.952 79.8184C122.499 79.6438 121.923 79.7942 121.728 80.2828C121.704 80.3486 121.676 80.4105 121.645 80.4771C121.484 80.8013 121.496 81.3218 121.751 81.6036C123.193 83.2096 124.87 84.5692 126.607 85.8469C127.884 86.7895 129.209 87.9737 130.861 87.508C131.093 87.4443 131.301 87.1369 131.248 86.8916C130.846 84.8382 128.298 83.8723 126.74 82.6884Z" fill="#1D1D1B"/>
<path d="M138.08 91.7588C138.072 91.768 138.073 91.7764 138.065 91.7856C137.003 91.0055 135.456 92.1399 136.265 93.4224C137.482 95.3458 139.388 96.8794 141.104 98.3414C142.52 99.5468 144.005 101.157 145.987 100.903C146.402 100.852 146.847 100.447 146.748 99.985C146.352 98.1303 144.854 97.3606 143.423 96.2286C141.612 94.7965 140.002 93.0195 138.08 91.7588Z" fill="#1D1D1B"/>
<path d="M155.086 105.893C153.987 105.035 152.954 104.07 151.685 103.483C151.682 103.488 151.682 103.496 151.679 103.501C150.899 103.195 149.79 103.886 150.239 104.824C151.525 107.517 154.579 109.802 157.099 111.288C158.635 112.189 160.027 109.78 158.719 108.688C157.545 107.715 156.29 106.829 155.086 105.893Z" fill="#1D1D1B"/>
<path d="M167.561 116.338C168.567 117.196 169.521 118.172 170.53 118.932C170.544 118.943 170.558 118.955 170.58 118.965C169.879 119.81 169.171 120.655 168.471 121.508C167.483 120.751 166.359 119.896 165.41 118.923C164.522 118.008 163.781 116.991 163.449 115.864C163.193 115.001 163.987 114.25 164.837 114.575C165.827 114.954 166.716 115.606 167.561 116.338Z" fill="#1D1D1B"/>
<path d="M32.4836 143.444C29.141 146.079 26.6216 149.838 23.488 152.755C23.0986 153.122 23.2444 153.854 23.6211 154.159C28.9631 158.481 34.2846 162.808 39.7659 166.943C40.2959 167.344 40.9125 166.6 40.4206 166.154C35.6427 161.789 30.7202 157.598 25.7931 153.404C28.815 150.875 32.1015 147.961 33.5661 144.349C33.8283 143.714 33.0799 142.977 32.4836 143.444Z" fill="#1D1D1B"/>
<path d="M180.016 69.2725C178.956 68.6109 178.134 70.4079 179.213 71.055C183.373 73.5517 187.151 76.4989 190.691 79.7904C187.78 81.8388 185.143 84.2225 182.785 86.9071C180.932 89.0194 178.772 91.4187 178.955 94.3826C178.995 94.9811 179.783 95.1928 180.161 94.7552C181.973 92.6169 183.242 90.1215 185.142 88.0176C187.553 85.3452 190.299 83.0363 193.174 80.8809C193.787 80.4216 193.812 79.5671 193.247 79.0594C189.14 75.3748 184.699 72.1875 180.016 69.2725Z" fill="#1D1D1B"/>
<path d="M94.6329 106.718C81.1853 122.756 67.962 138.88 53.5399 154.08C52.5679 155.102 54.261 156.498 55.2292 155.481C69.6081 140.408 83.5243 124.479 95.1715 107.164C95.4171 106.803 94.9268 106.373 94.6329 106.718Z" fill="#1D1D1B"/>
<path d="M130.816 113.623C118.608 124.167 109.418 138.585 101.026 152.208C100.872 152.46 101.309 152.737 101.472 152.485C110.286 138.708 121.367 127.051 131.308 114.155C131.546 113.849 131.142 113.343 130.816 113.623Z" fill="#1D1D1B"/>
<path d="M79.9811 161.792C79.7361 162.115 79.5301 162.448 79.3762 162.793C79.152 163.157 78.956 163.506 78.7844 163.844C78.6719 164.223 78.7326 164.506 78.9674 164.7C79.1817 164.948 79.3349 165.222 79.4355 165.522C79.5154 165.829 79.4906 166.149 79.3679 166.466C79.2753 166.652 79.1527 166.791 78.9963 166.886C78.8623 167.038 78.7183 167.174 78.5597 167.29C77.8519 167.788 77.1338 167.998 76.4017 167.926C75.6042 167.969 74.8422 167.895 74.1119 167.708C72.6286 167.183 71.3697 166.34 70.326 165.173C70.023 164.929 69.7382 164.654 69.4671 164.344C69.2414 164.11 69.0073 163.878 68.7585 163.625C68.5082 163.355 68.3013 163.052 68.1211 162.717C67.918 162.409 67.7356 162.095 67.5646 161.767C67.4052 161.472 67.2678 161.141 67.144 160.775C67.0777 160.434 67.0549 160.059 67.0771 159.666C67.0198 159.464 67.0649 159.269 67.2126 159.082C67.3446 158.997 67.4995 158.932 67.6699 158.895C68.0176 158.804 68.3676 158.738 68.7154 158.693C69.1108 158.704 69.4894 158.715 69.8603 158.736C70.1626 158.793 70.4543 158.873 70.7338 158.957C71.0248 159.075 71.3265 159.17 71.6426 159.238C71.8017 159.262 71.9461 159.219 72.0841 159.109C72.1388 159.015 72.2135 158.953 72.3044 158.927C72.4156 158.803 72.4924 158.673 72.5263 158.538C72.9985 158.24 73.3671 157.833 73.6405 157.316C73.7525 156.619 73.4666 156.242 72.7819 156.178C72.0842 156.111 71.3645 156.079 70.6235 156.092C70.2663 156.083 69.8871 156.109 69.4942 156.171C69.1352 156.276 68.7708 156.369 68.4002 156.441C67.7047 156.577 67.0859 156.939 66.5444 157.536C66.4082 157.71 66.285 157.886 66.174 158.058C66.0606 158.204 65.9448 158.325 65.8182 158.421C65.682 158.595 65.571 158.766 65.4806 158.931C65.3766 159.132 65.2756 159.319 65.16 159.487C64.9472 159.837 64.8239 160.192 64.7863 160.555C64.6982 160.924 64.6468 161.276 64.632 161.613C64.6976 162.395 64.8877 163.103 65.2029 163.744C65.5047 164.467 65.9002 165.105 66.381 165.658C66.885 166.278 67.4057 166.849 67.9476 167.376C68.5193 167.904 69.1215 168.396 69.7457 168.851C70.3287 169.319 70.9536 169.737 71.6157 170.1C72.2442 170.466 72.934 170.674 73.6868 170.74C74.0892 170.78 74.484 170.828 74.8657 170.874C75.2497 170.898 75.6282 170.863 76.0102 170.777C76.7214 170.763 77.4012 170.552 78.0657 170.134C78.7279 169.514 79.3463 168.834 79.9239 168.081C79.9556 167.968 79.9995 167.849 80.0426 167.722C80.1332 167.604 80.2183 167.473 80.2973 167.322C80.4877 166.914 80.6979 166.492 80.9242 166.06C81.0711 165.686 81.2081 165.296 81.348 164.893C81.5424 164.527 81.6465 164.149 81.6725 163.752C81.6376 163.429 81.5379 163.137 81.3694 162.881C81.2275 162.546 81.0206 162.243 80.7649 161.961C80.5522 161.731 80.2973 161.682 79.9811 161.792ZM86.2251 146.403C85.9112 146.313 85.6452 146.146 85.4309 145.899C85.2942 145.755 85.1271 145.647 84.9287 145.568C84.7625 145.515 84.5932 145.429 84.4245 145.305C84.1012 145.16 83.7954 144.977 83.5154 144.752C83.3469 144.674 83.1609 144.636 82.9605 144.625C82.8013 144.602 82.6604 144.547 82.5415 144.456C82.2503 144.292 81.9362 144.155 81.5993 144.046C81.2288 143.94 80.8545 143.839 80.4725 143.747C80.3362 143.696 80.1884 143.659 80.0339 143.639C79.8771 143.641 79.728 143.633 79.578 143.617C79.2641 143.527 78.9382 143.49 78.5994 143.495C78.2425 143.532 77.8964 143.64 77.5736 143.814C77.4264 143.917 77.2892 144.036 77.1666 144.174C76.9965 144.304 76.8479 144.437 76.7115 144.564C76.6095 144.696 76.5152 144.819 76.4246 144.938C76.2886 145.158 76.1525 145.378 76.0034 145.595C75.9511 145.715 75.8742 145.798 75.7857 145.849C75.3479 146.152 75.1641 146.495 75.2268 146.888C75.0681 147.004 74.9808 147.156 74.9563 147.345C74.8995 147.507 74.8352 147.679 74.754 147.852C74.6772 148.16 74.6247 148.457 74.6006 148.739C74.5353 149.08 74.4975 149.397 74.5002 149.694C74.5006 150.012 74.5491 150.3 74.6541 150.557C74.7115 150.76 74.7833 150.936 74.8703 151.093C74.9571 151.204 75.0119 151.334 75.0209 151.474C75.0878 151.777 75.221 152.019 75.4259 152.212C75.6718 152.525 75.9329 152.819 76.1993 153.078C76.3701 153.359 76.5394 153.624 76.7192 153.866C77.7718 154.948 78.9522 155.857 80.252 156.594C80.5548 156.791 80.8699 156.982 81.1933 157.173C81.5074 157.31 81.8419 157.393 82.2053 157.423C82.9015 157.699 83.6371 157.898 84.4085 158.027C85.0499 158.171 85.708 158.089 86.3959 157.785C86.7868 157.613 87.1837 157.415 87.5745 157.197C87.7425 157.135 87.9081 157.048 88.0629 156.936C88.2215 156.82 88.3786 156.686 88.537 156.523C88.6068 156.364 88.7079 156.224 88.8398 156.093C89.0078 155.853 89.1912 155.594 89.3951 155.329C89.7215 154.88 89.9934 154.392 90.2239 153.871C90.4708 153.433 90.6152 152.987 90.644 152.531C90.7458 152.127 90.6955 151.775 90.4948 151.493C90.6962 151.156 90.7186 150.811 90.565 150.443C90.4322 149.891 90.1627 149.42 89.7575 149.038C89.3903 148.609 88.9873 148.205 88.5614 147.829C88.1471 147.485 87.6918 147.201 87.2 146.979C86.8605 146.798 86.5371 146.607 86.2251 146.403ZM86.7037 150.425C86.9388 150.713 87.1571 151.002 87.3602 151.31C87.5929 151.573 87.8202 151.823 88.0345 152.071C88.1917 152.387 88.3169 152.723 88.4176 153.07C88.461 153.215 88.4845 153.374 88.4867 153.53C88.5208 153.667 88.5306 153.815 88.5197 153.968C88.1031 154.63 87.5517 155.032 86.8655 155.176C86.2476 155.369 85.6557 155.389 85.0938 155.233C84.4756 155.154 83.877 155.014 83.2905 154.822C82.7192 154.612 82.1814 154.352 81.6716 154.03C80.5702 153.372 79.6012 152.545 78.76 151.545C78.3452 151.062 77.9418 150.565 77.5498 150.054C77.3678 149.833 77.2169 149.584 77.0981 149.315C77.02 149.072 76.9304 148.843 76.8316 148.606C76.6992 148.372 76.6759 148.082 76.7618 147.735C76.8047 147.561 76.843 147.384 76.8814 147.206C76.9489 147.069 76.982 146.926 76.9837 146.765C77.0281 146.383 77.2339 146.182 77.6085 146.152C77.9564 146.154 78.2908 146.191 78.6161 146.267C79.3824 146.476 80.125 146.705 80.8533 146.96C81.593 147.202 82.2847 147.52 82.924 147.91C83.5657 148.326 84.2134 148.716 84.8801 149.083C85.559 149.445 86.1656 149.894 86.7037 150.425ZM93.6903 132.623C92.3451 131.809 91.06 130.914 89.8349 129.937C89.4518 129.34 88.9375 129.239 88.2883 129.638C88.0432 129.962 87.7882 130.269 87.5278 130.565C87.3351 130.769 87.1592 130.972 86.9871 131.17C86.7181 131.822 86.8779 132.21 87.4718 132.346C87.7837 132.504 88.0697 132.703 88.329 132.933C88.6114 133.183 88.915 133.388 89.2407 133.558C89.8938 133.96 90.5393 134.371 91.1725 134.788L92.1472 135.495C92.459 135.653 92.7671 135.816 93.0583 135.98C93.3705 136.231 93.6621 136.488 93.9331 136.752C94.2245 136.962 94.5113 137.169 94.7935 137.372C95.1057 137.623 95.4018 137.884 95.682 138.155C95.9506 138.394 96.2061 138.629 96.4563 138.852C97.0162 139.301 97.4664 139.844 97.8023 140.479C98.1269 141.174 97.9964 141.856 97.4116 142.533C97.0211 142.798 96.6105 143.031 96.1968 143.23C95.8946 143.398 95.5982 143.493 95.3031 143.512C94.5848 143.451 93.9544 143.199 93.4167 142.761C92.1622 141.875 90.8955 140.995 89.6296 140.124C88.9879 139.708 88.3683 139.256 87.7623 138.769C87.136 138.381 86.5264 137.946 85.9456 137.456C85.809 137.312 85.6685 137.172 85.5074 137.039C85.3619 136.98 85.214 136.896 85.0683 136.791C84.7999 136.599 84.5185 136.404 84.2249 136.215C83.529 136.033 82.9376 136.372 82.4553 137.234C82.1744 137.582 81.983 137.935 81.8811 138.292C81.9252 138.623 82.0775 138.842 82.3349 138.963C82.9407 139.403 83.5465 139.843 84.1515 140.275C85.4176 141.194 86.6981 142.085 87.9847 142.951C88.5014 143.302 89.0136 143.649 89.5165 143.988L90.423 144.647C90.5801 144.739 90.7258 144.844 90.8601 144.963C90.9053 144.993 90.9544 145.018 91.0118 145.043C91.0418 145.091 91.0878 145.129 91.1293 145.163C91.2299 145.285 91.3556 145.359 91.4995 145.401C91.8138 145.584 92.1234 145.763 92.4238 145.935C92.9294 146.346 93.5341 146.507 94.2435 146.429C95.009 146.227 95.7418 145.859 96.454 145.318C96.8355 145.092 97.1724 144.798 97.4647 144.437C97.7348 144.064 98.0471 143.734 98.3902 143.461C98.4919 143.057 98.7115 142.69 99.049 142.357C99.2397 142.221 99.3385 142.055 99.3538 141.859C99.5764 141.656 99.7176 141.401 99.7739 141.099C99.9283 140.894 100.055 140.666 100.145 140.408C100.179 140.18 100.163 139.965 100.096 139.755C100.052 139.518 100.02 139.266 99.9945 138.997C99.9978 138.45 99.8988 137.942 99.6936 137.477C99.4267 137.078 99.0965 136.726 98.7161 136.426C98.3559 136.027 97.9577 135.674 97.5206 135.358C97.1309 135.05 96.7396 134.725 96.359 134.379C95.488 133.78 94.5887 133.197 93.6903 132.623ZM99.6279 118.343C99.3256 118.286 99.0097 118.264 98.6848 118.281C98.5282 118.33 98.367 118.374 98.2142 118.418C98.0646 118.495 97.9188 118.568 97.76 118.638C97.3803 118.749 97.0255 118.943 96.6984 119.206C96.5644 119.358 96.4242 119.49 96.2762 119.584C96.1266 119.661 95.9946 119.746 95.8718 119.837C95.6997 120.036 95.5245 120.2 95.33 120.341C95.1623 120.496 95.0023 120.642 94.8591 120.787C94.5784 121.182 94.2991 121.547 94.0136 121.891C93.6663 122.254 93.3449 122.622 93.0518 122.976C92.8048 123.367 92.5645 123.741 92.3227 124.099L92.2905 124.072C92.2117 124.27 92.1037 124.428 91.9719 124.559C91.8791 124.699 91.8032 124.838 91.7357 124.975C91.6112 125.228 91.554 125.475 91.5679 125.711C91.7783 126.142 92.1113 126.433 92.5601 126.604C93.1775 127.077 93.7941 127.542 94.4116 128.015C95.0396 128.466 95.6684 128.926 96.2965 129.377C96.8887 129.853 97.4694 130.342 98.0296 130.837C99.2638 131.822 100.526 132.745 101.817 133.614C102.139 133.873 102.463 134.119 102.777 134.34C103.111 134.517 103.415 134.722 103.688 134.964C103.857 135.267 104.119 135.391 104.478 135.333C104.701 135.177 104.91 134.971 105.103 134.72C105.297 134.401 105.506 134.093 105.728 133.797C105.964 133.559 106.112 133.287 106.168 132.985C106.138 132.526 105.915 132.233 105.512 132.1C104.506 131.506 103.544 130.848 102.635 130.117C102.164 129.889 101.758 129.583 101.407 129.191C101.258 128.789 101.372 128.38 101.744 127.96C102.181 127.386 102.573 126.773 102.906 126.128C103.072 125.816 103.266 125.497 103.481 125.172C103.64 124.877 103.78 124.568 103.902 124.243C103.995 124.056 104.077 123.853 104.155 123.638C104.179 123.45 104.208 123.256 104.256 123.057C104.347 122.891 104.374 122.728 104.342 122.57C104.298 122.425 104.249 122.26 104.194 122.083C104.198 121.9 104.179 121.707 104.143 121.498C104.074 121.356 104.006 121.214 103.924 121.069C103.835 120.755 103.692 120.458 103.505 120.179C102.978 119.68 102.388 119.268 101.741 118.933C101.078 118.608 100.376 118.406 99.6279 118.343ZM101.101 123.012C101.55 123.501 101.777 124.107 101.792 124.848C101.77 125.24 101.663 125.631 101.471 126.022C101.428 126.196 101.368 126.362 101.302 126.517C101.179 126.702 101.082 126.885 101.014 127.061C100.959 127.248 100.855 127.402 100.71 127.53C100.588 127.715 100.459 127.871 100.323 128.006C100.041 128.168 99.8256 128.128 99.684 127.887C99.0916 127.365 98.4664 126.854 97.8176 126.362C97.2026 125.914 96.5791 125.467 95.9503 125.007C95.6359 124.778 95.3223 124.556 95.0078 124.327C94.771 124.2 94.5875 124.009 94.4527 123.75C94.3972 123.433 94.5001 123.131 94.7567 122.84C95.0132 122.503 95.301 122.184 95.6165 121.888C96.2907 121.393 96.9833 121.139 97.6899 121.12C99.1457 121.266 100.283 121.9 101.101 123.012ZM114.734 109.064C114.42 108.974 114.154 108.807 113.94 108.56C113.803 108.416 113.636 108.308 113.438 108.229C113.271 108.176 113.102 108.09 112.933 107.965C112.61 107.821 112.304 107.637 112.024 107.413C111.856 107.335 111.67 107.297 111.469 107.286C111.31 107.262 111.169 107.208 111.05 107.117C110.759 106.953 110.445 106.816 110.108 106.707C109.738 106.601 109.363 106.5 108.981 106.408C108.845 106.357 108.697 106.32 108.543 106.3C108.386 106.302 108.237 106.294 108.087 106.278C107.773 106.188 107.447 106.15 107.108 106.156C106.751 106.193 106.405 106.301 106.083 106.475C105.935 106.578 105.798 106.696 105.676 106.835C105.505 106.965 105.357 107.097 105.22 107.224C105.118 107.357 105.024 107.48 104.934 107.598C104.797 107.819 104.661 108.039 104.512 108.256C104.46 108.376 104.383 108.459 104.295 108.509C103.857 108.813 103.673 109.156 103.736 109.549C103.577 109.665 103.49 109.817 103.465 110.006C103.408 110.168 103.344 110.34 103.263 110.512C103.186 110.82 103.134 111.118 103.109 111.4C103.044 111.741 103.006 112.058 103.009 112.355C103.01 112.673 103.058 112.961 103.163 113.218C103.22 113.421 103.292 113.596 103.379 113.754C103.466 113.865 103.521 113.995 103.53 114.134C103.597 114.438 103.73 114.68 103.935 114.873C104.181 115.185 104.442 115.479 104.708 115.739C104.879 116.02 105.048 116.284 105.228 116.527C106.281 117.609 107.461 118.518 108.761 119.255C109.064 119.452 109.379 119.643 109.702 119.834C110.016 119.97 110.351 120.054 110.714 120.084C111.41 120.36 112.146 120.559 112.917 120.687C113.559 120.832 114.217 120.75 114.905 120.445C115.296 120.274 115.693 120.076 116.083 119.858C116.251 119.796 116.417 119.708 116.572 119.597C116.73 119.48 116.887 119.347 117.046 119.184C117.112 119.03 117.217 118.884 117.349 118.754C117.517 118.513 117.7 118.255 117.904 117.99C118.23 117.54 118.502 117.053 118.733 116.532C118.98 116.093 119.124 115.648 119.153 115.191C119.255 114.788 119.204 114.436 119.004 114.154C119.205 113.817 119.228 113.471 119.074 113.104C118.941 112.552 118.672 112.081 118.266 111.698C117.899 111.27 117.496 110.866 117.07 110.49C116.656 110.146 116.201 109.862 115.709 109.64C115.373 109.454 115.046 109.268 114.734 109.064ZM115.216 113.081C115.452 113.369 115.67 113.659 115.873 113.966C116.106 114.229 116.333 114.48 116.547 114.727C116.704 115.043 116.83 115.38 116.93 115.726C116.974 115.871 116.997 116.03 116.999 116.186C117.034 116.323 117.043 116.471 117.032 116.624C116.616 117.286 116.064 117.689 115.378 117.832C114.76 118.025 114.168 118.045 113.607 117.889C112.988 117.81 112.39 117.67 111.803 117.478C111.232 117.268 110.694 117.008 110.184 116.686C109.083 116.028 108.114 115.201 107.273 114.202C106.858 113.718 106.455 113.221 106.063 112.71C105.88 112.489 105.73 112.24 105.611 111.971C105.533 111.728 105.443 111.499 105.344 111.262C105.212 111.029 105.189 110.738 105.274 110.391C105.317 110.217 105.356 110.04 105.394 109.863C105.462 109.725 105.495 109.582 105.496 109.421C105.541 109.039 105.747 108.838 106.121 108.808C106.469 108.81 106.803 108.847 107.129 108.923C107.895 109.132 108.638 109.361 109.366 109.616C110.106 109.858 110.797 110.176 111.437 110.567C112.078 110.982 112.726 111.372 113.393 111.739C114.073 112.109 114.679 112.558 115.216 113.081ZM129.419 100.403C128.491 99.8656 127.567 99.2933 126.661 98.6812C126.31 98.4759 125.968 98.2615 125.633 98.0379C125.296 97.8823 124.984 97.6862 124.71 97.4358C124.419 97.2251 124.134 96.9969 123.852 96.7472C123.583 96.509 123.318 96.2578 123.061 96.0058C121.793 95.1557 120.566 94.255 119.374 93.3046C119.05 93.0672 118.753 92.7977 118.482 92.4877C118.268 92.2402 118.015 92.0387 117.728 91.8701C117.444 91.7817 117.172 91.8661 116.9 92.1285C116.61 92.4223 116.336 92.7146 116.093 93.0168C116.001 93.25 115.876 93.4565 115.724 93.6401C115.611 93.7862 115.516 93.9476 115.434 94.1204C115.333 94.346 115.339 94.5447 115.453 94.7166C115.765 95.061 116.131 95.3411 116.548 95.5784C117.154 96.0654 117.771 96.5303 118.4 96.9898C119.039 97.4271 119.678 97.856 120.315 98.2765C120.648 98.4749 120.95 98.7016 121.207 98.9536C121.285 99.1499 121.214 99.2073 120.986 99.135C120.741 99.0939 120.49 99.0407 120.246 98.9783C119.876 98.919 119.5 98.8476 119.116 98.7769C118.341 98.6531 117.572 98.5033 116.81 98.3443C116.035 98.1739 115.248 98.0173 114.45 97.8744C114.077 97.8366 113.715 97.7766 113.352 97.6997C113.068 97.658 112.779 97.6973 112.477 97.8184C111.982 98.237 111.539 98.706 111.142 99.2216L111.156 99.233C111.147 99.272 111.135 99.2774 111.123 99.2445C110.951 99.4427 110.805 99.6469 110.685 99.8572C110.581 100.058 110.505 100.243 110.448 100.405C110.336 100.784 110.393 101.071 110.616 101.28C111.199 101.794 111.82 102.255 112.482 102.664C113.144 103.121 113.797 103.561 114.452 103.988C114.735 104.238 115.016 104.479 115.31 104.715C115.611 104.934 115.899 105.157 116.165 105.37C116.771 105.857 117.392 106.317 118.031 106.755C118.649 107.228 119.242 107.712 119.816 108.219C120.378 108.74 120.989 109.192 121.654 109.581C121.98 109.797 122.297 110.013 122.612 110.243C122.835 110.405 123.094 110.411 123.385 110.257C123.745 109.991 124.04 109.654 124.264 109.243C124.419 109.038 124.568 108.821 124.704 108.601C125.064 108.11 125.109 107.682 124.842 107.329C124.685 107.237 124.515 107.151 124.338 107.066C124.204 106.993 124.072 106.899 123.95 106.783C123.639 106.625 123.334 106.45 123.04 106.26C122.896 106.134 122.752 105.999 122.619 105.85C122.485 105.777 122.347 105.709 122.197 105.647C121.894 105.45 121.614 105.225 121.353 104.97C120.735 104.496 120.13 104.018 119.535 103.517C119.235 103.252 118.926 102.996 118.609 102.741C118.297 102.537 117.996 102.31 117.718 102.064C117.536 101.89 117.578 101.793 117.835 101.774C118.217 101.819 118.6 101.881 118.98 101.948C119.742 102.069 120.493 102.212 121.239 102.381C122.017 102.577 122.8 102.746 123.594 102.885C123.996 102.971 124.388 103.071 124.758 103.177C125.093 103.307 125.45 103.402 125.816 103.465C126.412 103.665 127.027 103.804 127.671 103.88C128.052 103.832 128.396 103.661 128.698 103.353C128.857 103.237 128.995 103.088 129.118 102.903C129.21 102.763 129.325 102.634 129.47 102.506C129.727 102.169 129.911 101.787 130.028 101.365C130.055 100.892 129.847 100.572 129.419 100.403Z" fill="#1D1D1B"/>
</g>
<defs>
<clipPath id="clip0_515_3272">
<rect width="199.27" height="122.56" fill="white" transform="translate(0.116943 153.678) rotate(-50.3326)"/>
</clipPath>
</defs>
</svg>
