<svg width="656" height="481" viewBox="0 0 656 481" fill="none" xmlns="http://www.w3.org/2000/svg">
<rect x="7" y="163" width="495" height="318" rx="20" fill="#FED430"/>
<rect x="1.5" y="157.5" width="492" height="315" rx="18.5" stroke="black" stroke-width="3"/>
<path d="M191.36 278.3H177.4V282.78H191.36V278.3ZM177.4 288.54H191.36V283.9H177.4V288.54ZM195 309.54L197.84 305.62C197.84 305.62 201.04 308.26 202.88 310.02C202.76 310.46 202.32 310.66 201.76 310.66H165.68L165.36 309.54H181.64V303.74H171.56L171.24 302.62H181.64V297.66H175.76C173.16 300.78 170.04 302.94 166.56 304.42L166.16 304.1C168.76 301.26 171.28 296.82 172.8 291.9C172.56 291.94 172.36 291.94 172.16 291.94H171.28V274.74L177.72 277.18H190.96L193.6 274.26L199.08 278.38C198.84 278.7 198.36 279.1 197.52 279.26V290.02C197.48 290.34 194.4 291.34 192.44 291.34H191.36V289.66H177.4V290.06C177.4 290.34 176.68 290.82 175.64 291.26L180.16 293.02C179.96 293.54 179.4 293.82 178.48 293.74C177.92 294.74 177.28 295.66 176.64 296.54H181.64V290.54L189.24 291.14C189.2 291.74 188.92 292.14 187.8 292.3V296.54H192.52L195.32 292.7C195.32 292.7 198.48 295.3 200.32 297.02C200.2 297.46 199.76 297.66 199.16 297.66H187.8V302.62H192.64L195.36 298.86C195.36 298.86 198.48 301.38 200.28 303.1C200.16 303.54 199.72 303.74 199.12 303.74H187.8V309.54H195ZM238.04 278.42L243.04 283.1C242.72 283.46 242.32 283.58 241.48 283.62C240.16 284.9 237.96 286.54 236.12 287.58L236.84 288.18C236.72 288.62 236.28 288.82 235.68 288.82H226.92V295.38H234.72L237.52 291.7C237.52 291.7 240.72 294.18 242.6 295.86C242.48 296.3 242.04 296.5 241.48 296.5H226.92V305.38C226.92 309.22 225.88 311.9 219.24 312.38C219.16 310.42 218.84 308.94 218.04 308.06C217.28 307.22 216.32 306.54 213.68 306.1V305.62C213.68 305.62 219 305.94 220.08 305.94C220.68 305.94 220.92 305.62 220.92 305.18V296.5H205.96L205.64 295.38H220.92V288.82H211.68L211.36 287.7H228.84L231.68 284.1C231.68 284.1 233.72 285.62 235.52 287.1C235.6 285.66 235.64 283.86 235.64 282.42H211.96C212.44 285.58 211.52 287.86 209.92 288.86C208.36 289.86 205.76 289.14 205.08 287.02C204.56 285.02 205.72 283.54 207.36 282.78C208.64 282.14 210.44 280.5 210.4 278.78H210.84C211.24 279.66 211.52 280.5 211.72 281.3H223.76C223.24 281.14 222.68 280.9 222.16 280.5C222.2 278.26 221.24 275.94 219.68 274.62L219.88 274.42C230.4 273.82 229.48 280.22 225.88 281.3H235.2L238.04 278.42ZM261.72 283.7L261.4 282.58H275.32L278.12 278.62C278.12 278.62 281.32 281.3 283.12 283.06C283 283.5 282.56 283.7 282 283.7H261.72ZM266.4 274.62L266.72 274.42C278.68 275.66 273.92 284.9 269.16 281.26C269 278.9 267.8 276.3 266.4 274.62ZM252 295.66L252.56 295.42C259.8 300.7 254.36 306.14 252.68 302.9C252.96 301.18 253 297.94 252 295.66ZM251.76 283.1L252.28 282.82C259.76 287.3 254.72 292.98 252.84 289.82C253 288.18 252.88 285.18 251.76 283.1ZM251.64 281.54V292.18C253.2 292.06 254.88 291.94 256.64 291.78V281.54H251.64ZM261.08 292.46V307.02C261.08 310.14 260.48 311.78 255.84 312.18C255.8 310.82 255.64 309.7 255.24 309.06C254.8 308.42 254.2 307.94 252.76 307.66V307.1C252.76 307.1 255.32 307.3 255.96 307.3C256.52 307.3 256.64 307.06 256.64 306.58V293.94C255.12 294.38 253.44 294.86 251.64 295.38C251.56 301.3 250.88 307.7 245.32 312.34L244.84 312.02C247 307.62 247.28 302.06 247.32 296.5L247.12 296.54C246.84 297.02 246.4 297.38 245.92 297.46L244.76 292.42C245.44 292.42 246.32 292.42 247.32 292.38V278.62L251.2 280.02C251.32 278.34 251.4 275.98 251.44 274.34L258.12 275.58C257.96 276.22 257.44 276.54 256.52 276.62C255.56 277.7 254.08 279.26 252.92 280.42H256.28L258.24 278.18L262.4 281.42C262.2 281.66 261.72 281.94 261.08 282.1V291.38L263.24 291.14L263.28 291.7C262.6 291.94 261.84 292.22 261.08 292.46ZM281.56 300.22L281.72 305.82C282.76 306.38 282.96 306.9 282.96 307.82C282.96 309.62 281.36 310.7 278.12 310.7H276.68C273.64 310.7 273.28 309.66 273.28 306.74V289.62H269.12V296.58C269.12 301.78 268.44 308.34 260.4 312.38L260.08 312.02C263.8 307.62 264.12 301.9 264.12 296.58V286.5L269.88 288.5H272.84L275.2 285.82L279.56 289.42C279.32 289.7 278.92 289.94 278.16 290.06V305.34C278.16 305.82 278.2 305.98 278.48 305.98H278.72H279C279.2 305.98 279.36 305.9 279.56 305.5C279.92 304.82 280.6 302.42 281.16 300.22H281.56ZM314.64 286.9L314.44 286.66C314.68 285.22 314.96 283.18 315.08 281.54H311.64V286.38C311.64 287.46 311.68 287.46 312.64 287.46H316.24H317.48C317.8 287.46 318.36 287.46 318.88 287.3H319.24L319.44 287.34C321.08 288.02 321.36 288.42 321.36 289.22C321.36 291.46 320.2 292.38 315.76 292.38H313.48C314.52 293.26 315.96 294.54 316.96 295.54C316.88 295.98 316.44 296.18 315.84 296.18H306.96V309.06H313.64L316.44 305.18C316.44 305.18 319.6 307.78 321.44 309.54C321.32 309.98 320.88 310.18 320.28 310.18H287.12L286.8 309.06H300.96V296.18H291.4L291.08 295.06H309.68L311.6 292.38C306.44 292.38 305.96 291.62 305.96 286.42V281.54H298.2L304.96 284.78C304.8 285.34 304.32 285.74 302.92 285.74C299.84 290.18 294.96 293.42 286.96 294.3L286.76 293.94C293.52 290.5 296.6 285.98 297.68 281.54H292.12C292.72 284.78 291.68 287.1 290.04 287.98C288.44 288.9 286.4 288.26 285.8 286.42C285.28 284.66 286.36 283.34 287.88 282.66C289.12 281.86 290.48 279.82 290.16 277.58L290.64 277.54C291.16 278.54 291.56 279.5 291.84 280.42H302.4C302 280.26 301.56 279.98 301.16 279.66C301.24 277.66 300.52 275.66 299.64 274.34L299.84 274.18C309 274.26 308.52 279.1 305.56 280.42H314.72L317.72 277.38L322.92 282.26C322.6 282.66 322.2 282.78 321.32 282.82C319.68 284.18 316.88 285.94 314.64 286.9ZM176.44 340.9H180.88V336.42H176.44V340.9ZM180.88 330.82H176.44V335.3H180.88V330.82ZM191.28 330.82H186.84V335.3H191.28V330.82ZM186.84 340.9H191.28V336.42H186.84V340.9ZM191.28 342.02H187.56C191 346.18 197.28 348.94 203 350.1L202.92 350.54C200.72 351.14 199.04 353.06 198.36 355.9C192.64 353.18 189.12 348.78 186.84 342.5V355.62C186.84 356.1 184.36 357.26 182.08 357.26H180.88V348.14C176.84 351.58 171.48 354.26 165.2 356.14L164.96 355.7C170.96 352.38 175.8 347.02 178.44 342.02H176.44V342.78C176.44 343.34 173.8 344.62 171.36 344.62H170.52V327.34L176.8 329.7H180.88V326.1H166.24L165.92 324.98H180.88V319.3L188.32 320.02C188.24 320.58 187.96 321.02 186.84 321.18V324.98H193.32L196.48 320.82C196.48 320.82 200.04 323.58 202.16 325.46C202.04 325.9 201.6 326.1 201 326.1H186.84V329.7H190.88L193.52 326.82L198.92 330.9C198.68 331.22 198.2 331.58 197.4 331.74V342.22C197.36 342.58 194.44 343.86 192.36 343.86H191.28V342.02ZM217.92 339.74H230.16V332.34H217.92V339.74ZM230.16 340.86H227.2V350.74C227.2 354.5 226.24 356.9 219.92 357.3C219.8 355.46 219.64 354.14 219 353.3C218.44 352.5 217.68 351.86 215.52 351.46V351.02C215.52 351.02 219.48 351.26 220.32 351.26C220.92 351.26 221.08 350.98 221.08 350.58V340.86H217.92V341.54C217.92 342.02 215.84 343.06 213.64 343.34L220.04 347.1C219.84 347.46 219.44 347.74 218.48 347.58C215.44 350.58 210.6 353.74 205.16 355.46L204.88 355.1C208.56 351.94 211.96 346.86 213.48 343.34C213.24 343.38 212.96 343.38 212.72 343.38H211.88V328.82L218.24 331.22H229.76L232.4 328.34L237.84 332.42C237.6 332.74 237.12 333.14 236.28 333.3V341.54C236.24 341.86 233.28 343.02 231.24 343.02H230.16V340.86ZM228.8 344.62L229.12 344.38C245.16 346.18 241.84 357.58 235.88 354.38C234.4 350.94 231.36 347.18 228.8 344.62ZM234.24 325.66L237.32 321.66C237.32 321.66 240.84 324.34 242.92 326.14C242.8 326.58 242.36 326.78 241.76 326.78H205.68L205.36 325.66H222.72L222.64 325.62C221.96 323.26 220.16 320.78 218.48 319.3L218.72 319.1C228.68 318.14 229.2 323.9 226.48 325.66H234.24ZM270.84 328.58L277.76 330.14C277.64 330.66 277.16 331.02 276.24 331.06C275.92 332.02 275.56 332.94 275.12 333.78C284.68 336.1 280.64 343.94 276.16 340.78C275.84 339.06 275.04 337.26 274.12 335.7C272.72 337.94 271 339.66 268.92 340.94C272.32 345.3 277.56 348.26 282.92 349.54L282.84 350.02C280.72 350.54 279.04 352.38 278.4 355.14C272.24 351.98 268.76 346.9 266.68 339.02V355.3C266.68 355.9 264.12 357.34 261.92 357.34H260.8V346.46C256.84 350.1 251.36 353.38 245.28 355.26L245 354.78C251.92 351.02 258.12 343.58 260.8 335.98V327.3H245.88L245.56 326.18H260.8V319.54L268.16 320.26C268.08 320.82 267.8 321.22 266.68 321.38V326.18H273.68L276.84 322.3C276.84 322.3 280.36 324.9 282.52 326.66C282.4 327.1 281.92 327.3 281.32 327.3H266.68V337.22C267.12 338.22 267.68 339.18 268.28 340.06C269.76 336.94 270.68 332.82 270.84 328.58ZM251.88 328.62L258.6 330.5C258.44 331.02 257.92 331.38 257.04 331.38C256.64 332.38 256.24 333.3 255.8 334.18C263 336.7 258.32 342.7 254.72 339.42C254.72 338.5 254.56 337.54 254.32 336.62C252.36 339.54 249.96 341.66 247.12 343.18L246.68 342.86C249.16 339.42 251.2 334.22 251.88 328.62ZM302 342.46H306.68V332.1H302V342.46ZM308.6 328.5L313.32 332.06C313.08 332.34 312.6 332.66 311.88 332.82V345.22C311.84 345.54 309.36 346.62 307.56 346.62H306.68V343.58H302V345.9C302 346.38 299.8 347.54 297.68 347.54H296.92V328.9L302.16 330.98H306.28L308.6 328.5ZM293.32 351.46H314.68V324.42H293.32V351.46ZM316.92 320.34L322.04 324.46C321.76 324.82 321.28 325.14 320.48 325.34V354.7C320.4 355.14 317.72 356.42 315.6 356.42H314.68V352.58H293.32V354.58C293.32 355.3 291 356.66 288.56 356.66H287.64V320.9L293.76 323.3H314.28L316.92 320.34ZM333.76 330.62V332.58C341.28 336.62 337.48 342.66 334.68 339.74C334.88 337.86 334.4 335.66 333.76 333.9V355.54C333.76 356.06 331.6 357.3 329.72 357.3H328.76V342.94C327.68 344.66 326.48 346.26 325.08 347.74L324.6 347.34C326.64 342.7 327.72 336.46 328.28 330.62H325.32L325 329.5H328.76V319.22L335.24 319.86C335.16 320.42 334.84 320.82 333.76 320.98V328.78L335.16 326.5C335.16 326.5 337.28 328.62 338.4 329.98C338.32 330.42 337.92 330.62 337.4 330.62H333.76ZM344.4 332.14L344.52 332.1C346.16 333.06 347.12 334.1 347.56 335.02C347.44 333.06 347.36 330.94 347.32 328.74C346.52 329.78 345.52 330.98 344.4 332.14ZM341.16 335.22C342.16 335.14 343.36 335.02 344.56 334.9C344.48 334.02 344.28 333.18 344.08 332.46C343.16 333.46 342.16 334.42 341.16 335.22ZM358.76 333.94C358.6 333.14 358.36 332.42 358.08 331.78C357.32 332.66 356.48 333.46 355.68 334.18C356.64 334.1 357.68 334.02 358.76 333.94ZM362.52 345.58L361.88 352.02C363.28 353.86 363.52 354.82 363.04 355.62C361.72 357.82 358.96 356.86 356.76 355.74C355.36 354.98 354.12 354.02 353.12 352.9C350.16 354.86 346.88 356.14 343.36 356.9L343.12 356.38C346.04 354.98 348.84 352.98 351.24 350.34C349.92 348.06 349.04 345.3 348.44 342.14H345.96C345.84 343.26 345.68 344.38 345.4 345.5C352.96 346.9 349.04 353.34 345.36 350.5C345.32 349.58 345.08 348.62 344.72 347.74C343.32 351.26 340.56 354.58 334.88 357.1L334.44 356.58C339.88 351.98 340.44 346.86 340.56 342.14H337.48L337.16 341.02H348.24C348.04 339.86 347.88 338.62 347.76 337.38C347.28 338.66 345.76 339.14 344.6 337.78C344.68 337.3 344.68 336.78 344.68 336.26C343.48 337.1 341.92 338.14 340.36 339.14C340.16 339.42 339.92 339.62 339.68 339.74L337.72 335.62C337.72 335.62 338.44 335.46 338.76 335.22C340 334.1 341.44 331.78 342.56 329.5C341.92 329.98 341.2 330.5 340.48 331.06C340.2 331.58 339.88 331.94 339.48 332.14L337.32 327.5C337.32 327.5 338.08 327.3 338.4 327.14C339.64 325.94 341.16 322.02 341.56 320.06L346.96 322.38C346.8 322.74 346.4 323.06 345.64 322.98C344.28 324.54 342.2 326.38 340.36 327.66C341.28 327.62 342.4 327.54 343.48 327.46C343.84 326.66 344.08 325.94 344.28 325.34L347.28 327.06C347.24 324.7 347.24 322.26 347.24 319.7L353.6 320.38C353.56 320.9 353.2 321.38 352.16 321.58C352.12 323.58 352.08 325.5 352.08 327.34C352.24 327.26 352.36 327.22 352.48 327.14C353.52 325.9 354.68 321.94 354.92 319.94L360.6 322.3C360.44 322.66 360.04 322.94 359.32 322.94C358.08 324.42 356.32 326.14 354.72 327.42C355.36 327.38 356.08 327.34 356.8 327.26C357.08 326.42 357.32 325.62 357.44 324.98L362.48 327.54C362.32 327.9 361.84 328.18 361.08 328.1C360.32 329.18 359.32 330.42 358.24 331.62L358.52 331.5C365.44 334.7 361.56 339.9 359.04 337.18C359.12 336.58 359.08 335.98 359.04 335.34C358.24 335.86 357.28 336.5 356.28 337.1C361.08 338.58 357.56 342.42 355.2 340.1C355.32 339.46 355.24 338.78 355.08 338.18C354.92 338.38 354.72 338.58 354.48 338.66L352.44 334.46C352.44 334.46 353.16 334.26 353.44 334.06C354.2 333.22 355.08 331.62 355.8 329.86L354.72 330.7C354.4 331.42 353.96 331.9 353.52 332.1L352.08 328.86C352.08 333.54 352.28 337.62 352.88 341.02H357.84L359.72 338.7C359.72 338.7 361.84 340.3 363.16 341.5C363.08 341.94 362.68 342.14 362.12 342.14H353.12C353.44 343.66 353.84 345.02 354.4 346.22C355.2 344.94 355.92 343.58 356.52 342.14L361.84 345.22C361.56 345.66 361.12 345.82 360.12 345.62C359.16 347.14 358.08 348.5 356.92 349.74C357.44 350.18 358 350.58 358.64 350.94C359.28 351.3 359.52 351.26 359.88 350.62C360.48 349.54 361.48 347.26 362.12 345.54L362.52 345.58ZM385.36 323.74H382.32V327.78H385.36V323.74ZM393.2 328.9H390.36V334.9H393.2V328.9ZM382.32 328.9V334.9H385.36V328.9H382.32ZM374.84 328.9V334.9H377.4V328.9H374.84ZM377.4 323.74H366.12L365.8 322.62H394.12L397 319.26C397 319.26 400.24 321.5 402.24 323.1C402.12 323.54 401.68 323.74 401.08 323.74H390.36V327.78H392.8L395.32 325.02L400.56 328.94C400.32 329.26 399.84 329.66 399 329.82V336.34C398.96 336.66 396.32 337.66 394.4 337.74C395.4 338.5 396.64 339.46 397.56 340.26C397.48 340.7 397.04 340.9 396.44 340.9H370.28L369.96 339.78H390.08L392.72 336.46L393.2 336.82V336.02H374.84V337.42C374.84 337.94 372.28 339.14 369.96 339.14H369.16V325.5L375.28 327.78H377.4V323.74ZM365.12 355.98L364.84 355.54C368.44 353.14 371.6 349.1 373 346.02L379.28 349.66C379.08 350.02 378.68 350.26 377.76 350.14C374.88 352.74 370.2 354.98 365.12 355.98ZM388.64 347.38L388.92 347.1C404.04 347.3 401.72 358.06 395.92 355.66C394.32 352.74 391.12 349.42 388.64 347.38ZM394.12 344.7L397.04 341.1C397.04 341.1 400.32 343.5 402.36 345.18C402.24 345.62 401.76 345.82 401.2 345.82H386.84V356.22C386.84 356.42 385.12 357.26 382.12 357.26H381.04V345.82H366.12L365.8 344.7H394.12Z" fill="black"/>
<circle cx="121.5" cy="314" r="34.5" fill="white"/>
<path d="M129.863 329.22H133.063V318.34H129.863V329.22ZM121.543 318.34V329.22H124.463V318.34H121.543ZM112.143 306.78V313.86C113.503 313.66 114.943 313.42 116.343 313.18V306.78H112.143ZM124.463 306.7H121.543V317.22H124.463V306.7ZM133.063 306.7H129.863V317.22H133.063V306.7ZM135.143 302.82L140.063 306.7C139.783 307.06 139.263 307.38 138.463 307.58V332.3C138.423 332.7 135.863 333.82 133.943 333.82H133.063V330.34H121.543V332.1C121.543 332.7 119.463 333.94 117.183 333.94H116.343V313.86C115.223 314.62 113.863 315.5 112.143 316.54V328.26C112.143 331.9 111.423 333.82 105.983 334.3C105.903 332.58 105.743 331.34 105.263 330.54C104.823 329.74 104.183 329.18 102.583 328.86V328.3C102.583 328.3 105.423 328.5 106.103 328.5C106.663 328.5 106.823 328.34 106.823 327.94V319.62L105.023 320.58C104.823 321.1 104.343 321.54 103.823 321.62L101.783 315.26C102.863 315.14 104.663 314.94 106.823 314.62V306.78H102.423L102.103 305.66H106.823V296.34L113.583 296.98C113.543 297.58 113.143 297.98 112.143 298.1V305.02L113.943 302.06C113.943 302.06 115.143 303.26 116.343 304.54V303.38L121.823 305.58H124.463V296.9L131.143 297.54C131.103 298.06 130.823 298.42 129.863 298.58V305.58H132.663L135.143 302.82Z" fill="black"/>
<path d="M147.66 200.7H150.16V212.8H147.66V200.7ZM144.3 204.24V205.32H153.76V204.24H144.3ZM144.3 201.46V202.52H153.76V201.46H144.3ZM141.94 199.62H156.22V207.16H141.94V199.62ZM140.06 208.2H157.98V210.26H140.06V208.2ZM143.36 196.24V197.4H146.18V196.24H143.36ZM141.22 194.8H148.42V198.82H141.22V194.8ZM151.74 196.24V197.4H154.62V196.24H151.74ZM149.62 194.8H156.86V198.82H149.62V194.8ZM161.88 201.98H180.14V203.72H161.88V201.98ZM163.52 206.86H178.48V208.6H163.52V206.86ZM162.26 209.32H179.76V211.12H162.26V209.32ZM164.28 199.62H178.06V206.16H164.08V204.48H175.58V201.3H164.28V199.62ZM169.7 198.68H172.16V212.8H169.7V198.68ZM164.48 195.1H170.76V196.9H164.48V195.1ZM172.7 195.1H180.26V196.9H172.7V195.1ZM164.6 193.84L166.7 194.48C165.86 196.18 164.48 197.9 163.18 198.98C162.86 198.56 162.06 197.72 161.6 197.32C162.8 196.48 163.94 195.16 164.6 193.84ZM172.8 193.84L174.98 194.42C174.28 196.1 173.06 197.8 171.86 198.84C171.46 198.46 170.58 197.74 170.08 197.4C171.24 196.54 172.24 195.2 172.8 193.84ZM165.74 197.6L167.26 196.44C167.88 197 168.68 197.82 169.04 198.36L167.44 199.64C167.1 199.08 166.34 198.2 165.74 197.6ZM174.46 197.5L176.12 196.4C176.74 196.96 177.54 197.76 177.92 198.3L176.18 199.54C175.86 198.96 175.1 198.1 174.46 197.5ZM194.64 201.1H197.06V212.8H194.64V201.1ZM189.38 203.56H202.26V205.74H189.38V203.56ZM192.98 197V199.68H198.86V197H192.98ZM190.7 194.9H201.26V201.8H190.7V194.9ZM188.08 194.06L190.32 194.78C188.98 198.18 186.84 201.76 184.62 204.02C184.42 203.46 183.76 202.14 183.36 201.56C185.22 199.76 187.02 196.92 188.08 194.06ZM186.02 199.6L188.3 197.32L188.32 197.34V212.74H186.02V199.6ZM191.64 206.36L193.8 207C193 208.72 191.76 210.68 190.74 211.9C190.32 211.54 189.42 210.9 188.88 210.6C189.9 209.5 190.98 207.86 191.64 206.36ZM197.72 207.32L199.52 206.34C200.64 207.66 201.88 209.4 202.48 210.58L200.56 211.74C200.02 210.54 198.8 208.68 197.72 207.32ZM208.54 197.1H220.44V196.32H207.1V194.9H222.62V198.52H208.54V197.1ZM207.84 197.1H209.94C209.78 198.38 209.56 199.8 209.34 200.8H207.24C207.48 199.76 207.72 198.32 207.84 197.1ZM208.16 199.38H222.42V200.8H207.72L208.16 199.38ZM221.66 199.38H223.9C223.9 199.38 223.88 199.78 223.88 200C223.78 201.26 223.66 201.96 223.32 202.34C223.02 202.64 222.6 202.78 222.16 202.82C221.78 202.86 221.04 202.86 220.26 202.8C220.24 202.4 220.06 201.78 219.86 201.38C220.34 201.44 220.76 201.46 220.98 201.44C221.16 201.44 221.28 201.44 221.4 201.3C221.52 201.14 221.6 200.68 221.66 199.62V199.38ZM211.66 194.02H213.84V198.16C213.84 201 212.88 203.16 206.94 204.04C206.74 203.52 206.2 202.62 205.8 202.2C210.94 201.52 211.66 200.08 211.66 198.1V194.02ZM216.08 194.02H218.36V202.08H216.08V194.02ZM210.76 205.46V206.28H219.4V205.46H210.76ZM210.76 207.56V208.38H219.4V207.56H210.76ZM210.76 203.38V204.18H219.4V203.38H210.76ZM208.44 202.02H221.84V209.74H208.44V202.02ZM216.52 210.5L217.86 209.16C220.06 209.84 222.52 210.74 223.98 211.4L222.24 212.84C220.94 212.16 218.68 211.22 216.52 210.5ZM211.7 209.44L213.84 210.42C212.2 211.4 209.62 212.32 207.58 212.84C207.18 212.38 206.36 211.52 205.84 211.12C207.96 210.76 210.34 210.16 211.7 209.44ZM232.72 195.44H246.22V197.52H232.72V195.44ZM235.52 204.3H237.14V205.74H235.52V204.3ZM238.28 200.24H240.38V212.66H238.28V200.24ZM243.72 201.62H245.84V210.76C245.84 211.68 245.68 212.16 245.08 212.46C244.5 212.74 243.66 212.76 242.52 212.76C242.44 212.22 242.22 211.5 242 211C242.6 211.02 243.26 211.02 243.44 211.02C243.66 211.02 243.72 210.96 243.72 210.74V201.62ZM233 201.62H244.8V203.62H235.02V212.76H233V201.62ZM228.32 195.94L229.66 194.2C230.76 194.66 232.16 195.44 232.86 196.06L231.44 197.98C230.8 197.34 229.42 196.46 228.32 195.94ZM227.54 201.28L228.86 199.52C229.98 199.94 231.4 200.66 232.08 201.28L230.68 203.22C230.04 202.6 228.66 201.78 227.54 201.28ZM227.88 211.36C228.66 209.8 229.7 207.26 230.5 204.92L232.44 206.16C231.74 208.3 230.88 210.62 230.06 212.58L227.88 211.36ZM235.42 194H237.68V198.66H241.1V194H243.44V200.66H235.42V194ZM236.12 204.3H237.52C237.56 206.52 237.92 208.34 238.74 209.2C238.44 209.36 237.92 209.82 237.72 210.14C236.86 209.08 236.46 207.22 236.38 204.94H236.12V204.3ZM236.04 206.24H237.32C237.18 207.84 236.76 209.38 235.66 210.38C235.48 210.08 235.06 209.62 234.76 209.42C235.62 208.66 235.96 207.4 236.04 206.24ZM240.84 204.3H242.38V205.74H240.84V204.3ZM241.42 204.3H242.84C242.88 206.52 243.26 208.32 244.12 209.16C243.8 209.36 243.3 209.8 243.08 210.12C242.2 209.06 241.76 207.22 241.7 204.94H241.42V204.3ZM241.36 206.24H242.66C242.5 207.76 242.1 209.22 240.96 210.16C240.78 209.86 240.38 209.4 240.06 209.2C240.94 208.52 241.28 207.34 241.36 206.24Z" fill="black"/>
<path d="M100.458 419.94C98.5977 416.94 97.4977 413.74 97.4977 409.8C97.4977 405.88 98.5977 402.64 100.458 399.64L101.578 400.18C99.8577 403.02 99.0177 406.4 99.0177 409.8C99.0177 413.2 99.8577 416.58 101.578 419.42L100.458 419.94ZM108.596 400.22H121.436V401.38H108.596V400.22ZM110.416 403.56V405.48H119.436V403.56H110.416ZM109.076 402.56H120.836V406.46H109.076V402.56ZM112.536 400.6H113.776V405.86H112.536V400.6ZM115.996 400.6H117.236V405.86H115.996V400.6ZM110.896 410.46V411.6H119.136V410.46H110.896ZM110.896 412.54V413.72H119.136V412.54H110.896ZM110.896 408.38V409.52H119.136V408.38H110.896ZM109.496 407.42H120.596V414.68H109.496V407.42ZM115.996 415.68L116.976 414.82C118.716 415.4 120.656 416.18 121.816 416.78L120.516 417.66C119.496 417.06 117.716 416.28 115.996 415.68ZM112.716 414.8L113.796 415.56C112.576 416.44 110.596 417.2 108.816 417.64C108.616 417.34 108.256 416.88 107.976 416.62C109.716 416.22 111.656 415.48 112.716 414.8ZM107.076 399.32L108.476 399.7C107.336 403.16 105.556 406.68 103.576 409.02C103.436 408.66 103.036 407.86 102.776 407.48C104.536 405.48 106.116 402.4 107.076 399.32ZM105.476 404.22L106.856 402.84L106.896 402.88V417.6H105.476V404.22ZM129.016 401.26H140.996V402.58H129.016V401.26ZM128.156 415.74H141.596V417.02H128.156V415.74ZM130.076 404.46H139.796V416.1H138.416V405.62H131.436V416.1H130.076V404.46ZM131.016 407.32H138.736V408.44H131.016V407.32ZM130.976 410.14H139.036V411.24H130.976V410.14ZM130.976 412.96H138.776V414.08H130.976V412.96ZM134.396 399.22L135.996 399.32C135.656 401.22 135.176 403.56 134.756 404.96L133.436 404.82C133.816 403.34 134.236 400.9 134.396 399.22ZM127.696 399.24L129.096 399.66C127.856 403.04 125.956 406.44 123.896 408.7C123.756 408.34 123.316 407.56 123.056 407.22C124.916 405.26 126.636 402.28 127.696 399.24ZM125.596 404.48L126.976 403.06L126.996 403.08V417.6H125.596V404.48ZM143.316 416V414.94C147.916 410.92 150.016 407.98 150.016 405.48C150.016 403.8 149.156 402.56 147.336 402.56C146.136 402.56 145.096 403.3 144.276 404.26L143.216 403.24C144.416 401.94 145.696 401.08 147.556 401.08C150.176 401.08 151.816 402.78 151.816 405.4C151.816 408.34 149.516 411.32 146.056 414.58C146.836 414.5 147.716 414.44 148.456 414.44H152.516V416H143.316ZM159.089 416.28C156.289 416.28 154.509 413.74 154.509 408.62C154.509 403.54 156.289 401.08 159.089 401.08C161.849 401.08 163.629 403.54 163.629 408.62C163.629 413.74 161.849 416.28 159.089 416.28ZM159.089 414.8C160.749 414.8 161.869 412.94 161.869 408.62C161.869 404.36 160.749 402.54 159.089 402.54C157.409 402.54 156.269 404.36 156.269 408.62C156.269 412.94 157.409 414.8 159.089 414.8ZM166.103 419.8L165.683 418.74C166.923 418.18 167.683 417.18 167.683 415.96L167.483 414.32L168.363 415.64C168.123 415.94 167.803 416.04 167.443 416.04C166.743 416.04 166.123 415.58 166.123 414.76C166.123 413.96 166.743 413.48 167.483 413.48C168.443 413.48 169.023 414.3 169.023 415.62C169.023 417.56 167.923 419.06 166.103 419.8ZM175.749 416.28C172.949 416.28 171.169 413.74 171.169 408.62C171.169 403.54 172.949 401.08 175.749 401.08C178.509 401.08 180.289 403.54 180.289 408.62C180.289 413.74 178.509 416.28 175.749 416.28ZM175.749 414.8C177.409 414.8 178.529 412.94 178.529 408.62C178.529 404.36 177.409 402.54 175.749 402.54C174.069 402.54 172.929 404.36 172.929 408.62C172.929 412.94 174.069 414.8 175.749 414.8ZM186.843 416.28C184.043 416.28 182.263 413.74 182.263 408.62C182.263 403.54 184.043 401.08 186.843 401.08C189.603 401.08 191.383 403.54 191.383 408.62C191.383 413.74 189.603 416.28 186.843 416.28ZM186.843 414.8C188.503 414.8 189.623 412.94 189.623 408.62C189.623 404.36 188.503 402.54 186.843 402.54C185.163 402.54 184.023 404.36 184.023 408.62C184.023 412.94 185.163 414.8 186.843 414.8ZM197.937 416.28C195.137 416.28 193.357 413.74 193.357 408.62C193.357 403.54 195.137 401.08 197.937 401.08C200.697 401.08 202.477 403.54 202.477 408.62C202.477 413.74 200.697 416.28 197.937 416.28ZM197.937 414.8C199.597 414.8 200.717 412.94 200.717 408.62C200.717 404.36 199.597 402.54 197.937 402.54C196.257 402.54 195.117 404.36 195.117 408.62C195.117 412.94 196.257 414.8 197.937 414.8ZM215.111 407.28H216.651V415C216.651 415.7 216.811 415.82 217.591 415.82C217.951 415.82 219.691 415.82 220.191 415.82C221.011 415.82 221.131 415.3 221.211 412.22C221.551 412.5 222.211 412.76 222.611 412.88C222.451 416.32 222.051 417.26 220.291 417.26C219.891 417.26 217.791 417.26 217.411 417.26C215.591 417.26 215.111 416.74 215.111 415V407.28ZM204.651 406.38H222.311V407.84H204.651V406.38ZM206.391 400.76H220.611V402.22H206.391V400.76ZM209.771 407.5H211.351C211.011 411.98 210.131 415.66 205.351 417.56C205.191 417.2 204.751 416.66 204.411 416.38C208.831 414.72 209.471 411.4 209.771 407.5ZM234.351 401.88H242.371V403.26H234.351V401.88ZM234.771 399.2L236.231 399.48C235.511 402.14 234.311 404.62 232.871 406.24C232.631 405.98 232.011 405.52 231.671 405.34C233.091 403.86 234.191 401.58 234.771 399.2ZM238.151 405.88C238.771 410.32 240.091 414.32 242.671 416.08C242.311 416.34 241.851 416.9 241.631 417.3C238.871 415.22 237.531 411.02 236.851 406.04L238.151 405.88ZM241.311 407.32L242.391 408.24C241.311 409.28 239.891 410.42 238.811 411.16L237.891 410.32C238.951 409.56 240.451 408.26 241.311 407.32ZM233.731 417.48L233.611 416.14L234.171 415.56L238.111 413.82C238.111 414.22 238.211 414.84 238.311 415.16C234.651 416.88 234.071 417.14 233.731 417.48ZM227.231 399.62L228.531 399.2C228.991 400.04 229.451 401.18 229.671 401.9L228.311 402.4C228.111 401.64 227.651 400.5 227.231 399.62ZM224.491 402.54H232.271V403.94H224.491V402.54ZM227.451 406.54H230.871V407.92H227.451V406.54ZM230.311 406.54H231.691C231.691 406.54 231.691 407 231.671 407.22C231.511 413.84 231.351 416.02 230.851 416.7C230.551 417.14 230.211 417.3 229.711 417.34C229.271 417.4 228.551 417.4 227.831 417.36C227.811 416.96 227.671 416.38 227.451 416.02C228.171 416.08 228.811 416.1 229.091 416.1C229.371 416.1 229.511 416.06 229.651 415.82C229.991 415.36 230.171 413.16 230.311 406.82V406.54ZM226.631 403.26H228.011V407.02C228.011 410.34 227.651 414.24 225.171 417.56C224.931 417.28 224.431 416.92 224.071 416.7C226.371 413.6 226.631 409.92 226.631 407V403.26ZM240.771 403.82L242.011 404.88C239.871 405.82 236.811 406.6 234.111 407.14C234.031 406.82 233.811 406.32 233.651 406C236.231 405.48 239.151 404.64 240.771 403.82ZM233.731 417.48C233.611 417.16 233.191 416.58 232.951 416.34C233.251 416.1 233.651 415.6 233.651 414.68V406H235.091V415.78C235.091 415.78 233.731 416.9 233.731 417.48ZM249.211 401.94H255.851V403.2H249.211V401.94ZM251.651 405.48H254.691V406.74H251.651V405.48ZM254.171 405.48H255.471C255.471 405.48 255.451 405.9 255.451 406.1C255.251 411.7 255.051 413.6 254.551 414.24C254.271 414.62 253.951 414.74 253.491 414.8C253.131 414.84 252.511 414.84 251.911 414.82C251.871 414.44 251.751 413.9 251.551 413.56C252.151 413.62 252.671 413.62 252.911 413.62C253.151 413.62 253.291 413.58 253.431 413.38C253.771 412.94 253.971 411.06 254.171 405.74V405.48ZM256.811 401.46H262.631V402.74H256.811V401.46ZM255.891 408.5H262.631V409.72H255.891V408.5ZM256.671 404.42H261.351V405.6H256.671V404.42ZM257.431 399.14L258.711 399.46C258.171 401.64 257.251 403.82 256.211 405.24C255.971 405.02 255.431 404.62 255.131 404.42C256.171 403.1 256.971 401.14 257.431 399.14ZM258.611 407.12H259.911V413.3C259.911 413.96 259.811 414.34 259.291 414.56C258.831 414.78 258.071 414.8 256.931 414.8C256.891 414.42 256.671 413.9 256.491 413.52C257.331 413.54 258.091 413.54 258.311 413.54C258.551 413.54 258.611 413.48 258.611 413.28V407.12ZM260.931 404.42H261.251L261.491 404.34L262.331 404.98C261.531 406.04 260.371 407.18 259.351 407.92C259.191 407.66 258.831 407.3 258.611 407.12C259.471 406.48 260.451 405.44 260.931 404.68V404.42ZM250.951 402.52H252.191V405.42C252.191 408.12 251.911 411.8 249.831 414.5C249.611 414.24 249.171 413.84 248.871 413.66C250.731 411.16 250.951 407.82 250.951 405.4V402.52ZM251.371 399.5L252.671 399.22C253.091 400.08 253.551 401.18 253.751 401.88L252.391 402.24C252.191 401.5 251.751 400.36 251.371 399.5ZM245.051 399.84L246.211 399.24C247.031 400.22 248.031 401.52 248.491 402.34L247.291 403.08C246.831 402.24 245.851 400.84 245.051 399.84ZM244.391 403.82H248.711V405.08H244.391V403.82ZM247.951 413C249.191 415.62 251.791 415.98 255.791 415.98C257.911 415.98 260.831 415.9 262.891 415.72C262.671 416.04 262.491 416.72 262.411 417.12C260.511 417.24 257.991 417.28 255.791 417.28C251.091 417.28 248.471 416.76 246.951 413.46L247.951 413ZM247.871 408.82H248.311L248.551 408.78L249.231 409.06C248.611 413.26 247.111 416.1 245.051 417.64C244.851 417.34 244.351 416.82 244.051 416.6C245.991 415.24 247.371 412.68 247.871 409.08V408.82ZM244.731 410.32V409.18L245.451 408.82H248.611V410.04H245.911C245.411 410.04 244.891 410.16 244.731 410.32ZM244.731 410.32C244.631 409.96 244.331 409.26 244.171 408.96C244.471 408.88 244.791 408.74 245.111 408.36C245.711 407.74 247.551 405.02 248.191 403.96V403.9L248.631 403.72L249.631 404.16C248.731 405.5 246.971 408.1 245.871 409.38C245.871 409.38 244.731 409.94 244.731 410.32ZM269.711 405.46V409.18H277.231V405.46H269.711ZM268.131 404.1H278.851V410.56H268.131V404.1ZM270.871 410.02H272.411C272.011 414 270.891 416.5 265.751 417.76C265.591 417.38 265.211 416.8 264.911 416.5C269.651 415.44 270.531 413.38 270.871 410.02ZM274.331 410.02H275.811V415.28C275.811 415.84 275.971 415.94 276.871 415.94C277.271 415.94 279.311 415.94 279.871 415.94C280.651 415.94 280.771 415.64 280.851 413.54C281.191 413.8 281.811 414.02 282.231 414.12C282.031 416.66 281.611 417.32 279.991 417.32C279.591 417.32 277.131 417.32 276.731 417.32C274.811 417.32 274.331 416.88 274.331 415.28V410.02ZM270.371 399.44L271.931 399.98C270.371 402.46 267.771 404.56 265.331 405.9C265.051 405.58 264.431 405.02 264.031 404.76C266.591 403.58 269.011 401.66 270.371 399.44ZM274.851 400.24L276.091 399.46C278.391 401.1 281.251 403.46 282.671 405.1L281.291 406C280.011 404.38 277.191 401.92 274.851 400.24ZM284.091 409.82C285.591 409.36 287.831 408.6 290.011 407.84L290.251 409.2C288.251 409.92 286.151 410.68 284.491 411.26L284.091 409.82ZM284.311 403.24H290.151V404.64H284.311V403.24ZM286.671 399.2H288.131V415.72C288.131 416.56 287.951 416.98 287.451 417.24C286.971 417.48 286.231 417.54 285.031 417.54C284.971 417.14 284.771 416.5 284.591 416.06C285.391 416.08 286.111 416.08 286.351 416.08C286.591 416.08 286.671 416 286.671 415.74V399.2ZM294.171 399.2L295.591 399.42C294.711 401.56 293.331 403.96 291.191 405.86C290.991 405.54 290.551 405.08 290.251 404.88C292.211 403.22 293.491 400.98 294.171 399.2ZM294.211 400.74H298.151V401.96H293.491L294.211 400.74ZM291.751 403.98H301.351V412H300.051V405.22H293.011V412H291.751V403.98ZM290.051 411.56H302.631V412.82H290.051V411.56ZM295.791 409.58H297.251C296.851 413.88 295.691 416.42 290.211 417.62C290.091 417.28 289.731 416.76 289.471 416.46C294.531 415.46 295.471 413.3 295.791 409.58ZM297.771 400.74H298.051L298.291 400.68L299.171 401.26C298.631 402.46 297.751 403.88 297.031 404.76C296.791 404.58 296.331 404.3 296.031 404.14C296.711 403.32 297.411 401.94 297.771 401V400.74ZM296.331 405.16L297.491 405.46C296.811 407.12 295.551 408.66 294.271 409.62C294.051 409.42 293.551 409.06 293.251 408.88C294.591 408 295.711 406.66 296.331 405.16ZM295.891 407.04L296.611 406.3C297.791 406.96 299.251 407.98 299.971 408.7L299.231 409.54C298.531 408.8 297.071 407.76 295.891 407.04ZM297.091 413.84L298.011 413.04C299.551 414.16 301.671 415.76 302.751 416.7L301.771 417.64C300.751 416.66 298.671 415.02 297.091 413.84ZM304.711 406.12H322.291V407.48H304.711V406.12ZM305.951 402.72H320.911V404.06H305.951V402.72ZM316.431 406.38C317.671 408.4 320.211 410.06 322.951 410.8C322.611 411.1 322.191 411.66 321.971 412.06C319.151 411.14 316.551 409.22 315.131 406.84L316.431 406.38ZM313.111 399.14L314.671 399.32C313.871 404.2 311.071 409.28 305.091 412.04C304.931 411.66 304.471 411.08 304.131 410.8C309.911 408.3 312.491 403.52 313.111 399.14ZM307.651 400.24L308.851 399.66C309.511 400.4 310.271 401.46 310.591 402.16L309.331 402.82C309.031 402.14 308.311 401.04 307.651 400.24ZM318.111 399.72L319.491 400.18C318.771 401.28 317.911 402.5 317.191 403.3L316.051 402.88C316.751 402.04 317.631 400.66 318.111 399.72ZM307.731 409.9H317.611V411.26H307.731V409.9ZM317.351 409.9H318.871C318.871 409.9 318.851 410.32 318.831 410.56C318.551 414.62 318.271 416.22 317.711 416.82C317.331 417.22 316.971 417.34 316.351 417.4C315.811 417.44 314.751 417.44 313.651 417.36C313.631 416.94 313.471 416.34 313.211 415.94C314.291 416.06 315.311 416.06 315.691 416.06C316.071 416.06 316.251 416.02 316.451 415.86C316.851 415.46 317.111 413.96 317.351 410.12V409.9ZM310.971 410.42H312.531C312.071 413.88 310.851 416.32 306.231 417.58C306.091 417.2 305.671 416.62 305.371 416.32C309.611 415.3 310.591 413.26 310.971 410.42ZM331.831 412.24L331.371 411.18C333.011 410.52 333.911 409.5 333.911 407.98L333.531 406.3L334.611 407.82C334.331 408.18 333.931 408.28 333.551 408.28C332.731 408.28 332.051 407.78 332.051 406.84C332.051 405.9 332.771 405.4 333.571 405.4C334.691 405.4 335.291 406.32 335.291 407.72C335.291 409.88 333.931 411.52 331.831 412.24ZM344.031 409.84C345.751 409.4 348.311 408.64 350.791 407.92L350.971 409.28C348.691 410 346.291 410.76 344.431 411.3L344.031 409.84ZM344.291 403.24H350.771V404.64H344.291V403.24ZM347.071 399.22H348.531V415.88C348.531 416.7 348.331 417.12 347.811 417.34C347.291 417.58 346.491 417.62 345.151 417.6C345.111 417.24 344.891 416.64 344.711 416.24C345.611 416.26 346.451 416.26 346.691 416.26C346.971 416.26 347.071 416.16 347.071 415.88V399.22ZM351.471 403.82H362.291V417.42H360.791V405.24H352.891V417.54H351.471V403.82ZM352.331 409.16H361.231V410.58H352.331V409.16ZM352.371 414.7H361.271V416.14H352.371V414.7ZM356.071 399.24H357.491V415.58H356.071V399.24ZM368.691 416.28C366.411 416.28 365.011 415.32 364.011 414.32L364.931 413.12C365.751 413.98 366.831 414.76 368.511 414.76C370.251 414.76 371.631 413.42 371.631 411.3C371.631 409.2 370.431 407.94 368.611 407.94C367.631 407.94 367.011 408.26 366.171 408.82L365.191 408.2L365.651 401.34H372.791V402.9H367.251L366.871 407.14C367.531 406.78 368.191 406.56 369.071 406.56C371.511 406.56 373.491 408 373.491 411.24C373.491 414.44 371.151 416.28 368.691 416.28ZM381.844 415.42H391.504V416.8H381.844V415.42ZM381.164 401.22H388.504V402.56H381.164V401.22ZM382.064 399.14L383.744 399.48C382.244 402.08 379.844 404.8 376.364 406.86C376.144 406.48 375.644 405.96 375.304 405.7C378.604 403.9 380.904 401.32 382.064 399.14ZM388.004 401.22H388.284L388.564 401.14L389.564 401.68C387.164 407.72 381.524 411.74 376.084 413.5C375.904 413.1 375.524 412.48 375.204 412.16C380.384 410.66 385.924 406.74 388.004 401.48V401.22ZM378.664 404.78L379.784 403.82C381.364 404.9 383.284 406.5 384.204 407.64L382.984 408.72C382.144 407.58 380.244 405.9 378.664 404.78ZM390.764 409.1H392.304V417.64H390.764V409.1ZM382.524 409.1H391.524V410.48H382.524V417.6H381.024V410.28L382.224 409.1H382.524ZM396.544 419.94L395.404 419.42C397.124 416.58 397.964 413.2 397.964 409.8C397.964 406.4 397.124 403.02 395.404 400.18L396.544 399.64C398.384 402.64 399.484 405.88 399.484 409.8C399.484 413.74 398.384 416.94 396.544 419.94Z" fill="black"/>
<path d="M350.7 202.4H353.18V209.32C353.18 210.1 353.3 210.2 353.94 210.2C354.22 210.2 355.4 210.2 355.76 210.2C356.44 210.2 356.56 209.7 356.64 206.8C357.16 207.22 358.22 207.64 358.86 207.8C358.62 211.42 358.02 212.46 355.98 212.46C355.52 212.46 354 212.46 353.56 212.46C351.28 212.46 350.7 211.68 350.7 209.34V202.4ZM340.54 200.86H358.48V203.2H340.54V200.86ZM342.36 195.42H356.64V197.74H342.36V195.42ZM345.12 202.7H347.7C347.38 207.1 346.62 210.72 341.58 212.74C341.32 212.14 340.64 211.26 340.1 210.8C344.5 209.16 344.88 206.22 345.12 202.7Z" fill="black"/>
<path d="M264.116 189.08L263.556 196.68C265.276 196.16 267.036 195.96 268.956 195.96C275.716 195.96 279.876 199.24 279.876 205.16C279.876 211.32 274.916 214.68 268.116 214.68C262.516 214.68 259.116 211.92 258.796 207.56C259.276 206.36 260.316 205.76 261.396 205.76C263.036 205.76 263.956 206.64 264.236 209L264.796 212.96C265.436 213.2 266.076 213.28 266.996 213.28C270.596 213.28 273.036 210.52 273.036 205.48C273.036 200.84 270.676 198.2 266.996 198.2C265.476 198.2 264.116 198.4 262.716 198.88L261.556 198.04L262.516 184.12H278.796V189.08H264.116ZM289.172 199C289.172 210.28 291.132 213.28 293.492 213.28C295.852 213.28 297.892 210.24 297.892 199C297.892 187.84 295.852 184.84 293.492 184.84C291.132 184.84 289.172 187.8 289.172 199ZM293.492 183.44C299.012 183.44 303.932 188.16 303.932 199C303.932 209.92 299.012 214.68 293.492 214.68C287.932 214.68 283.092 209.92 283.092 199C283.092 188.16 287.932 183.44 293.492 183.44ZM313.508 199C313.508 210.28 315.468 213.28 317.828 213.28C320.188 213.28 322.228 210.24 322.228 199C322.228 187.84 320.188 184.84 317.828 184.84C315.468 184.84 313.508 187.8 313.508 199ZM317.828 183.44C323.348 183.44 328.268 188.16 328.268 199C328.268 209.92 323.348 214.68 317.828 214.68C312.268 214.68 307.428 209.92 307.428 199C307.428 188.16 312.268 183.44 317.828 183.44Z" fill="black"/>
<g clip-path="url(#clip0_515_3273)">
<path d="M598.507 145.111C598.507 145.111 589.209 137.064 583.511 136.908C577.823 136.754 565.78 134.565 565.78 134.565L579.539 113.232C579.539 113.232 576.372 110.571 571.69 113.239C567.008 115.907 549.305 117.093 549.305 117.093L540.922 126.822L538.939 131.704L523.603 123.61L519.665 119.257C519.665 119.257 516.849 118.086 523.563 117.079C530.287 116.074 544.59 113.82 544.59 113.82L599.811 102.432C599.811 102.432 619.219 99.4392 620.379 90.6812C621.539 81.9232 610.679 83.012 607.865 82.602C605.052 82.1815 580.115 80.9731 580.115 80.9731L513.705 84.807L484.348 85.8244L452.395 87.1726C452.395 87.1726 441.385 78.7347 433.019 76.8629C424.653 74.9911 380.502 50.3726 380.502 50.3726C380.502 50.3726 347.92 37.9636 341.518 37.9892C335.115 38.0149 313.475 30.433 304.863 31.4915C296.252 32.55 290.626 37.4519 292.005 43.5134C293.384 49.5749 308.231 67.0224 320.83 77.8361C333.419 88.6482 337.254 97.9469 346.088 100.898C354.923 103.848 370.602 114.952 370.602 114.952L357.839 127.824C357.839 127.824 349.594 127.61 348.518 132.599C347.442 137.588 345.744 142.856 345.744 142.856C345.744 142.856 326.842 159.287 322.132 164.447C317.422 169.607 316.237 180.001 319.6 180.966C322.962 181.932 351.612 171.034 357.261 169.832C362.911 168.62 421.653 137.768 421.653 137.768C421.653 137.768 477.847 150.711 489.11 153.509C500.372 156.307 533.646 155.375 535.347 154.993C537.057 154.623 544.591 149.735 544.591 149.735C544.591 149.735 545.667 152.172 555.643 152.297C565.619 152.423 588.424 147.647 588.424 147.647L598.507 145.111Z" fill="#FBFBFB"/>
<path d="M440.569 102.685C452.216 98.4274 464.293 96.5395 476.565 95.0671C478.139 94.8799 478.131 92.4143 476.507 92.5725C463.991 93.7502 451.673 95.9442 439.887 100.416C438.483 100.961 439.135 103.215 440.569 102.685Z" fill="black"/>
<path d="M367.311 115.69C365.121 116.672 363.176 118.432 361.364 119.889C358.84 121.924 356.172 123.99 354.245 126.62C354.027 126.918 353.967 127.241 354.006 127.547C353.861 127.579 353.728 127.612 353.582 127.654C353.484 127.66 353.4 127.647 353.31 127.676C352.309 127.973 351.414 128.414 350.579 128.961C350.556 128.969 350.532 128.986 350.52 128.995C350.486 129.011 350.482 129.032 350.448 129.048C348.412 130.418 346.881 132.423 345.772 134.685C345.458 135.333 345.481 136.237 346.082 136.726C346.521 137.082 346.973 137.355 347.43 137.597C336.957 147.648 323.75 156.134 317.421 169.618C314.074 176.744 317.089 182.146 324.815 182.034C337.273 181.865 351.946 173.55 362.91 168.631C383.133 159.548 402.796 149.427 421.653 137.768C436.33 142.385 451.247 146.279 466.137 149.923C490.763 155.959 516.946 160.594 541.765 153.395C541.899 153.362 541.976 153.277 542.08 153.229C546.242 155.495 550.485 156.671 554.193 155.386C568.624 150.398 584.22 150.978 598.485 145.118C599.607 144.658 600.32 143.375 599.582 142.233C593.871 133.407 581.584 133.227 572.17 133.22C570.828 133.218 569.479 133.268 568.141 133.309C572.19 126.719 577.471 120.843 579.517 113.239C579.819 112.107 578.857 110.748 577.615 110.869C569.76 111.615 559.004 112.794 550.337 116.598C550.932 115.939 551.114 114.82 550.418 114.039C550.106 113.691 549.782 113.352 549.471 113.004C581.601 107.558 628.066 98.0311 624.866 88.3691C624.485 87.2177 622.776 86.8807 622.037 87.7103C616.547 78.908 603.531 79.0769 594.372 79.0871C577.138 79.1024 559.989 82.1413 542.789 82.9868C523.307 83.9431 503.874 85.9785 484.346 85.8349C473.633 85.7568 462.892 85.7924 452.394 87.183C452.429 86.7385 452.298 86.2683 451.901 85.8432C446.274 79.902 438.616 76.6281 431.23 73.4065C420.624 68.7805 410.88 63.4296 400.707 57.9378C380.351 46.9423 359.016 41.3574 336.941 35.0697C326.367 32.0558 305.967 23.0999 296.24 32.5588C286.965 41.5836 294.743 54.2296 300.996 62.6025C317.818 85.0887 341.912 102.507 367.311 115.69ZM353.407 131.313C353.541 131.28 353.661 131.266 353.795 131.233C353.775 131.712 353.939 132.187 354.366 132.553C354.498 132.669 354.674 132.782 354.819 132.89C353.56 134.379 351.443 135.512 349.543 134.878C350.498 133.342 351.746 132.065 353.407 131.313ZM342.635 149.547C342.147 149.997 341.632 150.347 341.083 150.638C341.493 150.272 341.904 149.907 342.303 149.539C342.42 149.547 342.529 149.542 342.635 149.547ZM343.698 152.346C346.475 157.132 353.872 158.395 356.467 163.454C350.928 160.794 345.94 157.543 341.389 153.471C342.215 153.201 342.981 152.825 343.698 152.346ZM353.276 137.978C354.985 137.405 356.551 136.295 357.763 134.831C365.513 139.254 378.479 143.546 378.846 152.077C369.297 149.724 361.009 145.175 352.734 140.113C352.846 140.013 352.959 139.912 353.071 139.811C353.636 139.276 353.607 138.554 353.276 137.978ZM330.228 177.046C321.469 179.624 318.591 174.94 322.739 167.208C323.102 167.296 323.499 167.228 323.843 166.874C328.157 162.403 332.686 158.211 337.259 154.08C337.528 154.079 337.786 154.075 338.046 154.062C343.484 159.417 349.383 163.653 356.275 167.088C351.229 169.261 346.172 171.368 341.06 173.338C337.5 174.71 333.893 175.968 330.228 177.046ZM360.69 165.183C360.111 161.676 357.999 158.995 355.323 156.56C352.819 154.269 349.556 151.39 346.477 149.697C347.159 148.751 346.852 147.601 345.721 147.203C345.508 147.127 345.319 147.098 345.114 147.034C346.931 145.406 348.741 143.755 350.54 142.102C359.321 148.623 369.435 153.377 380.041 155.978C380.072 155.983 380.105 155.977 380.147 155.984C373.728 159.2 367.244 162.277 360.69 165.183ZM381.993 155.077C382.054 154.958 382.135 154.853 382.166 154.718C385.047 142.581 368.773 136.754 359.477 131.354C359.643 130.201 359.424 129.042 358.464 128.231C358.273 128.073 358.055 127.954 357.848 127.836C359.857 126.216 361.678 124.352 363.639 122.692C365.775 120.876 368.13 119.384 370.29 117.615C370.389 117.534 370.457 117.437 370.526 117.34C378.858 121.532 387.302 125.28 395.661 128.597C402.381 131.267 409.203 133.684 416.081 135.949C404.989 142.756 393.624 149.167 381.993 155.077ZM470.801 146.952C463.782 145.394 456.796 143.626 449.82 141.786C450.78 141.268 451.163 139.752 450.214 139.007C448.463 137.613 446.054 138.058 444.175 136.87C442.541 135.837 440.673 138.358 442.169 139.595C442.254 139.672 442.371 139.744 442.468 139.812C436.385 138.108 430.335 136.323 424.322 134.437C424.004 133.081 422.523 131.954 420.99 132.919C420.836 133.014 420.682 133.108 420.528 133.202C417.253 132.154 413.977 131.116 410.721 130.017C374.532 117.751 341.641 98.8872 314.561 71.8071C309.711 66.96 299.477 56.8946 296.682 47.6053C299.888 47.4862 303.077 45.5215 305.162 43.2695C306.872 41.4316 307.942 39.1421 308.592 36.7238C326.458 51.0664 346.911 61.4983 367.037 72.3086C387.38 83.2381 406.434 96.8413 428.909 102.901C429.879 104.978 431.064 106.981 432.484 109.138C432.649 109.389 432.855 109.517 433.078 109.604C433.132 109.881 433.286 110.14 433.59 110.326C451.198 121.382 470.014 127.856 490.75 125.999C492.548 131.921 502.409 134.408 507.502 136.549C515.964 140.107 524.606 143.189 533.068 146.747C534.433 147.931 535.877 149.085 537.355 150.158C515.323 155.706 492.716 151.833 470.801 146.952ZM502.793 117.474C502.713 117.504 502.645 117.526 502.566 117.557C498.374 114.996 494.113 112.115 491.126 109.964C496.209 109.157 497.715 104.727 496.627 100.757C506.031 105.595 513.981 114.732 519.907 122.787C519.806 122.889 519.725 122.994 519.652 123.123C519.63 123.055 519.619 122.989 519.597 122.921C519.079 121.535 517.071 121.473 516.667 122.986C516.146 124.91 510.645 122.352 504.532 118.737C504.468 117.891 503.793 117.113 502.793 117.474ZM488.264 97.8142C488.588 97.8745 488.923 97.9259 489.244 98.0072C496.11 100.42 495.417 103.4 487.167 106.935C487.04 106.852 486.92 106.79 486.796 106.761C482.426 104.666 485.133 99.5413 488.264 97.8142ZM519.987 125.21C522.282 126.976 524.78 128.677 527.379 130.286C524.298 129.299 521.283 128.173 518.321 126.904C519.237 126.67 519.872 126.167 519.987 125.21ZM507.835 124.365C507.864 124.38 507.924 124.41 507.954 124.426C508.059 124.581 508.188 124.719 508.385 124.835C514.413 128.373 520.707 131.299 527.311 133.597C528.81 134.116 529.61 132.331 528.972 131.237C532.053 133.059 535.235 134.715 538.39 136.12C534.857 136.479 531.333 136.774 527.79 136.917C527.314 136.94 526.966 137.112 526.674 137.335C525.886 137.15 525.125 137.847 525.132 138.641C521.866 137.466 518.592 136.342 515.451 135.121C511.508 133.596 496.392 129.114 493.627 125.722C493.67 125.718 493.724 125.716 493.768 125.712C495.344 125.514 495.343 123.071 493.759 123.182C496.433 122.542 499.064 121.702 501.669 120.816C503.742 122.066 505.805 123.25 507.835 124.365ZM594.751 142.371C584.619 146.068 573.995 147.3 563.383 149.219C556.482 150.465 551.38 153.144 544.621 149.75C543.604 149.241 542.627 148.684 541.648 148.137C542.086 147.24 541.95 146.095 540.785 145.434C540.252 145.127 539.693 144.849 539.147 144.561C553.22 145.133 567.232 144.495 581.155 142.333C583.289 141.996 583.27 138.618 581.076 138.924C566.596 140.937 552.161 142.099 537.529 141.742C536.619 141.72 536.191 142.415 536.224 143.106C534.501 142.306 532.749 141.545 530.957 140.841C540.346 140.663 549.845 138.787 559.148 137.909C568.867 136.978 586.897 134.288 594.751 142.371ZM543.063 135.615C543.096 135.191 542.959 134.753 542.516 134.353C541.412 133.358 540.2 132.508 538.939 131.704C544.849 118.992 561.885 116.204 574.92 114.934C574.606 115.722 574.242 116.48 573.858 117.236C573.941 116.273 572.993 115.174 571.853 115.471C562.387 117.899 549.466 124.029 544.431 132.782C543.715 134.022 545.577 135.465 546.487 134.286C553.063 125.705 563.751 122.661 573.12 118.269C573.259 118.205 573.348 118.111 573.447 118.03C570.799 122.906 567.061 127.187 564.318 132.059C564.024 132.571 564.013 133.062 564.131 133.488C557.094 133.941 550.076 134.826 543.063 135.615ZM536.566 130.301C532.326 127.99 527.678 126.164 523.614 123.612C524.046 123.1 524.168 122.379 523.631 121.675C522.486 120.182 521.284 118.637 520.02 117.082C520.299 117.361 520.716 117.511 521.266 117.423C524.42 116.953 533.3 115.679 544.611 113.823C545.707 114.795 546.796 115.744 548.013 116.563L548.021 116.575C548.148 116.659 548.251 116.76 548.377 116.844C548.71 117.056 549.013 117.113 549.316 117.095C543.354 119.92 538.543 124.058 536.566 130.301ZM530.498 86.8991C544.987 85.9487 559.409 84.8704 573.864 83.5827C553.647 87.2335 533.078 87.5088 512.66 89.4574C511.243 89.5938 511.269 91.805 512.716 91.6839C533.918 89.8019 555.236 89.6842 576.213 85.6999C577.528 85.4515 577.236 83.7888 576.203 83.384C576.431 83.3654 576.659 83.3469 576.887 83.3283C588.069 82.3103 612.82 77.9401 619.562 89.9881C619.771 90.3737 620.074 90.5701 620.389 90.6828C617.063 93.7515 608.528 95.5717 605.823 96.4106C595.292 99.6927 584.453 102.049 573.679 104.329C564.634 106.254 555.547 108.032 546.438 109.679C542.116 105.095 537.632 100.657 533.411 95.9814C532.346 94.8004 530.745 96.5586 531.735 97.7388C534.293 100.799 536.915 103.794 539.546 106.801C533.876 104.153 528.582 101.284 523.727 96.9612C527.243 96.7824 530.671 95.8508 533.941 94.2734C534.846 93.8335 534.542 92.662 533.894 92.1983C532.928 91.4931 532.015 91.0102 530.851 90.7568C529.324 90.4262 528.725 92.7881 530.265 93.1099C530.338 93.1211 530.386 93.1606 530.447 93.1807C527.519 94.2853 524.441 94.8207 521.318 94.6741C522.655 93.9362 524.149 93.7152 525.936 93.6141C527.366 93.5333 527.329 91.3205 525.88 91.3877C522.592 91.5479 519.9 92.1637 517.669 94.7362C517.147 95.3418 517.326 96.4836 518.215 96.6412C519.093 96.7972 519.959 96.8872 520.831 96.9458C520.807 97.2421 520.898 97.5561 521.177 97.8347C526.16 102.799 533.061 108.206 540.08 110.815C533.793 111.908 527.489 112.967 521.18 113.928C519.564 114.173 519.168 116.127 519.956 117.008C512.827 108.255 503.823 99.1279 493.164 95.6832C491.525 94.5426 489.443 93.977 486.971 94.4873C486.05 94.6783 485.703 95.6857 485.92 96.5119C481.085 99.8958 481.402 107.423 486.563 109.543C490.191 112.981 494.371 116.108 498.697 118.914C496.093 119.79 493.48 120.589 490.778 121.128C489.514 121.385 489.632 122.86 490.474 123.46C470.106 124.945 452.289 119.31 434.79 108.452C434.789 108.249 434.744 108.049 434.617 107.826C434.091 106.92 432.973 105.388 431.957 103.679C432.029 103.701 432.101 103.722 432.174 103.734C434.113 104.181 434.864 101.178 432.921 100.752C432.017 100.559 431.119 100.325 430.219 100.102C429.528 98.0244 429.623 96.1425 431.715 95.2418C436.175 93.3219 440.942 92.1991 445.674 91.1673C456.214 88.8723 467.304 88.9438 478.031 88.8632C495.581 88.7464 512.972 88.0482 530.498 86.8991ZM324.118 35.1717C322.814 35.904 322.637 38.1055 324.492 38.6148C329.181 39.8908 333.481 42.2322 337.514 44.9183C338.442 45.5857 339.365 46.22 340.28 46.8317C342.96 48.6139 345.406 44.2103 342.698 42.4773C341.728 41.8035 340.842 41.0678 339.972 40.3022C340.69 40.5194 341.368 40.7198 341.979 40.867C363.042 46.2603 382.746 53.1702 401.958 63.4977C410.151 67.9036 417.957 72.2396 426.566 75.82C434.257 79.0134 442.465 82.1253 448.779 87.7218C441.399 88.937 434.154 90.8906 427.144 94.0374C426.521 94.317 426.374 95.1408 426.498 95.7278C426.781 97.0354 427.12 98.2552 427.511 99.4187C407.211 93.7353 389.924 81.7744 371.471 71.7455C350.095 60.1222 328.321 49.3485 309.091 34.304C309.183 33.7073 309.243 33.1058 309.282 32.501C313.856 32.57 319.068 33.7227 324.118 35.1717ZM298.102 36.6586C300.018 34.1773 302.96 32.9784 306.45 32.6241C306.008 35.7171 304.869 38.596 302.725 40.9567C300.786 43.1023 298.484 43.478 295.973 43.8217C295.84 41.2619 296.428 38.8235 298.102 36.6586Z" fill="black"/>
<path d="M343.193 88.8287C341.77 87.2605 340.572 85.4804 339.355 83.751C338.132 81.9991 335.343 83.661 336.51 85.5006C337.73 87.4233 338.95 89.3354 340.363 91.1162C341.658 92.7506 343.316 95.0298 345.492 95.4061C346.924 95.6578 348.154 94.2178 347.349 92.8837C346.36 91.2855 344.46 90.2335 343.193 88.8287Z" fill="black"/>
<path d="M352.11 51.3238C352.613 51.4759 352.566 51.5008 352.729 51.8366C353.084 52.5338 354.048 52.9708 354.774 53.1357C355.77 53.3634 357.007 52.7817 357.195 51.6962C357.439 50.3192 357.078 49.0317 355.81 48.2695C355.81 48.2695 355.203 47.8123 354.95 47.6448C354.431 47.3188 353.793 47.1354 353.2 47.0123C350.382 46.4195 349.355 50.5265 352.11 51.3238Z" fill="black"/>
<path d="M363.884 59.1181C363.874 59.1165 363.851 59.1237 363.84 59.1221C363.999 59.1358 364.01 59.1374 363.884 59.1181Z" fill="black"/>
<path d="M363.524 59.0843C363.694 59.0996 363.819 59.1189 363.884 59.1181C365.146 59.2901 366.381 58.7294 366.714 57.3982C367.013 56.2121 366.26 54.7572 364.997 54.5207C363.629 54.2682 362.369 54.5036 361.193 55.2447C358.731 56.8066 360.984 60.3878 363.524 59.0843Z" fill="black"/>
<path d="M372.378 63.0987C373.474 63.299 374.644 63.6498 375.744 63.2719C377.183 62.7747 377.836 60.8283 376.598 59.7279C375.701 58.9261 374.66 58.7878 373.541 58.5199C370.547 57.8144 369.4 62.5672 372.378 63.0987Z" fill="black"/>
<path d="M379.353 67.2537C379.436 69.088 382.33 69.9602 383.378 68.0958C383.942 67.0787 383.564 65.7671 382.544 65.2036C382.149 64.9823 381.693 64.9446 381.256 64.9954C381.11 64.8231 380.968 64.6299 380.826 64.4367C379.769 62.9996 377.492 64.3328 378.433 65.9019C378.715 66.3737 379.021 66.8278 379.353 67.2537ZM380.552 65.2411C380.365 65.341 380.171 65.4184 380.018 65.5771C380.11 65.4627 380.191 65.3572 380.314 65.1832C380.386 65.205 380.47 65.2178 380.552 65.2411Z" fill="black"/>
<path d="M389.245 72.4025C389.492 72.4081 389.727 72.412 389.973 72.4176C391.987 72.4477 392.987 69.2153 390.965 68.4017C390.742 68.314 390.519 68.2262 390.307 68.1401C388.962 67.6017 387.374 68.012 386.985 69.5702C386.609 71.0447 387.778 72.3811 389.245 72.4025Z" fill="black"/>
<path d="M398.565 76.6705C399.814 76.369 400.39 74.4323 399.302 73.612C399.08 73.4494 398.87 73.278 398.631 73.1556C398.571 73.0606 398.5 72.964 398.439 72.869C397.067 70.6871 393.568 72.8508 395.039 74.9513C395.928 76.2234 396.936 77.0743 398.565 76.6705Z" fill="black"/>
<path d="M403.475 80.0053C404.06 80.6735 405.184 80.6958 405.906 80.26C406.89 79.6502 407.046 78.4955 406.562 77.5213C406.406 77.2081 406.25 76.8949 406.094 76.5817C405.577 75.5382 404.086 75.3204 403.162 75.8858C401.918 76.6487 401.914 78.2125 402.811 79.2284C403.027 79.4973 403.257 79.7469 403.475 80.0053Z" fill="black"/>
<path d="M412.445 85.5054C413.995 85.9681 415.113 83.8573 413.946 82.789C413.154 82.0677 412.438 81.7007 411.442 81.3338C410.861 81.127 410.454 80.6359 410.097 80.1633C409.042 78.7801 406.784 80.0626 407.738 81.6124C408.855 83.4336 410.381 84.8891 412.445 85.5054Z" fill="black"/>
<path d="M417.944 88.0092C419.451 88.3366 420.943 88.8975 422.365 88.0227C423.184 87.516 423.564 86.2992 422.972 85.4692C421.972 84.0731 420.59 83.9897 419.035 83.6978C416.229 83.1605 415.129 87.3955 417.944 88.0092Z" fill="black"/>
<path d="M427.89 91.2052C429.754 91.4375 431.279 90.2462 430.905 88.2711C430.656 86.8829 428.909 86.7972 428.015 87.5173C426.204 87.9147 425.782 90.9465 427.89 91.2052Z" fill="black"/>
<path d="M373.032 120.178C369.26 123.286 365.09 125.904 361.492 129.209C360.142 130.449 362.035 132.807 363.514 131.705C367.569 128.716 371.669 125.777 375.552 122.579C377.274 121.15 374.741 118.769 373.032 120.178Z" fill="black"/>
<path d="M461.267 136.169C458.682 135.665 456.193 135.37 453.732 134.339C451.825 133.543 450.222 136.222 452.144 137.202C454.693 138.504 457.487 139.468 460.284 140.058C462.821 140.596 463.81 136.666 461.267 136.169Z" fill="black"/>
<path d="M566.524 176.776C563.162 175.522 561.999 180.379 564.404 182.13C587.143 198.655 612.94 216.313 613.157 247.601C613.396 281.827 588.182 313.03 571.597 341.034C570.843 342.311 572.834 343.399 573.606 342.146C592.27 311.717 617.791 278.933 617.797 241.498C617.797 213.062 591.86 186.232 566.524 176.776Z" fill="black"/>
<path d="M518.614 169.882C551.895 189.63 590.37 209.189 592.137 252.918C593.485 286.146 576.148 319.607 559.794 347.432C559.735 347.541 559.698 347.642 559.673 347.735L559.645 347.913C559.645 347.913 559.88 348.27 560.272 348.866C560.741 349.099 561.349 349.053 561.685 348.472C579.636 318.148 596.543 283.283 594.958 247.189C593.262 208.604 554.832 176.634 520.474 165.174C517.633 164.235 516.213 168.453 518.614 169.882Z" fill="black"/>
</g>
<line x1="2" y1="230.5" x2="495" y2="230.5" stroke="black" stroke-width="3"/>
<defs>
<clipPath id="clip0_515_3273">
<rect width="377.222" height="309.544" fill="white" transform="translate(282.905) rotate(8.71552)"/>
</clipPath>
</defs>
</svg>
