<svg width="378" height="140" viewBox="0 0 378 140" fill="none" xmlns="http://www.w3.org/2000/svg">
<g clip-path="url(#clip0_176_7836)">
<path d="M368.554 57.0219C366.306 59.0131 363.974 61.1323 361.036 62.0366C359.589 56.2345 352.512 54.3389 349.794 49.0983C348.621 46.8317 344.508 38.0786 340.791 40.7902C332.821 46.6157 349.912 66.3635 342.643 75.3695C341.697 73.5773 343.54 69.1563 342.774 66.6544C341.442 62.3127 338.823 58.1323 336.293 54.3933C331.229 46.8823 322.531 45.0222 317.392 37.9898C302.341 17.3999 309.064 46.3073 311.886 45.8196C311.608 45.8712 308.873 33.9453 308.955 32.7282C315.126 35.1563 319.24 44.5797 322.448 49.977C326.462 56.7313 327.365 70.2276 334.661 74.5427C336.291 75.5117 342.045 78.6289 343.718 77.2628C345.756 75.5996 346.497 72.1546 346.488 69.6752C346.453 61.5006 341.533 53.9379 342.189 45.6599C342.657 46.7242 343.805 50.6699 343.733 50.3605C344.886 54.8755 351.017 70.2308 357.389 68.6447C361.24 67.6761 360.372 63.6953 363.314 62.1535C365.748 60.8429 367.936 57.5687 368.554 57.0219ZM352.737 52.9197C352.266 52.6434 352.266 52.6434 352.737 52.9197ZM310.05 38.6583C310.085 38.8047 310.085 38.8047 310.05 38.6583Z" fill="black" fill-opacity="0.1"/>
<path d="M315.655 58.3703C313.557 58.6164 314.43 69.066 314.07 70.7369C307.745 65.2107 300.931 71.6959 296.169 75.9631C293.244 78.5754 290.184 80.9031 286.27 81.7789C283.156 82.4708 272.916 79.1446 271.039 80.7541C269.585 81.9922 276.047 83.395 275.789 83.3435C279.952 84.1963 284.031 85.311 288.229 84.0308C292.429 82.7672 296.459 80.5526 300.76 79.6953C301.676 79.5135 304.42 82.2871 306.407 82.0884C309.831 81.7264 312.255 79.1267 313.844 76.2961C314.69 74.7488 318.813 58.0249 315.655 58.3703ZM302.361 78.5562C302.16 78.5645 302.16 78.5645 302.361 78.5562Z" fill="black" fill-opacity="0.1"/>
<path d="M270.92 81.8082C262.897 80.3832 254.181 81.9948 246.607 78.4017C243.329 76.8515 240.077 74.175 236.251 75.8779C231.185 78.1216 230.567 81.7523 224.568 81.4983C221.213 81.3487 217.628 81.8985 214.346 80.9857C210.488 79.8936 207.474 75.243 204.359 72.8511C194.78 65.4363 199.19 76.415 194.861 81.8682C189.72 88.3282 185.78 80.0227 181.942 76.6822C175.828 71.3642 166.222 68.5452 160.095 75.4304C158.274 77.4855 156.724 84.6519 153.279 83.9104C149.902 83.177 144.837 83.0238 142.503 80.1821C140.722 78.0085 139.465 74.2608 136.082 74.2825C132.383 74.7291 130.785 79.1026 128.742 81.6549C126.568 84.3742 122.975 85.1261 120.232 87.1794C117.396 89.2946 114.314 92.2617 110.504 91.1469C106.223 89.8899 103.929 89.7751 99.4935 90.0961C95.1243 90.4089 91.7173 86.6289 87.3343 89.3737C80.4494 93.689 77.344 91.2455 71.6529 85.9584C65.5842 80.333 60.2357 75.3716 55.8108 68.2833C52.0567 62.2674 45.6882 54.1153 37.4928 56.8014C28.1547 59.8653 29.7813 70.9747 30.854 78.4663C31.8875 85.6444 30.6246 92.0207 30.4203 99.0857C30.2771 103.696 31.4178 110.794 37.6037 107.32C43.9916 103.721 41.8213 88.4055 40.386 82.5683C38.6801 75.6421 35.3458 58.5285 47.3548 68.2198C51.0091 71.1643 54.1148 74.6804 57.3958 77.9901C61.6404 82.3021 67.2585 84.8664 71.6723 89.0566C74.165 91.426 76.8661 93.7189 80.1774 94.8628C83.7673 96.089 86.3492 92.8827 89.3442 91.6359C92.4672 90.3396 95.5725 92.3808 98.634 92.8687C101.745 93.3505 104.383 92.1987 107.505 93.1652C115.093 95.533 117.718 90.3939 124.186 87.5722C127.047 86.3254 129.919 85.1612 132.03 82.7513C132.484 82.2251 134.977 77.5048 136.027 77.9934C137.733 78.7685 139.189 83.4298 140.237 84.9745C142.21 87.8783 144.509 90.5736 147.115 92.912C151.589 96.9103 158.48 100.405 163.43 95.0915C168.111 90.0467 166.525 84.3458 166.206 78.3185C165.739 69.5107 178.86 76.8337 181.608 79.238C185.13 82.3331 188.429 88.3224 193.486 84.8059C195.784 83.2107 198.265 81.2071 198.856 78.3005C199.326 76.0292 197.875 72.8757 199.093 70.8291C202.198 69.3843 209.55 82.1732 210.649 83.46C215.144 88.696 230.901 97.1299 236.199 89.5106C237.733 87.3072 237.516 80.3619 240.021 79.4783C242.622 78.5658 246.369 81.5825 248.519 82.6875C252.552 84.78 256.923 83.5451 261.303 83.7171C264.369 83.8358 267.436 84.5074 270.453 85.0345C272.47 85.3516 272.977 82.1707 270.92 81.8082ZM240.219 79.0513C239.765 79.0411 239.765 79.0411 240.219 79.0513ZM239.954 78.9503C239.711 79.0143 239.711 79.0143 239.954 78.9503ZM239.831 78.7647C239.519 79.0886 239.519 79.0886 239.831 78.7647ZM203.414 72.5337C203.216 72.4245 203.216 72.4245 203.414 72.5337ZM189.927 84.4976C189.874 84.4708 189.7 84.4254 189.927 84.4976ZM166.913 75.3974C166.775 75.4986 166.377 75.9339 166.913 75.3974ZM166.836 75.3232C166.657 75.6306 166.657 75.6306 166.836 75.3232ZM166.655 75.6141C166.601 75.7214 166.315 75.9752 166.655 75.6141ZM156.829 84.2868C156.586 84.3508 156.586 84.3508 156.829 84.2868ZM136.727 78.4924C136.574 78.2098 136.574 78.2098 136.727 78.4924ZM82.5202 92.1557C82.2768 92.2197 82.2768 92.2197 82.5202 92.1557ZM65.0157 83.287C64.7805 83.1489 64.7805 83.1489 65.0157 83.287ZM40.7339 65.0101C40.113 65.0041 40.113 65.0041 40.7339 65.0101ZM31.9943 83.9549C31.9903 84.4583 31.9903 84.4583 31.9943 83.9549ZM61.4235 81.2398C62.0219 81.6006 60.7179 80.8254 61.4235 81.2398ZM197.314 75.2254C197.312 74.9407 197.306 75.1594 197.314 75.2254Z" fill="black" fill-opacity="0.1"/>
<path d="M36.0286 106.126C32.9834 104.832 29.3514 115.578 32.1717 116.682C34.9034 117.748 39.111 107.45 36.0286 106.126Z" fill="black" fill-opacity="0.1"/>
</g>
<defs>
<clipPath id="clip0_176_7836">
<rect width="382.919" height="92.9804" fill="white" transform="translate(0 47.6045) rotate(-7.14148)"/>
</clipPath>
</defs>
</svg>
