<svg width="73" height="75" viewBox="0 0 73 75" fill="none" xmlns="http://www.w3.org/2000/svg">
<g clip-path="url(#clip0_208_4540)">
<path d="M143.944 30.8456C139.681 31.6027 135.05 30.7465 131.026 32.6555C129.284 33.4792 127.556 34.9012 125.523 33.9965C122.832 32.8043 122.503 30.8753 119.316 31.0103C117.534 31.0897 115.629 30.7976 113.885 31.2826C111.835 31.8629 110.234 34.3338 108.579 35.6046C103.49 39.5442 105.832 33.7111 103.533 30.8137C100.801 27.3815 98.7074 31.7943 96.6682 33.5691C93.4197 36.3947 88.316 37.8924 85.0606 34.2342C84.093 33.1423 83.2698 29.3347 81.4393 29.7287C79.6449 30.1183 76.954 30.1997 75.7139 31.7096C74.7677 32.8645 74.0997 34.8556 72.3021 34.8441C70.3369 34.6068 69.4881 32.2831 68.4023 30.9271C67.2474 29.4822 65.3381 29.0827 63.8807 27.9918C62.3739 26.868 60.7368 25.2915 58.7121 25.8838C56.4376 26.5517 55.2188 26.6127 52.8622 26.4421C50.5408 26.2759 48.7306 28.2843 46.4019 26.8259C42.7438 24.5332 41.0939 25.8314 38.0701 28.6406C34.8457 31.6294 32.004 34.2654 29.653 38.0316C27.6583 41.2279 24.2746 45.5593 19.9203 44.1321C14.9589 42.5042 15.8231 36.6016 16.393 32.6212C16.9421 28.8074 16.2712 25.4195 16.1626 21.6658C16.0865 19.2163 16.6926 15.4453 19.9792 17.2908C23.3732 19.2032 22.2201 27.3404 21.4575 30.4417C20.5511 34.1217 18.7796 43.2144 25.1601 38.0653C27.1017 36.5008 28.7518 34.6327 30.4951 32.8742C32.7503 30.5832 35.7353 29.2207 38.0804 26.9944C39.4048 25.7355 40.8399 24.5173 42.5993 23.9095C44.5066 23.258 45.8785 24.9615 47.4698 25.624C49.129 26.3127 50.7789 25.2282 52.4056 24.969C54.0585 24.713 55.4602 25.325 57.1188 24.8115C61.1505 23.5534 62.545 26.2839 65.9819 27.7831C67.502 28.4455 69.0275 29.0641 70.1496 30.3445C70.3906 30.6241 71.7151 33.1321 72.273 32.8725C73.1796 32.4607 73.953 29.984 74.5101 29.1633C75.5583 27.6205 76.7798 26.1884 78.1644 24.946C80.5413 22.8216 84.2027 20.9651 86.8325 23.788C89.3199 26.4684 88.4772 29.4974 88.3076 32.6997C88.0597 37.3794 95.0307 33.4886 96.491 32.2112C98.3625 30.5667 100.115 27.3845 102.802 29.2529C104.023 30.1004 105.341 31.165 105.655 32.7093C105.905 33.916 105.134 35.5916 105.781 36.6789C107.431 37.4466 111.337 30.6517 111.921 29.968C114.309 27.186 122.681 22.7049 125.496 26.7532C126.311 27.9239 126.196 31.614 127.526 32.0835C128.908 32.5683 130.899 30.9655 132.042 30.3784C134.185 29.2667 136.507 29.9227 138.834 29.8314C140.463 29.7683 142.093 29.4115 143.695 29.1314C144.767 28.963 145.037 30.653 143.944 30.8456ZM127.632 32.3104C127.39 32.3158 127.39 32.3158 127.632 32.3104V32.3104ZM127.491 32.364C127.362 32.33 127.362 32.33 127.491 32.364V32.364ZM127.425 32.4627C127.26 32.2905 127.26 32.2905 127.425 32.4627V32.4627ZM108.077 35.7733C107.971 35.8313 107.971 35.8313 108.077 35.7733V35.7733ZM100.911 29.4167C100.791 29.455 100.883 29.4309 100.911 29.4167V29.4167ZM88.6831 34.2517C88.3982 33.9667 88.6097 34.198 88.6831 34.2517V34.2517ZM88.6425 34.2912C88.5472 34.1278 88.5472 34.1278 88.6425 34.2912V34.2912ZM88.5461 34.1366C88.3653 33.9448 88.5176 34.0796 88.5461 34.1366V34.1366ZM83.3257 29.5287C83.1964 29.4947 83.1964 29.4947 83.3257 29.5287V29.5287ZM72.6447 32.6074C72.5635 32.7575 72.5635 32.7575 72.6447 32.6074V32.6074ZM43.844 25.3478C43.7147 25.3138 43.7147 25.3138 43.844 25.3478V25.3478ZM34.5436 30.0599C34.4187 30.1333 34.4187 30.1333 34.5436 30.0599V30.0599ZM21.6424 39.7707C21.3125 39.7739 21.3125 39.7739 21.6424 39.7707V39.7707ZM16.9989 29.705C16.9968 29.4376 16.9968 29.4376 16.9989 29.705V29.705ZM32.6351 31.1476C32.2602 31.3678 32.953 30.9559 32.6351 31.1476V31.1476ZM104.836 34.3432C104.832 34.3782 104.835 34.4944 104.836 34.3432V34.3432Z" fill="black" fill-opacity="0.1"/>
<path d="M19.1427 17.9251C17.5247 18.6129 15.595 12.9034 17.0935 12.3164C18.5449 11.7502 20.7805 17.222 19.1427 17.9251Z" fill="black" fill-opacity="0.1"/>
</g>
<defs>
<clipPath id="clip0_208_4540">
<rect width="203.451" height="49.4019" fill="white" transform="matrix(0.992242 0.12432 0.12432 -0.992242 0 49.0186)"/>
</clipPath>
</defs>
</svg>
