<svg width="1094" height="2637" viewBox="0 0 1094 2637" fill="none" xmlns="http://www.w3.org/2000/svg">
<path fill-rule="evenodd" clip-rule="evenodd" d="M163.992 133.888C163.992 133.888 164.046 138.052 162.637 142.126C161.137 146.461 158.168 150.73 158.168 150.73L147 146.322C147 146.322 150.494 142.703 151.888 138.678C153.403 134.294 152.832 129.48 152.832 129.48L164 133.888H163.992Z" fill="#FED430"/>
<path fill-rule="evenodd" clip-rule="evenodd" d="M231.566 87.3638C231.566 87.3638 228.362 84.6847 226.153 80.7982C223.809 76.6616 222.457 71.3113 222.457 71.3113L232.974 64.5899C232.974 64.5899 233.499 69.9704 235.666 73.8022C238.033 77.9779 242.073 80.64 242.073 80.64L231.556 87.3614L231.566 87.3638Z" fill="#2496F0"/>
<path fill-rule="evenodd" clip-rule="evenodd" d="M132.934 1879.43C132.934 1879.43 135.663 1876.46 139.362 1874.67C143.298 1872.75 148.224 1872 148.224 1872L153.156 1883.59C153.156 1883.59 148.292 1883.48 144.636 1885.26C140.657 1887.19 137.86 1891.01 137.86 1891.01L132.929 1879.43L132.934 1879.43Z" fill="#FED430"/>
<path fill-rule="evenodd" clip-rule="evenodd" d="M614.283 1004.94C614.283 1004.94 611.225 1007.52 607.344 1008.8C603.214 1010.17 598.238 1010.25 598.238 1010.25L594.713 998.089C594.713 998.089 599.525 998.851 603.361 997.583C607.536 996.201 610.762 992.786 610.762 992.786L614.287 1004.94L614.283 1004.94Z" fill="#FED430"/>
<path fill-rule="evenodd" clip-rule="evenodd" d="M820.905 1042.1C820.905 1042.1 817.835 1041.24 815.135 1039.18C812.266 1036.99 809.761 1033.59 809.761 1033.59L815.391 1025.28C815.391 1025.28 817.31 1028.97 819.965 1031C822.862 1033.21 826.527 1033.78 826.527 1033.78L820.897 1042.1L820.905 1042.1Z" fill="#2496F0"/>
<path fill-rule="evenodd" clip-rule="evenodd" d="M705.867 1054.53C705.867 1054.53 710.008 1053.53 714.396 1054.2C719.067 1054.92 724 1057.32 724 1057.32L722.133 1070.97C722.133 1070.97 717.723 1067.83 713.393 1067.16C708.671 1066.44 704 1068.18 704 1068.18L705.867 1054.53Z" fill="#FF837E"/>
<path fill-rule="evenodd" clip-rule="evenodd" d="M93.8694 1632.33C93.8694 1632.33 96.9183 1631.39 100.224 1631.68C103.739 1631.99 107.516 1633.53 107.516 1633.53L106.664 1643.76C106.664 1643.76 103.249 1641.64 99.9946 1641.35C96.4459 1641.03 93.0242 1642.55 93.0242 1642.55L93.8754 1632.32L93.8694 1632.33Z" fill="#2496F0"/>
<path fill-rule="evenodd" clip-rule="evenodd" d="M67.7244 1711.99C67.7244 1711.99 64.9486 1715.43 61.0469 1717.67C56.8915 1720.07 51.5901 1721.27 51.5901 1721.27L45.5016 1709.11C45.5016 1709.11 50.7945 1708.83 54.6452 1706.61C58.8457 1704.2 61.6359 1699.83 61.6359 1699.83L67.7244 1711.99Z" fill="#FF837E"/>
<path fill-rule="evenodd" clip-rule="evenodd" d="M523.462 1773.76C523.462 1773.76 523.049 1769.62 524.1 1765.43C525.219 1760.96 527.807 1756.42 527.807 1756.42L539.308 1759.71C539.308 1759.71 536.141 1763.65 535.101 1767.8C533.971 1772.31 534.955 1777.05 534.955 1777.05L523.454 1773.77L523.462 1773.76Z" fill="#FED430"/>
<path fill-rule="evenodd" clip-rule="evenodd" d="M416.869 1685.79C416.869 1685.79 419.918 1684.84 423.224 1685.13C426.738 1685.45 430.515 1686.99 430.515 1686.99L429.664 1697.22C429.664 1697.22 426.249 1695.1 422.994 1694.81C419.446 1694.49 416.024 1696.01 416.024 1696.01L416.875 1685.78L416.869 1685.79Z" fill="#2496F0"/>
<path fill-rule="evenodd" clip-rule="evenodd" d="M506.724 1631.81C506.724 1631.81 503.948 1635.24 500.047 1637.49C495.891 1639.88 490.59 1641.09 490.59 1641.09L484.501 1628.93C484.501 1628.93 489.794 1628.65 493.645 1626.43C497.845 1624.01 500.636 1619.65 500.636 1619.65L506.724 1631.81Z" fill="#FF837E"/>
<path fill-rule="evenodd" clip-rule="evenodd" d="M987.948 2586.31C987.948 2586.31 990.38 2589.56 991.605 2593.7C992.908 2598.11 993.014 2603.43 993.014 2603.43L981.665 2607.27C981.665 2607.27 982.348 2602.12 981.138 2598.03C979.819 2593.57 976.605 2590.15 976.605 2590.15L987.954 2586.3L987.948 2586.31Z" fill="#FED430"/>
<path fill-rule="evenodd" clip-rule="evenodd" d="M932.724 2541.63C932.724 2541.63 929.948 2545.07 926.047 2547.32C921.891 2549.71 916.59 2550.91 916.59 2550.91L910.501 2538.75C910.501 2538.75 915.794 2538.48 919.645 2536.26C923.845 2533.84 926.636 2529.47 926.636 2529.47L932.724 2541.63Z" fill="#FF837E"/>
<path fill-rule="evenodd" clip-rule="evenodd" d="M839.724 2625.03C839.724 2625.03 836.948 2628.46 833.047 2630.71C828.891 2633.1 823.59 2634.31 823.59 2634.31L817.501 2622.14C817.501 2622.14 822.794 2621.87 826.645 2619.65C830.845 2617.23 833.636 2612.87 833.636 2612.87L839.724 2625.03Z" fill="#FF837E"/>
<path fill-rule="evenodd" clip-rule="evenodd" d="M108.934 2589.33C108.934 2589.33 111.663 2586.36 115.362 2584.57C119.298 2582.65 124.224 2581.9 124.224 2581.9L129.156 2593.49C129.156 2593.49 124.292 2593.38 120.636 2595.16C116.657 2597.09 113.86 2600.91 113.86 2600.91L108.929 2589.33L108.934 2589.33Z" fill="#FED430"/>
<path fill-rule="evenodd" clip-rule="evenodd" d="M388.536 2630.94C388.536 2630.94 387.386 2626.96 387.662 2622.63C387.957 2618.02 389.678 2613.03 389.678 2613.03L401.556 2613.88C401.556 2613.88 399.159 2618.41 398.885 2622.69C398.588 2627.36 400.407 2631.8 400.407 2631.8L388.529 2630.94L388.536 2630.94Z" fill="#FED430"/>
<path fill-rule="evenodd" clip-rule="evenodd" d="M274.724 2513.84C274.724 2513.84 271.948 2517.27 268.047 2519.52C263.891 2521.91 258.59 2523.12 258.59 2523.12L252.501 2510.95C252.501 2510.95 257.794 2510.68 261.645 2508.46C265.845 2506.04 268.636 2501.68 268.636 2501.68L274.724 2513.84Z" fill="#FF837E"/>
<path fill-rule="evenodd" clip-rule="evenodd" d="M14.9788 2514.98C14.9788 2514.98 17.9009 2518.27 19.6104 2522.64C21.4279 2527.3 22.0277 2533.06 22.0277 2533.06L10.1087 2538.34C10.1087 2538.34 10.3722 2532.68 8.68633 2528.37C6.849 2523.66 3.05986 2520.26 3.05986 2520.26L14.9788 2514.98Z" fill="#FF837E"/>
<path fill-rule="evenodd" clip-rule="evenodd" d="M252.724 1951.48C252.724 1951.48 249.948 1954.91 246.047 1957.16C241.891 1959.55 236.59 1960.76 236.59 1960.76L230.501 1948.59C230.501 1948.59 235.794 1948.32 239.645 1946.1C243.845 1943.68 246.636 1939.32 246.636 1939.32L252.724 1951.48Z" fill="#FF837E"/>
<path fill-rule="evenodd" clip-rule="evenodd" d="M580.992 1294.57C580.992 1294.57 581.046 1298.74 579.637 1302.81C578.137 1307.14 575.168 1311.41 575.168 1311.41L564 1307.01C564 1307.01 567.494 1303.39 568.888 1299.36C570.403 1294.98 569.832 1290.16 569.832 1290.16L581 1294.57H580.992Z" fill="#FED430"/>
<path fill-rule="evenodd" clip-rule="evenodd" d="M660.864 1215.71C660.864 1215.71 659.344 1218.69 656.825 1221C654.143 1223.45 650.459 1225.23 650.459 1225.23L644.263 1217.38C644.263 1217.38 648.075 1216.28 650.559 1214.01C653.266 1211.54 654.667 1207.88 654.667 1207.88L660.864 1215.72L660.864 1215.71Z" fill="#2496F0"/>
<path fill-rule="evenodd" clip-rule="evenodd" d="M492.48 1254.89C492.48 1254.89 492.152 1250.37 493.404 1245.82C494.739 1240.98 497.67 1236.11 497.67 1236.11L510.036 1240.04C510.036 1240.04 506.494 1244.26 505.258 1248.74C503.908 1253.64 504.846 1258.83 504.846 1258.83L492.48 1254.89Z" fill="#FF837E"/>
<path fill-rule="evenodd" clip-rule="evenodd" d="M759.724 1267.24C759.724 1267.24 756.948 1270.67 753.047 1272.92C748.891 1275.31 743.59 1276.51 743.59 1276.51L737.501 1264.35C737.501 1264.35 742.794 1264.08 746.645 1261.86C750.845 1259.44 753.636 1255.07 753.636 1255.07L759.724 1267.24Z" fill="#FF837E"/>
<path fill-rule="evenodd" clip-rule="evenodd" d="M941.752 114.429C941.752 114.429 945.876 118.61 948.41 124.346C951.106 130.45 952.229 138.141 952.229 138.141L936.456 146.223C936.456 146.223 936.508 138.603 934.005 132.934C931.277 126.764 925.987 122.502 925.987 122.502L941.76 114.42L941.752 114.429Z" fill="#FED430"/>
<path fill-rule="evenodd" clip-rule="evenodd" d="M927.854 2.72849C927.854 2.72849 933.326 3.56126 938.377 6.5529C943.743 9.74268 948.697 15.0962 948.697 15.0962L940.457 30.7555C940.457 30.7555 936.464 24.7608 931.497 21.8035C926.078 18.5847 919.627 18.3833 919.627 18.3833L927.868 2.72403L927.854 2.72849Z" fill="#2496F0"/>
<path fill-rule="evenodd" clip-rule="evenodd" d="M1075.87 80.5519C1075.87 80.5519 1080.01 79.5561 1084.4 80.2277C1089.07 80.9457 1094 83.3465 1094 83.3465L1092.13 96.9952C1092.13 96.9952 1087.72 93.8532 1083.39 93.1893C1078.67 92.4637 1074 94.2006 1074 94.2006L1075.87 80.5519Z" fill="#FF837E"/>
<path fill-rule="evenodd" clip-rule="evenodd" d="M707.23 248.084C707.23 248.084 708.145 251.322 707.811 254.861C707.455 258.627 705.848 262.717 705.848 262.717L695.522 262.119C695.522 262.119 697.708 258.403 698.039 254.906C698.398 251.097 696.911 247.484 696.911 247.484L707.236 248.082L707.23 248.084Z" fill="#FED430"/>
<path fill-rule="evenodd" clip-rule="evenodd" d="M610.966 353.092C610.966 353.092 611.52 349.75 613.22 346.699C615.032 343.457 617.994 340.502 617.994 340.502L626.208 345.791C626.208 345.791 622.922 348.148 621.242 351.148C619.413 354.421 619.178 358.373 619.178 358.373L610.964 353.084L610.966 353.092Z" fill="#2496F0"/>
<path fill-rule="evenodd" clip-rule="evenodd" d="M819.623 292.294C819.623 292.294 817.365 295.423 814.05 297.548C810.519 299.809 805.913 301.065 805.913 301.065L799.878 290.559C799.878 290.559 804.527 290.123 807.799 288.026C811.368 285.741 813.587 281.789 813.587 281.789L819.623 292.294Z" fill="#FF837E"/>
</svg>
