<svg width="414" height="2834" viewBox="0 0 414 2834" fill="none" xmlns="http://www.w3.org/2000/svg">
<path fill-rule="evenodd" clip-rule="evenodd" d="M172.227 61.5299C172.227 61.5299 172.244 62.6559 171.804 63.7577C171.337 64.9299 170.411 66.0844 170.411 66.0844L166.929 64.8925C166.929 64.8925 168.018 63.9139 168.453 62.8253C168.925 61.6399 168.747 60.338 168.747 60.338L172.229 61.5299H172.227Z" fill="#FED430"/>
<path fill-rule="evenodd" clip-rule="evenodd" d="M28.9133 27.5884C28.9133 27.5884 26.7465 28.3161 24.3452 28.2492C21.7919 28.1745 19 27.3053 19 27.3053L19.2097 20.5916C19.2097 20.5916 21.7631 21.8501 24.1273 21.9209C26.7053 21.9957 29.1189 20.8787 29.1189 20.8787L28.9092 27.5924L28.9133 27.5884Z" fill="#2496F0"/>
<path fill-rule="evenodd" clip-rule="evenodd" d="M159.655 52.1958C159.655 52.1958 158.176 51.8078 156.875 50.8801C155.492 49.8916 154.286 48.3619 154.286 48.3619L156.998 44.6129C156.998 44.6129 157.923 46.2762 159.202 47.1924C160.598 48.1901 162.364 48.4475 162.364 48.4475L159.651 52.1965L159.655 52.1958Z" fill="#2496F0"/>
<path fill-rule="evenodd" clip-rule="evenodd" d="M90.2502 53.2847C90.2502 53.2847 92.2456 52.8359 94.3599 53.1386C96.6108 53.4622 98.9876 54.5442 98.9876 54.5442L98.088 60.6957C98.088 60.6957 95.9632 59.2796 93.8768 58.9804C91.6015 58.6533 89.3506 59.4362 89.3506 59.4362L90.2502 53.2847Z" fill="#FF837E"/>
<path fill-rule="evenodd" clip-rule="evenodd" d="M136.907 0.542375C136.907 0.542375 138.458 1.05852 139.775 2.13703C141.178 3.2861 142.349 5.00518 142.349 5.00518L139.167 8.83572C139.167 8.83572 138.307 6.99243 137.007 5.92783C135.589 4.76629 133.725 4.37292 133.725 4.37292L136.907 0.542375Z" fill="#FF837E"/>
<path fill-rule="evenodd" clip-rule="evenodd" d="M351.098 401.289C351.098 401.289 352.585 402.699 353.499 404.634C354.471 406.692 354.876 409.287 354.876 409.287L349.189 412.013C349.189 412.013 349.207 409.442 348.305 407.53C347.321 405.449 345.413 404.012 345.413 404.012L351.101 401.286L351.098 401.289Z" fill="#FED430"/>
<path fill-rule="evenodd" clip-rule="evenodd" d="M346.087 363.613C346.087 363.613 348.06 363.894 349.882 364.903C351.817 365.979 353.603 367.785 353.603 367.785L350.631 373.067C350.631 373.067 349.192 371.045 347.401 370.047C345.447 368.961 343.12 368.894 343.12 368.894L346.092 363.612L346.087 363.613Z" fill="#2496F0"/>
<path fill-rule="evenodd" clip-rule="evenodd" d="M399.461 389.862C399.461 389.862 400.955 389.527 402.537 389.753C404.221 389.995 406 390.805 406 390.805L405.327 395.409C405.327 395.409 403.737 394.349 402.175 394.125C400.473 393.88 398.788 394.466 398.788 394.466L399.461 389.862Z" fill="#FF837E"/>
<path fill-rule="evenodd" clip-rule="evenodd" d="M128.286 436.163C128.286 436.163 128.901 438.196 128.677 440.419C128.437 442.784 127.358 445.353 127.358 445.353L120.425 444.977C120.425 444.977 121.892 442.644 122.115 440.447C122.356 438.055 121.357 435.786 121.357 435.786L128.29 436.161L128.286 436.163Z" fill="#FED430"/>
<path fill-rule="evenodd" clip-rule="evenodd" d="M63.6486 502.113C63.6486 502.113 64.0203 500.014 65.1618 498.098C66.3787 496.062 68.3673 494.206 68.3673 494.206L73.8827 497.528C73.8827 497.528 71.6766 499.008 70.5485 500.892C69.3205 502.948 69.1626 505.43 69.1626 505.43L63.6472 502.108L63.6486 502.113Z" fill="#2496F0"/>
<path fill-rule="evenodd" clip-rule="evenodd" d="M203.754 463.929C203.754 463.929 202.238 465.894 200.012 467.229C197.642 468.649 194.549 469.437 194.549 469.437L190.496 462.839C190.496 462.839 193.618 462.565 195.815 461.249C198.211 459.813 199.701 457.331 199.701 457.331L203.754 463.929Z" fill="#FF837E"/>
<path fill-rule="evenodd" clip-rule="evenodd" d="M292.895 83.0938C292.895 83.0938 292.923 85.1325 292.186 87.1275C291.401 89.2499 289.846 91.3404 289.846 91.3404L284 89.1822C284 89.1822 285.829 87.4102 286.559 85.4391C287.352 83.2928 287.053 80.9355 287.053 80.9355L292.899 83.0938H292.895Z" fill="#FED430"/>
<path fill-rule="evenodd" clip-rule="evenodd" d="M328.269 60.3141C328.269 60.3141 326.591 59.0023 325.435 57.0993C324.208 55.0739 323.5 52.4542 323.5 52.4542L329.006 49.1632C329.006 49.1632 329.28 51.7977 330.415 53.6738C331.654 55.7184 333.769 57.0219 333.769 57.0219L328.263 60.3129L328.269 60.3141Z" fill="#2496F0"/>
<path fill-rule="evenodd" clip-rule="evenodd" d="M248.044 1229.83C248.044 1229.83 246.164 1231.32 243.778 1232.06C241.238 1232.84 238.179 1232.89 238.179 1232.89L236.011 1225.89C236.011 1225.89 238.97 1226.33 241.329 1225.6C243.896 1224.81 245.879 1222.85 245.879 1222.85L248.047 1229.84L248.044 1229.83Z" fill="#FED430"/>
<path fill-rule="evenodd" clip-rule="evenodd" d="M375.085 1251.21C375.085 1251.21 373.198 1250.71 371.537 1249.53C369.773 1248.27 368.233 1246.31 368.233 1246.31L371.695 1241.53C371.695 1241.53 372.874 1243.65 374.507 1244.82C376.288 1246.09 378.542 1246.42 378.542 1246.42L375.08 1251.21L375.085 1251.21Z" fill="#2496F0"/>
<path fill-rule="evenodd" clip-rule="evenodd" d="M304.354 1258.35C304.354 1258.35 306.901 1257.78 309.598 1258.16C312.471 1258.58 315.503 1259.96 315.503 1259.96L314.356 1267.81C314.356 1267.81 311.644 1266 308.982 1265.62C306.079 1265.2 303.207 1266.2 303.207 1266.2L304.354 1258.35Z" fill="#FF837E"/>
<path fill-rule="evenodd" clip-rule="evenodd" d="M133.028 1334.04C133.028 1334.04 133.053 1336.19 132.39 1338.3C131.684 1340.54 130.286 1342.75 130.286 1342.75L125.03 1340.47C125.03 1340.47 126.675 1338.6 127.33 1336.51C128.043 1334.25 127.775 1331.75 127.775 1331.75L133.031 1334.04H133.028Z" fill="#FED430"/>
<path fill-rule="evenodd" clip-rule="evenodd" d="M170.619 1293.22C170.619 1293.22 169.904 1294.77 168.718 1295.96C167.456 1297.23 165.722 1298.15 165.722 1298.15L162.806 1294.09C162.806 1294.09 164.6 1293.52 165.769 1292.35C167.043 1291.07 167.703 1289.17 167.703 1289.17L170.619 1293.23L170.619 1293.22Z" fill="#2496F0"/>
<path fill-rule="evenodd" clip-rule="evenodd" d="M91.3688 1313.5C91.3688 1313.5 91.2147 1311.16 91.8038 1308.81C92.4323 1306.3 93.8115 1303.78 93.8115 1303.78L99.6315 1305.82C99.6315 1305.82 97.9647 1308 97.3829 1310.32C96.7477 1312.85 97.1888 1315.54 97.1888 1315.54L91.3688 1313.5Z" fill="#FF837E"/>
<path fill-rule="evenodd" clip-rule="evenodd" d="M217.148 1319.89C217.148 1319.89 215.841 1321.67 214.005 1322.83C212.049 1324.07 209.554 1324.69 209.554 1324.69L206.688 1318.4C206.688 1318.4 209.18 1318.25 210.992 1317.11C212.969 1315.85 214.282 1313.6 214.282 1313.6L217.148 1319.89Z" fill="#FF837E"/>
<path fill-rule="evenodd" clip-rule="evenodd" d="M82.0498 1938.56C82.0498 1938.56 83.8259 1938.05 85.7514 1938.21C87.7988 1938.38 89.999 1939.22 89.999 1939.22L89.5032 1944.79C89.5032 1944.79 87.5135 1943.64 85.6179 1943.48C83.5507 1943.3 81.5574 1944.13 81.5574 1944.13L82.0533 1938.56L82.0498 1938.56Z" fill="#2496F0"/>
<path fill-rule="evenodd" clip-rule="evenodd" d="M66.8198 1981.97C66.8198 1981.97 65.2028 1983.84 62.93 1985.06C60.5094 1986.37 57.4212 1987.02 57.4212 1987.02L53.8745 1980.4C53.8745 1980.4 56.9578 1980.25 59.2009 1979.04C61.6478 1977.72 63.2731 1975.34 63.2731 1975.34L66.8198 1981.97Z" fill="#FF837E"/>
<path fill-rule="evenodd" clip-rule="evenodd" d="M385.038 2170.32C385.038 2170.32 384.769 2167.8 385.453 2165.24C386.183 2162.52 387.869 2159.75 387.869 2159.75L395.365 2161.75C395.365 2161.75 393.301 2164.16 392.624 2166.69C391.887 2169.44 392.528 2172.32 392.528 2172.32L385.033 2170.32L385.038 2170.32Z" fill="#FED430"/>
<path fill-rule="evenodd" clip-rule="evenodd" d="M315.567 2116.69C315.567 2116.69 317.554 2116.11 319.708 2116.29C321.999 2116.48 324.461 2117.42 324.461 2117.42L323.906 2123.66C323.906 2123.66 321.68 2122.37 319.559 2122.19C317.246 2122 315.016 2122.92 315.016 2122.92L315.571 2116.68L315.567 2116.69Z" fill="#2496F0"/>
<path fill-rule="evenodd" clip-rule="evenodd" d="M374.129 2083.78C374.129 2083.78 372.32 2085.88 369.777 2087.25C367.069 2088.71 363.613 2089.44 363.613 2089.44L359.645 2082.03C359.645 2082.03 363.095 2081.86 365.605 2080.51C368.342 2079.03 370.161 2076.37 370.161 2076.37L374.129 2083.78Z" fill="#FF837E"/>
<path fill-rule="evenodd" clip-rule="evenodd" d="M75.7175 2831.47C75.7175 2831.47 75.0212 2829.21 75.1882 2826.76C75.3667 2824.15 76.4089 2821.32 76.4089 2821.32L83.5995 2821.81C83.5995 2821.81 82.1482 2824.37 81.9823 2826.8C81.8028 2829.44 82.9037 2831.95 82.9037 2831.95L75.713 2831.47L75.7175 2831.47Z" fill="#FED430"/>
<path fill-rule="evenodd" clip-rule="evenodd" d="M6.81824 2765.16C6.81824 2765.16 5.13779 2767.1 2.77577 2768.38C0.260239 2769.73 -2.94914 2770.41 -2.94914 2770.41L-6.635 2763.53C-6.635 2763.53 -3.43075 2763.37 -1.09962 2762.11C1.44326 2760.74 3.13237 2758.27 3.13237 2758.27L6.81824 2765.16Z" fill="#FF837E"/>
<path fill-rule="evenodd" clip-rule="evenodd" d="M215.982 2179.72C215.982 2179.72 217.634 2178.03 219.873 2177.01C222.256 2175.93 225.238 2175.51 225.238 2175.51L228.224 2182.07C228.224 2182.07 225.279 2182.01 223.066 2183.01C220.657 2184.11 218.964 2186.27 218.964 2186.27L215.979 2179.71L215.982 2179.72Z" fill="#FED430"/>
<path fill-rule="evenodd" clip-rule="evenodd" d="M288.5 2220.51C288.5 2220.51 286.819 2222.45 284.457 2223.73C281.942 2225.08 278.733 2225.76 278.733 2225.76L275.047 2218.88C275.047 2218.88 278.251 2218.72 280.582 2217.46C283.125 2216.09 284.814 2213.62 284.814 2213.62L288.5 2220.51Z" fill="#FF837E"/>
<path fill-rule="evenodd" clip-rule="evenodd" d="M405.662 2754.16C405.662 2754.16 403.982 2756.1 401.62 2757.38C399.104 2758.73 395.895 2759.41 395.895 2759.41L392.209 2752.53C392.209 2752.53 395.413 2752.37 397.745 2751.11C400.288 2749.74 401.977 2747.27 401.977 2747.27L405.662 2754.16Z" fill="#FF837E"/>
<path fill-rule="evenodd" clip-rule="evenodd" d="M349.362 2801.38C349.362 2801.38 347.682 2803.32 345.32 2804.6C342.804 2805.95 339.595 2806.63 339.595 2806.63L335.909 2799.75C335.909 2799.75 339.113 2799.59 341.444 2798.33C343.987 2796.96 345.676 2794.49 345.676 2794.49L349.362 2801.38Z" fill="#FF837E"/>
</svg>
