<svg width="394" height="225" viewBox="0 0 394 225" fill="none" xmlns="http://www.w3.org/2000/svg">
<path d="M252.926 211.872C250.885 217.756 245.724 216.848 241.417 217.447C239.213 217.751 237.424 216.335 236.117 214.372C233.279 210.118 230.68 209.262 225.772 211.063C218.813 213.621 211.453 214.296 204.251 215.65C202.271 216.021 199.858 215.579 197.974 214.757C188.572 210.659 178.837 210.203 168.807 211.178C164.275 211.62 159.558 211.762 155.108 210.992C151.33 210.336 147.815 208.188 144.195 206.671C143.493 206.377 142.878 205.683 142.182 205.621C136.01 205.074 129.776 204.071 123.656 205.188C119.716 205.906 116.043 207.983 112.156 209.153C109.638 209.913 106.971 210.374 104.343 210.541C98.1998 210.935 92.2089 209.561 86.1847 208.616C78.7868 207.456 71.3746 206.377 63.9433 205.455C61.4631 205.146 58.8683 205.155 56.3928 205.488C46.6816 206.79 37.1135 204.628 27.4642 204.385C23.8583 204.295 20.2428 202.184 16.7561 200.701C14.6765 199.817 12.8115 198.401 10.9084 197.136C9.29145 196.062 9.27237 194.669 10.4791 193.258C11.1326 192.492 11.8242 191.718 12.635 191.133C14.9055 189.503 17.1568 187.806 19.5894 186.446C22.8233 184.635 24.8456 182.059 26.6486 178.817C29.7156 173.304 32.8588 167.571 37.1659 163.07C41.6638 158.374 47.3207 154.666 53.3688 151.814C62.5172 147.503 70.6496 141.747 78.2765 135.087C88.5219 126.132 96.6448 115.471 104.739 104.695C110.038 97.6413 114.455 90.0123 117.947 82.0649C121.142 74.7829 125.454 68.5704 130.729 62.8713C133.219 60.1809 135.871 57.5334 138.838 55.4087C147.843 48.9585 154.86 40.5975 161.952 32.2888C165.086 28.6193 168.115 24.8595 171.33 21.266C172.842 19.5739 174.678 18.1622 176.381 16.6364C177.096 15.9947 178.155 15.6382 177.487 14.2455C176.92 13.0572 177.788 12.1541 178.813 11.9449C182.028 11.2795 185.267 10.6615 188.529 10.3526C189.612 10.248 190.957 10.9135 191.897 11.6074C194.735 13.6989 197.644 14.3501 201.198 13.5895C204.899 12.8005 208.744 12.6959 212.531 12.3109C215.803 11.9782 218.612 13.3804 220.868 15.3815C224.756 18.8276 228.553 22.4401 231.901 26.3948C234.152 29.0566 235.855 32.2936 237.281 35.502C239.852 41.2962 242.347 47.0762 245.771 52.4759C249.606 58.5173 254.028 64.0548 259.06 69.0648C264.631 74.6118 270.646 79.712 276.355 85.1212C281.893 90.3688 287.841 95.0746 293.941 99.6567C297.776 102.537 300.843 106.416 302.04 111.288C304.444 121.056 310.454 128.594 317.437 135.344C320.184 138.001 323.599 140.268 327.544 141.29C338.195 144.043 346.451 150.455 353.182 158.768C358.185 164.947 364.443 168.864 371.831 171.302C374.727 172.258 377.712 172.999 380.503 174.188C386.279 176.645 391.859 179.559 394.95 185.391C396.701 188.695 399.925 189.755 402.892 190.891C406.517 192.279 410.481 192.754 414.258 193.781C415.651 194.161 416.925 194.983 418.141 195.554C418.227 197.873 417.282 199.028 415.451 199.489C413.61 199.95 412.379 201.029 411.406 202.674C410.099 204.889 407.981 205.502 405.401 205.987C396.787 207.594 388.158 205.906 379.577 206.624C374.521 207.047 369.48 207.674 364.429 208.154C360.641 208.511 356.854 208.924 353.057 209.015C351.617 209.048 350.129 208.335 348.722 207.803C347.782 207.446 346.957 206.795 346.07 206.296C340.971 203.42 337.999 203.301 334.093 207.613C330.02 212.109 325.288 212.984 319.717 212.903C313.75 212.817 307.75 213.644 301.806 213.321C297.17 213.069 292.591 211.686 287.998 210.759C286.629 210.484 285.289 210.065 283.948 209.675C280.414 208.649 277.457 209.609 274.9 212.161C274.285 212.775 273.565 213.53 272.787 213.682C268.552 214.5 264.302 215.308 260.014 215.76C258.817 215.888 257.438 214.904 256.246 214.248C255.153 213.663 254.214 212.817 252.926 211.872ZM183.078 91.0295C184.733 90.8394 185.744 88.1348 188.01 90.0456C190.332 92.004 192.665 93.7532 191.358 96.8095C192.927 98.5159 194.234 99.9371 195.474 101.282C195.822 99.5236 196.008 97.6271 196.6 95.8636C197.306 93.7579 199.352 93.1495 201.198 94.3711C202.619 95.3122 203.64 96.5861 203.545 98.4636C203.502 99.3525 203.535 100.241 203.535 101.135C204.088 100.489 204.141 99.8658 204.074 99.2527C203.95 98.1071 203.626 96.7097 205.081 96.4007C205.786 96.2534 206.726 97.1327 207.532 97.5938C208.105 97.917 208.634 98.3115 209.211 98.6965C208.725 93.8292 208.057 89.2281 207.866 84.6079C207.67 79.9022 207.275 75.0443 210.513 70.5478C215.498 74.2838 214.491 80.5391 217.41 84.9454C217.639 83.3911 217.482 81.9508 217.258 80.5248C217.024 79.0276 216.328 77.478 216.547 76.0615C217.129 72.3493 217.992 68.6702 218.965 65.034C219.404 63.3846 219.976 61.065 222.089 61.2599C224.16 61.45 224.708 63.7364 225.304 65.5473C225.342 65.6662 225.352 65.7945 225.371 65.9229C226.33 72.297 227.279 78.6711 228.271 85.0404C228.376 85.7154 228.748 86.3523 229.02 87.0653C231.968 85.0452 232.616 85.0309 234.353 87.6928C235.43 89.3469 236.218 91.2577 236.78 93.1542C237.214 94.623 237.381 96.0965 239.156 97.1517C238.722 93.2731 236.718 89.0047 242.328 87.3363C243.782 88.9571 245.099 90.4306 246.825 92.3557C246.93 91.1769 247.135 90.5732 247.007 90.0456C246.182 86.6138 245.418 83.1534 244.364 79.7881C243.639 77.4733 242.671 75.2202 243.315 72.777C243.615 71.6505 244.088 70.1057 244.946 69.6874C246.42 68.9697 247.479 70.4194 248.318 71.5222C249.239 72.7343 249.907 74.1365 250.861 75.3153C252.85 77.7727 253.861 80.4345 253.87 83.6763C253.88 87.1224 255.091 90.3023 257.829 93.3206C257.829 92.3272 257.762 91.8328 257.839 91.3623C258.435 87.707 260.319 86.9085 263.248 89.0332C265.07 90.3546 266.92 91.6475 268.766 92.9641C269.611 91.2672 270.712 91.3908 271.976 92.1846C274.466 93.7389 275.973 95.9872 276.923 98.7251C277.476 100.322 278.32 101.824 279.117 103.535C281.225 102.276 282.851 101.306 284.554 100.289C282.074 98.4494 279.422 96.8618 277.223 94.7989C267.407 85.6013 257.724 76.2612 247.984 66.9876C242.452 61.721 239.132 54.9666 235.535 48.4356C233.408 44.5665 232.015 40.2981 230.179 36.2673C228.495 32.5693 226.606 28.9853 223.516 26.1809C221.636 24.4745 219.576 22.8869 218.049 20.9048C216.103 18.3808 213.723 17.4492 210.742 17.858C208.238 18.2002 205.691 18.5424 203.292 19.2934C200.745 20.0872 198.303 20.3724 195.846 19.341C193.514 18.3618 191.239 17.2543 188.973 16.123C186.65 14.9632 185.529 15.1771 185.133 17.549C184.766 19.745 183.354 20.7004 181.818 21.8317C178.804 24.0467 175.684 26.1666 174.22 29.8932C173.824 30.9056 173.075 32.3126 172.231 32.5217C169.293 33.2537 168.101 35.7207 166.379 37.6648C162.258 42.323 158.265 47.0952 154.044 51.6631C152.427 53.417 150.429 54.8668 148.444 56.231C140.589 61.6259 134.259 68.4991 128.774 76.1946C127.944 77.3544 127.496 78.7852 126.866 80.0876C128.378 79.2462 129.389 77.5446 130.605 77.3829C134.97 76.8031 136.344 73.1525 138.652 70.4337C140.364 68.4136 141.972 66.2984 143.78 64.3638C146.284 61.6782 148.907 59.1067 151.516 56.5257C152.508 55.5465 153.529 54.5531 154.698 53.8211C155.208 53.5026 156.305 53.5691 156.796 53.9304C157.245 54.2584 157.431 55.2328 157.364 55.884C157.288 56.6017 156.887 57.3385 156.458 57.9564C154.44 60.8606 152.337 63.7126 150.314 66.6168C149.05 68.4326 147.867 70.3054 146.651 72.1496C147.595 72.1306 147.991 71.7408 148.349 71.3178C151.545 67.5342 154.664 63.6888 157.941 59.9765C160.698 56.8536 164.099 54.2964 166.021 50.4463C166.374 49.738 167.294 49.2009 168.067 48.8349C170.414 47.7226 171.745 48.6828 171.33 51.2733C171.005 53.3077 170.371 55.2946 169.722 57.9184C171.659 56.288 173.128 55.1092 174.525 53.8543C176.228 52.3286 177.836 52.1147 179.295 53.8686C180.34 58.8262 178.232 62.8713 175.971 66.6454C177.163 67.2015 178.709 67.4296 179.038 68.1854C179.615 69.5116 179.453 71.1609 179.572 72.3683C180.95 72.7295 182.61 72.6772 183.431 73.4805C185.281 75.2963 186.297 77.7157 185.701 80.4108C184.914 83.9805 183.965 87.5121 183.087 91.0628C182.939 93.4062 182.787 95.7448 182.639 98.0881C182.944 98.0881 183.245 98.0881 183.55 98.0881C183.388 95.7162 183.23 93.3729 183.078 91.0295ZM17.7578 194.727C22.6992 197.925 27.5262 199.408 32.8874 199.242C34.9194 199.18 36.9608 199.285 38.9975 199.361C42.9278 199.504 46.8533 199.741 50.7884 199.822C56.7744 199.946 62.7986 199.551 68.7322 200.145C76.5594 200.93 84.3531 202.232 92.0802 203.724C100.618 205.374 108.76 204.67 116.63 201.001C119.807 199.518 123.15 198.952 126.637 199.042C130.329 199.138 134.025 199.285 137.717 199.252C141.38 199.218 144.695 200.098 147.882 201.947C153.515 205.222 159.601 206.458 166.159 205.873C171.468 205.402 176.82 205.217 182.148 205.231C187.938 205.25 193.352 207.332 198.856 208.853C200.549 209.319 202.414 210.051 204.026 209.752C210.008 208.649 215.932 207.209 221.856 205.816C229.006 204.138 235.912 203.111 241.221 210.07C242.967 212.356 244.612 212.142 246.205 209.367C247.803 206.586 250.093 206.234 252.711 206.847C254.543 207.275 256.527 207.86 257.958 208.991C259.852 210.488 261.664 210.27 263.658 209.842C265.709 209.405 267.998 209.737 269.544 207.731C271.204 205.573 273.732 204.604 276.241 204.523C279.761 204.409 283.343 204.704 286.82 205.288C292.167 206.187 297.208 208.663 302.861 208.078C306.266 207.727 309.71 207.784 313.139 207.651C315.81 207.546 318.486 207.256 321.148 207.37C323.828 207.484 325.56 206.301 327.377 204.475C333.258 198.572 340.012 197.312 347.505 201.519C351.235 203.615 354.76 204.081 358.791 203.23C370.815 200.692 382.94 200.217 395.198 201.167C398.113 201.395 401.156 200.236 404.108 199.584C404.566 199.485 404.867 198.676 405.334 198.068C401.657 196.499 398.137 195.088 394.698 193.505C391.611 192.088 389.203 189.892 387.729 186.755C387.3 185.847 386.851 184.787 386.093 184.222C382.945 181.888 379.887 179.445 375.938 178.347C372.027 177.263 368.154 175.923 364.438 174.297C359.077 171.954 353.94 169.13 349.847 164.824C348.102 162.989 346.642 160.883 344.93 159.011C340.718 154.409 336.173 150.212 330.239 147.855C326.705 146.448 322.956 145.426 319.655 143.596C308.742 137.535 300.996 128.556 296.121 117.096C295.639 115.96 295.129 114.558 294.189 113.95C291.418 112.148 289.706 109.52 287.774 107C286.891 105.85 285.661 104.961 284.778 104.134C284.039 104.362 283.762 104.372 283.591 104.515C279.121 108.227 275.244 105.503 274.223 101.007C273.922 99.6757 273.35 98.4066 272.878 97.0377C269.191 99.7137 267.851 99.4761 266.052 95.664C265.022 93.4822 263.31 92.7692 260.863 91.9517C261.459 93.7722 262.031 94.9415 262.17 96.1583C262.256 96.8998 261.893 98.0121 261.335 98.4208C260.772 98.8344 259.594 98.8724 258.907 98.573C257.891 98.1309 256.99 97.3228 256.184 96.5291C252.592 92.9736 250.746 88.6814 250.613 83.5955C250.503 79.4078 249.439 77.5065 246.224 75.0634C247.445 79.1987 249.287 83.1296 249.611 87.1842C249.945 91.3813 253.045 95.2789 250.97 100.142C245.657 99.69 245.232 94.0431 241.665 91.2434C241.665 94.6848 241.665 97.6888 241.665 100.469C239.16 102.01 237.467 101.097 236.38 99.3715C235.254 97.589 234.615 95.5119 233.704 93.5868C233.179 92.4793 233.675 90.7253 231.629 90.2833C231.629 91.8328 231.515 93.2255 231.653 94.5945C231.887 96.9093 230.694 97.0994 228.758 96.7667C227.212 91.6142 225.242 86.6993 224.842 81.3139C224.484 76.5036 223.668 71.7408 222.023 66.5788C221.436 67.6388 221.069 68.1474 220.859 68.7083C219.371 72.7485 219.199 76.8268 220.253 81.0287C220.635 82.5497 220.573 84.2657 220.325 85.8295C220.067 87.4503 218.865 88.5436 217.129 88.6196C215.359 88.6957 214.3 87.6072 213.819 86.0101C213.308 84.3179 212.951 82.5735 212.459 80.8766C212.24 80.1256 211.849 79.4221 211.534 78.6948C210.776 85.0309 210.547 91.1816 212.307 97.2753C213.466 101.287 211.439 103.169 207.151 102.252C206.945 103.093 206.745 103.935 206.54 104.781C206.182 106.259 205.057 106.772 203.712 106.905C202.166 107.062 201.327 106.154 201.012 104.776C200.735 103.55 200.554 102.295 200.435 101.045C200.32 99.8516 200.33 98.649 200.287 97.4464C199.304 97.8029 198.794 98.2497 198.727 98.7631C198.575 99.8848 198.851 101.092 198.584 102.171C198.107 104.096 197.563 106.064 196.619 107.785C196.209 108.531 194.764 108.84 193.733 109.016C193.509 109.054 192.941 107.69 192.703 106.92C192.259 105.494 191.945 104.03 191.592 102.642C187.404 102.67 186.631 101.701 187.633 97.9218C187.862 97.0662 188.262 96.2153 188.291 95.355C188.31 94.7466 187.838 94.1192 187.58 93.5012C186.741 94.4614 186.583 95.3835 186.397 96.3009C185.944 98.5254 185.625 100.788 184.976 102.951C184.437 104.752 183.168 105.945 180.464 105.693C180.039 103.051 179.009 100.298 179.3 97.6889C179.915 92.1846 181.174 86.7516 182.276 81.3091C182.658 79.4316 182.839 77.7157 181.189 75.6813C180.006 78.538 179.023 80.9622 177.998 83.3673C176.51 86.8609 175.031 90.3641 173.457 93.8245C172.408 96.125 171.344 98.4446 170.008 100.584C169.016 102.176 167.6 103.526 164.938 102.537C165.291 94.1857 168.926 86.8324 172.055 78.7186C171.201 79.4221 170.843 79.6122 170.633 79.9117C169.632 81.3044 168.253 82.0079 166.693 81.3044C164.8 80.4536 164.929 78.5285 165.391 76.9694C165.926 75.1727 166.727 73.3665 167.8 71.8359C169.975 68.7225 172.465 65.8278 174.726 62.7762C176.004 61.046 176.963 59.1447 176.181 56.2262C174.535 57.8043 173.29 59.1637 171.873 60.314C166.67 64.5444 162.339 69.3785 160.121 75.8667C159.639 77.2784 158.685 78.538 157.912 79.8451C156.815 81.6941 155.656 83.5099 154.564 85.3589C153.791 86.6708 153.338 88.2774 152.298 89.2994C149.871 91.676 148.578 94.6658 146.975 97.5367C144.743 101.525 141.667 104.781 137.584 106.777C135.619 105.323 136.677 103.958 137.088 102.756C140.116 93.91 145.101 86.1052 150.495 78.5713C155.141 72.0878 160.049 65.785 164.814 59.3824C165.53 58.4175 166.093 57.3385 166.722 56.3118C164.356 57.7187 162.129 59.1685 160.493 61.1173C156.171 66.2556 152.15 71.6363 147.92 76.8506C146.656 78.4096 145.187 79.8404 143.632 81.1095C143.117 81.5325 141.905 81.5516 141.247 81.2521C140.255 80.8005 139.959 79.8689 140.531 78.6948C142.082 75.5102 143.532 72.278 145.005 69.0552C145.33 68.347 145.597 67.6103 145.893 66.883C145.649 66.7452 145.411 66.6073 145.168 66.4695C143.603 68.7368 142.139 71.0754 140.455 73.2476C138.251 76.0901 136.52 79.5219 132.351 80.1493C131.707 80.2444 130.978 80.8338 130.596 81.4042C129.756 82.6496 129.113 84.028 128.392 85.3542C127 87.9114 125.874 91.001 123.065 92.0467C120.732 92.9118 119.602 94.3663 118.524 96.2581C112.781 106.326 105.865 115.556 98.1759 124.212C94.9897 127.801 91.5889 131.204 88.2357 134.645C82.5502 140.473 76.5546 145.949 69.4238 149.994C64.7971 152.622 59.9654 154.889 55.3053 157.466C45.947 162.637 38.2487 169.62 33.9654 179.507C31.5138 185.168 27.531 188.747 22.3797 191.547C20.8724 192.378 19.5274 193.5 17.7578 194.727ZM140.942 100.161C141.185 100.313 141.423 100.465 141.667 100.617C142.759 98.8344 143.894 97.0757 144.934 95.2694C145.821 93.7341 146.274 91.7996 147.495 90.6398C151.473 86.8609 152.818 81.4422 156.243 77.3402C156.954 76.4846 157.187 75.2345 157.641 74.165C151.039 82.2836 144.905 90.5685 140.942 100.161ZM171.745 87.0225C172.012 87.1651 172.284 87.3077 172.551 87.4503C173.915 84.817 175.665 82.3453 175.56 79.0799C174.287 81.7274 173.018 84.375 171.745 87.0225ZM170.91 73.6326C170.695 73.5376 170.481 73.4425 170.266 73.3474C169.851 74.3123 169.441 75.282 169.026 76.2469C169.226 76.3277 169.431 76.4085 169.632 76.4941C170.056 75.5434 170.485 74.588 170.91 73.6326Z" fill="#FFEB9B"/>
</svg>
