<?xml version="1.0" encoding="UTF-8"?>
<svg xmlns="http://www.w3.org/2000/svg" version="1.1" viewBox="0 0 1335 8699">
  <defs>
    <style>
      .cls-1 {
        fill: #fff;
      }

      .cls-1, .cls-2, .cls-3, .cls-4 {
        fill-rule: evenodd;
      }

      .cls-2 {
        fill: #fed430;
      }

      .cls-3 {
        fill: #2496f0;
      }

      .cls-4 {
        fill: #ff837e;
      }
    </style>
  </defs>
  <!-- Generator: Adobe Illustrator 28.7.1, SVG Export Plug-In . SVG Version: 1.2.0 Build 142)  -->
  <g>
    <g id="_圖層_1" data-name="圖層_1">
      <path class="cls-2" d="M58,119.1s0,3.9-1.4,7.7c-1.5,4.1-4.5,8-4.5,8l-11.2-4.1s3.5-3.4,4.9-7.2c1.5-4.1.9-8.6.9-8.6l11.2,4.1h0Z"/>
      <path class="cls-2" d="M231,478.5s0,2.3-.9,4.6c-1,2.4-2.9,4.8-2.9,4.8l-7.2-2.5s2.3-2,3.2-4.3c1-2.5.6-5.2.6-5.2l7.2,2.5h0Z"/>
      <path class="cls-2" d="M1206,161.6s2.4,0,4.7.9c2.4,1,4.9,2.9,4.9,2.9l-2.5,7.2s-2-2.2-4.3-3.1c-2.5-1-5.2-.6-5.2-.6l2.5-7.2h0Z"/>
      <path class="cls-2" d="M1237.8,53.4s3.7,3.5,5.8,8.5c2.3,5.2,3,11.9,3,11.9l-15,7.3s.3-6.6-1.8-11.5c-2.3-5.3-7.1-8.9-7.1-8.9l15-7.3h0Z"/>
      <path class="cls-2" d="M87.8,386.8s3.7,3.5,5.8,8.5c2.3,5.2,3,11.9,3,11.9l-15,7.3s.3-6.6-1.8-11.5c-2.3-5.3-7.1-8.9-7.1-8.9l15-7.3h0Z"/>
      <path class="cls-2" d="M1216.2,780.8s3.7,3.5,5.8,8.5c2.3,5.2,3,11.9,3,11.9l-15,7.3s.3-6.6-1.8-11.5c-2.3-5.3-7.1-8.9-7.1-8.9l15-7.3h0Z"/>
      <path class="cls-2" d="M1246.9,411.3s.9,3,.6,6.3c-.4,3.5-2,7.3-2,7.3l-10.3-.6s2.2-3.5,2.5-6.7c.4-3.6-1.1-6.9-1.1-6.9l10.3.6h0Z"/>
      <path class="cls-2" d="M1294.4,1217.2s1.9,2.5,2.8,5.7c.9,3.4.8,7.6.8,7.6l-9.8,3.2s.8-4,0-7.2c-1-3.4-3.6-6.1-3.6-6.1l9.8-3.2h0Z"/>
      <path class="cls-2" d="M1130.9,1937.7s-1-3-.8-6.3c.2-3.5,1.7-7.4,1.7-7.4l10.3.2s-2.1,3.5-2.3,6.8c-.2,3.6,1.3,6.9,1.3,6.9l-10.3-.2h0Z"/>
      <path class="cls-2" d="M1251.2,2322.9s-2.3-2.2-3.6-5.2c-1.4-3.2-1.9-7.4-1.9-7.4l9.3-4.6s-.2,4.1,1.1,7.1c1.4,3.3,4.4,5.5,4.4,5.5l-9.3,4.6h0Z"/>
      <path class="cls-2" d="M41.1,2966s-2.3-2.2-3.6-5.2c-1.4-3.2-1.9-7.4-1.9-7.4l9.3-4.6s-.2,4.1,1.1,7.1c1.4,3.3,4.4,5.5,4.4,5.5l-9.3,4.6h0Z"/>
      <path class="cls-2" d="M25.1,895s-2.3-2.2-3.6-5.2c-1.4-3.2-1.9-7.4-1.9-7.4l9.3-4.6s-.2,4.1,1.1,7.1c1.4,3.3,4.4,5.5,4.4,5.5l-9.3,4.6h0Z"/>
      <path class="cls-2" d="M29.1,1952s-2.3-2.2-3.6-5.2c-1.4-3.2-1.9-7.4-1.9-7.4l9.3-4.6s-.2,4.1,1.1,7.1c1.4,3.3,4.4,5.5,4.4,5.5l-9.3,4.6h0Z"/>
      <path class="cls-2" d="M13.1,3816s-2.3-2.2-3.6-5.2c-1.4-3.2-1.9-7.4-1.9-7.4l9.3-4.6s-.2,4.1,1.1,7.1c1.4,3.3,4.4,5.5,4.4,5.5l-9.3,4.6h0Z"/>
      <path class="cls-2" d="M52.1,4973s-2.3-2.2-3.6-5.2c-1.4-3.2-1.9-7.4-1.9-7.4l9.3-4.6s-.2,4.1,1.1,7.1c1.4,3.3,4.4,5.5,4.4,5.5l-9.3,4.6h0Z"/>
      <path class="cls-2" d="M1269.1,3348.5s-2.3-2.2-3.6-5.2c-1.4-3.2-1.9-7.4-1.9-7.4l9.3-4.6s-.2,4.1,1.1,7.1c1.5,3.3,4.4,5.5,4.4,5.5l-9.3,4.6h0Z"/>
      <path class="cls-2" d="M1295.4,4216.5s-2.3-2.2-3.6-5.2c-1.4-3.2-1.9-7.4-1.9-7.4l9.3-4.6s-.2,4.1,1.1,7.1c1.4,3.3,4.4,5.5,4.4,5.5l-9.3,4.6h0Z"/>
      <path class="cls-2" d="M1251.9,4682.5s1.8,2.6,2.5,5.8c.8,3.5.4,7.6.4,7.6l-10,2.7s1-4,.3-7.2c-.8-3.5-3.2-6.2-3.2-6.2l10-2.7h0Z"/>
      <path class="cls-2" d="M1306.7,718.2s.9,3,.6,6.3c-.4,3.5-2,7.3-2,7.3l-10.3-.6s2.2-3.5,2.5-6.7c.4-3.6-1.1-6.9-1.1-6.9l10.3.6h0Z"/>
      <path class="cls-2" d="M1284.6,989.6s2,2.5,2.8,5.7c.9,3.4.8,7.6.8,7.6l-9.8,3.2s.8-4,0-7.2c-1-3.4-3.6-6.1-3.6-6.1l9.8-3.2h0Z"/>
      <path class="cls-2" d="M1297.1,1953.1s-1-3-.8-6.3c.2-3.5,1.7-7.4,1.7-7.4l10.3.2s-2.1,3.5-2.3,6.8c-.2,3.6,1.3,6.9,1.3,6.9l-10.3-.2h0Z"/>
      <path class="cls-2" d="M1294.8,2626.2s-2.3-2.2-3.6-5.2c-1.4-3.2-1.9-7.4-1.9-7.4l9.3-4.6s-.2,4.1,1.1,7.1c1.4,3.3,4.4,5.5,4.4,5.5l-9.3,4.6h0Z"/>
      <path class="cls-2" d="M37.1,3126.5s-2.3-2.2-3.6-5.2c-1.4-3.2-1.9-7.4-1.9-7.4l9.3-4.6s-.2,4.1,1.1,7.1c1.4,3.3,4.4,5.5,4.4,5.5l-9.3,4.6h0Z"/>
      <path class="cls-2" d="M21.1,1055.5s-2.3-2.2-3.6-5.2c-1.4-3.2-1.9-7.4-1.9-7.4l9.3-4.6s-.2,4.1,1.1,7.1c1.4,3.3,4.4,5.5,4.4,5.5l-9.3,4.6h0Z"/>
      <path class="cls-2" d="M25.1,2112.5s-2.3-2.2-3.6-5.2c-1.4-3.2-1.9-7.4-1.9-7.4l9.3-4.6s-.2,4.1,1.1,7.1c1.4,3.3,4.4,5.5,4.4,5.5l-9.3,4.6h0Z"/>
      <path class="cls-2" d="M9.1,3976.5s-2.3-2.2-3.6-5.2c-1.4-3.2-1.9-7.4-1.9-7.4l9.3-4.6s-.2,4.1,1.1,7.1c1.4,3.3,4.4,5.5,4.4,5.5l-9.3,4.6h0Z"/>
      <path class="cls-2" d="M48.1,5133.5s-2.3-2.2-3.6-5.2c-1.4-3.2-1.9-7.4-1.9-7.4l9.3-4.6s-.2,4.1,1.1,7.1c1.4,3.3,4.4,5.5,4.4,5.5l-9.3,4.6h0Z"/>
      <path class="cls-2" d="M1291.5,3112.4s-2.3-2.2-3.6-5.2c-1.4-3.2-1.9-7.4-1.9-7.4l9.3-4.6s-.2,4.1,1.1,7.1c1.4,3.3,4.4,5.5,4.4,5.5l-9.3,4.6h0Z"/>
      <path class="cls-2" d="M1317.8,3980.4s-2.3-2.2-3.6-5.2c-1.4-3.2-1.9-7.4-1.9-7.4l9.3-4.6s-.2,4.1,1.1,7.1c1.4,3.3,4.4,5.5,4.4,5.5l-9.3,4.6h0Z"/>
      <path class="cls-2" d="M1183.5,4909.7s1.8,2.6,2.5,5.9c.8,3.5.4,7.6.4,7.6l-10,2.7s1-4,.3-7.2c-.8-3.5-3.2-6.2-3.2-6.2l10-2.7h0Z"/>
      <path class="cls-3" d="M143.4,168.1s-4.5,1.5-9.5,1.4c-5.3-.2-11.1-2-11.1-2l.4-13.9s5.3,2.6,10.2,2.8c5.4.2,10.4-2.2,10.4-2.2l-.4,13.9h0Z"/>
      <path class="cls-3" d="M113.9,236.9s-3.1-.8-5.8-2.7c-2.9-2.1-5.4-5.2-5.4-5.2l5.6-7.8s1.9,3.5,4.6,5.4c2.9,2.1,6.6,2.6,6.6,2.6l-5.6,7.8h0Z"/>
      <path class="cls-3" d="M136.3,463.4s3.2-.2,6.3.9c3.4,1.1,6.7,3.4,6.7,3.4l-3,9.1s-2.9-2.7-6-3.7c-3.4-1.1-7-.5-7-.5l3-9.1h0Z"/>
      <path class="cls-3" d="M1215.7,310.2s2.4,2,4.1,4.9c1.7,3.1,2.7,7,2.7,7l-8.4,4.7s-.3-3.9-1.9-6.8c-1.8-3.1-4.9-5.1-4.9-5.1l8.4-4.7h0Z"/>
      <path class="cls-3" d="M1228.7,1134.3s3,1,5.6,3.1c2.7,2.2,5,5.5,5,5.5l-6.1,7.4s-1.7-3.6-4.2-5.6c-2.8-2.2-6.4-3-6.4-3l6.1-7.4h0Z"/>
      <path class="cls-3" d="M1154.3,2056.9s-2.5-1.9-4.2-4.8c-1.8-3-2.9-6.9-2.9-6.9l8.2-5s.4,3.9,2.1,6.7c1.8,3,5,4.9,5,4.9l-8.2,5h0Z"/>
      <path class="cls-3" d="M1216.6,2784.5s-3.1-.5-6-2.2c-3-1.8-5.8-4.8-5.8-4.8l5-8.2s2.2,3.3,5,5c3.1,1.8,6.7,2,6.7,2l-5,8.2h0Z"/>
      <path class="cls-3" d="M117.2,3060.6s-3.1-.5-6-2.2c-3-1.8-5.8-4.8-5.8-4.8l5-8.2s2.2,3.3,5,5c3,1.8,6.7,2,6.7,2l-5,8.2h0Z"/>
      <path class="cls-3" d="M101.2,989.6s-3.1-.5-6-2.2c-3-1.8-5.8-4.8-5.8-4.8l5-8.2s2.2,3.3,5,5c3.1,1.8,6.7,2,6.7,2l-5,8.2h0Z"/>
      <path class="cls-3" d="M105.2,2046.7s-3.1-.6-6-2.2c-3-1.8-5.8-4.8-5.8-4.8l5-8.2s2.2,3.3,5,5c3,1.8,6.7,2,6.7,2l-5,8.2h0Z"/>
      <path class="cls-3" d="M89.2,3910.6s-3.1-.5-6-2.2c-3-1.8-5.8-4.8-5.8-4.8l5-8.2s2.2,3.3,5,5c3.1,1.8,6.7,2,6.7,2l-5,8.2h0Z"/>
      <path class="cls-3" d="M128.2,4720.6s-3.1-.5-6-2.2c-3-1.8-5.8-4.8-5.8-4.8l5-8.2s2.2,3.3,5,5c3.1,1.8,6.7,2,6.7,2l-5,8.2h0Z"/>
      <path class="cls-3" d="M1213.2,3270.6s-3.1-.5-6-2.2c-3-1.8-5.8-4.8-5.8-4.8l5-8.2s2.2,3.3,5,5c3.1,1.8,6.7,2,6.7,2l-5,8.2h0Z"/>
      <path class="cls-3" d="M1239.5,4138.6s-3.1-.5-6-2.2c-3-1.8-5.8-4.8-5.8-4.8l5-8.2s2.2,3.3,5,5c3.1,1.8,6.7,2,6.7,2l-5,8.2h0Z"/>
      <path class="cls-3" d="M1291.4,4422.9s2.9,1.1,5.4,3.4c2.6,2.4,4.7,5.8,4.7,5.8l-6.5,7.1s-1.5-3.6-3.9-5.8c-2.6-2.4-6.2-3.3-6.2-3.3l6.5-7.1h0Z"/>
      <path class="cls-3" d="M1280.5,150.6s-3.1-.8-5.8-2.7c-2.9-2.1-5.4-5.2-5.4-5.2l5.6-7.8s1.9,3.5,4.6,5.4c2.9,2.1,6.6,2.6,6.6,2.6l-5.6,7.8h0Z"/>
      <path class="cls-3" d="M38.8,524s-3.2-2.5-5.4-6.1c-2.3-3.9-3.7-8.9-3.7-8.9l10.5-6.3s.5,5,2.7,8.6c2.4,3.9,6.4,6.4,6.4,6.4l-10.5,6.3h0Z"/>
      <path class="cls-3" d="M1270.1,564.3s-3.2-2.5-5.4-6.1c-2.3-3.9-3.7-8.9-3.7-8.9l10.5-6.3s.5,5,2.7,8.6c2.4,3.9,6.4,6.4,6.4,6.4l-10.5,6.3h0Z"/>
      <path class="cls-3" d="M1225.6,1396.8s-3.9-1.2-7.3-3.8c-3.6-2.8-6.7-6.9-6.7-6.9l7.5-9.7s2.3,4.5,5.6,7c3.6,2.8,8.3,3.6,8.3,3.6l-7.5,9.7h0Z"/>
      <path class="cls-3" d="M1190.7,1856s3.3,2.4,5.6,6c2.5,3.8,4,8.8,4,8.8l-10.3,6.6s-.7-5-3-8.5c-2.5-3.8-6.6-6.2-6.6-6.2l10.3-6.6h0Z"/>
      <path class="cls-3" d="M1266.2,2222.7s4,.6,7.7,2.7c3.9,2.2,7.6,5.9,7.6,5.9l-6.1,10.6s-2.9-4.1-6.6-6.2c-4-2.2-8.7-2.4-8.7-2.4l6.1-10.6h0Z"/>
      <path class="cls-3" d="M56.1,2865.9s4,.6,7.7,2.7c3.9,2.2,7.6,5.9,7.6,5.9l-6.1,10.7s-2.9-4.1-6.6-6.2c-4-2.2-8.7-2.4-8.7-2.4l6.1-10.6h0Z"/>
      <path class="cls-3" d="M40.1,794.9s4,.6,7.7,2.7c3.9,2.2,7.6,5.9,7.6,5.9l-6.1,10.7s-2.9-4.1-6.6-6.2c-4-2.2-8.7-2.4-8.7-2.4l6.1-10.7h0Z"/>
      <path class="cls-3" d="M44.1,1851.9s4,.6,7.7,2.7c3.9,2.2,7.6,5.9,7.6,5.9l-6.1,10.7s-2.9-4.1-6.6-6.2c-4-2.2-8.7-2.4-8.7-2.4l6.1-10.7h0Z"/>
      <path class="cls-3" d="M28.1,3715.9s4,.6,7.7,2.7c3.9,2.2,7.6,5.9,7.6,5.9l-6.1,10.7s-2.9-4.1-6.6-6.2c-4-2.2-8.7-2.4-8.7-2.4l6.1-10.6h0Z"/>
      <path class="cls-3" d="M67.1,4525.9s4,.6,7.7,2.7c3.9,2.2,7.6,5.9,7.6,5.9l-6.1,10.6s-2.9-4.1-6.6-6.2c-4-2.2-8.7-2.4-8.7-2.4l6.1-10.6h0Z"/>
      <path class="cls-3" d="M1224.3,3042.2s4,.6,7.7,2.7c3.9,2.2,7.6,5.9,7.6,5.9l-6,10.6s-2.9-4.1-6.6-6.2c-4-2.2-8.7-2.4-8.7-2.4l6.1-10.6h0Z"/>
      <path class="cls-3" d="M1250.6,3910.2s4,.6,7.7,2.7c3.9,2.2,7.6,5.9,7.6,5.9l-6.1,10.6s-2.9-4.1-6.6-6.2c-4-2.2-8.7-2.4-8.7-2.4l6-10.6h0Z"/>
      <path class="cls-3" d="M1235.6,4644.6s-3.8-1.4-7-4.1c-3.4-3-6.3-7.3-6.3-7.3l8-9.2s2.1,4.6,5.2,7.4c3.5,3,8.1,4.1,8.1,4.1l-8,9.2h0Z"/>
      <path class="cls-3" d="M1292.6,5499.9s-3.8-1.4-7-4.2c-3.4-2.9-6.3-7.3-6.3-7.3l8-9.2s2.1,4.6,5.2,7.4c3.5,3,8.1,4.1,8.1,4.1l-8,9.2h0Z"/>
      <path class="cls-3" d="M1234.5,5924.1s-.6,4-2.7,7.7c-2.2,4-5.9,7.6-5.9,7.6l-10.7-6s4.1-2.9,6.2-6.6c2.2-4,2.4-8.7,2.4-8.7l10.7,6h0Z"/>
      <path class="cls-3" d="M108.4,7079.2s-.6,4-2.7,7.8c-2.2,4-5.9,7.6-5.9,7.6l-10.7-6s4.1-2.9,6.2-6.6c2.2-4,2.4-8.7,2.4-8.7l10.7,6h0Z"/>
      <path class="cls-3" d="M1255.6,6394.7s-3.6,1.8-7.9,2.3c-4.5.5-9.6-.4-9.6-.4l-1.3-12.2s4.8,1.6,8.9,1.2c4.5-.5,8.5-3.1,8.5-3.1l1.3,12.2h0Z"/>
      <path class="cls-3" d="M91.1,6714.7s-3.6,1.8-7.9,2.3c-4.5.5-9.6-.4-9.6-.4l-1.3-12.2s4.8,1.6,8.9,1.2c4.5-.5,8.5-3.1,8.5-3.1l1.3,12.2h0Z"/>
      <path class="cls-3" d="M1265.4,6648.2s.4,4.1-.7,8.2c-1.2,4.4-3.9,8.8-3.9,8.8l-11.8-3.3s3.3-3.9,4.4-7.9c1.2-4.4.2-9,.2-9l11.8,3.3h0Z"/>
      <path class="cls-3" d="M1229,6870.9s.4,4.1-.7,8.2c-1.2,4.4-3.9,8.8-3.9,8.8l-11.8-3.3s3.3-3.8,4.4-7.9c1.2-4.4.2-9,.2-9l11.8,3.3h0Z"/>
      <path class="cls-3" d="M54.5,7391.4s.4,4.1-.7,8.2c-1.2,4.4-3.9,8.8-3.9,8.8l-11.8-3.3s3.3-3.8,4.4-7.9c1.2-4.4.2-9,.2-9l11.8,3.3h0Z"/>
      <path class="cls-3" d="M1258.3,6999.5s-4,.6-8.2-.2c-4.4-.9-9-3.4-9-3.4l2.6-12s4,3,8.1,3.9c4.5.9,9-.3,9-.3l-2.6,12h0Z"/>
      <path class="cls-3" d="M1288.5,7476.6s-4,.6-8.2-.2c-4.4-.9-9-3.3-9-3.3l2.6-12s4,3,8.1,3.9c4.5.9,9-.3,9-.3l-2.6,12h0Z"/>
      <path class="cls-3" d="M78.5,7836.6s-4,.6-8.2-.2c-4.4-.9-9-3.3-9-3.3l2.6-12s4,3,8.1,3.9c4.5.9,9-.3,9-.3l-2.6,12h0Z"/>
      <path class="cls-3" d="M1222.5,8125.6s-4,.6-8.2-.2c-4.4-.9-9-3.3-9-3.3l2.6-12s4,3,8.1,3.9c4.5.9,9-.3,9-.3l-2.6,12h0Z"/>
      <path class="cls-3" d="M91.5,8245.6s-4,.6-8.2-.2c-4.4-.9-9-3.3-9-3.3l2.6-12s4,3.1,8.1,3.9c4.5.9,9-.3,9-.3l-2.6,12h0Z"/>
      <path class="cls-3" d="M73.7,5581.5s-3.8-1.4-7.1-4.2c-3.4-2.9-6.3-7.3-6.3-7.3l8-9.2s2.1,4.6,5.2,7.4c3.5,3,8.1,4.1,8.1,4.1l-8,9.2h0Z"/>
      <path class="cls-3" d="M31.4,6124.9s-3.8-1.4-7.1-4.2c-3.4-2.9-6.3-7.3-6.3-7.3l8-9.2s2.1,4.6,5.2,7.4c3.5,3,8.1,4.1,8.1,4.1l-8,9.2h0Z"/>
      <path class="cls-3" d="M88.4,5819.9s-3.8-1.4-7.1-4.2c-3.4-2.9-6.3-7.3-6.3-7.3l8-9.2s2.1,4.6,5.2,7.4c3.5,3,8.1,4.1,8.1,4.1l-8,9.2h0Z"/>
      <path class="cls-3" d="M1247.5,5182.5s-3.8-1.4-7.1-4.2c-3.4-2.9-6.3-7.3-6.3-7.3l8-9.2s2.1,4.6,5.2,7.4c3.5,3,8.1,4.1,8.1,4.1l-8,9.2h0Z"/>
      <path class="cls-3" d="M1226.4,5679.9s-3.8-1.4-7.1-4.2c-3.4-2.9-6.3-7.3-6.3-7.3l8-9.2s2.1,4.6,5.2,7.4c3.5,3,8.1,4.1,8.1,4.1l-8,9.2h0Z"/>
      <path class="cls-4" d="M87.1,585.9s4.1-.9,8.5-.3c4.7.7,9.6,2.9,9.6,2.9l-1.9,12.8s-4.4-2.9-8.7-3.6c-4.7-.7-9.4.9-9.4.9l1.9-12.8Z"/>
      <path class="cls-4" d="M1134.3,42.8s2.2.7,4.1,2.2c2,1.6,3.7,4.1,3.7,4.1l-4.6,5.7s-1.2-2.6-3.1-4.2c-2-1.6-4.7-2.2-4.7-2.2l4.6-5.7Z"/>
      <path class="cls-4" d="M1241.9,253.3s1.4,1.8,2.1,4.1c.8,2.5.7,5.5.7,5.5l-7,2.1s.5-2.9-.2-5.2c-.8-2.5-2.7-4.4-2.7-4.4l7-2.1Z"/>
      <path class="cls-4" d="M1232.5,1071.7s2,1.2,3.5,3.1c1.6,2,2.7,4.8,2.7,4.8l-5.7,4.5s-.6-2.9-2.1-4.8c-1.6-2.1-4.1-3.2-4.1-3.2l5.7-4.5Z"/>
      <path class="cls-4" d="M1277.8,1771.8s-1.5-1.8-2.3-4.1c-.8-2.5-.9-5.4-.9-5.4l6.9-2.3s-.4,2.9.4,5.2c.8,2.5,2.8,4.3,2.8,4.3l-6.9,2.3Z"/>
      <path class="cls-4" d="M1193.4,2474.7s-2.2-.9-3.9-2.6c-1.9-1.8-3.3-4.4-3.3-4.4l5-5.3s1,2.8,2.7,4.4c1.9,1.8,4.5,2.5,4.5,2.5l-5,5.3Z"/>
      <path class="cls-4" d="M94,2750.8s-2.2-.9-3.9-2.6c-1.9-1.8-3.3-4.4-3.3-4.4l5-5.3s1,2.8,2.7,4.4c1.9,1.8,4.5,2.5,4.5,2.5l-5,5.3Z"/>
      <path class="cls-4" d="M78,679.8s-2.2-.9-3.9-2.6c-1.9-1.8-3.3-4.4-3.3-4.4l5-5.3s1,2.7,2.7,4.4c1.9,1.8,4.5,2.5,4.5,2.5l-5,5.3Z"/>
      <path class="cls-4" d="M82,1736.8s-2.2-.9-3.9-2.6c-1.9-1.8-3.3-4.4-3.3-4.4l5-5.3s1,2.8,2.7,4.4c1.9,1.8,4.5,2.5,4.5,2.5l-5,5.3Z"/>
      <path class="cls-4" d="M66,3600.8s-2.2-.9-3.9-2.6c-1.9-1.8-3.3-4.4-3.3-4.4l5-5.3s1,2.8,2.7,4.4c1.9,1.8,4.5,2.5,4.5,2.5l-5,5.3Z"/>
      <path class="cls-4" d="M105,4410.8s-2.2-.9-3.9-2.6c-1.9-1.8-3.3-4.4-3.3-4.4l5-5.3s1,2.8,2.7,4.4c1.9,1.8,4.5,2.5,4.5,2.5l-5,5.3Z"/>
      <path class="cls-4" d="M1190,2960.8s-2.2-.9-3.9-2.6c-1.9-1.8-3.3-4.4-3.3-4.4l5-5.3s1,2.8,2.7,4.4c1.9,1.8,4.5,2.5,4.5,2.5l-5,5.3Z"/>
      <path class="cls-4" d="M1216.3,3828.8s-2.2-.9-3.9-2.6c-1.9-1.8-3.3-4.4-3.3-4.4l5-5.3s1,2.8,2.7,4.4c1.9,1.8,4.5,2.5,4.5,2.5l-5,5.3Z"/>
      <path class="cls-4" d="M1253.2,4731.2s1.9,1.3,3.3,3.3c1.5,2.1,2.4,5,2.4,5l-6,4.2s-.4-2.9-1.8-4.9c-1.5-2.1-3.9-3.4-3.9-3.4l6-4.2Z"/>
      <path class="cls-4" d="M1285,5011.7s1.9,1.3,3.3,3.3c1.5,2.1,2.4,4.9,2.4,4.9l-6,4.2s-.4-2.9-1.8-4.9c-1.5-2.1-3.9-3.4-3.9-3.4l6-4.2Z"/>
      <path class="cls-4" d="M1220.8,645s1.4,1.8,2.1,4.1c.7,2.5.7,5.4.7,5.4l-7,2.1s.5-2.9-.2-5.2c-.8-2.5-2.7-4.4-2.7-4.4l7-2.1Z"/>
      <path class="cls-4" d="M1209.6,465.6s-2.3,2.9-5.6,4.9c-3.5,2.1-8.1,3.3-8.1,3.3l-6-9.8s4.7-.4,7.9-2.4c3.6-2.1,5.8-5.8,5.8-5.8l6,9.8Z"/>
      <path class="cls-4" d="M1279.4,1281.3s-1.1,3.5-3.4,6.6c-2.5,3.2-6.4,6-6.4,6l-9.2-7s4.2-2.1,6.5-5.1c2.5-3.3,3.3-7.5,3.3-7.5l9.2,7Z"/>
      <path class="cls-4" d="M1234.5,2068.7s2.2-3,5.4-5.1c3.5-2.2,8-3.5,8-3.5l6.3,9.6s-4.6.6-7.8,2.6c-3.5,2.2-5.6,6-5.6,6l-6.3-9.6Z"/>
      <path class="cls-4" d="M1293.2,2757.7s.5-3.7,2.4-7c2-3.6,5.5-6.9,5.5-6.9l10.1,5.6s-3.8,2.6-5.7,6c-2,3.6-2.2,7.9-2.2,7.9l-10.1-5.6Z"/>
      <path class="cls-4" d="M44,3240.9s.5-3.7,2.4-7c2-3.6,5.5-6.9,5.5-6.9l10.1,5.6s-3.8,2.6-5.7,6c-2.1,3.6-2.2,7.9-2.2,7.9l-10.1-5.6Z"/>
      <path class="cls-4" d="M28,1169.9s.5-3.7,2.4-7c2-3.6,5.5-6.9,5.5-6.9l10.1,5.6s-3.8,2.6-5.7,6c-2.1,3.6-2.2,7.9-2.2,7.9l-10.1-5.6Z"/>
      <path class="cls-4" d="M32,2226.9s.5-3.7,2.4-7c2-3.6,5.5-6.9,5.5-6.9l10.1,5.6s-3.8,2.6-5.7,6c-2.1,3.6-2.2,7.9-2.2,7.9l-10.1-5.6Z"/>
      <path class="cls-4" d="M16,4090.9s.5-3.7,2.4-7c2-3.6,5.5-6.9,5.5-6.9l10.1,5.6s-3.8,2.6-5.7,6c-2.1,3.6-2.2,7.9-2.2,7.9l-10.1-5.6Z"/>
      <path class="cls-4" d="M55,4900.9s.5-3.7,2.4-7c2-3.6,5.5-6.9,5.5-6.9l10.1,5.6s-3.8,2.6-5.7,6c-2.1,3.6-2.2,7.9-2.2,7.9l-10.1-5.6Z"/>
      <path class="cls-4" d="M48,6240.9s.5-3.7,2.4-7c2-3.6,5.5-6.9,5.5-6.9l10.1,5.6s-3.8,2.6-5.7,6c-2.1,3.6-2.2,7.9-2.2,7.9l-10.1-5.6Z"/>
      <path class="cls-4" d="M41,5887.9s.5-3.7,2.4-7c2-3.6,5.5-6.9,5.5-6.9l10.1,5.6s-3.8,2.6-5.7,6c-2.1,3.6-2.2,7.9-2.2,7.9l-10.1-5.6Z"/>
      <path class="cls-4" d="M55.9,5329.8s.5-3.7,2.4-7c2-3.6,5.5-6.9,5.5-6.9l10.1,5.6s-3.8,2.6-5.7,6c-2.1,3.6-2.2,7.9-2.2,7.9l-10.1-5.6Z"/>
      <path class="cls-4" d="M1289.8,3243.8s.5-3.7,2.4-7c2-3.6,5.5-6.9,5.5-6.9l10.1,5.6s-3.8,2.6-5.7,6c-2.1,3.6-2.2,7.9-2.2,7.9l-10.1-5.6Z"/>
      <path class="cls-4" d="M1316.1,4111.8s.5-3.6,2.4-7c2-3.6,5.5-6.9,5.5-6.9l10.1,5.6s-3.8,2.7-5.7,6c-2.1,3.6-2.2,7.9-2.2,7.9l-10.1-5.6Z"/>
      <path class="cls-4" d="M1211,4434.1s-1.2,3.5-3.8,6.4c-2.7,3.1-6.7,5.7-6.7,5.7l-8.8-7.5s4.3-1.8,6.8-4.7c2.7-3.1,3.7-7.4,3.7-7.4l8.8,7.5Z"/>
      <path class="cls-4" d="M1310.2,5323.3s-1.2,3.5-3.8,6.4c-2.7,3.1-6.7,5.7-6.7,5.7l-8.8-7.5s4.3-1.8,6.8-4.7c2.7-3.1,3.7-7.3,3.7-7.3l8.8,7.5Z"/>
      <path class="cls-4" d="M1224.9,5548.5s-1.2,3.5-3.8,6.4c-2.7,3.1-6.7,5.7-6.7,5.7l-8.8-7.5s4.3-1.8,6.8-4.7c2.7-3.1,3.7-7.3,3.7-7.3l8.8,7.5Z"/>
      <path class="cls-4" d="M1254.5,6052.8s-1.2,3.5-3.8,6.4c-2.7,3.1-6.7,5.7-6.7,5.7l-8.8-7.5s4.3-1.8,6.8-4.7c2.7-3.1,3.7-7.3,3.7-7.3l8.8,7.5Z"/>
      <path class="cls-4" d="M55.1,6625.7s-1.2,3.5-3.8,6.4c-2.7,3.1-6.7,5.7-6.7,5.7l-8.8-7.5s4.3-1.8,6.8-4.7c2.7-3.1,3.7-7.3,3.7-7.3l8.8,7.5Z"/>
      <path class="cls-1" d="M1294.2,6122.8s-1.2,3.5-3.8,6.4c-2.7,3.1-6.7,5.7-6.7,5.7l-8.8-7.5s4.3-1.8,6.8-4.7c2.7-3.1,3.7-7.3,3.7-7.3l8.8,7.5Z"/>
      <path class="cls-1" d="M36.1,6844.7s-1.2,3.5-3.8,6.4c-2.7,3.1-6.7,5.7-6.7,5.7l-8.8-7.5s4.3-1.8,6.8-4.7c2.7-3.1,3.7-7.3,3.7-7.3l8.8,7.5Z"/>
      <path class="cls-1" d="M1270.1,6891.7s-1.2,3.5-3.8,6.4c-2.7,3.1-6.7,5.7-6.7,5.7l-8.8-7.5s4.3-1.8,6.8-4.7c2.7-3.1,3.7-7.3,3.7-7.3l8.8,7.5Z"/>
      <path class="cls-1" d="M38.1,7211.7s-1.2,3.5-3.8,6.4c-2.7,3.1-6.7,5.7-6.7,5.7l-8.8-7.5s4.3-1.8,6.8-4.7c2.7-3.1,3.7-7.3,3.7-7.3l8.8,7.5Z"/>
      <path class="cls-1" d="M1257.1,7526.7s-1.2,3.5-3.8,6.4c-2.7,3.1-6.7,5.7-6.7,5.7l-8.8-7.5s4.3-1.8,6.8-4.7c2.7-3.1,3.7-7.3,3.7-7.3l8.8,7.5Z"/>
      <path class="cls-1" d="M50.1,7907.7s-1.2,3.5-3.8,6.4c-2.7,3.1-6.7,5.7-6.7,5.7l-8.8-7.5s4.3-1.8,6.8-4.7c2.7-3.1,3.7-7.3,3.7-7.3l8.8,7.5Z"/>
      <path class="cls-1" d="M64.1,8366.7s-1.2,3.5-3.8,6.4c-2.7,3.1-6.7,5.7-6.7,5.7l-8.8-7.5s4.3-1.8,6.8-4.7c2.7-3.1,3.7-7.3,3.7-7.3l8.8,7.5Z"/>
      <path class="cls-1" d="M1272.4,8018.1s-3.6-.7-6.9-2.8c-3.5-2.2-6.5-5.8-6.5-5.8l6.2-9.8s2.4,4,5.6,6.1c3.5,2.3,7.8,2.6,7.8,2.6l-6.1,9.8Z"/>
      <path class="cls-1" d="M1305.6,8417.1s-3.6-.7-6.9-2.8c-3.5-2.2-6.5-5.9-6.5-5.9l6.2-9.8s2.4,4,5.6,6.1c3.5,2.3,7.8,2.6,7.8,2.6l-6.1,9.8Z"/>
      <path class="cls-1" d="M1229.6,8487.1s-3.6-.7-6.9-2.8c-3.5-2.2-6.5-5.9-6.5-5.9l6.2-9.8s2.4,4,5.6,6.1c3.5,2.3,7.8,2.6,7.8,2.6l-6.1,9.8Z"/>
      <path class="cls-1" d="M1268.9,5808.9s-3.7-.5-7-2.4c-3.6-2.1-6.8-5.5-6.8-5.5l5.6-10.1s2.6,3.8,5.9,5.8c3.6,2.1,7.9,2.2,7.9,2.2l-5.6,10.1Z"/>
      <path class="cls-1" d="M1140.9,4830.6s-3.7-.5-7-2.5c-3.6-2-6.8-5.5-6.8-5.5l5.6-10.1s2.6,3.9,5.9,5.8c3.6,2.1,7.9,2.2,7.9,2.2l-5.6,10.1Z"/>
      <path class="cls-1" d="M53.9,5680.6s-3.7-.5-7-2.5c-3.6-2-6.8-5.5-6.8-5.5l5.6-10.1s2.6,3.9,5.9,5.8c3.6,2.1,7.9,2.2,7.9,2.2l-5.6,10.1Z"/>
      <path class="cls-1" d="M111.9,6380.6s-3.7-.5-7-2.5c-3.6-2-6.8-5.5-6.8-5.5l5.6-10.1s2.6,3.9,5.9,5.8c3.6,2.1,7.9,2.2,7.9,2.2l-5.6,10.1Z"/>
      <path class="cls-1" d="M247.1,5066.5s.4-3.7,2.1-7.1c1.9-3.7,5.1-7.1,5.1-7.1l10.3,5.1s-3.7,2.8-5.4,6.2c-1.9,3.7-1.8,8-1.8,8l-10.3-5.1Z"/>
      <path class="cls-4" d="M1286.1,6283.7s-1.2,3.5-3.8,6.4c-2.7,3.1-6.7,5.7-6.7,5.7l-8.8-7.5s4.3-1.8,6.8-4.7c2.7-3.1,3.7-7.3,3.7-7.3l8.8,7.5Z"/>
      <path class="cls-4" d="M1220.7,6730.3s-1.2,3.5-3.8,6.4c-2.7,3.1-6.7,5.7-6.7,5.7l-8.8-7.5s4.3-1.8,6.8-4.7c2.7-3.1,3.7-7.3,3.7-7.3l8.8,7.5Z"/>
      <path class="cls-4" d="M1222.1,7678.7s-1.2,3.5-3.8,6.4c-2.7,3.1-6.7,5.7-6.7,5.7l-8.8-7.5s4.3-1.8,6.8-4.7c2.7-3.1,3.7-7.3,3.7-7.3l8.8,7.5Z"/>
      <path class="cls-4" d="M1288.1,7918.7s-1.2,3.5-3.8,6.4c-2.7,3.1-6.7,5.7-6.7,5.7l-8.8-7.5s4.3-1.8,6.8-4.7c2.7-3.1,3.7-7.3,3.7-7.3l8.8,7.5Z"/>
      <path class="cls-4" d="M1259.1,8366.7s-1.2,3.5-3.8,6.4c-2.7,3.1-6.7,5.7-6.7,5.7l-8.8-7.5s4.3-1.8,6.8-4.7c2.7-3.1,3.7-7.3,3.7-7.3l8.8,7.5Z"/>
      <path class="cls-4" d="M50.1,8311.7s-1.2,3.5-3.8,6.4c-2.7,3.1-6.7,5.7-6.7,5.7l-8.8-7.5s4.3-1.8,6.8-4.7c2.7-3.1,3.7-7.3,3.7-7.3l8.8,7.5Z"/>
      <path class="cls-4" d="M50.1,7674.7s-1.2,3.5-3.8,6.4c-2.7,3.1-6.7,5.7-6.7,5.7l-8.8-7.5s4.3-1.8,6.8-4.7c2.7-3.1,3.7-7.3,3.7-7.3l8.8,7.5Z"/>
      <path class="cls-4" d="M1269.1,7171.7s-1.2,3.5-3.8,6.4c-2.7,3.1-6.7,5.7-6.7,5.7l-8.8-7.5s4.3-1.8,6.8-4.7c2.7-3.1,3.7-7.3,3.7-7.3l8.8,7.5Z"/>
      <path class="cls-4" d="M91.1,7304.7s-1.2,3.5-3.8,6.4c-2.7,3.1-6.7,5.7-6.7,5.7l-8.8-7.5s4.3-1.8,6.8-4.7c2.7-3.1,3.7-7.3,3.7-7.3l8.8,7.5Z"/>
      <path class="cls-4" d="M174.7,20.1s3.2,1.1,6,3.3c2.9,2.4,5.3,6,5.3,6l-6.6,7.9s-1.8-3.8-4.5-6c-2.9-2.4-6.8-3.2-6.8-3.2l6.6-7.9Z"/>
    </g>
  </g>
</svg>