<svg width="1212" height="327" viewBox="0 0 1212 327" fill="none" xmlns="http://www.w3.org/2000/svg">
<path d="M1039.41 87.8907C1039.34 85.0294 1039.09 82.1764 1038.85 79.3235C1038.51 75.3823 1038.41 71.4243 1038.07 67.4873C1037.79 64.3025 1036.98 61.0924 1037.14 57.8865C1036.3 58.1638 1035.45 58.4537 1034.59 58.6722C1034.33 58.7436 1034.06 58.8193 1033.8 58.8865C1033.8 59.1848 1033.78 59.4831 1033.79 59.7688C1033.77 60.542 1033.76 61.3193 1033.78 62.0924C1033.81 63.6302 1033.81 65.1638 1033.75 66.7016C1033.38 72.8697 1033.62 79.3109 1033.87 85.4201C1033.94 86.584 1033.95 87.4873 1033.98 88.5798C1035.79 88.3487 1037.6 88.1092 1039.41 87.8907ZM1038.46 55.6386C1038.45 55.3613 1038.43 54.9957 1038.45 54.6428C1036.47 55.1344 1034.5 55.6932 1032.54 56.2394C1032.54 56.2436 1032.53 56.2478 1032.53 56.252C1032.52 56.273 1032.5 56.2941 1032.48 56.3109C1032.46 56.6302 1032.43 56.9411 1032.47 57.1722C1033.84 56.9411 1035.2 56.605 1036.52 56.168C1037.17 55.9705 1037.85 55.9285 1038.46 55.6386ZM1042.39 55.9453C1042.39 55.9201 1042.39 55.8949 1042.4 55.8655C1041.81 55.752 1041.54 55.147 1041.52 54.5882C1041.52 54.3529 1041.51 54.0798 1041.53 53.8109C1041.05 53.9495 1040.57 54.084 1040.09 54.2142C1040.1 54.273 1040.11 54.3277 1040.11 54.3823C1040.13 55.2941 1040.03 56.4075 1039.32 57.063C1039.14 57.168 1038.95 57.2604 1038.75 57.3445C1038.75 57.3781 1038.75 57.4075 1038.75 57.4369C1038.91 59.8781 1039.22 62.3025 1039.54 64.731C1039.92 67.8613 1039.98 71.0167 1040.17 74.1596C1040.34 76.5083 1040.52 78.8613 1040.64 81.2142C1040.78 83.3781 1040.75 85.5546 1040.93 87.7142C1041.43 87.6596 1041.93 87.605 1042.43 87.5546C1042.39 87.1512 1042.43 86.71 1042.39 86.3739C1042.33 85.0462 1042.24 83.7184 1042.18 82.3865C1042.11 79.9411 1041.91 77.689 1041.95 75.2688C1041.95 72.2688 1042.22 69.2814 1042.25 66.2983C1042.27 62.8529 1042 59.3823 1042.39 55.9453ZM1047.66 34.9957C1047.17 34.8487 1046.73 34.6092 1046.38 34.2184C1045.69 33.5798 1045.46 32.6554 1045.27 31.7731C1045.14 31.2142 1045.06 30.6302 1044.82 30.105C1044.75 29.9075 1044.53 29.9243 1044.36 29.8907C1042.85 29.9117 1043.01 30.2394 1042.86 31.5546C1042.67 32.8865 1042.82 34.4831 1041.76 35.4831C1041.15 36.0336 1040.25 36.0083 1039.48 35.9411C1038.34 35.8907 1037.43 35.1806 1036.84 34.2562C1035.6 35.1932 1033.82 35.1008 1032.66 36.1428C1032.66 36.147 1032.66 36.1554 1032.66 36.1596C1032.68 36.168 1032.69 36.1764 1032.71 36.1806C1032.69 36.1722 1032.67 36.168 1032.66 36.1596C1033.35 36.3949 1033.52 37.2604 1033.21 37.8613C1033.09 38.105 1032.88 38.273 1032.67 38.3865C1032.67 38.4285 1032.67 38.4705 1032.67 38.5125C1032.63 39.4957 1032.58 40.4789 1032.54 41.4621C1033.13 40.9789 1034.02 40.6554 1034.55 40.2941C1036.28 39.3781 1038.03 38.5041 1039.83 37.7268C1041.58 37.0294 1043.05 36.584 1044.75 35.9873C1045.31 35.8403 1046.51 35.3319 1047.66 34.9957ZM1049.77 86.8193C1049.34 80.7478 1049.27 74.6176 1048.86 68.6008C1048.51 64.0252 1047.37 59.4999 1047.37 54.8991C1046.86 55.0462 1046.36 55.1932 1045.83 55.2688C1045.15 55.4033 1044.46 55.6218 1043.78 55.7562C1043.77 58.7604 1043.59 61.7604 1043.65 64.7646C1043.68 66.2478 1043.68 67.7268 1043.64 69.2058C1043.49 74.3025 1043.64 79.4117 1043.89 84.4831C1043.93 85.189 1043.95 85.773 1043.98 86.3739C1043.98 86.6554 1044.03 87.0336 1044.02 87.3949C1044.32 87.3697 1044.61 87.3445 1044.9 87.3193C1046.53 87.1764 1048.15 86.9999 1049.77 86.8193ZM1048.84 51.5924C1048.8 51.605 1048.76 51.6176 1048.72 51.626C1046.7 52.2226 1044.71 52.8613 1042.69 53.4621C1042.69 53.4747 1042.69 53.4831 1042.69 53.4915C1042.75 53.5672 1042.77 53.689 1042.74 53.7856C1042.71 53.8571 1042.66 53.9327 1042.59 53.9579C1042.57 54.1512 1042.56 54.3487 1042.6 54.542C1043.09 54.647 1043.57 54.3907 1044.04 54.3151C1045.28 54.0336 1046.47 53.584 1047.68 53.21C1047.74 53.1218 1047.82 53.042 1047.9 52.9747C1048.14 52.7899 1048.42 52.7983 1048.65 52.9201C1048.76 52.5546 1048.78 52.1764 1048.81 51.7983C1048.81 51.731 1048.82 51.6596 1048.84 51.5924ZM1054.33 39.189C1053.74 38.626 1053.28 37.9243 1052.72 37.3319C1052.01 36.7436 1050.79 37.0125 1050.16 36.3151C1049.92 36.668 1049.54 36.9537 1049.17 37.1092C1045.19 39.1596 1040.99 40.7142 1036.82 42.3277C1035.72 42.8487 1034.57 43.2226 1033.46 43.7016C1033.18 43.8487 1032.88 44.0209 1032.55 43.9453C1032.52 43.9369 1032.49 43.9327 1032.46 43.9201C1032.44 44.8487 1032.42 45.7773 1032.42 46.7058C1033.58 46.4747 1034.72 46.105 1035.85 45.7268C1037.85 45.1302 1039.85 44.5546 1041.84 43.9369C1044.81 42.9789 1047.56 41.4789 1050.44 40.4327C1051.71 39.9285 1053.01 39.542 1054.33 39.189ZM1054.57 55.8949C1054.7 55.1932 1054.75 54.4663 1054.87 53.7604C1054.62 53.7983 1054.37 53.8235 1054.12 53.8403C1053.09 53.7352 1053.09 52.4663 1053.17 51.6806C1053.2 51.2226 1053.2 50.7478 1053.39 50.3193C1053.39 50.3109 1053.39 50.2983 1053.4 50.2899C1052.28 50.5966 1051.16 50.9117 1050.04 51.2352C1050.45 51.8865 1049.98 53.9999 1049.37 54.3991C1049.35 54.4117 1049.33 54.4285 1049.31 54.4369C1049.41 55.3613 1049.4 56.3025 1049.51 57.2268C1049.64 58.8193 1049.87 60.4033 1050.06 61.9957C1050.83 68.2478 1051.1 74.521 1051.15 80.8067C1051.21 82.7899 1051.29 84.689 1051.48 86.6218C1052.54 86.5041 1053.59 86.3823 1054.65 86.2689C1054.51 84.1932 1054.34 82.1134 1054.22 80.0294C1054.14 77.8697 1054.07 76.0378 1053.96 73.9663C1053.75 69.6722 1054.04 65.3823 1054.21 61.0924C1054.28 59.3655 1054.34 57.6218 1054.57 55.8949ZM1061.64 48.4327C1061.64 48.3151 1061.63 48.1932 1061.62 48.0714C1059.18 48.7436 1056.73 49.3865 1054.29 50.0462C1054.67 50.4957 1054.45 51.6218 1054.52 52.1344C1056.76 52.1344 1058.58 50.6764 1060.71 50.2436C1060.75 50.2394 1060.79 50.231 1060.83 50.2268C1060.95 50.1008 1061.1 50.0083 1061.3 49.9663C1061.34 49.9663 1061.39 49.9663 1061.43 49.9747C1061.52 49.8571 1061.57 49.6848 1061.58 49.4201C1061.61 49.0882 1061.64 48.7604 1061.64 48.4327ZM1063.68 85.5167C1063.61 85.3319 1063.58 85.126 1063.58 84.9453C1063.44 83.252 1063.2 81.563 1063.06 79.8697C1062.78 76.9117 1062.37 73.9537 1062.4 70.9747C1062.45 68.7478 1062.4 66.5167 1062.16 64.2983C1061.84 61.5083 1061.26 58.7478 1060.88 55.9789C1060.65 54.584 1060.43 53.4285 1060.44 52.0462C1060.44 52.0167 1060.44 51.9873 1060.45 51.9579C1059.19 52.4411 1057.95 52.9789 1056.67 53.3571C1056.69 54.084 1056.53 54.9243 1056.53 55.4579C1056.23 59.1218 1056.12 62.7983 1055.9 66.4621C1055.69 69.5083 1055.63 72.6428 1055.8 75.6638C1055.96 78.9495 1055.95 82.2268 1056.36 85.4915C1056.38 85.689 1056.4 85.8865 1056.43 86.084C1057.7 85.9537 1058.97 85.8277 1060.24 85.7226C1061.39 85.6386 1062.54 85.5714 1063.68 85.5167ZM1069.43 49.6764C1069.45 49.5462 1069.47 49.4117 1069.49 49.2772C1069.28 49.252 1069.08 49.1932 1068.87 49.1008C1068.19 48.647 1068.27 47.7058 1068.23 46.9831C1068.24 46.7352 1068.24 46.4243 1068.28 46.1344C1066.84 46.5504 1065.39 46.9789 1063.95 47.4201C1063.58 47.5294 1063.21 47.6344 1062.83 47.7394C1062.82 48.0209 1062.76 48.3109 1062.77 48.584C1062.7 49.3739 1062.77 50.4957 1062.23 51.1302C1062.23 51.1386 1062.23 51.1428 1062.23 51.1512C1062.23 51.21 1062.21 51.2688 1062.18 51.2941C1062.73 57.2184 1063.75 63.3655 1063.96 69.2478C1064.04 71.3907 1064.17 73.4705 1064.32 75.5504C1064.91 75.2184 1065.38 74.668 1065.43 73.9621C1065.51 73.1218 1065.34 72.2184 1065.76 71.4411C1066.33 70.4957 1067.47 70.084 1068.47 69.752C1068.49 69.7394 1068.52 69.7226 1068.54 69.7142C1068.58 67.1386 1068.68 64.5672 1068.82 61.9957C1068.99 57.8907 1069.03 53.752 1069.43 49.6764ZM1076.24 45.1008C1076.23 44.7268 1076.24 44.3529 1076.22 43.9789C1073.98 44.5462 1071.76 45.147 1069.54 45.773C1069.66 46.3865 1069.44 47.0462 1069.47 47.626C1071.74 47.7562 1073.8 46.6512 1075.9 45.9831C1076.22 45.7688 1076.23 45.4411 1076.24 45.1008ZM1078.48 84.7562C1078.02 81.2394 1077.9 77.6848 1077.79 74.1386C1077.58 70.7352 1077.22 67.3445 1076.96 63.9453C1076.73 60.8529 1076.39 57.773 1075.94 54.7058C1075.63 52.6554 1075.39 50.5882 1075.4 48.5125C1075.42 48.2983 1075.42 47.9957 1075.43 47.6806C1075.29 47.7352 1075.16 47.7857 1075.02 47.8445C1074.07 48.2857 1072.95 48.7352 1071.96 48.9369C1071.69 48.9831 1071.42 49.0462 1071.14 49.1092C1071.15 49.3697 1071.14 49.6386 1071.14 49.8907C1071.13 51.147 1071.09 52.4033 1071.05 53.6596C1070.89 56.9999 1070.8 60.5966 1070.59 63.8109C1070.29 68.2226 1070.29 72.6428 1070.43 77.0588C1070.5 79.5041 1070.49 81.9495 1070.52 84.3991C1070.51 84.6764 1070.53 84.9537 1070.54 85.2268C1070.63 85.2226 1070.73 85.2184 1070.84 85.2142C1073.38 85.0714 1075.94 84.9201 1078.48 84.7562ZM1085.39 45.7142C1085.39 45.6638 1085.4 45.6092 1085.4 45.5546C1085.24 45.5546 1085.08 45.5294 1084.92 45.4705C1084.38 45.2352 1084.21 44.5924 1084.22 44.0546C1084.27 43.3865 1084.14 42.5882 1084.52 42.0041C1082.71 42.3991 1080.91 42.8319 1079.11 43.2688C1078.58 43.3949 1078.06 43.5252 1077.53 43.6554C1077.56 43.8403 1077.55 44.0336 1077.53 44.1932C1077.53 45.1092 1077.6 46.1302 1077.07 46.9243C1077.08 46.9999 1077.09 47.0714 1077.09 47.147C1077.16 47.9285 1077.22 48.7142 1077.28 49.4999C1077.52 52.7899 1078.13 56.0378 1078.43 59.3235C1078.57 60.9831 1078.68 62.647 1078.79 64.3067C1079.09 63.7646 1079.85 63.5882 1080.35 63.2352C1080.46 62.3865 1080.83 61.563 1081.62 61.1386C1081.97 59.7226 1081.7 58.147 1082.44 56.8319C1082.87 55.9663 1083.65 55.2394 1084.42 54.7016C1084.56 54.584 1084.71 54.4453 1084.87 54.3529C1084.98 52.3025 1085.11 50.252 1085.2 48.1974C1085.25 47.3613 1085.32 46.5378 1085.39 45.7142ZM1087.5 22.8571C1087.44 22.731 1087.39 22.5924 1087.33 22.4495C1087.25 22.2731 1087.11 22.1176 1086.91 22.105C1085.48 22.0714 1085.31 21.4495 1084.98 20.2268C1084.9 20.0083 1084.81 19.7058 1084.56 19.626C1084.08 19.6764 1083.6 19.8529 1083.13 19.9789C1082.28 20.2436 1081.4 20.5588 1080.59 20.8739C1079.6 21.3697 1077.56 21.8823 1077.38 23.1092C1077.25 23.7731 1077.07 24.6008 1076.41 24.9369C1074.02 25.752 1073.53 24.71 1072.83 22.6722C1072.23 22.7731 1071.71 23.0336 1071.16 23.2731C1070.08 23.7352 1068.99 24.2226 1068.06 24.9453C1069.06 24.9159 1069.95 25.1932 1069.99 26.3445C1070.01 27.3361 1069.84 28.3613 1069.45 29.2815C1070.6 28.731 1071.86 28.4033 1073.06 27.9873C1073.79 27.752 1074.51 27.521 1075.23 27.252C1076.7 26.6302 1078.26 25.8571 1079.89 26.2773C1081.19 26.8067 1082.49 26.0588 1083.34 25.0882C1083.99 24.4159 1084.77 23.8823 1085.63 23.5041C1086.23 23.2394 1086.86 23.021 1087.5 22.8571ZM1092.42 41.8781C1092.48 41.4201 1092.45 41.0336 1092.4 40.6344C1092.12 40.6722 1091.84 40.71 1091.56 40.7478C1089.49 41.0167 1087.44 41.3865 1085.4 41.8151C1085.51 41.9159 1085.58 42.063 1085.6 42.2352C1085.61 42.7436 1085.59 43.2562 1085.63 43.7688C1087.65 43.4285 1089.62 42.9033 1091.65 42.6134C1092.08 42.5125 1092.43 42.3823 1092.42 41.8781ZM1094.22 83.6764C1094.2 83.6008 1094.19 83.521 1094.18 83.4369C1093.72 75.5714 1092.78 67.7436 1092.18 59.8907C1091.92 56.1176 1091.39 52.3655 1091.29 48.584C1091.32 47.8235 1091.02 45.7899 1091.17 44.3571C1090.18 44.6176 1089.26 44.8403 1088.25 45.0083C1087.9 45.0714 1087.56 45.1428 1087.22 45.2184C1087.31 45.9915 1087.22 46.8907 1087.27 47.4285C1087.21 52.6386 1086.8 58.0209 1086.64 63.2058C1086.4 66.5041 1086.1 69.5672 1086.02 72.8151C1085.95 76.6302 1085.96 80.4453 1085.99 84.2604C1087.02 84.189 1088.04 84.1176 1089.06 84.0462C1090.78 83.9033 1092.5 83.7814 1094.22 83.6764ZM1104.44 43.1176C1104.48 42.9411 1104.51 42.7562 1104.53 42.563C1104.08 42.5924 1103.72 42.563 1103.52 42.4621C1102.6 42.0882 1102.49 40.231 1102.63 39.1848C1099.67 39.6596 1096.69 40.063 1093.72 40.4579C1093.69 41.3991 1093.71 42.3781 1093.32 43.2436C1093.22 43.4327 1093.09 43.584 1092.93 43.7058C1093.09 44.3235 1093.04 45.1218 1093.15 45.584C1093.28 46.9537 1093.4 48.3277 1093.51 49.6974C1093.69 49.4537 1093.98 49.2772 1094.26 49.1386C1095.68 48.542 1097.25 48.3655 1098.76 48.084C1100.15 48.0083 1100.31 46.3445 1101.32 45.7184C1102.02 45.2142 1102.92 45.273 1103.74 45.126C1103.91 45.126 1104.06 45.1848 1104.18 45.2773C1104.26 44.5588 1104.34 43.8361 1104.44 43.1176ZM1112.12 37.3949C1111.36 37.5462 1110.61 37.6932 1109.85 37.8319C1107.82 38.2773 1105.78 38.6596 1103.73 39.0041C1103.89 39.5924 1103.83 40.2562 1103.91 40.8529C1104.42 40.9537 1104.97 40.8529 1105.46 40.7352C1106.96 40.2394 1108.57 39.8193 1110.02 39.2184C1111.64 38.4453 1112.05 38.8907 1112.12 37.3949ZM1113.49 82.4579C1113.48 82.147 1113.46 81.8403 1113.45 81.5294C1113.38 80.0294 1113.22 78.5378 1113.1 77.042C1112.77 73.2352 1112.66 69.8319 1112.39 66.1218C1112.05 60.9495 1111.49 55.8025 1111.06 50.6386C1110.89 48.8445 1110.86 47.0083 1110.78 45.2184C1110.72 43.7899 1110.55 42.3613 1110.52 40.9327C1109.11 41.5167 1107.36 42.0672 1105.94 42.3571C1105.96 44.7226 1105.61 47.0798 1105.55 49.4411C1105.42 52.5336 1105.1 55.605 1105 58.689C1104.84 63.4075 1104.78 68.1302 1104.86 72.8487C1104.89 75.7646 1104.71 78.6764 1104.67 81.5924C1104.67 82.105 1104.66 82.6134 1104.67 83.126C1104.67 83.126 1104.68 83.126 1104.69 83.126C1107.62 82.8739 1110.56 82.6428 1113.49 82.4579ZM1133.19 81.9915C1133.06 79.7899 1132.87 77.5966 1132.74 75.3949C1132.3 68.021 1132 60.5798 1131.66 53.2436C1131.43 50.4747 1131.25 47.7058 1131.11 44.9285C1131.02 42.7815 1130.81 40.626 1130.89 38.4789C1130.6 38.4915 1130.31 38.4957 1130.03 38.4999C1128.75 38.5462 1127.47 38.4285 1126.19 38.2899C1125.72 38.2142 1125.2 38.2016 1124.69 38.1638C1124.69 38.1848 1124.69 38.2016 1124.69 38.2226C1124.65 40.084 1124.56 41.9369 1124.42 43.7899C1124.13 47.4915 1124.25 51.21 1124.03 54.9117C1123.8 58.7142 1123.49 62.4369 1123.46 66.2268C1123.5 69.4159 1123.54 72.6008 1123.45 75.7899C1123.39 77.9411 1123.34 79.9327 1123.56 82.0041C1126.77 81.9243 1129.98 81.9159 1133.19 81.9915ZM1132.93 34.9789C1131.73 34.5798 1130.52 34.1848 1129.32 33.7899C1129.3 33.7815 1129.28 33.7731 1129.26 33.7688C1129.1 33.8781 1128.93 33.9495 1128.74 33.9747C1128.5 34.0083 1128.26 34.0378 1128.01 34.063C1126.43 34.3193 1124.85 34.626 1123.28 34.9537C1123.46 35.2983 1123.36 35.8655 1123.68 36.0756C1124.81 36.3151 1125.99 36.3361 1127.13 36.4243C1128.89 36.4453 1130.65 36.5924 1132.4 36.6386C1132.55 36.6344 1132.72 36.584 1132.73 36.4075C1132.85 35.9369 1132.86 35.4537 1132.93 34.9789ZM1133.22 11.5798C1133.31 11.542 1133.4 11.5167 1133.49 11.4957C1133.23 11.4873 1132.99 11.3529 1132.93 11.0672C1132.84 10.7646 1132.93 10.4789 1133.15 10.2142C1132.6 9.84868 1132.27 8.76885 1132 8.22683C1131.54 7.23944 1130.27 7.51255 1129.38 7.44532C1128.14 7.49154 1126.74 7.07977 1125.61 7.72263C1125.39 8.52515 1125.31 9.33187 1124.73 9.91171C1124.54 10.084 1124.31 10.1974 1124.06 10.2604C1122.97 10.5966 1121.84 10.7226 1120.71 10.8865C1118.25 11.3613 1115.77 11.7688 1113.43 12.6932C1113.73 13.21 1114.13 13.6596 1114.37 14.2142C1114.6 14.7941 1114.7 15.4621 1114.58 16.0798C1115.16 15.9075 1115.74 15.7562 1116.32 15.5924C1117.42 15.2184 1118.5 14.7983 1119.55 14.3403C1121.01 13.752 1122.48 12.8991 1124.09 13.021C1124.72 13.0125 1125.27 13.5378 1125.88 13.4453C1126.54 12.9999 1127.22 12.563 1128.03 12.4495C1128.92 12.2688 1129.82 12.147 1130.69 12.0125C1131.53 11.8655 1132.38 11.7058 1133.22 11.5798ZM1151.42 82.0882C1151.41 82.0294 1151.4 81.9747 1151.39 81.9159C1151.1 77.7983 1150.88 73.6764 1150.92 69.542C1150.87 66.0882 1150.63 62.6386 1150.47 59.189C1150.27 55.4075 1150.27 51.6218 1149.99 47.8445C1149.98 46.9915 1149.68 45.2184 1149.89 43.9663C1149.53 43.8823 1149.19 43.7857 1148.84 43.6764C1147.54 43.3823 1146.25 43.105 1144.97 42.7646C1144.85 42.7268 1144.72 42.6932 1144.6 42.6596C1144.59 42.9327 1144.58 43.2016 1144.56 43.4747C1144.14 52.4369 1143.83 61.4117 1144.04 70.3823C1144.07 73.5378 1143.99 76.6974 1144.04 79.8529C1144.04 80.3781 1144.02 80.9033 1144 81.4243C1144.01 81.689 1144 82.0294 1143.9 82.3109C1146.41 82.3025 1148.92 82.2058 1151.42 82.0882ZM1151.12 42.7394C1151.16 42.3781 1151.16 42.0125 1151.13 41.6512C1151.12 41.5588 1151.11 41.4537 1151.08 41.3403C1148.47 40.3319 1145.83 39.3739 1143.19 38.4495C1143.24 39.2016 1143.31 39.9579 1143.32 40.71C1143.44 40.7562 1143.56 40.8067 1143.68 40.8529C1143.85 40.7688 1144.04 40.7772 1144.26 40.9453C1144.31 40.9915 1144.37 41.0504 1144.41 41.1176C1145.65 41.5546 1146.91 41.9201 1148.15 42.3403C1148.85 42.5588 1149.51 42.8403 1150.2 43.0756C1150.31 42.9075 1150.44 42.7772 1150.62 42.6932C1150.8 42.6176 1150.97 42.647 1151.12 42.7394ZM1166.16 48.0209C1166.2 47.7226 1166.2 47.4201 1166.2 47.1218C1163.8 46.2352 1161.41 45.3193 1159.03 44.3991C1159.03 44.4495 1159.04 44.4957 1159.04 44.542C1159.11 45.1638 1159.25 45.7772 1159.41 46.3823C1159.85 46.5378 1160.33 46.5378 1160.78 46.6512C1162.03 46.9957 1163.14 47.5041 1164.41 47.731C1164.73 47.7815 1165.06 47.8403 1165.37 47.9285C1165.56 47.7899 1165.82 47.7436 1166.03 47.8949C1166.08 47.9327 1166.12 47.9747 1166.16 48.0209ZM1167.59 81.668C1167.56 81.3109 1167.58 80.9369 1167.56 80.6428C1167.47 78.9453 1167.37 77.252 1167.28 75.5546C1166.97 69.8529 1166.65 64.1554 1166.12 58.4705C1165.91 55.9663 1165.56 53.4915 1165.17 51.0125C1165.08 50.4201 1165.01 49.8277 1164.98 49.231C1163.45 48.9999 1161.99 48.4747 1160.48 48.1554C1160.46 48.1512 1160.45 48.1512 1160.43 48.147C1159.92 51.8907 1159.83 55.6722 1159.83 59.4495C1159.74 64.0294 1159.49 68.6092 1159.63 73.1932C1159.68 76.0167 1159.86 78.9117 1159.98 81.7184C1161.83 81.6638 1163.69 81.6344 1165.54 81.6638C1166.22 81.6554 1166.91 81.6596 1167.59 81.668ZM1174.73 53.1722C1174.56 53.084 1174.4 52.9873 1174.25 52.8781C1173.77 52.3949 1173.45 50.6176 1173.85 49.7899C1173.55 49.6932 1173.26 49.5966 1172.96 49.4957C1171.03 48.8571 1169.1 48.1806 1167.19 47.4831C1167.11 48.1638 1166.99 48.9285 1166.58 49.231C1166.61 49.4033 1166.64 49.5714 1166.68 49.731C1167.41 53.1764 1167.69 56.6848 1167.93 60.189C1168.28 64.2184 1168.46 68.2604 1168.8 72.2941C1169.02 75.0504 1169.36 77.7983 1169.33 80.5672C1169.32 80.8907 1169.35 81.3151 1169.32 81.71C1170.44 81.7436 1171.55 81.7941 1172.66 81.8487C1172.65 81.4495 1172.71 81.0336 1172.71 80.71C1172.75 79.5798 1172.79 78.4453 1172.83 77.3109C1173.11 72.0125 1172.99 66.6974 1173.52 61.4159C1173.86 58.6638 1174.05 55.8613 1174.73 53.1722ZM1179.97 54.8529C1179.97 54.8487 1179.97 54.8487 1179.97 54.8487C1179.1 54.7142 1178.26 54.4285 1177.43 54.1428C1177.01 53.9789 1176.55 53.8445 1176.09 53.7058C1176.09 53.731 1176.09 53.7604 1176.09 53.7856C1176.07 55.2941 1175.9 56.7983 1175.72 58.2983C1174.89 64.4663 1174.65 70.668 1174.51 76.8739C1174.5 78.4201 1174.51 79.9663 1174.52 81.5125C1174.53 81.6344 1174.54 81.7646 1174.53 81.8991C1176.3 81.9327 1178.07 81.9537 1179.84 81.9747C1179.84 81.5672 1179.89 81.1344 1179.89 80.8025C1179.92 79.6848 1179.94 78.5672 1179.96 77.4495C1180.16 70.9327 1180.12 64.4117 1180.04 57.8949C1180 56.8823 1179.95 55.8655 1179.97 54.8529ZM1181.58 52.3277C1181.4 52.2604 1181.22 52.189 1181.04 52.1176C1179.01 51.3361 1176.91 50.752 1174.84 50.105C1174.95 50.6386 1174.92 51.3319 1175.04 51.6302C1176.81 52.5083 1178.69 53.2814 1180.6 53.7604C1180.6 53.7604 1180.6 53.7604 1180.61 53.7604C1180.69 53.7562 1180.76 53.7772 1180.83 53.8151C1180.98 53.8529 1181.14 53.8865 1181.29 53.9201C1181.53 53.4369 1181.56 52.8655 1181.58 52.3277ZM1190.16 58.9999C1190.19 58.8823 1190.22 58.7184 1190.26 58.5336C1190.08 58.4327 1189.92 58.3067 1189.8 58.1344C1189.45 57.6638 1189.35 56.3277 1189.64 55.4411C1187.24 54.4831 1184.82 53.563 1182.4 52.6386C1182.35 52.8319 1182.32 53.0167 1182.32 53.168C1182.25 53.773 1182.06 54.8445 1181.38 54.9537C1181.57 55.8403 1181.56 56.7772 1181.65 57.6722C1181.76 59.2352 1181.82 60.7983 1181.83 62.3655C1181.87 67.2436 1181.7 72.1176 1181.63 76.9957C1181.61 78.2184 1181.61 79.4411 1181.59 80.6596C1181.56 81.0336 1181.61 81.5336 1181.57 81.9915C1183.64 82.0167 1185.71 82.042 1187.78 82.0882C1187.76 81.9831 1187.75 81.8823 1187.76 81.7857C1187.78 80.9285 1187.84 80.0756 1187.89 79.2184C1188.07 76.6302 1188.18 74.0378 1188.44 71.4579C1188.89 67.2941 1189.25 63.105 1190.16 58.9999ZM1192.25 38.9201C1191.73 38.5083 1191.2 38.1008 1190.67 37.6974C1188.79 36.231 1186.96 34.8025 1185.33 33.0966C1184.32 31.9117 1182.3 30.0167 1182.29 28.4369C1182.29 27.9243 1182.59 27.5125 1182.87 27.1092C1183.14 26.6218 1183.37 26.1134 1183.52 25.5756C1182.4 25.2646 1181.19 24.7983 1180.04 25.1596C1179.54 25.3949 1179.07 25.6974 1178.51 25.7941C1177.11 25.9369 1175.63 24.7731 1175.6 23.3361C1175.55 22.8235 1175.56 22.3151 1175.6 21.8487C1175.06 21.5546 1174.6 21.1302 1174.09 20.7941C1173.59 20.5504 1173.07 20.3613 1172.59 20.0924C1171.86 19.5462 1171.29 18.7394 1171.02 17.8781C1170.83 17.2352 1170.82 16.5336 1170.49 15.9369C1169.76 14.8109 1168.52 14.168 1167.38 13.5252C1163.93 11.8235 1164.3 10.8697 1164.83 7.42431C1161.65 7.71423 1158.46 7.94952 1155.29 8.31927C1153.32 8.58398 1151.36 8.95372 1149.39 9.23524C1145.43 9.80246 1141.41 9.99574 1137.46 10.731C1136.24 10.9453 1135.03 11.2016 1133.81 11.4453C1133.79 11.4537 1133.77 11.4579 1133.75 11.4621C1134.41 11.4285 1135.12 11.7352 1135.71 11.9873C1139.94 13.9285 1144.03 16.1386 1148.28 18.0294C1153.13 20.3655 1157.93 22.8193 1162.76 25.1974C1165.34 26.2436 1167.86 27.3949 1170.34 28.626C1171.24 29.0252 1172.14 29.4201 1173.05 29.8235C1175.58 30.9369 1178.28 31.6806 1180.7 33.0336C1182.89 34.3109 1185.03 35.668 1187.16 37.0504C1187.69 37.2772 1188.22 37.4999 1188.76 37.7184C1189.58 38.0672 1190.92 38.4411 1192.25 38.9201ZM1194.85 59.8949C1194.69 59.8403 1194.53 59.7772 1194.38 59.7394C1193.72 59.5294 1193.05 59.3907 1192.38 59.2352C1192.14 59.1806 1191.91 59.1134 1191.68 59.042C1191.62 60.0756 1191.45 61.105 1191.31 62.1302C1190.67 66.5924 1190.06 71.0588 1189.67 75.5504C1189.59 76.5882 1189.56 77.626 1189.53 78.6638C1189.5 79.7184 1189.53 80.773 1189.5 81.8277C1189.49 81.9243 1189.48 82.0252 1189.45 82.1302C1190.36 82.1554 1191.28 82.1806 1192.18 82.2184C1193.04 82.2226 1193.9 82.2562 1194.76 82.2857C1194.79 81.9033 1194.82 81.5336 1194.78 81.2646C1194.78 80.2058 1194.77 79.147 1194.74 78.0882C1194.52 73.9411 1194.56 69.8865 1194.53 65.7478C1194.6 63.8067 1194.51 61.8151 1194.85 59.8949ZM1195.39 52.3991C1195.41 51.8151 1195.38 50.8403 1195.44 49.8571C1194.69 49.4159 1193.89 49.0588 1193.08 48.731C1188.76 46.647 1184.29 44.7058 1180.07 42.4831C1177.49 41.2226 1175.06 39.5125 1172.49 38.2815C1168.9 36.4747 1165.05 35.2562 1161.36 33.6806C1159.31 32.8109 1157.27 31.9117 1155.28 30.9243C1152.72 29.626 1150.21 28.2773 1147.54 27.2226C1142.51 25.1806 1137.29 23.8361 1132.18 22.0252C1131.4 21.7604 1130.64 21.5546 1129.87 21.2857C1129.81 21.2646 1129.75 21.2394 1129.7 21.2016C1127.66 21.7016 1125.65 22.2688 1123.63 22.8151C1117.59 24.3109 1111.57 25.9075 1105.44 26.9873C1103.65 27.3445 1101.83 27.5966 1100.03 27.8949C1098.3 28.2016 1096.58 28.5882 1094.84 28.7941C1092.95 29.147 1091.12 29.7184 1089.27 30.1722C1087 30.7983 1084.73 31.4201 1082.46 32.063C1079.45 32.9957 1076.47 34.0209 1073.44 34.8739C1068.56 36.2773 1063.53 37.1512 1058.76 38.9117C1053.84 40.5924 1048.83 41.9663 1043.91 43.6554C1040.69 44.7352 1037.52 45.9285 1034.25 46.8193C1033.64 46.9999 1033.03 47.1554 1032.41 47.2562C1032.41 47.8235 1032.42 48.3865 1032.44 48.9537C1032.53 50.7478 1032.59 52.5462 1032.65 54.3445C1033.79 53.8445 1035.25 53.5083 1035.94 53.1764C1039.5 51.9201 1043.15 50.9075 1046.81 49.9705C1048.8 49.5041 1050.79 49.0588 1052.75 48.4999C1055.96 47.5209 1059.15 46.4369 1062.45 45.8487C1068.44 44.2899 1074.49 43.0294 1080.48 41.5546C1083.29 40.7857 1086.21 40.1092 1089.03 39.5294C1094.16 38.3403 1099.28 37.0588 1104.43 35.9663C1107.76 35.2394 1111 34.1848 1114.35 33.563C1116.56 33.1806 1118.77 32.8235 1120.97 32.4201C1123.21 32.1302 1125.44 31.8487 1127.68 31.563C1128.35 31.5588 1128.96 31.1386 1129.55 31.4831C1129.7 31.605 1129.81 31.7604 1129.88 31.9285C1137.41 33.5041 1144.64 36.4747 1151.78 39.2226C1158.32 41.731 1164.95 44.2142 1171.38 46.9579C1175.54 48.542 1179.7 50.0546 1183.78 51.8151C1186.03 52.731 1188.33 53.6848 1190.56 54.626C1190.59 54.6344 1190.61 54.6428 1190.63 54.6554C1190.63 54.6554 1190.63 54.6554 1190.64 54.6596C1190.7 54.6848 1190.76 54.71 1190.82 54.7352C1192.33 55.3025 1193.84 55.8613 1195.33 56.4873C1195.33 56.2016 1195.35 55.9159 1195.38 55.6596C1195.39 54.5756 1195.38 53.4873 1195.39 52.3991ZM1195.92 58.7436C1195.98 58.4747 1196.04 58.2016 1196.08 57.9327C1196.01 57.8991 1195.94 57.8613 1195.88 57.8193C1195.68 57.8991 1195.45 57.9075 1195.26 57.7983C1193.75 57.1302 1192.23 56.4873 1190.7 55.8697C1190.6 56.3109 1190.55 56.7604 1190.57 57.21C1190.62 57.2352 1190.67 57.2604 1190.72 57.2857C1190.9 57.0798 1191.14 57.021 1191.45 57.2773C1191.54 57.4075 1191.6 57.5462 1191.64 57.6932C1192.28 57.9453 1192.94 58.1512 1193.6 58.3361C1194.13 58.4999 1194.66 58.626 1195.19 58.7688C1195.23 58.7815 1195.27 58.7983 1195.31 58.8109C1195.49 58.6806 1195.72 58.6554 1195.92 58.7436ZM1195.83 47.605C1195.84 47.1008 1195.84 46.5966 1195.84 46.105C1195.78 45.5083 1195.75 44.9117 1195.75 44.3109C1195.74 44.3067 1195.73 44.3025 1195.71 44.2983C1190.1 42.4285 1184.8 39.5924 1179.48 37.1134C1174.63 34.7394 1169.67 32.6596 1164.89 30.1974C1159.31 27.4999 1153.47 25.3445 1147.91 22.689C1143.72 20.6176 1139.24 18.9915 1135.27 16.5714C1134.78 16.2688 1134.3 15.9621 1133.83 15.6386C1133.7 15.5504 1133.55 15.4537 1133.4 15.3529C1133.07 15.3361 1132.75 15.3361 1132.4 15.3949C1131.03 15.626 1129.64 15.7941 1128.3 16.1596C1127 16.5378 1125.68 16.9999 1124.3 16.8949C1123.12 16.6806 1121.93 16.8403 1120.76 17.0546C1119.21 17.3109 1117.69 17.7688 1116.16 18.1176C1114.71 18.4369 1113.24 18.9705 1111.73 18.8487C1111.47 18.8445 1111.25 18.6974 1111.16 18.4873C1111.06 18.5167 1110.97 18.5504 1110.87 18.584C1105.88 20.2899 1100.82 21.8739 1095.62 22.8319C1094.39 23.0798 1093.16 23.3193 1091.93 23.5294C1091.84 23.668 1091.71 23.7773 1091.55 23.8067C1090.78 24.0378 1090.12 23.9033 1089.38 24.0294C1088.08 24.2562 1086.8 24.647 1085.6 25.1974C1084.33 25.8067 1083.31 26.8067 1082.04 27.4243C1081.42 27.7562 1080.71 27.9327 1080 27.8109C1079.3 27.6512 1078.58 27.5209 1077.88 27.7688C1075.4 28.9075 1072.82 29.7857 1070.18 30.5041C1069.77 30.6512 1069.35 30.7773 1068.99 31.0083C1068.84 31.126 1068.63 31.1764 1068.45 31.084C1068.38 31.0378 1068.33 30.9915 1068.3 30.9369C1067.96 31.3025 1067.63 31.6764 1067.47 32.1512C1067.15 33.1512 1066.96 34.1848 1066.66 35.189C1067.89 34.8109 1069.12 34.4495 1070.35 34.084C1073.37 33.2436 1076.46 32.5672 1079.5 31.8697C1082.77 31.2773 1086.06 30.7478 1089.24 29.7436C1091.2 29.1512 1093.12 28.4159 1095.09 27.8445C1099.1 26.8109 1103.12 25.8277 1107.14 24.8403C1113.39 23.2142 1119.83 22.4243 1126.16 21.189C1127.71 20.8781 1129.18 20.4999 1130.75 20.3739C1130.97 20.3529 1131.02 20.6302 1130.93 20.8067C1131.57 20.9873 1132.29 21.2899 1132.62 21.3529C1137.31 22.8991 1141.99 24.4537 1146.59 26.2604C1150.58 27.7436 1154.58 29.1806 1158.51 30.8235C1164.19 33.1386 1169.67 35.9243 1175.3 38.3613C1178.91 39.9075 1182.46 41.605 1185.88 43.5167C1188.48 44.9537 1190.97 46.5966 1193.6 47.9831C1194.24 48.3235 1194.87 48.7016 1195.51 49.0294C1195.57 48.5167 1195.67 48.0125 1195.83 47.605ZM1210.43 90.2814C1210.48 91.3235 1210.32 92.3571 1210.2 93.3907C1210.23 94.1596 1209.87 95.1806 1209.01 95.3025C1207.22 95.5083 1205.45 95.8151 1203.67 96.0714C1198.52 96.7941 1193.3 96.7857 1188.11 96.7394C1181.49 96.8823 1174.86 96.8781 1168.23 96.7773C1163.7 96.6218 1159.15 96.4327 1154.61 96.6386C1148.15 97.0251 1141.69 97.3697 1135.22 97.5882C1127.32 97.8781 1119.43 98.0882 1111.52 97.9663C1106.42 98.0756 1101.34 98.5209 1096.26 98.8025C1086.42 99.2058 1076.8 101.164 1066.99 101.765C1059.35 102.155 1051.49 102.235 1043.92 102.895C1038.28 103.462 1032.6 103.718 1026.93 103.849C1024.89 104.034 1023.84 102.899 1023.18 101C1023 100.584 1022.85 100.16 1022.73 99.7226C1022.4 98.8025 1022.01 97.6848 1022.98 96.9957C1023.61 96.5167 1024.39 96.9621 1024.41 97.71C1024.68 98.9831 1024.92 100.361 1025.66 101.454C1025.81 101.626 1026.04 101.693 1026.26 101.714C1027.18 101.769 1028.1 101.769 1029.01 101.739C1033.7 101.496 1038.39 101.399 1043.06 100.954C1048.99 100.475 1054.95 100.513 1060.87 99.8487C1065.15 99.4915 1069.39 98.8949 1073.67 98.4957C1080.41 97.9453 1087.17 97.4243 1093.94 97.6134C1096.17 97.6512 1098.4 97.752 1100.63 97.7562C1105.31 97.7058 1110.08 96.9999 1114.7 96.6176C1124.49 95.6596 1134.27 94.71 1144.12 94.8991C1150.87 95.1596 1157.61 94.8025 1164.35 94.3193C1168.3 94.0714 1172.25 93.689 1176.21 93.8109C1179.03 93.8739 1181.83 94.0252 1184.64 94.2646C1189.85 94.5714 1195.02 95.5125 1200.24 95.6638C1203.13 95.5462 1206.13 95.2688 1208.86 94.3403C1209.08 93.5546 1209.09 92.71 1209.11 91.8949C1209.1 91.3655 1209.08 90.8151 1208.81 90.3403C1207.52 90.3655 1206.23 90.5714 1204.95 90.6764C1202.58 90.9075 1200.29 91.0798 1197.94 91.231C1191.42 91.7815 1184.81 91.9075 1178.3 91.2646C1171.54 90.731 1164.76 90.6638 1157.98 90.5882C1154.21 90.5083 1150.44 90.2394 1146.66 90.1932C1142.07 90.1386 1137.48 90.3151 1132.91 90.7604C1127.01 91.1638 1121.1 91.4957 1115.18 91.5336C1110.07 91.647 1104.96 91.273 1099.85 91.063C1095.39 90.9453 1090.92 91.3361 1086.48 91.71C1082.94 91.9621 1079.4 92.2983 1075.85 92.4159C1069.59 92.5504 1063.34 92.1974 1057.08 92.1638C1049.54 92.1092 1042.22 93.3361 1034.8 94.4327C1030.99 95.0125 1027.26 95.9915 1023.46 96.6722C1023.44 96.71 1023.41 96.7394 1023.37 96.7394C1023.34 96.7394 1023.32 96.731 1023.31 96.71C1023.12 96.7688 1022.97 96.7983 1022.78 96.6974C1022.57 96.584 1022.51 96.3193 1022.51 96.105C1022.5 95.4453 1023.1 95.0083 1023.63 94.731C1025.21 94.1932 1026.83 93.8193 1028.48 93.5378C1028.43 93.3193 1028.4 93.0966 1028.35 92.9159C1028.16 91.9747 1028.13 90.9285 1028.66 90.0882C1028.73 89.9663 1028.82 89.8571 1028.94 89.7773C1028.95 89.6386 1029 89.4873 1029.09 89.3193C1029.52 88.7352 1030.31 88.8907 1030.95 88.8613C1031.4 88.8529 1031.84 88.8277 1032.29 88.7941C1032.29 88.6428 1032.29 88.5041 1032.28 88.3739C1032.26 86.0882 1032.14 84.021 1032.06 81.7814C1031.98 77.9453 1031.76 74.1176 1031.77 70.2941C1031.78 67.9411 1031.93 65.5882 1031.85 63.2352C1031.85 62.7478 1031.81 60.7142 1032.06 59.2058C1031.87 59.189 1031.7 59.1386 1031.54 59.0294C1030.95 58.5546 1030.78 57.7268 1030.87 57.0083C1030.95 56.5882 1030.97 55.9327 1031.17 55.4579C1030.95 52.2562 1030.72 49.1134 1030.61 45.9117C1030.58 43.4243 1030.54 40.8823 1031.03 38.4327C1030.56 37.9957 1030.46 37.273 1030.4 36.6638C1030.31 35.2016 1031.2 33.8067 1032.52 33.1848C1033.81 32.5714 1035.23 32.1806 1036.65 32.0209C1037.03 31.8487 1037.47 31.8319 1037.82 32.0966C1038.36 32.5504 1038.52 33.3445 1039.15 33.7142C1039.7 34.0041 1040.43 34.2394 1041.04 34.0252C1041.24 33.6554 1041.18 33.1638 1041.27 32.752C1041.61 30.3025 1041.35 28.063 1044.58 28.0252C1046.64 27.7394 1046.44 30.8151 1046.95 32.1134C1047.38 33.1344 1048.73 33.4747 1049.76 33.4789C1050.61 33.4579 1050.96 34.3109 1051.18 34.9915C1051.68 35.2226 1052.24 35.2184 1052.76 35.3781C1053.29 35.5209 1053.73 35.8655 1054.09 36.2646C1054.37 36.5546 1054.59 36.8823 1054.84 37.1974C1055.06 37.4747 1055.37 37.6764 1055.49 38.0083C1055.61 38.2688 1055.56 38.6176 1055.42 38.8949C1056.48 38.6134 1057.54 38.3403 1058.6 38.0167C1060.08 37.5924 1061.5 37.0294 1062.92 36.4663C1063.75 36.1512 1064.58 35.8613 1065.43 35.5882C1065.29 34.6554 1065.61 33.1512 1065.66 32.5882C1065.76 31.8571 1065.95 31.0924 1066.39 30.4873C1066.77 29.9453 1067.34 29.4495 1067.82 29.063C1068.28 28.4201 1068.41 27.5588 1068.53 26.7899C1068.02 26.6092 1067.48 26.8319 1067 26.5672C1065.47 25.7058 1066.39 24.0756 1067.54 23.3571C1068.91 22.3529 1070.5 21.6386 1072.12 21.1554C1072.52 20.8949 1073.1 20.8109 1073.54 21.0378C1074.67 21.8235 1074.02 24.2436 1076.06 23.6764C1076.22 21.2815 1077.26 20.731 1079.35 19.9075C1080.99 19.3277 1082.62 18.668 1084.31 18.2604C1085.11 18.1008 1085.64 18.8487 1085.82 19.5252C1085.96 19.9159 1085.93 20.3865 1086.21 20.7142C1086.56 20.9243 1087.03 20.8529 1087.41 20.9999C1088.11 21.2646 1088.17 22.0714 1088.44 22.6554C1089.08 22.5462 1089.73 22.4957 1090.38 22.5125C1091.76 22.168 1093.1 21.6302 1094.44 21.1428C1096.64 20.2941 1098.75 19.4663 1100.92 18.584C1104.4 17.2016 1108.23 16.521 1111.79 15.4621C1110.74 14.4327 1109.98 13.0462 1110.72 11.6596C1111.64 10.147 1113.98 10.2688 1115.53 9.8865C1116.92 9.61759 1118.29 9.27725 1119.68 9.10078C1121.02 8.87809 1122.37 8.76045 1123.68 8.40751C1123.87 5.84448 1125.49 4.95372 1127.88 4.76045C1129.27 4.6428 1130.91 4.51255 1132.23 4.8907C1133.52 5.21003 1133.85 6.52935 1134.3 7.59658C1134.57 8.10498 1134.76 8.74364 1134.64 9.29826C1138.17 7.86129 1146.01 7.26045 1147.51 7.11339C1153.29 6.43272 1159.06 5.61339 1164.87 5.32347C1166.33 5.11339 1167 5.78986 1166.59 7.23524C1166.4 8.02095 1166.25 8.81507 1166.1 9.60919C1165.93 10.2562 1166.42 10.7646 1166.89 11.1428C1167.94 11.9579 1169.09 12.6344 1170.14 13.4537C1170.81 14.0294 1171.3 14.5798 1171.67 15.3403C1172.08 16.1974 1171.98 17.0125 1172.43 17.7983C1172.91 18.6302 1173.76 19.1554 1174.64 19.4747C1175.16 19.7646 1175.55 20.2268 1176.05 20.5546C1176.55 20.1554 1177.21 20.5924 1177.43 21.1092C1177.76 21.8403 1177.55 22.6806 1177.58 23.4537C1178.16 24.105 1178.86 23.4033 1179.43 23.1134C1179.87 22.9033 1180.36 22.8865 1180.85 22.9453C1181.99 23.1386 1183.11 23.584 1184.08 24.2184C1185.72 25.2983 1184.3 27.3613 1183.83 28.7184C1186.12 32.3151 1189.97 34.4537 1193.14 37.1848C1194.19 38.0672 1195.32 38.8487 1196.36 39.7352C1196.93 40.2646 1197.78 40.8529 1197.47 41.7436C1197.47 41.7604 1197.46 41.773 1197.45 41.7857C1197.59 42.1722 1197.58 42.647 1197.59 43.0209C1197.57 44.4957 1197.51 45.9201 1197.47 47.3445C1197.47 47.3529 1197.47 47.3571 1197.48 47.3655C1197.75 48.3445 1197.53 49.3865 1197.61 50.3907C1197.59 51.689 1197.61 52.9873 1197.58 54.2857C1197.49 55.1302 1197.75 57.2899 1196.91 57.8613C1196.82 58.3949 1196.72 59.3067 1196.41 59.7983C1196.43 60.3025 1196.35 60.8235 1196.35 61.3277C1196.33 62.1722 1196.3 63.0167 1196.27 63.8571C1196.14 66.647 1196.35 69.4327 1196.33 72.2226C1196.32 73.8193 1196.33 75.4537 1196.4 77.042C1196.46 78.7604 1196.42 80.4831 1196.42 82.2016C1196.42 82.2394 1196.42 82.2814 1196.42 82.3235C1196.87 82.3277 1197.32 82.3277 1197.77 82.3109C1198.91 82.3109 1200.06 82.1932 1201.19 82.2689C1201.66 82.3109 1202.14 82.3823 1202.5 82.731C1203.4 83.6848 1203.26 85.126 1203.16 86.3277C1203.11 86.7773 1203.15 87.5252 1202.6 87.6008C1202.35 87.605 1202.26 87.3403 1202.29 87.1344C1202.43 86.5924 1202.34 86.0966 1202.35 85.5588C1202.32 85.0336 1202.28 84.4705 1201.99 84.0167C1201.75 83.6302 1201.25 83.7058 1200.86 83.7142C1199.99 83.7857 1199.13 83.7814 1198.26 83.8613C1197.53 83.9075 1196.81 83.9537 1196.08 83.9999C1195.96 84.126 1195.78 84.21 1195.55 84.2268C1195.37 84.2016 1195.24 84.1428 1195.13 84.063C1192.75 84.2226 1190.38 84.3865 1188.01 84.5167C1181.41 84.8361 1175 85.8949 1168.42 85.9663C1164.88 86.0924 1161.34 85.8823 1157.81 85.71C1150.78 85.563 1143.75 85.189 1136.71 84.9537C1124.24 84.9411 1111.87 87.0041 1099.36 86.7016C1095.03 86.6722 1090.74 86.0294 1086.42 85.9705C1086.25 85.9663 1086.07 85.9663 1085.91 85.9663C1085.79 86.2646 1085.58 86.5041 1085.22 86.5588C1084.83 86.5966 1084.49 86.3109 1084.32 85.9621C1074.84 86.0125 1065.46 87.1596 1056.07 88.2815C1055.88 88.3949 1055.66 88.4159 1055.45 88.3571C1051.43 88.8361 1047.41 89.3067 1043.38 89.6764C1041.86 89.8277 1040.34 89.9999 1038.83 90.1764C1037.89 90.2688 1035.83 90.5924 1033.82 90.7562C1033.69 90.9495 1033.48 91.0756 1033.15 91.0882C1032.94 91.042 1032.77 90.9495 1032.64 90.8319C1031.45 90.8823 1030.37 90.8403 1029.69 90.6134C1029.62 91.3361 1029.7 92.1176 1030.14 92.71C1030.23 92.8781 1030.27 93.0672 1030.26 93.2604C1033.4 92.8403 1036.59 92.6722 1039.68 92.3193C1050.45 91.0798 1061.23 89.4117 1072.08 89.2604C1075.7 89.2478 1079.32 89.3697 1082.94 89.1848C1086.32 89.0167 1089.7 89.105 1093.09 89.1722C1097.9 89.0714 1102.72 88.7857 1107.53 88.584C1112.26 88.4537 1117 88.2941 1121.73 88.2646C1127.71 88.5083 1133.64 88.9285 1139.58 89.273C1143.94 89.5588 1148.32 89.6092 1152.69 89.4537C1157.64 89.189 1162.57 88.6638 1167.53 88.5252C1170.81 88.3991 1174.08 88.1386 1177.36 88.2436C1180.54 88.3193 1183.71 88.4999 1186.88 88.5167C1190.93 88.4075 1194.91 88.2142 1198.97 88.5041C1201.12 88.563 1203.26 88.3445 1205.41 88.3025C1206.31 88.3067 1207.21 88.3907 1208.11 88.3487C1208.61 88.2815 1209.15 88.2016 1209.61 88.4285C1210.21 88.8109 1210.4 89.605 1210.43 90.2814Z" fill="black"/>
<path d="M1128.22 30.6092C1127.33 30.4537 1127.92 28.5714 1127.9 27.9117C1128.26 24.2058 1128.56 20.4915 1129.27 16.8277C1129.49 15.8403 1129.52 14.7142 1130.13 13.8781C1130.72 13.3529 1131.22 14.3865 1130.84 14.8361C1130.21 18.4705 1129.69 22.126 1129.26 25.7857C1129.12 26.9579 1128.99 28.126 1128.86 29.2983C1128.78 29.7563 1128.89 30.626 1128.22 30.6092Z" fill="black"/>
<path d="M1148.53 14.4076C1148.5 14.0042 1148.72 13.4118 1149.2 13.3992C1149.69 13.3866 1149.97 13.8866 1150 14.3151C1150.02 14.7185 1149.81 15.3109 1149.32 15.3235C1148.83 15.3361 1148.55 14.8403 1148.53 14.4076Z" fill="black"/>
<path d="M1151.91 12.2017C1151.9 11.9454 1152.04 11.563 1152.35 11.5546C1152.66 11.5462 1152.84 11.8697 1152.86 12.1428C1152.88 12.3991 1152.74 12.7815 1152.42 12.7899C1152.11 12.7983 1151.93 12.4748 1151.91 12.2017Z" fill="black"/>
<path d="M1152.39 15.7941C1152.37 15.4663 1152.55 14.9831 1152.95 14.9747C1153.35 14.9663 1153.57 15.3739 1153.6 15.7226C1153.62 16.0504 1153.44 16.5336 1153.04 16.542C1152.64 16.5504 1152.42 16.1428 1152.39 15.7941Z" fill="black"/>
<path d="M1177.12 45.9831C1177.1 45.7016 1177.25 45.2857 1177.6 45.2772C1177.94 45.2688 1178.13 45.6176 1178.15 45.9201C1178.17 46.2016 1178.02 46.6176 1177.68 46.626C1177.33 46.6302 1177.14 46.2814 1177.12 45.9831Z" fill="black"/>
<path d="M1180.69 46.2184C1180.66 45.7688 1180.9 45.105 1181.45 45.0924C1181.99 45.0798 1182.3 45.6386 1182.33 46.1176C1182.36 46.5672 1182.12 47.231 1181.58 47.2436C1181.03 47.252 1180.72 46.6974 1180.69 46.2184Z" fill="black"/>
<path d="M1167.28 56.4831C1166.7 56.0671 1167.11 55.3444 1167.48 54.9411C1166.59 54.9747 1166.61 53.8696 1166.55 53.2394C1166.43 52.168 1166.32 51.0965 1166.28 50.0209C1166.24 49.2562 1166.18 48.1217 1166.97 47.731C1167.09 47.6091 1167.36 47.5041 1167.41 47.3528C1168.32 45.8612 1170.71 47.6722 1171.89 48.0755C1173.79 48.7478 1174.84 49.3066 1174.1 51.5209C1173.96 51.8276 1173.71 51.9999 1173.45 52.1974C1172.86 52.71 1172.18 53.0629 1171.53 53.5041C1170.76 54.1175 1169.98 54.7226 1169.22 55.3486C1168.76 55.7394 1168.29 56.1217 1167.78 56.4327C1167.64 56.5293 1167.43 56.5881 1167.28 56.4831Z" fill="black"/>
<path d="M19.2778 227.78C20.0196 227.552 20.1112 228.577 20.0719 229.089C19.8843 232.883 19.2647 236.614 18.9723 240.35C18.7978 242.348 18.5884 244.349 18.5709 246.36C18.5578 247.35 17.3535 247.867 17.083 246.688C16.9521 245.379 17.1004 244.056 17.1659 242.746C17.275 240.727 17.3491 238.704 17.5411 236.689C17.72 234.455 17.9906 232.234 18.392 230.031C18.4705 229.571 18.5535 229.107 18.6931 228.66C18.7978 228.31 18.9331 227.951 19.2778 227.78Z" fill="black"/>
<path d="M23.3576 226.483C23.5278 231.844 23.1307 237.206 22.8907 242.558C22.8209 243.631 22.7816 244.704 22.7642 245.777C22.7554 246.701 21.6209 247.192 21.3635 246.088C21.3417 242.843 21.6602 239.593 21.7169 236.343C21.8653 232.948 21.6777 229.501 22.2973 226.142C22.3453 225.931 22.402 225.717 22.5024 225.524C22.6987 225.125 23.2223 225.191 23.2878 225.651C23.3358 225.923 23.3401 226.207 23.3576 226.483Z" fill="black"/>
<path d="M26.3902 243.649C26.0281 243.184 26.2157 242.549 26.2157 242.01C26.2681 240.924 26.3073 239.838 26.3204 238.752C26.399 233.951 26.255 229.116 26.8266 224.342C26.8615 223.812 27.3153 222.909 27.9349 223.36C28.428 223.904 28.2447 224.841 28.284 225.524C28.2622 228.139 28.1531 230.754 28.0658 233.369C27.9785 235.914 27.9218 238.458 27.7735 240.999C27.7386 241.673 27.7124 242.352 27.6382 243.027C27.5946 243.416 27.2848 243.868 26.8615 243.881C26.687 243.881 26.5124 243.789 26.3902 243.649Z" fill="black"/>
<path d="M37.4298 237.889C37.4516 234.691 37.8269 231.503 37.7789 228.305C37.8007 226.715 37.8531 225.13 37.9098 223.54C38.0014 222.042 37.9622 220.509 38.2938 219.042C38.4509 218.148 39.4806 218.345 39.3105 219.243C39.4283 222.217 39.1839 225.2 39.1185 228.174C39.0705 229.738 39.0487 231.306 38.9352 232.869C38.8043 234.49 38.6734 236.111 38.6341 237.74C38.6167 238.607 37.5476 238.918 37.4298 237.889Z" fill="black"/>
<path d="M40.7286 237.613C41.4267 230.916 41.0122 224.136 41.8325 217.443C41.9198 216.269 42.9801 215.936 43.015 217.355C43.0761 221.429 42.5961 225.493 42.5045 229.567C42.3823 232.274 42.378 235.016 41.9242 237.692C41.7235 238.476 40.7897 238.485 40.7286 237.613Z" fill="black"/>
<path d="M46.8069 216.536C46.9117 218.902 46.6935 221.258 46.4971 223.61C46.2528 226.786 46.1175 229.97 45.9081 233.145C45.8426 234.17 45.7379 235.195 45.6375 236.22C45.5983 236.807 44.8652 237.407 44.3896 236.842C44.01 236.343 44.2238 235.655 44.2412 235.081C44.2892 234.573 44.3372 234.065 44.3765 233.561C44.4856 232.16 44.4725 230.745 44.5597 229.343C44.7561 226.05 44.9219 222.752 45.0921 219.458C45.1488 218.091 45.127 216.72 45.3103 215.367C45.3408 214.832 45.8033 213.974 46.4142 214.408C46.6542 214.592 46.7066 214.955 46.7415 215.231C46.7895 215.66 46.7938 216.098 46.8069 216.536Z" fill="black"/>
<path d="M70.0119 220.18C70.2606 223.264 70.0162 226.365 69.8897 229.449C69.7719 232.3 69.5013 235.27 69.1479 238.064C69.113 238.392 69.0868 238.721 69.0563 239.049C68.9952 239.68 69.0694 240.705 68.2359 240.806C68.057 240.81 67.8912 240.727 67.7778 240.591C67.3676 240 67.6687 239.207 67.6861 238.541C67.8301 237.385 67.9349 236.373 68.0221 235.248C68.2141 233.272 68.2577 231.288 68.3407 229.308C68.441 227.245 68.5763 224.928 68.5632 222.935C68.5545 222.169 68.5196 221.402 68.537 220.636C68.5632 220.084 68.5501 219.471 68.8643 218.993C69.0039 218.81 69.2352 218.656 69.4708 218.748C69.9813 219.007 69.942 219.694 70.0119 220.18Z" fill="black"/>
<path d="M71.2162 241.949C71.1638 238.594 71.3951 235.116 71.779 231.844C72.0496 228.577 72.211 225.292 72.787 222.06C72.8655 221.648 72.9528 221.232 73.0881 220.833C73.1535 220.636 73.2495 220.395 73.4721 220.334C73.9957 220.308 73.795 221.166 73.808 221.495C73.7426 223.409 73.6422 225.546 73.6204 227.373C73.6204 228.708 73.6946 229.939 73.6422 231.196C73.5812 233.491 73.3499 235.782 73.3106 238.077C73.2233 239.343 73.2059 240.618 73.1143 241.883C72.9266 243.206 71.3602 243.443 71.2162 241.949Z" fill="black"/>
<path d="M75.7629 242.865C75.7454 239.4 75.5971 236.01 75.8807 232.567C76.064 229.484 76.016 226.387 76.2298 223.308C76.2298 222.874 76.6836 222.222 77.1068 222.664C77.3425 222.971 77.325 223.404 77.3817 223.772C77.5563 227.986 77.0719 232.274 77.1068 236.474C77.1243 238.555 77.1767 240.618 77.0894 242.694C77.0501 243.666 75.9025 243.999 75.7629 242.865Z" fill="black"/>
<path d="M88.6351 249.82C88.8053 246.679 89.0846 243.386 88.9973 240.276C88.9537 237.595 88.7355 234.919 88.7311 232.239C88.7355 231.875 88.7748 231.485 89.0104 231.196C89.3682 230.802 89.7958 231.174 89.8962 231.586C90.2016 232.554 90.2103 233.588 90.2932 234.591C90.6118 238.695 90.5158 242.821 90.1493 246.92C90.0751 247.831 89.9965 248.742 89.918 249.653C89.8831 250.004 89.7129 250.42 89.3289 250.503C88.9449 250.595 88.6395 250.192 88.6351 249.82Z" fill="black"/>
<path d="M92.6801 252.785C92.3703 252.404 92.4663 251.883 92.4706 251.427C92.4619 251.003 92.4619 250.608 92.4619 250.192C92.3485 244.936 92.187 239.645 92.8023 234.415C92.8895 233.588 93.7884 233.009 94.0415 234.118C94.3906 237.131 94.0066 240.18 93.9499 243.202C93.8931 245.589 93.9717 248.186 93.9499 250.516C93.9411 251.064 94.0066 251.616 93.9324 252.159C93.8757 252.746 93.1732 253.355 92.6801 252.785Z" fill="black"/>
<path d="M96.437 255.181C96.0661 254.712 96.245 254.073 96.2494 253.525C96.3279 252.29 96.4239 251.055 96.437 249.82C96.4806 245.83 96.4283 241.844 96.3716 237.854C96.4545 237.105 95.9221 235.397 96.9388 235.217C97.1657 235.199 97.3402 235.362 97.4624 235.532C98.0209 236.535 97.9642 237.771 98.0777 238.887C98.1562 240.425 98.13 241.962 98.1431 243.5C98.2173 246.491 98.0908 249.483 97.9206 252.465C97.7897 253.32 98.0951 255.291 96.9475 255.418C96.7468 255.426 96.5635 255.334 96.437 255.181Z" fill="black"/>
<path d="M61.0973 280.208C60.1809 280.239 59.3039 279.897 58.5795 279.346C57.5454 278.408 57.637 276.726 57.6327 275.434C57.5803 273.345 57.9905 271.282 58.0341 269.206C57.9512 268.58 57.6632 268.001 57.4101 267.432C56.9782 266.499 56.5374 265.575 56.0487 264.668C55.6647 265.36 55.2939 266.07 55.0582 266.828C54.9142 267.673 54.9142 268.544 54.8488 269.403C54.7528 270.669 54.731 271.935 54.7179 273.2C54.7092 273.98 54.7092 274.755 54.7179 275.535C54.7615 276.512 54.7833 277.778 53.7754 278.29C53.0728 278.649 52.1914 278.518 51.4322 278.583C50.7864 278.636 50.0315 278.553 49.4992 278.141C49.1937 277.905 49.281 277.471 49.3203 277.129C49.6563 273.875 50.3588 270.686 51.118 267.511C52.1871 262.75 53.4045 258.015 54.6742 253.306C54.9448 252.338 55.3026 251.392 55.4553 250.398C55.7346 249.408 55.8917 247.547 56.8429 247.039C58.0079 245.203 58.5185 247.315 58.7803 248.41C59.9715 252.514 60.1722 256.81 60.9489 260.998C61.8521 265.632 62.4499 270.332 62.6288 275.049C62.6419 275.995 62.6856 277.182 62.6856 278.071C62.7641 279.249 62.4369 280.274 61.0493 280.208C61.0624 280.208 61.0798 280.208 61.0973 280.208ZM61.1147 278.115C60.4995 270.656 58.9941 263.302 58.789 255.812C58.6581 255.86 58.5141 255.873 58.3483 255.838C58.0865 255.781 57.9163 255.531 57.6676 255.44C57.1701 255.269 56.52 255.44 56.184 254.936C54.6262 257.901 54.155 261.37 53.2867 264.559C52.8241 266.46 52.4096 268.369 52.0082 270.283C51.6111 272.346 51.0787 274.414 51.0089 276.52C51.7333 276.358 52.414 276.367 53.1034 276.301C52.9419 274.019 52.7369 271.746 52.7543 269.456C52.7543 268.334 52.8983 267.266 53.1645 266.166C53.5354 264.931 53.9368 263.674 54.6655 262.61C55.8131 260.901 56.9389 261.331 57.7854 262.986C58.7235 264.659 59.3781 266.473 59.4915 268.422C59.5308 269.819 59.3344 271.164 59.2122 272.552C59.0813 273.511 59.029 274.479 59.0246 275.447C59.0246 276.153 58.9941 276.884 59.1992 277.563C59.7795 277.9 60.4427 278.115 61.1147 278.115Z" fill="black"/>
<path d="M72.1412 263.998C72.1369 264.537 72.2721 265.128 72.0802 265.641C72.15 265.895 72.0889 266.499 71.7136 266.315C71.6307 266.258 71.5958 266.171 71.5565 266.079C71.3907 265.588 71.2598 265.084 71.1246 264.585C70.5398 262.338 70.1384 260.052 69.7195 257.77C69.4228 256.386 69.1217 255.002 68.8599 253.609C68.6897 252.518 68.3319 251.274 68.9603 250.267C70.1602 248.567 71.3253 250.827 71.5304 252.014C72.0409 254.121 72.0322 256.302 71.9885 258.457C71.9492 260.31 72.0191 262.158 72.1412 263.998Z" fill="black"/>
<path d="M45.0833 247.608C46.3313 247.661 46.436 249.347 46.3749 250.31C45.9517 254.244 44.2586 257.927 43.3859 261.751C43.2594 262.04 42.762 265.194 42.3344 264.366C42.4347 259.824 42.2645 255.203 43.1023 250.705C43.3641 249.597 43.7743 247.84 45.0833 247.608Z" fill="black"/>
<path d="M80.8201 278.759C80.6849 278.64 80.6456 278.426 80.6281 278.255C80.5365 277.234 80.5889 276.21 80.6194 275.189C80.6718 273.665 80.7503 272.114 81.1605 270.643C81.3787 269.631 82.5175 267.397 83.796 268.111C84.948 269.158 84.7691 271.413 84.8345 272.863C84.8345 273.888 84.804 274.917 84.7865 275.942C84.7036 276.652 85.092 277.87 84.1713 278.115C83.4164 278.132 83.4688 277.186 83.5037 276.652C83.5168 275.916 83.5255 275.18 83.5255 274.444C83.4775 272.846 83.6215 271.168 83.159 269.626C81.7888 270.546 81.7496 274.825 81.623 276.45C81.6012 276.928 81.5794 277.401 81.5445 277.878C81.527 278.154 81.5183 278.544 81.2958 278.746C81.1474 278.886 80.9685 278.89 80.8201 278.759Z" fill="black"/>
<path d="M27.5771 280.69C26.8222 280.248 27.8084 275.903 27.9785 275.014C28.2796 273.608 28.6462 272.219 29.1698 270.879C29.6323 269.591 30.9413 266.876 32.0191 269.364C32.7478 271.821 32.5384 274.449 32.4555 276.98C32.4118 277.699 32.3726 278.417 32.3376 279.135C32.3071 279.53 32.3595 279.968 32.1107 280.305C31.7006 280.839 31.0766 280.397 31.0853 279.819C31.0461 276.621 31.6482 273.376 30.9413 270.235C29.6541 272.574 29.1916 275.255 28.6462 277.843C28.4803 278.351 28.2927 280.949 27.5771 280.69Z" fill="black"/>
<path d="M63.3357 240.482C63.1655 239.527 63.2441 238.52 63.1699 237.547C63.1263 236.509 63.0346 235.476 62.9299 234.442C62.751 234.17 62.7903 233.811 62.7685 233.5C62.7641 233.031 62.7423 232.567 62.6943 232.099C62.5416 229.76 62.4019 227.416 62.079 225.095C61.8521 223.514 61.6078 221.937 61.5467 220.338C61.4943 219.699 61.3765 218.959 61.9001 218.485C62.463 217.929 64.1037 218.674 64.3917 219.291C64.5444 218.678 64.4135 217.877 64.9022 217.408C65.2164 217.128 65.5742 217.487 65.5262 217.842C65.4258 219.09 65.4956 220.373 65.3647 221.635C65.2513 222.931 65.1553 224.223 65.1466 225.524C64.9546 229.541 64.6797 233.548 64.3131 237.552C64.2259 238.441 64.1648 239.339 63.9684 240.21C63.9161 240.526 63.567 240.911 63.3357 240.482Z" fill="black"/>
<path d="M54.9405 219.046C54.9405 218.744 54.7834 218.354 54.4299 218.35C53.4612 218.446 52.4402 218.599 51.6111 219.151C51.2359 219.375 50.8432 219.856 51.0133 220.294C50.9261 220.509 50.865 220.732 50.8344 220.956C50.7733 220.132 50.6686 219.318 50.5246 218.507C50.5072 218.411 50.4941 218.28 50.4112 218.214C49.8657 217.934 49.7654 219.515 49.7348 219.883C49.5428 221.749 49.6127 223.623 49.6388 225.493C49.5297 227.158 49.5865 228.827 49.6127 230.495C49.6519 232.427 49.569 234.468 50.241 236.299C50.3457 236.903 50.4548 237.503 50.529 238.112C50.5464 238.344 50.577 238.914 50.7646 239.207C50.769 239.365 50.769 239.523 50.7733 239.68C50.8606 240.315 51.4933 240.026 51.4366 239.496C52.3835 239.115 52.1042 237.775 52.1827 236.952C52.1696 236.479 52.2962 235.585 51.9558 235.121C51.8817 234.608 52.0649 234.135 52.1871 233.649C52.5929 231.888 52.9638 230.119 53.2736 228.336C53.5049 226.908 53.6881 225.472 53.8321 224.031C53.9063 223.282 54.0328 222.384 54.1987 221.595C54.3427 220.881 55.0015 219.747 54.9405 219.046Z" fill="black"/>
<path d="M49.9137 187.992C49.3683 187.716 49.6737 186.919 50.0708 186.634C51.0133 185.938 52.1653 185.596 53.2823 185.303C54.443 185.044 55.6037 184.768 56.7818 184.611C59.0159 184.304 61.2587 184.335 63.5059 184.427C64.4833 184.457 65.4608 184.523 66.4382 184.549C66.7131 184.558 67.0011 184.54 67.2542 184.659C67.9741 185.031 67.5378 186.319 66.7785 186.323C65.932 186.179 65.0637 186.161 64.2041 186.139C62.1533 186.043 60.3075 186.135 58.3352 186.415C56.4589 186.603 54.5783 186.827 52.7456 187.295C52.1565 187.444 51.5849 187.637 51.0046 187.821C50.6512 187.909 50.2803 188.097 49.9137 187.992Z" fill="black"/>
<path d="M49.7435 181.225C49.3202 180.077 51.8249 179.302 52.6059 178.925C55.8174 177.681 59.2733 177.397 62.6812 177.204C64.2913 177.072 65.9189 176.994 67.5246 177.2C68.1922 177.213 68.5501 177.567 68.3799 178.251C68.2795 178.61 67.9741 178.978 67.577 178.973C64.6098 178.553 61.5729 178.908 58.6144 179.311C56.3891 179.591 54.1899 180.064 52.0605 180.76C51.5282 180.936 50.9958 181.124 50.4722 181.317C50.2322 181.426 49.8831 181.523 49.7435 181.225Z" fill="black"/>
<path d="M56.2233 236.557C56.2756 234.643 56.5505 232.738 56.6945 230.833C56.8516 229.532 56.856 228.165 57.3054 226.926C57.4407 226.615 57.8072 226.321 58.1475 226.505C58.7192 226.882 58.5795 227.67 58.5752 228.262C58.4094 231.03 58.0559 233.78 57.8727 236.549C57.7592 237.836 56.2844 237.933 56.2233 236.557Z" fill="black"/>
<path d="M18.8109 216.436C18.776 215.63 18.8589 214.762 19.16 214.013C19.2735 213.794 19.4218 213.58 19.6443 213.47C19.9411 213.326 20.2509 213.422 20.4472 213.681C20.6959 214.009 20.6741 214.482 20.6479 214.872C20.5825 215.459 20.5869 215.888 20.5258 216.431C20.3163 217.579 18.9898 217.662 18.8109 216.436Z" fill="black"/>
<path d="M22.7337 215.625C22.354 215.235 22.4239 214.653 22.4457 214.158C22.4806 213.453 22.437 212.704 22.7293 212.042C23.1569 211.118 24.082 211.447 24.13 212.393C24.1823 213.225 24.1169 213.987 24.1212 214.806C24.1038 215.49 23.3358 216.238 22.7337 215.625Z" fill="black"/>
<path d="M26.2462 213.291C26.2113 212.34 26.3248 211.333 26.7349 210.466C27.0447 209.857 27.7298 209.857 27.9262 210.549C28.1531 211.434 28.0833 212.388 27.9393 213.282C27.7124 214.425 26.4208 214.504 26.2462 213.291Z" fill="black"/>
<path d="M19.1731 208.079C19.1207 207.435 19.1251 206.773 19.2254 206.138C19.304 205.722 19.653 205.183 20.1374 205.398C20.565 205.635 20.5955 206.2 20.6697 206.629C20.805 207.194 21.0232 207.807 20.757 208.372C20.3337 209.301 19.304 209.055 19.1731 208.079Z" fill="black"/>
<path d="M22.4588 206.738C22.3715 206.397 22.4064 206.033 22.4151 205.687C22.4413 205.201 22.389 204.658 22.6595 204.224C22.786 204.04 22.9518 203.852 23.1918 203.834C24.2434 203.821 24.1518 205.665 24.1605 206.401C24.0951 207.509 22.8078 207.965 22.4588 206.738Z" fill="black"/>
<path d="M26.6346 205.665C25.919 205.056 26.3728 201.846 27.6426 202.52C28.572 203.322 28.4149 206.839 26.6346 205.665Z" fill="black"/>
<path d="M20.2028 200.37C19.6094 199.691 19.893 198.662 20.1548 197.895C20.2988 197.483 20.7264 196.949 21.189 197.277C21.6908 197.768 21.717 198.605 21.7606 199.27C21.8173 200.085 20.9795 201.11 20.2028 200.37Z" fill="black"/>
<path d="M23.4187 198.802C23.3664 198.333 23.4536 197.86 23.5453 197.4C23.7416 196.209 24.8107 196.02 25.0288 197.326C25.2601 198.118 25.3736 199.494 24.322 199.708C23.8245 199.761 23.4667 199.257 23.4187 198.802Z" fill="black"/>
<path d="M27.708 198.167C26.5648 197.943 26.927 196.134 27.6818 195.648C28.4324 195.359 28.6113 196.458 28.6374 196.988C28.668 197.501 28.3015 198.219 27.708 198.167Z" fill="black"/>
<path d="M21.1934 193.655C19.8843 193.498 20.4341 190.673 21.5599 190.69C22.1097 190.756 22.2362 191.391 22.2188 191.851C22.2493 192.547 22.0879 193.668 21.1934 193.655Z" fill="black"/>
<path d="M24.239 193.243C23.1307 193.033 23.3838 191.601 23.6543 190.817C23.7765 190.414 23.9729 190.007 24.3874 189.849C25.0986 189.669 25.3474 190.576 25.3081 191.128C25.3561 191.916 25.2994 193.239 24.239 193.243Z" fill="black"/>
<path d="M21.1148 186.323C21.1279 185.889 21.2283 185.469 21.3941 185.066C21.525 184.624 21.9701 183.888 22.4762 184.343C22.738 184.593 22.7031 185.005 22.7424 185.338C22.8297 186.034 22.8558 187.16 21.9701 187.317C21.4508 187.379 21.0974 186.792 21.1148 186.323Z" fill="black"/>
<path d="M36.4393 209.191C35.8197 208.666 36.0728 207.737 36.1557 207.036C36.2168 206.471 36.5702 205.284 37.3207 205.862C37.7571 206.362 37.5825 207.137 37.6611 207.75C37.6698 207.873 37.6916 208.03 37.696 208.153C37.7571 208.797 37.1069 209.664 36.4393 209.191Z" fill="black"/>
<path d="M39.7773 206.489C39.7817 205.718 39.9781 202.336 41.3133 203.615C41.6711 204.452 41.3962 205.42 41.5271 206.305C41.5925 207.724 39.8341 208.052 39.7773 206.489Z" fill="black"/>
<path d="M44.8782 205.854C43.6521 205.586 44.0885 203.996 44.2412 203.112C44.3721 202.626 44.4157 202.03 44.8564 201.71C45.1051 201.535 45.4237 201.561 45.6375 201.78C46.0084 202.157 45.9517 202.744 45.9909 203.23C45.9909 204.132 46.1393 205.81 44.8782 205.854Z" fill="black"/>
<path d="M35.8939 199.984C35.92 199.279 35.9942 197.943 36.8276 197.755C37.024 197.72 37.2204 197.851 37.3294 198C37.5651 198.32 37.5389 198.732 37.5607 199.108C37.5869 199.397 37.5913 199.682 37.5782 199.971C37.4691 201.29 35.968 201.39 35.8939 199.984Z" fill="black"/>
<path d="M40.1482 199.595C38.7781 199.24 39.5548 197.413 39.8035 196.48C39.9475 195.885 40.637 195.328 41.0558 196.038C41.2609 196.397 41.1955 196.861 41.1737 197.26C41.1562 197.808 41.178 198.022 41.1475 198.495C41.0995 199.008 40.7373 199.651 40.1482 199.595Z" fill="black"/>
<path d="M44.2412 196.104C44.2936 195.39 44.3198 194.592 44.743 193.988C44.9568 193.721 45.3103 193.55 45.6419 193.721C46.3924 194.207 46.2702 195.302 46.2353 196.086C46.0695 197.658 44.3198 197.75 44.2412 196.104Z" fill="black"/>
<path d="M36.6051 191.816C36.0772 191.767 35.8895 191.159 35.9157 190.712C35.9986 190.103 36.147 188.544 37.0895 189.039C37.4735 189.372 37.4124 189.788 37.456 190.138C37.5564 190.778 37.456 191.829 36.6051 191.816Z" fill="black"/>
<path d="M40.4799 189.573C39.9388 189.525 39.6988 188.881 39.7512 188.408C39.8341 187.786 40.0741 185.688 41.0777 186.384C41.5533 186.98 41.418 187.843 41.4006 188.557C41.37 189.03 41.0166 189.626 40.4799 189.573Z" fill="black"/>
<path d="M43.879 187.112C43.9794 186.441 44.0274 185.412 44.8303 185.232C45.3146 185.18 45.5851 185.692 45.6942 186.091C46.436 188.631 43.8965 189.42 43.879 187.112Z" fill="black"/>
<path d="M43.2376 179.271C42.6878 178.641 42.9583 177.708 43.0543 176.963C43.1154 176.516 43.4863 175.886 44.0099 176.113C44.6426 176.446 44.9044 178.465 44.4943 179.039C44.2543 179.49 43.6128 179.687 43.2376 179.271Z" fill="black"/>
<path d="M39.0705 168.321C39.4632 166.828 40.6719 167.804 40.2355 168.908C39.773 169.828 38.8785 169.153 39.0705 168.321Z" fill="black"/>
<path d="M22.45 165.036C22.2886 164.936 22.2493 164.703 22.258 164.533C22.2755 164.187 22.5722 163.963 22.8515 163.814C23.9423 163.219 25.1641 162.842 26.303 162.382C26.844 162.167 27.3807 161.944 27.9175 161.708C28.2665 161.554 28.6112 161.383 28.9691 161.252C29.1087 161.199 29.2789 161.248 29.3967 161.331C29.8548 161.69 29.7588 162.619 29.1829 162.811C27.996 163.188 26.7568 163.665 25.6135 164.099C24.9634 164.357 24.3176 164.616 23.6587 164.857C23.2791 164.966 22.834 165.255 22.45 165.036Z" fill="black"/>
<path d="M35.6059 159.877C34.9339 158.874 36.5528 158.112 37.2466 157.7C39.1665 156.806 41.2522 156.338 43.2769 155.729C43.9794 155.554 44.6732 155.335 45.367 155.133C45.9299 154.945 46.4448 154.94 46.5582 155.646C46.6106 156.031 46.4448 156.482 46.0564 156.618C44.6819 156.929 43.3467 157.376 41.994 157.779C39.9126 158.383 37.8662 159.123 35.8852 159.982C35.7848 159.995 35.6801 159.96 35.6059 159.877Z" fill="black"/>
<path d="M69.9464 205.994C68.9559 205.578 69.1872 203.826 69.5668 203.037C69.846 202.45 70.518 202.503 70.6969 203.129C71.3253 203.65 70.9936 204.575 70.8104 205.223C70.71 205.604 70.4133 206.108 69.9464 205.994Z" fill="black"/>
<path d="M73.1797 207.772C72.6256 207.334 72.6998 203.585 73.8124 204.145C74.4888 203.817 75.0866 204.561 75.1084 205.192C75.1738 206.094 74.4626 208.941 73.1797 207.772Z" fill="black"/>
<path d="M75.9811 208.328C75.8894 207.619 75.9156 206.83 76.2821 206.195C76.3956 206.016 76.6007 205.858 76.8188 205.95C77.1679 206.112 77.2246 206.598 77.2901 206.935C77.9795 207.308 77.9446 208.341 77.5344 208.915C76.9628 209.721 76.0814 209.178 75.9811 208.328Z" fill="black"/>
<path d="M70.0816 199.446C69.4228 199.121 69.5318 198.219 69.6497 197.619C69.6322 197.041 70.0293 196.244 70.6969 196.34C71.9318 196.594 71.3863 199.857 70.0816 199.446Z" fill="black"/>
<path d="M73.8604 200.203C73.0488 199.717 73.1622 198.456 73.4153 197.676C73.5331 197.326 73.8211 196.879 74.2531 196.962C74.9207 197.164 74.9076 198.132 74.7767 198.692C75.0385 199.284 74.6589 200.457 73.8604 200.203Z" fill="black"/>
<path d="M77.0545 201.688C76.2429 201.417 76.3127 200.33 76.4349 199.643C76.5439 199.183 76.6312 198.535 77.1505 198.368C77.3861 198.311 77.5737 198.539 77.6392 198.745C78.7998 198.955 78.1541 201.925 77.0545 201.688Z" fill="black"/>
<path d="M70.6358 191.68C70.1209 191.119 70.0991 189.888 70.5878 189.306C70.9281 187.878 72.2372 188.522 72.1805 189.753C72.163 190.506 71.6917 192.389 70.6358 191.68Z" fill="black"/>
<path d="M73.7863 193.243C73.6204 192.937 73.6117 192.6 73.6597 192.258C73.6728 192.162 73.6946 192.07 73.7164 191.978C73.4241 191.483 73.5594 190.852 73.8517 190.392C74.0306 190.116 74.3884 189.941 74.7026 190.077C75.1957 190.283 75.2655 190.869 75.2786 191.334C75.2524 192.048 75.1782 193.3 74.371 193.55C74.1397 193.598 73.8953 193.445 73.7863 193.243Z" fill="black"/>
<path d="M77.4647 194.146C76.3869 193.957 76.7316 191.255 77.5738 190.931C79.0835 190.524 78.6297 194.299 77.4647 194.146Z" fill="black"/>
<path d="M74.5629 186.152C74.4626 185.973 74.4146 185.793 74.3884 185.592C74.3797 185.53 74.3753 185.469 74.3753 185.408C74.0829 184.987 74.1789 184.405 74.4538 184.002C74.6066 183.831 74.8247 183.546 74.9295 183.45C75.2262 183.209 75.5534 183.524 75.5665 183.844C76.0901 184.365 75.933 186.406 75.0385 186.454C74.8509 186.454 74.6546 186.319 74.5629 186.152Z" fill="black"/>
<path d="M77.6392 180.007C77.6174 179.315 77.421 178.562 77.8574 177.944C78.6079 176.924 79.4326 178.001 79.3235 178.921C79.2973 179.631 79.2188 180.721 78.4159 180.962C77.9054 181.023 77.6741 180.441 77.6392 180.007Z" fill="black"/>
<path d="M74.4277 174.9C74.1309 174.344 74.2313 172.031 75.2087 172.355C75.8807 172.268 76.1949 173.091 76.1119 173.647C76.1032 174.462 75.1564 176.205 74.4277 174.9Z" fill="black"/>
<path d="M85.8513 214.819C85.3145 214.714 85.0615 214.324 85.0222 213.794C84.9829 213.155 84.9087 212.489 85.1138 211.867C85.2229 211.526 85.4978 211.079 85.9167 211.166C86.5014 211.333 86.5581 212.082 86.5712 212.599C87.0556 213.067 86.6934 214.986 85.8513 214.819Z" fill="black"/>
<path d="M88.945 216.663C88.4432 215.879 88.5348 214.846 88.8664 214.009C89.0061 213.654 89.3333 213.067 89.8002 213.247C90.6904 213.133 90.7994 214.473 90.7907 215.109C90.8038 216.151 90.0446 218.126 88.945 216.663Z" fill="black"/>
<path d="M93.928 219.572C92.68 219.256 92.5971 216.392 93.64 215.809C93.8058 215.573 94.12 215.441 94.3949 215.564C95.5338 216.081 95.4421 219.69 93.928 219.572Z" fill="black"/>
<path d="M94.0197 211.193C93.531 210.724 93.5746 210.01 93.6619 209.401C93.5702 208.595 94.1113 207.089 95.1018 207.868C95.6123 208.35 95.6341 209.13 95.512 209.778C95.4072 210.431 94.8574 211.832 94.0197 211.193Z" fill="black"/>
<path d="M89.918 208.604C89.0889 208.263 88.9362 206.883 89.1195 206.103C89.2591 205.665 89.6344 205.127 90.1493 205.153C91.563 205.297 91.3361 208.775 89.918 208.604Z" fill="black"/>
<path d="M85.7378 205.696C85.3756 205.455 85.3102 204.973 85.2535 204.575C84.5509 203.545 85.8251 201.338 86.7065 203.099C87.0818 203.782 86.881 206.129 85.7378 205.696Z" fill="black"/>
<path d="M85.8905 198.215C85.2403 197.545 85.3451 196.301 85.8032 195.552C86.0476 195.166 86.5668 194.877 86.9857 195.188C87.7886 195.762 87.7493 197.803 86.7545 198.145C86.545 198.412 86.1436 198.456 85.8905 198.215Z" fill="black"/>
<path d="M90.5594 199.884C90.3979 199.778 90.2889 199.621 90.2103 199.446C89.0758 198.916 89.966 196.042 91.2532 197.028C91.8641 197.628 91.9906 198.653 91.6328 199.415C91.4539 199.822 90.9696 200.155 90.5594 199.884Z" fill="black"/>
<path d="M94.9927 202.415C94.7833 202.376 94.6393 202.192 94.5433 202.012C94.4385 201.811 94.3818 201.574 94.3556 201.342C93.7578 200.619 94.6611 198.767 95.621 199.476C96.3061 200.037 96.1359 202.547 94.9927 202.415Z" fill="black"/>
<path d="M94.5607 195.179C93.6138 194.882 93.6836 192.074 94.5214 191.632C95.8872 191.084 96.0574 194.045 95.2589 194.641C95.1803 194.947 94.8967 195.254 94.5607 195.179Z" fill="black"/>
<path d="M90.2191 192.573C89.8176 191.908 89.6562 190.913 89.9878 190.182C90.3849 189.323 91.3449 189.599 91.4976 190.462C91.6241 191.137 91.5979 191.903 91.1878 192.477C90.9609 192.832 90.4896 192.932 90.2191 192.573Z" fill="black"/>
<path d="M94.1287 187.515C93.928 187.296 93.7884 187.024 93.6618 186.757C93.3389 185.92 93.7753 183.717 95.0232 184.326C95.9745 184.812 95.5032 188.456 94.1287 187.515Z" fill="black"/>
<path d="M56.8211 178.128C56.4894 177.348 56.7338 176.437 56.7731 175.618C56.917 174.23 57.1614 172.85 57.4145 171.484C57.8072 170.577 58.7061 171.146 58.5795 171.979C58.3439 172.872 58.1475 173.936 57.9905 174.782C57.8465 175.531 57.7505 176.288 57.6283 177.042C57.5628 177.41 57.4014 178.798 56.8211 178.128Z" fill="black"/>
<path d="M60.3468 177.826C59.7228 177.616 59.1774 173.227 59.0421 172.377C58.9766 171.852 59.461 171.151 60.002 171.598C60.4602 172.11 60.2202 172.898 60.3817 173.525C60.5562 174.615 60.7657 175.702 60.8529 176.805C60.9097 177.182 60.9097 177.957 60.3468 177.826Z" fill="black"/>
<path d="M59.0595 172.202C56.0967 171.97 55.3506 168.54 55.5207 166.07C55.7433 164.143 56.3585 161.169 58.6014 160.77C59.2471 159.745 60.3773 160.91 60.7918 161.585C62.0572 163.757 62.2928 166.368 62.223 168.838C62.1619 171.068 61.4551 172.29 59.0595 172.202ZM59.858 170.078C60.0762 170.056 60.2944 170.025 60.4951 169.933C60.9358 167.923 60.7394 165.728 60.0151 163.806C59.8188 163.359 59.6486 162.855 59.2646 162.531C59.1075 162.461 58.9286 162.417 58.7977 162.303C57.8072 163.061 57.6588 164.397 57.3752 165.54C57.0043 167.564 57.1003 170.367 59.858 170.078Z" fill="black"/>
<path d="M111.172 316.668C110.727 316.116 109.99 316.335 109.379 316.348C108.301 316.387 107.224 316.357 106.146 316.348C106.163 315.971 106.172 315.599 106.181 315.222C106.255 312.204 106.281 309.186 106.237 306.169C106.093 301.394 106.246 296.616 106.085 291.842C105.984 288.43 105.413 284.917 104.723 281.557C104.069 279.118 104.06 276.564 103.48 274.107C103.231 273.165 103.017 272.136 102.336 271.4C101.73 270.805 101.097 270.993 100.508 271.549C100.539 270.24 100.604 268.93 100.687 267.62C101.032 261.751 101.346 255.869 101.123 249.991C101.115 249.579 101.102 249.167 101.088 248.756C101.315 246.189 101.577 243.618 101.752 241.029C101.939 236.715 102.088 232.392 102 228.078C101.865 223.444 101.682 218.796 101.39 214.162C101.193 210.943 101.088 207.584 100.918 204.347C100.818 202.634 100.648 200.812 100.482 199.008C100.325 196.231 100.115 193.458 99.8449 190.69C98.898 181.742 97.986 172.767 96.389 163.906C96.3497 163.46 96.3105 163.013 96.2668 162.57C95.7345 158.532 95.0451 154.476 93.8277 150.582C93.7884 150.39 93.7535 150.197 93.7186 150.004C93.5222 149.111 92.6626 144.459 91.4408 142.322C91.5063 142.234 91.563 142.142 91.6197 142.05C91.8117 141.818 92.0299 141.612 92.2481 141.406C93.2822 140.429 94.4822 139.37 94.6044 137.854C94.7963 136.194 94.1113 134.591 93.3782 133.146C92.7062 132.024 91.9034 130.198 90.3369 130.395C89.0147 130.675 88.1726 131.902 87.5792 133.032C86.7719 134.403 86.7894 136.093 87.2999 137.565C87.6359 138.612 88.0766 139.637 88.7137 140.543C88.9537 140.933 89.3027 141.262 89.4511 141.7C89.4511 141.704 89.4555 141.708 89.4555 141.713C89.0191 142.291 88.8708 143.049 88.6526 143.736C88.3079 144.923 87.9937 146.123 87.6315 147.31C86.0301 152.934 84.4462 158.585 83.6651 164.392C83.0019 168.948 82.3343 173.507 81.9372 178.093C81.8543 178.925 81.7714 179.757 81.6841 180.59C81.623 178.54 81.5663 176.49 81.5358 174.44C81.5227 164.988 81.5968 155.505 80.5845 146.097C79.8515 140.574 78.7606 135.095 77.5563 129.655C77.1461 127.986 76.6312 126.348 76.1556 124.701C76.0814 124.508 76.0378 124.276 75.9723 124.057C76.8189 124.289 77.8574 123.396 78.3461 122.769C79.4457 121.394 79.8427 119.515 79.3628 117.816C78.9788 116.313 78.1933 113.747 76.6138 113.181C75.7411 112.976 74.8902 113.484 74.1746 113.93C71.7354 115.442 70.9413 118.63 72.6168 121.026C73.0226 121.652 73.4677 122.252 73.952 122.822C74.048 122.918 74.1833 123.098 74.3448 123.286C74.323 123.326 74.3055 123.365 74.2924 123.4C74.1484 123.715 74.0175 124.035 73.8997 124.359C72.979 126.97 72.6081 129.734 72.1543 132.458C71.334 137.657 70.8714 142.9 70.2038 148.121C69.1479 156.828 67.6643 165.483 66.6738 174.199C65.6964 182.403 65.6091 190.672 65.0375 198.907C64.767 203.339 64.2259 207.754 63.8201 212.174C63.615 212.113 63.4055 212.056 63.2005 211.999C62.9779 211.95 62.7205 211.885 62.5067 212.016C61.7431 212.502 62.0311 213.873 62.9256 214.018C63.1656 214.062 63.4055 214.119 63.6455 214.176C63.4797 216.221 63.3576 218.271 63.3183 220.325C63.3183 220.75 63.423 221.188 63.7023 221.521C64.6186 222.572 65.7225 221.398 65.6964 220.382C65.8927 217.544 66.1153 214.784 66.3553 211.933C66.4294 210.926 66.4949 209.914 66.5472 208.898C67.2716 209.296 67.9872 209.712 68.6853 210.15C72.3376 212.494 76.0945 214.723 79.7206 217.136C79.7642 218.21 79.8209 219.283 79.8907 220.356C80.1656 222.165 81.9023 221.709 81.9416 220.202C81.9634 219.699 81.9765 219.191 81.9896 218.687C82.1772 218.818 82.3605 218.945 82.5481 219.081C86.6454 222.27 90.35 225.853 94.3382 229.195C95.9963 230.565 97.7417 231.831 99.3387 233.281C99.2864 237.065 99.3911 240.85 99.5176 244.634C99.4304 247.174 99.3475 249.715 99.2776 252.255C99.1075 255.68 98.946 259.114 98.8587 262.548C97.3621 261.418 95.8218 260.349 94.264 259.298C92.6888 258.195 91.131 257.064 89.486 256.075C88.9755 255.812 88.5042 255.356 87.9108 255.326C87.8279 255.326 87.7406 255.348 87.6577 255.387C87.3959 253.101 87.1646 250.81 86.9814 248.506C86.3312 242.61 85.4542 236.741 84.7167 230.855C84.4811 228.792 84.0971 226.751 83.6957 224.714C83.6215 224.442 83.3641 224.285 83.1197 224.359C83.0412 224.184 82.9233 224.057 82.7444 224C81.8848 223.908 81.8717 225.739 81.6798 226.444C80.506 233.404 80.0042 240.451 79.1446 247.455C79.0617 248.296 78.9744 249.137 78.8784 249.978C77.8312 249.404 76.8232 248.76 75.8022 248.151C73.5593 246.719 71.2772 245.352 68.873 244.205C67.5116 243.609 66.1589 242.847 64.6884 242.589C64.5095 242.571 64.3481 242.619 64.2259 242.702C63.7197 239.838 63.2746 236.965 62.9299 234.056C62.3278 228.126 62.1969 222.152 61.9656 216.19C61.9831 210.615 62.1183 205.026 61.5729 199.463C61.3198 197.374 61.1496 191.224 59.2428 190.221C58.5359 189.88 57.9643 190.191 57.6501 190.725C56.8953 191.071 56.8734 193.76 56.7076 194.584C55.8873 200.527 55.5033 206.524 54.7615 212.476C53.5441 212.726 52.2307 212.778 51.1006 213.335C50.7951 205.118 50.7864 196.905 50.3981 188.645C49.9006 179.793 48.561 171.019 47.6316 162.211C46.7153 154.41 46.772 146.526 45.7902 138.734C45.4412 136.137 45.079 133.54 44.6863 130.942C44.1627 127.535 43.447 124.149 43.1285 120.715C43.1416 120.702 43.1547 120.689 43.1634 120.676C43.2507 120.689 43.3336 120.68 43.4165 120.663C43.4296 120.663 43.447 120.658 43.4601 120.649C43.8398 120.536 44.1714 120.137 44.4681 119.905C45.2361 119.173 46.0695 118.341 46.2789 117.259C46.5451 115.043 45.5764 112.691 44.0012 111.149C42.2253 109.362 38.9963 111.771 38.4072 113.69C37.9927 114.973 38.2371 116.392 38.7694 117.601C39.0923 118.306 39.6246 118.889 40.1657 119.432C40.2835 119.554 40.4057 119.673 40.5279 119.791C40.2704 120.119 40.1308 120.588 40.0872 120.987C39.8603 122.117 39.5766 123.234 39.3148 124.355C37.6262 131.656 36.2299 139.037 35.4052 146.491C35.0779 149.614 34.7637 152.737 34.3012 155.843C33.4023 162.124 32.3551 168.405 31.9929 174.747C31.7224 180.485 32.006 186.227 32.0148 191.965C31.8577 190.134 31.6919 188.303 31.5348 186.472C30.9937 179.976 31.1508 173.516 30.7712 166.968C30.4352 160.407 29.3007 153.92 28.0178 147.49C27.804 146.548 27.5378 145.62 27.2891 144.687C27.2673 144.582 27.2368 144.428 27.1975 144.271C27.2193 144.139 27.2062 143.99 27.1582 143.841C28.5371 142.44 30.5443 141.244 30.8148 139.124C31.0199 137.061 29.7021 133.96 27.8302 132.966C27.132 132.55 26.2812 132.624 25.6005 133.036C24.4354 133.654 23.3707 134.573 22.8209 135.791C21.97 137.517 22.9387 139.405 23.794 140.924C24.274 141.722 24.7496 142.541 25.3081 143.294C25.2994 143.316 25.2906 143.333 25.2819 143.355C24.9503 144.236 24.719 145.147 24.4921 146.058C23.9336 148.327 23.4711 150.609 23.1176 152.921C22.6769 155.913 22.1402 158.891 21.6995 161.883C20.9926 166.924 20.6217 172.014 19.701 177.024C18.248 184.615 17.131 192.258 16.0881 199.919C15.3158 205.232 15.0932 210.601 14.7223 215.949C14.238 221.512 13.4177 227.04 12.8853 232.598C12.4795 237.008 12.2701 241.432 12.1828 245.86C12.0519 253.175 12.4926 260.498 11.9253 267.8C11.7639 267.804 11.5981 267.887 11.4279 268.071C10.2803 269.841 9.55162 271.834 8.95818 273.871C8.41711 275.561 7.96331 277.278 7.46151 278.978C6.75463 281.154 6.2572 283.393 5.82958 285.64C5.69431 286.375 5.55904 287.124 5.41941 287.882C4.56853 291.5 3.77002 295.131 3.26822 298.815C2.36498 304.649 1.82828 310.588 2.15117 316.488C2.16863 316.698 2.25153 316.913 2.4348 317.027C2.39989 318.52 2.40862 320.018 2.47843 321.512C2.22535 321.823 2.12063 322.283 2.26899 322.646C2.59188 323.347 3.4733 323.457 4.16273 323.54C7.59678 323.746 11.0439 323.435 14.478 323.281C17.1266 323.119 19.7796 323.027 22.4326 322.874C24.7976 322.734 27.1582 322.489 29.5232 322.362C31.8969 322.226 34.2009 322.326 36.5615 322.3C38.5381 322.283 40.5759 322.213 42.5394 321.937C44.3503 321.683 46.1786 321.621 48.0025 321.556C50.1057 321.477 52.2263 321.332 54.3121 321.223C54.4343 321.332 54.6088 321.315 54.7353 321.201C55.608 321.153 56.4851 321.113 57.3578 321.069C57.3796 321.113 57.4014 321.157 57.4276 321.196C57.6327 321.315 57.7505 321.227 57.8159 321.048C60.4297 320.925 63.039 320.824 65.6527 320.719C66.5123 320.684 67.3763 320.666 68.2359 320.666C68.5152 320.833 68.8424 320.811 69.1217 320.671C70.2126 320.68 71.3034 320.71 72.3943 320.763C77.5999 321.008 82.7924 320.325 87.985 320.715C89.8438 320.855 91.6808 320.382 93.5222 320.474C95.4203 320.566 97.3315 320.504 99.2427 320.369C101.651 320.106 104.117 319.773 106.634 319.663C107.743 319.58 108.86 319.598 109.964 319.488C111.107 319.234 111.884 317.636 111.172 316.668ZM74.096 119.892C73.7252 119.257 73.2321 118.521 73.5506 117.763C73.9826 116.756 74.9077 116.046 75.8763 115.59C76.0814 115.529 76.3607 115.328 76.5265 115.542C77.2727 116.41 77.7003 117.526 77.9664 118.63C78.2632 119.8 77.4646 120.899 76.5832 121.582C76.3869 121.718 76.1643 121.801 75.9287 121.814C75.6538 121.85 75.4662 122.025 75.3484 122.257C75.2873 122.117 75.2218 121.972 75.1564 121.832C74.8335 121.171 74.4713 120.531 74.096 119.892ZM79.0704 216.024C76.3389 214.171 73.7732 212.073 70.9064 210.431C69.7719 209.747 68.633 209.064 67.4636 208.438C67.2236 208.311 66.892 208.105 66.604 208.083C66.953 200.926 66.8832 193.69 67.5727 186.564C68.3843 177.949 69.7893 169.394 70.326 160.753C70.9805 149.921 71.8881 139.08 74.2182 128.463C74.3884 127.596 74.5542 126.724 74.7244 125.857C74.8597 126.497 75.0298 127.097 75.0996 127.46C76.0203 130.859 76.6356 134.328 77.3425 137.775C78.1715 141.792 78.7693 145.812 79.0399 149.925C79.3235 153.859 79.6813 157.783 79.9605 161.712C80.5234 169.018 80.3925 176.354 80.3445 183.678C80.17 194.601 79.3191 205.503 79.7162 216.427C79.498 216.295 79.2842 216.16 79.0704 216.024ZM89.0715 137.328C88.7966 136.671 88.5217 135.949 88.7442 135.23C88.9755 134.429 89.4118 133.689 90.014 133.11C90.2583 132.944 90.6991 132.344 91.0001 132.55C91.8685 133.706 93.3477 136.264 92.9811 137.723C92.5797 138.84 91.3405 139.348 90.6074 140.219C90.2191 139.199 89.4904 138.345 89.0715 137.328ZM99.3911 231.043C96.9737 228.857 94.4953 226.729 91.9339 224.723C88.6962 222.362 85.3843 220.11 82.0288 217.925C82.0637 216.466 82.0899 215.008 82.1597 213.549C82.4259 208.136 82.3997 202.722 82.2688 197.313C82.6048 190.353 82.9103 183.389 83.6346 176.459C84.132 172.386 85.1705 168.405 85.9036 164.366C86.6541 160.577 87.5661 156.824 88.4431 153.061C89.0409 150.433 89.5951 147.797 90.2714 145.191C90.6161 145.922 90.8998 146.675 91.2052 147.481C91.8903 149.281 92.5361 151.099 93.0291 152.961C93.9062 156.333 94.3382 159.798 94.8662 163.241C95.1323 165.141 95.4596 167.029 95.7869 168.921C96.1883 173.056 96.5199 177.2 96.821 181.339C97.2617 187.576 97.877 193.809 98.4529 200.041C98.4529 200.05 98.4573 200.054 98.4529 200.063C98.4922 200.497 98.5315 200.926 98.5707 201.36C98.5707 201.382 98.5751 201.403 98.5751 201.425C99.0856 207.027 99.5525 212.629 99.8143 218.245C99.8187 222.471 99.4827 226.807 99.3911 231.043ZM88.2773 256.701C89.3987 257.511 90.5332 258.304 91.6459 259.123C92.9768 260.1 94.2465 261.16 95.6254 262.071C96.6639 262.78 97.7941 263.468 98.8195 264.296C98.8238 264.3 98.8282 264.305 98.8326 264.305C98.7802 267.476 98.802 270.642 98.9591 273.809C98.5271 274.641 98.1868 275.443 97.9991 275.85C96.0792 280.344 94.456 284.956 93.0335 289.634C92.7935 288.285 92.5753 286.949 92.3659 285.622C92.4226 282.832 92.3615 279.967 92.2088 277.16C92.0299 273.205 92.1303 269.21 91.5587 265.286C91.4365 264.638 91.3012 263.972 90.9914 263.385C90.494 262.351 89.4118 262.023 88.8009 263.157C88.7791 263.201 88.7573 263.245 88.7355 263.288C88.3864 260.976 88.0679 258.659 87.7886 256.337C87.9457 256.46 88.1202 256.574 88.2773 256.701ZM64.4571 243.443C66.6782 244.275 68.7246 245.528 70.8627 246.557C73.5462 247.915 76.2167 249.316 78.7868 250.884C78.5075 253.236 78.1759 255.584 77.8137 257.923C77.7134 257.533 77.5257 257.192 77.1505 257.008C75.7847 256.775 74.8858 259.684 74.7069 260.735C73.987 264.283 74.1091 267.8 74.096 271.431C74.1702 273.726 74.035 275.999 74.0219 278.299C73.7906 279.28 73.5462 280.261 73.2932 281.242C73.1535 281.746 73.0008 282.249 72.8394 282.749C72.0583 278.912 71.1551 275.097 70.2998 271.278C68.3406 262.907 66.6258 254.485 64.8542 246.075C64.6884 245.195 64.5226 244.31 64.3655 243.43C64.3961 243.434 64.4266 243.438 64.4571 243.443ZM40.157 116.637C39.5985 115.682 39.5243 114.373 40.4624 113.633C41.0297 113.129 42.2515 112.17 43.0238 112.555C44.1583 113.387 44.7037 114.85 44.9132 116.199C44.9786 117.132 43.735 118.035 43.0718 118.578C42.8536 118.7 42.6573 118.858 42.5482 119.077C42.3998 119.068 42.2427 119.112 42.0856 119.217C41.9373 119.02 41.7671 118.832 41.6275 118.635C41.1039 117.938 40.6632 117.426 40.157 116.637ZM36.5484 150.972C37.6305 142.506 39.7817 134.232 41.4442 125.87C41.5751 125.266 41.7104 124.661 41.85 124.057C41.9984 125.086 42.1816 126.111 42.3605 127.132C43.194 131.884 43.8136 136.667 44.6557 141.419C45.4062 146.167 45.7815 151.165 46.0782 155.992C46.4884 162.413 46.7676 168.764 46.9727 175.202C47.4091 185.938 48.5654 196.629 49.1894 207.356C46.8069 208.03 44.6165 209.213 42.4434 210.369C39.3716 211.85 36.2953 213.383 33.206 214.872C33.2322 211.942 33.206 209.012 33.0533 206.081C32.9747 204.426 32.8744 202.77 32.7609 201.114C33.2103 184.356 34.7027 167.629 36.5484 150.972ZM24.4136 138.489C24.0645 137.701 23.8507 137.175 24.4703 136.444C24.7932 136.032 25.1728 135.677 25.6005 135.384C26.0455 135.13 26.4993 134.74 27.0317 134.731C28.4062 135.121 29.1 136.882 29.3356 138.174C29.4054 139.676 27.1888 140.876 26.2812 141.932C25.6528 140.727 24.9939 139.777 24.4136 138.489ZM16.2277 215.765C16.7732 207.387 18.5622 199.095 19.1949 190.721C19.6181 184.865 20.1418 178.96 21.0843 173.148C21.6864 169.114 22.2231 165.067 22.9824 161.059C23.6282 157.884 24.0471 154.432 24.6754 151.213C25.0376 149.356 25.4696 147.459 25.9321 145.563C25.9539 145.462 25.9757 145.366 25.9975 145.265C26.1677 146.509 26.6739 148.011 26.7568 148.787C28.0484 155.505 28.8949 162.303 29.6105 169.105C30.3785 178.124 30.5094 187.195 30.5792 196.248C30.5704 201.311 30.7363 206.37 30.9762 211.425C31.0068 212.914 31.0373 214.403 31.0679 215.888C30.169 216.317 29.2658 216.738 28.3669 217.154C25.9495 218.297 23.5802 219.537 21.2064 220.763C20.6566 221.092 16.9215 222.852 15.6823 224.118C15.8263 221.337 15.9965 218.551 16.2277 215.765ZM14.8925 238.782C15.2241 234.249 15.403 229.707 15.6299 225.169C15.6561 225.161 15.6823 225.143 15.7041 225.126C16.1885 224.78 16.7208 224.512 17.24 224.223C18.8589 223.347 20.4341 222.581 22.101 221.687C25.0681 220.058 28.1356 218.621 31.0941 216.974C31.1508 219.58 31.2206 222.182 31.3341 224.793C31.3515 225.288 31.7573 225.87 32.294 225.774C32.3987 225.743 32.4904 225.699 32.5689 225.651C32.6562 225.905 32.7653 226.054 32.9049 226.032C33.5158 226.037 33.2191 223.807 33.2453 222.905C33.206 221.897 33.1667 220.886 33.1274 219.874C33.158 218.507 33.1842 217.145 33.2016 215.783C34.9906 214.749 36.7622 213.702 38.6734 212.862C42.1162 211.272 45.7204 210.107 49.2679 208.779C49.281 209.051 49.2985 209.318 49.3116 209.59C49.4163 212.607 49.3552 215.625 49.4032 218.648C49.4075 219.296 49.4119 219.94 49.4206 220.588C49.4294 221.21 49.4294 221.827 49.4599 222.449C49.4643 222.844 49.5341 223.233 49.7915 223.544C50.5682 224.46 51.5849 223.426 51.5282 222.554C51.5064 221.442 51.4671 220.325 51.3973 219.213C51.3144 217.846 51.2489 216.479 51.1878 215.108C51.6067 215.262 52.0867 215.025 52.5056 214.942C53.1732 214.754 53.8408 214.565 54.5172 214.412C53.2692 223.457 52.2263 232.519 50.4679 241.472C50.2933 241.537 50.1188 241.612 49.9486 241.656C46.3749 242.895 42.6965 243.846 39.2276 245.374C38.32 245.79 37.4255 246.233 36.5833 246.776C36.5659 245.931 36.5397 245.081 36.5048 244.235C36.3957 242.037 36.1121 239.851 35.8372 237.67C35.571 235.857 35.4837 233.969 34.8248 232.243C34.2968 230.894 32.9747 230.925 32.7042 232.366C31.6919 237.547 30.8017 242.777 29.7501 247.967C29.7152 247.976 29.6759 247.989 29.6323 248.007C25.0507 249.973 20.1854 251.344 15.8132 253.793C14.9667 254.261 14.1551 254.787 13.3566 255.339C13.8453 249.816 14.526 244.314 14.8925 238.782ZM38.8741 256.473C38.5774 255.623 37.8967 255.628 37.3251 256.21C37.1287 256.412 36.9542 256.635 36.8058 256.872C36.7971 256.718 36.7884 256.565 36.7797 256.407C36.6226 253.464 36.64 250.516 36.5964 247.573C37.1069 247.424 37.5695 247.087 38.0713 246.907C39.7861 246.158 41.4791 245.475 43.2638 244.853C44.9306 244.297 46.6149 243.78 48.2949 243.254C48.9363 243.057 49.5777 242.856 50.2235 242.676C49.8701 244.406 49.4904 246.132 49.0716 247.853C48.0069 253.057 46.6455 258.186 45.3102 263.324C44.4288 266.819 43.6216 270.332 42.7445 273.827C42.1729 276.034 41.6144 277.992 40.8857 280.217C40.7591 280.598 40.6326 280.984 40.5104 281.365C40.4581 281.509 40.4013 281.658 40.349 281.816C40.3141 281.737 40.2704 281.663 40.2268 281.592C39.9563 280.813 39.7381 280.033 39.5505 279.245C39.5156 278.745 39.4719 278.242 39.4327 277.742C39.3018 275.014 39.1752 272.276 39.1752 269.539C39.1621 265.255 40.0828 260.682 38.8741 256.473ZM13.1777 257.594C13.2169 257.078 13.2606 256.556 13.3042 256.04C14.67 255.089 16.1099 254.253 17.6109 253.534C21.4552 251.572 25.4826 250.013 29.6018 248.712C28.8687 252.26 28.0527 255.786 27.0579 259.263C26.6782 257.695 25.2906 257.739 24.2652 258.86C22.5068 260.901 21.6079 265.689 21.1192 268.369C20.7439 270.489 20.3076 272.605 20.1243 274.755C19.9934 276.214 19.9672 277.686 19.784 279.14C19.6574 279.932 19.544 280.765 19.448 281.601C19.0291 282.736 18.5927 283.866 18.1433 284.991C17.9949 285.368 17.8378 285.74 17.6851 286.117C17.5368 285.232 17.3666 284.348 17.1964 283.467C16.4852 279.657 15.5819 275.877 14.3471 272.197C14.0067 271.208 13.6402 270.213 13.2126 269.254C13.0642 268.89 13.3653 268.347 13.0162 268.032C13.2518 264.572 12.942 261.063 13.1777 257.594ZM33.0925 319.826C32.1587 319.843 31.2293 319.887 30.2955 319.948C30.2737 318.853 30.2301 317.763 30.1777 316.672C30.0861 314.92 29.5668 307.938 28.0353 307.255C27.1408 306.953 26.8571 308.197 26.6215 308.819C25.9626 310.803 25.6528 312.883 25.4652 314.959C25.343 316.098 25.3299 317.241 25.3517 318.384C25.3648 319.037 25.3648 319.69 25.3997 320.342C24.6492 320.399 23.8943 320.456 23.1395 320.496C22.4369 320.526 21.7301 320.553 21.0275 320.574C21.0275 320.496 21.0319 320.43 21.0363 320.377C21.1017 318.345 21.2108 316.164 21.4377 314.114C21.7606 311.701 22.4849 309.37 23.1438 307.036C23.7809 304.736 24.4529 302.428 25.5699 300.313C26.4601 298.679 27.4855 297.12 28.6243 295.648C30.1603 297.181 30.8366 299.371 31.2904 301.451C31.958 304.579 32.3333 307.763 32.4642 310.96C32.6562 313.921 32.8875 316.878 33.1231 319.839C33.11 319.826 33.1013 319.826 33.0925 319.826ZM61.5554 319.366C61.5511 317.609 61.5423 315.848 61.5118 314.092C61.4507 312.612 61.4114 305.766 59.0028 306.48C56.9956 307.47 56.9651 311.876 56.9389 313.856C56.9214 315.774 56.9563 317.692 57.1222 319.602C56.6422 319.62 56.1622 319.637 55.6778 319.646C55.4073 319.65 55.1368 319.655 54.8662 319.659C54.7964 316.059 55.0801 312.432 54.5783 308.854C54.4299 307.61 53.5136 304.513 52.0867 306.646C50.974 308.499 50.8431 310.755 50.5333 312.853C50.3937 314.088 50.3893 315.336 50.3806 316.58C50.4024 317.053 50.3282 318.516 50.4111 319.76C48.9407 319.79 47.4658 319.821 45.9953 319.834C46.0128 319.607 46.0259 319.383 46.0477 319.16C46.2004 317.053 46.484 314.999 46.8549 312.901C48.417 305.271 50.7122 296.993 56.6771 291.605C58.3657 292.608 59.749 295.398 60.6827 297.137C62.991 302.253 64.2913 307.789 64.9109 313.361C65.0331 314.561 65.1509 316.05 65.1815 317.316C65.2077 317.911 65.2207 318.507 65.2513 319.103C64.0164 319.19 62.7859 319.287 61.5554 319.366ZM84.948 317.346C84.9 316.663 84.852 315.98 84.8302 315.297C84.7735 314.14 84.7342 312.975 84.5815 311.823C84.4156 310.868 84.1102 308.227 83.1721 307.842C82.3125 307.732 82.0943 309.108 81.9328 309.734C81.6318 311.228 81.5838 312.761 81.466 314.276C81.3874 315.428 81.3132 316.576 81.2652 317.727C80.1831 317.841 79.0966 317.946 78.0101 318.056C78.0188 317.946 78.0275 317.841 78.0363 317.732C78.2152 315.402 78.2195 313.058 78.4333 310.733C78.7082 307.925 79.0137 305.109 79.7118 302.367C80.3445 299.875 80.9903 297.334 82.3125 295.096C82.8055 295.376 83.0935 295.902 83.4164 296.357C84.6469 298.166 85.3756 300.256 85.7814 302.397C86.6977 306.436 86.9683 310.531 87.4003 314.644C87.5006 315.45 87.6228 316.256 87.7406 317.057C86.8112 317.154 85.8774 317.25 84.948 317.346ZM104.012 316.392C99.6529 316.584 95.2763 316.492 90.9259 316.781C90.891 316.352 90.8649 315.927 90.8605 315.498C90.7558 313.264 90.59 311.03 90.3325 308.81C89.9442 305.665 89.2635 302.56 88.6526 299.45C87.7668 294.973 86.4621 290.506 84.42 286.406C83.9575 285.618 83.4513 284.194 82.3081 284.488C81.0078 285.114 80.3314 286.634 79.6726 287.852C78.0843 291.299 77.3468 295.083 76.6967 298.801C76.0727 302.384 75.7498 306.015 75.5622 309.646C75.4269 312.537 75.2349 315.424 75.1782 318.319C73.3979 318.476 71.6176 318.617 69.8286 318.73C69.798 318.389 69.7457 318.047 69.7282 317.71C69.5929 316.216 69.4621 314.727 69.3006 313.238C68.5763 306.856 67.3065 300.47 65.6222 294.246C64.7582 290.602 63.4885 287.037 61.3809 283.923C60.5257 282.609 59.509 281.26 58.0167 280.651C56.472 279.95 55.3942 280.664 54.4823 281.943C53.7928 282.788 53.1776 283.695 52.6191 284.637C49.5254 289.481 47.7494 295.114 46.1568 300.615C44.7561 305.069 44.0143 309.699 43.3772 314.32C43.338 314.959 42.9802 317.71 42.9365 319.821C42.8798 319.821 42.8187 319.821 42.762 319.817C40.9031 319.747 39.0399 319.76 37.1811 319.786C37.0982 318.748 36.9978 317.714 36.9193 316.676C36.6357 313.628 36.2779 310.479 36.1121 307.36C35.7063 300.86 35.0866 292.481 31.1552 287.094C30.6883 286.647 30.169 286.135 29.4359 286.279C28.1313 286.634 27.2629 287.843 26.5342 288.911C25.3037 290.703 24.2827 292.634 23.3751 294.605C21.6733 298.451 20.6741 302.568 19.8799 306.686C19.16 310.452 18.5927 314.25 18.4618 318.087C18.4705 318.455 18.3746 319.646 18.4051 320.636C16.9128 320.675 15.4248 320.723 13.9369 320.82C11.8817 320.925 9.82651 320.995 7.77132 321.113C6.69354 321.153 5.59395 321.293 4.50745 321.258C4.50308 320.85 4.44636 320.421 4.46381 320.154C4.20637 316.435 4.21509 312.831 4.55981 309.046C4.94379 304.25 5.37141 299.432 5.99539 294.645C7.2477 286.783 8.89273 278.973 11.8119 271.54C12.1828 272.916 12.6497 274.26 13.1777 275.579C13.95 277.633 14.4387 279.727 14.8576 281.895C15.3158 284.663 15.7739 287.435 16.4808 290.151C16.4415 290.563 16.4503 290.974 16.555 291.382C16.7382 292.004 17.4975 292.122 17.6459 291.452C17.7288 291.338 17.7375 291.141 17.7026 291.023C17.7811 290.615 17.8858 290.217 18.0037 289.818C18.6494 287.729 19.6181 285.762 20.373 283.717C22.2188 278.513 24.1911 273.354 25.9015 268.106C28.284 260.783 29.6367 253.193 31.3864 245.707C32.0278 243.07 32.5951 240.412 33.1929 237.766C33.638 245.681 33.5812 253.714 34.7768 261.593C35.0954 263.91 35.4663 266.223 35.8197 268.536C36.496 272.762 36.9018 277.055 38.032 281.198C38.2371 281.917 38.4771 282.631 38.8523 283.283C39.1141 283.782 39.8254 283.958 40.2137 283.511C40.2181 283.507 40.2268 283.498 40.2312 283.489C40.3097 283.642 40.4275 283.787 40.6021 283.914C41.61 284.47 41.8544 283.187 42.1685 282.477C42.6267 281.347 43.0805 280.217 43.4907 279.07C45.9909 272.088 48.2643 265.01 49.761 257.735C51.7813 247.836 52.3922 237.722 53.7536 227.727C54.5739 221.827 55.8349 215.993 56.7207 210.089C57.2749 205.429 57.5061 200.738 58.1432 196.086C58.2043 195.543 58.261 195.004 58.3177 194.461C58.6668 196.231 58.8894 198.022 59.1643 199.8C59.4653 201.925 59.8188 204.045 60.0588 206.178C60.5824 211.464 60.8267 216.773 61.3765 222.055C61.6514 225.358 61.7082 228.63 61.8522 231.958C61.9962 235.918 62.3758 239.864 62.7379 243.811C63.1132 248.252 64.1168 252.601 64.8499 256.986C66.4731 266.959 68.7944 276.81 71.6438 286.498C71.8663 287.05 72.3245 287.484 72.9223 287.199C73.5288 286.91 73.3324 286.336 73.4241 285.828C73.7688 283.94 74.4189 282.105 74.8422 280.23C75.7324 276.266 76.3956 272.254 77.1505 268.26C78.0581 263.367 79.2624 258.492 80.122 253.582C80.7678 249.82 81.1431 246.014 81.4965 242.212C81.9154 237.547 82.4608 232.9 82.967 228.248C82.9888 228.406 83.015 228.564 83.0324 228.722C83.4339 231.639 83.8964 234.564 84.3022 237.565C84.7342 241.612 85.4934 245.606 86.1261 249.623C86.7632 254.112 87.3217 258.816 87.7973 263.372C88.5828 271.978 89.4816 280.589 91.1485 289.074C91.3841 290.164 91.6067 291.264 91.8641 292.35C92.0125 293.055 92.6975 293.581 93.2211 292.893C93.6662 292.065 93.8277 291.115 94.1331 290.23C94.4124 289.354 94.7265 288.417 95.0974 287.497C97.0261 283.055 98.8762 278.575 101.346 274.357C101.416 274.558 101.481 274.764 101.538 274.966C101.481 275.185 101.472 275.417 101.516 275.618C101.813 277.138 102.402 278.592 102.677 280.116C103.571 284.457 104.117 288.855 104.457 293.27C104.457 293.309 104.461 293.348 104.461 293.388C104.492 295.267 104.444 297.426 104.571 299.367C104.667 301.075 104.758 302.779 104.841 304.487C104.793 307.776 104.658 311.092 104.706 314.364C104.701 315.021 104.706 315.678 104.71 316.335C104.475 316.365 104.243 316.378 104.012 316.392Z" fill="black"/>
<path d="M8.67454 322.103C7.45714 322.064 8.63527 311.74 8.79672 310.43C9.08907 308.328 9.68687 306.265 10.3763 304.255C10.7516 303.317 11.4933 301.539 12.4795 301.193C14.1376 301.035 14.7485 304.215 15.0059 305.45C15.6605 309.322 15.7259 313.273 15.739 317.189C15.739 318.231 15.7346 319.274 15.7215 320.316C15.7259 320.675 15.5383 321.091 15.163 321.175C14.7878 321.245 14.5652 320.864 14.5521 320.535C14.539 320.018 14.5216 319.501 14.5129 318.98C14.4431 315.757 14.238 312.314 13.9587 309.182C13.8278 308.319 13.3173 299.967 11.6373 302.954C10.2105 305.131 9.62578 307.741 9.24616 310.273C8.94944 312.401 8.88835 314.548 8.89272 316.694C8.83599 318.446 9.15889 320.246 8.79236 321.972C8.84908 322.046 8.74436 322.186 8.67454 322.103Z" fill="black"/>
<path d="M100.102 317.71C100.142 315.135 99.8929 312.563 99.7314 309.997C99.5438 307.286 99.4652 304.57 99.2427 301.863C99.0289 300.269 99.0027 298.547 98.2522 297.098C97.0479 299.336 96.5373 301.885 96.1184 304.369C95.4159 308.438 95.0756 312.472 94.6916 316.567C94.6567 316.773 94.6349 317.035 94.4385 317.154C94.3251 317.219 94.2029 317.154 94.1549 317.04C94.1505 316.159 94.2902 315.257 94.2989 314.368C94.4821 309.966 95.3592 305.63 96.1883 301.316C96.5112 299.945 96.9257 298.591 97.4755 297.299C98.5576 294.557 99.8099 297.772 100.155 299.082C101.403 303.545 101.376 308.227 101.307 312.826C101.28 314.377 101.342 315.932 101.311 317.482C101.302 317.841 101.136 318.293 100.735 318.367C100.364 318.441 100.098 318.052 100.102 317.71Z" fill="black"/>
</svg>
