<svg width="1260" height="1305" viewBox="0 0 1260 1305" fill="none" xmlns="http://www.w3.org/2000/svg">
<circle cx="1178.23" cy="608.233" r="27" transform="rotate(22.3265 1178.23 608.233)" fill="#FF837E"/>
<path d="M1165.89 617.219L1175.39 594.093L1182.56 597.038C1187.4 599.025 1190.39 602.333 1188.14 607.802C1185.97 613.083 1181.25 613.919 1176.56 611.993L1173.64 610.793L1170.26 619.012L1165.89 617.219ZM1175.14 607.137L1177.76 608.215C1180.77 609.451 1182.77 608.701 1183.86 606.045C1184.96 603.357 1183.74 601.797 1180.73 600.561L1178.26 599.543L1175.14 607.137Z" fill="white"/>
<circle cx="1226.23" cy="1073.23" r="27" transform="rotate(-16.8322 1226.23 1073.23)" fill="#2496F0"/>
<path d="M1222.34 1087.99L1215.1 1064.06L1222.52 1061.82C1227.53 1060.3 1231.93 1060.98 1233.64 1066.64C1235.3 1072.11 1232.16 1075.74 1227.31 1077.21L1224.29 1078.12L1226.86 1086.63L1222.34 1087.99ZM1223.14 1074.34L1225.86 1073.52C1228.97 1072.57 1230.05 1070.73 1229.22 1067.98C1228.37 1065.2 1226.44 1064.76 1223.33 1065.7L1220.76 1066.48L1223.14 1074.34Z" fill="white"/>
<circle cx="37.2906" cy="1267.29" r="27" transform="rotate(-32.5832 37.2906 1267.29)" fill="#FED430"/>
<path d="M37.5505 1282.55L24.0875 1261.49L30.6181 1257.31C35.0256 1254.5 39.4489 1253.96 42.6327 1258.94C45.7074 1263.75 43.6769 1268.09 39.4038 1270.82L36.7432 1272.52L41.528 1280.01L37.5505 1282.55ZM34.6146 1269.19L37.0064 1267.66C39.7477 1265.91 40.2823 1263.85 38.7358 1261.43C37.1712 1258.98 35.1923 1259.08 32.4511 1260.83L30.1936 1262.28L34.6146 1269.19Z" fill="white"/>
<circle cx="48.156" cy="524.156" r="27" transform="rotate(-18.4463 48.156 524.156)" fill="#2496F0"/>
<path d="M44.6804 539.019L36.77 515.304L44.1223 512.851C49.0843 511.196 53.5059 511.751 55.3766 517.36C57.1831 522.776 54.153 526.493 49.3423 528.098L46.3469 529.097L49.1583 537.526L44.6804 539.019ZM45.0962 525.347L47.789 524.449C50.8752 523.42 51.8981 521.547 50.9894 518.823C50.0701 516.067 48.1263 515.683 45.0402 516.712L42.4986 517.56L45.0962 525.347Z" fill="white"/>
<circle cx="914.156" cy="93.1559" r="27" transform="rotate(25.2952 914.156 93.1559)" fill="#2496F0"/>
<path d="M901.368 101.491L912.05 78.8882L919.058 82.1999C923.787 84.4349 926.598 87.8931 924.071 93.2384C921.632 98.4004 916.872 98.991 912.287 96.8241L909.433 95.4749L905.636 103.508L901.368 101.491ZM911.121 91.9012L913.688 93.1141C916.629 94.5042 918.663 93.8586 919.89 91.2623C921.131 88.6354 919.993 87.0137 917.052 85.6237L914.629 84.4789L911.121 91.9012Z" fill="white"/>
<circle cx="185.948" cy="35.9478" r="27" transform="rotate(-23.8453 185.948 35.9478)" fill="#FF837E"/>
<path d="M183.886 51.0723L173.779 28.2063L180.868 25.073C185.653 22.9584 190.107 23.095 192.497 28.5025C194.805 33.7246 192.138 37.7106 187.5 39.7607L184.612 41.0373L188.204 49.164L183.886 51.0723ZM183.014 37.422L185.61 36.2744C188.586 34.9592 189.428 32.9987 188.267 30.3722C187.092 27.7148 185.121 27.5149 182.145 28.8301L179.695 29.9133L183.014 37.422Z" fill="white"/>
</svg>
