<svg width="825" height="687" viewBox="0 0 825 687" fill="none" xmlns="http://www.w3.org/2000/svg">
<path fill-rule="evenodd" clip-rule="evenodd" d="M80.9924 85.0484C80.9924 85.0484 81.0457 88.8532 79.6373 92.5763C78.1375 96.5371 75.1684 100.439 75.1684 100.439L64 96.4108C64 96.4108 67.4944 93.1039 68.8876 89.4254C70.4026 85.4199 69.8316 81.0206 69.8316 81.0206L81 85.0484H80.9924Z" fill="#FED430"/>
<path fill-rule="evenodd" clip-rule="evenodd" d="M292.995 130.388C292.995 130.388 293.03 132.671 292.118 134.905C291.148 137.281 289.227 139.622 289.227 139.622L282 137.206C282 137.206 284.261 135.222 285.163 133.014C286.143 130.611 285.773 127.972 285.773 127.972L293 130.388H292.995Z" fill="#FED430"/>
<path fill-rule="evenodd" clip-rule="evenodd" d="M786.489 236.499C786.489 236.499 788.84 236.462 791.142 237.343C793.592 238.282 796.005 240.144 796.005 240.144L793.527 247.164C793.527 247.164 791.48 244.971 789.205 244.099C786.729 243.151 784.011 243.514 784.011 243.514L786.489 236.494L786.489 236.499Z" fill="#FED430"/>
<path fill-rule="evenodd" clip-rule="evenodd" d="M699.771 599.123C699.771 599.123 703.453 602.587 705.6 607.392C707.883 612.505 708.645 618.988 708.645 618.988L693.676 626.093C693.676 626.093 694.004 619.65 691.885 614.901C689.574 609.732 684.81 606.221 684.81 606.221L699.779 599.116L699.771 599.123Z" fill="#FED430"/>
<path fill-rule="evenodd" clip-rule="evenodd" d="M104.23 398.751C104.23 398.751 105.145 401.709 104.811 404.944C104.455 408.385 102.847 412.122 102.847 412.122L92.5217 411.575C92.5217 411.575 94.7073 408.181 95.0387 404.984C95.3978 401.505 93.9103 398.203 93.9103 398.203L104.236 398.749L104.23 398.751Z" fill="#FED430"/>
<path fill-rule="evenodd" clip-rule="evenodd" d="M20.5733 438.349C20.5733 438.349 16.0764 439.824 11.0931 439.689C5.79399 439.537 0 437.775 0 437.775L0.435189 424.163C0.435189 424.163 5.73425 426.715 10.6408 426.858C15.9911 427.01 21 424.745 21 424.745L20.5648 438.357L20.5733 438.349Z" fill="#2496F0"/>
<path fill-rule="evenodd" clip-rule="evenodd" d="M811.1 133.054C811.1 133.054 814.27 132.9 817.431 133.897C820.791 134.962 824.147 137.18 824.147 137.18L821.156 146.08C821.156 146.08 818.274 143.432 815.164 142.444C811.772 141.369 808.116 141.951 808.116 141.951L811.107 133.05L811.1 133.054Z" fill="#2496F0"/>
<path fill-rule="evenodd" clip-rule="evenodd" d="M264.735 1.10861C264.735 1.10861 267.183 3.07067 268.825 5.87642C270.566 8.86257 271.504 12.6971 271.504 12.6971L263.113 17.3118C263.113 17.3118 262.825 13.4694 261.215 10.7033C259.456 7.68886 256.352 5.72511 256.352 5.72511L264.743 1.11049L264.735 1.10861Z" fill="#2496F0"/>
<path fill-rule="evenodd" clip-rule="evenodd" d="M539.566 582.079C539.566 582.079 536.362 579.63 534.153 576.079C531.809 572.299 530.457 567.41 530.457 567.41L540.974 561.268C540.974 561.268 541.499 566.185 543.666 569.686C546.033 573.502 550.073 575.934 550.073 575.934L539.556 582.076L539.566 582.079Z" fill="#2496F0"/>
<path fill-rule="evenodd" clip-rule="evenodd" d="M782.128 466.431C782.128 466.431 780.232 468.943 777.417 470.725C774.42 472.616 770.498 473.78 770.498 473.78L765.241 465.919C765.241 465.919 769.208 465.386 771.984 463.637C775.009 461.727 776.87 458.578 776.87 458.578L782.127 466.439L782.128 466.431Z" fill="#2496F0"/>
<path fill-rule="evenodd" clip-rule="evenodd" d="M743.867 9.19165C743.867 9.19165 748.008 8.28166 752.396 8.89537C757.067 9.55141 762 11.7453 762 11.7453L760.133 24.2171C760.133 24.2171 755.723 21.346 751.393 20.7393C746.671 20.0763 742 21.6634 742 21.6634L743.867 9.19165Z" fill="#FF837E"/>
<path fill-rule="evenodd" clip-rule="evenodd" d="M719.314 152.096C719.314 152.096 721.543 152.78 723.439 154.27C725.457 155.857 727.146 158.26 727.146 158.26L722.585 163.791C722.585 163.791 721.344 161.203 719.473 159.732C717.432 158.128 714.753 157.627 714.753 157.627L719.314 152.096Z" fill="#FF837E"/>
<path fill-rule="evenodd" clip-rule="evenodd" d="M126.314 224.714C126.314 224.714 128.543 225.399 130.439 226.888C132.457 228.475 134.146 230.878 134.146 230.878L129.585 236.41C129.585 236.41 128.344 233.821 126.473 232.351C124.432 230.747 121.753 230.246 121.753 230.246L126.314 224.714Z" fill="#FF837E"/>
<path fill-rule="evenodd" clip-rule="evenodd" d="M773.32 354.361C773.32 354.361 774.763 356.147 775.463 358.415C776.207 360.831 776.205 363.74 776.205 363.74L769.225 365.809C769.225 365.809 769.704 362.992 769.014 360.753C768.262 358.311 766.34 356.43 766.34 356.43L773.32 354.361Z" fill="#FF837E"/>
<path fill-rule="evenodd" clip-rule="evenodd" d="M656.696 668.486C656.696 668.486 659.913 669.532 662.648 671.719C665.558 674.048 667.99 677.534 667.99 677.534L661.385 685.3C661.385 685.3 659.6 681.563 656.902 679.404C653.96 677.049 650.091 676.252 650.091 676.252L656.696 668.486Z" fill="#FF837E"/>
</svg>
