<svg width="387" height="111" viewBox="0 0 387 111" fill="none" xmlns="http://www.w3.org/2000/svg">
<path d="M104.68 64.04L104.76 73H81.64L81.68 71.64L85.24 71.28C85.36 67.28 85.36 63.24 85.36 60.04V57.2C85.36 53.04 85.36 48.92 85.24 44.8L81.64 44.48V43.12H96.12V44.48L92.2 44.84C92.12 48.88 92.12 52.96 92.12 56.56V59.16C92.12 63.12 92.12 67.28 92.2 71.44H100.52L102.52 64.04H104.68ZM123.619 44.48L120.059 44.8C119.979 48.88 119.979 53.04 119.979 57.2V58.92C119.979 63.04 119.979 67.16 120.059 71.28L123.619 71.64V73H109.499V71.64L113.099 71.28C113.219 67.24 113.219 63.12 113.219 58.96V57.2C113.219 53.04 113.219 48.92 113.099 44.8L109.499 44.48V43.12H123.619V44.48ZM158.961 43.12V44.48L155.281 45L155.001 73.08H151.481L133.841 48.2L134.081 71.04L139.441 71.64V73H128.321V71.64L132.001 71.08L132.241 45.92L131.481 44.8L128.641 44.48V43.12H138.281L153.441 64.08L153.241 45.04L147.921 44.48V43.12H158.961ZM187.218 64.72L187.298 73H163.578V71.64L167.178 71.28C167.298 67.24 167.298 63.12 167.298 58.96V57.2C167.298 53.04 167.298 48.92 167.178 44.8L163.578 44.48V43.12H186.458L186.418 51.08H184.098L182.258 44.68H174.138C174.058 48.68 174.058 52.8 174.058 57.04H179.498L180.098 52.6H182.098V62.72H180.098L179.538 58.48H174.058V58.6C174.058 63.04 174.058 67.28 174.138 71.44H183.138L184.978 64.72H187.218ZM216.533 44.64H214.973C214.893 48.76 214.893 52.96 214.893 57.2V59.56H216.213C220.853 59.56 223.093 56.44 223.093 51.96C223.093 47.12 220.773 44.64 216.533 44.64ZM216.413 61.04H214.893C214.893 64.04 214.893 67.6 214.973 71.2L219.253 71.64V73H204.413V71.64L208.013 71.28C208.133 67.24 208.133 63.12 208.133 58.96V57.2C208.133 53.04 208.133 48.92 208.013 44.8L204.413 44.48V43.12H216.613C225.693 43.12 229.333 46.36 229.333 52C229.333 57 225.933 61.04 216.413 61.04ZM241.464 58.04C241.464 66.28 243.664 72.28 248.584 72.28C253.464 72.28 255.704 66.28 255.704 58.04C255.704 49.88 253.464 43.84 248.584 43.84C243.664 43.84 241.464 49.88 241.464 58.04ZM248.584 42.32C256.104 42.32 262.744 47.68 262.744 58.04C262.744 68.44 256.144 73.8 248.584 73.8C241.064 73.8 234.384 68.48 234.384 58.04C234.384 47.72 241.104 42.32 248.584 42.32ZM281.674 44.48L278.114 44.8C278.034 48.88 278.034 53.04 278.034 57.2V58.92C278.034 63.04 278.034 67.16 278.114 71.28L281.674 71.64V73H267.554V71.64L271.154 71.28C271.274 67.24 271.274 63.12 271.274 58.96V57.2C271.274 53.04 271.274 48.92 271.154 44.8L267.554 44.48V43.12H281.674V44.48ZM317.016 43.12V44.48L313.336 45L313.056 73.08H309.536L291.896 48.2L292.136 71.04L297.496 71.64V73H286.376V71.64L290.056 71.08L290.296 45.92L289.536 44.8L286.696 44.48V43.12H296.336L311.496 64.08L311.296 45.04L305.976 44.48V43.12H317.016ZM343.624 44.68H338.064C337.984 48.8 337.984 52.96 337.984 57.2V58.92C337.984 63 337.984 67.16 338.064 71.24L342.144 71.64V73H327.104V71.64L331.144 71.24C331.224 67.24 331.224 63.12 331.224 58.96V57.2C331.224 53 331.224 48.8 331.144 44.68H325.624L323.624 51.68H321.264L321.424 43.12H347.824L347.984 51.68H345.664L343.624 44.68ZM363.265 54.28L365.385 55.24C371.345 57.92 373.545 60.32 373.545 64.84C373.545 70.16 369.505 73.8 361.985 73.8C358.705 73.8 355.065 72.96 352.665 71.4L352.945 64.52H355.265L357.385 71.48C358.585 71.92 359.785 72.08 361.305 72.08C365.265 72.08 367.465 70.2 367.465 67.08C367.465 64.36 366.305 62.92 363.105 61.52L361.185 60.68C355.825 58.28 352.985 55.6 352.985 50.8C352.985 45.4 357.345 42.32 363.865 42.32C366.985 42.32 369.785 43.16 371.985 44.6L371.625 51.12H369.305L367.265 44.48C366.465 44.12 365.665 44 364.665 44C361.185 44 358.945 45.76 358.945 48.76C358.945 51.52 360.465 53 363.265 54.28Z" fill="black"/>
<circle cx="34.5" cy="55.5" r="34.5" fill="white"/>
<path d="M42.8629 70.72H46.0629V59.84H42.8629V70.72ZM34.5429 59.84V70.72H37.4629V59.84H34.5429ZM25.1429 48.28V55.36C26.5029 55.16 27.9429 54.92 29.3429 54.68V48.28H25.1429ZM37.4629 48.2H34.5429V58.72H37.4629V48.2ZM46.0629 48.2H42.8629V58.72H46.0629V48.2ZM48.1429 44.32L53.0629 48.2C52.7829 48.56 52.2629 48.88 51.4629 49.08V73.8C51.4229 74.2 48.8629 75.32 46.9429 75.32H46.0629V71.84H34.5429V73.6C34.5429 74.2 32.4629 75.44 30.1829 75.44H29.3429V55.36C28.2229 56.12 26.8629 57 25.1429 58.04V69.76C25.1429 73.4 24.4229 75.32 18.9829 75.8C18.9029 74.08 18.7429 72.84 18.2629 72.04C17.8229 71.24 17.1829 70.68 15.5829 70.36V69.8C15.5829 69.8 18.4229 70 19.1029 70C19.6629 70 19.8229 69.84 19.8229 69.44V61.12L18.0229 62.08C17.8229 62.6 17.3429 63.04 16.8229 63.12L14.7829 56.76C15.8629 56.64 17.6629 56.44 19.8229 56.12V48.28H15.4229L15.1029 47.16H19.8229V37.84L26.5829 38.48C26.5429 39.08 26.1429 39.48 25.1429 39.6V46.52L26.9429 43.56C26.9429 43.56 28.1429 44.76 29.3429 46.04V44.88L34.8229 47.08H37.4629V38.4L44.1429 39.04C44.1029 39.56 43.8229 39.92 42.8629 40.08V47.08H45.6629L48.1429 44.32Z" fill="black"/>
</svg>
