<svg width="717" height="78" viewBox="0 0 717 78" fill="none" xmlns="http://www.w3.org/2000/svg">
<path d="M15.92 35.16L17.72 35.84C17.6 36.2 17.24 36.48 16.48 36.6V60.16C16.4 60.52 14.52 61.52 12.68 61.52H11.8V40.84C10.4 42.48 8.88 43.92 7.24 45.12L6.8 44.8C10 39.76 13.28 31.76 14.84 24L21.48 26.08C21.28 26.56 20.8 26.88 19.88 26.88C18.72 29.88 17.44 32.68 15.92 35.16ZM42.48 49.88L42.64 55.56C44.16 56.12 44.64 56.64 44.64 57.48C44.64 59.72 42.48 60.4 33.32 60.4H27.52C22.56 60.4 20.8 59.6 20.8 55.72V41.36L18.16 42.48L17.36 41.56L20.8 40.12V29.72L26.76 30.36C26.72 30.88 26.32 31.32 25.36 31.44V38.2L29.04 36.68V24L35.08 24.56C35 25.12 34.72 25.56 33.6 25.72V34.8L37.68 33.08L37.88 32.96H37.72L40.12 30.48L44 34.6C43.68 34.92 43.24 35.04 42.36 35.16C41.32 39.68 39.24 46.28 36.68 50.68L36.24 50.4C37.08 45.48 37.68 38.84 37.84 34.24L33.6 36.04V51.56C33.6 52 31.64 52.92 29.92 52.92H29.04V37.88L25.36 39.44V54.6C25.36 55.8 25.92 56.16 28 56.16H33.72C35.8 56.16 37.56 56.12 38.36 56.04C39.08 55.96 39.48 55.8 39.88 55.4C40.44 54.64 41.16 52.64 42.04 49.88H42.48ZM82.12 48.44L82.24 55.16C84.12 55.76 84.72 56.28 84.72 57.24C84.72 59.88 82.12 60.56 70 60.56H62.28C56.08 60.56 53.4 59.88 53.4 55.16V39.68L47.76 41.2L47.08 40.16L53.4 38.44V27.72L59.68 28.36C59.6 28.88 59.2 29.32 58.2 29.48V37.16L64.36 35.52V24.04L70.56 24.64C70.44 25.2 70.16 25.6 69.08 25.76V34.24L74.88 32.68H74.72L77.48 29.84L81.92 34.48C81.56 34.88 81.16 35 80.24 35.12C79.08 39.56 76.8 46.08 73.92 50.32L73.56 50.08C74.32 45 74.8 38.48 74.88 33.92L69.08 35.48V51.68C69.08 52.12 67 53.08 65.2 53.08H64.36V36.76L58.2 38.36V53.96C58.2 55.56 59.16 56 62.04 56H70.36C73.28 56 75.64 55.96 76.88 55.84C77.92 55.76 78.44 55.52 78.84 55C79.52 54 80.4 52.16 81.72 48.44H82.12ZM96.28 47.24H103.16V36.44H96.28V47.24ZM107.72 37.2V50.52C107.68 50.84 105.4 51.68 103.92 51.68H103.16V48.36H96.28V51.84C96.28 52.28 94.4 53.28 92.48 53.28H91.8V33.4L96.48 35.32H102.76L104.88 33L109.36 36.36C109.08 36.68 108.56 37.04 107.72 37.2ZM117 27.44L119.84 23.88C119.84 23.88 123 26.28 124.92 27.96C124.84 28.4 124.36 28.6 123.76 28.6H118.88V55.6C118.88 58.84 117.92 61.16 111.76 61.56C111.68 60.04 111.28 58.84 110.36 58.16C109.4 57.44 108.16 56.88 105.24 56.44V55.92C105.24 55.92 111.72 56.32 113 56.32C113.8 56.32 114.08 56 114.08 55.4V28.6H87.52L87.2 27.44H117ZM140.64 31.16L141 30.92C154.16 34.64 150.44 43.96 145.72 40.56C144.96 37.36 142.6 33.68 140.64 31.16ZM147.16 47.76L147.28 48.24C143.56 50.68 138.32 53.76 130.52 57.44C130.32 57.92 129.92 58.36 129.48 58.52L126.92 53.12C128.24 52.88 130.12 52.48 132.36 51.92L131.96 26.28L138.24 26.72C138.2 27.28 137.92 27.72 136.8 27.88L137.16 50.64C140.32 49.8 143.8 48.8 147.16 47.76ZM155.64 26.4L162.36 27C162.24 27.64 161.76 28.12 160.84 28.2C160.44 36.84 159.96 44.04 156.04 49.8C168.44 54.44 165.36 63.4 160.48 60.32C159.4 57.4 157.12 54.08 154.88 51.32C151.36 55.56 145.6 58.96 136.16 61.56L135.8 60.92C154.64 52.4 155.4 42.2 155.64 26.4Z" fill="black"/>
<path d="M263.568 20.16L262.448 35.36C265.888 34.32 269.408 33.92 273.248 33.92C286.768 33.92 295.088 40.48 295.088 52.32C295.088 64.64 285.168 71.36 271.568 71.36C260.368 71.36 253.568 65.84 252.928 57.12C253.888 54.72 255.968 53.52 258.128 53.52C261.408 53.52 263.248 55.28 263.808 60L264.928 67.92C266.208 68.4 267.488 68.56 269.328 68.56C276.528 68.56 281.408 63.04 281.408 52.96C281.408 43.68 276.688 38.4 269.328 38.4C266.288 38.4 263.568 38.8 260.768 39.76L258.448 38.08L260.368 10.24H292.928V20.16H263.568ZM313.68 40C313.68 62.56 317.6 68.56 322.32 68.56C327.04 68.56 331.12 62.48 331.12 40C331.12 17.68 327.04 11.68 322.32 11.68C317.6 11.68 313.68 17.6 313.68 40ZM322.32 8.88C333.36 8.88 343.2 18.32 343.2 40C343.2 61.84 333.36 71.36 322.32 71.36C311.2 71.36 301.52 61.84 301.52 40C301.52 18.32 311.2 8.88 322.32 8.88Z" fill="black"/>
<path d="M434.68 51.04L434.76 60H411.64L411.68 58.64L415.24 58.28C415.36 54.28 415.36 50.24 415.36 47.04V44.2C415.36 40.04 415.36 35.92 415.24 31.8L411.64 31.48V30.12H426.12V31.48L422.2 31.84C422.12 35.88 422.12 39.96 422.12 43.56V46.16C422.12 50.12 422.12 54.28 422.2 58.44H430.52L432.52 51.04H434.68ZM451.619 31.48L448.059 31.8C447.979 35.88 447.979 40.04 447.979 44.2V45.92C447.979 50.04 447.979 54.16 448.059 58.28L451.619 58.64V60H437.499V58.64L441.099 58.28C441.219 54.24 441.219 50.12 441.219 45.96V44.2C441.219 40.04 441.219 35.92 441.099 31.8L437.499 31.48V30.12H451.619V31.48ZM484.961 30.12V31.48L481.281 32L481.001 60.08H477.481L459.841 35.2L460.081 58.04L465.441 58.64V60H454.321V58.64L458.001 58.08L458.241 32.92L457.481 31.8L454.641 31.48V30.12H464.281L479.441 51.08L479.241 32.04L473.921 31.48V30.12H484.961ZM511.217 51.72L511.297 60H487.577V58.64L491.177 58.28C491.297 54.24 491.297 50.12 491.297 45.96V44.2C491.297 40.04 491.297 35.92 491.177 31.8L487.577 31.48V30.12H510.457L510.417 38.08H508.097L506.257 31.68H498.137C498.057 35.68 498.057 39.8 498.057 44.04H503.497L504.097 39.6H506.097V49.72H504.097L503.537 45.48H498.057V45.6C498.057 50.04 498.057 54.28 498.137 58.44H507.137L508.977 51.72H511.217ZM536.533 31.64H534.973C534.893 35.76 534.893 39.96 534.893 44.2V46.56H536.213C540.853 46.56 543.093 43.44 543.093 38.96C543.093 34.12 540.773 31.64 536.533 31.64ZM536.413 48.04H534.893C534.893 51.04 534.893 54.6 534.973 58.2L539.253 58.64V60H524.413V58.64L528.013 58.28C528.133 54.24 528.133 50.12 528.133 45.96V44.2C528.133 40.04 528.133 35.92 528.013 31.8L524.413 31.48V30.12H536.613C545.693 30.12 549.333 33.36 549.333 39C549.333 44 545.933 48.04 536.413 48.04ZM559.464 45.04C559.464 53.28 561.664 59.28 566.584 59.28C571.464 59.28 573.704 53.28 573.704 45.04C573.704 36.88 571.464 30.84 566.584 30.84C561.664 30.84 559.464 36.88 559.464 45.04ZM566.584 29.32C574.104 29.32 580.744 34.68 580.744 45.04C580.744 55.44 574.144 60.8 566.584 60.8C559.064 60.8 552.384 55.48 552.384 45.04C552.384 34.72 559.104 29.32 566.584 29.32ZM597.674 31.48L594.114 31.8C594.034 35.88 594.034 40.04 594.034 44.2V45.92C594.034 50.04 594.034 54.16 594.114 58.28L597.674 58.64V60H583.554V58.64L587.154 58.28C587.274 54.24 587.274 50.12 587.274 45.96V44.2C587.274 40.04 587.274 35.92 587.154 31.8L583.554 31.48V30.12H597.674V31.48ZM631.016 30.12V31.48L627.336 32L627.056 60.08H623.536L605.896 35.2L606.136 58.04L611.496 58.64V60H600.376V58.64L604.056 58.08L604.296 32.92L603.536 31.8L600.696 31.48V30.12H610.336L625.496 51.08L625.296 32.04L619.976 31.48V30.12H631.016ZM655.624 31.68H650.064C649.984 35.8 649.984 39.96 649.984 44.2V45.92C649.984 50 649.984 54.16 650.064 58.24L654.144 58.64V60H639.104V58.64L643.144 58.24C643.224 54.24 643.224 50.12 643.224 45.96V44.2C643.224 40 643.224 35.8 643.144 31.68H637.624L635.624 38.68H633.264L633.424 30.12H659.824L659.984 38.68H657.664L655.624 31.68ZM673.265 41.28L675.385 42.24C681.345 44.92 683.545 47.32 683.545 51.84C683.545 57.16 679.505 60.8 671.985 60.8C668.705 60.8 665.065 59.96 662.665 58.4L662.945 51.52H665.265L667.385 58.48C668.585 58.92 669.785 59.08 671.305 59.08C675.265 59.08 677.465 57.2 677.465 54.08C677.465 51.36 676.305 49.92 673.105 48.52L671.185 47.68C665.825 45.28 662.985 42.6 662.985 37.8C662.985 32.4 667.345 29.32 673.865 29.32C676.985 29.32 679.785 30.16 681.985 31.6L681.625 38.12H679.305L677.265 31.48C676.465 31.12 675.665 31 674.665 31C671.185 31 668.945 32.76 668.945 35.76C668.945 38.52 670.465 40 673.265 41.28Z" fill="black"/>
<path d="M358.48 51.48H359.04C360.84 55.76 360.72 59 359.48 60.68C358.56 61.88 356.2 61.76 355.4 60.16C354.72 58.76 355.4 57.4 356.64 56.56C357.52 55.64 358.76 53.36 358.48 51.48ZM361.4 51.92L361.92 51.8C368.76 57.32 363.6 63.4 360.88 59.6C361.56 57.08 361.68 54.12 361.4 51.92ZM364.84 51.8L365.28 51.6C374.16 55.6 369.48 62.72 366.12 59.16C366.48 56.68 365.8 53.8 364.84 51.8ZM386.52 44H380.72V56.96H386.52V44ZM361 30.96V37.88H363.64V35.16C363.16 35.88 362.28 36 361.52 35.16C361.56 33.88 361.32 32.32 361 30.96ZM361 27.48V28.88C362.4 30 363.2 31.12 363.64 32.08V27.48H361ZM369.44 27.48H366.96V35.04C367.2 33.04 367.44 30.36 367.52 28.96L369.44 29.6V27.48ZM366.96 37.88H369.44V32.72C368.8 33.72 368.08 34.84 367.36 35.8L366.96 35.68V37.88ZM392.92 35.24H386.12V42.88H386.32L389 39.88L393.84 43.6C393.56 43.96 393.16 44.24 392.2 44.44V60.04C392.2 60.28 390.44 61.28 387.52 61.28H386.52V58.08H380.72V60.4C380.72 60.76 379.08 61.68 376.32 61.68H375.32V58.32C374.76 60.08 372.76 60.96 371.04 59.2C371.4 56.64 370.6 53.68 369.44 51.68L369.84 51.48C373.28 52.8 374.88 54.64 375.32 56.32V50.2C375.12 50.32 374.92 50.36 374.64 50.36H355.72L355.4 49.24H362.8V43.84H356.36L356.04 42.72H362.8V39H361V39.08C361 39.48 359.04 40.48 357.2 40.48H356.56V24.52L361.2 26.36H369.08L371.12 24.16L375.4 27.4C375.16 27.68 374.68 28 373.92 28.12V38.88C373.88 39.16 371.68 40 370.2 40H369.44V39H367.8V42.72H368.28L370.48 40C370.48 40 373 41.84 374.56 43.2C374.44 43.64 374.04 43.84 373.48 43.84H367.8V49.24H368.76L371.24 46.2C371.24 46.2 373.6 47.96 375.32 49.4V40.72L380.64 42.68V24.44L387.56 25C387.52 25.6 387.2 26 386.12 26.16V34.12H386.8L389.36 30.56C389.36 30.56 392.32 32.96 394.04 34.6C393.92 35.04 393.48 35.24 392.92 35.24Z" fill="black"/>
<circle cx="208.5" cy="41.5" r="34.5" fill="#FED430"/>
<path d="M216.863 56.72H220.063V45.84H216.863V56.72ZM208.543 45.84V56.72H211.463V45.84H208.543ZM199.143 34.28V41.36C200.503 41.16 201.943 40.92 203.343 40.68V34.28H199.143ZM211.463 34.2H208.543V44.72H211.463V34.2ZM220.063 34.2H216.863V44.72H220.063V34.2ZM222.143 30.32L227.063 34.2C226.783 34.56 226.263 34.88 225.463 35.08V59.8C225.423 60.2 222.863 61.32 220.943 61.32H220.063V57.84H208.543V59.6C208.543 60.2 206.463 61.44 204.183 61.44H203.343V41.36C202.223 42.12 200.863 43 199.143 44.04V55.76C199.143 59.4 198.423 61.32 192.983 61.8C192.903 60.08 192.743 58.84 192.263 58.04C191.823 57.24 191.183 56.68 189.583 56.36V55.8C189.583 55.8 192.423 56 193.103 56C193.663 56 193.823 55.84 193.823 55.44V47.12L192.023 48.08C191.823 48.6 191.343 49.04 190.823 49.12L188.783 42.76C189.863 42.64 191.663 42.44 193.823 42.12V34.28H189.423L189.103 33.16H193.823V23.84L200.583 24.48C200.543 25.08 200.143 25.48 199.143 25.6V32.52L200.943 29.56C200.943 29.56 202.143 30.76 203.343 32.04V30.88L208.823 33.08H211.463V24.4L218.143 25.04C218.103 25.56 217.823 25.92 216.863 26.08V33.08H219.663L222.143 30.32Z" fill="black"/>
</svg>
