<svg width="1233" height="2111" viewBox="0 0 1233 2111" fill="none" xmlns="http://www.w3.org/2000/svg">
<path fill-rule="evenodd" clip-rule="evenodd" d="M1116.87 1078.84C1116.87 1078.84 1113.98 1081.81 1110.13 1083.68C1106.03 1085.66 1100.93 1086.56 1100.93 1086.56L1096.13 1075.54C1096.13 1075.54 1101.14 1075.47 1104.95 1073.63C1109.09 1071.62 1112.07 1067.82 1112.07 1067.82L1116.87 1078.85L1116.87 1078.84Z" fill="#2496F0"/>
<path fill-rule="evenodd" clip-rule="evenodd" d="M93.3617 541.839C93.3617 541.839 97.4921 541.817 101.522 543.262C105.81 544.8 110.022 547.812 110.022 547.812L105.563 558.982C105.563 558.982 102.001 555.448 98.0189 554.02C93.6829 552.466 88.9032 553.002 88.9032 553.002L93.3618 541.831L93.3617 541.839Z" fill="#2496F0"/>
<path fill-rule="evenodd" clip-rule="evenodd" d="M84.5736 152.824C84.5736 152.824 83.1826 148.923 83.2031 144.629C83.2261 140.061 84.6599 135.075 84.6599 135.075L96.6427 135.587C96.6427 135.587 94.5026 140.131 94.4809 144.374C94.4591 148.993 96.5492 153.339 96.5492 153.339L84.5664 152.827L84.5736 152.824Z" fill="#2496F0"/>
<path fill-rule="evenodd" clip-rule="evenodd" d="M134.462 1138.42C134.462 1138.42 138.394 1139.69 141.777 1142.32C145.375 1145.12 148.445 1149.3 148.445 1149.3L140.744 1158.52C140.744 1158.52 138.454 1154.05 135.112 1151.45C131.473 1148.62 126.764 1147.64 126.764 1147.64L134.465 1138.41L134.462 1138.42Z" fill="#2496F0"/>
<path fill-rule="evenodd" clip-rule="evenodd" d="M1189.5 223.926C1189.5 223.926 1193.63 223.904 1197.66 225.349C1201.95 226.887 1206.16 229.899 1206.16 229.899L1201.71 241.069C1201.71 241.069 1198.14 237.535 1194.16 236.107C1189.82 234.553 1185.05 235.088 1185.05 235.088L1189.5 223.918L1189.5 223.926Z" fill="#2496F0"/>
<path fill-rule="evenodd" clip-rule="evenodd" d="M345.504 0.199328C345.504 0.199328 349.634 0.178016 353.664 1.62244C357.952 3.16053 362.164 6.17218 362.164 6.17218L357.705 17.3426C357.705 17.3426 354.143 13.8089 350.161 12.3802C345.825 10.8264 341.045 11.3621 341.045 11.3621L345.504 0.191689L345.504 0.199328Z" fill="#2496F0"/>
<path fill-rule="evenodd" clip-rule="evenodd" d="M1157.99 955.445C1157.99 955.445 1158.06 960.359 1156.24 965.168C1154.3 970.284 1150.45 975.324 1150.45 975.324L1136 970.121C1136 970.121 1140.52 965.85 1142.33 961.098C1144.29 955.925 1143.55 950.242 1143.55 950.242L1158 955.445H1157.99Z" fill="#FED430"/>
<path fill-rule="evenodd" clip-rule="evenodd" d="M134.236 664.156C134.236 664.156 130.576 666.795 126.011 667.963C121.154 669.205 115.366 668.985 115.366 668.985L111.759 655.435C111.759 655.435 117.324 656.569 121.835 655.416C126.745 654.158 130.634 650.614 130.634 650.614L134.241 664.163L134.236 664.156Z" fill="#FED430"/>
<path fill-rule="evenodd" clip-rule="evenodd" d="M227.39 1597.78C227.39 1597.78 223.73 1600.42 219.165 1601.58C214.308 1602.83 208.519 1602.61 208.519 1602.61L204.912 1589.06C204.912 1589.06 210.477 1590.19 214.988 1589.04C219.899 1587.78 223.788 1584.23 223.788 1584.23L227.395 1597.78L227.39 1597.78Z" fill="#FED430"/>
<path fill-rule="evenodd" clip-rule="evenodd" d="M1120.08 1648.65C1120.08 1648.65 1116.61 1654.74 1110.92 1659.34C1104.86 1664.23 1096.55 1667.66 1096.55 1667.66L1082.76 1650.87C1082.76 1650.87 1091.34 1648.87 1096.97 1644.33C1103.09 1639.38 1106.3 1631.86 1106.3 1631.86L1120.09 1648.65L1120.08 1648.65Z" fill="#FED430"/>
<path fill-rule="evenodd" clip-rule="evenodd" d="M186.665 2089.2C186.665 2089.2 187.593 2093.62 186.814 2098.28C185.984 2103.24 183.444 2108.47 183.444 2108.47L169.633 2106.3C169.633 2106.3 172.915 2101.65 173.686 2097.05C174.523 2092.03 172.862 2087.03 172.862 2087.03L186.674 2089.2L186.665 2089.2Z" fill="#FFFAF1"/>
<path fill-rule="evenodd" clip-rule="evenodd" d="M56.7992 1045.6C56.7992 1045.6 62.2772 1045.5 67.6408 1047.74C73.3469 1050.12 78.9708 1054.85 78.9708 1054.85L73.1964 1072.66C73.1964 1072.66 68.4274 1067.1 63.1281 1064.88C57.3577 1062.48 51.0248 1063.4 51.0248 1063.4L56.7992 1045.59L56.7992 1045.6Z" fill="#FF837E"/>
<path fill-rule="evenodd" clip-rule="evenodd" d="M1142.28 466.589C1142.28 466.589 1144.62 461.618 1148.99 457.782C1153.65 453.701 1160.36 450.73 1160.36 450.73L1173.72 463.805C1173.72 463.805 1166.64 465.635 1162.32 469.424C1157.62 473.552 1155.64 479.657 1155.64 479.657L1142.27 466.583L1142.28 466.589Z" fill="#FF837E"/>
<path fill-rule="evenodd" clip-rule="evenodd" d="M1208.26 1080.41C1208.26 1080.41 1210.33 1077.22 1213.7 1075C1217.28 1072.63 1222.17 1071.23 1222.17 1071.23L1230.12 1081.48C1230.12 1081.48 1225.08 1082.07 1221.76 1084.26C1218.14 1086.65 1216.2 1090.66 1216.2 1090.66L1208.25 1080.4L1208.26 1080.41Z" fill="#FF837E"/>
<path fill-rule="evenodd" clip-rule="evenodd" d="M5.79929 605.168C5.79929 605.168 11.2773 605.075 16.6409 607.311C22.3471 609.693 27.9709 614.417 27.9709 614.417L22.1966 632.228C22.1966 632.228 17.4275 626.665 12.1282 624.453C6.35779 622.047 0.0249524 622.967 0.0249524 622.967L5.79928 605.156L5.79929 605.168Z" fill="#FF837E"/>
<path fill-rule="evenodd" clip-rule="evenodd" d="M111.799 1649.87C111.799 1649.87 117.277 1649.77 122.641 1652.01C128.347 1654.39 133.971 1659.12 133.971 1659.12L128.196 1676.93C128.196 1676.93 123.427 1671.37 118.128 1669.15C112.358 1666.75 106.025 1667.67 106.025 1667.67L111.799 1649.86L111.799 1649.87Z" fill="#FF837E"/>
<path fill-rule="evenodd" clip-rule="evenodd" d="M1132.23 1538.41C1132.23 1538.41 1134.87 1533.59 1139.46 1530.03C1144.36 1526.25 1151.24 1523.69 1151.24 1523.69L1163.78 1537.57C1163.78 1537.57 1156.6 1538.96 1152.05 1542.47C1147.11 1546.3 1144.76 1552.28 1144.76 1552.28L1132.22 1538.4L1132.23 1538.41Z" fill="#FF837E"/>
<path fill-rule="evenodd" clip-rule="evenodd" d="M330.409 91.111C330.409 91.111 335.675 92.6293 340.152 96.3422C344.914 100.294 348.914 106.462 348.914 106.462L338.199 121.799C338.199 121.799 335.261 115.08 330.838 111.409C326.022 107.415 319.698 106.436 319.698 106.436L330.413 91.0993L330.409 91.111Z" fill="#FF837E"/>
</svg>
