<svg width="1034" height="248" viewBox="0 0 1034 248" fill="none" xmlns="http://www.w3.org/2000/svg">
<path d="M25.92 41.56L25.32 41.28C26.8 36.96 27.68 31 27.76 25.4L33.2 26.24C33.08 26.76 32.68 27.16 31.76 27.24C31.36 29.32 30.88 31.32 30.28 33.2H33.08L35.08 30.4C35.08 30.4 37.36 32.36 38.68 33.68C38.56 34.12 38.2 34.32 37.64 34.32H36.04C35.76 38.48 35.12 42.28 33.88 45.72C39.08 53 37.04 58.28 34 55.64C33.72 53.72 33.04 51.6 32.16 49.4C30.56 52.28 28.4 54.8 25.32 56.88L24.96 56.4C27.84 53.32 29.6 49.76 30.64 45.84C29.6 43.64 28.52 41.56 27.52 39.76L28.12 39.56C29.32 40.6 30.4 41.6 31.36 42.6C31.84 40 32.04 37.24 32.12 34.32H29.92C28.88 37.2 27.6 39.68 25.92 41.56ZM21.88 31.08H17.08V34.2H21.88V31.08ZM17.08 38.4H21.88V35.36H17.08V38.4ZM17.08 39.56V40.52C17.08 40.84 15.48 41.64 13.96 41.64H13.4V28.36L17.24 29.96H17.44C17.6 28.48 17.72 26.48 17.76 25.08L23.24 25.88C23.12 26.36 22.72 26.8 21.84 26.8C21.04 27.8 19.8 28.96 18.6 29.96H21.56L23.24 28.2L26.76 30.8C26.56 31.08 26.08 31.32 25.52 31.44V39.72C25.48 39.96 23.68 40.68 22.52 40.68H21.88V39.56H17.08ZM3.24 25.84L3.64 25.6C14.08 27.08 10.56 34.76 6.64 32.04C6.28 29.88 4.68 27.36 3.24 25.84ZM13.84 44.72L14.12 44.96C13.84 45.32 13.48 45.44 12.6 45.48C11.76 48.32 10.08 51.48 7.64 54C7.96 54.04 8.16 54.2 8.52 54.4C11.72 57 16.6 57.56 25.48 57.56C30.16 57.52 34.12 57.52 38.92 57.28V57.76C36.96 58.16 35.88 59.88 35.6 61.64H23.84C15.08 61.64 11.48 60.04 8 55.88C7.4 55.12 6.96 55.2 6.6 55.92C6 57.16 5.04 59.28 4.32 61.32C4.4 61.68 4.28 61.88 4.04 62.12L0.8 57.6C2.4 56.68 4.68 55 6.04 54.24C7.32 51.68 8.24 48.2 8.6 45.24H6.72L5.32 46.52L2 44.04C2.36 43.76 3 43.48 3.56 43.28C4.76 41.4 6.4 38.72 7.44 36.76H2.12L1.76 35.6H7.52L9.4 33.72L13.16 37.12C12.8 37.52 12.04 37.68 11.12 37.76C10.08 39.48 8.44 42.16 7.16 44.12H8.36L10.44 42.04L13.24 44.28L13.04 43.6H19.76C19.32 43.52 18.88 43.36 18.48 43C18.56 41.92 18.04 40.64 17.44 39.96L17.84 39.76C23.32 40.16 22.36 43.32 20.36 43.6H22.32L24.32 41.4C24.32 41.4 26.52 42.92 27.96 44.08C27.84 44.52 27.44 44.72 26.88 44.72H19.32C19.28 45.48 19.16 46.28 19 47.04H21.6L23.48 45.24L26.96 48.04C26.68 48.32 26.2 48.56 25.52 48.64C25.16 52.68 24.72 54.6 23.44 55.56C22.68 56.12 21.56 56.28 20.48 56.32C20.48 55.56 20.32 54.84 19.92 54.36C19.52 53.88 18.64 53.44 17.68 53.24V52.68C18.6 52.76 20 52.84 20.52 52.84C20.8 52.84 20.96 52.76 21.08 52.6C21.44 52.16 21.72 50.8 21.92 48.16H18.76C17.96 51.08 16.24 53.96 12.6 56.16L12.08 55.6C15.04 52.16 15.4 48.24 15.48 44.72H13.84ZM44.96 25.84L45.32 25.6C55.52 27.2 50.88 34.52 47 31.28C46.92 29.32 45.96 27.2 44.96 25.84ZM51.64 32.8L53.68 30.16C53.68 30.16 56 32 57.32 33.32C57.24 33.76 56.84 33.96 56.32 33.96H41.56L41.24 32.8H51.64ZM42.88 37.92H50.32L52.24 35.4C52.24 35.4 54.44 37.16 55.76 38.44C55.64 38.88 55.28 39.08 54.72 39.08H43.2L42.88 37.92ZM50.32 43.08L52.24 40.64C52.24 40.64 54.44 42.32 55.76 43.6C55.64 44.04 55.28 44.24 54.72 44.24H43.2L42.88 43.08H50.32ZM47.52 57.28H51V49.44H47.52V57.28ZM52.56 46.24L56.64 49.32C56.4 49.6 55.88 49.92 55.12 50.08V59.36C55.08 59.68 53.08 60.56 51.68 60.56H51V58.4H47.52V60.8C47.52 61.2 45.76 62.12 44.04 62.12H43.44V46.6L47.68 48.32H50.6L52.56 46.24ZM63.04 52.48H71.44V49.08H63.08V50.96C63.08 51.44 63.08 51.96 63.04 52.48ZM71.44 44.52H63.08V47.96H71.44V44.52ZM71.04 43.4L72.92 41.2L77.24 44.44C77 44.76 76.44 45.08 75.6 45.24V57.36C75.6 60.2 75 61.84 70.36 62.24C70.28 60.96 70.12 59.92 69.64 59.32C69.12 58.68 68.4 58.24 66.8 58V57.4C66.8 57.4 69.96 57.6 70.68 57.6C71.28 57.6 71.44 57.36 71.44 56.88V53.64H62.96C62.56 57 61.04 60.4 55.88 62.68L55.52 62.32C58.64 59.2 58.88 55.16 58.88 50.96V41.6L63.76 43.4H71.04ZM72.64 39.4L74.92 36.48C74.92 36.48 77.44 38.48 79 39.92C78.92 40.36 78.48 40.56 77.92 40.56H56.36L56.04 39.4H64.84V35.64H58.44L58.12 34.52H64.84V31H56.92L56.6 29.84H64.84V25L70.52 25.52C70.44 26.04 70.16 26.4 69.24 26.56V29.84H71.88L74.12 26.96C74.12 26.96 76.64 28.92 78.16 30.36C78.08 30.8 77.68 31 77.08 31H69.24V34.52H71.08L73.16 31.88C73.16 31.88 75.52 33.68 76.92 35C76.8 35.44 76.4 35.64 75.84 35.64H69.24V39.4H72.64ZM95.6 25.64L102.2 26.28C102.12 26.88 101.76 27.28 100.72 27.4C101.56 42.8 105.32 52.12 119 57.16L118.92 57.64C116.52 58.08 115 59.72 114.48 62.32C104.4 56.96 101.4 47.56 100.4 34.8C99.68 45.08 96.8 55.32 81.76 62.52L81.32 61.96C95.96 51.28 95.56 38.36 95.6 25.64Z" fill="black"/>
<path d="M53.4 110.26L54.28 109.36C55.52 109.98 57.08 110.94 57.86 111.64L56.94 112.66C56.18 111.96 54.66 110.94 53.4 110.26ZM56.24 115.66L57.74 116.04C56.88 118.62 55.7 120.9 54.22 122.8C54.96 124.76 55.88 125.9 56.9 125.9C57.46 125.9 57.7 124.86 57.84 122.2C58.18 122.54 58.72 122.88 59.12 123C58.84 126.4 58.3 127.38 56.78 127.38C55.24 127.38 54.04 126.16 53.12 124.1C51.92 125.4 50.54 126.52 49 127.42C48.78 127.12 48.26 126.52 47.92 126.24C49.7 125.28 51.24 124.04 52.52 122.54C51.8 120.28 51.32 117.34 51.06 114.12H44.16V116.72H49.26V117.36C49.16 121.84 49.04 123.52 48.62 124.04C48.32 124.42 47.98 124.56 47.42 124.62C46.92 124.66 46.02 124.66 45.04 124.62C45.02 124.16 44.86 123.6 44.62 123.22C45.54 123.3 46.4 123.32 46.74 123.32C47.02 123.32 47.22 123.28 47.34 123.1C47.62 122.8 47.72 121.54 47.8 118.1H44.16V118.26C44.16 121.06 43.86 125.08 42.06 127.68C41.8 127.38 41.16 126.86 40.82 126.68C42.46 124.24 42.64 120.82 42.64 118.24V112.66H50.98C50.9 111.56 50.88 110.44 50.86 109.3H52.4C52.4 110.46 52.42 111.58 52.48 112.66H58.94V114.12H52.58C52.78 116.78 53.14 119.16 53.68 121.06C54.76 119.48 55.62 117.68 56.24 115.66ZM68.68 120.3L68.86 121.68C66.16 122.48 63.3 123.28 61.2 123.86L60.82 122.34C61.7 122.14 62.8 121.86 64.02 121.56V113.04H61.1V111.62H68.38V113.04H65.48V121.16C66.52 120.88 67.62 120.58 68.68 120.3ZM73.34 113.8H78.74C78.74 113.8 78.74 114.36 78.72 114.56C78.4 122.76 78.14 125.62 77.38 126.54C76.94 127.08 76.54 127.24 75.84 127.32C75.2 127.38 74.02 127.36 72.9 127.28C72.88 126.86 72.7 126.24 72.44 125.82C73.66 125.94 74.8 125.94 75.24 125.94C75.62 125.94 75.86 125.88 76.08 125.64C76.64 125 76.96 122.32 77.26 115.24H73.26C72.94 120.54 71.78 125 67.22 127.56C67.02 127.18 66.52 126.64 66.16 126.38C70.4 124.12 71.5 120.08 71.8 115.24H68.52V113.8H71.86C71.9 112.46 71.92 111.06 71.92 109.6H73.4C73.4 111.04 73.38 112.44 73.34 113.8ZM87.5 114.18V115.4H90.8V114.18H87.5ZM87.5 112.02V113.2H90.8V112.02H87.5ZM90.82 120.96H88.66C88.32 122.42 87.72 123.58 86.58 124.4C86.42 124.12 86.04 123.7 85.78 123.52C87.14 122.54 87.58 120.82 87.7 118.8H85.56V117.72H88.66C88.48 117.38 88.28 117.06 88.08 116.76L89.02 116.4H86.28V111.02H88.32C88.5 110.44 88.68 109.76 88.74 109.28L90.24 109.48C90.04 110 89.82 110.52 89.6 111.02H92.08V116.3C93.14 114.54 93.82 111.96 94.24 109.38L95.5 109.56C95.34 110.54 95.14 111.52 94.9 112.42H98.94V113.7H98.1C97.82 115.94 97.36 117.92 96.7 119.58C97.6 121 98.42 122.42 98.92 123.48L97.82 124.02C97.4 123.14 96.82 122.02 96.12 120.84C95.24 122.56 94.02 123.92 92.4 125C92.24 124.74 91.78 124.26 91.48 124.02C93.28 122.94 94.48 121.48 95.34 119.58C94.74 118.6 94.1 117.64 93.5 116.78L94.54 116.32C94.98 116.94 95.42 117.58 95.86 118.26C96.3 116.92 96.6 115.38 96.8 113.7H94.54C94.12 115.12 93.56 116.42 92.94 117.44C92.7 117.24 92.18 116.84 91.86 116.66L92.02 116.4H89.3C89.58 116.8 89.9 117.3 90.1 117.72H92.84V118.8H88.96C88.94 119.16 88.9 119.54 88.84 119.88H92.1C92.1 119.88 92.1 120.2 92.08 120.38C91.98 122.56 91.86 123.44 91.56 123.78C91.34 124.04 91.06 124.16 90.64 124.18C90.36 124.2 89.78 124.22 89.24 124.18C89.2 123.86 89.1 123.42 88.94 123.14C89.48 123.2 89.92 123.2 90.12 123.2C90.3 123.2 90.4 123.18 90.52 123.06C90.66 122.88 90.74 122.34 90.82 120.96ZM84.2 112.64L82.94 113.04C82.74 112.2 82.3 110.82 81.98 109.78L83.2 109.44C83.54 110.48 83.96 111.78 84.2 112.64ZM84.5 118.54L85.12 118.78C84.82 120.54 84.34 122.52 83.74 124.02C84.14 124.22 84.62 124.64 85.44 125.12C86.88 125.96 88.74 126.1 91.12 126.1C93.8 126.1 97.06 125.92 99.34 125.68C99.18 126.06 98.92 126.76 98.9 127.16C97.42 127.26 93.52 127.4 91.08 127.4C88.42 127.4 86.64 127.18 85.12 126.3C84.3 125.8 83.56 125.14 83.1 125.14C82.72 125.14 82.12 126.4 81.66 127.64L80.66 126.36C81.28 125.38 81.88 124.56 82.44 124.14C82.96 122.96 83.4 121.36 83.68 119.9H81.52C81.98 118.7 82.56 116.98 83.02 115.38H81V114.1H84.7C84.26 115.54 83.74 117.22 83.26 118.6H84.28L84.5 118.54ZM105.6 111.94L104.32 112.4C104.14 111.68 103.68 110.54 103.32 109.7L104.56 109.32C104.98 110.14 105.42 111.24 105.6 111.94ZM105.88 121.8H102.82V125.14H105.88V121.8ZM107.2 120.58V126.36H102.82V127.28H101.52V120.58H107.2ZM101.44 119.02V117.84H107.26V119.02H101.44ZM107.24 115.14V116.32H101.42V115.14H107.24ZM100.96 113.84V112.62H107.82V113.84H100.96ZM110.52 123.22H116.58V121.74H110.58C110.58 122.2 110.56 122.7 110.52 123.22ZM116.58 119.2H110.58V120.68H116.58V119.2ZM117.98 118.02V125.98C117.98 126.7 117.84 127.06 117.3 127.28C116.8 127.5 115.98 127.5 114.72 127.5C114.66 127.12 114.5 126.62 114.3 126.26C115.2 126.3 116.02 126.3 116.26 126.28C116.52 126.28 116.58 126.2 116.58 125.98V124.28H110.38C110.16 125.54 109.76 126.8 108.94 127.78C108.72 127.5 108.2 126.96 107.9 126.8C109.08 125.3 109.22 123.28 109.22 121.7V118.02H117.98ZM114.22 115.7H119.14V116.84H108.04V115.7H112.76V114.34H108.76V113.26H112.76V112.04H108.26V110.9H112.76V109.28H114.22V110.9H118.94V112.04H114.22V113.26H118.56V114.34H114.22V115.7ZM121.76 126V124.48H125.02V113.54H122.42V112.38C123.72 112.14 124.66 111.8 125.46 111.34H126.86V124.48H129.8V126H121.76ZM140.974 111.62H135.114C134.494 112.48 133.774 113.26 133.054 113.86C132.854 113.6 132.334 113.12 132.014 112.86C133.254 111.94 134.414 110.54 135.074 109.12L136.394 109.5C136.234 109.82 136.074 110.12 135.894 110.44H140.974V111.62ZM136.094 112.34L137.074 111.66C137.674 112.22 138.454 113.02 138.814 113.52L137.814 114.3C137.434 113.78 136.694 112.96 136.094 112.34ZM146.454 119.52V118.22H141.774V119.52H146.454ZM141.774 115.92V117.08H146.454V115.92H141.774ZM147.934 114.8V117.08H150.074V118.22H147.934V120.64H141.774V121.82H148.454V122.98H141.774V124.24H149.754V125.42H141.774V127.54H140.294V125.42H132.494V124.24H140.294V122.98H133.774V121.82H140.294V120.64H134.374V119.52H140.294V118.22H132.154V117.08H140.294V115.92H134.534V114.8H140.294V113.7H141.774V114.8H147.934ZM147.554 113.48L146.494 114.28C146.134 113.74 145.394 112.94 144.754 112.34L145.794 111.66C146.394 112.2 147.174 112.98 147.554 113.48ZM143.934 110.46H150.154V111.64H143.194C142.674 112.36 142.074 113.02 141.474 113.52C141.234 113.28 140.674 112.84 140.354 112.62C141.474 111.78 142.474 110.48 143.034 109.12L144.414 109.48C144.274 109.82 144.114 110.14 143.934 110.46ZM156.654 109.32L158.054 109.74C157.474 111.2 156.754 112.66 155.954 114V127.48H154.534V116.16C153.874 117.08 153.154 117.92 152.454 118.64C152.294 118.32 151.874 117.54 151.614 117.2C153.594 115.3 155.514 112.34 156.654 109.32ZM160.314 121.24L161.634 121.66C160.694 123.34 159.374 125.28 158.254 126.56C157.994 126.32 157.414 125.9 157.094 125.7C158.234 124.54 159.474 122.78 160.314 121.24ZM160.114 111.54V115.2H167.534V111.54H160.114ZM170.174 120.26H164.514V127.54H163.034V120.26H157.254V118.9H163.034V116.52H158.714V110.2H169.014V116.52H164.514V118.9H170.174V120.26ZM165.634 121.84L166.774 121.22C168.054 122.64 169.514 124.5 170.234 125.7L169.034 126.44C168.354 125.22 166.894 123.26 165.634 121.84ZM187.154 112.92V111.04H183.294V112.92H187.154ZM188.534 110.04V113.92H181.934V110.04H188.534ZM178.934 112.92V111.04H175.114V112.92H178.934ZM180.334 110.04V113.92H173.774V110.04H180.334ZM175.754 120.68H180.274V118.96H175.754V120.68ZM175.754 116.12V117.82H180.274V116.12H175.754ZM186.554 117.82V116.12H181.794V117.82H186.554ZM186.554 120.68V118.96H181.794V120.68H186.554ZM189.914 123.4V124.7H181.794V127.52H180.274V124.7H172.314V123.4H180.274V121.88H174.314V114.92H188.074V121.88H181.794V123.4H189.914ZM199.454 122.24L199.014 121.18C200.554 120.54 201.434 119.6 201.534 118.24C201.414 118.26 201.314 118.26 201.194 118.26C200.374 118.26 199.694 117.78 199.694 116.84C199.694 115.9 200.394 115.4 201.214 115.4C202.314 115.4 202.914 116.3 202.914 117.7C202.914 119.86 201.554 121.5 199.454 122.24ZM229.714 111V112.3H212.434V111H220.454C220.254 110.48 219.994 109.88 219.754 109.42L221.234 109.12C221.554 109.68 221.894 110.42 222.114 111H229.714ZM216.414 114.68V116.48H225.814V114.68H216.414ZM227.354 117.58H214.954V113.58H227.354V117.58ZM229.954 122.4V123.7H221.834V126.02C221.834 126.84 221.594 127.18 220.894 127.4C220.214 127.58 219.054 127.58 217.274 127.58C217.194 127.18 216.954 126.7 216.774 126.34C218.114 126.38 219.474 126.38 219.814 126.36C220.194 126.34 220.294 126.26 220.294 125.98V123.7H212.254V122.4H220.294V121.2C221.634 120.92 223.114 120.5 224.354 120H214.114V118.78H226.714L227.034 118.7L228.034 119.54C226.334 120.52 224.054 121.34 221.834 121.88V122.4H229.954ZM244.094 122.02V109.08H250.414V110.46H245.574V122.02H244.094ZM256.314 126.26C254.034 126.26 252.634 125.3 251.654 124.32L252.554 123.12C253.394 123.96 254.454 124.74 256.154 124.74C257.874 124.74 259.274 123.42 259.274 121.28C259.274 119.18 258.074 117.94 256.234 117.94C255.254 117.94 254.634 118.24 253.794 118.8L252.814 118.2L253.274 111.34H260.414V112.9H254.874L254.514 117.14C255.154 116.78 255.814 116.56 256.694 116.56C259.134 116.56 261.114 118 261.114 121.22C261.114 124.44 258.794 126.26 256.314 126.26ZM267.748 126.26C264.948 126.26 263.168 123.72 263.168 118.62C263.168 113.52 264.948 111.06 267.748 111.06C270.528 111.06 272.308 113.54 272.308 118.62C272.308 123.72 270.528 126.26 267.748 126.26ZM267.748 124.8C269.408 124.8 270.528 122.94 270.528 118.62C270.528 114.34 269.408 112.54 267.748 112.54C266.068 112.54 264.948 114.34 264.948 118.62C264.948 122.94 266.068 124.8 267.748 124.8ZM280.201 115.24L279.541 114.98C279.841 114.12 280.221 112.72 280.401 111.8L281.281 112.12C280.921 113.16 280.541 114.44 280.201 115.24ZM276.341 112.06L277.081 111.86C277.441 112.82 277.701 114.08 277.761 114.88L276.961 115.1C276.921 114.28 276.681 113.02 276.341 112.06ZM276.061 111.08V115.88H278.221V111.08H276.061ZM281.541 115.88V111.08H279.241V115.88H281.541ZM274.401 122.54L274.321 121.26C275.361 121.22 276.641 121.14 278.061 121.08V119.52H274.761V118.34H278.061V116.96H274.901V110H282.741V116.96H279.401V118.34H282.861V119.52H279.401V121C280.621 120.94 281.901 120.86 283.181 120.78L283.141 121.98C279.961 122.22 276.701 122.42 274.401 122.54ZM275.001 127.52L274.001 126.98C274.781 126.16 275.161 124.72 275.321 123.34L276.381 123.62C276.181 125.1 275.881 126.64 275.001 127.52ZM277.021 123.4L277.981 123.3C278.301 124.38 278.521 125.82 278.521 126.74L277.501 126.88C277.501 125.94 277.301 124.52 277.021 123.4ZM278.921 123.3L279.861 123.1C280.321 124.1 280.761 125.42 280.901 126.3L279.881 126.52C279.781 125.64 279.361 124.32 278.921 123.3ZM280.821 123.04L281.741 122.66C282.441 123.58 283.161 124.82 283.461 125.64L282.461 126.08C282.181 125.24 281.481 123.96 280.821 123.04ZM290.241 125.22V120.08H285.201V125.22H290.241ZM292.441 115H288.181V118.7H291.641V127.42H290.241V126.56H285.201V127.5H283.841V118.7H286.721V109.3H288.181V113.6H292.441V115ZM295.281 126V111.34H297.141V124.42H303.541V126H295.281ZM306.121 126V111.34H307.981V126H306.121ZM311.98 126V111.34H313.9L319.24 120.58L320.8 123.6H320.9C320.8 122.12 320.66 120.48 320.66 118.96V111.34H322.42V126H320.52L315.18 116.74L313.6 113.72H313.52C313.6 115.2 313.74 116.76 313.74 118.3V126H311.98ZM326.414 126V111.34H334.874V112.9H328.274V117.5H333.834V119.08H328.274V124.42H335.094V126H326.414ZM342.645 126V111.34H346.825C350.125 111.34 352.325 112.44 352.325 115.64C352.325 118.74 350.125 120.18 346.925 120.18H344.505V126H342.645ZM344.505 118.68H346.685C349.265 118.68 350.485 117.74 350.485 115.64C350.485 113.52 349.185 112.84 346.605 112.84H344.505V118.68ZM360.701 126.26C357.021 126.26 354.441 123.32 354.441 118.62C354.441 113.92 357.021 111.06 360.701 111.06C364.381 111.06 366.961 113.92 366.961 118.62C366.961 123.32 364.381 126.26 360.701 126.26ZM360.701 124.64C363.321 124.64 365.061 122.28 365.061 118.62C365.061 114.94 363.321 112.68 360.701 112.68C358.061 112.68 356.341 114.94 356.341 118.62C356.341 122.28 358.061 124.64 360.701 124.64ZM370.125 126V111.34H371.985V126H370.125ZM375.984 126V111.34H377.904L383.244 120.58L384.804 123.6H384.904C384.804 122.12 384.664 120.48 384.664 118.96V111.34H386.424V126H384.524L379.184 116.74L377.604 113.72H377.524C377.604 115.2 377.744 116.76 377.744 118.3V126H375.984ZM393.478 126V112.9H389.038V111.34H399.778V112.9H395.338V126H393.478ZM405.592 126.26C403.512 126.26 401.732 125.42 400.452 124.08L401.552 122.82C402.612 123.92 404.092 124.64 405.612 124.64C407.532 124.64 408.692 123.68 408.692 122.24C408.692 120.74 407.632 120.26 406.252 119.64L404.132 118.72C402.772 118.14 401.152 117.1 401.152 114.96C401.152 112.7 403.112 111.06 405.772 111.06C407.512 111.06 409.052 111.8 410.092 112.88L409.112 114.06C408.212 113.22 407.132 112.68 405.772 112.68C404.112 112.68 403.032 113.52 403.032 114.84C403.032 116.26 404.312 116.8 405.452 117.28L407.552 118.18C409.252 118.92 410.572 119.92 410.572 122.1C410.572 124.42 408.652 126.26 405.592 126.26ZM418.125 114.96L415.445 115.12C415.125 116.74 414.745 118.34 414.405 119.64C415.165 120.22 415.965 120.84 416.725 121.5C417.825 119.22 418.085 116.9 418.125 114.96ZM420.685 114.8L419.545 114.88C419.485 117.12 419.185 119.82 417.865 122.46C418.865 123.34 419.765 124.18 420.365 124.88L419.405 126.12C418.845 125.44 418.025 124.62 417.105 123.76C416.225 125.1 415.005 126.4 413.385 127.58C413.165 127.26 412.645 126.78 412.345 126.56C413.985 125.4 415.165 124.1 416.005 122.78C414.945 121.84 413.805 120.92 412.785 120.14C413.185 118.84 413.605 117.06 414.005 115.2L412.425 115.28L412.265 113.86C412.845 113.84 413.525 113.8 414.265 113.78C414.545 112.26 414.765 110.68 414.905 109.32L416.365 109.4C416.205 110.74 415.965 112.24 415.705 113.72L418.145 113.58V112.12H419.545V113.5L420.705 113.44L420.685 114.8ZM430.565 117.7V119.12H426.165V125.76C426.165 126.64 425.945 127.06 425.325 127.3C424.705 127.52 423.745 127.56 422.185 127.54C422.105 127.12 421.865 126.54 421.645 126.12C422.825 126.16 423.925 126.16 424.225 126.14C424.545 126.14 424.665 126.04 424.665 125.76V119.12H420.045V117.7H424.665V115.42C425.685 114.58 426.765 113.28 427.585 112.12H420.925V110.74H428.605L428.945 110.66L429.965 111.4C428.985 112.88 427.565 114.56 426.165 115.78V117.7H430.565ZM448.485 113.3V111.92H446.625V113.3H448.485ZM448.485 115.66V114.24H446.625V115.66H448.485ZM441.005 114.24V115.66H442.805V114.24H441.005ZM441.005 111.92V113.3H442.805V111.92H441.005ZM445.585 114.24H443.845V115.66H445.585V114.24ZM443.845 113.3H445.585V111.92H443.845V113.3ZM449.785 110.92V116.66H439.765V110.92H442.645V109.28H443.845V110.92H445.585V109.28H446.805V110.92H449.785ZM450.385 117.64V118.78H439.105V117.64H450.385ZM441.645 120.8V122.52H447.845V120.8H441.645ZM449.145 123.52H440.385V119.8H449.145V123.52ZM436.845 111.86L435.685 112.64C435.405 111.92 434.705 110.84 434.045 110.06L435.125 109.36C435.825 110.12 436.525 111.16 436.845 111.86ZM439.125 120.3L438.185 121.5C437.825 120.94 437.085 119.94 436.445 119.1V127.52H435.085V119.52C434.345 120.36 433.585 121.1 432.825 121.68C432.705 121.26 432.385 120.52 432.165 120.26C434.045 118.9 435.985 116.5 437.105 114.06H432.565V112.7H437.825L438.085 112.64L438.885 113.18C438.345 114.68 437.565 116.16 436.665 117.48C437.365 118.24 438.765 119.86 439.125 120.3ZM447.065 125.98H450.565V127.14H438.665V125.98H442.345C442.125 125.38 441.865 124.64 441.585 124.04L442.745 123.72C443.085 124.42 443.445 125.34 443.665 125.98H445.805C446.185 125.28 446.585 124.34 446.805 123.68L448.165 124.04C447.785 124.72 447.405 125.4 447.065 125.98ZM459.825 111.66H455.145V114.26H459.825V111.66ZM455.145 118.36H459.825V115.6H455.145V118.36ZM457.785 121.32L459.045 120.72C460.065 122.34 461.265 124.5 461.825 125.82L460.485 126.56C460.265 126.02 459.945 125.3 459.565 124.56C454.525 126.34 453.865 126.62 453.445 126.94C453.345 126.52 453.065 125.8 452.825 125.42C453.165 125.26 453.665 124.92 453.665 124.16V110.32H461.285V119.7H455.145V124.62L458.965 123.38C458.565 122.66 458.145 121.94 457.785 121.32ZM469.665 110.44V121.88C469.665 122.72 469.485 123.14 468.945 123.38C468.405 123.64 467.505 123.66 466.045 123.64C465.985 123.24 465.825 122.64 465.605 122.22C466.645 122.26 467.565 122.26 467.825 122.24C468.105 122.24 468.205 122.16 468.205 121.88V111.84H464.585V127.54H463.125V110.44H469.665ZM490.065 111V112.3H472.785V111H480.805C480.605 110.48 480.345 109.88 480.105 109.42L481.585 109.12C481.905 109.68 482.245 110.42 482.465 111H490.065ZM476.765 114.68V116.48H486.165V114.68H476.765ZM487.705 117.58H475.305V113.58H487.705V117.58ZM490.305 122.4V123.7H482.185V126.02C482.185 126.84 481.945 127.18 481.245 127.4C480.565 127.58 479.405 127.58 477.625 127.58C477.545 127.18 477.305 126.7 477.125 126.34C478.465 126.38 479.825 126.38 480.165 126.36C480.545 126.34 480.645 126.26 480.645 125.98V123.7H472.605V122.4H480.645V121.2C481.985 120.92 483.465 120.5 484.705 120H474.465V118.78H487.065L487.385 118.7L488.385 119.54C486.685 120.52 484.405 121.34 482.185 121.88V122.4H490.305ZM496.605 119.88H505.865C504.945 119.18 504.145 118.36 503.525 117.48H499.045C498.345 118.34 497.545 119.14 496.605 119.88ZM510.185 117.48H505.205C506.565 118.98 508.645 120.2 510.845 120.78C510.505 121.06 510.105 121.64 509.885 122.02C508.785 121.68 507.725 121.14 506.745 120.52V120.54C506.485 124.58 506.205 126.16 505.645 126.74C505.285 127.14 504.905 127.26 504.325 127.32C503.765 127.36 502.725 127.36 501.645 127.28C501.625 126.86 501.445 126.28 501.205 125.88C502.265 126 503.285 126 503.665 126C504.025 126 504.225 125.96 504.405 125.8C504.765 125.44 505.005 124.22 505.225 121.24H500.385C499.845 124.22 498.485 126.36 494.265 127.52C494.105 127.14 493.725 126.56 493.405 126.26C497.185 125.34 498.365 123.62 498.865 121.24H495.765V120.52C494.945 121.06 494.085 121.56 493.125 122C492.985 121.64 492.525 121.06 492.185 120.78C494.185 119.92 495.805 118.76 497.065 117.48H492.765V116.14H498.225C498.745 115.48 499.165 114.8 499.545 114.1H493.985V112.78H497.305C496.985 112.1 496.305 111.06 495.685 110.32L496.865 109.72C497.525 110.48 498.265 111.52 498.605 112.22L497.525 112.78H500.145C500.625 111.6 500.925 110.38 501.085 109.22L502.645 109.38C502.445 110.52 502.145 111.66 501.745 112.78H504.125C504.785 111.94 505.605 110.66 506.045 109.78L507.405 110.24C506.865 111.12 506.225 112.04 505.605 112.78H508.825V114.1H501.185C500.845 114.8 500.485 115.48 500.025 116.14H510.185V117.48ZM518.445 114.78V127.72H512.125V126.34H516.965V114.78H518.445ZM538.785 117.92L538.985 119.26L536.545 120.02V125.82C536.545 126.64 536.345 127.04 535.825 127.28C535.325 127.5 534.525 127.54 533.205 127.54C533.145 127.16 532.945 126.58 532.745 126.18C533.645 126.2 534.485 126.2 534.725 126.2C535.005 126.2 535.105 126.1 535.105 125.82V120.46L532.485 121.28L532.085 119.84C532.925 119.62 533.965 119.32 535.105 118.98V114.66H532.345V113.28H535.105V109.28H536.545V113.28H538.765V114.66H536.545V118.6C537.285 118.38 538.025 118.14 538.785 117.92ZM545.445 124.64H548.745V120.56H545.445V124.64ZM540.885 120.56V124.64H544.025V120.56H540.885ZM544.025 115.26H540.885V119.16H544.025V115.26ZM548.745 115.26H545.445V119.16H548.745V115.26ZM545.445 113.84H550.205V127.34H548.745V126.06H540.885V127.48H539.465V113.84H544.025V109.3H545.445V113.84ZM567.725 111.22H563.665C564.345 111.74 565.005 112.34 565.505 112.92C566.385 112.44 567.125 111.9 567.725 111.22ZM568.765 110.24L569.545 110.68C567.765 113.74 563.685 115.06 559.545 115.64C559.425 115.34 559.165 114.94 558.925 114.7C560.905 114.48 562.845 114.06 564.545 113.36C564.025 112.76 563.305 112.06 562.605 111.52C561.785 111.88 560.925 112.2 559.945 112.5C559.765 112.22 559.385 111.82 559.125 111.64C561.565 111 563.445 110.12 564.505 109.22L565.805 109.5C565.505 109.78 565.165 110.04 564.785 110.3H568.505L568.765 110.24ZM563.005 112.66L563.025 113.48C561.805 113.6 560.705 113.68 559.685 113.76L559.525 112.88C560.505 112.82 561.665 112.74 563.005 112.66ZM555.285 116.6V116.82C555.285 117.84 554.965 119.62 553.585 120.74C553.325 120.54 552.765 120.24 552.445 120.08C553.705 119.1 553.945 117.62 553.945 116.78V116.6H552.505V115.38H556.885V113.86H553.445V109.76H554.725V112.66H556.885V109.32H558.265V120.58H556.885V116.6H555.285ZM570.545 123.22H562.965C565.465 124.14 568.825 125.48 570.625 126.34L569.905 127.52C568.145 126.62 564.605 125.12 562.005 124.12L562.625 123.22H561.685C560.905 124.88 558.745 126.62 553.105 127.58C552.945 127.24 552.585 126.7 552.265 126.38C556.885 125.62 558.985 124.4 559.945 123.22H552.425V121.96H560.545C560.605 121.68 560.625 121.44 560.625 121.2V119.98H562.085V121.24C562.085 121.48 562.065 121.7 562.045 121.96H566.125C565.685 121.54 565.045 121.04 564.525 120.66L565.125 120.12H564.425C564.365 119.76 564.185 119.32 564.005 118.96C564.925 119 565.725 119 565.945 119C566.205 118.98 566.265 118.92 566.265 118.7V116.72H561.605C562.405 117.2 563.285 117.92 563.725 118.48L562.745 119.28C562.325 118.7 561.385 117.9 560.585 117.38L561.425 116.72H559.045V115.66H566.265V114.2H567.685V115.66H570.205V116.72H567.685V118.74C567.685 119.44 567.545 119.74 567.005 119.94C566.665 120.06 566.145 120.1 565.445 120.12C566.065 120.54 566.845 121.12 567.225 121.52L566.805 121.96H570.545V123.22ZM590.305 117.74L589.345 118.08C589.285 117.84 589.205 117.52 589.085 117.18C586.185 117.64 585.705 117.74 585.465 117.88C585.385 117.64 585.205 117.02 585.065 116.72C585.385 116.66 585.685 116.32 586.065 115.84C586.285 115.58 586.745 114.92 587.265 114.06C585.785 114.26 585.445 114.36 585.245 114.46C585.185 114.2 585.005 113.66 584.865 113.34C585.105 113.32 585.325 113.06 585.565 112.68C585.785 112.34 586.605 110.88 587.005 109.54L588.125 109.88C587.625 111.06 587.005 112.24 586.385 113.16L587.845 113C588.105 112.56 588.345 112.08 588.545 111.62L589.685 112.04C588.825 113.68 587.785 115.26 586.765 116.52L588.765 116.24C588.605 115.84 588.445 115.42 588.285 115.04L589.185 114.78C589.625 115.72 590.105 117 590.305 117.74ZM583.105 118.08L582.125 118.42C582.065 118.18 581.985 117.9 581.905 117.58C579.045 118.02 578.585 118.1 578.305 118.26C578.265 118.02 578.105 117.44 577.965 117.14C578.245 117.08 578.585 116.74 578.985 116.24C579.185 116 579.705 115.3 580.265 114.44C578.705 114.66 578.325 114.76 578.125 114.86C578.085 114.62 577.905 114.04 577.785 113.76C578.025 113.7 578.265 113.44 578.525 113.02C578.805 112.62 579.705 111.08 580.205 109.58L581.325 109.94C580.765 111.24 580.045 112.56 579.325 113.56L580.905 113.4C581.145 112.96 581.385 112.52 581.585 112.06L582.665 112.48C581.785 114.08 580.725 115.66 579.665 116.9L581.605 116.64C581.465 116.2 581.305 115.78 581.145 115.38L582.085 115.12C582.505 116.08 582.945 117.34 583.105 118.08ZM577.685 118.84L576.965 119.94C576.765 119.4 576.325 118.46 575.905 117.62V127.52H574.605V118C574.105 120.06 573.425 122.02 572.725 123.24C572.605 122.82 572.265 122.16 572.085 121.8C573.045 120.18 574.005 117.12 574.485 114.5H572.485V113.1H574.605V109.26H575.905V113.1H577.485V114.5H575.905V115.8C576.345 116.5 577.425 118.36 577.685 118.84ZM587.925 120.96L589.205 121.42C588.585 122.62 587.765 123.68 586.745 124.62C587.325 125.5 588.025 125.98 588.825 126.06C589.245 126.1 589.505 125.34 589.665 123.9C589.905 124.18 590.405 124.52 590.665 124.66C590.285 126.84 589.665 127.58 588.865 127.52C587.565 127.44 586.525 126.72 585.705 125.48C584.665 126.24 583.485 126.9 582.205 127.42C582.045 127.16 581.685 126.72 581.405 126.48C582.785 125.94 584.065 125.24 585.125 124.4C584.665 123.38 584.285 122.14 583.965 120.74H580.705V121.04C580.705 121.18 580.705 121.34 580.685 121.5C581.645 122.24 582.845 123.26 583.445 123.88L582.525 124.78C582.065 124.3 581.285 123.56 580.505 122.9C580.165 124.5 579.325 126.22 577.565 127.56C577.365 127.28 576.865 126.82 576.585 126.66C578.925 124.94 579.425 122.7 579.425 121.02V120.74H577.905V119.54H583.745C583.265 116.7 583.005 113.24 582.885 109.42H584.165C584.265 113.32 584.545 116.8 585.045 119.54H587.905C587.425 119.12 586.705 118.62 586.125 118.26L586.885 117.56C587.585 117.96 588.505 118.58 588.965 119L588.445 119.54H590.105V120.74H585.285C585.545 121.8 585.805 122.72 586.145 123.48C586.885 122.72 587.505 121.86 587.925 120.96ZM605.665 122H597.385V123.36H605.665V122ZM597.385 125.78H605.665V124.42H597.385V125.78ZM595.925 127.5V120.94H607.165V127.44H605.665V126.84H597.385V127.5H595.925ZM604.305 118.9L603.305 118.54C603.665 117.88 604.185 116.82 604.405 116.14L605.665 116.54C605.225 117.4 604.725 118.3 604.305 118.9ZM597.245 116.56L598.305 116.22C598.825 116.92 599.325 117.84 599.505 118.48L598.365 118.9C598.205 118.26 597.745 117.3 597.245 116.56ZM596.045 116V118.98H600.765V116H596.045ZM606.785 118.98V116H602.025V118.98H606.785ZM594.765 120V114.96H608.125V120H594.765ZM598.945 112.9H604.165C603.205 112.3 602.285 111.62 601.525 110.9C600.765 111.64 599.885 112.32 598.945 112.9ZM601.325 109.2L602.625 109.68C602.525 109.8 602.425 109.94 602.345 110.06C604.205 111.88 607.665 113.48 610.785 114.22C610.485 114.48 610.065 115 609.845 115.36C608.225 114.9 606.505 114.22 604.945 113.36V113.98H598.025V113.44C596.485 114.28 594.785 114.96 593.125 115.48C592.965 115.22 592.545 114.62 592.285 114.34C595.905 113.38 599.445 111.62 601.325 109.2ZM617.425 125.22H626.705C628.125 125.22 628.485 124.5 628.625 121.1C629.045 121.34 629.705 121.56 630.145 121.66C629.865 125.78 629.065 126.72 626.565 126.72H617.585C614.685 126.72 613.305 125.68 613.305 123.96C613.305 122.48 613.805 120.96 624.105 112.42H613.425V110.92H626.205L626.565 110.82L627.605 111.56C627.545 111.64 627.445 111.72 627.305 111.78C615.565 121.32 614.885 122.78 614.885 123.84C614.885 124.8 615.885 125.22 617.425 125.22ZM648.145 114.14H640.905C640.285 115.76 639.605 117.2 638.805 118.34C638.485 118.08 637.745 117.68 637.345 117.5C638.865 115.56 639.965 112.44 640.565 109.28L642.165 109.58C641.965 110.64 641.685 111.68 641.385 112.68H648.625L648.905 112.6L650.005 113.18C649.485 115.12 648.605 117.22 647.905 118.6C647.585 118.42 647.025 118.12 646.665 117.96C647.145 117.02 647.745 115.52 648.145 114.14ZM638.185 112.4V113.84H632.945V112.4H638.185ZM638.785 120.6V122.06H632.505V120.6H638.785ZM644.105 114.98V116.54C644.105 116.84 644.105 117.14 644.085 117.42C645.005 121.64 646.985 124.84 650.625 126.1C650.325 126.4 649.865 126.98 649.645 127.4C646.645 126.18 644.785 123.8 643.645 120.58C642.945 123.02 641.305 125.58 637.485 127.58C637.245 127.24 636.705 126.68 636.365 126.42C642.105 123.52 642.545 119.36 642.545 116.5V114.98H644.105ZM669.325 127.92C666.925 125.48 665.345 122.3 665.345 118.4C665.345 114.5 666.925 111.32 669.325 108.88L670.525 109.5C668.225 111.88 666.805 114.84 666.805 118.4C666.805 121.96 668.225 124.92 670.525 127.3L669.325 127.92ZM678.065 122.24L679.605 122.84C678.185 124.56 675.925 126.4 673.925 127.56C673.645 127.26 673.105 126.78 672.745 126.5C674.705 125.48 676.945 123.74 678.065 122.24ZM683.185 122.98L684.465 122.22C686.305 123.52 688.785 125.44 690.045 126.62L688.645 127.54C687.465 126.36 685.065 124.38 683.185 122.98ZM678.605 114.92V119.64H684.285V114.92H678.605ZM685.805 119.64H690.485V121.08H672.505V119.64H677.105V114.92H673.305V113.48H677.105V109.44H678.605V113.48H684.285V109.44H685.805V113.48H689.765V114.92H685.805V119.64ZM698.785 117.92L698.985 119.26L696.545 120.02V125.82C696.545 126.64 696.345 127.04 695.825 127.28C695.325 127.5 694.525 127.54 693.205 127.54C693.145 127.16 692.945 126.58 692.745 126.18C693.645 126.2 694.485 126.2 694.725 126.2C695.005 126.2 695.105 126.1 695.105 125.82V120.46L692.485 121.28L692.085 119.84C692.925 119.62 693.965 119.32 695.105 118.98V114.66H692.345V113.28H695.105V109.28H696.545V113.28H698.765V114.66H696.545V118.6C697.285 118.38 698.025 118.14 698.785 117.92ZM705.445 124.64H708.745V120.56H705.445V124.64ZM700.885 120.56V124.64H704.025V120.56H700.885ZM704.025 115.26H700.885V119.16H704.025V115.26ZM708.745 115.26H705.445V119.16H708.745V115.26ZM705.445 113.84H710.205V127.34H708.745V126.06H700.885V127.48H699.465V113.84H704.025V109.3H705.445V113.84ZM712.325 126V124.92C716.925 120.9 719.045 117.98 719.045 115.46C719.045 113.78 718.165 112.56 716.345 112.56C715.145 112.56 714.105 113.3 713.305 114.26L712.245 113.22C713.445 111.92 714.705 111.06 716.565 111.06C719.185 111.06 720.825 112.78 720.825 115.4C720.825 118.32 718.525 121.3 715.085 124.56C715.845 124.5 716.745 124.42 717.485 124.42H721.545V126H712.325ZM728.099 126.26C725.299 126.26 723.519 123.72 723.519 118.62C723.519 113.52 725.299 111.06 728.099 111.06C730.879 111.06 732.659 113.54 732.659 118.62C732.659 123.72 730.879 126.26 728.099 126.26ZM728.099 124.8C729.759 124.8 730.879 122.94 730.879 118.62C730.879 114.34 729.759 112.54 728.099 112.54C726.419 112.54 725.299 114.34 725.299 118.62C725.299 122.94 726.419 124.8 728.099 124.8ZM739.193 126.26C736.393 126.26 734.613 123.72 734.613 118.62C734.613 113.52 736.393 111.06 739.193 111.06C741.973 111.06 743.753 113.54 743.753 118.62C743.753 123.72 741.973 126.26 739.193 126.26ZM739.193 124.8C740.853 124.8 741.973 122.94 741.973 118.62C741.973 114.34 740.853 112.54 739.193 112.54C737.513 112.54 736.393 114.34 736.393 118.62C736.393 122.94 737.513 124.8 739.193 124.8ZM751.267 125.12H760.147V120.58H751.267V125.12ZM759.367 112.62H751.967C751.547 113.04 751.087 113.42 750.627 113.82C751.987 114.78 753.667 116.04 754.647 116.98C756.567 115.78 758.227 114.3 759.367 112.62ZM761.667 119.2V127.52H760.147V126.48H751.267V127.52H749.807V120.94C748.707 121.32 747.587 121.64 746.487 121.9C746.367 121.5 746.027 120.86 745.727 120.54C748.267 120.02 750.907 119.08 753.267 117.8C752.307 116.84 750.787 115.64 749.467 114.66C748.767 115.14 748.027 115.6 747.227 116C747.007 115.66 746.527 115.1 746.207 114.88C749.427 113.32 751.687 111.1 752.887 109.2L754.547 109.56C754.167 110.12 753.747 110.7 753.247 111.26H760.327L760.567 111.18L761.567 111.8C759.927 114.98 757.047 117.44 753.727 119.2H761.667ZM766.847 108.88C769.247 111.32 770.827 114.5 770.827 118.4C770.827 122.3 769.247 125.48 766.847 127.92L765.647 127.3C767.947 124.92 769.367 121.96 769.367 118.4C769.367 114.84 767.947 111.88 765.647 109.5L766.847 108.88ZM791.747 118.42C791.747 116.74 793.127 115.38 794.787 115.38C796.467 115.38 797.827 116.74 797.827 118.42C797.827 120.1 796.467 121.46 794.787 121.46C793.127 121.46 791.747 120.1 791.747 118.42ZM792.767 118.42C792.767 119.54 793.687 120.44 794.787 120.44C795.907 120.44 796.807 119.54 796.807 118.42C796.807 117.3 795.907 116.4 794.787 116.4C793.687 116.4 792.767 117.3 792.767 118.42Z" fill="black"/>
<path d="M53.4 165.26L54.28 164.36C55.52 164.98 57.08 165.94 57.86 166.64L56.94 167.66C56.18 166.96 54.66 165.94 53.4 165.26ZM56.24 170.66L57.74 171.04C56.88 173.62 55.7 175.9 54.22 177.8C54.96 179.76 55.88 180.9 56.9 180.9C57.46 180.9 57.7 179.86 57.84 177.2C58.18 177.54 58.72 177.88 59.12 178C58.84 181.4 58.3 182.38 56.78 182.38C55.24 182.38 54.04 181.16 53.12 179.1C51.92 180.4 50.54 181.52 49 182.42C48.78 182.12 48.26 181.52 47.92 181.24C49.7 180.28 51.24 179.04 52.52 177.54C51.8 175.28 51.32 172.34 51.06 169.12H44.16V171.72H49.26V172.36C49.16 176.84 49.04 178.52 48.62 179.04C48.32 179.42 47.98 179.56 47.42 179.62C46.92 179.66 46.02 179.66 45.04 179.62C45.02 179.16 44.86 178.6 44.62 178.22C45.54 178.3 46.4 178.32 46.74 178.32C47.02 178.32 47.22 178.28 47.34 178.1C47.62 177.8 47.72 176.54 47.8 173.1H44.16V173.26C44.16 176.06 43.86 180.08 42.06 182.68C41.8 182.38 41.16 181.86 40.82 181.68C42.46 179.24 42.64 175.82 42.64 173.24V167.66H50.98C50.9 166.56 50.88 165.44 50.86 164.3H52.4C52.4 165.46 52.42 166.58 52.48 167.66H58.94V169.12H52.58C52.78 171.78 53.14 174.16 53.68 176.06C54.76 174.48 55.62 172.68 56.24 170.66ZM68.68 175.3L68.86 176.68C66.16 177.48 63.3 178.28 61.2 178.86L60.82 177.34C61.7 177.14 62.8 176.86 64.02 176.56V168.04H61.1V166.62H68.38V168.04H65.48V176.16C66.52 175.88 67.62 175.58 68.68 175.3ZM73.34 168.8H78.74C78.74 168.8 78.74 169.36 78.72 169.56C78.4 177.76 78.14 180.62 77.38 181.54C76.94 182.08 76.54 182.24 75.84 182.32C75.2 182.38 74.02 182.36 72.9 182.28C72.88 181.86 72.7 181.24 72.44 180.82C73.66 180.94 74.8 180.94 75.24 180.94C75.62 180.94 75.86 180.88 76.08 180.64C76.64 180 76.96 177.32 77.26 170.24H73.26C72.94 175.54 71.78 180 67.22 182.56C67.02 182.18 66.52 181.64 66.16 181.38C70.4 179.12 71.5 175.08 71.8 170.24H68.52V168.8H71.86C71.9 167.46 71.92 166.06 71.92 164.6H73.4C73.4 166.04 73.38 167.44 73.34 168.8ZM87.5 169.18V170.4H90.8V169.18H87.5ZM87.5 167.02V168.2H90.8V167.02H87.5ZM90.82 175.96H88.66C88.32 177.42 87.72 178.58 86.58 179.4C86.42 179.12 86.04 178.7 85.78 178.52C87.14 177.54 87.58 175.82 87.7 173.8H85.56V172.72H88.66C88.48 172.38 88.28 172.06 88.08 171.76L89.02 171.4H86.28V166.02H88.32C88.5 165.44 88.68 164.76 88.74 164.28L90.24 164.48C90.04 165 89.82 165.52 89.6 166.02H92.08V171.3C93.14 169.54 93.82 166.96 94.24 164.38L95.5 164.56C95.34 165.54 95.14 166.52 94.9 167.42H98.94V168.7H98.1C97.82 170.94 97.36 172.92 96.7 174.58C97.6 176 98.42 177.42 98.92 178.48L97.82 179.02C97.4 178.14 96.82 177.02 96.12 175.84C95.24 177.56 94.02 178.92 92.4 180C92.24 179.74 91.78 179.26 91.48 179.02C93.28 177.94 94.48 176.48 95.34 174.58C94.74 173.6 94.1 172.64 93.5 171.78L94.54 171.32C94.98 171.94 95.42 172.58 95.86 173.26C96.3 171.92 96.6 170.38 96.8 168.7H94.54C94.12 170.12 93.56 171.42 92.94 172.44C92.7 172.24 92.18 171.84 91.86 171.66L92.02 171.4H89.3C89.58 171.8 89.9 172.3 90.1 172.72H92.84V173.8H88.96C88.94 174.16 88.9 174.54 88.84 174.88H92.1C92.1 174.88 92.1 175.2 92.08 175.38C91.98 177.56 91.86 178.44 91.56 178.78C91.34 179.04 91.06 179.16 90.64 179.18C90.36 179.2 89.78 179.22 89.24 179.18C89.2 178.86 89.1 178.42 88.94 178.14C89.48 178.2 89.92 178.2 90.12 178.2C90.3 178.2 90.4 178.18 90.52 178.06C90.66 177.88 90.74 177.34 90.82 175.96ZM84.2 167.64L82.94 168.04C82.74 167.2 82.3 165.82 81.98 164.78L83.2 164.44C83.54 165.48 83.96 166.78 84.2 167.64ZM84.5 173.54L85.12 173.78C84.82 175.54 84.34 177.52 83.74 179.02C84.14 179.22 84.62 179.64 85.44 180.12C86.88 180.96 88.74 181.1 91.12 181.1C93.8 181.1 97.06 180.92 99.34 180.68C99.18 181.06 98.92 181.76 98.9 182.16C97.42 182.26 93.52 182.4 91.08 182.4C88.42 182.4 86.64 182.18 85.12 181.3C84.3 180.8 83.56 180.14 83.1 180.14C82.72 180.14 82.12 181.4 81.66 182.64L80.66 181.36C81.28 180.38 81.88 179.56 82.44 179.14C82.96 177.96 83.4 176.36 83.68 174.9H81.52C81.98 173.7 82.56 171.98 83.02 170.38H81V169.1H84.7C84.26 170.54 83.74 172.22 83.26 173.6H84.28L84.5 173.54ZM105.6 166.94L104.32 167.4C104.14 166.68 103.68 165.54 103.32 164.7L104.56 164.32C104.98 165.14 105.42 166.24 105.6 166.94ZM105.88 176.8H102.82V180.14H105.88V176.8ZM107.2 175.58V181.36H102.82V182.28H101.52V175.58H107.2ZM101.44 174.02V172.84H107.26V174.02H101.44ZM107.24 170.14V171.32H101.42V170.14H107.24ZM100.96 168.84V167.62H107.82V168.84H100.96ZM110.52 178.22H116.58V176.74H110.58C110.58 177.2 110.56 177.7 110.52 178.22ZM116.58 174.2H110.58V175.68H116.58V174.2ZM117.98 173.02V180.98C117.98 181.7 117.84 182.06 117.3 182.28C116.8 182.5 115.98 182.5 114.72 182.5C114.66 182.12 114.5 181.62 114.3 181.26C115.2 181.3 116.02 181.3 116.26 181.28C116.52 181.28 116.58 181.2 116.58 180.98V179.28H110.38C110.16 180.54 109.76 181.8 108.94 182.78C108.72 182.5 108.2 181.96 107.9 181.8C109.08 180.3 109.22 178.28 109.22 176.7V173.02H117.98ZM114.22 170.7H119.14V171.84H108.04V170.7H112.76V169.34H108.76V168.26H112.76V167.04H108.26V165.9H112.76V164.28H114.22V165.9H118.94V167.04H114.22V168.26H118.56V169.34H114.22V170.7ZM120.88 181V179.92C125.48 175.9 127.6 172.98 127.6 170.46C127.6 168.78 126.72 167.56 124.9 167.56C123.7 167.56 122.66 168.3 121.86 169.26L120.8 168.22C122 166.92 123.26 166.06 125.12 166.06C127.74 166.06 129.38 167.78 129.38 170.4C129.38 173.32 127.08 176.3 123.64 179.56C124.4 179.5 125.3 179.42 126.04 179.42H130.1V181H120.88ZM140.974 166.62H135.114C134.494 167.48 133.774 168.26 133.054 168.86C132.854 168.6 132.334 168.12 132.014 167.86C133.254 166.94 134.414 165.54 135.074 164.12L136.394 164.5C136.234 164.82 136.074 165.12 135.894 165.44H140.974V166.62ZM136.094 167.34L137.074 166.66C137.674 167.22 138.454 168.02 138.814 168.52L137.814 169.3C137.434 168.78 136.694 167.96 136.094 167.34ZM146.454 174.52V173.22H141.774V174.52H146.454ZM141.774 170.92V172.08H146.454V170.92H141.774ZM147.934 169.8V172.08H150.074V173.22H147.934V175.64H141.774V176.82H148.454V177.98H141.774V179.24H149.754V180.42H141.774V182.54H140.294V180.42H132.494V179.24H140.294V177.98H133.774V176.82H140.294V175.64H134.374V174.52H140.294V173.22H132.154V172.08H140.294V170.92H134.534V169.8H140.294V168.7H141.774V169.8H147.934ZM147.554 168.48L146.494 169.28C146.134 168.74 145.394 167.94 144.754 167.34L145.794 166.66C146.394 167.2 147.174 167.98 147.554 168.48ZM143.934 165.46H150.154V166.64H143.194C142.674 167.36 142.074 168.02 141.474 168.52C141.234 168.28 140.674 167.84 140.354 167.62C141.474 166.78 142.474 165.48 143.034 164.12L144.414 164.48C144.274 164.82 144.114 165.14 143.934 165.46ZM156.654 164.32L158.054 164.74C157.474 166.2 156.754 167.66 155.954 169V182.48H154.534V171.16C153.874 172.08 153.154 172.92 152.454 173.64C152.294 173.32 151.874 172.54 151.614 172.2C153.594 170.3 155.514 167.34 156.654 164.32ZM160.314 176.24L161.634 176.66C160.694 178.34 159.374 180.28 158.254 181.56C157.994 181.32 157.414 180.9 157.094 180.7C158.234 179.54 159.474 177.78 160.314 176.24ZM160.114 166.54V170.2H167.534V166.54H160.114ZM170.174 175.26H164.514V182.54H163.034V175.26H157.254V173.9H163.034V171.52H158.714V165.2H169.014V171.52H164.514V173.9H170.174V175.26ZM165.634 176.84L166.774 176.22C168.054 177.64 169.514 179.5 170.234 180.7L169.034 181.44C168.354 180.22 166.894 178.26 165.634 176.84ZM187.154 167.92V166.04H183.294V167.92H187.154ZM188.534 165.04V168.92H181.934V165.04H188.534ZM178.934 167.92V166.04H175.114V167.92H178.934ZM180.334 165.04V168.92H173.774V165.04H180.334ZM175.754 175.68H180.274V173.96H175.754V175.68ZM175.754 171.12V172.82H180.274V171.12H175.754ZM186.554 172.82V171.12H181.794V172.82H186.554ZM186.554 175.68V173.96H181.794V175.68H186.554ZM189.914 178.4V179.7H181.794V182.52H180.274V179.7H172.314V178.4H180.274V176.88H174.314V169.92H188.074V176.88H181.794V178.4H189.914ZM199.454 177.24L199.014 176.18C200.554 175.54 201.434 174.6 201.534 173.24C201.414 173.26 201.314 173.26 201.194 173.26C200.374 173.26 199.694 172.78 199.694 171.84C199.694 170.9 200.394 170.4 201.214 170.4C202.314 170.4 202.914 171.3 202.914 172.7C202.914 174.86 201.554 176.5 199.454 177.24ZM229.714 166V167.3H212.434V166H220.454C220.254 165.48 219.994 164.88 219.754 164.42L221.234 164.12C221.554 164.68 221.894 165.42 222.114 166H229.714ZM216.414 169.68V171.48H225.814V169.68H216.414ZM227.354 172.58H214.954V168.58H227.354V172.58ZM229.954 177.4V178.7H221.834V181.02C221.834 181.84 221.594 182.18 220.894 182.4C220.214 182.58 219.054 182.58 217.274 182.58C217.194 182.18 216.954 181.7 216.774 181.34C218.114 181.38 219.474 181.38 219.814 181.36C220.194 181.34 220.294 181.26 220.294 180.98V178.7H212.254V177.4H220.294V176.2C221.634 175.92 223.114 175.5 224.354 175H214.114V173.78H226.714L227.034 173.7L228.034 174.54C226.334 175.52 224.054 176.34 221.834 176.88V177.4H229.954ZM244.094 177.02V164.08H250.414V165.46H245.574V177.02H244.094ZM252.854 181V179.48H256.114V168.54H253.514V167.38C254.814 167.14 255.754 166.8 256.554 166.34H257.954V179.48H260.894V181H252.854ZM267.408 181.26C265.127 181.26 263.728 180.3 262.748 179.32L263.648 178.12C264.488 178.96 265.548 179.74 267.248 179.74C268.968 179.74 270.368 178.42 270.368 176.28C270.368 174.18 269.168 172.94 267.327 172.94C266.348 172.94 265.728 173.24 264.888 173.8L263.908 173.2L264.368 166.34H271.508V167.9H265.968L265.608 172.14C266.248 171.78 266.908 171.56 267.788 171.56C270.228 171.56 272.208 173 272.208 176.22C272.208 179.44 269.888 181.26 267.408 181.26ZM278.841 181.26C276.041 181.26 274.261 178.72 274.261 173.62C274.261 168.52 276.041 166.06 278.841 166.06C281.621 166.06 283.401 168.54 283.401 173.62C283.401 178.72 281.621 181.26 278.841 181.26ZM278.841 179.8C280.501 179.8 281.621 177.94 281.621 173.62C281.621 169.34 280.501 167.54 278.841 167.54C277.161 167.54 276.041 169.34 276.041 173.62C276.041 177.94 277.161 179.8 278.841 179.8ZM291.295 170.24L290.635 169.98C290.935 169.12 291.315 167.72 291.495 166.8L292.375 167.12C292.015 168.16 291.635 169.44 291.295 170.24ZM287.435 167.06L288.175 166.86C288.535 167.82 288.795 169.08 288.855 169.88L288.055 170.1C288.015 169.28 287.775 168.02 287.435 167.06ZM287.155 166.08V170.88H289.315V166.08H287.155ZM292.635 170.88V166.08H290.335V170.88H292.635ZM285.495 177.54L285.415 176.26C286.455 176.22 287.735 176.14 289.155 176.08V174.52H285.855V173.34H289.155V171.96H285.995V165H293.835V171.96H290.495V173.34H293.955V174.52H290.495V176C291.715 175.94 292.995 175.86 294.275 175.78L294.235 176.98C291.055 177.22 287.795 177.42 285.495 177.54ZM286.095 182.52L285.095 181.98C285.875 181.16 286.255 179.72 286.415 178.34L287.475 178.62C287.275 180.1 286.975 181.64 286.095 182.52ZM288.115 178.4L289.075 178.3C289.395 179.38 289.615 180.82 289.615 181.74L288.595 181.88C288.595 180.94 288.395 179.52 288.115 178.4ZM290.015 178.3L290.955 178.1C291.415 179.1 291.855 180.42 291.995 181.3L290.975 181.52C290.875 180.64 290.455 179.32 290.015 178.3ZM291.915 178.04L292.835 177.66C293.535 178.58 294.255 179.82 294.555 180.64L293.555 181.08C293.275 180.24 292.575 178.96 291.915 178.04ZM301.335 180.22V175.08H296.295V180.22H301.335ZM303.535 170H299.275V173.7H302.735V182.42H301.335V181.56H296.295V182.5H294.935V173.7H297.815V164.3H299.275V168.6H303.535V170ZM306.375 181V166.34H308.235V179.42H314.635V181H306.375ZM317.215 181V166.34H319.075V181H317.215ZM323.074 181V166.34H324.994L330.334 175.58L331.894 178.6H331.994C331.894 177.12 331.754 175.48 331.754 173.96V166.34H333.514V181H331.614L326.274 171.74L324.694 168.72H324.614C324.694 170.2 324.834 171.76 324.834 173.3V181H323.074ZM337.508 181V166.34H345.968V167.9H339.368V172.5H344.928V174.08H339.368V179.42H346.188V181H337.508ZM353.738 181V166.34H357.918C361.218 166.34 363.418 167.44 363.418 170.64C363.418 173.74 361.218 175.18 358.018 175.18H355.598V181H353.738ZM355.598 173.68H357.778C360.358 173.68 361.578 172.74 361.578 170.64C361.578 168.52 360.278 167.84 357.698 167.84H355.598V173.68ZM371.795 181.26C368.115 181.26 365.535 178.32 365.535 173.62C365.535 168.92 368.115 166.06 371.795 166.06C375.475 166.06 378.055 168.92 378.055 173.62C378.055 178.32 375.475 181.26 371.795 181.26ZM371.795 179.64C374.415 179.64 376.155 177.28 376.155 173.62C376.155 169.94 374.415 167.68 371.795 167.68C369.155 167.68 367.435 169.94 367.435 173.62C367.435 177.28 369.155 179.64 371.795 179.64ZM381.219 181V166.34H383.079V181H381.219ZM387.078 181V166.34H388.998L394.338 175.58L395.898 178.6H395.998C395.898 177.12 395.758 175.48 395.758 173.96V166.34H397.518V181H395.618L390.278 171.74L388.698 168.72H388.618C388.698 170.2 388.838 171.76 388.838 173.3V181H387.078ZM404.572 181V167.9H400.132V166.34H410.872V167.9H406.432V181H404.572ZM416.685 181.26C414.605 181.26 412.825 180.42 411.545 179.08L412.645 177.82C413.705 178.92 415.185 179.64 416.705 179.64C418.625 179.64 419.785 178.68 419.785 177.24C419.785 175.74 418.725 175.26 417.345 174.64L415.225 173.72C413.865 173.14 412.245 172.1 412.245 169.96C412.245 167.7 414.205 166.06 416.865 166.06C418.605 166.06 420.145 166.8 421.185 167.88L420.205 169.06C419.305 168.22 418.225 167.68 416.865 167.68C415.205 167.68 414.125 168.52 414.125 169.84C414.125 171.26 415.405 171.8 416.545 172.28L418.645 173.18C420.345 173.92 421.665 174.92 421.665 177.1C421.665 179.42 419.745 181.26 416.685 181.26ZM429.219 169.96L426.539 170.12C426.219 171.74 425.839 173.34 425.499 174.64C426.259 175.22 427.059 175.84 427.819 176.5C428.919 174.22 429.179 171.9 429.219 169.96ZM431.779 169.8L430.639 169.88C430.579 172.12 430.279 174.82 428.959 177.46C429.959 178.34 430.859 179.18 431.459 179.88L430.499 181.12C429.939 180.44 429.119 179.62 428.199 178.76C427.319 180.1 426.099 181.4 424.479 182.58C424.259 182.26 423.739 181.78 423.439 181.56C425.079 180.4 426.259 179.1 427.099 177.78C426.039 176.84 424.899 175.92 423.879 175.14C424.279 173.84 424.699 172.06 425.099 170.2L423.519 170.28L423.359 168.86C423.939 168.84 424.619 168.8 425.359 168.78C425.639 167.26 425.859 165.68 425.999 164.32L427.459 164.4C427.299 165.74 427.059 167.24 426.799 168.72L429.239 168.58V167.12H430.639V168.5L431.799 168.44L431.779 169.8ZM441.659 172.7V174.12H437.259V180.76C437.259 181.64 437.039 182.06 436.419 182.3C435.799 182.52 434.839 182.56 433.279 182.54C433.199 182.12 432.959 181.54 432.739 181.12C433.919 181.16 435.019 181.16 435.319 181.14C435.639 181.14 435.759 181.04 435.759 180.76V174.12H431.139V172.7H435.759V170.42C436.779 169.58 437.859 168.28 438.679 167.12H432.019V165.74H439.699L440.039 165.66L441.059 166.4C440.079 167.88 438.659 169.56 437.259 170.78V172.7H441.659ZM459.579 168.3V166.92H457.719V168.3H459.579ZM459.579 170.66V169.24H457.719V170.66H459.579ZM452.099 169.24V170.66H453.899V169.24H452.099ZM452.099 166.92V168.3H453.899V166.92H452.099ZM456.679 169.24H454.939V170.66H456.679V169.24ZM454.939 168.3H456.679V166.92H454.939V168.3ZM460.879 165.92V171.66H450.859V165.92H453.739V164.28H454.939V165.92H456.679V164.28H457.899V165.92H460.879ZM461.479 172.64V173.78H450.199V172.64H461.479ZM452.739 175.8V177.52H458.939V175.8H452.739ZM460.239 178.52H451.479V174.8H460.239V178.52ZM447.939 166.86L446.779 167.64C446.499 166.92 445.799 165.84 445.139 165.06L446.219 164.36C446.919 165.12 447.619 166.16 447.939 166.86ZM450.219 175.3L449.279 176.5C448.919 175.94 448.179 174.94 447.539 174.1V182.52H446.179V174.52C445.439 175.36 444.679 176.1 443.919 176.68C443.799 176.26 443.479 175.52 443.259 175.26C445.139 173.9 447.079 171.5 448.199 169.06H443.659V167.7H448.919L449.179 167.64L449.979 168.18C449.439 169.68 448.659 171.16 447.759 172.48C448.459 173.24 449.859 174.86 450.219 175.3ZM458.159 180.98H461.659V182.14H449.759V180.98H453.439C453.219 180.38 452.959 179.64 452.679 179.04L453.839 178.72C454.179 179.42 454.539 180.34 454.759 180.98H456.899C457.279 180.28 457.679 179.34 457.899 178.68L459.259 179.04C458.879 179.72 458.499 180.4 458.159 180.98ZM470.919 166.66H466.239V169.26H470.919V166.66ZM466.239 173.36H470.919V170.6H466.239V173.36ZM468.879 176.32L470.139 175.72C471.159 177.34 472.359 179.5 472.919 180.82L471.579 181.56C471.359 181.02 471.039 180.3 470.659 179.56C465.619 181.34 464.959 181.62 464.539 181.94C464.439 181.52 464.159 180.8 463.919 180.42C464.259 180.26 464.759 179.92 464.759 179.16V165.32H472.379V174.7H466.239V179.62L470.059 178.38C469.659 177.66 469.239 176.94 468.879 176.32ZM480.759 165.44V176.88C480.759 177.72 480.579 178.14 480.039 178.38C479.499 178.64 478.599 178.66 477.139 178.64C477.079 178.24 476.919 177.64 476.699 177.22C477.739 177.26 478.659 177.26 478.919 177.24C479.199 177.24 479.299 177.16 479.299 176.88V166.84H475.679V182.54H474.219V165.44H480.759ZM501.159 166V167.3H483.879V166H491.899C491.699 165.48 491.439 164.88 491.199 164.42L492.679 164.12C492.999 164.68 493.339 165.42 493.559 166H501.159ZM487.859 169.68V171.48H497.259V169.68H487.859ZM498.799 172.58H486.399V168.58H498.799V172.58ZM501.399 177.4V178.7H493.279V181.02C493.279 181.84 493.039 182.18 492.339 182.4C491.659 182.58 490.499 182.58 488.719 182.58C488.639 182.18 488.399 181.7 488.219 181.34C489.559 181.38 490.919 181.38 491.259 181.36C491.639 181.34 491.739 181.26 491.739 180.98V178.7H483.699V177.4H491.739V176.2C493.079 175.92 494.559 175.5 495.799 175H485.559V173.78H498.159L498.479 173.7L499.479 174.54C497.779 175.52 495.499 176.34 493.279 176.88V177.4H501.399ZM507.699 174.88H516.959C516.039 174.18 515.239 173.36 514.619 172.48H510.139C509.439 173.34 508.639 174.14 507.699 174.88ZM521.279 172.48H516.299C517.659 173.98 519.739 175.2 521.939 175.78C521.599 176.06 521.199 176.64 520.979 177.02C519.879 176.68 518.819 176.14 517.839 175.52V175.54C517.579 179.58 517.299 181.16 516.739 181.74C516.379 182.14 515.999 182.26 515.419 182.32C514.859 182.36 513.819 182.36 512.739 182.28C512.719 181.86 512.539 181.28 512.299 180.88C513.359 181 514.379 181 514.759 181C515.119 181 515.319 180.96 515.499 180.8C515.859 180.44 516.099 179.22 516.319 176.24H511.479C510.939 179.22 509.579 181.36 505.359 182.52C505.199 182.14 504.819 181.56 504.499 181.26C508.279 180.34 509.459 178.62 509.959 176.24H506.859V175.52C506.039 176.06 505.179 176.56 504.219 177C504.079 176.64 503.619 176.06 503.279 175.78C505.279 174.92 506.899 173.76 508.159 172.48H503.859V171.14H509.319C509.839 170.48 510.259 169.8 510.639 169.1H505.079V167.78H508.399C508.079 167.1 507.399 166.06 506.779 165.32L507.959 164.72C508.619 165.48 509.359 166.52 509.699 167.22L508.619 167.78H511.239C511.719 166.6 512.019 165.38 512.179 164.22L513.739 164.38C513.539 165.52 513.239 166.66 512.839 167.78H515.219C515.879 166.94 516.699 165.66 517.139 164.78L518.499 165.24C517.959 166.12 517.319 167.04 516.699 167.78H519.919V169.1H512.279C511.939 169.8 511.579 170.48 511.119 171.14H521.279V172.48ZM529.539 169.78V182.72H523.219V181.34H528.059V169.78H529.539ZM549.879 172.92L550.079 174.26L547.639 175.02V180.82C547.639 181.64 547.439 182.04 546.919 182.28C546.419 182.5 545.619 182.54 544.299 182.54C544.239 182.16 544.039 181.58 543.839 181.18C544.739 181.2 545.579 181.2 545.819 181.2C546.099 181.2 546.199 181.1 546.199 180.82V175.46L543.579 176.28L543.179 174.84C544.019 174.62 545.059 174.32 546.199 173.98V169.66H543.439V168.28H546.199V164.28H547.639V168.28H549.859V169.66H547.639V173.6C548.379 173.38 549.119 173.14 549.879 172.92ZM556.539 179.64H559.839V175.56H556.539V179.64ZM551.979 175.56V179.64H555.119V175.56H551.979ZM555.119 170.26H551.979V174.16H555.119V170.26ZM559.839 170.26H556.539V174.16H559.839V170.26ZM556.539 168.84H561.299V182.34H559.839V181.06H551.979V182.48H550.559V168.84H555.119V164.3H556.539V168.84ZM578.819 166.22H574.759C575.439 166.74 576.099 167.34 576.599 167.92C577.479 167.44 578.219 166.9 578.819 166.22ZM579.859 165.24L580.639 165.68C578.859 168.74 574.779 170.06 570.639 170.64C570.519 170.34 570.259 169.94 570.019 169.7C571.999 169.48 573.939 169.06 575.639 168.36C575.119 167.76 574.399 167.06 573.699 166.52C572.879 166.88 572.019 167.2 571.039 167.5C570.859 167.22 570.479 166.82 570.219 166.64C572.659 166 574.539 165.12 575.599 164.22L576.899 164.5C576.599 164.78 576.259 165.04 575.879 165.3H579.599L579.859 165.24ZM574.099 167.66L574.119 168.48C572.899 168.6 571.799 168.68 570.779 168.76L570.619 167.88C571.599 167.82 572.759 167.74 574.099 167.66ZM566.379 171.6V171.82C566.379 172.84 566.059 174.62 564.679 175.74C564.419 175.54 563.859 175.24 563.539 175.08C564.799 174.1 565.039 172.62 565.039 171.78V171.6H563.599V170.38H567.979V168.86H564.539V164.76H565.819V167.66H567.979V164.32H569.359V175.58H567.979V171.6H566.379ZM581.639 178.22H574.059C576.559 179.14 579.919 180.48 581.719 181.34L580.999 182.52C579.239 181.62 575.699 180.12 573.099 179.12L573.719 178.22H572.779C571.999 179.88 569.839 181.62 564.199 182.58C564.039 182.24 563.679 181.7 563.359 181.38C567.979 180.62 570.079 179.4 571.039 178.22H563.519V176.96H571.639C571.699 176.68 571.719 176.44 571.719 176.2V174.98H573.179V176.24C573.179 176.48 573.159 176.7 573.139 176.96H577.219C576.779 176.54 576.139 176.04 575.619 175.66L576.219 175.12H575.519C575.459 174.76 575.279 174.32 575.099 173.96C576.019 174 576.819 174 577.039 174C577.299 173.98 577.359 173.92 577.359 173.7V171.72H572.699C573.499 172.2 574.379 172.92 574.819 173.48L573.839 174.28C573.419 173.7 572.479 172.9 571.679 172.38L572.519 171.72H570.139V170.66H577.359V169.2H578.779V170.66H581.299V171.72H578.779V173.74C578.779 174.44 578.639 174.74 578.099 174.94C577.759 175.06 577.239 175.1 576.539 175.12C577.159 175.54 577.939 176.12 578.319 176.52L577.899 176.96H581.639V178.22ZM601.399 172.74L600.439 173.08C600.379 172.84 600.299 172.52 600.179 172.18C597.279 172.64 596.799 172.74 596.559 172.88C596.479 172.64 596.299 172.02 596.159 171.72C596.479 171.66 596.779 171.32 597.159 170.84C597.379 170.58 597.839 169.92 598.359 169.06C596.879 169.26 596.539 169.36 596.339 169.46C596.279 169.2 596.099 168.66 595.959 168.34C596.199 168.32 596.419 168.06 596.659 167.68C596.879 167.34 597.699 165.88 598.099 164.54L599.219 164.88C598.719 166.06 598.099 167.24 597.479 168.16L598.939 168C599.199 167.56 599.439 167.08 599.639 166.62L600.779 167.04C599.919 168.68 598.879 170.26 597.859 171.52L599.859 171.24C599.699 170.84 599.539 170.42 599.379 170.04L600.279 169.78C600.719 170.72 601.199 172 601.399 172.74ZM594.199 173.08L593.219 173.42C593.159 173.18 593.079 172.9 592.999 172.58C590.139 173.02 589.679 173.1 589.399 173.26C589.359 173.02 589.199 172.44 589.059 172.14C589.339 172.08 589.679 171.74 590.079 171.24C590.279 171 590.799 170.3 591.359 169.44C589.799 169.66 589.419 169.76 589.219 169.86C589.179 169.62 588.999 169.04 588.879 168.76C589.119 168.7 589.359 168.44 589.619 168.02C589.899 167.62 590.799 166.08 591.299 164.58L592.419 164.94C591.859 166.24 591.139 167.56 590.419 168.56L591.999 168.4C592.239 167.96 592.479 167.52 592.679 167.06L593.759 167.48C592.879 169.08 591.819 170.66 590.759 171.9L592.699 171.64C592.559 171.2 592.399 170.78 592.239 170.38L593.179 170.12C593.599 171.08 594.039 172.34 594.199 173.08ZM588.779 173.84L588.059 174.94C587.859 174.4 587.419 173.46 586.999 172.62V182.52H585.699V173C585.199 175.06 584.519 177.02 583.819 178.24C583.699 177.82 583.359 177.16 583.179 176.8C584.139 175.18 585.099 172.12 585.579 169.5H583.579V168.1H585.699V164.26H586.999V168.1H588.579V169.5H586.999V170.8C587.439 171.5 588.519 173.36 588.779 173.84ZM599.019 175.96L600.299 176.42C599.679 177.62 598.859 178.68 597.839 179.62C598.419 180.5 599.119 180.98 599.919 181.06C600.339 181.1 600.599 180.34 600.759 178.9C600.999 179.18 601.499 179.52 601.759 179.66C601.379 181.84 600.759 182.58 599.959 182.52C598.659 182.44 597.619 181.72 596.799 180.48C595.759 181.24 594.579 181.9 593.299 182.42C593.139 182.16 592.779 181.72 592.499 181.48C593.879 180.94 595.159 180.24 596.219 179.4C595.759 178.38 595.379 177.14 595.059 175.74H591.799V176.04C591.799 176.18 591.799 176.34 591.779 176.5C592.739 177.24 593.939 178.26 594.539 178.88L593.619 179.78C593.159 179.3 592.379 178.56 591.599 177.9C591.259 179.5 590.419 181.22 588.659 182.56C588.459 182.28 587.959 181.82 587.679 181.66C590.019 179.94 590.519 177.7 590.519 176.02V175.74H588.999V174.54H594.839C594.359 171.7 594.099 168.24 593.979 164.42H595.259C595.359 168.32 595.639 171.8 596.139 174.54H598.999C598.519 174.12 597.799 173.62 597.219 173.26L597.979 172.56C598.679 172.96 599.599 173.58 600.059 174L599.539 174.54H601.199V175.74H596.379C596.639 176.8 596.899 177.72 597.239 178.48C597.979 177.72 598.599 176.86 599.019 175.96ZM616.759 177H608.479V178.36H616.759V177ZM608.479 180.78H616.759V179.42H608.479V180.78ZM607.019 182.5V175.94H618.259V182.44H616.759V181.84H608.479V182.5H607.019ZM615.399 173.9L614.399 173.54C614.759 172.88 615.279 171.82 615.499 171.14L616.759 171.54C616.319 172.4 615.819 173.3 615.399 173.9ZM608.339 171.56L609.399 171.22C609.919 171.92 610.419 172.84 610.599 173.48L609.459 173.9C609.299 173.26 608.839 172.3 608.339 171.56ZM607.139 171V173.98H611.859V171H607.139ZM617.879 173.98V171H613.119V173.98H617.879ZM605.859 175V169.96H619.219V175H605.859ZM610.039 167.9H615.259C614.299 167.3 613.379 166.62 612.619 165.9C611.859 166.64 610.979 167.32 610.039 167.9ZM612.419 164.2L613.719 164.68C613.619 164.8 613.519 164.94 613.439 165.06C615.299 166.88 618.759 168.48 621.879 169.22C621.579 169.48 621.159 170 620.939 170.36C619.319 169.9 617.599 169.22 616.039 168.36V168.98H609.119V168.44C607.579 169.28 605.879 169.96 604.219 170.48C604.059 170.22 603.639 169.62 603.379 169.34C606.999 168.38 610.539 166.62 612.419 164.2ZM628.519 180.22H637.799C639.219 180.22 639.579 179.5 639.719 176.1C640.139 176.34 640.799 176.56 641.239 176.66C640.959 180.78 640.159 181.72 637.659 181.72H628.679C625.779 181.72 624.399 180.68 624.399 178.96C624.399 177.48 624.899 175.96 635.199 167.42H624.519V165.92H637.299L637.659 165.82L638.699 166.56C638.639 166.64 638.539 166.72 638.399 166.78C626.659 176.32 625.979 177.78 625.979 178.84C625.979 179.8 626.979 180.22 628.519 180.22ZM659.239 169.14H651.999C651.379 170.76 650.699 172.2 649.899 173.34C649.579 173.08 648.839 172.68 648.439 172.5C649.959 170.56 651.059 167.44 651.659 164.28L653.259 164.58C653.059 165.64 652.779 166.68 652.479 167.68H659.719L659.999 167.6L661.099 168.18C660.579 170.12 659.699 172.22 658.999 173.6C658.679 173.42 658.119 173.12 657.759 172.96C658.239 172.02 658.839 170.52 659.239 169.14ZM649.279 167.4V168.84H644.039V167.4H649.279ZM649.879 175.6V177.06H643.599V175.6H649.879ZM655.199 169.98V171.54C655.199 171.84 655.199 172.14 655.179 172.42C656.099 176.64 658.079 179.84 661.719 181.1C661.419 181.4 660.959 181.98 660.739 182.4C657.739 181.18 655.879 178.8 654.739 175.58C654.039 178.02 652.399 180.58 648.579 182.58C648.339 182.24 647.799 181.68 647.459 181.42C653.199 178.52 653.639 174.36 653.639 171.5V169.98H655.199ZM680.419 182.92C678.019 180.48 676.439 177.3 676.439 173.4C676.439 169.5 678.019 166.32 680.419 163.88L681.619 164.5C679.319 166.88 677.899 169.84 677.899 173.4C677.899 176.96 679.319 179.92 681.619 182.3L680.419 182.92ZM689.159 177.24L690.699 177.84C689.279 179.56 687.019 181.4 685.019 182.56C684.739 182.26 684.199 181.78 683.839 181.5C685.799 180.48 688.039 178.74 689.159 177.24ZM694.279 177.98L695.559 177.22C697.399 178.52 699.879 180.44 701.139 181.62L699.739 182.54C698.559 181.36 696.159 179.38 694.279 177.98ZM689.699 169.92V174.64H695.379V169.92H689.699ZM696.899 174.64H701.579V176.08H683.599V174.64H688.199V169.92H684.399V168.48H688.199V164.44H689.699V168.48H695.379V164.44H696.899V168.48H700.859V169.92H696.899V174.64ZM709.879 172.92L710.079 174.26L707.639 175.02V180.82C707.639 181.64 707.439 182.04 706.919 182.28C706.419 182.5 705.619 182.54 704.299 182.54C704.239 182.16 704.039 181.58 703.839 181.18C704.739 181.2 705.579 181.2 705.819 181.2C706.099 181.2 706.199 181.1 706.199 180.82V175.46L703.579 176.28L703.179 174.84C704.019 174.62 705.059 174.32 706.199 173.98V169.66H703.439V168.28H706.199V164.28H707.639V168.28H709.859V169.66H707.639V173.6C708.379 173.38 709.119 173.14 709.879 172.92ZM716.539 179.64H719.839V175.56H716.539V179.64ZM711.979 175.56V179.64H715.119V175.56H711.979ZM715.119 170.26H711.979V174.16H715.119V170.26ZM719.839 170.26H716.539V174.16H719.839V170.26ZM716.539 168.84H721.299V182.34H719.839V181.06H711.979V182.48H710.559V168.84H715.119V164.3H716.539V168.84ZM723.419 181V179.92C728.019 175.9 730.139 172.98 730.139 170.46C730.139 168.78 729.259 167.56 727.439 167.56C726.239 167.56 725.199 168.3 724.399 169.26L723.339 168.22C724.539 166.92 725.799 166.06 727.659 166.06C730.279 166.06 731.919 167.78 731.919 170.4C731.919 173.32 729.619 176.3 726.179 179.56C726.939 179.5 727.839 179.42 728.579 179.42H732.639V181H723.419ZM739.193 181.26C736.393 181.26 734.613 178.72 734.613 173.62C734.613 168.52 736.393 166.06 739.193 166.06C741.973 166.06 743.753 168.54 743.753 173.62C743.753 178.72 741.973 181.26 739.193 181.26ZM739.193 179.8C740.853 179.8 741.973 177.94 741.973 173.62C741.973 169.34 740.853 167.54 739.193 167.54C737.513 167.54 736.393 169.34 736.393 173.62C736.393 177.94 737.513 179.8 739.193 179.8ZM750.287 181.26C747.487 181.26 745.707 178.72 745.707 173.62C745.707 168.52 747.487 166.06 750.287 166.06C753.067 166.06 754.847 168.54 754.847 173.62C754.847 178.72 753.067 181.26 750.287 181.26ZM750.287 179.8C751.947 179.8 753.067 177.94 753.067 173.62C753.067 169.34 751.947 167.54 750.287 167.54C748.607 167.54 747.487 169.34 747.487 173.62C747.487 177.94 748.607 179.8 750.287 179.8ZM762.36 180.12H771.24V175.58H762.36V180.12ZM770.46 167.62H763.06C762.64 168.04 762.18 168.42 761.72 168.82C763.08 169.78 764.76 171.04 765.74 171.98C767.66 170.78 769.32 169.3 770.46 167.62ZM772.76 174.2V182.52H771.24V181.48H762.36V182.52H760.9V175.94C759.8 176.32 758.68 176.64 757.58 176.9C757.46 176.5 757.12 175.86 756.82 175.54C759.36 175.02 762 174.08 764.36 172.8C763.4 171.84 761.88 170.64 760.56 169.66C759.86 170.14 759.12 170.6 758.32 171C758.1 170.66 757.62 170.1 757.3 169.88C760.52 168.32 762.78 166.1 763.98 164.2L765.64 164.56C765.26 165.12 764.84 165.7 764.34 166.26H771.42L771.66 166.18L772.66 166.8C771.02 169.98 768.14 172.44 764.82 174.2H772.76ZM777.94 163.88C780.34 166.32 781.92 169.5 781.92 173.4C781.92 177.3 780.34 180.48 777.94 182.92L776.74 182.3C779.04 179.92 780.46 176.96 780.46 173.4C780.46 169.84 779.04 166.88 776.74 164.5L777.94 163.88ZM802.84 173.42C802.84 171.74 804.22 170.38 805.88 170.38C807.56 170.38 808.92 171.74 808.92 173.42C808.92 175.1 807.56 176.46 805.88 176.46C804.22 176.46 802.84 175.1 802.84 173.42ZM803.86 173.42C803.86 174.54 804.78 175.44 805.88 175.44C807 175.44 807.9 174.54 807.9 173.42C807.9 172.3 807 171.4 805.88 171.4C804.78 171.4 803.86 172.3 803.86 173.42Z" fill="black"/>
<path d="M53.4 220.26L54.28 219.36C55.52 219.98 57.08 220.94 57.86 221.64L56.94 222.66C56.18 221.96 54.66 220.94 53.4 220.26ZM56.24 225.66L57.74 226.04C56.88 228.62 55.7 230.9 54.22 232.8C54.96 234.76 55.88 235.9 56.9 235.9C57.46 235.9 57.7 234.86 57.84 232.2C58.18 232.54 58.72 232.88 59.12 233C58.84 236.4 58.3 237.38 56.78 237.38C55.24 237.38 54.04 236.16 53.12 234.1C51.92 235.4 50.54 236.52 49 237.42C48.78 237.12 48.26 236.52 47.92 236.24C49.7 235.28 51.24 234.04 52.52 232.54C51.8 230.28 51.32 227.34 51.06 224.12H44.16V226.72H49.26V227.36C49.16 231.84 49.04 233.52 48.62 234.04C48.32 234.42 47.98 234.56 47.42 234.62C46.92 234.66 46.02 234.66 45.04 234.62C45.02 234.16 44.86 233.6 44.62 233.22C45.54 233.3 46.4 233.32 46.74 233.32C47.02 233.32 47.22 233.28 47.34 233.1C47.62 232.8 47.72 231.54 47.8 228.1H44.16V228.26C44.16 231.06 43.86 235.08 42.06 237.68C41.8 237.38 41.16 236.86 40.82 236.68C42.46 234.24 42.64 230.82 42.64 228.24V222.66H50.98C50.9 221.56 50.88 220.44 50.86 219.3H52.4C52.4 220.46 52.42 221.58 52.48 222.66H58.94V224.12H52.58C52.78 226.78 53.14 229.16 53.68 231.06C54.76 229.48 55.62 227.68 56.24 225.66ZM68.68 230.3L68.86 231.68C66.16 232.48 63.3 233.28 61.2 233.86L60.82 232.34C61.7 232.14 62.8 231.86 64.02 231.56V223.04H61.1V221.62H68.38V223.04H65.48V231.16C66.52 230.88 67.62 230.58 68.68 230.3ZM73.34 223.8H78.74C78.74 223.8 78.74 224.36 78.72 224.56C78.4 232.76 78.14 235.62 77.38 236.54C76.94 237.08 76.54 237.24 75.84 237.32C75.2 237.38 74.02 237.36 72.9 237.28C72.88 236.86 72.7 236.24 72.44 235.82C73.66 235.94 74.8 235.94 75.24 235.94C75.62 235.94 75.86 235.88 76.08 235.64C76.64 235 76.96 232.32 77.26 225.24H73.26C72.94 230.54 71.78 235 67.22 237.56C67.02 237.18 66.52 236.64 66.16 236.38C70.4 234.12 71.5 230.08 71.8 225.24H68.52V223.8H71.86C71.9 222.46 71.92 221.06 71.92 219.6H73.4C73.4 221.04 73.38 222.44 73.34 223.8ZM87.5 224.18V225.4H90.8V224.18H87.5ZM87.5 222.02V223.2H90.8V222.02H87.5ZM90.82 230.96H88.66C88.32 232.42 87.72 233.58 86.58 234.4C86.42 234.12 86.04 233.7 85.78 233.52C87.14 232.54 87.58 230.82 87.7 228.8H85.56V227.72H88.66C88.48 227.38 88.28 227.06 88.08 226.76L89.02 226.4H86.28V221.02H88.32C88.5 220.44 88.68 219.76 88.74 219.28L90.24 219.48C90.04 220 89.82 220.52 89.6 221.02H92.08V226.3C93.14 224.54 93.82 221.96 94.24 219.38L95.5 219.56C95.34 220.54 95.14 221.52 94.9 222.42H98.94V223.7H98.1C97.82 225.94 97.36 227.92 96.7 229.58C97.6 231 98.42 232.42 98.92 233.48L97.82 234.02C97.4 233.14 96.82 232.02 96.12 230.84C95.24 232.56 94.02 233.92 92.4 235C92.24 234.74 91.78 234.26 91.48 234.02C93.28 232.94 94.48 231.48 95.34 229.58C94.74 228.6 94.1 227.64 93.5 226.78L94.54 226.32C94.98 226.94 95.42 227.58 95.86 228.26C96.3 226.92 96.6 225.38 96.8 223.7H94.54C94.12 225.12 93.56 226.42 92.94 227.44C92.7 227.24 92.18 226.84 91.86 226.66L92.02 226.4H89.3C89.58 226.8 89.9 227.3 90.1 227.72H92.84V228.8H88.96C88.94 229.16 88.9 229.54 88.84 229.88H92.1C92.1 229.88 92.1 230.2 92.08 230.38C91.98 232.56 91.86 233.44 91.56 233.78C91.34 234.04 91.06 234.16 90.64 234.18C90.36 234.2 89.78 234.22 89.24 234.18C89.2 233.86 89.1 233.42 88.94 233.14C89.48 233.2 89.92 233.2 90.12 233.2C90.3 233.2 90.4 233.18 90.52 233.06C90.66 232.88 90.74 232.34 90.82 230.96ZM84.2 222.64L82.94 223.04C82.74 222.2 82.3 220.82 81.98 219.78L83.2 219.44C83.54 220.48 83.96 221.78 84.2 222.64ZM84.5 228.54L85.12 228.78C84.82 230.54 84.34 232.52 83.74 234.02C84.14 234.22 84.62 234.64 85.44 235.12C86.88 235.96 88.74 236.1 91.12 236.1C93.8 236.1 97.06 235.92 99.34 235.68C99.18 236.06 98.92 236.76 98.9 237.16C97.42 237.26 93.52 237.4 91.08 237.4C88.42 237.4 86.64 237.18 85.12 236.3C84.3 235.8 83.56 235.14 83.1 235.14C82.72 235.14 82.12 236.4 81.66 237.64L80.66 236.36C81.28 235.38 81.88 234.56 82.44 234.14C82.96 232.96 83.4 231.36 83.68 229.9H81.52C81.98 228.7 82.56 226.98 83.02 225.38H81V224.1H84.7C84.26 225.54 83.74 227.22 83.26 228.6H84.28L84.5 228.54ZM105.6 221.94L104.32 222.4C104.14 221.68 103.68 220.54 103.32 219.7L104.56 219.32C104.98 220.14 105.42 221.24 105.6 221.94ZM105.88 231.8H102.82V235.14H105.88V231.8ZM107.2 230.58V236.36H102.82V237.28H101.52V230.58H107.2ZM101.44 229.02V227.84H107.26V229.02H101.44ZM107.24 225.14V226.32H101.42V225.14H107.24ZM100.96 223.84V222.62H107.82V223.84H100.96ZM110.52 233.22H116.58V231.74H110.58C110.58 232.2 110.56 232.7 110.52 233.22ZM116.58 229.2H110.58V230.68H116.58V229.2ZM117.98 228.02V235.98C117.98 236.7 117.84 237.06 117.3 237.28C116.8 237.5 115.98 237.5 114.72 237.5C114.66 237.12 114.5 236.62 114.3 236.26C115.2 236.3 116.02 236.3 116.26 236.28C116.52 236.28 116.58 236.2 116.58 235.98V234.28H110.38C110.16 235.54 109.76 236.8 108.94 237.78C108.72 237.5 108.2 236.96 107.9 236.8C109.08 235.3 109.22 233.28 109.22 231.7V228.02H117.98ZM114.22 225.7H119.14V226.84H108.04V225.7H112.76V224.34H108.76V223.26H112.76V222.04H108.26V220.9H112.76V219.28H114.22V220.9H118.94V222.04H114.22V223.26H118.56V224.34H114.22V225.7ZM125.28 236.26C122.98 236.26 121.54 235.3 120.58 234.26L121.5 233.06C122.36 233.96 123.48 234.74 125.14 234.74C126.88 234.74 128.12 233.7 128.12 232.02C128.12 230.26 126.94 229.08 123.56 229.08V227.68C126.58 227.68 127.62 226.46 127.62 224.88C127.62 223.46 126.66 222.56 125.14 222.52C123.96 222.56 122.92 223.16 122.1 223.98L121.12 222.82C122.22 221.8 123.52 221.06 125.22 221.06C127.68 221.06 129.48 222.38 129.48 224.74C129.48 226.52 128.42 227.7 126.86 228.28V228.36C128.6 228.76 129.98 230.08 129.98 232.08C129.98 234.7 127.88 236.26 125.28 236.26ZM140.974 221.62H135.114C134.494 222.48 133.774 223.26 133.054 223.86C132.854 223.6 132.334 223.12 132.014 222.86C133.254 221.94 134.414 220.54 135.074 219.12L136.394 219.5C136.234 219.82 136.074 220.12 135.894 220.44H140.974V221.62ZM136.094 222.34L137.074 221.66C137.674 222.22 138.454 223.02 138.814 223.52L137.814 224.3C137.434 223.78 136.694 222.96 136.094 222.34ZM146.454 229.52V228.22H141.774V229.52H146.454ZM141.774 225.92V227.08H146.454V225.92H141.774ZM147.934 224.8V227.08H150.074V228.22H147.934V230.64H141.774V231.82H148.454V232.98H141.774V234.24H149.754V235.42H141.774V237.54H140.294V235.42H132.494V234.24H140.294V232.98H133.774V231.82H140.294V230.64H134.374V229.52H140.294V228.22H132.154V227.08H140.294V225.92H134.534V224.8H140.294V223.7H141.774V224.8H147.934ZM147.554 223.48L146.494 224.28C146.134 223.74 145.394 222.94 144.754 222.34L145.794 221.66C146.394 222.2 147.174 222.98 147.554 223.48ZM143.934 220.46H150.154V221.64H143.194C142.674 222.36 142.074 223.02 141.474 223.52C141.234 223.28 140.674 222.84 140.354 222.62C141.474 221.78 142.474 220.48 143.034 219.12L144.414 219.48C144.274 219.82 144.114 220.14 143.934 220.46ZM162.894 226.52L161.494 227.28C160.954 225.9 159.674 223.86 158.414 222.4L159.734 221.74C161.054 223.2 162.334 225.16 162.894 226.52ZM160.054 230.4L160.394 231.82C157.634 233.08 154.614 234.4 152.414 235.36L151.874 233.82C152.654 233.52 153.594 233.14 154.634 232.7L154.294 220.34L155.814 220.28L156.114 232.08C157.394 231.54 158.734 230.96 160.054 230.4ZM170.434 236.32L169.194 237.46C168.274 236.08 166.414 233.98 164.714 232.18C163.154 234.54 160.974 236.28 157.854 237.58C157.654 237.28 157.034 236.6 156.674 236.3C163.534 233.78 165.654 228.94 166.534 220.3L168.154 220.46C167.674 224.74 166.914 228.14 165.514 230.82C167.294 232.62 169.414 234.84 170.434 236.32ZM181.214 235.1H190.014V236.58H172.194V235.1H179.654V219.58H181.214V225.7H188.654V227.18H181.214V235.1ZM196.654 219.32L198.054 219.74C197.474 221.2 196.754 222.66 195.954 224V237.48H194.534V226.16C193.874 227.08 193.154 227.92 192.454 228.64C192.294 228.32 191.874 227.54 191.614 227.2C193.594 225.3 195.514 222.34 196.654 219.32ZM200.314 231.24L201.634 231.66C200.694 233.34 199.374 235.28 198.254 236.56C197.994 236.32 197.414 235.9 197.094 235.7C198.234 234.54 199.474 232.78 200.314 231.24ZM200.114 221.54V225.2H207.534V221.54H200.114ZM210.174 230.26H204.514V237.54H203.034V230.26H197.254V228.9H203.034V226.52H198.714V220.2H209.014V226.52H204.514V228.9H210.174V230.26ZM205.634 231.84L206.774 231.22C208.054 232.64 209.514 234.5 210.234 235.7L209.034 236.44C208.354 235.22 206.894 233.26 205.634 231.84ZM227.154 222.92V221.04H223.294V222.92H227.154ZM228.534 220.04V223.92H221.934V220.04H228.534ZM218.934 222.92V221.04H215.114V222.92H218.934ZM220.334 220.04V223.92H213.774V220.04H220.334ZM215.754 230.68H220.274V228.96H215.754V230.68ZM215.754 226.12V227.82H220.274V226.12H215.754ZM226.554 227.82V226.12H221.794V227.82H226.554ZM226.554 230.68V228.96H221.794V230.68H226.554ZM229.914 233.4V234.7H221.794V237.52H220.274V234.7H212.314V233.4H220.274V231.88H214.314V224.92H228.074V231.88H221.794V233.4H229.914ZM239.454 232.24L239.014 231.18C240.554 230.54 241.434 229.6 241.534 228.24C241.414 228.26 241.314 228.26 241.194 228.26C240.374 228.26 239.694 227.78 239.694 226.84C239.694 225.9 240.394 225.4 241.214 225.4C242.314 225.4 242.914 226.3 242.914 227.7C242.914 229.86 241.554 231.5 239.454 232.24ZM269.714 221V222.3H252.434V221H260.454C260.254 220.48 259.994 219.88 259.754 219.42L261.234 219.12C261.554 219.68 261.894 220.42 262.114 221H269.714ZM256.414 224.68V226.48H265.814V224.68H256.414ZM267.354 227.58H254.954V223.58H267.354V227.58ZM269.954 232.4V233.7H261.834V236.02C261.834 236.84 261.594 237.18 260.894 237.4C260.214 237.58 259.054 237.58 257.274 237.58C257.194 237.18 256.954 236.7 256.774 236.34C258.114 236.38 259.474 236.38 259.814 236.36C260.194 236.34 260.294 236.26 260.294 235.98V233.7H252.254V232.4H260.294V231.2C261.634 230.92 263.114 230.5 264.354 230H254.114V228.78H266.714L267.034 228.7L268.034 229.54C266.334 230.52 264.054 231.34 261.834 231.88V232.4H269.954ZM284.094 232.02V219.08H290.414V220.46H285.574V232.02H284.094ZM296.374 236.26C294.074 236.26 292.634 235.3 291.674 234.26L292.594 233.06C293.454 233.96 294.574 234.74 296.234 234.74C297.974 234.74 299.214 233.7 299.214 232.02C299.214 230.26 298.034 229.08 294.654 229.08V227.68C297.674 227.68 298.714 226.46 298.714 224.88C298.714 223.46 297.754 222.56 296.234 222.52C295.054 222.56 294.014 223.16 293.194 223.98L292.214 222.82C293.314 221.8 294.614 221.06 296.314 221.06C298.774 221.06 300.574 222.38 300.574 224.74C300.574 226.52 299.514 227.7 297.954 228.28V228.36C299.694 228.76 301.074 230.08 301.074 232.08C301.074 234.7 298.974 236.26 296.374 236.26ZM307.748 236.26C304.948 236.26 303.168 233.72 303.168 228.62C303.168 223.52 304.948 221.06 307.748 221.06C310.528 221.06 312.308 223.54 312.308 228.62C312.308 233.72 310.528 236.26 307.748 236.26ZM307.748 234.8C309.408 234.8 310.528 232.94 310.528 228.62C310.528 224.34 309.408 222.54 307.748 222.54C306.068 222.54 304.948 224.34 304.948 228.62C304.948 232.94 306.068 234.8 307.748 234.8ZM318.841 236.26C316.041 236.26 314.261 233.72 314.261 228.62C314.261 223.52 316.041 221.06 318.841 221.06C321.621 221.06 323.401 223.54 323.401 228.62C323.401 233.72 321.621 236.26 318.841 236.26ZM318.841 234.8C320.501 234.8 321.621 232.94 321.621 228.62C321.621 224.34 320.501 222.54 318.841 222.54C317.161 222.54 316.041 224.34 316.041 228.62C316.041 232.94 317.161 234.8 318.841 234.8ZM331.295 225.24L330.635 224.98C330.935 224.12 331.315 222.72 331.495 221.8L332.375 222.12C332.015 223.16 331.635 224.44 331.295 225.24ZM327.435 222.06L328.175 221.86C328.535 222.82 328.795 224.08 328.855 224.88L328.055 225.1C328.015 224.28 327.775 223.02 327.435 222.06ZM327.155 221.08V225.88H329.315V221.08H327.155ZM332.635 225.88V221.08H330.335V225.88H332.635ZM325.495 232.54L325.415 231.26C326.455 231.22 327.735 231.14 329.155 231.08V229.52H325.855V228.34H329.155V226.96H325.995V220H333.835V226.96H330.495V228.34H333.955V229.52H330.495V231C331.715 230.94 332.995 230.86 334.275 230.78L334.235 231.98C331.055 232.22 327.795 232.42 325.495 232.54ZM326.095 237.52L325.095 236.98C325.875 236.16 326.255 234.72 326.415 233.34L327.475 233.62C327.275 235.1 326.975 236.64 326.095 237.52ZM328.115 233.4L329.075 233.3C329.395 234.38 329.615 235.82 329.615 236.74L328.595 236.88C328.595 235.94 328.395 234.52 328.115 233.4ZM330.015 233.3L330.955 233.1C331.415 234.1 331.855 235.42 331.995 236.3L330.975 236.52C330.875 235.64 330.455 234.32 330.015 233.3ZM331.915 233.04L332.835 232.66C333.535 233.58 334.255 234.82 334.555 235.64L333.555 236.08C333.275 235.24 332.575 233.96 331.915 233.04ZM341.335 235.22V230.08H336.295V235.22H341.335ZM343.535 225H339.275V228.7H342.735V237.42H341.335V236.56H336.295V237.5H334.935V228.7H337.815V219.3H339.275V223.6H343.535V225ZM346.375 236V221.34H348.235V234.42H354.635V236H346.375ZM357.215 236V221.34H359.075V236H357.215ZM363.074 236V221.34H364.994L370.334 230.58L371.894 233.6H371.994C371.894 232.12 371.754 230.48 371.754 228.96V221.34H373.514V236H371.614L366.274 226.74L364.694 223.72H364.614C364.694 225.2 364.834 226.76 364.834 228.3V236H363.074ZM377.508 236V221.34H385.968V222.9H379.368V227.5H384.928V229.08H379.368V234.42H386.188V236H377.508ZM393.738 236V221.34H397.918C401.218 221.34 403.418 222.44 403.418 225.64C403.418 228.74 401.218 230.18 398.018 230.18H395.598V236H393.738ZM395.598 228.68H397.778C400.358 228.68 401.578 227.74 401.578 225.64C401.578 223.52 400.278 222.84 397.698 222.84H395.598V228.68ZM411.795 236.26C408.115 236.26 405.535 233.32 405.535 228.62C405.535 223.92 408.115 221.06 411.795 221.06C415.475 221.06 418.055 223.92 418.055 228.62C418.055 233.32 415.475 236.26 411.795 236.26ZM411.795 234.64C414.415 234.64 416.155 232.28 416.155 228.62C416.155 224.94 414.415 222.68 411.795 222.68C409.155 222.68 407.435 224.94 407.435 228.62C407.435 232.28 409.155 234.64 411.795 234.64ZM421.219 236V221.34H423.079V236H421.219ZM427.078 236V221.34H428.998L434.338 230.58L435.898 233.6H435.998C435.898 232.12 435.758 230.48 435.758 228.96V221.34H437.518V236H435.618L430.278 226.74L428.698 223.72H428.618C428.698 225.2 428.838 226.76 428.838 228.3V236H427.078ZM444.572 236V222.9H440.132V221.34H450.872V222.9H446.432V236H444.572ZM456.685 236.26C454.605 236.26 452.825 235.42 451.545 234.08L452.645 232.82C453.705 233.92 455.185 234.64 456.705 234.64C458.625 234.64 459.785 233.68 459.785 232.24C459.785 230.74 458.725 230.26 457.345 229.64L455.225 228.72C453.865 228.14 452.245 227.1 452.245 224.96C452.245 222.7 454.205 221.06 456.865 221.06C458.605 221.06 460.145 221.8 461.185 222.88L460.205 224.06C459.305 223.22 458.225 222.68 456.865 222.68C455.205 222.68 454.125 223.52 454.125 224.84C454.125 226.26 455.405 226.8 456.545 227.28L458.645 228.18C460.345 228.92 461.665 229.92 461.665 232.1C461.665 234.42 459.745 236.26 456.685 236.26ZM469.219 224.96L466.539 225.12C466.219 226.74 465.839 228.34 465.499 229.64C466.259 230.22 467.059 230.84 467.819 231.5C468.919 229.22 469.179 226.9 469.219 224.96ZM471.779 224.8L470.639 224.88C470.579 227.12 470.279 229.82 468.959 232.46C469.959 233.34 470.859 234.18 471.459 234.88L470.499 236.12C469.939 235.44 469.119 234.62 468.199 233.76C467.319 235.1 466.099 236.4 464.479 237.58C464.259 237.26 463.739 236.78 463.439 236.56C465.079 235.4 466.259 234.1 467.099 232.78C466.039 231.84 464.899 230.92 463.879 230.14C464.279 228.84 464.699 227.06 465.099 225.2L463.519 225.28L463.359 223.86C463.939 223.84 464.619 223.8 465.359 223.78C465.639 222.26 465.859 220.68 465.999 219.32L467.459 219.4C467.299 220.74 467.059 222.24 466.799 223.72L469.239 223.58V222.12H470.639V223.5L471.799 223.44L471.779 224.8ZM481.659 227.7V229.12H477.259V235.76C477.259 236.64 477.039 237.06 476.419 237.3C475.799 237.52 474.839 237.56 473.279 237.54C473.199 237.12 472.959 236.54 472.739 236.12C473.919 236.16 475.019 236.16 475.319 236.14C475.639 236.14 475.759 236.04 475.759 235.76V229.12H471.139V227.7H475.759V225.42C476.779 224.58 477.859 223.28 478.679 222.12H472.019V220.74H479.699L480.039 220.66L481.059 221.4C480.079 222.88 478.659 224.56 477.259 225.78V227.7H481.659ZM499.579 223.3V221.92H497.719V223.3H499.579ZM499.579 225.66V224.24H497.719V225.66H499.579ZM492.099 224.24V225.66H493.899V224.24H492.099ZM492.099 221.92V223.3H493.899V221.92H492.099ZM496.679 224.24H494.939V225.66H496.679V224.24ZM494.939 223.3H496.679V221.92H494.939V223.3ZM500.879 220.92V226.66H490.859V220.92H493.739V219.28H494.939V220.92H496.679V219.28H497.899V220.92H500.879ZM501.479 227.64V228.78H490.199V227.64H501.479ZM492.739 230.8V232.52H498.939V230.8H492.739ZM500.239 233.52H491.479V229.8H500.239V233.52ZM487.939 221.86L486.779 222.64C486.499 221.92 485.799 220.84 485.139 220.06L486.219 219.36C486.919 220.12 487.619 221.16 487.939 221.86ZM490.219 230.3L489.279 231.5C488.919 230.94 488.179 229.94 487.539 229.1V237.52H486.179V229.52C485.439 230.36 484.679 231.1 483.919 231.68C483.799 231.26 483.479 230.52 483.259 230.26C485.139 228.9 487.079 226.5 488.199 224.06H483.659V222.7H488.919L489.179 222.64L489.979 223.18C489.439 224.68 488.659 226.16 487.759 227.48C488.459 228.24 489.859 229.86 490.219 230.3ZM498.159 235.98H501.659V237.14H489.759V235.98H493.439C493.219 235.38 492.959 234.64 492.679 234.04L493.839 233.72C494.179 234.42 494.539 235.34 494.759 235.98H496.899C497.279 235.28 497.679 234.34 497.899 233.68L499.259 234.04C498.879 234.72 498.499 235.4 498.159 235.98ZM510.919 221.66H506.239V224.26H510.919V221.66ZM506.239 228.36H510.919V225.6H506.239V228.36ZM508.879 231.32L510.139 230.72C511.159 232.34 512.359 234.5 512.919 235.82L511.579 236.56C511.359 236.02 511.039 235.3 510.659 234.56C505.619 236.34 504.959 236.62 504.539 236.94C504.439 236.52 504.159 235.8 503.919 235.42C504.259 235.26 504.759 234.92 504.759 234.16V220.32H512.379V229.7H506.239V234.62L510.059 233.38C509.659 232.66 509.239 231.94 508.879 231.32ZM520.759 220.44V231.88C520.759 232.72 520.579 233.14 520.039 233.38C519.499 233.64 518.599 233.66 517.139 233.64C517.079 233.24 516.919 232.64 516.699 232.22C517.739 232.26 518.659 232.26 518.919 232.24C519.199 232.24 519.299 232.16 519.299 231.88V221.84H515.679V237.54H514.219V220.44H520.759ZM541.159 221V222.3H523.879V221H531.899C531.699 220.48 531.439 219.88 531.199 219.42L532.679 219.12C532.999 219.68 533.339 220.42 533.559 221H541.159ZM527.859 224.68V226.48H537.259V224.68H527.859ZM538.799 227.58H526.399V223.58H538.799V227.58ZM541.399 232.4V233.7H533.279V236.02C533.279 236.84 533.039 237.18 532.339 237.4C531.659 237.58 530.499 237.58 528.719 237.58C528.639 237.18 528.399 236.7 528.219 236.34C529.559 236.38 530.919 236.38 531.259 236.36C531.639 236.34 531.739 236.26 531.739 235.98V233.7H523.699V232.4H531.739V231.2C533.079 230.92 534.559 230.5 535.799 230H525.559V228.78H538.159L538.479 228.7L539.479 229.54C537.779 230.52 535.499 231.34 533.279 231.88V232.4H541.399ZM547.699 229.88H556.959C556.039 229.18 555.239 228.36 554.619 227.48H550.139C549.439 228.34 548.639 229.14 547.699 229.88ZM561.279 227.48H556.299C557.659 228.98 559.739 230.2 561.939 230.78C561.599 231.06 561.199 231.64 560.979 232.02C559.879 231.68 558.819 231.14 557.839 230.52V230.54C557.579 234.58 557.299 236.16 556.739 236.74C556.379 237.14 555.999 237.26 555.419 237.32C554.859 237.36 553.819 237.36 552.739 237.28C552.719 236.86 552.539 236.28 552.299 235.88C553.359 236 554.379 236 554.759 236C555.119 236 555.319 235.96 555.499 235.8C555.859 235.44 556.099 234.22 556.319 231.24H551.479C550.939 234.22 549.579 236.36 545.359 237.52C545.199 237.14 544.819 236.56 544.499 236.26C548.279 235.34 549.459 233.62 549.959 231.24H546.859V230.52C546.039 231.06 545.179 231.56 544.219 232C544.079 231.64 543.619 231.06 543.279 230.78C545.279 229.92 546.899 228.76 548.159 227.48H543.859V226.14H549.319C549.839 225.48 550.259 224.8 550.639 224.1H545.079V222.78H548.399C548.079 222.1 547.399 221.06 546.779 220.32L547.959 219.72C548.619 220.48 549.359 221.52 549.699 222.22L548.619 222.78H551.239C551.719 221.6 552.019 220.38 552.179 219.22L553.739 219.38C553.539 220.52 553.239 221.66 552.839 222.78H555.219C555.879 221.94 556.699 220.66 557.139 219.78L558.499 220.24C557.959 221.12 557.319 222.04 556.699 222.78H559.919V224.1H552.279C551.939 224.8 551.579 225.48 551.119 226.14H561.279V227.48ZM569.539 224.78V237.72H563.219V236.34H568.059V224.78H569.539ZM589.879 227.92L590.079 229.26L587.639 230.02V235.82C587.639 236.64 587.439 237.04 586.919 237.28C586.419 237.5 585.619 237.54 584.299 237.54C584.239 237.16 584.039 236.58 583.839 236.18C584.739 236.2 585.579 236.2 585.819 236.2C586.099 236.2 586.199 236.1 586.199 235.82V230.46L583.579 231.28L583.179 229.84C584.019 229.62 585.059 229.32 586.199 228.98V224.66H583.439V223.28H586.199V219.28H587.639V223.28H589.859V224.66H587.639V228.6C588.379 228.38 589.119 228.14 589.879 227.92ZM596.539 234.64H599.839V230.56H596.539V234.64ZM591.979 230.56V234.64H595.119V230.56H591.979ZM595.119 225.26H591.979V229.16H595.119V225.26ZM599.839 225.26H596.539V229.16H599.839V225.26ZM596.539 223.84H601.299V237.34H599.839V236.06H591.979V237.48H590.559V223.84H595.119V219.3H596.539V223.84ZM618.819 221.22H614.759C615.439 221.74 616.099 222.34 616.599 222.92C617.479 222.44 618.219 221.9 618.819 221.22ZM619.859 220.24L620.639 220.68C618.859 223.74 614.779 225.06 610.639 225.64C610.519 225.34 610.259 224.94 610.019 224.7C611.999 224.48 613.939 224.06 615.639 223.36C615.119 222.76 614.399 222.06 613.699 221.52C612.879 221.88 612.019 222.2 611.039 222.5C610.859 222.22 610.479 221.82 610.219 221.64C612.659 221 614.539 220.12 615.599 219.22L616.899 219.5C616.599 219.78 616.259 220.04 615.879 220.3H619.599L619.859 220.24ZM614.099 222.66L614.119 223.48C612.899 223.6 611.799 223.68 610.779 223.76L610.619 222.88C611.599 222.82 612.759 222.74 614.099 222.66ZM606.379 226.6V226.82C606.379 227.84 606.059 229.62 604.679 230.74C604.419 230.54 603.859 230.24 603.539 230.08C604.799 229.1 605.039 227.62 605.039 226.78V226.6H603.599V225.38H607.979V223.86H604.539V219.76H605.819V222.66H607.979V219.32H609.359V230.58H607.979V226.6H606.379ZM621.639 233.22H614.059C616.559 234.14 619.919 235.48 621.719 236.34L620.999 237.52C619.239 236.62 615.699 235.12 613.099 234.12L613.719 233.22H612.779C611.999 234.88 609.839 236.62 604.199 237.58C604.039 237.24 603.679 236.7 603.359 236.38C607.979 235.62 610.079 234.4 611.039 233.22H603.519V231.96H611.639C611.699 231.68 611.719 231.44 611.719 231.2V229.98H613.179V231.24C613.179 231.48 613.159 231.7 613.139 231.96H617.219C616.779 231.54 616.139 231.04 615.619 230.66L616.219 230.12H615.519C615.459 229.76 615.279 229.32 615.099 228.96C616.019 229 616.819 229 617.039 229C617.299 228.98 617.359 228.92 617.359 228.7V226.72H612.699C613.499 227.2 614.379 227.92 614.819 228.48L613.839 229.28C613.419 228.7 612.479 227.9 611.679 227.38L612.519 226.72H610.139V225.66H617.359V224.2H618.779V225.66H621.299V226.72H618.779V228.74C618.779 229.44 618.639 229.74 618.099 229.94C617.759 230.06 617.239 230.1 616.539 230.12C617.159 230.54 617.939 231.12 618.319 231.52L617.899 231.96H621.639V233.22ZM641.399 227.74L640.439 228.08C640.379 227.84 640.299 227.52 640.179 227.18C637.279 227.64 636.799 227.74 636.559 227.88C636.479 227.64 636.299 227.02 636.159 226.72C636.479 226.66 636.779 226.32 637.159 225.84C637.379 225.58 637.839 224.92 638.359 224.06C636.879 224.26 636.539 224.36 636.339 224.46C636.279 224.2 636.099 223.66 635.959 223.34C636.199 223.32 636.419 223.06 636.659 222.68C636.879 222.34 637.699 220.88 638.099 219.54L639.219 219.88C638.719 221.06 638.099 222.24 637.479 223.16L638.939 223C639.199 222.56 639.439 222.08 639.639 221.62L640.779 222.04C639.919 223.68 638.879 225.26 637.859 226.52L639.859 226.24C639.699 225.84 639.539 225.42 639.379 225.04L640.279 224.78C640.719 225.72 641.199 227 641.399 227.74ZM634.199 228.08L633.219 228.42C633.159 228.18 633.079 227.9 632.999 227.58C630.139 228.02 629.679 228.1 629.399 228.26C629.359 228.02 629.199 227.44 629.059 227.14C629.339 227.08 629.679 226.74 630.079 226.24C630.279 226 630.799 225.3 631.359 224.44C629.799 224.66 629.419 224.76 629.219 224.86C629.179 224.62 628.999 224.04 628.879 223.76C629.119 223.7 629.359 223.44 629.619 223.02C629.899 222.62 630.799 221.08 631.299 219.58L632.419 219.94C631.859 221.24 631.139 222.56 630.419 223.56L631.999 223.4C632.239 222.96 632.479 222.52 632.679 222.06L633.759 222.48C632.879 224.08 631.819 225.66 630.759 226.9L632.699 226.64C632.559 226.2 632.399 225.78 632.239 225.38L633.179 225.12C633.599 226.08 634.039 227.34 634.199 228.08ZM628.779 228.84L628.059 229.94C627.859 229.4 627.419 228.46 626.999 227.62V237.52H625.699V228C625.199 230.06 624.519 232.02 623.819 233.24C623.699 232.82 623.359 232.16 623.179 231.8C624.139 230.18 625.099 227.12 625.579 224.5H623.579V223.1H625.699V219.26H626.999V223.1H628.579V224.5H626.999V225.8C627.439 226.5 628.519 228.36 628.779 228.84ZM639.019 230.96L640.299 231.42C639.679 232.62 638.859 233.68 637.839 234.62C638.419 235.5 639.119 235.98 639.919 236.06C640.339 236.1 640.599 235.34 640.759 233.9C640.999 234.18 641.499 234.52 641.759 234.66C641.379 236.84 640.759 237.58 639.959 237.52C638.659 237.44 637.619 236.72 636.799 235.48C635.759 236.24 634.579 236.9 633.299 237.42C633.139 237.16 632.779 236.72 632.499 236.48C633.879 235.94 635.159 235.24 636.219 234.4C635.759 233.38 635.379 232.14 635.059 230.74H631.799V231.04C631.799 231.18 631.799 231.34 631.779 231.5C632.739 232.24 633.939 233.26 634.539 233.88L633.619 234.78C633.159 234.3 632.379 233.56 631.599 232.9C631.259 234.5 630.419 236.22 628.659 237.56C628.459 237.28 627.959 236.82 627.679 236.66C630.019 234.94 630.519 232.7 630.519 231.02V230.74H628.999V229.54H634.839C634.359 226.7 634.099 223.24 633.979 219.42H635.259C635.359 223.32 635.639 226.8 636.139 229.54H638.999C638.519 229.12 637.799 228.62 637.219 228.26L637.979 227.56C638.679 227.96 639.599 228.58 640.059 229L639.539 229.54H641.199V230.74H636.379C636.639 231.8 636.899 232.72 637.239 233.48C637.979 232.72 638.599 231.86 639.019 230.96ZM656.759 232H648.479V233.36H656.759V232ZM648.479 235.78H656.759V234.42H648.479V235.78ZM647.019 237.5V230.94H658.259V237.44H656.759V236.84H648.479V237.5H647.019ZM655.399 228.9L654.399 228.54C654.759 227.88 655.279 226.82 655.499 226.14L656.759 226.54C656.319 227.4 655.819 228.3 655.399 228.9ZM648.339 226.56L649.399 226.22C649.919 226.92 650.419 227.84 650.599 228.48L649.459 228.9C649.299 228.26 648.839 227.3 648.339 226.56ZM647.139 226V228.98H651.859V226H647.139ZM657.879 228.98V226H653.119V228.98H657.879ZM645.859 230V224.96H659.219V230H645.859ZM650.039 222.9H655.259C654.299 222.3 653.379 221.62 652.619 220.9C651.859 221.64 650.979 222.32 650.039 222.9ZM652.419 219.2L653.719 219.68C653.619 219.8 653.519 219.94 653.439 220.06C655.299 221.88 658.759 223.48 661.879 224.22C661.579 224.48 661.159 225 660.939 225.36C659.319 224.9 657.599 224.22 656.039 223.36V223.98H649.119V223.44C647.579 224.28 645.879 224.96 644.219 225.48C644.059 225.22 643.639 224.62 643.379 224.34C646.999 223.38 650.539 221.62 652.419 219.2ZM668.519 235.22H677.799C679.219 235.22 679.579 234.5 679.719 231.1C680.139 231.34 680.799 231.56 681.239 231.66C680.959 235.78 680.159 236.72 677.659 236.72H668.679C665.779 236.72 664.399 235.68 664.399 233.96C664.399 232.48 664.899 230.96 675.199 222.42H664.519V220.92H677.299L677.659 220.82L678.699 221.56C678.639 221.64 678.539 221.72 678.399 221.78C666.659 231.32 665.979 232.78 665.979 233.84C665.979 234.8 666.979 235.22 668.519 235.22ZM699.239 224.14H691.999C691.379 225.76 690.699 227.2 689.899 228.34C689.579 228.08 688.839 227.68 688.439 227.5C689.959 225.56 691.059 222.44 691.659 219.28L693.259 219.58C693.059 220.64 692.779 221.68 692.479 222.68H699.719L699.999 222.6L701.099 223.18C700.579 225.12 699.699 227.22 698.999 228.6C698.679 228.42 698.119 228.12 697.759 227.96C698.239 227.02 698.839 225.52 699.239 224.14ZM689.279 222.4V223.84H684.039V222.4H689.279ZM689.879 230.6V232.06H683.599V230.6H689.879ZM695.199 224.98V226.54C695.199 226.84 695.199 227.14 695.179 227.42C696.099 231.64 698.079 234.84 701.719 236.1C701.419 236.4 700.959 236.98 700.739 237.4C697.739 236.18 695.879 233.8 694.739 230.58C694.039 233.02 692.399 235.58 688.579 237.58C688.339 237.24 687.799 236.68 687.459 236.42C693.199 233.52 693.639 229.36 693.639 226.5V224.98H695.199ZM720.419 237.92C718.019 235.48 716.439 232.3 716.439 228.4C716.439 224.5 718.019 221.32 720.419 218.88L721.619 219.5C719.319 221.88 717.899 224.84 717.899 228.4C717.899 231.96 719.319 234.92 721.619 237.3L720.419 237.92ZM729.159 232.24L730.699 232.84C729.279 234.56 727.019 236.4 725.019 237.56C724.739 237.26 724.199 236.78 723.839 236.5C725.799 235.48 728.039 233.74 729.159 232.24ZM734.279 232.98L735.559 232.22C737.399 233.52 739.879 235.44 741.139 236.62L739.739 237.54C738.559 236.36 736.159 234.38 734.279 232.98ZM729.699 224.92V229.64H735.379V224.92H729.699ZM736.899 229.64H741.579V231.08H723.599V229.64H728.199V224.92H724.399V223.48H728.199V219.44H729.699V223.48H735.379V219.44H736.899V223.48H740.859V224.92H736.899V229.64ZM749.879 227.92L750.079 229.26L747.639 230.02V235.82C747.639 236.64 747.439 237.04 746.919 237.28C746.419 237.5 745.619 237.54 744.299 237.54C744.239 237.16 744.039 236.58 743.839 236.18C744.739 236.2 745.579 236.2 745.819 236.2C746.099 236.2 746.199 236.1 746.199 235.82V230.46L743.579 231.28L743.179 229.84C744.019 229.62 745.059 229.32 746.199 228.98V224.66H743.439V223.28H746.199V219.28H747.639V223.28H749.859V224.66H747.639V228.6C748.379 228.38 749.119 228.14 749.879 227.92ZM756.539 234.64H759.839V230.56H756.539V234.64ZM751.979 230.56V234.64H755.119V230.56H751.979ZM755.119 225.26H751.979V229.16H755.119V225.26ZM759.839 225.26H756.539V229.16H759.839V225.26ZM756.539 223.84H761.299V237.34H759.839V236.06H751.979V237.48H750.559V223.84H755.119V219.3H756.539V223.84ZM764.299 236V234.48H767.559V223.54H764.959V222.38C766.259 222.14 767.199 221.8 767.999 221.34H769.399V234.48H772.339V236H764.299ZM779.193 236.26C776.393 236.26 774.613 233.72 774.613 228.62C774.613 223.52 776.393 221.06 779.193 221.06C781.973 221.06 783.753 223.54 783.753 228.62C783.753 233.72 781.973 236.26 779.193 236.26ZM779.193 234.8C780.853 234.8 781.973 232.94 781.973 228.62C781.973 224.34 780.853 222.54 779.193 222.54C777.513 222.54 776.393 224.34 776.393 228.62C776.393 232.94 777.513 234.8 779.193 234.8ZM790.287 236.26C787.487 236.26 785.707 233.72 785.707 228.62C785.707 223.52 787.487 221.06 790.287 221.06C793.067 221.06 794.847 223.54 794.847 228.62C794.847 233.72 793.067 236.26 790.287 236.26ZM790.287 234.8C791.947 234.8 793.067 232.94 793.067 228.62C793.067 224.34 791.947 222.54 790.287 222.54C788.607 222.54 787.487 224.34 787.487 228.62C787.487 232.94 788.607 234.8 790.287 234.8ZM802.36 235.12H811.24V230.58H802.36V235.12ZM810.46 222.62H803.06C802.64 223.04 802.18 223.42 801.72 223.82C803.08 224.78 804.76 226.04 805.74 226.98C807.66 225.78 809.32 224.3 810.46 222.62ZM812.76 229.2V237.52H811.24V236.48H802.36V237.52H800.9V230.94C799.8 231.32 798.68 231.64 797.58 231.9C797.46 231.5 797.12 230.86 796.82 230.54C799.36 230.02 802 229.08 804.36 227.8C803.4 226.84 801.88 225.64 800.56 224.66C799.86 225.14 799.12 225.6 798.32 226C798.1 225.66 797.62 225.1 797.3 224.88C800.52 223.32 802.78 221.1 803.98 219.2L805.64 219.56C805.26 220.12 804.84 220.7 804.34 221.26H811.42L811.66 221.18L812.66 221.8C811.02 224.98 808.14 227.44 804.82 229.2H812.76ZM817.94 218.88C820.34 221.32 821.92 224.5 821.92 228.4C821.92 232.3 820.34 235.48 817.94 237.92L816.74 237.3C819.04 234.92 820.46 231.96 820.46 228.4C820.46 224.84 819.04 221.88 816.74 219.5L817.94 218.88ZM842.84 228.42C842.84 226.74 844.22 225.38 845.88 225.38C847.56 225.38 848.92 226.74 848.92 228.42C848.92 230.1 847.56 231.46 845.88 231.46C844.22 231.46 842.84 230.1 842.84 228.42ZM843.86 228.42C843.86 229.54 844.78 230.44 845.88 230.44C847 230.44 847.9 229.54 847.9 228.42C847.9 227.3 847 226.4 845.88 226.4C844.78 226.4 843.86 227.3 843.86 228.42Z" fill="black"/>
<circle cx="13.5" cy="118.5" r="7.5" fill="#2496F0"/>
<circle cx="13.5" cy="173.5" r="7.5" fill="#2496F0"/>
<circle cx="13.5" cy="228.5" r="7.5" fill="#2496F0"/>
</svg>
