<svg width="1034" height="234" viewBox="0 0 1034 234" fill="none" xmlns="http://www.w3.org/2000/svg">
<path d="M4.28 25.16L4.64 24.96C15.12 26.56 11.16 34.32 7.08 31.28C6.8 29.16 5.48 26.68 4.28 25.16ZM31.36 41.88H23.48C24.36 45.64 25.88 48.56 27.88 50.92C29.52 48.16 30.64 45.16 31.36 41.88ZM25 32.76H21.32V40.76H25V32.76ZM33.6 38.28L37.8 42.04C37.52 42.48 37.12 42.6 36.16 42.68C34.96 46.76 33.28 50.4 30.64 53.56C33.16 55.6 36.12 57 39.44 58.08L39.36 58.52C37.4 58.84 35.96 60.2 35.16 62.4C32.24 60.72 29.84 58.8 27.92 56.28C24.72 59.04 20.52 61.2 14.96 62.64L14.68 62.12C19.68 60 23.4 57.04 26.16 53.48C24.56 50.44 23.44 46.72 22.8 41.88H21.32C21.24 48.6 20.2 56.96 11.76 62.44L11.32 62.08C16.2 56.16 16.96 48.76 17.04 41.8C16.76 41.88 16.48 41.88 16.12 41.8C15.08 42.68 13.88 43.56 12.68 44.24C18.4 47.24 15.64 52 12.76 49.84C12.4 48.12 11.32 46.16 10.2 44.56V61.2C10.2 61.48 8.8 62.56 6.72 62.56H5.96V46.6C4.44 47.88 2.76 49.08 0.96 50.12L0.6 49.64C4.56 45.76 8 39.84 9.64 34.68H1.68L1.32 33.52H9.56L11.96 31.16L15.96 34.64C15.68 35.04 15.32 35.12 14.4 35.2C13.44 37.56 12 39.92 10.2 42.2V43.24C10.72 43.4 11.16 43.56 11.6 43.72C12.32 42.48 13.08 40.68 13.68 38.92L17.04 40.96V40.92V29.8L22.04 31.6H25V25.28L30.92 25.8C30.84 26.36 30.52 26.76 29.44 26.96V31.6H33.04L35.2 29.32L39.2 33.08C38.88 33.44 38.48 33.52 37.68 33.56C36.48 35.08 34.44 37.12 32.8 38.24L32.36 38C32.72 36.56 33.12 34.44 33.36 32.76H29.44V40.76H31.12L33.6 38.28ZM65.92 41.56L65.32 41.28C66.8 36.96 67.68 31 67.76 25.4L73.2 26.24C73.08 26.76 72.68 27.16 71.76 27.24C71.36 29.32 70.88 31.32 70.28 33.2H73.08L75.08 30.4C75.08 30.4 77.36 32.36 78.68 33.68C78.56 34.12 78.2 34.32 77.64 34.32H76.04C75.76 38.48 75.12 42.28 73.88 45.72C79.08 53 77.04 58.28 74 55.64C73.72 53.72 73.04 51.6 72.16 49.4C70.56 52.28 68.4 54.8 65.32 56.88L64.96 56.4C67.84 53.32 69.6 49.76 70.64 45.84C69.6 43.64 68.52 41.56 67.52 39.76L68.12 39.56C69.32 40.6 70.4 41.6 71.36 42.6C71.84 40 72.04 37.24 72.12 34.32H69.92C68.88 37.2 67.6 39.68 65.92 41.56ZM61.88 31.08H57.08V34.2H61.88V31.08ZM57.08 38.4H61.88V35.36H57.08V38.4ZM57.08 39.56V40.52C57.08 40.84 55.48 41.64 53.96 41.64H53.4V28.36L57.24 29.96H57.44C57.6 28.48 57.72 26.48 57.76 25.08L63.24 25.88C63.12 26.36 62.72 26.8 61.84 26.8C61.04 27.8 59.8 28.96 58.6 29.96H61.56L63.24 28.2L66.76 30.8C66.56 31.08 66.08 31.32 65.52 31.44V39.72C65.48 39.96 63.68 40.68 62.52 40.68H61.88V39.56H57.08ZM43.24 25.84L43.64 25.6C54.08 27.08 50.56 34.76 46.64 32.04C46.28 29.88 44.68 27.36 43.24 25.84ZM53.84 44.72L54.12 44.96C53.84 45.32 53.48 45.44 52.6 45.48C51.76 48.32 50.08 51.48 47.64 54C47.96 54.04 48.16 54.2 48.52 54.4C51.72 57 56.6 57.56 65.48 57.56C70.16 57.52 74.12 57.52 78.92 57.28V57.76C76.96 58.16 75.88 59.88 75.6 61.64H63.84C55.08 61.64 51.48 60.04 48 55.88C47.4 55.12 46.96 55.2 46.6 55.92C46 57.16 45.04 59.28 44.32 61.32C44.4 61.68 44.28 61.88 44.04 62.12L40.8 57.6C42.4 56.68 44.68 55 46.04 54.24C47.32 51.68 48.24 48.2 48.6 45.24H46.72L45.32 46.52L42 44.04C42.36 43.76 43 43.48 43.56 43.28C44.76 41.4 46.4 38.72 47.44 36.76H42.12L41.76 35.6H47.52L49.4 33.72L53.16 37.12C52.8 37.52 52.04 37.68 51.12 37.76C50.08 39.48 48.44 42.16 47.16 44.12H48.36L50.44 42.04L53.24 44.28L53.04 43.6H59.76C59.32 43.52 58.88 43.36 58.48 43C58.56 41.92 58.04 40.64 57.44 39.96L57.84 39.76C63.32 40.16 62.36 43.32 60.36 43.6H62.32L64.32 41.4C64.32 41.4 66.52 42.92 67.96 44.08C67.84 44.52 67.44 44.72 66.88 44.72H59.32C59.28 45.48 59.16 46.28 59 47.04H61.6L63.48 45.24L66.96 48.04C66.68 48.32 66.2 48.56 65.52 48.64C65.16 52.68 64.72 54.6 63.44 55.56C62.68 56.12 61.56 56.28 60.48 56.32C60.48 55.56 60.32 54.84 59.92 54.36C59.52 53.88 58.64 53.44 57.68 53.24V52.68C58.6 52.76 60 52.84 60.52 52.84C60.8 52.84 60.96 52.76 61.08 52.6C61.44 52.16 61.72 50.8 61.92 48.16H58.76C57.96 51.08 56.24 53.96 52.6 56.16L52.08 55.6C55.04 52.16 55.4 48.24 55.48 44.72H53.84ZM84.96 25.84L85.32 25.6C95.52 27.2 90.88 34.52 87 31.28C86.92 29.32 85.96 27.2 84.96 25.84ZM91.64 32.8L93.68 30.16C93.68 30.16 96 32 97.32 33.32C97.24 33.76 96.84 33.96 96.32 33.96H81.56L81.24 32.8H91.64ZM82.88 37.92H90.32L92.24 35.4C92.24 35.4 94.44 37.16 95.76 38.44C95.64 38.88 95.28 39.08 94.72 39.08H83.2L82.88 37.92ZM90.32 43.08L92.24 40.64C92.24 40.64 94.44 42.32 95.76 43.6C95.64 44.04 95.28 44.24 94.72 44.24H83.2L82.88 43.08H90.32ZM87.52 57.28H91V49.44H87.52V57.28ZM92.56 46.24L96.64 49.32C96.4 49.6 95.88 49.92 95.12 50.08V59.36C95.08 59.68 93.08 60.56 91.68 60.56H91V58.4H87.52V60.8C87.52 61.2 85.76 62.12 84.04 62.12H83.44V46.6L87.68 48.32H90.6L92.56 46.24ZM103.04 52.48H111.44V49.08H103.08V50.96C103.08 51.44 103.08 51.96 103.04 52.48ZM111.44 44.52H103.08V47.96H111.44V44.52ZM111.04 43.4L112.92 41.2L117.24 44.44C117 44.76 116.44 45.08 115.6 45.24V57.36C115.6 60.2 115 61.84 110.36 62.24C110.28 60.96 110.12 59.92 109.64 59.32C109.12 58.68 108.4 58.24 106.8 58V57.4C106.8 57.4 109.96 57.6 110.68 57.6C111.28 57.6 111.44 57.36 111.44 56.88V53.64H102.96C102.56 57 101.04 60.4 95.88 62.68L95.52 62.32C98.64 59.2 98.88 55.16 98.88 50.96V41.6L103.76 43.4H111.04ZM112.64 39.4L114.92 36.48C114.92 36.48 117.44 38.48 119 39.92C118.92 40.36 118.48 40.56 117.92 40.56H96.36L96.04 39.4H104.84V35.64H98.44L98.12 34.52H104.84V31H96.92L96.6 29.84H104.84V25L110.52 25.52C110.44 26.04 110.16 26.4 109.24 26.56V29.84H111.88L114.12 26.96C114.12 26.96 116.64 28.92 118.16 30.36C118.08 30.8 117.68 31 117.08 31H109.24V34.52H111.08L113.16 31.88C113.16 31.88 115.52 33.68 116.92 35C116.8 35.44 116.4 35.64 115.84 35.64H109.24V39.4H112.64ZM135.6 25.64L142.2 26.28C142.12 26.88 141.76 27.28 140.72 27.4C141.56 42.8 145.32 52.12 159 57.16L158.92 57.64C156.52 58.08 155 59.72 154.48 62.32C144.4 56.96 141.4 47.56 140.4 34.8C139.68 45.08 136.8 55.32 121.76 62.52L121.32 61.96C135.96 51.28 135.56 38.36 135.6 25.64Z" fill="black"/>
<path d="M18.54 112.16H12.2C11.76 112.9 11.28 113.62 10.78 114.36V127.48H9.2V116.36C7.18 118.66 4.74 120.72 1.96 122.18C1.74 121.8 1.26 121.22 0.96 120.88C4.9 118.9 8.32 115.58 10.3 112.16H1.46V110.68H18.54V112.16ZM11.18 116.46L12.28 115.5C14.6 117 17.64 119.24 19.1 120.76L17.92 121.9C16.5 120.38 13.54 118.02 11.18 116.46ZM26.9 110.02L27.88 110.6C27.28 112.22 26.56 114.18 25.88 115.76C27.32 117.42 27.68 118.88 27.68 120.12C27.68 121.16 27.44 122.04 26.9 122.42C26.62 122.64 26.24 122.76 25.84 122.8C25.46 122.86 24.94 122.86 24.52 122.84C24.5 122.46 24.36 121.9 24.14 121.52C24.6 121.56 24.98 121.58 25.3 121.54C25.54 121.52 25.76 121.48 25.92 121.36C26.22 121.14 26.34 120.58 26.34 119.98C26.34 118.9 25.98 117.52 24.54 115.92C25.12 114.48 25.72 112.76 26.12 111.44H23.22V127.5H21.9V110.08H26.68L26.9 110.02ZM30.3 115.1V117.58H36.16V115.1H30.3ZM36.16 111.46H30.3V113.86H36.16V111.46ZM37.82 119.52L38.8 120.56C37.78 121.4 36.46 122.28 35.36 122.94C36.34 124.36 37.62 125.46 39.22 126.12C38.9 126.4 38.44 127 38.2 127.38C35.08 125.9 33.22 122.84 32.22 118.88H30.3V125.46L33.82 124.6C33.82 125.04 33.84 125.64 33.9 125.96C29.78 127.08 29.18 127.28 28.78 127.54C28.68 127.22 28.36 126.6 28.12 126.32C28.44 126.16 28.86 125.74 28.86 124.92V110.14H37.6V118.88H33.52C33.82 119.96 34.2 120.98 34.7 121.88C35.74 121.18 37 120.24 37.82 119.52ZM56.06 112.92V111.04H52.2V112.92H56.06ZM57.44 110.04V113.92H50.84V110.04H57.44ZM47.84 112.92V111.04H44.02V112.92H47.84ZM49.24 110.04V113.92H42.68V110.04H49.24ZM44.66 120.68H49.18V118.96H44.66V120.68ZM44.66 116.12V117.82H49.18V116.12H44.66ZM55.46 117.82V116.12H50.7V117.82H55.46ZM55.46 120.68V118.96H50.7V120.68H55.46ZM58.82 123.4V124.7H50.7V127.52H49.18V124.7H41.22V123.4H49.18V121.88H43.22V114.92H56.98V121.88H50.7V123.4H58.82ZM69.88 111.62H64.02C63.4 112.48 62.68 113.26 61.96 113.86C61.76 113.6 61.24 113.12 60.92 112.86C62.16 111.94 63.32 110.54 63.98 109.12L65.3 109.5C65.14 109.82 64.98 110.12 64.8 110.44H69.88V111.62ZM65 112.34L65.98 111.66C66.58 112.22 67.36 113.02 67.72 113.52L66.72 114.3C66.34 113.78 65.6 112.96 65 112.34ZM75.36 119.52V118.22H70.68V119.52H75.36ZM70.68 115.92V117.08H75.36V115.92H70.68ZM76.84 114.8V117.08H78.98V118.22H76.84V120.64H70.68V121.82H77.36V122.98H70.68V124.24H78.66V125.42H70.68V127.54H69.2V125.42H61.4V124.24H69.2V122.98H62.68V121.82H69.2V120.64H63.28V119.52H69.2V118.22H61.06V117.08H69.2V115.92H63.44V114.8H69.2V113.7H70.68V114.8H76.84ZM76.46 113.48L75.4 114.28C75.04 113.74 74.3 112.94 73.66 112.34L74.7 111.66C75.3 112.2 76.08 112.98 76.46 113.48ZM72.84 110.46H79.06V111.64H72.1C71.58 112.36 70.98 113.02 70.38 113.52C70.14 113.28 69.58 112.84 69.26 112.62C70.38 111.78 71.38 110.48 71.94 109.12L73.32 109.48C73.18 109.82 73.02 110.14 72.84 110.46ZM85.56 109.32L86.96 109.74C86.38 111.2 85.66 112.66 84.86 114V127.48H83.44V116.16C82.78 117.08 82.06 117.92 81.36 118.64C81.2 118.32 80.78 117.54 80.52 117.2C82.5 115.3 84.42 112.34 85.56 109.32ZM89.22 121.24L90.54 121.66C89.6 123.34 88.28 125.28 87.16 126.56C86.9 126.32 86.32 125.9 86 125.7C87.14 124.54 88.38 122.78 89.22 121.24ZM89.02 111.54V115.2H96.44V111.54H89.02ZM99.08 120.26H93.42V127.54H91.94V120.26H86.16V118.9H91.94V116.52H87.62V110.2H97.92V116.52H93.42V118.9H99.08V120.26ZM94.54 121.84L95.68 121.22C96.96 122.64 98.42 124.5 99.14 125.7L97.94 126.44C97.26 125.22 95.8 123.26 94.54 121.84ZM107.04 124.6L108.38 125.2C106.74 126.12 104.22 127.02 102.2 127.54C101.98 127.24 101.46 126.68 101.14 126.42C103.18 126.04 105.62 125.34 107.04 124.6ZM105.12 122.36V123.62H115.12V122.36H105.12ZM111.54 115.66H107.82C107.52 116.18 107.06 116.66 106.4 117.08H115.34C115.3 116.86 115.2 116.62 115.1 116.44C115.7 116.5 116.24 116.52 116.46 116.52C116.68 116.52 116.82 116.5 116.92 116.38C117.02 116.28 117.1 116.08 117.16 115.66H112.94V117.04H111.54V115.66ZM107.06 113.48H104.3C104.24 113.9 104.18 114.3 104.12 114.68H106.76C106.94 114.3 107.02 113.9 107.06 113.48ZM108.46 111.36V112.5H111.54V111.36H108.46ZM116.04 111.36H112.94V112.5H116.04V111.36ZM111.54 114.68V113.48H108.42C108.4 113.9 108.34 114.3 108.22 114.68H111.54ZM115.12 119.28V118.04H105.12V119.28H115.12ZM115.12 121.42V120.2H105.12V121.42H115.12ZM116.6 124.58H113.18C115.26 125.18 117.44 125.94 118.8 126.52L117.68 127.44C116.34 126.82 114.08 125.98 111.8 125.3L112.54 124.58H103.68V118.24C103.16 118.4 102.56 118.54 101.9 118.68C101.76 118.34 101.44 117.8 101.2 117.52C103.72 117.06 105.18 116.42 106.02 115.66H102.62C102.8 114.78 103 113.54 103.12 112.5H107.1V111.36H102.22V110.38H107.1V109.28H108.46V110.38H111.54V109.28H112.94V110.38H117.4V113.48H112.94V114.68H118.64C118.64 114.68 118.62 114.98 118.6 115.16C118.48 116.24 118.36 116.82 118.08 117.08C117.82 117.32 117.52 117.42 117.12 117.44C116.98 117.44 116.8 117.46 116.6 117.46V124.58ZM125.34 115.22H134.88C133.08 114.16 131.32 112.82 130.02 111.46C128.7 112.9 127.1 114.18 125.34 115.22ZM135.12 116.6H130.72V119.32H137.7V120.68H130.72V125.56H138.6V126.94H121.42V125.56H129.18V120.68H122.32V119.32H129.18V116.6H124.86V115.5C123.84 116.06 122.76 116.56 121.68 116.96C121.46 116.54 121.06 115.94 120.68 115.6C124.4 114.38 128.08 112.04 129.98 109.08L131.34 109.72C131.2 109.94 131.02 110.2 130.84 110.44C132.82 112.56 136.34 114.64 139.38 115.6C139.02 115.9 138.56 116.5 138.34 116.9C137.3 116.5 136.2 115.98 135.12 115.36V116.6ZM133.66 125.28L132.54 124.8C133.24 123.82 134.14 122.24 134.62 121.12L136.02 121.66C135.3 122.92 134.38 124.34 133.66 125.28ZM124 121.62L125.22 121.12C126 122.24 126.82 123.74 127.14 124.7L125.84 125.24C125.56 124.32 124.76 122.74 124 121.62ZM156.94 116.54V114.68H152.28V116.54H156.94ZM156.94 119.56V117.68H152.28V119.56H156.94ZM156.94 122.58V120.7H152.28V122.58H156.94ZM150.9 113.48H153.54C153.68 112.88 153.82 112.14 153.92 111.5H150.32V110.22H159.02V111.5H155.32C155.12 112.18 154.94 112.88 154.76 113.48H158.38V123.8H150.9V113.48ZM142.46 112.42V114.54H141.32V111.18H144.94C144.76 110.68 144.54 110.16 144.34 109.7L145.5 109.28C145.78 109.86 146.14 110.62 146.36 111.18H149.7V114.54H148.5V112.42H142.46ZM142.98 121.38H148.68C147.96 120.84 146.88 120.1 145.74 119.38C144.9 120.18 143.94 120.86 142.98 121.38ZM143.8 125.62H147.38V122.6H143.8V125.62ZM149.72 120.44L148.84 121.5L148.7 121.4V127.42H147.38V126.84H143.8V127.46H142.52V121.62C142.18 121.8 141.84 121.96 141.5 122.08C141.36 121.74 140.98 121.12 140.72 120.86C142.08 120.36 143.44 119.62 144.6 118.66C144.08 118.32 143.56 118.02 143.1 117.74L143.94 116.86C144.42 117.12 144.98 117.44 145.54 117.78C146.14 117.12 146.68 116.4 147.08 115.62H144.24C143.64 116.52 142.9 117.36 141.96 118.08C141.78 117.78 141.4 117.28 141.16 117.08C142.7 116 143.68 114.44 144.16 113.08L145.34 113.3C145.2 113.7 145.06 114.08 144.86 114.46H147.78L148 114.4L148.76 114.96C148.24 116.28 147.52 117.44 146.64 118.44C147.84 119.16 148.98 119.9 149.72 120.44ZM153.06 124.12L154.08 125.06C152.92 126 151.22 127.02 149.94 127.64C149.78 127.34 149.48 126.84 149.26 126.54C150.52 125.96 152.16 124.96 153.06 124.12ZM155.06 125.02L155.88 124.08C156.98 124.74 158.42 125.8 159.16 126.54L158.32 127.6C157.62 126.86 156.18 125.74 155.06 125.02ZM168.36 122.24L167.92 121.18C169.46 120.54 170.34 119.6 170.44 118.24C170.32 118.26 170.22 118.26 170.1 118.26C169.28 118.26 168.6 117.78 168.6 116.84C168.6 115.9 169.3 115.4 170.12 115.4C171.22 115.4 171.82 116.3 171.82 117.7C171.82 119.86 170.46 121.5 168.36 122.24ZM195.82 115.04L197.14 115.48C195.5 118.5 192.6 121.36 189.22 123.06C189.06 122.76 188.68 122.28 188.42 122C190.32 121.08 192.12 119.74 193.54 118.24C190.18 118.48 189.62 118.58 189.3 118.72C189.24 118.36 189.06 117.66 188.96 117.34C189.3 117.26 189.82 117.14 190.12 116.78C190.5 116.36 191.58 114.5 192.22 113.36H188.78V111.98H193.62C193.42 111.3 193.06 110.36 192.66 109.64L193.94 109.26C194.42 110.04 194.88 111.12 195.02 111.82L194.58 111.98H199.08V113.36H193.74C193.08 114.48 192.18 116.06 191.48 117.16L194.6 116.98C195.08 116.36 195.5 115.7 195.82 115.04ZM185.76 111.74L184.58 112.44C184.3 111.7 183.68 110.58 183.14 109.76L184.24 109.18C184.82 110 185.44 111.04 185.76 111.74ZM188.36 112.66V113.88H180.96V112.66H188.36ZM181.78 119.06V117.88H187.64V119.06H181.78ZM181.78 115.28H187.62V116.46H181.78V115.28ZM186.38 125.08V121.78H183.06V125.08H186.38ZM197.18 118.6L198.62 119.1C197.82 120.56 196.78 121.9 195.5 123.1C196.84 124.22 198.34 125.66 199.14 126.6L197.98 127.54C197.26 126.6 195.82 125.16 194.5 123.98C192.7 125.48 190.54 126.7 188.14 127.58C187.98 127.24 187.58 126.72 187.32 126.42L187.6 126.32H183.06V127.26H181.78V120.54H187.64V126.3C192 124.74 195.56 121.9 197.18 118.6ZM209.88 111.62H204.02C203.4 112.48 202.68 113.26 201.96 113.86C201.76 113.6 201.24 113.12 200.92 112.86C202.16 111.94 203.32 110.54 203.98 109.12L205.3 109.5C205.14 109.82 204.98 110.12 204.8 110.44H209.88V111.62ZM205 112.34L205.98 111.66C206.58 112.22 207.36 113.02 207.72 113.52L206.72 114.3C206.34 113.78 205.6 112.96 205 112.34ZM215.36 119.52V118.22H210.68V119.52H215.36ZM210.68 115.92V117.08H215.36V115.92H210.68ZM216.84 114.8V117.08H218.98V118.22H216.84V120.64H210.68V121.82H217.36V122.98H210.68V124.24H218.66V125.42H210.68V127.54H209.2V125.42H201.4V124.24H209.2V122.98H202.68V121.82H209.2V120.64H203.28V119.52H209.2V118.22H201.06V117.08H209.2V115.92H203.44V114.8H209.2V113.7H210.68V114.8H216.84ZM216.46 113.48L215.4 114.28C215.04 113.74 214.3 112.94 213.66 112.34L214.7 111.66C215.3 112.2 216.08 112.98 216.46 113.48ZM212.84 110.46H219.06V111.64H212.1C211.58 112.36 210.98 113.02 210.38 113.52C210.14 113.28 209.58 112.84 209.26 112.62C210.38 111.78 211.38 110.48 211.94 109.12L213.32 109.48C213.18 109.82 213.02 110.14 212.84 110.46ZM225.56 109.32L226.96 109.74C226.38 111.2 225.66 112.66 224.86 114V127.48H223.44V116.16C222.78 117.08 222.06 117.92 221.36 118.64C221.2 118.32 220.78 117.54 220.52 117.2C222.5 115.3 224.42 112.34 225.56 109.32ZM229.22 121.24L230.54 121.66C229.6 123.34 228.28 125.28 227.16 126.56C226.9 126.32 226.32 125.9 226 125.7C227.14 124.54 228.38 122.78 229.22 121.24ZM229.02 111.54V115.2H236.44V111.54H229.02ZM239.08 120.26H233.42V127.54H231.94V120.26H226.16V118.9H231.94V116.52H227.62V110.2H237.92V116.52H233.42V118.9H239.08V120.26ZM234.54 121.84L235.68 121.22C236.96 122.64 238.42 124.5 239.14 125.7L237.94 126.44C237.26 125.22 235.8 123.26 234.54 121.84ZM256.06 112.92V111.04H252.2V112.92H256.06ZM257.44 110.04V113.92H250.84V110.04H257.44ZM247.84 112.92V111.04H244.02V112.92H247.84ZM249.24 110.04V113.92H242.68V110.04H249.24ZM244.66 120.68H249.18V118.96H244.66V120.68ZM244.66 116.12V117.82H249.18V116.12H244.66ZM255.46 117.82V116.12H250.7V117.82H255.46ZM255.46 120.68V118.96H250.7V120.68H255.46ZM258.82 123.4V124.7H250.7V127.52H249.18V124.7H241.22V123.4H249.18V121.88H243.22V114.92H256.98V121.88H250.7V123.4H258.82ZM268.38 111.66H263.7V114.26H268.38V111.66ZM263.7 118.36H268.38V115.6H263.7V118.36ZM266.34 121.32L267.6 120.72C268.62 122.34 269.82 124.5 270.38 125.82L269.04 126.56C268.82 126.02 268.5 125.3 268.12 124.56C263.08 126.34 262.42 126.62 262 126.94C261.9 126.52 261.62 125.8 261.38 125.42C261.72 125.26 262.22 124.92 262.22 124.16V110.32H269.84V119.7H263.7V124.62L267.52 123.38C267.12 122.66 266.7 121.94 266.34 121.32ZM278.22 110.44V121.88C278.22 122.72 278.04 123.14 277.5 123.38C276.96 123.64 276.06 123.66 274.6 123.64C274.54 123.24 274.38 122.64 274.16 122.22C275.2 122.26 276.12 122.26 276.38 122.24C276.66 122.24 276.76 122.16 276.76 121.88V111.84H273.14V127.54H271.68V110.44H278.22ZM298.62 111V112.3H281.34V111H289.36C289.16 110.48 288.9 109.88 288.66 109.42L290.14 109.12C290.46 109.68 290.8 110.42 291.02 111H298.62ZM285.32 114.68V116.48H294.72V114.68H285.32ZM296.26 117.58H283.86V113.58H296.26V117.58ZM298.86 122.4V123.7H290.74V126.02C290.74 126.84 290.5 127.18 289.8 127.4C289.12 127.58 287.96 127.58 286.18 127.58C286.1 127.18 285.86 126.7 285.68 126.34C287.02 126.38 288.38 126.38 288.72 126.36C289.1 126.34 289.2 126.26 289.2 125.98V123.7H281.16V122.4H289.2V121.2C290.54 120.92 292.02 120.5 293.26 120H283.02V118.78H295.62L295.94 118.7L296.94 119.54C295.24 120.52 292.96 121.34 290.74 121.88V122.4H298.86ZM313 122.02V109.08H319.32V110.46H314.48V122.02H313ZM325.22 126.26C322.94 126.26 321.54 125.3 320.56 124.32L321.46 123.12C322.3 123.96 323.36 124.74 325.06 124.74C326.78 124.74 328.18 123.42 328.18 121.28C328.18 119.18 326.98 117.94 325.14 117.94C324.16 117.94 323.54 118.24 322.7 118.8L321.72 118.2L322.18 111.34H329.32V112.9H323.78L323.42 117.14C324.06 116.78 324.72 116.56 325.6 116.56C328.04 116.56 330.02 118 330.02 121.22C330.02 124.44 327.7 126.26 325.22 126.26ZM336.654 126.26C333.854 126.26 332.074 123.72 332.074 118.62C332.074 113.52 333.854 111.06 336.654 111.06C339.434 111.06 341.214 113.54 341.214 118.62C341.214 123.72 339.434 126.26 336.654 126.26ZM336.654 124.8C338.314 124.8 339.434 122.94 339.434 118.62C339.434 114.34 338.314 112.54 336.654 112.54C334.974 112.54 333.854 114.34 333.854 118.62C333.854 122.94 334.974 124.8 336.654 124.8ZM349.108 115.24L348.448 114.98C348.748 114.12 349.128 112.72 349.308 111.8L350.188 112.12C349.828 113.16 349.448 114.44 349.108 115.24ZM345.248 112.06L345.988 111.86C346.348 112.82 346.608 114.08 346.668 114.88L345.868 115.1C345.828 114.28 345.588 113.02 345.248 112.06ZM344.968 111.08V115.88H347.128V111.08H344.968ZM350.448 115.88V111.08H348.148V115.88H350.448ZM343.308 122.54L343.228 121.26C344.268 121.22 345.548 121.14 346.968 121.08V119.52H343.668V118.34H346.968V116.96H343.808V110H351.648V116.96H348.308V118.34H351.768V119.52H348.308V121C349.528 120.94 350.808 120.86 352.088 120.78L352.048 121.98C348.868 122.22 345.608 122.42 343.308 122.54ZM343.908 127.52L342.908 126.98C343.688 126.16 344.068 124.72 344.228 123.34L345.288 123.62C345.088 125.1 344.788 126.64 343.908 127.52ZM345.928 123.4L346.888 123.3C347.208 124.38 347.428 125.82 347.428 126.74L346.408 126.88C346.408 125.94 346.208 124.52 345.928 123.4ZM347.828 123.3L348.768 123.1C349.228 124.1 349.668 125.42 349.808 126.3L348.788 126.52C348.688 125.64 348.268 124.32 347.828 123.3ZM349.728 123.04L350.648 122.66C351.348 123.58 352.068 124.82 352.368 125.64L351.368 126.08C351.088 125.24 350.388 123.96 349.728 123.04ZM359.148 125.22V120.08H354.108V125.22H359.148ZM361.348 115H357.088V118.7H360.548V127.42H359.148V126.56H354.108V127.5H352.747V118.7H355.628V109.3H357.088V113.6H361.348V115ZM364.188 126V111.34H366.048V124.42H372.448V126H364.188ZM375.027 126V111.34H376.887V126H375.027ZM380.887 126V111.34H382.807L388.147 120.58L389.707 123.6H389.807C389.707 122.12 389.567 120.48 389.567 118.96V111.34H391.327V126H389.427L384.087 116.74L382.507 113.72H382.427C382.507 115.2 382.647 116.76 382.647 118.3V126H380.887ZM395.32 126V111.34H403.78V112.9H397.18V117.5H402.74V119.08H397.18V124.42H404V126H395.32ZM411.551 126V111.34H415.731C419.031 111.34 421.231 112.44 421.231 115.64C421.231 118.74 419.031 120.18 415.831 120.18H413.411V126H411.551ZM413.411 118.68H415.591C418.171 118.68 419.391 117.74 419.391 115.64C419.391 113.52 418.091 112.84 415.511 112.84H413.411V118.68ZM429.608 126.26C425.928 126.26 423.348 123.32 423.348 118.62C423.348 113.92 425.928 111.06 429.608 111.06C433.288 111.06 435.868 113.92 435.868 118.62C435.868 123.32 433.288 126.26 429.608 126.26ZM429.608 124.64C432.228 124.64 433.968 122.28 433.968 118.62C433.968 114.94 432.228 112.68 429.608 112.68C426.968 112.68 425.248 114.94 425.248 118.62C425.248 122.28 426.968 124.64 429.608 124.64ZM439.031 126V111.34H440.891V126H439.031ZM444.891 126V111.34H446.811L452.151 120.58L453.711 123.6H453.811C453.711 122.12 453.571 120.48 453.571 118.96V111.34H455.331V126H453.431L448.091 116.74L446.511 113.72H446.431C446.511 115.2 446.651 116.76 446.651 118.3V126H444.891ZM462.384 126V112.9H457.944V111.34H468.684V112.9H464.244V126H462.384ZM474.498 126.26C472.418 126.26 470.638 125.42 469.358 124.08L470.458 122.82C471.518 123.92 472.998 124.64 474.518 124.64C476.438 124.64 477.598 123.68 477.598 122.24C477.598 120.74 476.538 120.26 475.158 119.64L473.038 118.72C471.678 118.14 470.058 117.1 470.058 114.96C470.058 112.7 472.018 111.06 474.678 111.06C476.418 111.06 477.958 111.8 478.998 112.88L478.018 114.06C477.118 113.22 476.038 112.68 474.678 112.68C473.018 112.68 471.938 113.52 471.938 114.84C471.938 116.26 473.218 116.8 474.358 117.28L476.458 118.18C478.158 118.92 479.478 119.92 479.478 122.1C479.478 124.42 477.558 126.26 474.498 126.26ZM487.032 114.96L484.352 115.12C484.032 116.74 483.652 118.34 483.312 119.64C484.072 120.22 484.872 120.84 485.632 121.5C486.732 119.22 486.992 116.9 487.032 114.96ZM489.592 114.8L488.452 114.88C488.392 117.12 488.092 119.82 486.772 122.46C487.772 123.34 488.672 124.18 489.272 124.88L488.312 126.12C487.752 125.44 486.932 124.62 486.012 123.76C485.132 125.1 483.912 126.4 482.292 127.58C482.072 127.26 481.552 126.78 481.252 126.56C482.892 125.4 484.072 124.1 484.912 122.78C483.852 121.84 482.712 120.92 481.692 120.14C482.092 118.84 482.512 117.06 482.912 115.2L481.332 115.28L481.172 113.86C481.752 113.84 482.432 113.8 483.172 113.78C483.452 112.26 483.672 110.68 483.812 109.32L485.272 109.4C485.112 110.74 484.872 112.24 484.612 113.72L487.052 113.58V112.12H488.452V113.5L489.612 113.44L489.592 114.8ZM499.472 117.7V119.12H495.072V125.76C495.072 126.64 494.852 127.06 494.232 127.3C493.612 127.52 492.652 127.56 491.092 127.54C491.012 127.12 490.772 126.54 490.552 126.12C491.732 126.16 492.832 126.16 493.132 126.14C493.452 126.14 493.572 126.04 493.572 125.76V119.12H488.952V117.7H493.572V115.42C494.592 114.58 495.672 113.28 496.492 112.12H489.832V110.74H497.512L497.852 110.66L498.872 111.4C497.892 112.88 496.472 114.56 495.072 115.78V117.7H499.472ZM517.392 113.3V111.92H515.532V113.3H517.392ZM517.392 115.66V114.24H515.532V115.66H517.392ZM509.912 114.24V115.66H511.712V114.24H509.912ZM509.912 111.92V113.3H511.712V111.92H509.912ZM514.492 114.24H512.752V115.66H514.492V114.24ZM512.752 113.3H514.492V111.92H512.752V113.3ZM518.692 110.92V116.66H508.672V110.92H511.552V109.28H512.752V110.92H514.492V109.28H515.712V110.92H518.692ZM519.292 117.64V118.78H508.012V117.64H519.292ZM510.552 120.8V122.52H516.752V120.8H510.552ZM518.052 123.52H509.292V119.8H518.052V123.52ZM505.752 111.86L504.592 112.64C504.312 111.92 503.612 110.84 502.952 110.06L504.032 109.36C504.732 110.12 505.432 111.16 505.752 111.86ZM508.032 120.3L507.092 121.5C506.732 120.94 505.992 119.94 505.352 119.1V127.52H503.992V119.52C503.252 120.36 502.492 121.1 501.732 121.68C501.612 121.26 501.292 120.52 501.072 120.26C502.952 118.9 504.892 116.5 506.012 114.06H501.472V112.7H506.732L506.992 112.64L507.792 113.18C507.252 114.68 506.472 116.16 505.572 117.48C506.272 118.24 507.672 119.86 508.032 120.3ZM515.972 125.98H519.472V127.14H507.572V125.98H511.252C511.032 125.38 510.772 124.64 510.492 124.04L511.652 123.72C511.992 124.42 512.352 125.34 512.572 125.98H514.712C515.092 125.28 515.492 124.34 515.712 123.68L517.072 124.04C516.692 124.72 516.312 125.4 515.972 125.98ZM528.732 111.66H524.052V114.26H528.732V111.66ZM524.052 118.36H528.732V115.6H524.052V118.36ZM526.692 121.32L527.952 120.72C528.972 122.34 530.172 124.5 530.732 125.82L529.392 126.56C529.172 126.02 528.852 125.3 528.472 124.56C523.432 126.34 522.772 126.62 522.352 126.94C522.252 126.52 521.972 125.8 521.732 125.42C522.072 125.26 522.572 124.92 522.572 124.16V110.32H530.192V119.7H524.052V124.62L527.872 123.38C527.472 122.66 527.052 121.94 526.692 121.32ZM538.572 110.44V121.88C538.572 122.72 538.392 123.14 537.852 123.38C537.312 123.64 536.412 123.66 534.952 123.64C534.892 123.24 534.732 122.64 534.512 122.22C535.552 122.26 536.472 122.26 536.732 122.24C537.012 122.24 537.112 122.16 537.112 121.88V111.84H533.492V127.54H532.032V110.44H538.572ZM558.972 111V112.3H541.692V111H549.712C549.512 110.48 549.252 109.88 549.012 109.42L550.492 109.12C550.812 109.68 551.152 110.42 551.372 111H558.972ZM545.672 114.68V116.48H555.072V114.68H545.672ZM556.612 117.58H544.212V113.58H556.612V117.58ZM559.212 122.4V123.7H551.092V126.02C551.092 126.84 550.852 127.18 550.152 127.4C549.472 127.58 548.312 127.58 546.532 127.58C546.452 127.18 546.212 126.7 546.032 126.34C547.372 126.38 548.732 126.38 549.072 126.36C549.452 126.34 549.552 126.26 549.552 125.98V123.7H541.512V122.4H549.552V121.2C550.892 120.92 552.372 120.5 553.612 120H543.372V118.78H555.972L556.292 118.7L557.292 119.54C555.592 120.52 553.312 121.34 551.092 121.88V122.4H559.212ZM565.512 119.88H574.772C573.852 119.18 573.052 118.36 572.432 117.48H567.952C567.252 118.34 566.452 119.14 565.512 119.88ZM579.092 117.48H574.112C575.472 118.98 577.552 120.2 579.752 120.78C579.412 121.06 579.012 121.64 578.792 122.02C577.692 121.68 576.632 121.14 575.652 120.52V120.54C575.392 124.58 575.112 126.16 574.552 126.74C574.192 127.14 573.812 127.26 573.232 127.32C572.672 127.36 571.632 127.36 570.552 127.28C570.532 126.86 570.352 126.28 570.112 125.88C571.172 126 572.192 126 572.572 126C572.932 126 573.132 125.96 573.312 125.8C573.672 125.44 573.912 124.22 574.132 121.24H569.292C568.752 124.22 567.392 126.36 563.172 127.52C563.012 127.14 562.632 126.56 562.312 126.26C566.092 125.34 567.272 123.62 567.772 121.24H564.672V120.52C563.852 121.06 562.992 121.56 562.032 122C561.892 121.64 561.432 121.06 561.092 120.78C563.092 119.92 564.712 118.76 565.972 117.48H561.672V116.14H567.132C567.652 115.48 568.072 114.8 568.452 114.1H562.892V112.78H566.212C565.892 112.1 565.212 111.06 564.592 110.32L565.772 109.72C566.432 110.48 567.172 111.52 567.512 112.22L566.432 112.78H569.052C569.532 111.6 569.832 110.38 569.992 109.22L571.552 109.38C571.352 110.52 571.052 111.66 570.652 112.78H573.032C573.692 111.94 574.512 110.66 574.952 109.78L576.312 110.24C575.772 111.12 575.132 112.04 574.512 112.78H577.732V114.1H570.092C569.752 114.8 569.392 115.48 568.932 116.14H579.092V117.48ZM587.352 114.78V127.72H581.032V126.34H585.872V114.78H587.352ZM607.692 117.92L607.892 119.26L605.452 120.02V125.82C605.452 126.64 605.252 127.04 604.732 127.28C604.232 127.5 603.432 127.54 602.112 127.54C602.052 127.16 601.852 126.58 601.652 126.18C602.552 126.2 603.392 126.2 603.632 126.2C603.912 126.2 604.012 126.1 604.012 125.82V120.46L601.392 121.28L600.992 119.84C601.832 119.62 602.872 119.32 604.012 118.98V114.66H601.252V113.28H604.012V109.28H605.452V113.28H607.672V114.66H605.452V118.6C606.192 118.38 606.932 118.14 607.692 117.92ZM614.352 124.64H617.652V120.56H614.352V124.64ZM609.792 120.56V124.64H612.932V120.56H609.792ZM612.932 115.26H609.792V119.16H612.932V115.26ZM617.652 115.26H614.352V119.16H617.652V115.26ZM614.352 113.84H619.112V127.34H617.652V126.06H609.792V127.48H608.372V113.84H612.932V109.3H614.352V113.84ZM636.632 111.22H632.572C633.252 111.74 633.912 112.34 634.412 112.92C635.292 112.44 636.032 111.9 636.632 111.22ZM637.672 110.24L638.452 110.68C636.672 113.74 632.592 115.06 628.452 115.64C628.332 115.34 628.072 114.94 627.832 114.7C629.812 114.48 631.752 114.06 633.452 113.36C632.932 112.76 632.212 112.06 631.512 111.52C630.692 111.88 629.832 112.2 628.852 112.5C628.672 112.22 628.292 111.82 628.032 111.64C630.472 111 632.352 110.12 633.412 109.22L634.712 109.5C634.412 109.78 634.072 110.04 633.692 110.3H637.412L637.672 110.24ZM631.912 112.66L631.932 113.48C630.712 113.6 629.612 113.68 628.592 113.76L628.432 112.88C629.412 112.82 630.572 112.74 631.912 112.66ZM624.192 116.6V116.82C624.192 117.84 623.872 119.62 622.492 120.74C622.232 120.54 621.672 120.24 621.352 120.08C622.612 119.1 622.852 117.62 622.852 116.78V116.6H621.412V115.38H625.792V113.86H622.352V109.76H623.632V112.66H625.792V109.32H627.172V120.58H625.792V116.6H624.192ZM639.452 123.22H631.872C634.372 124.14 637.732 125.48 639.532 126.34L638.812 127.52C637.052 126.62 633.512 125.12 630.912 124.12L631.532 123.22H630.592C629.812 124.88 627.652 126.62 622.012 127.58C621.852 127.24 621.492 126.7 621.172 126.38C625.792 125.62 627.892 124.4 628.852 123.22H621.332V121.96H629.452C629.512 121.68 629.532 121.44 629.532 121.2V119.98H630.992V121.24C630.992 121.48 630.972 121.7 630.952 121.96H635.032C634.592 121.54 633.952 121.04 633.432 120.66L634.032 120.12H633.332C633.272 119.76 633.092 119.32 632.912 118.96C633.832 119 634.632 119 634.852 119C635.112 118.98 635.172 118.92 635.172 118.7V116.72H630.512C631.312 117.2 632.192 117.92 632.632 118.48L631.652 119.28C631.232 118.7 630.292 117.9 629.492 117.38L630.332 116.72H627.952V115.66H635.172V114.2H636.592V115.66H639.112V116.72H636.592V118.74C636.592 119.44 636.452 119.74 635.912 119.94C635.572 120.06 635.052 120.1 634.352 120.12C634.972 120.54 635.752 121.12 636.132 121.52L635.712 121.96H639.452V123.22ZM659.212 117.74L658.252 118.08C658.192 117.84 658.112 117.52 657.992 117.18C655.092 117.64 654.612 117.74 654.372 117.88C654.292 117.64 654.112 117.02 653.972 116.72C654.292 116.66 654.592 116.32 654.972 115.84C655.192 115.58 655.652 114.92 656.172 114.06C654.692 114.26 654.352 114.36 654.152 114.46C654.092 114.2 653.912 113.66 653.772 113.34C654.012 113.32 654.232 113.06 654.472 112.68C654.692 112.34 655.512 110.88 655.912 109.54L657.032 109.88C656.532 111.06 655.912 112.24 655.292 113.16L656.752 113C657.012 112.56 657.252 112.08 657.452 111.62L658.592 112.04C657.732 113.68 656.692 115.26 655.672 116.52L657.672 116.24C657.512 115.84 657.352 115.42 657.192 115.04L658.092 114.78C658.532 115.72 659.012 117 659.212 117.74ZM652.012 118.08L651.032 118.42C650.972 118.18 650.892 117.9 650.812 117.58C647.952 118.02 647.492 118.1 647.212 118.26C647.172 118.02 647.012 117.44 646.872 117.14C647.152 117.08 647.492 116.74 647.892 116.24C648.092 116 648.612 115.3 649.172 114.44C647.612 114.66 647.232 114.76 647.032 114.86C646.992 114.62 646.812 114.04 646.692 113.76C646.932 113.7 647.172 113.44 647.432 113.02C647.712 112.62 648.612 111.08 649.112 109.58L650.232 109.94C649.672 111.24 648.952 112.56 648.232 113.56L649.812 113.4C650.052 112.96 650.292 112.52 650.492 112.06L651.572 112.48C650.692 114.08 649.632 115.66 648.572 116.9L650.512 116.64C650.372 116.2 650.212 115.78 650.052 115.38L650.992 115.12C651.412 116.08 651.852 117.34 652.012 118.08ZM646.592 118.84L645.872 119.94C645.672 119.4 645.232 118.46 644.812 117.62V127.52H643.512V118C643.012 120.06 642.332 122.02 641.632 123.24C641.512 122.82 641.172 122.16 640.992 121.8C641.952 120.18 642.912 117.12 643.392 114.5H641.392V113.1H643.512V109.26H644.812V113.1H646.392V114.5H644.812V115.8C645.252 116.5 646.332 118.36 646.592 118.84ZM656.832 120.96L658.112 121.42C657.492 122.62 656.672 123.68 655.652 124.62C656.232 125.5 656.932 125.98 657.732 126.06C658.152 126.1 658.412 125.34 658.572 123.9C658.812 124.18 659.312 124.52 659.572 124.66C659.192 126.84 658.572 127.58 657.772 127.52C656.472 127.44 655.432 126.72 654.612 125.48C653.572 126.24 652.392 126.9 651.112 127.42C650.952 127.16 650.592 126.72 650.312 126.48C651.692 125.94 652.972 125.24 654.032 124.4C653.572 123.38 653.192 122.14 652.872 120.74H649.612V121.04C649.612 121.18 649.612 121.34 649.592 121.5C650.552 122.24 651.752 123.26 652.352 123.88L651.432 124.78C650.972 124.3 650.192 123.56 649.412 122.9C649.072 124.5 648.232 126.22 646.472 127.56C646.272 127.28 645.772 126.82 645.492 126.66C647.832 124.94 648.332 122.7 648.332 121.02V120.74H646.812V119.54H652.652C652.172 116.7 651.912 113.24 651.792 109.42H653.072C653.172 113.32 653.452 116.8 653.952 119.54H656.812C656.332 119.12 655.612 118.62 655.032 118.26L655.792 117.56C656.492 117.96 657.412 118.58 657.872 119L657.352 119.54H659.012V120.74H654.192C654.452 121.8 654.712 122.72 655.052 123.48C655.792 122.72 656.412 121.86 656.832 120.96ZM674.572 122H666.292V123.36H674.572V122ZM666.292 125.78H674.572V124.42H666.292V125.78ZM664.832 127.5V120.94H676.072V127.44H674.572V126.84H666.292V127.5H664.832ZM673.212 118.9L672.212 118.54C672.572 117.88 673.092 116.82 673.312 116.14L674.572 116.54C674.132 117.4 673.632 118.3 673.212 118.9ZM666.152 116.56L667.212 116.22C667.732 116.92 668.232 117.84 668.412 118.48L667.272 118.9C667.112 118.26 666.652 117.3 666.152 116.56ZM664.952 116V118.98H669.672V116H664.952ZM675.692 118.98V116H670.932V118.98H675.692ZM663.672 120V114.96H677.032V120H663.672ZM667.852 112.9H673.072C672.112 112.3 671.192 111.62 670.432 110.9C669.672 111.64 668.792 112.32 667.852 112.9ZM670.232 109.2L671.532 109.68C671.432 109.8 671.332 109.94 671.252 110.06C673.112 111.88 676.572 113.48 679.692 114.22C679.392 114.48 678.972 115 678.752 115.36C677.132 114.9 675.412 114.22 673.852 113.36V113.98H666.932V113.44C665.392 114.28 663.692 114.96 662.032 115.48C661.872 115.22 661.452 114.62 661.192 114.34C664.812 113.38 668.352 111.62 670.232 109.2ZM686.332 125.22H695.612C697.032 125.22 697.392 124.5 697.532 121.1C697.952 121.34 698.612 121.56 699.052 121.66C698.772 125.78 697.972 126.72 695.472 126.72H686.492C683.592 126.72 682.212 125.68 682.212 123.96C682.212 122.48 682.712 120.96 693.012 112.42H682.332V110.92H695.112L695.472 110.82L696.512 111.56C696.452 111.64 696.352 111.72 696.212 111.78C684.472 121.32 683.792 122.78 683.792 123.84C683.792 124.8 684.792 125.22 686.332 125.22ZM717.052 114.14H709.812C709.192 115.76 708.512 117.2 707.712 118.34C707.392 118.08 706.652 117.68 706.252 117.5C707.772 115.56 708.872 112.44 709.472 109.28L711.072 109.58C710.872 110.64 710.592 111.68 710.292 112.68H717.532L717.812 112.6L718.912 113.18C718.392 115.12 717.512 117.22 716.812 118.6C716.492 118.42 715.932 118.12 715.572 117.96C716.052 117.02 716.652 115.52 717.052 114.14ZM707.092 112.4V113.84H701.852V112.4H707.092ZM707.692 120.6V122.06H701.412V120.6H707.692ZM713.012 114.98V116.54C713.012 116.84 713.012 117.14 712.992 117.42C713.912 121.64 715.892 124.84 719.532 126.1C719.232 126.4 718.772 126.98 718.552 127.4C715.552 126.18 713.692 123.8 712.552 120.58C711.852 123.02 710.212 125.58 706.392 127.58C706.152 127.24 705.612 126.68 705.272 126.42C711.012 123.52 711.452 119.36 711.452 116.5V114.98H713.012ZM17.88 167.92C15.48 165.48 13.9 162.3 13.9 158.4C13.9 154.5 15.48 151.32 17.88 148.88L19.08 149.5C16.78 151.88 15.36 154.84 15.36 158.4C15.36 161.96 16.78 164.92 19.08 167.3L17.88 167.92ZM26.62 162.24L28.16 162.84C26.74 164.56 24.48 166.4 22.48 167.56C22.2 167.26 21.66 166.78 21.3 166.5C23.26 165.48 25.5 163.74 26.62 162.24ZM31.74 162.98L33.02 162.22C34.86 163.52 37.34 165.44 38.6 166.62L37.2 167.54C36.02 166.36 33.62 164.38 31.74 162.98ZM27.16 154.92V159.64H32.84V154.92H27.16ZM34.36 159.64H39.04V161.08H21.06V159.64H25.66V154.92H21.86V153.48H25.66V149.44H27.16V153.48H32.84V149.44H34.36V153.48H38.32V154.92H34.36V159.64ZM47.34 157.92L47.54 159.26L45.1 160.02V165.82C45.1 166.64 44.9 167.04 44.38 167.28C43.88 167.5 43.08 167.54 41.76 167.54C41.7 167.16 41.5 166.58 41.3 166.18C42.2 166.2 43.04 166.2 43.28 166.2C43.56 166.2 43.66 166.1 43.66 165.82V160.46L41.04 161.28L40.64 159.84C41.48 159.62 42.52 159.32 43.66 158.98V154.66H40.9V153.28H43.66V149.28H45.1V153.28H47.32V154.66H45.1V158.6C45.84 158.38 46.58 158.14 47.34 157.92ZM54 164.64H57.3V160.56H54V164.64ZM49.44 160.56V164.64H52.58V160.56H49.44ZM52.58 155.26H49.44V159.16H52.58V155.26ZM57.3 155.26H54V159.16H57.3V155.26ZM54 153.84H58.76V167.34H57.3V166.06H49.44V167.48H48.02V153.84H52.58V149.3H54V153.84ZM65.28 166.26C62.98 166.26 61.54 165.3 60.58 164.26L61.5 163.06C62.36 163.96 63.48 164.74 65.14 164.74C66.88 164.74 68.12 163.7 68.12 162.02C68.12 160.26 66.94 159.08 63.56 159.08V157.68C66.58 157.68 67.62 156.46 67.62 154.88C67.62 153.46 66.66 152.56 65.14 152.52C63.96 152.56 62.92 153.16 62.1 153.98L61.12 152.82C62.22 151.8 63.52 151.06 65.22 151.06C67.68 151.06 69.48 152.38 69.48 154.74C69.48 156.52 68.42 157.7 66.86 158.28V158.36C68.6 158.76 69.98 160.08 69.98 162.08C69.98 164.7 67.88 166.26 65.28 166.26ZM76.6538 166.26C73.8538 166.26 72.0738 163.72 72.0738 158.62C72.0738 153.52 73.8538 151.06 76.6538 151.06C79.4338 151.06 81.2138 153.54 81.2138 158.62C81.2138 163.72 79.4338 166.26 76.6538 166.26ZM76.6538 164.8C78.3138 164.8 79.4338 162.94 79.4338 158.62C79.4338 154.34 78.3138 152.54 76.6538 152.54C74.9738 152.54 73.8538 154.34 73.8538 158.62C73.8538 162.94 74.9738 164.8 76.6538 164.8ZM87.7475 166.26C84.9475 166.26 83.1675 163.72 83.1675 158.62C83.1675 153.52 84.9475 151.06 87.7475 151.06C90.5275 151.06 92.3075 153.54 92.3075 158.62C92.3075 163.72 90.5275 166.26 87.7475 166.26ZM87.7475 164.8C89.4075 164.8 90.5275 162.94 90.5275 158.62C90.5275 154.34 89.4075 152.54 87.7475 152.54C86.0675 152.54 84.9475 154.34 84.9475 158.62C84.9475 162.94 86.0675 164.8 87.7475 164.8ZM99.8213 165.12H108.701V160.58H99.8213V165.12ZM107.921 152.62H100.521C100.101 153.04 99.6413 153.42 99.1813 153.82C100.541 154.78 102.221 156.04 103.201 156.98C105.121 155.78 106.781 154.3 107.921 152.62ZM110.221 159.2V167.52H108.701V166.48H99.8213V167.52H98.3613V160.94C97.2613 161.32 96.1413 161.64 95.0413 161.9C94.9213 161.5 94.5813 160.86 94.2813 160.54C96.8213 160.02 99.4613 159.08 101.821 157.8C100.861 156.84 99.3413 155.64 98.0213 154.66C97.3213 155.14 96.5813 155.6 95.7812 156C95.5613 155.66 95.0813 155.1 94.7613 154.88C97.9813 153.32 100.241 151.1 101.441 149.2L103.101 149.56C102.721 150.12 102.301 150.7 101.801 151.26H108.881L109.121 151.18L110.121 151.8C108.481 154.98 105.601 157.44 102.281 159.2H110.221ZM121.641 162.24L121.201 161.18C122.741 160.54 123.621 159.6 123.721 158.24C123.601 158.26 123.501 158.26 123.381 158.26C122.561 158.26 121.881 157.78 121.881 156.84C121.881 155.9 122.581 155.4 123.401 155.4C124.501 155.4 125.101 156.3 125.101 157.7C125.101 159.86 123.741 161.5 121.641 162.24ZM151.701 152.62H138.621C137.641 154.2 136.541 155.64 135.461 156.72C135.141 156.48 134.521 156.06 134.141 155.84C135.981 154.24 137.701 151.68 138.741 149.16L140.201 149.58C139.941 150.14 139.681 150.72 139.381 151.28H151.701V152.62ZM144.561 163.62H147.841C147.921 162.8 148.001 161.74 148.081 160.38H138.501C138.341 161.54 138.161 162.66 138.001 163.62H144.181C143.341 162.84 141.881 161.86 140.601 161.2L141.441 160.38C142.801 161.02 144.441 162.06 145.241 162.88L144.561 163.62ZM148.261 155.96H139.101C138.961 156.98 138.821 158.04 138.661 159.1H144.661C143.881 158.38 142.401 157.42 141.101 156.86L141.941 156.02C143.241 156.58 144.781 157.5 145.581 158.22L144.721 159.1H148.141C148.181 158.16 148.221 157.14 148.261 155.96ZM152.381 160.42H149.541C149.461 161.72 149.401 162.78 149.301 163.62H151.701V164.94H149.141C148.981 165.94 148.781 166.48 148.561 166.8C148.181 167.28 147.761 167.46 147.161 167.52C146.581 167.56 145.581 167.54 144.601 167.48C144.581 167.14 144.421 166.64 144.221 166.3C145.241 166.38 146.161 166.4 146.541 166.38C146.901 166.38 147.081 166.34 147.281 166.1C147.421 165.94 147.561 165.56 147.681 164.94H136.261C136.481 163.72 136.761 162.12 137.021 160.42H134.201V159.06H137.221C137.421 157.52 137.641 155.98 137.781 154.64H149.741C149.741 154.64 149.721 155.18 149.721 155.36C149.681 156.76 149.621 157.98 149.581 159.06H152.381V160.42ZM162.441 149.34H164.081C164.061 150.06 164.041 151.06 163.941 152.24C164.241 154.62 165.441 162.98 172.501 166.12C172.081 166.46 171.641 166.96 171.421 167.38C166.421 165.04 164.281 160.1 163.321 156.38C162.401 160.38 160.281 164.86 155.401 167.46C155.141 167.06 154.661 166.62 154.201 166.3C162.501 162.1 162.381 152.38 162.441 149.34ZM180.181 150.02L181.161 150.6C180.561 152.22 179.841 154.18 179.161 155.76C180.601 157.42 180.961 158.88 180.961 160.12C180.961 161.16 180.721 162.04 180.181 162.42C179.901 162.64 179.521 162.76 179.121 162.8C178.741 162.86 178.221 162.86 177.801 162.84C177.781 162.46 177.641 161.9 177.421 161.52C177.881 161.56 178.261 161.58 178.581 161.54C178.821 161.52 179.041 161.48 179.201 161.36C179.501 161.14 179.621 160.58 179.621 159.98C179.621 158.9 179.261 157.52 177.821 155.92C178.401 154.48 179.001 152.76 179.401 151.44H176.501V167.5H175.181V150.08H179.961L180.181 150.02ZM183.581 155.1V157.58H189.441V155.1H183.581ZM189.441 151.46H183.581V153.86H189.441V151.46ZM191.101 159.52L192.081 160.56C191.061 161.4 189.741 162.28 188.641 162.94C189.621 164.36 190.901 165.46 192.501 166.12C192.181 166.4 191.721 167 191.481 167.38C188.361 165.9 186.501 162.84 185.501 158.88H183.581V165.46L187.101 164.6C187.101 165.04 187.121 165.64 187.181 165.96C183.061 167.08 182.461 167.28 182.061 167.54C181.961 167.22 181.641 166.6 181.401 166.32C181.721 166.16 182.141 165.74 182.141 164.92V150.14H190.881V158.88H186.801C187.101 159.96 187.481 160.98 187.981 161.88C189.021 161.18 190.281 160.24 191.101 159.52ZM208.561 151.86V153.18H207.161V149.28H208.561V150.72H212.381V151.86H208.561ZM205.961 156.2V155.26H202.781V156.2H205.961ZM205.961 158.1V157.08H202.781V158.1H205.961ZM205.961 160.02V158.98H202.781V160.02H205.961ZM203.701 153.14V151.92H200.381V150.76H203.701V149.28H205.041V153.06L206.081 152.5C206.661 153.1 207.321 153.82 207.661 154.28H211.621V155.26H207.301V156.2H211.121V157.08H207.301V158.1H211.121V158.98H207.301V160.02H211.861V161H202.781V161.54H201.481V156.26C201.161 156.64 200.861 156.94 200.561 157.24C200.341 157.02 199.841 156.54 199.541 156.32C200.641 155.4 201.681 154.04 202.341 152.7L203.601 153.1C203.421 153.5 203.201 153.88 202.961 154.28H206.061C205.741 153.88 205.381 153.44 205.041 153.1V153.14H203.701ZM199.061 149.68L200.141 150.4C199.681 151.26 199.021 152.18 198.321 153.06C199.441 155.22 199.641 157.56 199.641 159.96C199.641 162.8 199.441 165.32 198.661 166.44C198.401 166.8 198.021 167.02 197.581 167.1C196.901 167.24 196.121 167.24 195.281 167.2C195.261 166.72 195.101 166.16 194.841 165.74C195.801 165.82 196.541 165.8 197.001 165.76C197.281 165.72 197.461 165.62 197.621 165.4C198.101 164.74 198.281 162.5 198.281 159.92C198.281 159.56 198.281 159.2 198.261 158.84C197.321 160.36 196.101 161.78 194.961 162.7C194.801 162.32 194.421 161.74 194.121 161.44C195.601 160.46 197.181 158.5 198.061 156.64C197.921 155.78 197.701 154.96 197.341 154.16C196.521 155.06 195.661 155.86 194.841 156.48C194.661 156.08 194.301 155.48 194.001 155.14C194.861 154.62 195.821 153.8 196.681 152.88C196.161 152.1 195.501 151.32 194.661 150.56L195.661 149.74C196.441 150.42 197.061 151.14 197.581 151.84C198.161 151.14 198.701 150.38 199.061 149.68ZM209.101 163.08H202.861C203.641 163.76 204.721 164.34 205.981 164.82C207.221 164.34 208.281 163.76 209.101 163.08ZM210.581 161.88L211.441 162.48C210.541 163.66 209.201 164.6 207.661 165.34C209.201 165.8 210.901 166.1 212.621 166.28C212.321 166.56 211.941 167.1 211.761 167.46C209.761 167.2 207.741 166.72 205.941 166.08C204.101 166.74 202.081 167.2 200.041 167.52C199.921 167.18 199.601 166.6 199.361 166.34C201.061 166.14 202.781 165.82 204.321 165.36C203.141 164.8 202.121 164.12 201.341 163.34L201.941 163.08H200.621V161.94H210.321L210.581 161.88ZM229.561 151.22H225.501C226.181 151.74 226.841 152.34 227.341 152.92C228.221 152.44 228.961 151.9 229.561 151.22ZM230.601 150.24L231.381 150.68C229.601 153.74 225.521 155.06 221.381 155.64C221.261 155.34 221.001 154.94 220.761 154.7C222.741 154.48 224.681 154.06 226.381 153.36C225.861 152.76 225.141 152.06 224.441 151.52C223.621 151.88 222.761 152.2 221.781 152.5C221.601 152.22 221.221 151.82 220.961 151.64C223.401 151 225.281 150.12 226.341 149.22L227.641 149.5C227.341 149.78 227.001 150.04 226.621 150.3H230.341L230.601 150.24ZM224.841 152.66L224.861 153.48C223.641 153.6 222.541 153.68 221.521 153.76L221.361 152.88C222.341 152.82 223.501 152.74 224.841 152.66ZM217.121 156.6V156.82C217.121 157.84 216.801 159.62 215.421 160.74C215.161 160.54 214.601 160.24 214.281 160.08C215.541 159.1 215.781 157.62 215.781 156.78V156.6H214.341V155.38H218.721V153.86H215.281V149.76H216.561V152.66H218.721V149.32H220.101V160.58H218.721V156.6H217.121ZM232.381 163.22H224.801C227.301 164.14 230.661 165.48 232.461 166.34L231.741 167.52C229.981 166.62 226.441 165.12 223.841 164.12L224.461 163.22H223.521C222.741 164.88 220.581 166.62 214.941 167.58C214.781 167.24 214.421 166.7 214.101 166.38C218.721 165.62 220.821 164.4 221.781 163.22H214.261V161.96H222.381C222.441 161.68 222.461 161.44 222.461 161.2V159.98H223.921V161.24C223.921 161.48 223.901 161.7 223.881 161.96H227.961C227.521 161.54 226.881 161.04 226.361 160.66L226.961 160.12H226.261C226.201 159.76 226.021 159.32 225.841 158.96C226.761 159 227.561 159 227.781 159C228.041 158.98 228.101 158.92 228.101 158.7V156.72H223.441C224.241 157.2 225.121 157.92 225.561 158.48L224.581 159.28C224.161 158.7 223.221 157.9 222.421 157.38L223.261 156.72H220.881V155.66H228.101V154.2H229.521V155.66H232.041V156.72H229.521V158.74C229.521 159.44 229.381 159.74 228.841 159.94C228.501 160.06 227.981 160.1 227.281 160.12C227.901 160.54 228.681 161.12 229.061 161.52L228.641 161.96H232.381V163.22ZM239.261 165.22H248.541C249.961 165.22 250.321 164.5 250.461 161.1C250.881 161.34 251.541 161.56 251.981 161.66C251.701 165.78 250.901 166.72 248.401 166.72H239.421C236.521 166.72 235.141 165.68 235.141 163.96C235.141 162.48 235.641 160.96 245.941 152.42H235.261V150.92H248.041L248.401 150.82L249.441 151.56C249.381 151.64 249.281 151.72 249.141 151.78C237.401 161.32 236.721 162.78 236.721 163.84C236.721 164.8 237.721 165.22 239.261 165.22ZM269.981 154.14H262.741C262.121 155.76 261.441 157.2 260.641 158.34C260.321 158.08 259.581 157.68 259.181 157.5C260.701 155.56 261.801 152.44 262.401 149.28L264.001 149.58C263.801 150.64 263.521 151.68 263.221 152.68H270.461L270.741 152.6L271.841 153.18C271.321 155.12 270.441 157.22 269.741 158.6C269.421 158.42 268.861 158.12 268.501 157.96C268.981 157.02 269.581 155.52 269.981 154.14ZM260.021 152.4V153.84H254.781V152.4H260.021ZM260.621 160.6V162.06H254.341V160.6H260.621ZM265.941 154.98V156.54C265.941 156.84 265.941 157.14 265.921 157.42C266.841 161.64 268.821 164.84 272.461 166.1C272.161 166.4 271.701 166.98 271.481 167.4C268.481 166.18 266.621 163.8 265.481 160.58C264.781 163.02 263.141 165.58 259.321 167.58C259.081 167.24 258.541 166.68 258.201 166.42C263.941 163.52 264.381 159.36 264.381 156.5V154.98H265.941ZM275.401 148.88C277.801 151.32 279.381 154.5 279.381 158.4C279.381 162.3 277.801 165.48 275.401 167.92L274.201 167.3C276.501 164.92 277.921 161.96 277.921 158.4C277.921 154.84 276.501 151.88 274.201 149.5L275.401 148.88ZM300.301 158.42C300.301 156.74 301.681 155.38 303.341 155.38C305.021 155.38 306.381 156.74 306.381 158.42C306.381 160.1 305.021 161.46 303.341 161.46C301.681 161.46 300.301 160.1 300.301 158.42ZM301.321 158.42C301.321 159.54 302.241 160.44 303.341 160.44C304.461 160.44 305.361 159.54 305.361 158.42C305.361 157.3 304.461 156.4 303.341 156.4C302.241 156.4 301.321 157.3 301.321 158.42Z" fill="black"/>
<path d="M14.74 192.36L13.5 193.08C13.16 192.22 12.3 190.88 11.48 189.9L12.64 189.28C13.44 190.22 14.34 191.52 14.74 192.36ZM5.92 191.76L4.72 192.38C4.54 191.68 3.96 190.66 3.42 189.88L4.54 189.34C5.1 190.08 5.7 191.1 5.92 191.76ZM6.46 201.92H3.44V205.1H6.46V201.92ZM7.84 200.74V206.26H3.44V207.24H2.08V200.74H7.84ZM1.7 199.26V198.06H7.9V199.26H1.7ZM2 195.3H7.88V196.5H2V195.3ZM0.98 193.7V192.46H8.34L8.32 193.7H0.98ZM14.36 205.28H19.1V206.68H8.5V205.28H12.9V200.1H9.2V198.72H12.9V194.54H8.86V193.12H18.72V194.54H14.36V198.72H18.26V200.1H14.36V205.28ZM30 195.12C29.2 195.12 28.48 194.54 28.48 193.62C28.48 192.7 29.2 192.12 30 192.12C30.8 192.12 31.52 192.7 31.52 193.62C31.52 194.54 30.8 195.12 30 195.12ZM30 204.92C29.2 204.92 28.48 204.32 28.48 203.42C28.48 202.5 29.2 201.9 30 201.9C30.8 201.9 31.52 202.5 31.52 203.42C31.52 204.32 30.8 204.92 30 204.92ZM45.56 192.02L44.36 192.72C44.08 191.96 43.4 190.76 42.84 189.9L43.98 189.34C44.56 190.18 45.24 191.32 45.56 192.02ZM47.58 201.08L46.78 202.22C46.42 201.62 45.66 200.46 45 199.5V207.52H43.6V199.74C42.86 200.68 42.1 201.5 41.36 202.16C41.22 201.8 40.88 201.08 40.66 200.82C42.48 199.3 44.44 196.7 45.54 194.16H40.88V192.8H46.24L46.46 192.74L47.2 193.32C46.66 194.84 45.88 196.36 45 197.74V197.82C45.16 198 45.36 198.26 45.58 198.54C46.12 197.94 46.76 197.14 47.14 196.6L48.04 197.42C47.42 198.06 46.74 198.78 46.18 199.26C46.78 200.02 47.36 200.8 47.58 201.08ZM56.44 198.38H51.32C51.92 200.06 52.78 201.56 53.9 202.8C55 201.58 55.86 200.1 56.44 198.38ZM52.74 193.6H49.86V197.06H52.74V193.6ZM57.26 197L58.14 197.36C57.52 200.02 56.36 202.14 54.9 203.78C56.12 204.86 57.58 205.7 59.28 206.2C58.96 206.5 58.54 207.06 58.36 207.46C56.62 206.86 55.14 205.96 53.9 204.78C52.58 205.98 51.06 206.88 49.44 207.52C49.28 207.16 48.92 206.6 48.62 206.32C50.18 205.78 51.66 204.94 52.94 203.78C51.66 202.3 50.7 200.48 50.02 198.38H49.84C49.76 201.26 49.24 204.9 47.24 207.4C47.04 207.1 46.46 206.62 46.18 206.44C48.26 203.82 48.48 200.16 48.48 197.4V192.2H52.74V189.28H54.14V192.2H57.72L57.96 192.14L59 192.42C58.62 193.82 58.14 195.42 57.72 196.42L56.48 196.12C56.72 195.48 57 194.52 57.22 193.6H54.14V197.06H56.98L57.26 197ZM67.5 194.18V195.4H70.8V194.18H67.5ZM67.5 192.02V193.2H70.8V192.02H67.5ZM70.82 200.96H68.66C68.32 202.42 67.72 203.58 66.58 204.4C66.42 204.12 66.04 203.7 65.78 203.52C67.14 202.54 67.58 200.82 67.7 198.8H65.56V197.72H68.66C68.48 197.38 68.28 197.06 68.08 196.76L69.02 196.4H66.28V191.02H68.32C68.5 190.44 68.68 189.76 68.74 189.28L70.24 189.48C70.04 190 69.82 190.52 69.6 191.02H72.08V196.3C73.14 194.54 73.82 191.96 74.24 189.38L75.5 189.56C75.34 190.54 75.14 191.52 74.9 192.42H78.94V193.7H78.1C77.82 195.94 77.36 197.92 76.7 199.58C77.6 201 78.42 202.42 78.92 203.48L77.82 204.02C77.4 203.14 76.82 202.02 76.12 200.84C75.24 202.56 74.02 203.92 72.4 205C72.24 204.74 71.78 204.26 71.48 204.02C73.28 202.94 74.48 201.48 75.34 199.58C74.74 198.6 74.1 197.64 73.5 196.78L74.54 196.32C74.98 196.94 75.42 197.58 75.86 198.26C76.3 196.92 76.6 195.38 76.8 193.7H74.54C74.12 195.12 73.56 196.42 72.94 197.44C72.7 197.24 72.18 196.84 71.86 196.66L72.02 196.4H69.3C69.58 196.8 69.9 197.3 70.1 197.72H72.84V198.8H68.96C68.94 199.16 68.9 199.54 68.84 199.88H72.1C72.1 199.88 72.1 200.2 72.08 200.38C71.98 202.56 71.86 203.44 71.56 203.78C71.34 204.04 71.06 204.16 70.64 204.18C70.36 204.2 69.78 204.22 69.24 204.18C69.2 203.86 69.1 203.42 68.94 203.14C69.48 203.2 69.92 203.2 70.12 203.2C70.3 203.2 70.4 203.18 70.52 203.06C70.66 202.88 70.74 202.34 70.82 200.96ZM64.2 192.64L62.94 193.04C62.74 192.2 62.3 190.82 61.98 189.78L63.2 189.44C63.54 190.48 63.96 191.78 64.2 192.64ZM64.5 198.54L65.12 198.78C64.82 200.54 64.34 202.52 63.74 204.02C64.14 204.22 64.62 204.64 65.44 205.12C66.88 205.96 68.74 206.1 71.12 206.1C73.8 206.1 77.06 205.92 79.34 205.68C79.18 206.06 78.92 206.76 78.9 207.16C77.42 207.26 73.52 207.4 71.08 207.4C68.42 207.4 66.64 207.18 65.12 206.3C64.3 205.8 63.56 205.14 63.1 205.14C62.72 205.14 62.12 206.4 61.66 207.64L60.66 206.36C61.28 205.38 61.88 204.56 62.44 204.14C62.96 202.96 63.4 201.36 63.68 199.9H61.52C61.98 198.7 62.56 196.98 63.02 195.38H61V194.1H64.7C64.26 195.54 63.74 197.22 63.26 198.6H64.28L64.5 198.54ZM85.6 191.94L84.32 192.4C84.14 191.68 83.68 190.54 83.32 189.7L84.56 189.32C84.98 190.14 85.42 191.24 85.6 191.94ZM85.88 201.8H82.82V205.14H85.88V201.8ZM87.2 200.58V206.36H82.82V207.28H81.52V200.58H87.2ZM81.44 199.02V197.84H87.26V199.02H81.44ZM87.24 195.14V196.32H81.42V195.14H87.24ZM80.96 193.84V192.62H87.82V193.84H80.96ZM90.52 203.22H96.58V201.74H90.58C90.58 202.2 90.56 202.7 90.52 203.22ZM96.58 199.2H90.58V200.68H96.58V199.2ZM97.98 198.02V205.98C97.98 206.7 97.84 207.06 97.3 207.28C96.8 207.5 95.98 207.5 94.72 207.5C94.66 207.12 94.5 206.62 94.3 206.26C95.2 206.3 96.02 206.3 96.26 206.28C96.52 206.28 96.58 206.2 96.58 205.98V204.28H90.38C90.16 205.54 89.76 206.8 88.94 207.78C88.72 207.5 88.2 206.96 87.9 206.8C89.08 205.3 89.22 203.28 89.22 201.7V198.02H97.98ZM94.22 195.7H99.14V196.84H88.04V195.7H92.76V194.34H88.76V193.26H92.76V192.04H88.26V190.9H92.76V189.28H94.22V190.9H98.94V192.04H94.22V193.26H98.56V194.34H94.22V195.7ZM109.16 189.34H110.8C110.78 190.06 110.76 191.06 110.66 192.24C110.96 194.62 112.16 202.98 119.22 206.12C118.8 206.46 118.36 206.96 118.14 207.38C113.14 205.04 111 200.1 110.04 196.38C109.12 200.38 107 204.86 102.12 207.46C101.86 207.06 101.38 206.62 100.92 206.3C109.22 202.1 109.1 192.38 109.16 189.34ZM130.86 191.38V192.22C130.86 194 130.32 196.14 127.86 197.56C127.68 197.26 127.16 196.7 126.9 196.46C129.1 195.24 129.46 193.6 129.46 192.18V189.98H135.76V194.6C135.76 195.16 135.82 195.36 136.14 195.36H137.68C137.98 195.36 138.42 195.32 138.68 195.26C138.7 195.64 138.74 196.2 138.8 196.54C138.54 196.62 138.12 196.64 137.72 196.64H136.04C134.66 196.64 134.34 196.06 134.34 194.58V191.38H130.86ZM127.22 199.4L125.16 200.02V205.64C125.16 206.48 124.94 206.88 124.42 207.1C123.92 207.34 123.08 207.38 121.72 207.38C121.66 207 121.44 206.4 121.26 206C122.22 206.04 123.08 206.02 123.32 206.02C123.6 206.02 123.7 205.92 123.7 205.64V200.48L121.18 201.22L120.74 199.78C121.56 199.58 122.58 199.3 123.7 198.98V194.68H120.98V193.28H123.7V189.28H125.16V193.28H127.64V194.68H125.16V198.58L127.02 198.04L127.22 199.4ZM135.7 199.44H129.54C130.24 200.9 131.3 202.18 132.58 203.26C133.88 202.22 134.98 200.96 135.7 199.44ZM136.74 197.98L137.7 198.42C136.9 200.82 135.52 202.7 133.8 204.14C135.3 205.08 137.1 205.78 139.1 206.2C138.76 206.52 138.36 207.14 138.16 207.56C136.02 207.04 134.12 206.2 132.56 205.06C130.82 206.24 128.8 207.04 126.7 207.58C126.56 207.16 126.24 206.54 125.96 206.22C127.88 205.8 129.74 205.1 131.36 204.1C130 202.84 128.9 201.3 128.1 199.52L128.3 199.44H127.52V198.04H136.46L136.74 197.98ZM145.56 189.32L146.96 189.74C146.38 191.2 145.66 192.66 144.86 194V207.48H143.44V196.16C142.78 197.08 142.06 197.92 141.36 198.64C141.2 198.32 140.78 197.54 140.52 197.2C142.5 195.3 144.42 192.34 145.56 189.32ZM149.22 201.24L150.54 201.66C149.6 203.34 148.28 205.28 147.16 206.56C146.9 206.32 146.32 205.9 146 205.7C147.14 204.54 148.38 202.78 149.22 201.24ZM149.02 191.54V195.2H156.44V191.54H149.02ZM159.08 200.26H153.42V207.54H151.94V200.26H146.16V198.9H151.94V196.52H147.62V190.2H157.92V196.52H153.42V198.9H159.08V200.26ZM154.54 201.84L155.68 201.22C156.96 202.64 158.42 204.5 159.14 205.7L157.94 206.44C157.26 205.22 155.8 203.26 154.54 201.84ZM165.86 191.94H162.96V196.36H165.86V191.94ZM162.96 202.28H165.86V197.68H162.96V202.28ZM167.26 190.58V203.64H162.96V205.24H161.58V190.58H167.26ZM168.9 201.8L170.14 201.1C171.08 202.12 172.2 203.58 172.72 204.5L171.42 205.3C170.94 204.34 169.86 202.88 168.9 201.8ZM179.06 193H174.06V195.58H178.42V196.9H176.68V199.08H179V200.4H176.68V205.76C176.68 206.62 176.46 207.04 175.86 207.26C175.22 207.5 174.24 207.52 172.62 207.52C172.56 207.1 172.34 206.52 172.14 206.12C173.36 206.16 174.48 206.16 174.8 206.14C175.12 206.12 175.22 206.04 175.22 205.74V200.4H167.7V199.08H175.22V196.9H168.5V195.58H172.6V193H167.62V191.66H172.6V189.26H174.06V191.66H179.06V193ZM196.86 196.44V194.52H190.16V196.44H196.86ZM196.86 199.48V197.52H190.16V199.48H196.86ZM196.86 202.52V200.56H190.16V202.52H196.86ZM188.76 193.36H192.1C192.24 192.78 192.4 192.12 192.5 191.54H187.84V190.24H199.02V191.54H194.2C194 192.16 193.8 192.8 193.6 193.36H198.32V203.68H188.76V193.36ZM185.86 189.62L187.26 190.2C185.86 191.84 183.74 193.46 181.94 194.5C181.68 194.16 181.24 193.7 180.84 193.44C182.58 192.56 184.68 191.02 185.86 189.62ZM186.22 195.18L187.58 195.76C186.24 197.54 184.1 199.3 182.2 200.4C181.92 200.04 181.5 199.56 181.1 199.26C182.92 198.34 185.06 196.74 186.22 195.18ZM186.64 200.74L188.04 201.28C186.64 203.66 184.3 205.78 181.84 207.08C181.62 206.72 181.18 206.22 180.78 205.9C183.1 204.8 185.44 202.84 186.64 200.74ZM191 204.12L192.28 204.94C191 205.94 188.96 206.96 187.22 207.54C187.02 207.24 186.56 206.78 186.28 206.48C187.98 205.96 190.02 204.98 191 204.12ZM194.36 205L195.46 204.18C196.8 204.84 198.56 205.9 199.48 206.66L198.32 207.56C197.46 206.82 195.7 205.72 194.36 205ZM206.62 201.06L206.88 202.38C204.94 203.22 202.9 204.1 201.3 204.74L200.74 203.26C201.42 203.06 202.22 202.76 203.12 202.42V195.46H200.88V194.04H203.12V189.5H204.56V194.04H206.8V195.46H204.56V201.86C205.24 201.62 205.94 201.34 206.62 201.06ZM210.7 203.84L211.98 204.68C210.72 205.72 208.82 206.84 207.32 207.54C207.14 207.24 206.7 206.8 206.4 206.5C207.88 205.84 209.76 204.74 210.7 203.84ZM213.96 204.72L214.88 203.82C216.22 204.58 217.98 205.74 218.84 206.5L217.86 207.54C217.02 206.76 215.32 205.54 213.96 204.72ZM209.82 201.16V202.5H215.96V201.16H209.82ZM215.96 194.72H209.82V196H215.96V194.72ZM215.96 198.08V196.9H209.82V198.08H215.96ZM209.82 199V200.24H215.96V199H209.82ZM217.32 202.5H219.14V203.8H206.72V202.5H208.5V193.68H211.44C211.54 193.26 211.64 192.82 211.72 192.34H207.48V191.12H211.94C212.06 190.48 212.14 189.84 212.2 189.3L213.78 189.4C213.66 189.94 213.54 190.54 213.4 191.12H218.6V192.34H213.12C213 192.82 212.88 193.26 212.76 193.68H217.32V202.5ZM224.6 190.48H230.96C230.96 194.02 231.42 201.56 239.26 206.22C238.92 206.46 238.32 207.1 238.06 207.46C233.14 204.48 231.02 200.1 230.12 196.32C228.64 201.5 226.12 205.14 222.14 207.48C221.86 207.18 221.2 206.56 220.8 206.3C225.22 204 227.68 199.98 228.9 194.38L229.78 194.52C229.64 193.6 229.56 192.72 229.52 191.96H224.6V190.48ZM253 202.02V189.08H259.32V190.46H254.48V202.02H253ZM267.5 194.18V195.4H270.8V194.18H267.5ZM267.5 192.02V193.2H270.8V192.02H267.5ZM270.82 200.96H268.66C268.32 202.42 267.72 203.58 266.58 204.4C266.42 204.12 266.04 203.7 265.78 203.52C267.14 202.54 267.58 200.82 267.7 198.8H265.56V197.72H268.66C268.48 197.38 268.28 197.06 268.08 196.76L269.02 196.4H266.28V191.02H268.32C268.5 190.44 268.68 189.76 268.74 189.28L270.24 189.48C270.04 190 269.82 190.52 269.6 191.02H272.08V196.3C273.14 194.54 273.82 191.96 274.24 189.38L275.5 189.56C275.34 190.54 275.14 191.52 274.9 192.42H278.94V193.7H278.1C277.82 195.94 277.36 197.92 276.7 199.58C277.6 201 278.42 202.42 278.92 203.48L277.82 204.02C277.4 203.14 276.82 202.02 276.12 200.84C275.24 202.56 274.02 203.92 272.4 205C272.24 204.74 271.78 204.26 271.48 204.02C273.28 202.94 274.48 201.48 275.34 199.58C274.74 198.6 274.1 197.64 273.5 196.78L274.54 196.32C274.98 196.94 275.42 197.58 275.86 198.26C276.3 196.92 276.6 195.38 276.8 193.7H274.54C274.12 195.12 273.56 196.42 272.94 197.44C272.7 197.24 272.18 196.84 271.86 196.66L272.02 196.4H269.3C269.58 196.8 269.9 197.3 270.1 197.72H272.84V198.8H268.96C268.94 199.16 268.9 199.54 268.84 199.88H272.1C272.1 199.88 272.1 200.2 272.08 200.38C271.98 202.56 271.86 203.44 271.56 203.78C271.34 204.04 271.06 204.16 270.64 204.18C270.36 204.2 269.78 204.22 269.24 204.18C269.2 203.86 269.1 203.42 268.94 203.14C269.48 203.2 269.92 203.2 270.12 203.2C270.3 203.2 270.4 203.18 270.52 203.06C270.66 202.88 270.74 202.34 270.82 200.96ZM264.2 192.64L262.94 193.04C262.74 192.2 262.3 190.82 261.98 189.78L263.2 189.44C263.54 190.48 263.96 191.78 264.2 192.64ZM264.5 198.54L265.12 198.78C264.82 200.54 264.34 202.52 263.74 204.02C264.14 204.22 264.62 204.64 265.44 205.12C266.88 205.96 268.74 206.1 271.12 206.1C273.8 206.1 277.06 205.92 279.34 205.68C279.18 206.06 278.92 206.76 278.9 207.16C277.42 207.26 273.52 207.4 271.08 207.4C268.42 207.4 266.64 207.18 265.12 206.3C264.3 205.8 263.56 205.14 263.1 205.14C262.72 205.14 262.12 206.4 261.66 207.64L260.66 206.36C261.28 205.38 261.88 204.56 262.44 204.14C262.96 202.96 263.4 201.36 263.68 199.9H261.52C261.98 198.7 262.56 196.98 263.02 195.38H261V194.1H264.7C264.26 195.54 263.74 197.22 263.26 198.6H264.28L264.5 198.54ZM285.6 191.94L284.32 192.4C284.14 191.68 283.68 190.54 283.32 189.7L284.56 189.32C284.98 190.14 285.42 191.24 285.6 191.94ZM285.88 201.8H282.82V205.14H285.88V201.8ZM287.2 200.58V206.36H282.82V207.28H281.52V200.58H287.2ZM281.44 199.02V197.84H287.26V199.02H281.44ZM287.24 195.14V196.32H281.42V195.14H287.24ZM280.96 193.84V192.62H287.82V193.84H280.96ZM290.52 203.22H296.58V201.74H290.58C290.58 202.2 290.56 202.7 290.52 203.22ZM296.58 199.2H290.58V200.68H296.58V199.2ZM297.98 198.02V205.98C297.98 206.7 297.84 207.06 297.3 207.28C296.8 207.5 295.98 207.5 294.72 207.5C294.66 207.12 294.5 206.62 294.3 206.26C295.2 206.3 296.02 206.3 296.26 206.28C296.52 206.28 296.58 206.2 296.58 205.98V204.28H290.38C290.16 205.54 289.76 206.8 288.94 207.78C288.72 207.5 288.2 206.96 287.9 206.8C289.08 205.3 289.22 203.28 289.22 201.7V198.02H297.98ZM294.22 195.7H299.14V196.84H288.04V195.7H292.76V194.34H288.76V193.26H292.76V192.04H288.26V190.9H292.76V189.28H294.22V190.9H298.94V192.04H294.22V193.26H298.56V194.34H294.22V195.7ZM309.16 189.34H310.8C310.78 190.06 310.76 191.06 310.66 192.24C310.96 194.62 312.16 202.98 319.22 206.12C318.8 206.46 318.36 206.96 318.14 207.38C313.14 205.04 311 200.1 310.04 196.38C309.12 200.38 307 204.86 302.12 207.46C301.86 207.06 301.38 206.62 300.92 206.3C309.22 202.1 309.1 192.38 309.16 189.34ZM330.06 202.08V204.78H333.42V202.08H330.06ZM333.42 196.78V194.2H330.06V196.78H333.42ZM333.42 200.74V198.12H330.06V200.74H333.42ZM339.02 204.78V206.14H330.06V207.54H328.62V195.86C328.12 196.7 327.56 197.46 327 198.12L326.94 198.04L327.14 199.32L324.86 200.06V205.7C324.86 206.56 324.66 206.96 324.16 207.22C323.68 207.46 322.92 207.52 321.64 207.5C321.6 207.1 321.4 206.48 321.2 206.06C322.06 206.08 322.84 206.08 323.06 206.06C323.32 206.06 323.42 206 323.42 205.7V200.52L321.08 201.3L320.7 199.86C321.46 199.64 322.4 199.38 323.42 199.04V194.62H320.88V193.24H323.42V189.28H324.86V193.24H327.1V194.62H324.86V198.6L326.86 197.98C326.6 197.68 326.16 197.26 325.9 197.06C327.64 195.2 329.14 192.32 330.04 189.38L331.44 189.74C331.1 190.78 330.68 191.82 330.24 192.82H334.18C333.94 192.02 333.34 190.8 332.8 189.92L334.08 189.42C334.68 190.34 335.3 191.52 335.54 192.32L334.38 192.82H338.62V194.2H334.82V196.78H338.3V198.12H334.82V200.74H338.28V202.08H334.82V204.78H339.02ZM345.34 192.96V191.7H341.14V190.52H345.34V189.28H346.78V190.52H349.34V191.7H346.78V192.96H345.34ZM344.74 207.38L343.66 206.78C344.28 206.08 344.84 204.86 345.14 203.94L346.22 204.42C345.88 205.36 345.36 206.6 344.74 207.38ZM347.2 204.36L348.32 204.18C348.62 205.12 348.82 206.28 348.84 207.06L347.62 207.24C347.64 206.48 347.44 205.28 347.2 204.36ZM349.8 204.24L350.88 203.92C351.38 204.68 351.86 205.74 352.08 206.44L350.94 206.84C350.76 206.12 350.28 205.04 349.8 204.24ZM352.5 204.02L353.46 203.56C354.08 204.12 354.7 204.88 355 205.4L353.98 205.96C353.7 205.4 353.08 204.6 352.5 204.02ZM351.54 195.88V194.7H348.3V195.88H351.54ZM356.2 196.84H352.84V198.08H356.2V196.84ZM348.3 196.84V198.08H351.54V196.84H348.3ZM347.02 198.08V196.84H343.8V198.08H347.02ZM347.02 194.7H343.8V195.88H347.02V194.7ZM348.7 192.5L349.82 192.1C350.22 192.54 350.64 193.14 350.88 193.62H358.5V194.7H352.84V195.88H357.64V199.02H346.62V200.16H357.96V201.2H346.62V202.34H358.34C358.34 202.34 358.32 202.72 358.28 202.88C358.06 205.56 357.86 206.64 357.44 207.08C357.16 207.38 356.82 207.48 356.36 207.52C355.96 207.56 355.22 207.56 354.44 207.5C354.42 207.16 354.3 206.68 354.12 206.36C354.82 206.44 355.48 206.44 355.74 206.44C356.02 206.44 356.18 206.42 356.32 206.28C356.54 206.02 356.72 205.26 356.88 203.4H345.3V199.02H343.8C343.74 201.64 343.38 205.06 341.9 207.44C341.64 207.24 341.04 206.84 340.7 206.7C342.24 204.2 342.4 200.72 342.4 198.24V193.62H349.46C349.24 193.22 348.96 192.84 348.7 192.5ZM354.76 190.52H358.74V191.68H354.76V192.96H353.34V191.68H350.5V190.52H353.34V189.28H354.76V190.52ZM366.28 203.68V197.7H363.72V203.68H366.28ZM367.58 204.98H363.72V206.62H362.44V200.02C362.14 200.64 361.8 201.22 361.44 201.74C361.3 201.44 360.84 200.74 360.56 200.44C362.02 198.3 362.86 195.04 363.36 191.58H361.04V190.22H368.34V191.58H364.78C364.52 193.26 364.2 194.9 363.78 196.42H367.58V204.98ZM368.5 206.62L367.46 206.02C368.32 205.04 368.72 203.32 368.9 201.68L370.02 201.96C369.82 203.68 369.46 205.54 368.5 206.62ZM370.82 202.3L371.84 202.14C372.08 203.32 372.24 204.82 372.22 205.8L371.12 205.98C371.16 204.98 371.04 203.46 370.82 202.3ZM372.94 202.14L373.9 201.88C374.32 202.82 374.7 204.1 374.84 204.92L373.82 205.22C373.7 204.38 373.34 203.12 372.94 202.14ZM370.54 197.5V199.4H373.3V197.5H370.54ZM373.3 191.42H370.54V193.24H373.3V191.42ZM373.3 196.3V194.44H370.54V196.3H373.3ZM374.62 199.4H378.82C378.82 199.4 378.82 199.82 378.8 200.02C378.58 204.66 378.34 206.38 377.84 206.96C377.52 207.34 377.2 207.48 376.66 207.52C376.2 207.56 375.36 207.56 374.46 207.5C374.44 207.12 374.3 206.56 374.1 206.22C374.94 206.3 375.74 206.32 376.04 206.32C376.36 206.32 376.5 206.28 376.68 206.1C377 205.72 377.24 204.32 377.42 200.7H369.18V190.12H378.42V191.42H374.62V193.24H377.96V194.44H374.62V196.3H377.96V197.5H374.62V199.4ZM377.12 203.68L376.26 204.1C376.02 203.44 375.44 202.44 374.92 201.7L375.74 201.36C376.3 202.08 376.86 203.06 377.12 203.68ZM387 194.78V207.72H380.68V206.34H385.52V194.78H387ZM411.96 191.78H409.9C409.46 192.54 408.94 193.24 408.4 193.78C408.16 193.56 407.6 193.18 407.28 193.02C408.32 192.08 409.14 190.68 409.58 189.22L410.92 189.52C410.8 189.9 410.64 190.26 410.5 190.62H417.2L417.44 190.56L418.44 190.9C417.94 191.92 417.3 193.08 416.76 193.78L415.58 193.36C415.88 192.94 416.24 192.36 416.52 191.78H413.34V192.04C413.34 192.24 413.32 192.46 413.28 192.7C414.34 193.9 416.52 194.68 419.14 194.9C418.86 195.18 418.48 195.72 418.3 196.08C416.02 195.76 414.1 194.96 412.86 193.74C412.2 194.72 410.62 195.64 407.1 196.18C406.94 195.86 406.56 195.32 406.3 195.08C411.48 194.38 411.96 193.02 411.96 191.98V191.78ZM405.1 201.96V203.36H415.12V201.96H405.1ZM405.1 199.64V201H415.12V199.64H405.1ZM405.1 197.32V198.68H415.12V197.32H405.1ZM403.66 204.34V196.32H416.6V204.34H403.66ZM406.26 190.46V191.62H401.48V190.46H406.26ZM406.76 193.56V194.76H401.04V193.56H406.76ZM407 204.48L408.34 205.08C406.74 206.04 404.22 206.98 402.24 207.52C401.98 207.22 401.48 206.66 401.14 206.4C403.18 205.98 405.58 205.26 407 204.48ZM411.88 205.26L412.9 204.46C415.04 205.12 417.38 205.98 418.78 206.62L417.48 207.48C416.2 206.84 414.04 205.98 411.88 205.26ZM425.64 191.76L424.54 192.44C424.26 191.72 423.64 190.6 423.14 189.78L424.2 189.18C424.74 190 425.36 191.06 425.64 191.76ZM428.2 192.66V193.88H421.02V192.66H428.2ZM427.44 196.46H421.82V195.28H427.44V196.46ZM426.24 201.78H423V205.08H426.24V201.78ZM427.46 200.54V206.32H423V207.26H421.8V200.54H427.46ZM421.82 199.06V197.88H427.48V199.06H421.82ZM428.4 190.4H437.1C436.98 198.48 436.94 205.42 438.06 205.7C438.18 205.74 438.32 204.46 438.4 203.02C438.64 203.4 439.04 203.9 439.26 204.1C439.04 206.9 438.4 207.54 437.48 207.16C435.52 206.56 435.58 200.02 435.6 191.82H432.28V197.72H434.92V199.1H432.28V207.52H430.88V199.1H428.18V197.72H430.88V191.82H428.4V190.4ZM457.88 207.92C455.48 205.48 453.9 202.3 453.9 198.4C453.9 194.5 455.48 191.32 457.88 188.88L459.08 189.5C456.78 191.88 455.36 194.84 455.36 198.4C455.36 201.96 456.78 204.92 459.08 207.3L457.88 207.92ZM478.54 192.16H472.2C471.76 192.9 471.28 193.62 470.78 194.36V207.48H469.2V196.36C467.18 198.66 464.74 200.72 461.96 202.18C461.74 201.8 461.26 201.22 460.96 200.88C464.9 198.9 468.32 195.58 470.3 192.16H461.46V190.68H478.54V192.16ZM471.18 196.46L472.28 195.5C474.6 197 477.64 199.24 479.1 200.76L477.92 201.9C476.5 200.38 473.54 198.02 471.18 196.46ZM489.88 196.52H484.66V201.08H489.88V196.52ZM491.34 202.5H484.66V204.1H483.22V195.08H491.34V202.5ZM498.88 190.68V192.16H496.42V205.4C496.42 206.48 496.16 207 495.4 207.22C494.6 207.5 493.22 207.5 491.26 207.5C491.16 207.08 490.86 206.34 490.62 205.92C492.22 206 493.86 205.98 494.32 205.96C494.76 205.94 494.9 205.8 494.9 205.38V192.16H481.18V190.68H498.88ZM502.86 207.32L501.7 206.56C502.92 205.64 503.66 204 504.02 202.44L505.28 202.84C504.86 204.5 504.2 206.28 502.86 207.32ZM506.6 203.02L507.82 202.86C508.2 204.02 508.4 205.54 508.4 206.5L507.08 206.68C507.14 205.7 506.94 204.2 506.6 203.02ZM509.64 202.8L510.8 202.52C511.32 203.52 511.74 204.86 511.92 205.74L510.68 206.06C510.54 205.2 510.12 203.84 509.64 202.8ZM515.64 197.64H508.56C507.92 198.46 507.26 199.24 506.52 199.96H515.22C515.36 199.28 515.5 198.46 515.64 197.64ZM514.02 194.08H510.84C510.42 194.86 509.96 195.62 509.46 196.36H513.54C513.72 195.7 513.88 194.88 514.02 194.08ZM518.6 199.96L518.54 200.6C518.18 204.72 517.8 206.34 517.18 206.98C516.84 207.34 516.46 207.46 515.9 207.5C515.4 207.56 514.44 207.54 513.44 207.48C513.42 207.1 513.28 206.52 513.06 206.16C514.02 206.26 514.92 206.26 515.3 206.26C515.62 206.26 515.82 206.24 516 206.06C516.42 205.66 516.74 204.4 517.06 201.28H505.08C504.02 202.16 502.86 202.96 501.58 203.64C501.4 203.28 501.04 202.7 500.78 202.4C504.48 200.48 507.26 197.48 509.2 194.08H502.1V192.76H506.06C505.78 191.96 505.14 190.76 504.52 189.86L505.78 189.36C506.44 190.26 507.16 191.48 507.42 192.28L506.32 192.76H509.9C510.46 191.62 510.94 190.44 511.32 189.26L512.78 189.68C512.4 190.72 511.98 191.76 511.5 192.76H515.6C515.4 193.94 515.16 195.32 514.92 196.36H517.22C517.02 197.52 516.8 198.9 516.58 199.96H518.6ZM515.12 204.66L514.04 205.14C513.78 204.38 513.18 203.26 512.56 202.42L513.6 202.04C514.24 202.84 514.86 203.96 515.12 204.66ZM538.68 194.94H532.5C533.94 198.32 536.46 201.48 539.22 203.04C538.84 203.36 538.32 203.9 538.08 204.3C535.12 202.44 532.54 198.84 531.04 194.94H530.76V202.32H535.4V203.8H530.76V207.52H529.22V203.8H524.58V202.32H529.22V194.94H528.9C527.36 198.84 524.78 202.4 521.9 204.36C521.66 204 521.18 203.46 520.84 203.18C523.48 201.56 525.94 198.32 527.4 194.94H521.36V193.46H529.22V189.28H530.76V193.46H538.68V194.94ZM549.16 189.34H550.8C550.78 190.06 550.76 191.06 550.66 192.24C550.96 194.62 552.16 202.98 559.22 206.12C558.8 206.46 558.36 206.96 558.14 207.38C553.14 205.04 551 200.1 550.04 196.38C549.12 200.38 547 204.86 542.12 207.46C541.86 207.06 541.38 206.62 540.92 206.3C549.22 202.1 549.1 192.38 549.16 189.34ZM570.06 202.08V204.78H573.42V202.08H570.06ZM573.42 196.78V194.2H570.06V196.78H573.42ZM573.42 200.74V198.12H570.06V200.74H573.42ZM579.02 204.78V206.14H570.06V207.54H568.62V195.86C568.12 196.7 567.56 197.46 567 198.12L566.94 198.04L567.14 199.32L564.86 200.06V205.7C564.86 206.56 564.66 206.96 564.16 207.22C563.68 207.46 562.92 207.52 561.64 207.5C561.6 207.1 561.4 206.48 561.2 206.06C562.06 206.08 562.84 206.08 563.06 206.06C563.32 206.06 563.42 206 563.42 205.7V200.52L561.08 201.3L560.7 199.86C561.46 199.64 562.4 199.38 563.42 199.04V194.62H560.88V193.24H563.42V189.28H564.86V193.24H567.1V194.62H564.86V198.6L566.86 197.98C566.6 197.68 566.16 197.26 565.9 197.06C567.64 195.2 569.14 192.32 570.04 189.38L571.44 189.74C571.1 190.78 570.68 191.82 570.24 192.82H574.18C573.94 192.02 573.34 190.8 572.8 189.92L574.08 189.42C574.68 190.34 575.3 191.52 575.54 192.32L574.38 192.82H578.62V194.2H574.82V196.78H578.3V198.12H574.82V200.74H578.28V202.08H574.82V204.78H579.02ZM585.34 192.96V191.7H581.14V190.52H585.34V189.28H586.78V190.52H589.34V191.7H586.78V192.96H585.34ZM584.74 207.38L583.66 206.78C584.28 206.08 584.84 204.86 585.14 203.94L586.22 204.42C585.88 205.36 585.36 206.6 584.74 207.38ZM587.2 204.36L588.32 204.18C588.62 205.12 588.82 206.28 588.84 207.06L587.62 207.24C587.64 206.48 587.44 205.28 587.2 204.36ZM589.8 204.24L590.88 203.92C591.38 204.68 591.86 205.74 592.08 206.44L590.94 206.84C590.76 206.12 590.28 205.04 589.8 204.24ZM592.5 204.02L593.46 203.56C594.08 204.12 594.7 204.88 595 205.4L593.98 205.96C593.7 205.4 593.08 204.6 592.5 204.02ZM591.54 195.88V194.7H588.3V195.88H591.54ZM596.2 196.84H592.84V198.08H596.2V196.84ZM588.3 196.84V198.08H591.54V196.84H588.3ZM587.02 198.08V196.84H583.8V198.08H587.02ZM587.02 194.7H583.8V195.88H587.02V194.7ZM588.7 192.5L589.82 192.1C590.22 192.54 590.64 193.14 590.88 193.62H598.5V194.7H592.84V195.88H597.64V199.02H586.62V200.16H597.96V201.2H586.62V202.34H598.34C598.34 202.34 598.32 202.72 598.28 202.88C598.06 205.56 597.86 206.64 597.44 207.08C597.16 207.38 596.82 207.48 596.36 207.52C595.96 207.56 595.22 207.56 594.44 207.5C594.42 207.16 594.3 206.68 594.12 206.36C594.82 206.44 595.48 206.44 595.74 206.44C596.02 206.44 596.18 206.42 596.32 206.28C596.54 206.02 596.72 205.26 596.88 203.4H585.3V199.02H583.8C583.74 201.64 583.38 205.06 581.9 207.44C581.64 207.24 581.04 206.84 580.7 206.7C582.24 204.2 582.4 200.72 582.4 198.24V193.62H589.46C589.24 193.22 588.96 192.84 588.7 192.5ZM594.76 190.52H598.74V191.68H594.76V192.96H593.34V191.68H590.5V190.52H593.34V189.28H594.76V190.52ZM606.28 203.68V197.7H603.72V203.68H606.28ZM607.58 204.98H603.72V206.62H602.44V200.02C602.14 200.64 601.8 201.22 601.44 201.74C601.3 201.44 600.84 200.74 600.56 200.44C602.02 198.3 602.86 195.04 603.36 191.58H601.04V190.22H608.34V191.58H604.78C604.52 193.26 604.2 194.9 603.78 196.42H607.58V204.98ZM608.5 206.62L607.46 206.02C608.32 205.04 608.72 203.32 608.9 201.68L610.02 201.96C609.82 203.68 609.46 205.54 608.5 206.62ZM610.82 202.3L611.84 202.14C612.08 203.32 612.24 204.82 612.22 205.8L611.12 205.98C611.16 204.98 611.04 203.46 610.82 202.3ZM612.94 202.14L613.9 201.88C614.32 202.82 614.7 204.1 614.84 204.92L613.82 205.22C613.7 204.38 613.34 203.12 612.94 202.14ZM610.54 197.5V199.4H613.3V197.5H610.54ZM613.3 191.42H610.54V193.24H613.3V191.42ZM613.3 196.3V194.44H610.54V196.3H613.3ZM614.62 199.4H618.82C618.82 199.4 618.82 199.82 618.8 200.02C618.58 204.66 618.34 206.38 617.84 206.96C617.52 207.34 617.2 207.48 616.66 207.52C616.2 207.56 615.36 207.56 614.46 207.5C614.44 207.12 614.3 206.56 614.1 206.22C614.94 206.3 615.74 206.32 616.04 206.32C616.36 206.32 616.5 206.28 616.68 206.1C617 205.72 617.24 204.32 617.42 200.7H609.18V190.12H618.42V191.42H614.62V193.24H617.96V194.44H614.62V196.3H617.96V197.5H614.62V199.4ZM617.12 203.68L616.26 204.1C616.02 203.44 615.44 202.44 614.92 201.7L615.74 201.36C616.3 202.08 616.86 203.06 617.12 203.68ZM622.12 188.88C624.52 191.32 626.1 194.5 626.1 198.4C626.1 202.3 624.52 205.48 622.12 207.92L620.92 207.3C623.22 204.92 624.64 201.96 624.64 198.4C624.64 194.84 623.22 191.88 620.92 189.5L622.12 188.88ZM648.36 202.24L647.92 201.18C649.46 200.54 650.34 199.6 650.44 198.24C650.32 198.26 650.22 198.26 650.1 198.26C649.28 198.26 648.6 197.78 648.6 196.84C648.6 195.9 649.3 195.4 650.12 195.4C651.22 195.4 651.82 196.3 651.82 197.7C651.82 199.86 650.46 201.5 648.36 202.24ZM666.14 193.74V192.58H663.88V193.74H666.14ZM666.14 195.9V194.72H663.88V195.9H666.14ZM666.14 198.04V196.88H663.88V198.04H666.14ZM674.56 193.74V192.58H672.42V193.74H674.56ZM674.56 195.9V194.74H672.42V195.9H674.56ZM674.56 198.06V196.9H672.42V198.06H674.56ZM662.6 199.08V194C662.26 194.44 661.94 194.86 661.58 195.22C661.42 194.96 661.02 194.42 660.76 194.2C662 192.98 663.08 191.14 663.72 189.28L664.92 189.6C664.68 190.24 664.42 190.92 664.1 191.54H666.44C666.22 190.96 665.88 190.26 665.58 189.72L666.78 189.38C667.18 190.06 667.64 190.92 667.84 191.54H669.76V192.58H667.38V193.74H669.34V194.18C670.54 192.92 671.6 191.08 672.22 189.28L673.44 189.62C673.2 190.26 672.9 190.94 672.6 191.56H674.9C674.68 191 674.36 190.32 674.06 189.8L675.26 189.44C675.64 190.1 676.08 190.94 676.3 191.56H678.54V192.58H675.8V193.74H678.12V194.74H675.8V195.9H678.12V196.9H675.8V198.06H678.84V199.1H671.14V194C670.78 194.5 670.42 194.96 670.04 195.34C669.9 195.16 669.6 194.78 669.34 194.5V194.72H667.38V195.9H669.34V196.88H667.38V198.04H670V199.08H662.6ZM674.34 201.5H666.24C667.3 202.54 668.74 203.38 670.42 204.06C672 203.38 673.36 202.54 674.34 201.5ZM675.78 200.18L676.78 200.82C675.72 202.44 674.12 203.72 672.22 204.72C674.22 205.32 676.5 205.74 678.88 205.94C678.54 206.3 678.16 206.94 677.96 207.38C675.18 207.06 672.58 206.48 670.3 205.58C667.64 206.62 664.58 207.22 661.62 207.56C661.5 207.16 661.24 206.56 661 206.2C663.54 205.98 666.2 205.54 668.54 204.78C666.9 203.94 665.52 202.9 664.44 201.64L664.74 201.5H662.1V200.26H675.5L675.78 200.18ZM698.64 194.18H688.48C688.42 195.22 688.34 196.28 688.2 197.34H696.7C696.7 197.34 696.68 197.84 696.64 198.06C696.26 203.68 695.86 205.84 695.08 206.62C694.6 207.12 694.14 207.26 693.36 207.32C692.66 207.36 691.36 207.34 690.02 207.24C689.98 206.8 689.78 206.2 689.5 205.8C690.92 205.92 692.32 205.94 692.84 205.94C693.3 205.94 693.56 205.9 693.78 205.72C694.38 205.2 694.76 203.28 695.1 198.78H687.98C687.34 202.3 685.84 205.6 682.08 207.6C681.84 207.2 681.38 206.68 681 206.4C686.1 203.86 686.62 198.74 686.84 194.18H681.44V192.72H690.18C689.92 191.92 689.34 190.64 688.82 189.72L690.24 189.16C690.78 190.1 691.4 191.3 691.68 192.12L690.3 192.72H698.64V194.18ZM718.64 194.18H708.48C708.42 195.22 708.34 196.28 708.2 197.34H716.7C716.7 197.34 716.68 197.84 716.64 198.06C716.26 203.68 715.86 205.84 715.08 206.62C714.6 207.12 714.14 207.26 713.36 207.32C712.66 207.36 711.36 207.34 710.02 207.24C709.98 206.8 709.78 206.2 709.5 205.8C710.92 205.92 712.32 205.94 712.84 205.94C713.3 205.94 713.56 205.9 713.78 205.72C714.38 205.2 714.76 203.28 715.1 198.78H707.98C707.34 202.3 705.84 205.6 702.08 207.6C701.84 207.2 701.38 206.68 701 206.4C706.1 203.86 706.62 198.74 706.84 194.18H701.44V192.72H710.18C709.92 191.92 709.34 190.64 708.82 189.72L710.24 189.16C710.78 190.1 711.4 191.3 711.68 192.12L710.3 192.72H718.64V194.18ZM729.94 192.18H724.12C723.42 193.3 722.64 194.32 721.84 195.08C721.64 194.78 721.16 194.12 720.86 193.82C722.12 192.7 723.3 190.98 723.96 189.18L725.4 189.58C725.24 190.02 725.04 190.44 724.84 190.86H729.94V192.18ZM724.7 193.12L725.72 192.3C726.36 192.88 727.14 193.68 727.5 194.26L726.44 195.18C726.1 194.6 725.34 193.72 724.7 193.12ZM725.24 195.06L726.66 195.5C726.26 196.32 725.78 197.14 725.28 197.94V207.54H723.86V199.9C723.24 200.68 722.56 201.38 721.92 201.96C721.72 201.7 721.22 201.06 720.9 200.78C722.56 199.36 724.22 197.2 725.24 195.06ZM727.92 200.46L729.12 199.82C729.98 201.04 731.12 202.7 731.66 203.68L730.42 204.44C729.9 203.42 728.78 201.72 727.92 200.46ZM736.1 195.2V197.36H738.8V198.74H736.1V205.62C736.1 206.58 735.86 207 735.18 207.24C734.5 207.48 733.32 207.5 731.52 207.5C731.46 207.08 731.24 206.46 731.02 206.06C732.44 206.1 733.76 206.08 734.16 206.06C734.52 206.06 734.64 205.96 734.64 205.62V198.74H726.76V197.36H734.64V195.2H736.1ZM736 194.2L734.98 195.14C734.6 194.54 733.76 193.66 733.06 193.06L734.04 192.24C734.74 192.78 735.6 193.62 736 194.2ZM732.84 190.86H738.96V192.18H732.3C731.76 193.34 731.14 194.36 730.42 195.18C730.18 194.9 729.58 194.36 729.26 194.12C730.4 192.92 731.28 191.1 731.76 189.2L733.24 189.56C733.14 190 733 190.42 732.84 190.86ZM754.74 200.86H745.46V205H754.74V200.86ZM743.96 207.5V199.54H756.28V207.42H754.74V206.38H745.46V207.5H743.96ZM745.54 195.76H754.98C753.22 194.68 751.62 193.42 750.12 191.82C748.82 193.32 747.24 194.64 745.54 195.76ZM750.32 189.22L751.62 189.86C751.42 190.18 751.2 190.46 750.98 190.76C753.32 193.24 756.1 194.88 759.28 196.22C758.9 196.54 758.48 197.1 758.26 197.56C757.12 197 756.04 196.44 755.02 195.78V197.14H745V196.12C744 196.72 742.98 197.28 741.94 197.74C741.68 197.34 741.28 196.78 740.86 196.44C744.64 194.94 748.3 192.3 750.32 189.22ZM767.34 197.92L767.54 199.26L765.1 200.02V205.82C765.1 206.64 764.9 207.04 764.38 207.28C763.88 207.5 763.08 207.54 761.76 207.54C761.7 207.16 761.5 206.58 761.3 206.18C762.2 206.2 763.04 206.2 763.28 206.2C763.56 206.2 763.66 206.1 763.66 205.82V200.46L761.04 201.28L760.64 199.84C761.48 199.62 762.52 199.32 763.66 198.98V194.66H760.9V193.28H763.66V189.28H765.1V193.28H767.32V194.66H765.1V198.6C765.84 198.38 766.58 198.14 767.34 197.92ZM774 204.64H777.3V200.56H774V204.64ZM769.44 200.56V204.64H772.58V200.56H769.44ZM772.58 195.26H769.44V199.16H772.58V195.26ZM777.3 195.26H774V199.16H777.3V195.26ZM774 193.84H778.76V207.34H777.3V206.06H769.44V207.48H768.02V193.84H772.58V189.3H774V193.84ZM796.28 191.22H792.22C792.9 191.74 793.56 192.34 794.06 192.92C794.94 192.44 795.68 191.9 796.28 191.22ZM797.32 190.24L798.1 190.68C796.32 193.74 792.24 195.06 788.1 195.64C787.98 195.34 787.72 194.94 787.48 194.7C789.46 194.48 791.4 194.06 793.1 193.36C792.58 192.76 791.86 192.06 791.16 191.52C790.34 191.88 789.48 192.2 788.5 192.5C788.32 192.22 787.94 191.82 787.68 191.64C790.12 191 792 190.12 793.06 189.22L794.36 189.5C794.06 189.78 793.72 190.04 793.34 190.3H797.06L797.32 190.24ZM791.56 192.66L791.58 193.48C790.36 193.6 789.26 193.68 788.24 193.76L788.08 192.88C789.06 192.82 790.22 192.74 791.56 192.66ZM783.84 196.6V196.82C783.84 197.84 783.52 199.62 782.14 200.74C781.88 200.54 781.32 200.24 781 200.08C782.26 199.1 782.5 197.62 782.5 196.78V196.6H781.06V195.38H785.44V193.86H782V189.76H783.28V192.66H785.44V189.32H786.82V200.58H785.44V196.6H783.84ZM799.1 203.22H791.52C794.02 204.14 797.38 205.48 799.18 206.34L798.46 207.52C796.7 206.62 793.16 205.12 790.56 204.12L791.18 203.22H790.24C789.46 204.88 787.3 206.62 781.66 207.58C781.5 207.24 781.14 206.7 780.82 206.38C785.44 205.62 787.54 204.4 788.5 203.22H780.98V201.96H789.1C789.16 201.68 789.18 201.44 789.18 201.2V199.98H790.64V201.24C790.64 201.48 790.62 201.7 790.6 201.96H794.68C794.24 201.54 793.6 201.04 793.08 200.66L793.68 200.12H792.98C792.92 199.76 792.74 199.32 792.56 198.96C793.48 199 794.28 199 794.5 199C794.76 198.98 794.82 198.92 794.82 198.7V196.72H790.16C790.96 197.2 791.84 197.92 792.28 198.48L791.3 199.28C790.88 198.7 789.94 197.9 789.14 197.38L789.98 196.72H787.6V195.66H794.82V194.2H796.24V195.66H798.76V196.72H796.24V198.74C796.24 199.44 796.1 199.74 795.56 199.94C795.22 200.06 794.7 200.1 794 200.12C794.62 200.54 795.4 201.12 795.78 201.52L795.36 201.96H799.1V203.22ZM811.96 191.78H809.9C809.46 192.54 808.94 193.24 808.4 193.78C808.16 193.56 807.6 193.18 807.28 193.02C808.32 192.08 809.14 190.68 809.58 189.22L810.92 189.52C810.8 189.9 810.64 190.26 810.5 190.62H817.2L817.44 190.56L818.44 190.9C817.94 191.92 817.3 193.08 816.76 193.78L815.58 193.36C815.88 192.94 816.24 192.36 816.52 191.78H813.34V192.04C813.34 192.24 813.32 192.46 813.28 192.7C814.34 193.9 816.52 194.68 819.14 194.9C818.86 195.18 818.48 195.72 818.3 196.08C816.02 195.76 814.1 194.96 812.86 193.74C812.2 194.72 810.62 195.64 807.1 196.18C806.94 195.86 806.56 195.32 806.3 195.08C811.48 194.38 811.96 193.02 811.96 191.98V191.78ZM805.1 201.96V203.36H815.12V201.96H805.1ZM805.1 199.64V201H815.12V199.64H805.1ZM805.1 197.32V198.68H815.12V197.32H805.1ZM803.66 204.34V196.32H816.6V204.34H803.66ZM806.26 190.46V191.62H801.48V190.46H806.26ZM806.76 193.56V194.76H801.04V193.56H806.76ZM807 204.48L808.34 205.08C806.74 206.04 804.22 206.98 802.24 207.52C801.98 207.22 801.48 206.66 801.14 206.4C803.18 205.98 805.58 205.26 807 204.48ZM811.88 205.26L812.9 204.46C815.04 205.12 817.38 205.98 818.78 206.62L817.48 207.48C816.2 206.84 814.04 205.98 811.88 205.26ZM835.98 201.54H830.1V205.14H835.98V201.54ZM828.68 207.5V200.22H837.44V207.46H835.98V206.48H830.1V207.5H828.68ZM830.74 192.62L830.62 192.82C831.24 193.96 832.12 195 833.18 195.88C834.34 194.94 835.32 193.86 836.04 192.62H830.74ZM837.14 191.22L838.06 191.8C837.2 193.76 835.9 195.38 834.32 196.72C835.76 197.68 837.46 198.42 839.28 198.86C839.06 199.22 838.82 199.82 838.72 200.22C836.7 199.62 834.82 198.72 833.24 197.56C831.46 198.82 829.4 199.78 827.34 200.44C827.2 200.06 826.8 199.42 826.56 199.14L826.66 199.12C826.34 198.52 825.78 197.56 825.28 196.74V207.52H823.86V197.62C823.2 199.86 822.32 202.06 821.4 203.4C821.26 202.98 820.9 202.34 820.64 201.98C821.86 200.34 823.06 197.2 823.64 194.5H821.06V193.1H823.86V189.26H825.28V193.1H827.46V194.5H825.28V194.94C825.78 195.52 827.32 197.66 827.68 198.18L827 199C828.8 198.46 830.58 197.68 832.12 196.64C831.22 195.86 830.48 194.96 829.86 194C829.36 194.72 828.8 195.36 828.24 195.92C828.06 195.66 827.62 195.04 827.32 194.78C828.8 193.42 830.1 191.34 830.88 189.2L832.2 189.56C831.98 190.14 831.72 190.72 831.46 191.28H836.88L837.14 191.22ZM847.02 198.42C847.02 196.74 848.4 195.38 850.06 195.38C851.74 195.38 853.1 196.74 853.1 198.42C853.1 200.1 851.74 201.46 850.06 201.46C848.4 201.46 847.02 200.1 847.02 198.42ZM848.04 198.42C848.04 199.54 848.96 200.44 850.06 200.44C851.18 200.44 852.08 199.54 852.08 198.42C852.08 197.3 851.18 196.4 850.06 196.4C848.96 196.4 848.04 197.3 848.04 198.42Z" fill="#2496F0"/>
</svg>
