<svg width="46" height="2603" viewBox="0 0 46 2603" fill="none" xmlns="http://www.w3.org/2000/svg">
<line x1="22" y1="25" x2="22.0001" y2="2588" stroke="black" stroke-width="2"/>
<g clip-path="url(#clip0_1217_5135)">
<path d="M26.9394 6.79573C26.6341 4.33895 24.9937 0 23.0161 0C21.0385 0 19.3981 4.33442 19.0928 6.79573H19.0381L19.0381 40.3943H19.1156C19.4801 42.8782 21.0886 47.0045 23.0207 47.0045C24.9527 47.0045 26.5612 42.8782 26.9258 40.3943H27.0032L27.0032 6.79573H26.9485H26.9394Z" fill="black"/>
<path d="M19.033 40.3943L12.4395 44.4708V46.3213L20.4957 44.6654L19.033 40.3943Z" fill="black"/>
<path d="M7.21747 20.3827H4.85254L4.85254 24.5813H7.21747V20.3827Z" fill="black"/>
<path d="M14.2712 15.0709H11.9062V19.2696H14.2712V15.0709Z" fill="black"/>
<path d="M19.0334 13.3426L0 28.409L0 32.1146L19.0334 24.8302V13.3426Z" fill="black"/>
<path d="M26.9666 40.3943L33.5602 44.4708V46.3213L25.5039 44.6654L26.9666 40.3943Z" fill="black"/>
<path d="M38.7864 24.5813H41.1514V20.3827H38.7864V24.5813Z" fill="black"/>
<path d="M31.7239 19.2696H34.0889V15.0709H31.7239V19.2696Z" fill="black"/>
<path d="M26.9668 13.3426L46.0002 28.409V32.1146L26.9668 24.8302V13.3426Z" fill="black"/>
</g>
<g clip-path="url(#clip1_1217_5135)">
<path d="M26.9394 2562.8C26.6341 2560.34 24.9937 2556 23.0161 2556C21.0385 2556 19.3981 2560.33 19.0928 2562.8H19.0381L19.0381 2596.39H19.1156C19.4801 2598.88 21.0886 2603 23.0207 2603C24.9527 2603 26.5612 2598.88 26.9258 2596.39H27.0032L27.0032 2562.8H26.9485H26.9394Z" fill="black"/>
<path d="M19.033 2596.39L12.4395 2600.47V2602.32L20.4957 2600.67L19.033 2596.39Z" fill="black"/>
<path d="M7.21747 2576.38H4.85254L4.85254 2580.58H7.21747V2576.38Z" fill="black"/>
<path d="M14.2712 2571.07H11.9062V2575.27H14.2712V2571.07Z" fill="black"/>
<path d="M19.0334 2569.34L0 2584.41L0 2588.11L19.0334 2580.83V2569.34Z" fill="black"/>
<path d="M26.9666 2596.39L33.5602 2600.47V2602.32L25.5039 2600.67L26.9666 2596.39Z" fill="black"/>
<path d="M38.7864 2580.58H41.1514V2576.38H38.7864V2580.58Z" fill="black"/>
<path d="M31.7239 2575.27H34.0889V2571.07H31.7239V2575.27Z" fill="black"/>
<path d="M26.9668 2569.34L46.0002 2584.41V2588.11L26.9668 2580.83V2569.34Z" fill="black"/>
</g>
<defs>
<clipPath id="clip0_1217_5135">
<rect width="46" height="47" fill="white"/>
</clipPath>
<clipPath id="clip1_1217_5135">
<rect width="46" height="47" fill="white" transform="translate(0 2556)"/>
</clipPath>
</defs>
</svg>
