<svg width="186" height="59" viewBox="0 0 186 59" fill="none" xmlns="http://www.w3.org/2000/svg">
<path d="M41.54 50.1999H48.08V33.6999H41.54V50.1999ZM28.76 33.6999V50.1999H34.94V33.6999H28.76ZM15.14 16.4199V27.8199C17.48 27.3399 19.94 26.8599 22.34 26.3799V16.4199H22.22H15.14ZM34.94 16.4199H28.76V32.0199H34.94V16.4199ZM48.08 16.4199H41.54V32.0199H48.08V16.4199ZM50.66 11.1999L57.08 16.2399C56.66 16.7799 55.82 17.2599 54.62 17.5599V54.7599C54.56 55.2999 51.44 56.7399 49.1 56.7399H48.08V51.8799H28.76V54.6399C28.76 55.4199 26.24 56.9199 23.42 56.9199H22.34V27.2799C20.42 28.4199 18.08 29.7999 15.14 31.4199V49.4199C15.14 54.1599 14.24 56.6799 7.1 57.3399C6.98 55.2399 6.68 53.6799 6.02 52.6599C5.36 51.6399 4.22 50.9199 1.88 50.4999V49.6599C1.88 49.6599 6.44 49.9599 7.46 49.9599C8.36 49.9599 8.6 49.7199 8.6 48.9999V34.8999C7.4 35.5599 6.14 36.2199 4.82 36.8799C4.52 37.5999 3.92 38.2599 3.2 38.3799L0.38 30.3999C2.12 30.1599 5.06 29.6799 8.6 29.0199V16.4199H1.28L0.8 14.6799H8.6V1.05988L17.36 1.95987C17.24 2.79987 16.64 3.39987 15.14 3.57988V14.6799H15.5L18.5 10.0599C18.5 10.0599 20.54 12.0399 22.34 13.9599V11.9199L29.18 14.7399H34.94V1.83988L43.46 2.67988C43.4 3.51988 42.92 4.05988 41.54 4.23987V14.7399H47.48L50.66 11.1999ZM78.14 22.5399H74.6C74.18 28.5399 72.26 33.9399 64.46 37.5399L63.8 36.6999C68.06 32.4999 68.42 27.7599 68.54 22.5399H64.82L64.28 20.8599H78.14V15.0999H73.58L71.96 17.3199L65.78 14.3199C66.14 13.8399 66.74 13.2999 67.28 12.8799V2.79987L75.44 4.11988C75.32 4.77987 74.72 5.19988 73.22 5.43988V13.4199H78.14V1.05988L86.72 1.83988C86.6 2.61988 86.18 3.21988 84.74 3.39987V34.1799C84.74 35.0199 81.62 36.9999 79.16 36.9999H78.14V22.5399ZM94.4 45.0999L94.76 44.3799C120.74 44.4399 120.98 58.7199 113.12 57.2199C108.98 53.0199 100.46 47.7399 94.4 45.0999ZM107.72 7.83987H97.46C97.1 8.01988 96.8 8.19988 96.44 8.37987C100.94 9.33988 102.14 11.6199 101.66 13.2399C104 11.6799 105.98 9.87988 107.72 7.83987ZM111.62 23.1399V28.7799C111.62 33.0999 110.66 35.3199 104.12 35.9799C106.1 38.4399 103.1 41.5599 100.22 39.3999C99.98 37.6599 98.72 35.4999 97.4 34.2399C97.1 34.9599 96.44 35.3199 95.3 35.4399C95.06 37.2999 94.7 39.0999 94.1 40.7799H107.36L111.38 35.6799C111.38 35.6799 116 39.0999 118.76 41.5599C118.64 42.2199 117.98 42.5199 117.08 42.5199H93.38C90.26 49.5999 82.76 54.8199 65.36 57.4599L65 56.6799C77.84 53.3199 83.66 48.4599 86.18 42.5199H65.66L65.18 40.7799H86.84C87.62 38.2599 87.86 35.5599 87.86 32.7999L97.1 33.8199L97.58 33.4599C100.46 33.6999 102.26 34.3599 103.4 35.2599C103.28 33.7599 102.98 32.6799 102.38 31.8999C101.66 31.0599 100.7 30.3999 98.24 29.9799L98.18 29.1999C98.18 29.1999 102.98 29.4999 104 29.4999C104.72 29.4999 104.96 29.2599 104.96 28.5999V23.1399H85.64L85.16 21.4599H104.96V16.2999C99.8 18.6399 93.5 20.2599 85.52 21.0999L85.1 20.2599C90.44 18.8199 95.18 17.0799 99.08 14.7999C98.6 14.7399 98.12 14.5599 97.64 14.2599C97.34 12.5799 95.96 10.6599 94.64 9.27988C92.06 10.4799 89.24 11.4399 86.36 12.1599L85.88 11.4999C90.68 8.79988 95.3 4.17987 97.34 0.639874L106.1 2.91988C105.86 3.69987 105.02 4.05988 103.16 4.05988C102.32 4.71988 101.36 5.43988 100.28 6.15987H108.5L111.8 2.79987L118.28 8.01988C117.86 8.49988 116.96 8.79988 115.52 8.85988C113.3 11.2599 110.66 13.2399 107.6 14.9799L113.6 15.4599C113.48 16.4199 112.88 16.8399 111.62 17.0199V21.4599H112.4L115.28 17.3799C115.28 17.3799 118.46 20.1999 120.26 22.1799C120.08 22.8399 119.54 23.1399 118.76 23.1399H111.62ZM88.46 24.1599L88.94 23.6799C102.68 23.7399 98.36 34.2399 92.96 30.8199C92.48 28.3599 90.44 25.6599 88.46 24.1599ZM96.38 12.3999L96.5 13.2399C95.06 14.1999 92.78 15.6399 89.72 17.3199C89.42 18.0999 88.88 18.4599 88.34 18.5799L86.18 13.6599C88.16 13.4799 92.42 12.9999 96.38 12.3999ZM137.54 44.0199V28.3599C137.18 28.9599 136.52 29.2599 135.5 29.3199C135.26 32.4399 134.9 35.8599 134.3 39.2799C135.26 41.1999 136.34 42.8199 137.54 44.0199ZM160.88 7.29987H157.1V15.5199H160.88V7.29987ZM157.1 36.0999L160.88 35.3199V27.2799H157.1V36.0999ZM157.1 17.1999V25.5999H160.88V17.1999H157.1ZM143.3 34.8999V47.6799C147.26 49.1199 152.3 49.4199 158.96 49.4199C164.36 49.4199 177.68 49.4199 183.5 49.2399V50.0199C180.98 50.6199 179.72 52.9599 179.6 55.5999H158.72C145.16 55.5999 137.96 52.9599 133.88 41.4999C132.62 47.2599 130.52 52.9599 126.86 57.2199L126.2 56.6199C129.38 48.3399 130.1 35.5599 129.68 26.2599L137.54 27.7599V23.7999L145.22 24.6399C145.04 25.3599 144.62 25.8999 143.3 26.0799V33.1599H143.96L146.84 29.0799C146.84 29.0799 149.66 31.5999 151.52 33.5799V22.3599C151.22 22.5399 150.86 22.6599 150.38 22.6599H127.76L127.28 20.9199H136.04V12.0999H129.44L128.96 10.3599H136.04V1.05988L144.14 1.77988C144.02 2.55987 143.54 3.09987 142.16 3.27988V10.3599H142.76L145.64 6.57988C145.64 6.57988 148.88 9.21987 150.86 11.1399C150.74 11.7999 150.14 12.0999 149.3 12.0999H142.16V20.9199H143.36L146.48 16.8999C146.48 16.8999 149.36 19.2999 151.52 21.2799V7.29987H147.86L147.38 5.55988H164L167.42 1.35988C167.42 1.35988 171.14 4.23987 173.48 6.33988C173.3 6.99987 172.7 7.29987 171.86 7.29987H166.82V11.1399H174.2L177.32 7.77988L183.14 12.6999C182.78 13.2999 182.24 13.4799 180.98 13.6599C180.44 18.6399 179.72 23.8599 178.34 28.8999C185.42 38.8599 181.94 46.5399 177.5 42.6999C177.32 40.5399 176.72 38.1999 175.94 35.8599C174.08 40.0599 171.56 43.8399 168.02 46.8999L167.36 46.2399C170.18 41.6199 171.92 35.4399 173 28.9599C171.32 25.4799 169.4 22.2399 167.54 19.5399L168.38 19.1199C170.48 20.6199 172.22 22.1199 173.78 23.6199C174.26 20.0199 174.56 16.3599 174.74 12.8199H167.18L166.82 11.6799V34.0599L170.06 33.3399L170.24 34.1199C169.22 34.6599 168.08 35.1999 166.82 35.7999V46.2399C166.82 46.6599 165.02 48.0999 161.9 48.0999H160.88V38.6799C158.24 39.9399 155.12 41.3199 151.58 42.8799C151.28 43.5399 150.74 44.1399 150.08 44.3199L146.78 38.0199C147.92 37.8399 149.54 37.5399 151.52 37.1799V34.5399C151.22 34.7799 150.8 34.8999 150.32 34.8999H143.3Z" fill="black"/>
</svg>
