<svg width="294" height="65" viewBox="0 0 294 65" fill="none" xmlns="http://www.w3.org/2000/svg">
<rect width="289" height="60" rx="10" fill="#FFFAF1"/>
<rect x="5" y="5" width="289" height="60" rx="10" fill="#2496F0"/>
<rect x="1" y="1" width="287" height="58" rx="9" stroke="black" stroke-width="2"/>
<path d="M86.15 31.275L85.975 31.075C88.375 28.725 88.625 25.75 88.625 23.45V20.225L92.325 21.5H94.4L95.95 19.825L98.725 22.05C98.575 22.225 98.275 22.35 97.825 22.425V26C97.825 26.25 97.875 26.35 98.125 26.35H98.55H98.975C99.1 26.35 99.425 26.35 99.575 26.325C99.725 26.3 100 26.25 100.175 26.2H100.4L100.55 26.25C101.25 26.625 101.45 26.925 101.45 27.525C101.45 28.725 100.4 29.375 98.075 29.375H96.975C94.875 29.375 94.675 28.75 94.675 26.825V22.2H91.825V23.45C91.825 25.65 91.275 29.35 86.15 31.275ZM83.975 31.775V39.125C83.975 41.625 83.5 43.025 79.825 43.375C79.775 42.1 79.65 41.2 79.325 40.6C78.975 39.975 78.5 39.6 77.4 39.35V39.025C77.4 39.025 79.5 39.15 80 39.15C80.375 39.15 80.475 39.025 80.475 38.75V34.55L79.75 35.075C79.65 35.425 79.425 35.75 79.1 35.875L77.45 31.975C78.1 31.8 79.175 31.475 80.475 31.05V26.325H77.8L77.6 25.625H80.475V19.625L84.875 20.025C84.85 20.4 84.6 20.65 83.975 20.75V25.425L85.325 23.35C85.325 23.35 86.975 24.9 87.875 25.925C87.825 26.2 87.55 26.325 87.2 26.325H83.975V29.875C84.95 29.525 85.975 29.175 86.975 28.8L87.05 29.025C86.3 29.75 85.275 30.675 83.975 31.775ZM95.275 31.9H89.275C90.025 33.95 91.25 35.475 92.8 36.65C93.875 35.225 94.7 33.625 95.275 31.9ZM97.025 29.4L100.05 32.125C99.875 32.4 99.625 32.5 99 32.55C98.1 34.65 96.85 36.525 95.225 38.1C97.125 39 99.325 39.55 101.575 39.95L101.55 40.25C100.1 40.6 99.1 41.7 98.65 43.35C96.375 42.5 94.45 41.45 92.9 39.95C90.525 41.525 87.575 42.675 83.9 43.325L83.75 43.025C86.9 41.875 89.475 40.25 91.425 38.25C90.275 36.625 89.425 34.55 88.85 31.9H86.95L86.725 31.2H95.15L97.025 29.4ZM122.2 34.8L122.425 34.675C131.575 36.8 129 43.55 125.55 41.175C124.95 38.975 123.475 36.575 122.2 34.8ZM117.425 22.475V28.175H123.075V22.475H117.425ZM123.875 32.75L125.75 30.3C125.75 30.3 127.85 31.95 129.1 33.05C129.025 33.325 128.75 33.45 128.375 33.45H122.05V42.4C122.025 42.6 120.95 43.35 119.1 43.35H118.425V36.325C116.525 38.8 114.175 40.6 111.725 41.8L111.5 41.6C112.85 39.75 114.4 36.7 115.325 33.75L118.425 35.125V33.45H112.1L111.9 32.75H118.425V28.875H117.425V29.75C117.425 29.975 116.375 30.525 114.6 30.525H113.975V21.35C113.8 21.475 113.525 21.575 113.175 21.55C112.425 23.475 111.575 25.2 110.625 26.725L112.15 27.3C112.05 27.525 111.85 27.7 111.35 27.775V42.375C111.325 42.625 109.85 43.375 108.475 43.375H107.8V30.35C106.875 31.3 105.9 32.125 104.85 32.875L104.575 32.7C106.55 29.5 108.525 24.475 109.4 19.6L113.975 20.95V20.4L117.675 21.775H122.975L124.625 19.925L127.65 22.225C127.5 22.45 127.275 22.6 126.7 22.7V29.3C126.7 29.425 125.6 30 123.725 30H123.075V28.875H122.05V32.75H123.875ZM141.3 19.75L141.475 19.625C149.95 20.5 146.8 27.025 143.4 24.55C143.15 22.8 142.225 21.025 141.3 19.75ZM154.95 26.075H133.725L133.525 25.375H150.05L152.05 22.825C152.05 22.825 154.325 24.525 155.675 25.675C155.6 25.95 155.325 26.075 154.95 26.075ZM136.8 27.625L137.1 27.525C146.05 33.975 143.275 42.625 139.4 38.925C139.275 35.225 138.05 31.15 136.8 27.625ZM150.725 40.925L152.775 38.3C152.775 38.3 155.125 40.05 156.525 41.225C156.45 41.5 156.15 41.625 155.775 41.625H132.75L132.55 40.925H145.2C146.35 36.8 147.55 31.075 148.15 27.225L153.275 28.5C153.175 28.825 152.9 29.1 152.25 29.1C150.925 32.25 148.525 37.15 146 40.925H150.725ZM165.125 30.825H168.55V26.95H165.125V30.825ZM165.125 26.25H168.55V22.525H165.125V26.25ZM168.3 21.825L169.825 20.15L172.95 22.55C172.775 22.75 172.45 22.975 171.95 23.075V32.175C171.9 32.35 170.25 32.975 169.125 32.975H168.55V31.525H165.125V37.375C166.175 36.95 167.325 36.45 168.525 35.925C168.225 34.95 167.85 34.05 167.425 33.225L167.675 33.1C175.4 36.825 172.2 43.475 169.2 40.525C169.25 39.375 169.1 38.15 168.825 36.975C167.625 38.225 166.025 39.775 164.1 41.45C163.85 42 163.475 42.4 163.125 42.6L160.925 38.775C161.675 38.25 161.8 37.975 161.8 37.3V20.45L165.475 21.825H168.3ZM180.575 20.2L183.65 22.575C183.5 22.775 183.2 22.975 182.725 23.075V35.225C182.725 37.525 182.275 38.825 178.9 39.125C178.875 37.975 178.775 37.1 178.525 36.6C178.25 36.05 177.875 35.7 176.95 35.475V35.15C176.95 35.15 178.525 35.25 178.925 35.25C179.275 35.25 179.35 35.1 179.35 34.8V22.575H176.6V42.075C176.6 42.5 175.325 43.35 173.8 43.35H173.225V20.425L176.7 21.875H179.1L180.575 20.2ZM204.95 40.2H206.95V33.4H204.95V40.2ZM199.75 33.4V40.2H201.575V33.4H199.75ZM193.875 26.175V30.6C194.725 30.475 195.625 30.325 196.5 30.175V26.175H193.875ZM201.575 26.125H199.75V32.7H201.575V26.125ZM206.95 26.125H204.95V32.7H206.95V26.125ZM208.25 23.7L211.325 26.125C211.15 26.35 210.825 26.55 210.325 26.675V42.125C210.3 42.375 208.7 43.075 207.5 43.075H206.95V40.9H199.75V42C199.75 42.375 198.45 43.15 197.025 43.15H196.5V30.6C195.8 31.075 194.95 31.625 193.875 32.275V39.6C193.875 41.875 193.425 43.075 190.025 43.375C189.975 42.3 189.875 41.525 189.575 41.025C189.3 40.525 188.9 40.175 187.9 39.975V39.625C187.9 39.625 189.675 39.75 190.1 39.75C190.45 39.75 190.55 39.65 190.55 39.4V34.2L189.425 34.8C189.3 35.125 189 35.4 188.675 35.45L187.4 31.475C188.075 31.4 189.2 31.275 190.55 31.075V26.175H187.8L187.6 25.475H190.55V19.65L194.775 20.05C194.75 20.425 194.5 20.675 193.875 20.75V25.075L195 23.225C195 23.225 195.75 23.975 196.5 24.775V24.05L199.925 25.425H201.575V20L205.75 20.4C205.725 20.725 205.55 20.95 204.95 21.05V25.425H206.7L208.25 23.7Z" fill="white"/>
</svg>
