<svg width="565" height="292" viewBox="0 0 565 292" fill="none" xmlns="http://www.w3.org/2000/svg">
<path d="M27.0835 180.965L29 180.965L29 189.852L27.0835 189.852L27.0835 180.965ZM11.2266 189.388L29 189.388L29 191.744L11.2266 191.744L11.2266 189.388ZM19.5518 165.389L20.6748 165.389C22.0094 165.389 23.2057 165.556 24.2637 165.889C25.3216 166.223 26.2209 166.703 26.9614 167.33C27.702 167.956 28.2676 168.709 28.6582 169.588C29.0488 170.459 29.2441 171.435 29.2441 172.518C29.2441 173.567 29.0488 174.532 28.6582 175.411C28.2676 176.281 27.702 177.038 26.9614 177.681C26.2209 178.316 25.3216 178.808 24.2637 179.158C23.2057 179.508 22.0094 179.683 20.6748 179.683L19.5518 179.683C18.2171 179.683 17.0249 179.512 15.9751 179.17C14.9172 178.82 14.0179 178.328 13.2773 177.693C12.5286 177.059 11.959 176.306 11.5684 175.435C11.1777 174.556 10.9824 173.592 10.9824 172.542C10.9824 171.46 11.1777 170.483 11.5684 169.612C11.959 168.733 12.5286 167.981 13.2773 167.354C14.0179 166.719 14.9172 166.235 15.9751 165.901C17.0249 165.56 18.2171 165.389 19.5518 165.389ZM20.6748 167.72L19.5273 167.72C18.4694 167.72 17.5335 167.83 16.7197 168.05C15.9059 168.261 15.2223 168.575 14.6689 168.99C14.1156 169.405 13.6964 169.913 13.4116 170.516C13.1268 171.11 12.9844 171.785 12.9844 172.542C12.9844 173.274 13.1268 173.938 13.4116 174.532C13.6964 175.118 14.1156 175.622 14.6689 176.045C15.2223 176.46 15.9059 176.782 16.7197 177.01C17.5335 177.238 18.4694 177.352 19.5273 177.352L20.6748 177.352C21.7409 177.352 22.6849 177.238 23.5068 177.01C24.3206 176.782 25.0083 176.456 25.5698 176.033C26.1232 175.602 26.5423 175.093 26.8271 174.507C27.112 173.913 27.2544 173.25 27.2544 172.518C27.2544 171.753 27.112 171.073 26.8271 170.479C26.5423 169.885 26.1232 169.384 25.5698 168.978C25.0083 168.562 24.3206 168.249 23.5068 168.038C22.6849 167.826 21.7409 167.72 20.6748 167.72ZM11.2266 155.635L29 155.635L29 157.955L11.2266 157.955L11.2266 155.635ZM11.2266 149.922L13.1553 149.922L13.1553 163.655L11.2266 163.655L11.2266 149.922ZM11.2266 140.523L29 140.523L29 142.842L11.2266 142.842L11.2266 140.523ZM11.2266 134.81L13.1553 134.81L13.1553 148.543L11.2266 148.543L11.2266 134.81ZM27.0835 120.882L29 120.882L29 130.293L27.0835 130.293L27.0835 120.882ZM11.2266 129.817L29 129.817L29 132.173L11.2266 132.173L11.2266 129.817ZM18.8682 122.127L20.7847 122.127L20.7847 130.293L18.8682 130.293L18.8682 122.127ZM11.2266 121.004L13.1553 121.004L13.1553 130.293L11.2266 130.293L11.2266 121.004ZM11.2266 117.964L11.2266 112.081C11.2266 110.746 11.43 109.619 11.8369 108.699C12.2438 107.771 12.846 107.068 13.6435 106.587C14.4329 106.099 15.4054 105.855 16.561 105.855C17.3748 105.855 18.1195 106.022 18.7949 106.355C19.4622 106.681 20.0319 107.153 20.5039 107.771C20.9678 108.382 21.3136 109.114 21.5415 109.969L21.7978 110.628L21.7978 116.158L19.8813 116.182L19.8813 112.007C19.8813 111.161 19.7349 110.457 19.4419 109.896C19.1408 109.334 18.738 108.911 18.2334 108.626C17.7288 108.341 17.1714 108.199 16.561 108.199C15.8774 108.199 15.2793 108.333 14.7666 108.602C14.2539 108.87 13.8592 109.293 13.5825 109.871C13.2977 110.441 13.1553 111.177 13.1553 112.081L13.1553 115.608L29 115.608L29 117.964L11.2266 117.964ZM29 107.576L20.9434 111.897L20.9311 109.444L28.8535 105.062L29 105.062L29 107.576ZM11.2266 102.327L20.1499 97.7129L11.2266 93.0864L11.2266 90.4131L22.3594 96.541L29 96.541L29 98.897L22.3594 98.897L11.2266 105.025L11.2266 102.327Z" fill="black"/>
<path d="M524.722 219.855C524.722 219.855 478.061 146.293 477.251 136.383C476.441 126.474 462.79 38.0034 462.79 38.0034C462.79 38.0034 462.687 24.6012 458.583 26.9625C455.372 28.8101 455.042 41.9109 455.042 41.9109C455.042 41.9109 453.654 42.0097 453.654 43.3781C453.654 44.7465 453.654 46.4508 453.654 46.4508L454.158 46.7027L453.273 68.0188L450.019 102.831C450.019 102.831 442.359 149.183 439.717 156.939C437.074 164.695 425.409 203.79 425.409 203.79L415.319 231.982V233.054L438.008 231.562C438.008 231.562 450.281 200.376 456.434 195.372C462.593 190.368 472.07 188.604 475.784 190.901C479.498 193.198 490.176 213.042 490.176 213.042L509.002 223.179L524.722 219.855Z" fill="#FBFBFB"/>
<path d="M422.007 234.69C421.859 234.625 421.72 234.556 421.587 234.467C418.219 232.22 423.395 220.018 424.432 217.202C425.973 213.033 428.881 208.236 429.168 203.726C429.479 198.83 438.586 177.341 443.159 155.516C447.733 133.691 453.007 118.713 455.076 87.0922C457.151 55.4713 458.415 35.7459 458.706 31.6259C458.998 27.5059 463.586 25.0508 463.887 30.5885C464.188 36.1312 483.059 102.125 485.134 114.564C487.208 127.002 498.305 159.992 504.523 176.062C508.192 185.541 516.998 198.865 521.739 207.836C523.646 211.452 524.288 214.223 526.026 217.923C527.893 221.895 530.219 226.356 531.054 230.96C531.972 235.999 521.305 235.781 517.922 235.875C513.116 236.009 508.306 236.043 503.501 235.979C500.71 235.939 496.893 236.058 495.401 233.474C494.68 232.229 494.507 230.244 494.142 228.86C492.952 224.419 491.761 219.978 490.378 215.592C488.526 209.718 485.667 197.294 478.921 194.913C470.11 191.8 458.711 193.875 453.526 202.17C448.943 211.323 446.256 221.391 443.164 231.157C441.776 235.539 439.924 235.663 435.623 235.771C431.538 235.875 427.449 235.628 423.409 235.021C422.93 234.956 422.446 234.872 422.007 234.69Z" fill="#FF8585"/>
<path d="M414.722 233.603C414.718 233.603 414.718 233.598 414.713 233.598C414.347 233.38 414.13 232.911 414.273 232.501C414.604 231.558 414.915 230.604 415.281 229.671C416.155 227.536 416.97 225.383 417.676 223.189C418.693 219.795 419.725 216.402 420.763 213.018C422.012 209.135 423.424 205.306 424.797 201.463C427.706 193.865 429.632 185.956 432.072 178.206C434.655 170.148 437.648 162.22 439.841 154.034C442.453 143.729 445.254 133.41 446.459 122.823C447.056 116.51 447.733 110.202 448.913 103.962C450.227 96.7203 450.983 89.666 451.709 82.3943C452.257 77.6568 452.82 72.9144 452.933 68.1424C453.072 62.9505 453.062 57.7486 453.363 52.5616C453.437 51.3909 453.551 50.225 453.659 49.0542C453.763 48.4022 453.694 47.6908 453.951 47.0782C453.521 47.0288 453.106 46.851 453.052 46.3521C452.928 45.6259 452.943 44.875 452.983 44.1389C453.027 42.7953 453.487 41.496 454.988 41.3034C455.027 41.2935 455.067 41.2836 455.106 41.2737C454.919 40.4339 454.953 39.2632 454.914 38.7889C454.914 36.1806 454.904 33.4834 455.803 31.0035C456.297 29.6153 456.914 28.247 457.793 27.0564C458.005 26.7946 458.203 26.4933 458.435 26.2364C458.312 25.5596 458.366 24.7396 458.307 24.2258C458.267 23.2082 458.238 22.1856 458.247 21.1679C458.252 18.8412 458.228 16.5145 458.312 14.1927C458.317 13.4566 458.297 12.7205 458.312 11.9894C458.292 11.5992 458.376 11.036 458.855 10.9965C459.141 10.9866 459.354 11.2484 459.418 11.5004C459.616 12.7255 459.532 13.9852 459.591 15.2202C459.66 16.8553 459.769 18.4954 459.793 20.1305C459.798 21.3705 459.808 22.6055 459.838 23.8454C459.843 24.537 459.838 25.2286 459.828 25.9153C459.828 25.9597 459.828 26.0042 459.828 26.0487C460.559 26.5674 461.221 27.8073 461.571 28.3112C462.964 30.712 463.67 33.434 464.199 36.1361C464.357 36.9216 464.48 37.7219 464.569 38.5123C464.609 38.9124 464.717 39.4064 464.638 39.8214C464.855 39.8115 465.068 39.8313 465.27 39.9103C466.149 39.5793 466.396 40.35 466.307 41.0761C466.298 41.8863 466.332 42.6965 466.303 43.5066C466.298 44.2427 466.135 44.7416 465.858 45.0973C466.13 46.8559 466.367 48.6146 466.624 50.3732C467.201 54.2363 468.006 58.0648 468.713 61.9032C468.831 62.0563 468.95 62.2144 469.068 62.3725C469.231 62.7084 469.142 62.9801 468.94 63.1579C469.34 65.4254 469.755 67.6929 470.333 69.9257C470.95 72.3266 471.626 74.7126 472.194 77.1283C473.197 81.2186 473.953 85.3633 474.827 89.4832C476.096 95.3519 478.215 100.993 479.884 106.753C482.472 115.023 482.862 123.777 485.154 132.125C487.485 140.879 489.924 149.628 493.49 157.976C493.579 158.189 493.663 158.406 493.752 158.618C494.058 158.618 494.374 158.658 494.542 158.945C494.789 159.35 494.68 159.868 494.409 160.249C497.93 168.983 501.284 177.781 504.746 186.534C506.8 191.929 509.778 196.879 512.574 201.908C516.233 208.799 519.345 215.982 523.483 222.616C525.241 225.556 526.98 228.51 528.832 231.39C528.876 231.454 528.921 231.518 528.965 231.582C529.019 231.592 529.074 231.602 529.128 231.617C529.395 231.745 529.513 231.963 529.513 232.2C529.548 232.229 529.582 232.259 529.622 232.289C529.696 232.378 529.745 232.521 529.696 232.635C529.612 232.837 529.429 232.906 529.242 232.911C529.064 233.129 528.822 233.287 528.56 233.306C528.338 233.336 528.111 233.321 527.884 233.321C525.118 233.331 522.357 233.222 519.596 233.129C512.386 233.094 505.175 232.916 497.97 232.585C497.204 232.555 496.444 232.541 495.683 232.462C495.426 232.437 495.105 232.392 494.967 232.165C494.918 232.16 494.863 232.145 494.809 232.126C494.774 232.111 494.745 232.096 494.715 232.081C494.503 232.091 494.29 232.106 494.078 232.126C492.517 232.259 490.967 232.442 489.411 232.58C488.581 232.649 487.682 232.802 486.892 232.462C485.865 231.968 485.657 230.792 485.529 229.769C485.401 228.939 485.218 228.119 485.05 227.294C484.423 224.088 483.944 220.843 482.946 217.721C482.151 215.117 481.321 212.519 480.763 209.851C480.304 207.678 479.988 205.479 479.494 203.316C478.877 200.594 477.958 198.035 476.797 195.51C475.894 193.475 474.832 191.484 473.286 189.864C473.098 189.642 472.886 189.439 472.669 189.242C471.286 188.93 469.863 188.812 468.456 188.98C465.053 189.35 461.631 190.383 458.84 192.418C457.037 193.678 455.595 195.342 454.262 197.076C450.662 201.784 447.866 207.055 445.456 212.455C445.402 212.618 445.343 212.786 445.288 212.949C445.254 213.067 445.189 213.186 445.101 213.275C443.081 218.185 441.569 223.283 439.9 228.317C439.624 229.177 439.377 230.041 439.115 230.906C438.932 231.474 438.581 232.832 438.018 232.615C437.885 232.768 437.717 232.882 437.539 232.916C436.971 233.099 436.369 233.084 435.781 233.138C433.766 233.346 431.573 233.573 429.642 233.662C424.857 233.963 420.051 233.776 415.261 233.944C415.024 233.929 414.816 233.795 414.722 233.603ZM418.683 224.069C417.952 226.143 417.36 228.085 416.723 230.135C416.53 230.757 416.303 231.375 416.071 231.982C416.372 231.795 416.742 231.661 417.009 231.479C418.515 230.619 419.982 229.695 421.474 228.811C424.18 227.24 426.788 225.521 429.39 223.797C427.153 221.144 424.684 218.684 422.121 216.342C422.037 216.333 421.953 216.328 421.869 216.318C421.864 216.318 421.854 216.318 421.849 216.318C420.772 218.891 419.656 221.45 418.683 224.069ZM427.212 226.524C425.267 227.744 423.345 229.009 421.419 230.258C420.535 230.836 419.636 231.4 418.723 231.928C419.078 231.923 419.429 231.918 419.78 231.903C421.424 231.874 423.069 231.844 424.713 231.805C428.418 231.735 432.122 231.577 435.821 231.385C434.882 230.436 434.003 229.433 433.203 228.361C432.255 227.136 431.277 226.074 430.294 224.903C430.25 224.849 430.205 224.795 430.161 224.735C429.168 225.308 428.18 225.896 427.212 226.524ZM504.133 230.915C509.131 231.103 514.114 231.661 519.122 231.543C521.019 231.533 522.915 231.488 524.812 231.454C525.385 231.464 525.962 231.439 526.545 231.429C524.362 229.878 522.081 228.47 519.893 226.929C517.557 225.269 515.206 223.97 512.732 222.616C510.998 221.643 509.215 220.764 507.417 219.919C505.916 221.85 504.489 223.841 502.938 225.733C501.777 227.121 500.558 228.46 499.224 229.685C498.775 230.085 498.31 230.471 497.846 230.851C498.009 230.846 498.172 230.846 498.33 230.846C500.261 230.856 502.197 230.886 504.133 230.915ZM441.989 217.805C441.96 217.829 441.93 217.849 441.895 217.869C439.653 219.153 437.48 220.556 435.253 221.86C433.885 222.651 432.502 223.407 431.124 224.187C432.403 225.832 433.682 227.482 435.006 229.093C435.722 229.918 436.453 230.663 437.302 231.316C437.455 231.32 437.609 231.335 437.762 231.36C437.771 231.316 437.776 231.271 437.786 231.232C438.127 229.591 438.646 228.189 439.125 226.627C440.038 223.752 441.1 220.927 442.058 218.066C442.088 217.978 442.118 217.889 442.142 217.805C442.093 217.8 442.039 217.8 441.989 217.805ZM490.176 213.038C491.233 216.688 492.354 220.314 493.629 223.891C494.369 226.153 495.239 228.376 495.9 230.659C495.925 230.743 495.94 230.836 495.945 230.93C496.014 230.925 496.088 230.92 496.157 230.915C495.91 230.639 495.965 230.194 496.276 229.962C497.007 229.335 497.757 228.732 498.459 228.065C499.57 226.988 500.671 225.896 501.733 224.77C503.378 223.076 504.879 221.258 506.366 219.43C505.511 219.035 504.657 218.644 503.807 218.249C499.782 216.412 495.881 214.332 492.078 212.069C491.337 211.649 490.601 211.195 489.821 210.844C489.929 211.58 490.043 212.311 490.176 213.038ZM510.015 216.787C509.358 217.508 508.736 218.254 508.124 219.015C510.272 220.201 512.44 221.342 514.663 222.374C518.248 223.94 521.458 226.163 524.718 228.302C522.594 225.392 520.925 222.167 519.241 218.985C517.878 216.412 516.352 213.932 514.89 211.412C513.314 213.245 511.64 214.994 510.015 216.787ZM424.936 217.513C426.437 218.951 427.998 220.344 429.351 221.925C429.682 222.34 430.008 222.755 430.334 223.174C430.61 222.992 430.892 222.809 431.168 222.621C433.87 220.877 436.665 219.287 439.53 217.829C439.293 217.829 439.051 217.829 438.814 217.829C433.835 217.81 428.916 216.891 423.958 216.535C423.933 216.535 423.908 216.53 423.884 216.53C424.244 216.856 424.585 217.192 424.936 217.513ZM492.833 210.819C497.777 213.042 502.419 215.834 507.146 218.476C508.637 216.639 510.134 214.801 511.759 213.077C512.292 212.509 512.835 211.956 513.369 211.388C513.576 211.195 513.764 210.968 513.956 210.745C510.88 208.483 507.571 206.596 504.351 204.565C502.538 203.4 500.77 202.16 499.017 200.91C496.982 203.212 494.947 205.514 492.596 207.5C491.905 208.107 491.223 208.73 490.562 209.367C490.527 209.402 490.492 209.436 490.458 209.476C490.655 209.466 490.848 209.466 491.036 209.456C494.725 209.481 498.399 210.014 502.094 209.94C505.654 209.915 509.215 209.935 512.771 210.098C513.784 210.202 513.107 211.472 512.336 211.358C510.405 211.2 508.464 211.21 506.538 211.057C504.81 210.903 503.076 210.815 501.343 210.79C498.844 210.76 496.345 210.755 493.851 210.617C493.288 210.587 492.725 210.553 492.162 210.523C492.389 210.622 492.611 210.721 492.833 210.819ZM428.082 211.541C426.358 212.914 424.486 214.08 422.738 215.414C425.637 215.621 428.556 216.199 431.44 216.337C434.364 216.505 437.292 216.496 440.221 216.505C440.695 216.505 441.174 216.505 441.648 216.505C441.703 216.505 441.762 216.505 441.816 216.505C439.658 213.107 437.327 209.822 434.734 206.754C432.497 208.32 430.27 209.901 428.082 211.541ZM447.303 197.936C444.992 199.532 442.671 201.107 440.409 202.762C438.883 203.844 437.347 204.916 435.816 205.993C436.448 206.64 437.07 207.302 437.648 208.004C439.584 210.35 441.362 212.84 442.918 215.448C443.752 212.914 444.617 210.39 445.614 207.915C446.192 205.662 446.76 203.409 447.348 201.157C447.738 199.739 448.212 198.351 448.647 196.948C448.172 197.264 447.728 197.615 447.303 197.936ZM423.187 213.018C422.936 213.67 422.674 214.317 422.412 214.964C422.674 214.732 422.931 214.495 423.192 214.263C425.109 212.514 427.277 211.081 429.509 209.767C430.921 208.952 432.225 207.974 433.47 206.917C433.751 206.695 434.033 206.472 434.314 206.25C433.401 205.188 432.452 204.15 431.47 203.148C430.27 201.918 428.847 200.806 427.929 199.339C426.462 203.938 424.96 208.527 423.187 213.018ZM500.824 198.88C500.498 199.24 500.172 199.606 499.851 199.971C503.526 202.288 507.25 204.536 510.825 207.001C511.655 207.574 512.504 208.122 513.354 208.671C513.309 208.582 513.26 208.498 513.216 208.409C511.324 204.862 509.665 201.196 508.02 197.531C507.417 196.128 506.8 194.73 506.173 193.342C504.36 195.165 502.518 196.948 500.824 198.88ZM487.569 197.402C488.403 200.939 488.971 204.526 489.455 208.122C489.796 207.796 490.147 207.505 490.379 207.258C492.088 205.642 494.038 204.314 495.737 202.683C496.582 201.923 497.407 201.137 498.217 200.337C496.557 199.151 494.898 197.961 493.209 196.815C490.907 195.219 488.626 193.604 486.369 191.949C486.285 191.889 486.201 191.83 486.117 191.771C486.64 193.633 487.139 195.51 487.569 197.402ZM429.534 199.576C429.524 199.581 429.514 199.581 429.504 199.586C430.813 201.093 432.324 202.407 433.707 203.849C434.23 204.397 434.769 204.936 435.307 205.474C437.184 204.017 439.1 202.609 441.115 201.35C443.1 200.09 445.061 198.796 446.913 197.363C445.664 197.501 444.404 197.565 443.155 197.719C441.243 197.951 439.357 198.371 437.446 198.603C436.117 198.776 434.789 198.919 433.45 198.988C432.008 199.082 430.536 198.993 429.099 199.107C429.183 199.215 429.267 199.304 429.356 199.364C429.44 199.383 429.553 199.428 429.623 199.359C429.672 199.334 429.707 199.383 429.707 199.438C429.711 199.482 429.692 199.527 429.642 199.522C429.608 199.541 429.573 199.566 429.534 199.576ZM486.858 202.263C487.07 202.767 487.267 203.271 487.455 203.785C486.556 199.947 485.643 196.113 484.709 192.28C484.576 192.863 484.408 193.381 484.24 193.747C483.988 194.266 483.697 194.779 483.366 195.254C483.302 195.342 483.188 195.328 483.109 195.273C484.551 197.496 485.845 199.818 486.858 202.263ZM449.461 198.445C449.19 199.398 448.933 200.361 448.681 201.32C449.298 200.223 449.975 199.166 450.741 198.163C451.343 197.398 451.951 196.622 452.573 195.866C451.891 194.631 451.264 193.347 450.933 191.973C450.479 194.137 450.039 196.301 449.461 198.445ZM486.759 190.847C487.346 191.218 487.914 191.613 488.487 192.003C490.967 193.673 493.258 195.594 495.713 197.304C496.819 198.045 497.94 198.766 499.066 199.477C500.977 197.521 502.8 195.481 504.602 193.416C504.859 193.134 505.121 192.858 505.383 192.581C505.067 192.359 504.746 192.141 504.425 191.934C503.733 191.82 503.052 191.647 502.355 191.568C499.604 191.163 496.839 190.867 494.053 190.862C493.13 190.872 492.206 190.847 491.283 190.827C490.492 190.808 489.707 190.788 488.917 190.788C488.201 190.783 487.48 190.803 486.759 190.847ZM438.591 191.766C436.374 193.49 433.949 194.947 431.717 196.602C430.842 197.22 429.968 197.822 429.104 198.45C429.988 198.336 430.877 198.247 431.761 198.119C434.453 197.778 437.159 197.565 439.841 197.175C441.816 196.894 443.772 196.479 445.743 196.158C446.474 196.034 447.204 195.916 447.94 195.817C448.123 195.792 448.316 195.817 448.459 195.94C448.489 195.97 448.518 196.004 448.543 196.034C448.676 195.92 448.81 195.807 448.938 195.688C448.795 195.604 448.676 195.476 448.543 195.377C448.528 195.367 448.508 195.352 448.493 195.342C448.508 195.352 448.523 195.362 448.538 195.372C447.209 194.305 446.118 192.981 444.893 191.8C443.955 190.857 443.026 189.899 442.103 188.935C440.942 189.889 439.782 190.847 438.591 191.766ZM433.164 183.916C431.865 187.73 430.314 191.731 429.134 195.505C428.842 196.434 428.546 197.363 428.255 198.292C428.739 197.936 429.218 197.575 429.692 197.205C431.657 195.669 433.504 193.989 435.45 192.428C437.357 190.931 439.327 189.498 441.303 188.095C439.194 185.892 437.085 183.694 434.838 181.634C434.749 181.54 434.655 181.451 434.561 181.357C434.403 181.372 434.24 181.367 434.087 181.323C434.067 181.313 434.048 181.303 434.033 181.293C433.746 182.172 433.46 183.047 433.164 183.916ZM451.6 188.896C451.476 189.429 451.358 189.963 451.239 190.501C451.328 191.227 451.516 191.959 451.763 192.606C452.099 193.569 452.523 194.473 452.983 195.372C453.659 194.567 454.366 193.781 455.111 193.04C454.766 192.507 454.385 191.998 454.01 191.489C453.383 190.649 452.82 189.731 451.995 189.059C451.862 188.94 451.743 188.891 451.639 188.891C451.63 188.891 451.615 188.891 451.6 188.896ZM481.85 193.416C482.235 193.964 482.615 194.522 482.981 195.086C482.961 194.997 482.971 194.898 483.025 194.819C484.151 193.273 484.862 190.941 483.786 189.217C482.778 189.666 482.027 190.531 481.237 191.277C481.059 191.44 480.926 191.677 480.694 191.766C480.625 191.781 480.561 191.771 480.506 191.746C480.985 192.28 481.43 192.838 481.85 193.416ZM445.817 186.006C444.844 186.727 443.891 187.478 442.952 188.244C444.217 189.474 445.441 190.743 446.641 192.038C447.343 192.784 448.108 193.589 448.839 194.285C448.982 194.424 449.131 194.557 449.274 194.7C449.674 193.08 450 191.445 450.35 189.815C450.923 187.117 451.467 184.41 452.128 181.733C452.163 181.59 452.198 181.441 452.237 181.298C450.113 182.889 447.965 184.45 445.817 186.006ZM453.699 180.206C453.561 180.537 453.487 180.883 453.417 181.234C453.269 182.345 453.304 183.477 453.408 184.593C453.625 187.246 454.568 189.834 455.758 192.191C455.783 192.245 455.813 192.294 455.837 192.349C456.134 192.082 456.435 191.82 456.746 191.568C457.625 190.852 458.568 190.21 459.556 189.642C459.462 189.474 459.374 189.296 459.26 189.133C458.238 187.478 457.393 185.729 456.489 184.015C455.832 182.899 454.929 180.715 453.753 180.172C453.724 180.172 453.704 180.182 453.699 180.206ZM480.309 191.529C480.25 191.39 480.24 191.222 480.309 191.109C480.492 190.743 480.59 190.343 480.729 189.963C481.218 188.639 481.583 187.275 481.82 185.882C481.953 184.968 482.309 183.531 482.472 182.182C482.269 181.219 482.057 180.261 481.825 179.302C481.059 179.441 480.18 180.804 479.825 181.254C479.049 182.37 478.565 183.654 478.16 184.949C477.869 185.927 477.627 186.915 477.439 187.918C477.227 188.407 476.694 188.076 476.644 187.661C476.605 187.438 476.713 187.226 476.773 187.014C476.866 186.727 476.901 186.416 476.95 186.144C477.192 184.815 477.346 183.477 477.38 182.128C477.41 180.932 477.405 179.712 477 178.571C476.881 178.24 476.723 177.919 476.536 177.618C476.348 177.361 476.185 177.01 475.854 176.916C475.75 176.887 475.558 177.035 475.518 177.055C475.395 177.134 475.286 177.223 475.177 177.326C474.308 178.334 473.963 179.668 473.474 180.883C473.148 181.762 472.802 182.642 472.53 183.541C472.348 184.134 472.254 184.736 472.273 185.359C472.219 185.709 472.377 186.633 471.987 186.752C471.597 186.806 471.513 186.322 471.582 186.026C471.626 183.827 471.745 181.599 471.305 179.436C471.108 178.69 470.93 177.85 470.421 177.252C470.061 177.287 469.7 177.316 469.34 177.346L469.335 177.351C467.241 179.791 467.478 183.872 467.587 186.905C468.471 186.781 469.365 186.712 470.254 186.697C474.219 186.752 477.686 188.708 480.309 191.529ZM498.034 176.067C495.984 178.077 494.038 180.191 492.172 182.37C492.542 182.627 492.907 182.889 493.278 183.146C495.777 184.899 498.365 186.529 500.893 188.239C502.271 189.143 503.644 190.047 505.057 190.896C502.76 185.887 500.38 180.913 498.236 175.844C498.167 175.918 498.098 175.992 498.034 176.067ZM500.923 190.496C501.417 190.546 501.906 190.595 502.4 190.649C501.837 190.299 501.279 189.948 500.725 189.587C498.952 188.417 497.268 187.122 495.54 185.887C494.216 184.939 492.863 184.045 491.49 183.17C490.354 184.519 489.243 185.892 488.161 187.28C487.475 188.15 486.779 189.019 486.156 189.933C487.03 189.79 487.939 189.79 488.838 189.795C489.228 189.795 489.613 189.795 489.999 189.785C493.668 189.82 497.288 190.096 500.923 190.496ZM451.965 187.389C451.891 187.676 451.822 187.962 451.753 188.254C452.385 188.372 453.215 189.044 454.064 190.165C453.654 189.172 453.22 188.194 452.904 187.167C452.726 186.554 452.588 185.927 452.489 185.294C452.316 185.991 452.138 186.688 451.965 187.389ZM481.4 189.577C481.899 189.083 482.837 188.002 483.667 187.957C483.381 186.618 483.114 185.28 482.837 183.941C482.482 185.843 481.884 187.715 481.4 189.577ZM482.526 178.571C482.897 178.912 483.129 179.544 483.158 180.315C483.168 180.626 483.168 180.932 483.158 181.239C483.855 183.99 484.665 186.712 485.45 189.439C485.583 189.232 485.722 189.034 485.84 188.832C486.27 188.175 486.729 187.542 487.179 186.9C488.122 185.551 489.169 184.277 490.246 183.027C490.369 182.889 490.488 182.75 490.611 182.612C490.201 182.355 489.791 182.098 489.376 181.841C487.03 180.33 484.704 178.784 482.284 177.381C482.329 177.613 482.373 177.845 482.418 178.072C482.487 178.166 482.561 178.245 482.669 178.295C482.704 178.295 482.714 178.354 482.704 178.383C482.64 178.487 482.526 178.299 482.457 178.27C482.482 178.374 482.502 178.472 482.526 178.571ZM457.428 182.227C458.109 184.198 458.959 186.095 459.803 187.997C459.971 188.407 460.159 188.812 460.287 189.237C461.033 188.846 461.803 188.501 462.594 188.194C462.539 188.11 462.495 188.011 462.475 187.903C461.487 185.191 460.796 182.375 459.255 179.915C458.845 179.347 458.465 178.635 457.808 178.324C456.455 179.154 456.954 181.031 457.428 182.227ZM463.418 177.712C462.371 179.011 462.411 181.851 462.554 183.269C462.687 184.84 463.073 186.381 463.29 187.942C464.51 187.518 465.764 187.201 467.033 186.994C467.004 186.949 466.979 186.895 466.969 186.841C466.609 184.8 466.298 182.741 465.596 180.819C465.33 180.088 465.053 179.362 464.712 178.66C464.53 178.344 464.381 177.978 464.169 177.677C463.917 177.682 463.67 177.697 463.418 177.712ZM447.614 179.811C444.315 180.201 440.992 180.394 437.697 180.834C437.031 180.923 436.364 181.026 435.697 181.14C435.613 181.15 435.529 181.16 435.445 181.179C435.51 181.244 435.579 181.308 435.643 181.372C436.917 182.577 438.181 183.798 439.456 185.003C440.374 185.813 441.278 186.643 442.162 187.488C444.093 186.1 445.945 184.613 447.832 183.17C449.131 182.158 450.405 181.12 451.714 180.117C452.064 179.851 452.405 179.569 452.741 179.287C452.756 179.223 452.775 179.154 452.795 179.09C451.071 179.357 449.348 179.618 447.614 179.811ZM453.99 178.902C454.005 178.927 454.025 178.947 454.035 178.971C454.119 179.159 454.138 179.327 454.104 179.49C455.556 180.478 457.521 184.445 457.926 185.136C457.635 184.341 457.344 183.541 457.052 182.745C456.558 181.441 455.981 179.816 456.553 178.497C455.699 178.625 454.845 178.764 453.99 178.902ZM459.196 178.127C459.28 178.215 459.359 178.309 459.428 178.393C460.781 180.043 461.374 182.143 462.016 184.139C461.902 182.75 461.838 179.554 462.692 177.761C461.522 177.85 460.356 177.973 459.196 178.127ZM476.684 176.556C477.202 177.277 477.538 178.344 477.667 178.976C477.973 180.567 477.928 182.212 477.874 183.822C478.506 182.083 479.242 180.32 480.575 178.996C480.941 178.626 481.282 178.413 481.588 178.339C481.44 177.84 481.282 177.336 481.257 176.827C481.143 176.773 481.035 176.719 480.916 176.664C480.679 176.58 480.615 176.235 480.827 176.081C480.896 176.032 480.966 175.992 481.045 175.968C479.593 176.17 478.141 176.368 476.684 176.556ZM465.117 177.628C466.115 179.1 466.816 181.713 467.029 182.77C467.167 181.392 467.379 179.999 467.913 178.714C468.051 178.344 468.278 177.855 468.564 177.41C467.419 177.504 466.268 177.578 465.117 177.628ZM489.268 175.335C486.611 175.454 484.077 175.578 481.464 175.904C482.171 175.938 483.015 176.531 483.558 176.788C486.26 178.285 488.813 180.019 491.342 181.787C492.843 180.083 494.335 178.369 495.831 176.659C496.404 175.997 497.017 175.365 497.575 174.693C497.496 174.698 497.412 174.693 497.333 174.693C494.636 174.851 491.964 175.212 489.268 175.335ZM471.236 177.173C472.106 178.472 472.288 180.142 472.338 181.673C472.698 180.266 473.153 178.215 474.056 176.872C473.118 176.98 472.18 177.084 471.236 177.173ZM434.408 180.088C434.487 180.058 434.571 180.043 434.655 180.028C436.26 179.811 437.87 179.648 439.47 179.396C443.308 178.798 447.116 177.998 450.973 177.529C454.356 177.084 457.759 176.783 461.142 176.309C464.134 175.899 467.132 175.518 470.14 175.251C475.968 174.817 481.785 174.585 487.603 174.189C490.097 173.997 492.577 173.616 495.066 173.384C495.762 173.33 496.463 173.275 497.165 173.251C496.681 172.045 496.207 170.83 495.757 169.61C495.229 168.256 494.725 166.893 494.231 165.525C494.201 165.525 494.177 165.525 494.147 165.525C493.663 165.52 493.184 165.539 492.705 165.554C490.932 165.643 489.159 165.811 487.391 165.969C483.8 166.236 480.2 166.335 476.62 166.705C473.177 167.021 469.804 167.832 466.372 168.251C461.324 168.928 456.213 169.017 451.185 169.827C449.526 170.079 447.866 170.336 446.187 170.47C443.204 170.741 440.182 170.618 437.208 170.875C437.154 170.84 437.115 170.805 437.09 170.771C436.231 173.888 435.366 177 434.408 180.088ZM439.031 163.731C438.404 165.945 437.801 168.168 437.189 170.391C438.172 169.6 443.51 168.834 443.96 168.775C450.054 168.064 456.198 168.113 462.268 167.254C466.658 166.626 471.093 166.542 475.494 166.038C479.657 165.539 483.781 164.744 487.959 164.344C489.86 164.196 491.767 164.043 493.673 163.929C493.303 162.872 492.942 161.81 492.582 160.743C491.564 160.688 490.547 160.688 489.529 160.669C484.512 160.693 479.489 160.659 474.476 160.876C467.004 161.41 459.546 162.165 452.049 162.249C449.526 162.254 447.007 162.319 444.498 162.541C442.75 162.645 441.001 162.99 439.248 162.911C439.169 163.193 439.1 163.465 439.031 163.731ZM446.291 156.119C444.36 157.917 442.36 159.809 440.414 161.578C441.199 161.597 441.979 161.573 442.74 161.533C447.096 161.192 451.432 160.659 455.778 160.165C453.99 158.416 452.064 156.81 450.296 155.037C449.852 154.607 449.412 154.177 448.977 153.743C448.054 154.523 447.15 155.319 446.291 156.119ZM439.712 161.138C439.895 160.98 440.048 160.841 440.127 160.748C442.814 158.144 445.659 155.719 448.365 153.135C446.73 151.495 445.115 149.835 443.436 148.235C442.206 152.537 440.888 156.815 439.712 161.138ZM461.606 126.889C461.033 132.703 460.386 138.369 460.174 144.174C459.848 148.635 459.013 153.031 458.193 157.418C458.055 158.258 457.917 159.103 457.783 159.942C459.497 159.755 461.211 159.587 462.924 159.443C465.794 159.271 468.767 159.221 471.681 159.132C471.612 158.88 471.572 158.609 471.538 158.337C471.365 157.255 471.212 156.183 471.063 155.2C470.762 153.175 470.476 151.263 470.214 149.247C469.542 143.003 468.604 136.794 468.041 130.54C467.799 127.427 467.167 124.419 466.959 121.326C466.826 121.144 466.752 120.897 466.742 120.65C465.31 120.65 463.873 120.64 462.44 120.63C461.961 122.71 461.769 124.809 461.606 126.889ZM452.948 150.497C451.941 151.302 450.913 152.127 449.906 152.967C451.383 154.444 452.835 155.941 454.316 157.369C455.161 158.159 456.02 158.935 456.85 159.745C456.904 159.364 456.963 158.984 457.013 158.604C457.373 155.521 457.591 152.532 457.926 149.46C458.045 148.432 458.168 147.405 458.297 146.377C456.608 147.864 454.706 149.089 452.948 150.497ZM482.171 155.412C481.435 156.524 480.645 157.606 479.924 158.727C483.43 158.564 486.941 158.475 490.453 158.535C489.1 157.502 487.727 156.494 486.438 155.378C485.549 154.583 484.744 153.698 483.84 152.923C483.287 153.753 482.724 154.583 482.171 155.412ZM478.21 154.731C478.427 155.862 478.679 156.978 479.015 158.07C479.282 157.65 479.578 157.25 479.731 156.973C480.398 155.976 481.074 154.988 481.761 154C482.176 153.407 482.595 152.819 483.025 152.231C481.657 151.08 480.299 149.919 478.98 148.709C478.254 148.057 477.543 147.375 476.787 146.767C477.365 149.4 477.79 152.063 478.21 154.731ZM486.462 148.916C485.84 149.919 485.198 150.907 484.541 151.885C484.551 151.895 484.561 151.905 484.571 151.915C485.544 152.77 486.423 153.733 487.45 154.528C488.221 155.126 489.001 155.704 489.821 156.237C490.344 156.573 490.883 156.885 491.406 157.225C490.611 154.815 489.821 152.404 489.001 150.003C488.606 148.931 488.206 147.864 487.801 146.802C487.356 147.508 486.912 148.215 486.462 148.916ZM444.439 147.879C444.429 147.889 444.419 147.899 444.414 147.904C446.093 149.262 447.679 150.759 449.229 152.29C451.417 150.171 453.817 148.304 456.228 146.441C456.425 146.288 456.613 146.13 456.805 145.962C452.642 146.402 448.528 147.024 444.439 147.879ZM477.696 145.626C479.133 146.758 480.393 148.091 481.721 149.346C482.388 149.983 483.079 150.591 483.771 151.204C484.329 150.433 484.882 149.662 485.415 148.882C486.117 147.914 486.68 146.837 487.376 145.868C487.327 145.868 487.272 145.868 487.223 145.868C484.734 145.839 482.25 145.76 479.761 145.641C479.356 145.616 478.946 145.607 478.541 145.607C478.259 145.611 477.978 145.616 477.696 145.626ZM444.355 144.95C444.182 145.592 444.004 146.234 443.821 146.876C444.034 146.822 444.251 146.772 444.463 146.723C445.392 145.799 446.72 144.712 447.061 144.352C448.686 142.84 450.222 141.235 451.778 139.654C450.444 138.206 449.175 136.7 447.856 135.247C447.476 134.818 447.081 134.398 446.706 133.963C446.029 137.643 445.254 141.314 444.355 144.95ZM446.291 146.18C446.197 146.268 446.103 146.357 446.004 146.446C447.392 146.234 448.785 146.101 450.163 145.854C452.054 145.493 453.956 145.177 455.862 144.895C456.193 144.846 456.524 144.791 456.855 144.742C455.423 143.245 453.896 141.862 452.459 140.385C450.36 142.257 448.34 144.233 446.291 146.18ZM484.482 144.574C485.08 144.614 485.672 144.648 486.265 144.693C484.393 142.786 482.477 140.918 480.501 139.125C480.378 139.333 480.259 139.54 480.136 139.743C479.163 141.378 478.116 142.964 477.133 144.589C478.215 144.49 479.301 144.451 480.388 144.451C481.756 144.451 483.124 144.505 484.482 144.574ZM455.057 138.162C454.44 138.666 453.827 139.18 453.23 139.703C453.832 140.39 454.455 141.062 455.116 141.694C456.079 142.647 457.023 143.626 457.986 144.579C458.07 144.569 458.149 144.559 458.233 144.549C458.322 144.549 458.42 144.535 458.519 144.52C458.796 142.228 459.052 139.93 459.215 137.623C459.275 136.705 459.324 135.781 459.374 134.857C457.773 135.717 456.47 137.031 455.057 138.162ZM473.943 134.867C474.54 137.856 475.326 140.81 476.052 143.769C476.106 143.971 476.16 144.174 476.215 144.376C476.733 142.949 478.101 141.002 478.615 140.093C478.995 139.545 479.361 138.982 479.716 138.414C478.911 137.712 478.076 137.046 477.247 136.379C476.007 135.356 474.847 134.24 473.641 133.178C473.745 133.741 473.844 134.304 473.943 134.867ZM481.064 138.172C482.176 139.234 483.277 140.311 484.423 141.343C485.094 141.906 485.736 142.494 486.383 143.082C485.544 140.859 484.729 138.631 483.993 136.369C483.776 135.727 483.583 135.079 483.405 134.432C482.581 135.657 481.82 136.912 481.064 138.172ZM450.301 136.354C451.067 137.184 451.793 138.048 452.528 138.903C452.617 138.814 452.706 138.725 452.79 138.641C454.39 137.046 456.055 135.494 457.902 134.195C454.514 133.844 451.111 133.874 447.728 133.696C448.587 134.576 449.452 135.46 450.301 136.354ZM475.143 132.866C475.874 133.504 476.59 134.161 477.326 134.783C478.353 135.638 479.341 136.537 480.309 137.456C481.079 136.191 481.83 134.907 482.64 133.667C482.778 133.479 482.882 133.232 483.02 133.034C482.956 132.975 482.897 132.916 482.832 132.856C481.42 132.787 480.008 132.807 478.59 132.842C478.294 132.837 477.993 132.832 477.696 132.832C476.852 132.832 475.997 132.856 475.143 132.866ZM453.793 128.677C452.079 129.883 450.355 131.073 448.597 132.219C448.528 132.254 448.4 132.338 448.237 132.446C449.397 132.481 450.563 132.575 451.718 132.634C453.704 132.758 455.694 132.866 457.675 133.098C457.882 133.118 458.094 133.143 458.302 133.168C456.949 131.562 455.477 130.055 454.138 128.435C454.025 128.514 453.911 128.593 453.793 128.677ZM458.573 125.264C457.383 126.207 456.139 127.077 454.884 127.931C455.111 128.223 455.343 128.509 455.576 128.796C456.805 130.273 458.223 131.612 459.472 133.064C459.645 129.971 459.857 126.869 460.337 123.816C459.754 124.31 459.171 124.794 458.573 125.264ZM446.997 132.377C447.293 132.18 447.609 132.007 447.916 131.819C448.681 131.345 449.422 130.831 450.153 130.302C451.289 129.448 452.405 128.573 453.516 127.689C451.847 125.674 450.276 123.584 448.721 121.485C448.207 125.12 447.644 128.756 446.997 132.377ZM477.232 131.913C477.425 131.913 477.622 131.913 477.82 131.913C477.849 131.913 477.879 131.913 477.909 131.913C479.277 131.913 480.645 131.962 482.013 132.081C480.373 130.544 478.738 129.003 477.212 127.353C477.192 127.329 477.168 127.304 477.148 127.279C476.62 127.991 476.096 128.702 475.592 129.433C475.049 130.218 474.506 131.004 473.963 131.789C473.948 131.804 473.933 131.824 473.918 131.844C473.997 131.903 474.071 131.967 474.15 132.031C474.99 131.928 475.839 131.913 476.684 131.913C476.866 131.913 477.049 131.913 477.232 131.913ZM470.999 121.371C471.893 124.626 472.634 127.931 473.276 131.251C473.637 130.544 474.259 129.744 474.427 129.423C475.059 128.41 475.736 127.432 476.437 126.474C475.419 125.308 474.422 124.127 473.365 122.996C472.599 122.142 471.819 121.331 470.841 120.729C470.891 120.951 470.93 121.178 470.999 121.371ZM480.896 122.063C479.948 123.545 478.891 124.952 477.839 126.355C479.445 127.857 481.069 129.344 482.59 130.935C482.324 129.561 482.097 128.183 481.879 126.8C481.608 125.15 481.316 123.505 481.015 121.865C480.976 121.929 480.936 121.998 480.896 122.063ZM452.025 120.615C451.126 120.63 450.232 120.66 449.338 120.714C451.047 122.784 452.603 124.977 454.242 127.106C456.366 125.397 458.46 123.643 460.549 121.885C460.593 121.84 460.648 121.806 460.697 121.776C460.776 121.386 460.86 121 460.949 120.61C459.25 120.6 457.551 120.59 455.847 120.59C454.573 120.595 453.299 120.6 452.025 120.615ZM476.778 120.334C475.182 120.383 473.592 120.462 472.002 120.526C472.935 121.312 473.923 122.537 474.308 122.897C475.197 123.836 476.126 124.735 477.064 125.624C477.997 124.374 478.956 123.139 479.879 121.885C480.18 121.435 480.477 120.991 480.773 120.541C480.768 120.521 480.763 120.497 480.763 120.477C480.714 120.487 480.664 120.487 480.615 120.487C479.593 120.427 478.575 120.309 477.548 120.309C477.286 120.309 477.034 120.319 476.778 120.334ZM449.032 119.301C450.113 119.084 451.244 119.103 452.341 119.054C457.857 118.792 463.379 119.237 468.885 119.266C472.229 119.232 475.548 118.738 478.891 118.698C479.4 118.688 479.909 118.669 480.412 118.698C480.146 117.315 479.864 115.937 479.573 114.559C479.509 114.569 479.449 114.578 479.385 114.573C478.822 114.573 478.264 114.524 477.706 114.494C472.135 114.203 466.54 114.42 460.979 113.946C457.605 113.566 454.435 112.993 451.067 112.953C450.839 112.948 450.617 112.943 450.39 112.933C450.222 113.082 450.029 113.259 449.827 113.254C449.575 115.27 449.308 117.286 449.032 119.301ZM467.029 112.291C469.76 112.355 472.491 112.568 475.217 112.706C476.096 112.751 476.975 112.78 477.849 112.815C477.923 112.82 477.993 112.82 478.067 112.825C477.993 112.775 477.918 112.726 477.839 112.681C476.239 111.654 474.526 110.607 472.935 109.678C469.35 107.667 465.947 105.346 462.277 103.483C461.26 104.16 460.248 104.847 459.255 105.568C456.766 107.341 454.543 109.233 452.286 111.224C452.104 111.387 451.921 111.555 451.738 111.718C452.682 111.733 453.659 111.822 454.178 111.817C458.46 112.024 462.742 112.237 467.029 112.291ZM451.723 98.8692C451.294 101.907 450.854 104.945 450.504 107.993C450.341 109.278 450.178 110.562 450.015 111.847C450.113 111.822 450.227 111.802 450.346 111.787C450.449 111.693 450.543 111.605 450.607 111.525C452.119 109.984 453.758 108.581 455.492 107.292C457.403 105.879 459.255 104.377 461.132 102.915C459.25 102.001 457.314 101.201 455.398 100.351C454.213 99.8424 453.082 99.2051 451.852 98.8149C451.807 98.8396 451.768 98.8544 451.723 98.8692ZM474.486 95.4408C472.007 96.9278 469.636 98.5876 467.241 100.203C465.922 101.107 464.594 101.967 463.27 102.836C465.784 104.081 468.337 105.247 470.772 106.645C473.113 107.959 475.405 109.362 477.662 110.819C478.091 111.096 478.521 111.372 478.956 111.649C478.432 109.278 477.869 106.916 477.281 104.565C476.763 102.391 476.343 100.198 475.79 98.0343C475.548 97.0661 475.281 96.1077 475 95.1543C474.812 95.2482 474.634 95.3371 474.486 95.4408ZM467.972 95.5742C464.767 95.9991 461.586 96.5919 458.406 97.1896C456.682 97.5058 454.939 97.7528 453.235 98.1628C453.531 98.2863 453.827 98.4246 454.114 98.5234C456.771 99.7041 459.388 100.984 462.016 102.228C463.013 101.468 464.021 100.722 465.058 100.01C467.685 98.227 470.436 96.6264 473.118 94.937C471.394 95.1296 469.7 95.3914 467.972 95.5742ZM453.63 82.6364C453.6 82.666 453.57 82.6907 453.531 82.7105C453.284 86.0203 452.958 89.3202 452.568 92.6201C452.38 94.1812 452.168 95.7323 451.951 97.2884C452.044 97.2588 452.143 97.2291 452.232 97.1995C452.316 97.1748 452.4 97.155 452.489 97.1353C453.299 96.4782 454.134 95.8558 454.934 95.184C456.835 93.5636 458.593 91.7951 460.396 90.0711C461.344 89.172 462.312 88.2976 463.29 87.4331C460.781 85.9758 458.208 84.642 455.605 83.3527C455.003 83.0464 454.41 82.7253 453.803 82.4437C453.743 82.503 453.684 82.5722 453.63 82.6364ZM458.573 93.0252C457.156 94.2157 455.798 95.4754 454.395 96.6857C456.109 96.3202 457.842 96.0485 459.571 95.7768C462.999 95.2877 466.303 94.9123 469.681 94.2602C470.93 93.9984 472.19 93.8255 473.444 93.618C470.752 92.1162 468.189 90.3922 465.552 88.8015C465.177 88.5644 464.796 88.3371 464.421 88.1049C462.515 89.7895 460.574 91.4394 458.573 93.0252ZM469.705 83.2489C468.234 84.6371 466.752 86.0104 465.251 87.359C466.303 87.9419 467.359 88.51 468.426 89.0633C469.76 89.7697 471.063 90.5305 472.382 91.2616C472.935 91.5877 473.508 91.884 474.071 92.2002C473.696 91.0245 473.32 89.8537 472.96 88.678C472.318 86.4352 471.73 84.1777 471.182 81.9102C470.683 82.3548 470.199 82.8043 469.705 83.2489ZM460.663 81.6434C458.954 81.841 457.235 81.9349 455.516 82.0041C455.941 82.2066 456.361 82.419 456.771 82.6413C459.235 83.9553 461.655 85.3534 464.09 86.7168C464.702 86.1783 465.32 85.6399 465.927 85.0965C467.562 83.654 469.207 82.2066 470.752 80.6702C467.379 80.8185 464.016 81.1889 460.663 81.6434ZM454.099 71.2003C454.025 74.4804 453.872 77.7557 453.65 81.0259C453.709 81.0111 453.773 81.0012 453.837 80.9913C454.158 80.5665 454.474 80.1417 454.79 79.7119C457.013 76.4861 459.625 73.5418 461.789 70.2765C460.09 68.6413 458.322 67.0803 456.603 65.4649C455.986 64.9265 455.403 64.3287 454.756 63.8298C454.687 63.8594 454.618 63.8693 454.543 63.8347C454.351 66.2899 454.163 68.7401 454.099 71.2003ZM457.902 77.0196C456.968 78.3238 456.02 79.6131 455.042 80.8777C456.316 80.774 457.586 80.6752 458.86 80.5764C462.781 80.28 466.693 79.9539 470.609 79.6131C469.572 78.3386 468.372 77.2122 467.246 76.0168C465.69 74.436 464.238 72.7564 462.697 71.1657C462.618 71.0866 462.544 71.0125 462.465 70.9335C460.949 72.9688 459.413 74.9843 457.902 77.0196ZM463.157 70.0097C464.129 71.0669 465.078 72.1438 466.041 73.2108C467.3 74.594 468.708 75.8784 470.081 77.1727C469.118 72.8601 468.229 68.5277 467.285 64.2151C465.957 66.1812 464.569 68.1029 463.157 70.0097ZM466.673 62.3478C466.451 62.3626 466.224 62.3675 466.001 62.3824C462.717 62.5997 459.462 63.074 456.183 63.3753C457.571 64.5313 458.885 65.7811 460.208 67.0062C460.979 67.7324 461.724 68.4833 462.445 69.2539C463.408 67.7373 464.307 66.1763 465.31 64.6795C465.833 63.9088 466.342 63.1332 466.806 62.328C466.762 62.3379 466.717 62.3478 466.673 62.3478ZM454.939 48.6986C454.963 48.743 454.993 48.8418 454.939 48.8665C454.978 51.1686 455.092 53.4657 455.027 55.7677C454.973 57.9808 454.82 60.1939 454.652 62.4021C454.706 62.4169 454.761 62.4318 454.815 62.4515C454.835 62.4219 454.85 62.3922 454.864 62.3626C455.24 61.7698 455.63 61.1819 456.005 60.5891C457.457 58.2822 458.791 55.906 460.233 53.5941C458.613 51.5983 456.899 49.6866 454.983 47.9921C454.948 48.2293 454.909 48.4713 454.939 48.6986ZM458.815 58.2624C457.852 59.6505 456.786 60.9646 455.783 62.3181C456.4 62.1946 457.018 62.1354 457.304 62.0711C458.988 61.8241 460.692 61.6957 462.391 61.592C463.67 61.5179 464.954 61.4635 466.233 61.3944C465.004 59.6505 463.621 58.0055 462.352 56.2913C461.956 55.7677 461.556 55.249 461.147 54.7303C460.401 55.9258 459.63 57.1064 458.815 58.2624ZM461.779 53.7127C461.877 53.8213 461.976 53.93 462.075 54.0338C463.463 55.5701 464.831 57.1311 466.159 58.7218C465.631 55.9258 465.172 53.1149 464.895 50.2794C464.855 49.7557 464.806 49.2321 464.757 48.7134C463.774 50.3831 462.796 52.0578 461.779 53.7127ZM463.013 46.1594C460.564 46.7374 458.045 46.9943 455.526 47.0684C456.228 47.5426 456.791 48.2046 457.383 48.8072C458.583 50.0373 459.69 51.3513 460.821 52.6407C461.818 50.9957 462.87 49.3852 463.873 47.7451C463.996 47.5228 464.11 47.2857 464.342 47.1622C464.431 47.1178 464.51 47.0931 464.589 47.0881C464.544 46.683 464.495 46.2829 464.446 45.8778C464.011 45.9816 463.527 46.0557 463.013 46.1594ZM457.783 42.0641C456.672 42.2321 455.541 42.3704 454.474 42.7409C454.222 43.0571 454.252 43.556 454.193 43.9512C454.163 44.5687 454.134 45.1912 454.188 45.8087C454.227 45.8136 454.267 45.8136 454.306 45.8185C455.852 45.7741 457.21 45.3937 458.697 45.0973C460.618 44.7367 462.524 44.3118 464.441 43.9364C464.5 42.9435 464.406 41.9357 464.495 40.9428C462.268 41.3824 460.025 41.7233 457.783 42.0641ZM462.786 37.9985C462.134 38.122 461.487 38.2702 460.835 38.4085C459.601 38.6802 458.425 38.9371 457.22 39.2434C456.894 39.3274 456.558 39.4015 456.237 39.5052C456.257 40.0042 456.267 40.5031 456.307 40.9971C456.697 40.9131 457.087 40.8341 457.477 40.755C459.378 40.35 461.309 40.1721 463.236 39.9597C463.201 39.856 463.186 39.7423 463.186 39.6386C463.117 39.0804 463.028 38.5271 462.92 37.9788C462.875 37.9886 462.831 37.9936 462.786 37.9985ZM456.257 33.6464C456.124 35.1827 456.153 36.6548 456.193 38.1566C456.549 37.9936 456.978 37.9145 457.324 37.8207C459.092 37.4255 460.875 37.0797 462.663 36.7932C461.877 33.5575 460.895 30.2822 458.993 27.506C457.521 29.2251 456.509 31.3888 456.257 33.6464Z" fill="black"/>
<path d="M440.532 179.549C440.414 179.47 440.354 179.337 440.33 179.199C440.266 178.645 440.231 178.092 440.127 177.544C439.816 175.41 439.525 173.256 439.54 171.097C439.564 170.628 439.599 170.035 440.043 169.758C440.231 169.654 440.458 169.694 440.592 169.862C440.834 170.168 440.73 170.707 440.715 171.057C440.69 171.527 440.676 172.001 440.705 172.47C440.735 172.999 440.774 173.532 440.814 174.061C440.893 175.093 440.982 176.126 441.085 177.153C441.125 177.756 441.184 178.359 441.209 178.961C441.229 179.238 441.011 179.604 440.73 179.604C440.661 179.604 440.596 179.589 440.532 179.549Z" fill="black"/>
<path d="M446.014 178.462C445.836 178.349 445.747 178.146 445.718 177.944C445.5 176.565 445.382 175.172 445.214 173.789C445.085 172.648 444.952 171.512 444.863 170.366C444.843 170.069 444.799 169.738 444.982 169.481C445.115 169.279 445.431 169.304 445.5 169.546C445.96 171.596 446.374 173.646 446.73 175.716C446.834 176.299 446.888 176.891 446.987 177.474C447.086 177.909 446.745 178.541 446.29 178.541C446.207 178.541 446.113 178.517 446.014 178.462Z" fill="black"/>
<path d="M450.676 177.188C450.518 177.124 450.399 176.961 450.365 176.793C449.985 175.138 449.683 173.463 449.293 171.808C449.16 171.235 449.026 170.657 448.854 170.094C448.725 169.872 448.72 169.59 448.829 169.353C449.14 168.726 449.708 168.978 449.891 169.551C450.666 171.724 451.066 174.017 451.456 176.289C451.53 176.674 451.259 177.218 450.849 177.218C450.79 177.218 450.73 177.208 450.676 177.188Z" fill="black"/>
<path d="M455.497 177.504C455.354 177.415 455.289 177.252 455.26 177.094C455.171 176.521 455.087 175.948 455.003 175.375C454.791 173.414 454.554 171.408 454.776 169.437C454.835 169.17 454.914 168.874 455.161 168.726C455.329 168.627 455.546 168.706 455.61 168.894C455.744 169.778 455.689 170.687 455.778 171.581C455.867 172.91 455.936 174.239 456.119 175.553C456.144 176.19 456.593 177.168 455.852 177.539C455.808 177.554 455.759 177.563 455.709 177.563C455.635 177.568 455.566 177.549 455.497 177.504Z" fill="black"/>
<path d="M460.435 176.17C460.302 176.086 460.238 175.933 460.213 175.785C460.03 174.624 459.877 173.463 459.763 172.297C459.679 171.522 459.586 170.746 459.497 169.971C459.472 169.358 459.235 168.686 459.432 168.098C459.492 167.98 459.591 167.881 459.719 167.891C460.178 167.906 460.242 169.195 460.356 169.565C460.499 170.331 460.628 171.102 460.731 171.872C460.894 173.058 461.038 174.249 461.161 175.444C461.22 175.77 460.983 176.234 460.647 176.234C460.578 176.23 460.509 176.215 460.435 176.17Z" fill="black"/>
<path d="M465.023 176.719C464.86 176.57 464.88 176.338 464.86 176.136C464.801 175.612 464.727 175.093 464.677 174.57C464.48 172.48 464.272 170.376 464.332 168.276C464.327 167.98 464.672 167.486 464.934 167.861C465.112 168.953 465.146 170.089 465.275 171.201C465.398 172.534 465.512 173.873 465.63 175.212C465.601 175.711 465.932 176.585 465.295 176.798C465.275 176.803 465.26 176.803 465.24 176.803C465.156 176.808 465.082 176.778 465.023 176.719Z" fill="black"/>
<path d="M469.665 176.131C469.211 175.884 469.33 175.167 469.216 174.728C469.162 174.328 469.107 173.932 469.068 173.532C468.925 172.021 468.826 170.494 468.86 168.973C468.895 168.563 468.856 167.535 469.443 167.56C469.754 167.659 469.695 168.069 469.823 168.306C469.957 168.316 469.828 168.558 469.764 168.419C469.749 168.415 469.735 168.41 469.72 168.4C469.67 168.39 469.626 168.365 469.581 168.34C469.735 170.148 470.021 171.942 470.194 173.745C470.243 174.268 470.312 174.792 470.377 175.316C470.431 175.666 470.199 176.155 469.828 176.155C469.774 176.16 469.72 176.151 469.665 176.131Z" fill="black"/>
<path d="M474.179 175.217C473.947 173.098 473.621 170.993 473.325 168.879C473.251 168.326 473.187 167.772 473.157 167.214C473.147 167.046 473.137 166.858 473.211 166.705C473.444 166.285 473.74 166.582 473.799 166.933C474.377 169.561 474.678 172.253 474.975 174.925C475.034 175.281 474.772 175.587 474.525 175.587C474.382 175.592 474.244 175.484 474.179 175.217Z" fill="black"/>
<path d="M478.082 173.962C477.859 172.159 477.696 170.351 477.607 168.538C477.607 167.906 477.444 167.254 477.578 166.626C477.647 166.35 478.003 166.137 478.215 166.404C478.412 166.681 478.417 167.051 478.477 167.377C478.729 169.516 478.926 171.581 479.069 173.691C479.099 174.101 478.793 174.422 478.506 174.422C478.329 174.422 478.156 174.288 478.082 173.962Z" fill="black"/>
<path d="M482.541 174.856C482.141 172.619 481.711 170.386 481.523 168.123C481.484 167.461 481.355 166.774 481.499 166.117C481.602 165.619 482.22 165.416 482.328 166.029C482.338 166.206 482.314 166.379 482.373 166.557C482.442 166.661 482.427 166.809 482.358 166.913C482.526 168.899 482.842 170.865 483.124 172.836C483.188 173.389 483.277 173.937 483.351 174.486C483.38 174.723 483.291 175.005 483.069 175.123C483.015 175.153 482.961 175.168 482.906 175.168C482.738 175.168 482.58 175.044 482.541 174.856Z" fill="black"/>
<path d="M486.823 174.995C486.699 174.916 486.635 174.772 486.61 174.629C486.516 174.002 486.442 173.369 486.353 172.737C486.245 171.981 486.121 171.23 486.013 170.475C485.914 169.432 485.208 166.182 485.924 165.48C486.467 165.184 486.492 166.083 486.566 166.419C486.763 167.674 486.931 168.933 487.094 170.193C487.272 171.586 487.44 172.974 487.514 174.377C487.544 174.669 487.307 175.049 487.015 175.049C486.956 175.054 486.887 175.034 486.823 174.995Z" fill="black"/>
<path d="M491.308 174.802C491.169 174.713 491.105 174.555 491.075 174.397C490.952 173.725 490.848 173.048 490.745 172.376C490.473 170.153 490.038 167.955 489.752 165.737C489.673 165.347 489.944 164.63 490.438 164.882C490.725 165.1 490.74 165.505 490.833 165.831C491.095 167.066 491.293 168.311 491.475 169.561C491.589 170.346 491.668 171.141 491.767 171.932C491.856 172.633 491.984 173.33 492.058 174.036C492.122 174.377 491.871 174.866 491.52 174.866C491.461 174.866 491.387 174.846 491.308 174.802Z" fill="black"/>
<path d="M442.562 169.052C442.31 167.377 442.216 165.683 442.231 163.988C442.271 163.46 442.162 162.808 442.522 162.368C442.725 162.16 443.006 162.373 442.957 162.635C442.824 163.682 442.947 164.744 443.001 165.791C443.071 166.809 443.105 167.812 443.214 168.815C443.263 169.106 443.046 169.358 442.843 169.358C442.725 169.358 442.616 169.269 442.562 169.052Z" fill="black"/>
<path d="M453.047 168.494C452.929 168.42 452.88 168.286 452.855 168.158C452.578 166.666 452.479 165.149 452.262 163.647C452.228 163.4 452.193 163.153 452.163 162.906C452.144 162.709 452.099 162.457 452.237 162.294C452.43 162.052 452.667 162.289 452.628 162.531C452.88 163.815 453.146 165.1 453.393 166.384C453.497 166.873 453.596 167.357 453.68 167.851C453.744 168.133 453.522 168.543 453.225 168.543C453.171 168.548 453.107 168.528 453.047 168.494Z" fill="black"/>
<path d="M466.085 166.527C465.967 166.448 465.912 166.315 465.888 166.182C465.804 165.732 465.744 165.278 465.68 164.828C465.557 163.727 465.32 162.585 465.517 161.484C465.572 161.182 465.976 160.911 466.144 161.286C466.332 161.834 466.288 162.511 466.347 163.084C466.411 163.682 466.554 164.309 466.589 164.897C466.619 165.426 467.019 166.246 466.391 166.557C466.352 166.572 466.312 166.577 466.273 166.577C466.199 166.582 466.139 166.567 466.085 166.527Z" fill="black"/>
<path d="M475.355 166.236C475.276 166.162 475.246 166.058 475.241 165.954C475.212 165.574 475.187 165.194 475.162 164.868C475.113 164.22 474.999 163.583 474.896 162.946C474.831 162.264 474.545 161.582 474.624 160.901C474.668 160.753 474.846 160.609 474.989 160.738C475.212 161.103 475.182 161.587 475.291 161.997C475.429 162.793 475.587 163.588 475.706 164.388C475.78 164.848 475.829 165.312 475.883 165.777C475.933 165.994 475.755 166.3 475.543 166.3C475.469 166.305 475.409 166.285 475.355 166.236Z" fill="black"/>
<path d="M483.796 164.937C483.672 164.858 483.623 164.724 483.598 164.591C483.519 164.181 483.47 163.766 483.405 163.356C483.267 162.477 483.178 161.582 483.228 160.688C483.238 160.471 483.262 160.224 483.401 160.041C483.583 159.774 483.954 159.829 483.973 160.17C484.028 160.59 484.057 161.168 484.097 161.553C484.166 162.467 484.339 163.371 484.452 164.275C484.507 164.566 484.294 164.991 483.988 164.991C483.924 164.991 483.86 164.971 483.796 164.937Z" fill="black"/>
<path d="M451.19 119.242C451.091 119.177 451.032 119.054 451.042 118.935C451.096 118.412 451.17 117.893 451.254 117.374C451.511 116.041 451.743 114.672 452.282 113.417C452.385 113.195 452.543 112.973 452.795 112.914C452.973 112.869 453.166 112.963 453.181 113.161C453.126 113.571 452.924 113.951 452.855 114.366C452.613 115.428 452.43 116.5 452.183 117.562C452.094 117.967 452.025 118.377 451.951 118.787C451.906 119.044 451.65 119.296 451.388 119.296C451.319 119.296 451.254 119.276 451.19 119.242Z" fill="black"/>
<path d="M454.444 119.553C454.361 119.474 454.346 119.365 454.361 119.257C454.484 118.303 454.667 117.365 454.79 116.411C454.909 115.591 455.003 114.766 455.141 113.946C455.2 113.674 455.23 113.383 455.398 113.156C455.793 112.721 456.198 112.973 456.04 113.536C455.901 114.48 455.773 115.428 455.615 116.367C455.457 117.3 455.319 118.234 455.166 119.168C455.131 119.395 454.894 119.622 454.662 119.622C454.588 119.632 454.514 119.607 454.444 119.553Z" fill="black"/>
<path d="M457.522 119.904C457.403 119.83 457.334 119.681 457.344 119.538C457.403 118.931 457.472 118.318 457.546 117.71C457.734 116.238 457.966 114.756 458.396 113.329C458.47 112.998 458.835 112.37 459.215 112.716C459.344 112.963 459.206 113.254 459.191 113.516C459.053 114.356 458.929 115.196 458.825 116.041C458.687 117.147 458.588 118.259 458.425 119.36C458.381 119.667 458.07 119.968 457.754 119.968C457.675 119.963 457.596 119.948 457.522 119.904Z" fill="black"/>
<path d="M462.425 119.533C462.332 119.474 462.262 119.365 462.258 119.252C462.233 118.758 462.262 118.264 462.277 117.77C462.297 116.811 462.302 115.858 462.317 114.9C462.337 114.44 462.282 113.966 462.386 113.511C462.46 113.289 462.687 113.092 462.934 113.131C463.196 113.2 463.221 113.516 463.265 113.734C463.448 114.954 463.472 116.189 463.418 117.419C463.393 117.948 463.364 118.471 463.3 118.995C463.26 119.296 462.954 119.583 462.648 119.583C462.574 119.588 462.5 119.573 462.425 119.533Z" fill="black"/>
<path d="M466.229 120.23C466.12 120.185 466.051 120.086 466.041 119.973C465.997 119.444 466.011 118.911 466.021 118.377C466.031 117.369 466.066 116.357 466.085 115.344C466.12 114.825 466.021 114.277 466.194 113.783C466.416 113.378 466.846 113.442 466.841 113.941C466.895 114.855 466.886 115.774 466.89 116.688C466.886 117.696 466.935 118.698 466.91 119.701C466.9 119.978 466.639 120.249 466.362 120.249C466.318 120.254 466.273 120.249 466.229 120.23Z" fill="black"/>
<path d="M469.567 120.748C469.464 120.684 469.424 120.571 469.424 120.452C469.424 119.8 469.424 119.094 469.394 118.456C469.375 117.113 469.246 115.779 469.375 114.445C469.419 114.159 469.553 113.724 469.918 113.744C470.051 113.749 470.13 113.857 470.13 113.986C470.13 114.134 470.096 114.297 470.17 114.43C470.204 114.504 470.185 114.583 470.14 114.648C470.19 116.095 470.283 117.542 470.298 118.995C470.303 119.41 470.318 119.83 470.313 120.245C470.313 120.521 470.037 120.803 469.76 120.803C469.696 120.798 469.632 120.783 469.567 120.748Z" fill="black"/>
<path d="M472.911 120.23C472.782 120.146 472.733 120.007 472.733 119.864C472.728 119.35 472.763 118.837 472.782 118.318C472.807 117.76 472.817 117.202 472.832 116.643C472.911 115.912 472.748 114.203 473.405 113.783C473.592 113.674 473.849 113.749 473.829 113.996C473.898 115.403 473.849 116.821 473.874 118.229C473.829 118.802 473.982 119.464 473.691 119.978C473.568 120.146 473.355 120.284 473.143 120.284C473.064 120.294 472.985 120.274 472.911 120.23Z" fill="black"/>
<path d="M476.684 120.116C476.535 120.022 476.486 119.869 476.481 119.701C476.471 119.257 476.491 118.812 476.516 118.367C476.595 117.152 476.545 115.907 476.817 114.717C476.95 114.242 477.553 114.183 477.405 114.791C477.38 114.944 477.637 115.216 477.4 115.265C477.444 116.653 477.736 118.022 477.721 119.41C477.711 119.795 477.331 120.185 476.945 120.185C476.861 120.185 476.768 120.166 476.684 120.116Z" fill="black"/>
<path d="M455.467 44.8207C455.423 43.8969 455.521 42.9731 455.6 42.0543C455.645 41.3084 456.336 41.1355 456.371 41.9901C456.391 42.573 456.682 45.2604 455.907 45.2752C455.897 45.2752 455.887 45.2752 455.877 45.2752C455.645 45.2752 455.482 45.0331 455.467 44.8207Z" fill="black"/>
<path d="M457.843 45.7988C457.576 45.4233 457.744 44.8948 457.719 44.4601C457.739 43.6252 457.69 42.7804 457.833 41.9505C457.917 41.2392 458.509 41.2095 458.534 41.9604C458.613 42.7706 458.569 43.5807 458.544 44.3909C458.47 44.8602 458.722 45.7642 458.109 45.9075C458.099 45.9075 458.095 45.9075 458.085 45.9075C457.991 45.9075 457.907 45.8679 457.843 45.7988Z" fill="black"/>
<path d="M460.223 44.9293C459.971 44.5786 460.124 44.0846 460.089 43.6795C460.124 42.7706 460.114 41.9555 460.39 41.1008C460.425 40.9082 460.682 40.5476 460.855 40.8242C460.978 41.3725 460.879 41.9653 460.904 42.5236C460.894 43.1658 460.904 43.8672 460.874 44.4897C460.894 44.7416 460.682 45.0331 460.455 45.0331C460.376 45.038 460.297 45.0034 460.223 44.9293Z" fill="black"/>
<path d="M462.317 44.3563C462.327 43.5362 462.367 42.7113 462.436 41.8912C462.48 41.496 462.475 40.9921 462.801 40.7106C463.488 40.4043 463.379 41.7381 463.404 42.1234C463.399 42.8693 463.379 43.6202 463.34 44.3662C463.32 44.6329 463.122 44.959 462.831 44.9837C462.816 44.9837 462.806 44.9837 462.791 44.9837C462.48 44.9886 462.322 44.6329 462.317 44.3563Z" fill="black"/>
<path d="M359.43 255.717C355.859 254.291 352.027 253.806 348.255 253.169C343.96 252.446 339.98 251 335.819 249.792C327.135 247.271 319.718 250.555 311.041 250.343C303.061 250.151 295.041 248.83 287.134 247.822C282.363 247.212 277.678 246.256 272.853 246.236C268.128 246.216 263.363 246.608 258.671 245.832C260.316 245.062 262.336 244.591 263.584 243.185C265.826 240.663 261.161 240.259 259.712 240.299C260.846 238.195 258.034 238.302 256.739 238.481C255.383 238.627 254.973 237.034 253.497 236.875C252.329 236.749 251.148 237.008 249.987 237.087C248.282 237.207 238.591 237.598 240.591 241.095C230.779 241.373 220.98 242.203 211.161 241.937C220.598 240.571 230.228 239.363 239.215 236.066C243.396 234.533 243.061 232.496 238.832 231.448C233.806 230.201 228.094 230.4 222.94 230.28C211.665 230.008 200.363 230.168 189.134 231.362C177.806 232.569 166.624 234.832 155.195 234.918C150.846 234.951 146.403 234.832 142.128 235.747C138.208 236.59 138.886 238.68 142.611 237.101C146.551 235.435 152.067 235.774 156.269 235.721C161.9 235.654 167.571 235.82 173.148 234.944C194.853 231.528 217.443 229.099 239.175 233.611C234.121 235.203 228.953 236.411 223.785 237.572C220.913 238.222 218.041 238.892 215.155 239.482C212.772 239.967 209.403 239.993 207.269 241.168C203.282 243.35 215.343 243.901 216.403 243.928C222.088 244.074 227.765 243.742 233.45 243.709C229.893 247.172 239.067 247.052 240.685 247.013C243.564 246.933 246.477 246.794 249.316 246.349C252.544 245.845 253.604 243.463 256.618 243.417C253.161 245.281 254.819 248.028 258.101 248.306C261.953 248.631 265.786 247.53 269.638 247.55C278.98 247.596 288.269 249.633 297.47 251.007C302.725 251.789 307.967 252.718 313.255 253.249C318.356 253.767 323.45 252.844 328.551 252.858C333.712 252.871 338.779 254.012 343.879 254.649C346.685 255.001 349.497 255.027 352.316 255.213C353.141 255.266 359.457 256.805 359.671 256.48C359.786 256.162 359.698 255.909 359.43 255.717ZM259.792 245.984C259.557 245.958 259.557 245.958 259.792 245.984V245.984ZM243.537 243.775C243 243.762 241.584 243.928 240.732 243.981C241.906 243.715 242.134 243.729 243.537 243.775ZM144.759 236.65C144.584 236.669 144.584 236.669 144.759 236.65V236.65Z" fill="black"/>
<path d="M553.478 236.847C552.111 237.881 550.691 238.984 548.979 239.369C548.411 236.004 544.468 234.613 543.152 231.511C542.585 230.17 540.63 225.008 538.395 226.387C533.604 229.351 542.459 241.341 537.925 246.145C537.466 245.084 538.71 242.649 538.384 241.192C537.818 238.663 536.511 236.168 535.236 233.929C532.686 229.432 527.818 227.99 525.204 223.762C517.547 211.382 520.098 228.128 521.726 227.975C521.565 227.992 520.535 221.085 520.635 220.396C524.039 222.05 525.965 227.593 527.552 230.806C529.539 234.826 529.458 242.546 533.42 245.323C534.304 245.946 537.441 247.974 538.454 247.27C539.686 246.414 540.26 244.486 540.364 243.075C540.705 238.421 538.238 233.901 538.976 229.219C539.196 229.846 539.675 232.142 539.648 231.962C540.105 234.582 542.917 243.59 546.613 242.969C548.847 242.587 548.529 240.284 550.27 239.536C551.713 238.897 553.102 237.131 553.478 236.847ZM544.658 233.815C544.403 233.637 544.403 233.637 544.658 233.815V233.815ZM520.997 223.819C521.01 223.904 521.01 223.904 520.997 223.819V223.819Z" fill="black"/>
<path d="M523.318 235.283C522.113 235.33 522.149 241.315 521.871 242.25C518.515 238.827 514.352 242.217 511.454 244.435C509.675 245.793 507.83 246.982 505.565 247.308C503.762 247.565 498.082 245.221 496.943 246.054C496.061 246.694 499.676 247.777 499.532 247.737C501.863 248.405 504.135 249.219 506.58 248.676C509.026 248.142 511.417 247.059 513.902 246.761C514.431 246.698 515.871 248.397 517.01 248.372C518.974 248.317 520.468 246.944 521.497 245.403C522.047 244.56 525.13 235.225 523.318 235.283ZM514.863 246.183C514.749 246.179 514.749 246.179 514.863 246.183V246.183Z" fill="black"/>
<path d="M496.829 246.648C492.326 245.484 487.296 246.017 483.144 243.638C481.347 242.612 479.614 240.945 477.362 241.746C474.38 242.799 473.869 244.838 470.466 244.429C468.564 244.196 466.499 244.351 464.672 243.687C462.525 242.895 461.015 240.116 459.347 238.618C454.224 233.977 456.249 240.418 453.546 243.33C450.335 246.78 448.459 241.88 446.422 239.81C443.178 236.514 437.836 234.487 434.046 238.135C432.919 239.224 431.722 243.234 429.794 242.66C427.904 242.094 425.029 241.783 423.826 240.063C422.909 238.748 422.358 236.56 420.432 236.423C418.308 236.515 417.206 238.933 415.93 240.295C414.574 241.747 412.496 242.016 410.844 243.064C409.137 244.142 407.253 245.695 405.134 244.893C402.753 243.989 401.453 243.822 398.915 243.809C396.415 243.795 394.643 241.494 392.028 242.862C387.92 245.015 386.26 243.487 383.255 240.228C380.05 236.759 377.225 233.7 375.019 229.472C373.148 225.883 369.883 220.964 365.101 222.131C359.653 223.463 360.089 229.856 360.369 234.167C360.641 238.297 359.641 241.869 359.213 245.881C358.929 248.498 359.265 252.587 362.938 250.883C366.732 249.116 366.172 240.306 365.612 236.921C364.947 232.904 363.804 223.019 370.21 229.063C372.16 230.9 373.772 233.037 375.493 235.065C377.719 237.706 380.802 239.413 383.129 241.992C384.443 243.45 385.879 244.874 387.713 245.671C389.702 246.527 391.312 244.816 393.072 244.238C394.906 243.638 396.583 244.937 398.304 245.349C400.053 245.761 401.605 245.221 403.338 245.909C407.552 247.591 409.272 244.782 413.077 243.461C414.76 242.878 416.446 242.342 417.753 241.064C418.035 240.784 419.661 238.208 420.237 238.533C421.174 239.049 421.797 241.765 422.326 242.691C423.32 244.43 424.51 246.065 425.89 247.511C428.259 249.983 432.026 252.275 435.077 249.47C437.963 246.805 437.312 243.491 437.396 240.048C437.519 235.015 444.662 239.76 446.12 241.25C447.988 243.166 449.601 246.72 452.634 244.942C454.011 244.135 455.512 243.104 455.976 241.476C456.344 240.205 455.657 238.346 456.44 237.235C458.271 236.55 461.89 244.151 462.46 244.932C464.786 248.11 473.381 253.603 476.731 249.501C477.702 248.315 477.884 244.353 479.348 243.961C480.869 243.556 482.868 245.438 484.043 246.161C486.246 247.53 488.788 247.02 491.272 247.311C493.011 247.513 494.727 248.031 496.421 248.464C497.555 248.733 497.983 246.945 496.829 246.648ZM479.48 243.727C479.222 243.701 479.222 243.701 479.48 243.727V243.727ZM479.334 243.657C479.193 243.683 479.193 243.683 479.334 243.657V243.657ZM479.272 243.546C479.08 243.717 479.08 243.717 479.272 243.546V243.546ZM458.824 238.396C458.716 238.325 458.716 238.325 458.824 238.396V238.396ZM450.622 244.609C450.496 244.558 450.593 244.592 450.622 244.609V244.609ZM437.927 238.417C437.598 238.698 437.844 238.468 437.927 238.417V238.417ZM437.887 238.371C437.771 238.538 437.771 238.538 437.887 238.371V238.371ZM437.771 238.529C437.561 238.719 437.735 238.587 437.771 238.529V238.529ZM431.797 243.031C431.656 243.056 431.656 243.056 431.797 243.031V243.031ZM420.613 238.847C420.539 238.68 420.539 238.68 420.613 238.847V238.847ZM389.166 244.233C389.024 244.259 389.024 244.259 389.166 244.233V244.233ZM379.596 238.415C379.468 238.326 379.468 238.326 379.596 238.415V238.415ZM366.584 226.945C366.231 226.914 366.231 226.914 366.584 226.945V226.945ZM360.776 237.34C360.751 237.626 360.751 237.626 360.776 237.34V237.34ZM377.642 237.092C377.259 236.825 377.967 237.324 377.642 237.092V237.092ZM455.234 239.659C455.232 239.621 455.246 239.496 455.234 239.659V239.659Z" fill="black"/>
<path d="M362.095 250.134C360.419 249.263 357.879 255.218 359.435 255.971C360.942 256.698 363.791 251.023 362.095 250.134Z" fill="black"/>
</svg>
