<svg width="380" height="322" viewBox="0 0 380 322" fill="none" xmlns="http://www.w3.org/2000/svg">
<g opacity="0.5" clip-path="url(#clip0_288_3361)">
<path d="M149.149 14.5019C150.417 14.3288 151.24 15.7227 151.14 16.8638C151.1 18.0737 150.319 19.5764 148.987 19.7382C147.108 19.9597 145.227 20.2243 143.347 20.4602C137.87 21.1417 132.407 21.918 126.976 22.8983C118.203 24.4992 109.656 26.973 101.291 30.021C87.8448 35.493 75.3198 42.9857 63.4787 51.3294C55.5992 56.8904 46.7127 62.3739 40.6914 69.9997C39.2708 71.7943 38.0193 73.7726 36.3193 75.297C35.4153 76.1136 34.6773 76.8178 33.4638 76.8068C32.5103 76.7975 31.4709 76.5448 30.5418 76.2628C29.3575 75.9 28.7672 75.7475 29.2091 74.4618C29.5548 73.4443 30.4988 72.5653 31.1878 71.7208C32.5584 70.0314 33.8981 68.2607 35.6777 66.965C37.4047 65.702 39.0426 64.4768 40.618 62.9806C45.5993 58.2267 51.3509 54.4448 57.2703 50.9837C64.9468 46.1244 72.9113 41.745 81.0877 37.7903C86.3361 35.2325 91.5909 32.6896 96.7943 30.0424C106.105 25.5164 115.803 21.7364 125.838 19.1466C132.309 17.6036 138.745 16.2821 145.225 15.1798C146.526 14.951 147.834 14.7155 149.149 14.5019Z" fill="#2496F0"/>
<path d="M42.3726 88.6157C46.9046 86.7636 44.7551 96.3857 44.561 98.5601C44.0781 100.731 43.7676 108.108 40.3187 106.976C37.3303 105.071 39.2124 98.4487 39.0447 95.3567C39.1492 94.1509 39.5808 92.5686 39.634 91.4895C39.6593 90.0478 40.6057 87.8627 42.3726 88.6157Z" fill="#2496F0"/>
<path d="M51.5102 89.7511C51.5061 91.0859 49.9208 92.2783 49.0736 90.8036C48.6458 90.019 48.8856 89.1897 49.0522 88.3774C49.1184 87.4362 49.2345 86.5053 49.4731 85.5821C49.5518 85.1324 50.0036 84.4968 50.5021 84.8456C50.8522 85.1417 50.9296 85.6373 51.0335 86.0552C52.1178 86.9747 51.4342 88.5411 51.5102 89.7511Z" fill="#2496F0"/>
<path d="M57.965 83.2781C57.9848 84.2319 57.8673 85.1843 57.7718 86.1309C57.7825 87.4595 56.1599 88.3248 55.5364 86.8569C55.2678 85.8369 55.2396 84.7888 55.2675 83.7658C54.9279 82.9579 55.0701 81.9565 55.6596 81.315C56.1195 80.2036 57.3195 80.3149 57.6763 81.427C58.0254 81.9684 58.1055 82.6518 57.965 83.2781Z" fill="#2496F0"/>
<path d="M62.7233 77.002C64.0125 75.4591 65.5706 77.2382 65.1791 78.758C64.8411 79.9997 64.8482 81.2703 64.5826 82.5093C64.3549 84.1837 62.4497 84.8293 61.9324 82.935C61.7435 80.9891 61.6964 78.7418 62.7233 77.002Z" fill="#2496F0"/>
<path d="M79.3615 79.0692C79.162 80.9835 79.8161 83.3482 78.4878 84.9393C78.0544 85.2802 77.3817 85.5195 76.979 85.8334C75.7609 86.3561 73.1227 89.5898 71.9641 88.4708C71.5223 88.0245 71.5551 87.3843 71.6771 86.8218C71.7654 85.4129 71.7452 84.0044 71.7611 82.5982C71.8179 80.1914 71.9904 77.7847 72.1341 75.3761C72.3047 74.4992 72.0366 72.5483 73.1147 72.2984C73.198 71.084 74.2636 70.4579 75.1559 69.8283C75.9582 69.2507 76.5656 68.8991 77.3468 68.4284C79.3253 67.073 79.8656 68.8316 79.5978 70.5685C79.5328 73.3356 79.4332 76.4252 79.3615 79.0692Z" fill="#2496F0"/>
<path d="M90.7276 64.7058C90.8292 65.737 90.8273 67.1513 89.7123 67.6443C89.395 68.3244 88.5216 68.8831 87.8485 68.3214C86.7574 67.6252 86.6123 63.3655 88.0171 62.9772C88.0698 62.0207 89.1106 60.9818 90.0447 61.6465C91.026 62.3647 90.5976 63.6657 90.7276 64.7058Z" fill="#2496F0"/>
<path d="M99.0867 60.8277C99.1361 62.3462 98.3173 67.2239 96.0146 65.1022C95.526 64.4799 95.5436 63.6222 95.5976 62.8751C95.3862 61.635 95.4754 60.3272 95.9187 59.1353C96.2513 58.0953 97.5233 57.1719 98.4551 58.1035C99.1566 58.7898 99.1147 59.9201 99.0867 60.8277Z" fill="#2496F0"/>
<path d="M107.429 55.4977C108.563 56.7739 107.47 63.9509 104.964 61.5061C104.208 60.1815 103.996 57.2238 105.026 56.011C105.406 55.0317 106.761 54.5032 107.429 55.4977Z" fill="#2496F0"/>
<path d="M123.627 60.9073C123.498 62.3859 123.98 64.8481 122.14 65.3679C120.823 66.0864 119.414 66.662 117.96 67.0184C117.564 67.109 117.147 67.1911 116.761 67.0082C115.499 66.1641 116.324 64.1879 116.201 62.9102C116.358 60.4086 115.846 57.8579 116.102 55.3843L116.109 55.3847C116.119 55.342 116.136 55.307 116.153 55.2648C116.214 55.0882 116.347 54.9377 116.511 54.8542C116.559 52.584 119.321 52.1148 121.111 51.8084C122.988 51.493 123.638 52.7606 123.432 54.4435C123.492 56.5978 123.654 58.7441 123.627 60.9073Z" fill="#2496F0"/>
<path d="M135.851 49.3259C136.326 50.3948 135.881 51.5 135.5 52.5152C135.263 53.2942 134.575 54.0017 133.696 53.8455C132.677 53.724 132.186 52.6829 132.157 51.7645C132.113 50.8525 132.172 48.5252 133.559 48.8792C134.244 47.9839 135.495 48.3221 135.851 49.3259Z" fill="#2496F0"/>
<path d="M145.3 46.7427C145.72 47.6638 145.291 48.6256 145.046 49.5268C144.839 50.5241 144.089 51.6606 142.929 51.3643C141.842 51.1879 141.29 50.0708 141.311 49.0546C141.287 48.0428 141.415 45.6549 142.96 46.2569C143.613 45.1792 144.961 45.6967 145.3 46.7427Z" fill="#2496F0"/>
<path d="M340.427 224.993C340.479 230.387 340.327 235.812 339.717 241.164C339.412 243.029 339.979 245.294 338.419 246.546C337.002 247.467 335.173 247.367 333.55 247.547C332.347 247.825 331.558 247.141 331.42 245.898C331.373 245.375 331.488 244.813 331.782 244.376C332.137 236.872 332.784 229.544 333.389 222.084C333.536 220.657 333.726 219.233 333.895 217.815C334.184 215.394 334.22 212.856 335.264 210.612C336.695 207.49 338.97 209.025 339.482 211.699C340.547 216.03 340.322 220.555 340.427 224.993Z" fill="#2496F0"/>
<path d="M349.378 242.354C349.245 245.175 350.143 248.024 346.138 247.809C345.296 247.634 344.869 246.611 345.092 245.817C344.705 245.533 344.702 244.897 344.707 244.472C344.725 241.99 344.801 239.505 344.899 237.022C345.078 232.083 345.524 227.499 346.007 222.68C346.34 219.785 346.503 216.837 347.337 214.031C347.617 212.901 348.761 210.447 350.078 211.915C351.19 213.897 350.637 216.259 350.64 218.402C350.412 222.285 350.226 226.163 350.005 230.046C349.705 234.141 349.491 238.241 349.378 242.354Z" fill="#2496F0"/>
<path d="M326.757 188.111C326.71 190.136 327.556 193.357 324.813 193.886C323.762 194.166 322.613 194.505 321.518 194.329C320.395 193.912 320.096 192.572 319.938 191.509C318.357 191.027 319.834 182.568 320.216 181.077C320.643 178.874 322.195 173.609 324.822 177.245C326.789 180.449 326.614 184.509 326.757 188.111Z" fill="#2496F0"/>
<path d="M32.0116 240.25C31.768 235.371 31.605 230.475 30.9546 225.628C30.6668 223.301 30.4802 220.857 29.3919 218.732C26.0634 222.255 25.5756 229.116 25.2842 233.767C25.2427 236.507 25.3455 239.248 25.4556 241.99C25.4506 242.069 25.4524 242.156 25.4547 242.236C27.6393 241.514 29.8193 240.864 32.0116 240.25ZM34.6433 191.097C34.4903 190.77 34.4017 190.339 34.413 189.813C34.5855 186.829 34.8007 183.855 35.0232 180.881C34.9819 179.81 36.4991 165.746 34.6147 165.599C34.4203 165.587 34.1881 165.717 33.9154 166.032C32.0341 167.797 31.3729 170.506 30.7185 172.875C29.3764 178.607 28.6962 184.389 28.1001 190.211C27.9596 191.646 27.8259 193.088 27.671 194.521C27.5918 194.978 27.5895 195.476 27.531 195.949C29.8681 194.291 32.239 192.671 34.6433 191.097ZM31.5577 288.674C32.2497 288.703 32.935 288.724 33.627 288.753C33.1306 283.526 32.7534 278.357 32.0167 273.158C31.674 270.9 29.6801 259.236 27.7974 267.02C26.2532 273.901 25.8509 281.129 26.7077 288.103C26.741 288.033 26.7873 287.986 26.8521 287.99C26.8809 287.991 26.9088 288.008 26.943 288.039C27.0384 288.131 27.0172 288.354 26.8912 288.403L26.8908 288.411L26.8903 288.418C26.8957 288.447 26.9083 288.477 26.9133 288.513C28.4571 288.559 30.0076 288.613 31.5577 288.674ZM60.4421 151.356C60.3508 151.198 60.2595 151.041 60.1605 150.891C59.3182 149.452 57.9851 148.582 56.6037 148.481C55.4312 148.393 54.2243 148.852 53.2641 149.989C50.8854 152.886 49.6762 156.498 49.2359 160.179C48.4081 165.316 48.0042 170.494 47.4918 175.672C47.2374 178.348 47.1054 181.032 46.9806 183.716C49.8982 182.138 52.8747 180.657 55.9012 179.302C55.2232 170.86 56.1849 162.318 59.1033 154.382C59.435 153.703 59.8598 152.344 60.4421 151.356ZM58.0396 212.192C58.4631 211.201 59.3028 209.103 60.3909 207.656C59.4537 206.58 58.4153 206.082 57.3435 206C54.9695 205.823 52.4249 207.677 50.3752 209.821C46.5238 214.307 44.9702 220.416 44.7295 226.217C44.5935 229.196 44.5586 232.175 44.5377 235.161C44.4842 235.786 44.5503 236.461 44.5313 237.109C48.1252 236.273 51.7325 235.453 55.321 234.588C55.1393 232.989 55.2573 231.221 55.2538 229.778C55.2087 223.807 55.6824 217.746 58.0396 212.192ZM60.8114 261.504C61.1935 260.828 61.7461 259.852 62.413 259.013C59.6765 257.355 56.0192 257.472 53.004 259.34C49.5738 261.601 47.6819 265.61 46.6526 269.464C45.626 273.621 45.3693 278.296 45.2876 282.484C45.1943 284.895 45.2571 287.122 45.4428 289.349C45.4334 289.385 45.4239 289.42 45.4145 289.456C45.6017 289.467 45.7816 289.479 45.9684 289.498C49.2629 289.747 52.5552 290.033 55.8457 290.347C55.5192 287.715 55.6958 285.012 55.6663 282.369C55.758 275.137 57.5034 267.928 60.8114 261.504ZM98.9344 195.328C99.7678 194.37 101.044 193.151 102.382 192.671C101.054 190.914 99.4032 189.461 97.2084 188.963C96.9649 188.926 96.7283 188.897 96.4835 188.881C93.2033 188.632 89.874 190.091 87.7033 192.553C84.5335 196.54 82.9197 201.534 81.3491 206.299C79.9535 210.693 78.9124 215.196 78.3011 219.762C77.972 222.245 77.7793 224.745 77.5798 227.236C77.4794 227.8 77.5419 228.533 77.3822 229.122C79.245 228.69 81.1074 228.266 82.9694 227.848C85.9886 227.186 89.0038 226.473 92.0176 225.781C92.2993 219.326 92.3469 212.798 93.9631 206.498C95.0122 202.558 96.2507 198.479 98.9344 195.328ZM104.719 131.953C104.689 131.858 104.659 131.762 104.629 131.666C103.359 127.48 100.82 123.136 97.3452 122.875C95.7843 122.755 94.042 123.454 92.1377 125.356C90.106 127.906 88.9642 131.363 87.7955 134.213C86.3802 137.999 85.1214 141.825 84.1529 145.747C82.5223 152.508 80.7701 159.709 79.8964 166.503C79.7276 167.12 79.6676 169 79.4088 170.593C83.9805 169.032 88.5768 167.537 93.1962 166.138C92.9053 162.129 93.4626 158.079 93.8719 154.085C94.3815 149.527 94.9798 144.939 96.545 140.606C97.5252 136.958 100.797 131.231 104.719 131.953ZM100.126 257.984C100.523 257.533 101.139 256.569 101.829 255.832C100.36 254.47 98.6411 253.533 96.7135 253.383C95.4473 253.289 94.088 253.529 92.6427 254.218C87.7947 256.266 85.4587 261.367 84.2889 266.193C82.8388 272.034 82.5033 277.621 82.277 283.539C82.1585 286.122 82.1336 288.711 82.0007 291.293C81.9651 291.746 81.9525 292.409 81.7351 292.879C86.3463 293.226 90.9992 293.481 95.6365 293.642C95.0607 283.106 94.2991 266.654 100.126 257.984ZM149.912 190.793C151.298 188.397 154.458 184.229 157.431 183.145C155.553 180.249 153.038 178.749 150.283 178.541C147.571 178.335 144.628 179.384 141.83 181.591C138.29 184.797 135.714 189.008 133.927 193.414C131.289 200.458 129.091 207.616 127.728 214.957C127.459 215.662 127.155 218.219 126.598 220.06C132.655 219.364 138.718 218.806 144.787 218.385C144.206 208.967 145.241 199.131 149.912 190.793ZM157.384 118.157C157.113 117.52 156.834 116.889 156.541 116.257C154.851 112.326 151.841 109.034 147.395 108.698C147.265 108.69 147.129 108.681 146.992 108.673C141.555 109.054 137.917 113.935 134.903 117.968C132.557 121.386 130.93 125.21 129.784 129.187C128.584 133.008 127.588 136.901 127.071 140.881C126.669 144.182 126.461 147.503 126.196 150.821C126.03 152.773 125.843 154.717 125.527 156.653C129.988 155.352 134.461 154.088 138.944 152.919C138.885 152.006 139.062 151.021 139.044 150.154C139.349 143.223 140.482 136.215 143.034 129.743C145.282 124.882 148.54 119.616 153.962 117.979C155.09 117.732 156.27 117.82 157.384 118.157ZM152.986 251.316C151.909 250.166 150.697 249.094 149.116 248.829C148.923 248.795 148.729 248.776 148.543 248.757C144.997 248.484 141.575 250.846 139.286 253.337C136.303 256.881 134.667 261.311 133.472 265.732C131.718 272.961 131.502 280.453 131.168 287.85C131.065 289.612 131.278 291.401 131.089 293.15C135.291 293.002 139.49 292.882 143.694 292.814C143.163 287.671 143.301 282.469 143.4 277.308C143.671 271.263 144.509 265.146 146.884 259.536C148.103 256.812 149.957 252.483 152.986 251.316ZM166.899 73.224C166.564 72.5679 166.267 71.8926 165.943 71.295C163.826 66.8901 162.186 62.8543 160.382 58.4258C157.775 51.8108 155.257 45.1654 152.45 38.6317C151.703 36.8241 150.935 35.0151 150.248 33.1823C150.241 33.1746 150.242 33.1603 150.235 33.1526L150.228 33.1522C144.925 33.8014 139.596 34.3118 134.35 35.3326C128.766 36.5559 123.314 38.3144 117.787 39.7794C105.197 42.7721 92.8018 46.8161 81.1251 52.4206C67.3358 59.4443 55.4073 69.4135 43.3461 78.963C41.1493 80.6873 38.9858 82.4569 36.8497 84.2499C36.3588 84.5872 35.9084 85.0857 35.4084 85.4513C35.2374 86.6819 35.0663 87.9124 34.9092 89.151C32.929 102.298 31.0281 115.45 29.6067 128.676C29.3312 131.459 29.07 134.242 28.8093 137.019C36.0027 130.412 43.75 124.424 51.7676 118.85C66.1358 109.163 80.3896 99.109 96.2807 91.9933C108.725 86.5884 121.772 82.6502 134.911 79.3167C141.919 77.7496 149.112 76.5621 156.088 75.159C159.731 74.4635 163.306 73.8071 166.899 73.224ZM179.808 80.3689C179.872 79.6802 179.902 78.982 179.909 78.2897C179.658 77.9131 179.518 77.5002 179.451 77.0702C177.437 77.1461 175.434 77.266 173.443 77.5526C164.452 78.8223 155.572 80.0484 146.833 82.1349C133.445 85.063 120.529 90.1425 107.733 94.8109C96.5692 98.9248 85.6705 103.763 74.9927 108.997C64.1898 114.613 53.5161 120.59 43.77 127.911C38.3231 132.022 33.2324 136.56 28.3996 141.366C27.9845 145.8 27.577 150.227 27.1623 154.654C31.2005 150.649 35.2098 146.643 39.4927 142.884C42.8235 140.019 46.3076 137.588 49.7472 134.946C56.0388 130.39 62.2984 125.766 68.7628 121.452C72.6735 118.904 76.8784 116.736 80.9129 114.52C86.2918 111.494 92.055 109.258 97.6135 106.597C104.92 102.912 112.028 99.0491 119.601 95.9586C128.24 92.473 137.512 91.1055 146.46 88.6785C152.072 87.2261 157.715 85.1765 163.391 84.1105C168.855 83.1755 174.317 82.06 179.712 80.9763C179.753 80.7769 179.787 80.5769 179.808 80.3689ZM200.994 183.457C203.123 182.111 205.83 181.473 208.331 181.932C207.169 180.294 205.711 178.874 204.089 177.654C202.146 176.133 200.127 175.255 198.005 175.094C196.365 174.969 194.67 175.267 192.902 176.022C183.921 180.136 183.425 191.507 181.694 199.986C180.816 204.889 180.03 209.812 179.632 214.781C179.566 215.607 179.522 216.434 179.441 217.259C181.515 217.266 183.596 217.267 185.672 217.238C187.25 217.2 188.828 217.161 190.406 217.13C190.38 216.046 190.404 214.965 190.457 213.886C190.577 210.942 190.784 207.989 191.177 205.062C192.229 197.731 194.986 188.205 200.994 183.457ZM218.414 149.289C218.633 148.898 218.851 148.414 219.098 147.939C208.002 147.272 196.887 148.416 185.906 149.842C174.139 151.58 162.646 154.829 150.84 156.377C130.832 159.879 110.629 163.131 91.2553 169.314C85.5165 171.163 79.8334 173.621 74.3123 175.917C63.4636 180.418 52.7948 185.393 42.5152 191.078C35.2149 195.355 28.3105 200.234 21.5383 205.308C21.328 207.626 21.111 209.936 20.8724 212.245C20.8337 212.632 20.7945 213.027 20.7558 213.414C25.3699 209.792 30.0519 206.239 35.2139 203.445C42.8198 199.137 50.2457 194.817 57.816 190.5C63.9793 186.953 70.0827 183.323 76.4664 180.18C80.9256 177.991 85.6808 176.499 90.3704 174.902C95.612 173.145 100.885 171.469 106.192 169.94C115.741 167.146 125.275 164.352 135.116 162.905C143.346 161.898 151.582 161.035 159.725 159.453C163.953 158.642 168.158 157.744 172.407 157.065C176.886 156.299 181.417 156.078 185.897 155.406C194.477 154.233 203.138 153.968 211.781 153.629C213.324 153.458 214.879 153.448 216.428 153.415C216.962 151.918 217.994 150.33 218.414 149.289ZM214.387 255.315C213.218 254.238 211.916 253.327 210.464 252.637C209.876 252.441 209.276 252.324 208.672 252.279C208.672 252.279 208.672 252.279 208.665 252.279C205.758 252.061 202.808 253.478 200.625 255.326C196.631 259.203 194.709 264.604 192.673 269.657C189.927 277.142 188.468 285.09 187.69 292.893C187.612 293.213 187.572 293.73 187.529 294.305C191.955 294.611 196.387 294.932 200.812 295.245C200.489 291.285 200.998 287.311 201.275 283.352C201.694 278.637 202.346 273.879 203.949 269.404C205.846 264.508 209.51 257.816 214.387 255.315ZM235.152 219.082C231.768 210.809 228.678 202.324 225.909 193.808C224.194 188.873 222.081 184.079 220.404 179.124C219.42 176.255 218.605 173.57 217.855 170.781C216.234 166.421 214.54 162.079 213.171 157.634C213.034 157.279 212.96 156.964 212.942 156.682C211.213 156.696 209.484 156.725 207.76 156.79C200.358 157.041 192.965 157.487 185.575 158.005C174.31 158.534 163.009 159.413 151.947 161.672C137.324 164.919 123.082 169.367 108.378 172.184C102.46 173.322 96.627 174.941 91.0366 177.188C82.5934 180.672 74.5727 185.026 66.3266 188.94C61.169 191.431 55.885 193.633 50.7603 196.177C45.7004 198.725 40.8569 201.626 36.0251 204.571C31.2617 207.462 26.7286 211.06 22.3081 214.363C21.7159 214.816 21.1242 215.263 20.5325 215.709C19.8153 222.773 19.0638 229.921 18.438 236.91C18.2596 239.641 18.0889 242.366 17.9326 245.091C19.292 244.505 20.4551 244.051 21.0491 243.8C21.967 243.453 22.8912 243.121 23.8146 242.804C23.5303 241.458 23.5916 240.019 23.4454 238.66C23.1361 234.138 23.4433 229.582 24.5144 225.174C24.9542 223.463 25.4375 221.747 26.2309 220.158C27.0872 218.718 29.2401 214.35 30.8998 217.275C32.6099 220.782 32.3428 224.813 32.7129 228.596C32.9565 231.859 33.0495 235.336 33.2738 238.561C33.2589 238.914 33.3583 239.404 33.4078 239.883C36.459 239.057 39.5273 238.304 42.6086 237.573C42.1759 235.02 42.271 232.349 42.1367 229.764C41.8364 224.174 42.5293 218.538 44.7114 213.356C47.057 206.951 56.4522 197.501 62.3263 205.49C62.4788 205.709 62.6242 205.927 62.769 206.153C62.8338 206.157 62.8982 206.168 62.9621 206.186C63.4601 206.542 63.5722 206.946 63.488 207.367C65.5207 211.03 66.5472 215.179 67.1611 219.338C67.2997 219.549 67.4059 219.815 67.4491 220.049C68.2444 223.736 68.3323 227.523 68.3856 231.286C70.8451 230.675 73.3105 230.086 75.7821 229.512C75.231 228.157 75.5974 226.578 75.5421 225.153C75.6197 222.069 75.8633 218.989 76.322 215.936C77.1386 210.286 78.8622 204.808 80.7951 199.452C81.8136 196.694 83.0317 193.978 84.618 191.501C87.1767 187.23 92.2605 184.417 97.2698 185.445C101.7 186.372 104.46 190.658 106.319 194.434C110.113 202.862 111.374 212.15 113.153 221.137C113.223 221.394 113.229 221.647 113.194 221.869C116.995 221.292 120.807 220.78 124.616 220.319C125.277 216.578 125.724 212.796 126.42 209.065C127.268 204.074 128.637 199.173 130.367 194.41C131.303 191.698 132.522 189.075 134.083 186.662C136.27 183.472 138.584 180.232 141.905 178.203C148.171 174.295 155.123 175.467 159.139 181.838C161.163 184.844 162.303 188.322 163.441 191.734C164.814 196.244 165.875 200.871 166.391 205.566C166.621 208.005 166.996 210.432 167.212 212.87C167.309 213.28 167.345 213.744 167.295 214.203C167.503 215.262 167.727 216.532 167.052 217.392C167.783 217.373 168.507 217.36 169.237 217.348C171.959 217.273 174.685 217.264 177.409 217.269C177.404 216.554 177.485 215.823 177.455 215.15C177.503 213.471 177.651 211.799 177.799 210.12C178.649 202.675 179.731 195.209 181.425 187.903C182.449 183.789 183.77 179.542 186.771 176.403C189.8 172.819 194.763 170.893 199.393 171.976C202.461 172.847 205.028 174.891 207.207 177.157C208.988 178.95 210.307 181.075 211.38 183.336C211.726 183.69 211.996 184.111 212.118 184.587C212.132 184.718 212.131 184.848 212.108 184.976C212.95 186.999 213.65 189.093 214.338 191.142C215.997 196.507 216.933 201.992 217.706 207.532C218.12 210.965 218.464 214.349 219.316 217.708C224.593 218.038 229.89 218.515 235.152 219.082ZM261.092 229.108C261.171 228.55 261.263 227.993 261.384 227.452C258.539 227.064 255.69 226.742 252.828 226.504C247.676 226.146 242.507 226.161 237.347 225.809C226.582 225.048 215.814 224.337 205.07 223.368C193.257 222.375 181.384 221.429 169.52 221.956C152.932 222.764 136.591 225.182 120.128 227.124C102.533 229.139 84.859 230.334 67.544 234.221C67.3483 234.346 67.1206 234.404 66.8988 234.368C65.4175 234.708 63.9277 235.07 62.4509 235.454C47.7884 239.11 33.1889 243.03 18.9871 248.217C18.5655 248.371 18.1439 248.525 17.7218 248.686C17.5876 251.175 17.4749 253.665 17.3767 256.155C17.5103 256.099 17.6439 256.042 17.7776 255.986C20.2583 254.921 22.6872 253.76 25.1481 252.666C33.0171 248.887 41.3972 246.756 49.8061 244.627C57.8623 242.707 65.9359 241.431 73.8719 239.236C79.0973 237.738 84.2859 236.021 89.6885 235.269C95.9655 234.292 102.309 233.866 108.643 233.368C113.372 232.979 118.084 232.416 122.818 232.07C132.719 231.269 142.578 229.88 152.506 229.34C162.22 229.105 171.948 229.346 181.663 229.327C189.256 229.247 196.852 229.716 204.437 229.426C211.796 229.072 219.154 229.872 226.495 230.245C234.262 230.977 241.947 232.332 249.603 233.8C252.128 234.211 254.632 234.743 257.165 235.147C257.753 235.228 257.836 235.969 257.671 236.413C257.479 236.942 256.959 237.401 256.371 237.32C254.585 237.115 252.787 236.966 251.006 236.667C243.743 235.504 236.601 234.595 229.364 233.831C222.222 232.922 214.995 232.231 207.856 231.618C204.685 231.239 201.518 230.917 198.339 230.675C194.793 230.402 191.24 230.23 187.68 230.187C180.159 230.142 172.759 231.273 165.315 232.07C157.657 232.954 149.986 232.755 142.309 233.125C133.086 233.594 123.929 234.283 114.822 235.791C104.374 237.474 93.8634 238.656 83.3569 239.888C72.4836 241.783 61.4803 243.331 50.8513 246.288C40.6659 249.085 30.8814 252.982 21.1036 256.887C19.8342 257.421 18.5649 257.955 17.2892 258.474C17.0291 265.97 16.9427 273.462 17.1429 280.995C17.1667 283.038 17.7069 285.028 17.8108 287.062C17.8319 287.417 17.8152 287.799 17.7076 288.131C20.2571 288.276 22.8092 288.379 25.3623 288.466C24.5021 285.814 24.651 279.17 24.5512 277.879C24.5046 274.124 25.0079 270.359 26.0084 266.734C26.5503 265.123 27.5413 261.649 29.8202 262.535C32.375 264.442 33.3198 272.547 33.8623 275.771C34.5657 280.116 34.8318 284.52 35.6158 288.849C38.2314 288.977 40.8452 289.133 43.4572 289.319C43.445 289.282 43.4329 289.245 43.4275 289.216C42.7244 286.134 42.9064 282.883 42.7423 279.734C42.7513 272.785 43.7646 265.379 48.1854 259.767C52.8653 253.248 63.5073 251.584 67.4799 259.699C68.7261 262.072 69.2907 264.712 69.7558 267.325C70.6117 272.235 71.0312 277.191 71.1609 282.156C71.285 285.022 71.4891 287.878 71.5915 290.742C71.6094 291.148 71.4407 291.649 71.0996 291.902C72.1619 292.019 73.2247 292.129 74.2803 292.239C76.256 292.427 78.2543 292.603 80.2539 292.757C79.8661 291.679 80.0965 290.424 80.0012 289.292C79.9721 287.565 79.965 285.833 79.9651 284.101C80.0431 274.666 80.5418 264.4 85.6183 256.166C87.8462 252.791 91.6003 250.32 95.6986 250.086C100.377 250.055 103.98 253.68 106.043 257.561C110.971 266.335 111.731 276.702 112.531 286.538C112.61 287.943 112.666 289.347 112.766 290.753C112.724 291.537 113.008 292.767 112.979 293.812C113.413 293.81 113.847 293.801 114.281 293.792C119.346 293.59 124.411 293.381 129.482 293.2C128.999 291.792 129.225 290.153 129.136 288.683C129.128 286.611 129.2 284.545 129.265 282.477C129.764 271.503 130.151 258.992 138.201 250.584C141.589 247.499 147.053 244.731 151.416 247.422C157.81 252.196 161.067 259.97 163.196 267.392C164.467 272.718 165.369 278.158 165.851 283.615C166.032 285.46 166.148 287.3 166.256 289.154C166.296 289.784 166.097 290.537 165.68 291.081C165.662 291.715 165.615 292.347 165.525 292.969C168.879 293.085 172.236 293.267 175.589 293.506C178.907 293.728 182.224 293.958 185.549 294.188C185.591 293.635 185.647 293.075 185.652 292.542C185.78 290.608 185.93 288.676 186.152 286.749C186.964 278.984 188.852 271.352 191.89 264.153C193.181 260.972 194.552 257.781 196.694 255.072C199.295 251.519 203.545 249.093 208.003 249.113C213.32 249.273 217.932 254.909 220.149 259.327C221.599 262.124 222.597 265.124 223.514 268.133C225.579 274.635 227.135 281.285 228.151 288.031C228.447 289.868 228.686 291.709 228.939 293.551C228.968 294.599 229.432 295.963 229.535 297.196C235.716 297.396 241.856 298.372 248.077 298.3C249.494 298.288 250.909 298.319 252.31 298.097C254.741 297.708 254.694 296.853 254.91 294.55C255.53 287.776 256.171 281.004 256.791 274.231C257.117 270.643 257.443 267.048 257.755 263.459C258.698 251.979 259.519 240.498 261.092 229.108ZM281.012 224.489C281.744 217.874 282.667 211.105 282.736 204.578C282.776 196.902 280.392 181.663 269.862 183.385C268.685 183.592 267.536 183.946 266.444 184.419C268.349 185.736 269.614 187.923 270.718 189.912C275.577 198.522 274.798 214.083 274.185 223.866C274.005 226.85 273.754 229.822 273.481 232.792C273.465 232.928 273.463 233.08 273.453 233.238C275.825 233.329 278.19 233.412 280.555 233.618C280.529 233.227 280.539 232.838 280.583 232.487C280.54 229.821 280.765 227.151 281.012 224.489ZM304.076 186.856C305.214 178.268 306.275 169.761 306.052 161.094C305.797 151.329 307.072 151.971 297.469 148.591C292.664 146.948 287.841 145.361 282.984 143.866C276.638 141.802 270.349 139.502 263.838 137.997C247.034 134.065 229.837 132.035 212.63 130.971C205.719 130.654 198.856 130.368 192.157 131.5C193.469 135.595 194.67 139.726 195.702 143.911C196.76 143.862 197.818 143.82 198.876 143.771C202.91 143.648 206.95 143.526 210.99 143.534C213.33 143.558 215.667 143.863 218.002 143.634C219.209 143.515 222.124 143.365 223.101 144.256C224.222 145.294 222.565 149.238 222.365 150.474C221.703 152.381 221.502 155.024 219.826 156.392C219.437 156.714 218.943 156.993 218.427 157.033C218.18 157.053 217.268 156.722 217.155 156.802C216.618 157.179 217.206 158.407 217.341 158.906C218.564 163.616 219.941 168.393 221.317 173.083C223.193 179.825 226.066 186.219 228.869 192.594C232.151 200.074 234.896 207.137 237.741 214.669C238.261 216.174 239.069 217.704 238.902 219.339C238.898 219.389 238.895 219.447 238.884 219.497C239.351 219.548 239.81 219.605 240.277 219.656C243.447 220.035 246.614 220.479 249.771 220.973C249.465 219.395 249.705 217.75 249.833 216.163C250.092 213.769 250.315 211.365 250.702 208.994C252.15 198.916 255.249 186.943 265.293 182.247C276.964 176.967 282.458 187.212 284.857 197.025C286.641 205.003 286.477 213.047 285.997 221.049C285.731 224.258 285.422 227.464 285.113 230.671C284.969 231.571 284.982 232.871 284.774 234.005C289.889 234.383 295.024 234.554 300.143 234.867C300.223 233.818 300.32 232.858 300.302 232.214C300.42 228.83 300.56 225.44 301.016 222.084C302.256 210.369 302.764 198.573 304.076 186.856ZM316.138 265.089C316.43 260.301 316.709 255.505 316.504 250.708C316.437 249.116 316.699 247.357 315.475 246.248C314.264 245.162 311.7 245.247 310.194 245.059C301.939 244.044 293.394 243.847 285.043 243.31C280.948 243.046 276.677 242.562 272.555 242.607C270.327 242.633 265.599 243.347 263.941 241.555C262.945 247.525 262.72 253.775 262.219 259.806C261.369 270.137 260.297 287.137 259.461 297.469C260.908 297.228 262.575 297.383 264.213 297.421C267.554 297.5 270.885 297.637 274.224 297.752C274.263 295.748 274.954 286.453 275.072 285.609C276.295 278.087 277.684 270.452 280.989 263.601C283.55 258.948 289.02 254.593 294.167 256.532C296.826 257.81 297.682 261.227 298.118 264.076C298.65 268.381 298.044 272.745 297.423 277.015C296.853 280.797 296.269 284.585 295.543 288.335C295.285 289.683 294.443 296.544 294.242 297.902C299.769 298.277 306.134 297.745 311.63 298.277C312.123 294.216 312.832 285.666 313.44 281.619C314.334 276.111 315.643 270.673 316.138 265.089ZM353.317 228.731C353.89 222.135 354.268 215.526 354.66 208.919C355.012 203.074 355.01 197.221 354.849 191.373C354.734 188.017 354.774 184.599 353.895 181.34C353.482 179.163 351.224 178.17 349.613 177.117C347.036 175.678 344.323 174.461 341.673 173.141C334.61 169.487 327.396 166.155 319.894 163.499C316.906 162.388 313.869 161.382 310.959 160.067C310.79 159.991 310.607 159.915 310.424 159.831C310.027 167.91 308.931 175.939 308.195 183.997C307.791 189.406 307.769 194.831 307.516 200.242C307.39 204.449 307.328 208.666 307 212.86C306.703 217.489 305.982 222.084 305.735 226.716C305.665 228.523 305.545 230.327 305.482 232.135C305.489 233.181 305.545 234.239 305.523 235.284C307.42 235.467 309.315 235.68 311.209 235.892C310.955 235.22 310.991 234.075 310.99 233.62C311.074 229.288 311.446 224.96 312.012 220.658C312.474 216.624 313.365 212.566 315.528 209.072C316.939 206.267 319.503 203.649 322.91 204.635C330.015 206.833 326.15 225.831 326.042 231.828C325.778 235.34 325.56 238.487 325.194 241.9C324.996 244.37 324.43 250.981 321.588 251.344C320.898 251.402 320.241 251.62 319.562 251.737C319.43 253.836 319.248 255.939 319.008 258.038C319.116 257.929 319.244 257.844 319.393 257.781C320.095 257.529 320.874 257.902 321.457 258.292C324.305 260.354 323.931 265.974 324.105 269.197C323.995 274.523 322.447 292.662 321.512 297.9C322.883 297.813 324.605 298.368 326.029 298.241C327.2 298.12 328.882 297.698 330.052 297.598C329.983 297.421 329.573 290.59 329.554 290.437C329.374 287.994 330.246 279.05 330.312 276.607C330.485 273.378 330.725 270.124 331.322 266.943C331.903 264.475 332.609 261.863 334.098 259.777C335.055 258.82 336.166 259.878 336.442 260.898C337.697 266.476 337.057 272.31 336.919 277.974C336.743 279.969 335.859 294.895 335.547 296.875C339.658 296.548 344.173 297.04 348.208 296.21C348.388 287.915 350.251 265.899 350.734 257.616C351.217 249.679 352.503 236.647 353.317 228.731ZM354.648 274.748C354.572 277.11 354.227 279.506 354.331 281.872C354.58 287.827 354.438 293.671 353.183 299.51C352.917 300.749 352.589 303.802 351.692 304.735C350.965 305.498 348.956 305.487 347.802 305.566C340.853 306.076 333.428 305.077 326.427 304.696C319.469 304.318 312.456 304.817 305.489 304.575C297.534 304.3 289.614 303.826 281.64 303.86C270.044 303.913 258.167 304.049 246.66 303.256C245.156 303.154 243.719 303.368 242.201 303.373C238.471 303.385 234.745 303.325 231.025 303.063C215.762 301.428 200.442 300.454 185.084 300.791C167.922 300.401 150.761 300.213 133.606 299.579C122.118 299.176 110.666 298.199 99.2143 297.214C90.5158 296.467 81.8173 295.72 73.0954 295.231C58.9759 294.145 44.8036 294.13 30.6728 293.338C25.7548 293.045 20.8089 292.735 15.9066 292.767C15.5912 292.725 15.2673 292.705 14.9509 292.678C14.1955 292.623 13.4328 292.568 12.7192 292.307C12.0002 292.017 11.8117 291.218 11.8482 290.521C11.9063 289.362 12.858 288.361 13.9195 288.031C14.257 287.951 14.6052 287.929 14.9517 287.937C13.7104 285.716 14.1809 280.398 14.0951 278.307C14.1885 274.047 14.3688 269.787 14.5558 265.533C14.6243 263.517 14.6856 261.5 14.7393 259.49C14.7177 259.027 14.6961 258.564 14.6746 258.1C14.6714 257.92 14.6687 257.732 14.6656 257.551C14.6643 257.458 14.6629 257.364 14.6616 257.27C14.7133 257.251 14.7579 257.232 14.8101 257.207C14.9891 251.005 15.1231 244.828 15.2081 238.628C15.2537 235.477 15.2778 232.325 15.2946 229.172C15.2992 227.599 15.3042 226.019 15.3016 224.446C15.3018 221.79 15.36 219.131 15.4907 216.469C15.5371 215.497 15.4201 214.711 15.3343 213.774C15.1211 211.408 15.1334 208.905 15.2024 206.535C15.4152 199.216 15.8936 191.698 16.6549 184.392C17.2519 178.67 18.4293 173.029 19.2266 167.341C20.0094 161.769 20.6631 156.181 21.4675 150.609C21.7048 147.514 22.7165 144.518 22.9727 141.467C23.2253 138.473 23.58 135.464 23.9636 132.457C24.7924 125.921 25.6742 119.344 26.144 112.77C26.8294 103.215 27.9706 93.9988 28.8189 84.6127C29.0143 82.5321 29.2223 80.1348 29.4618 78.158C29.5298 77.419 29.6257 76.6961 29.722 75.9661C29.8341 75.0999 30.3278 74.2576 31.1058 73.8373C31.981 73.3653 33.0271 73.5102 33.8807 73.9606C36.9758 75.8938 36.5977 78.3526 36.0859 81.0989C37.0655 80.2293 38.0226 79.4883 38.4307 79.0881C38.7057 78.8527 38.9811 78.6102 39.256 78.3748C38.8484 77.4977 38.8525 76.3938 38.7882 75.4589C38.8396 73.6002 40.6572 70.0842 42.7696 72.0135C43.3698 72.5851 43.7244 73.5021 43.7823 74.4223C43.8818 74.3347 43.9808 74.2543 44.0802 74.1667C45.1161 73.2069 46.192 72.3001 47.2949 71.4238C46.5953 69.4387 47.0873 67.1241 48.6406 65.6338C50.0131 64.2621 51.9997 62.0845 54.1064 63.1835C54.9613 63.6123 55.3891 64.5123 55.4399 65.432C56.6989 64.4861 58.0048 63.6009 59.3367 62.7607C59.127 62.0692 58.9395 61.3718 58.9854 60.6386C59.0503 58.1025 63.3536 52.8659 65.7863 55.7967C66.3829 56.5413 66.6132 57.5949 66.4246 58.5284C66.4224 58.5644 66.4129 58.5999 66.4035 58.6354C66.7032 58.4665 67.01 58.2981 67.3097 58.1292C68.4572 57.4651 69.5969 56.8076 70.7367 56.1501C70.6998 56.0468 70.6706 55.9367 70.6404 55.841C70.4582 55.2883 70.3273 54.7245 70.2257 54.1552C69.9369 52.8814 70.0184 51.5803 70.9787 50.6735C72.0825 49.7828 73.3694 48.9686 74.6554 48.3997C76.2897 48.2712 76.6994 51.4216 76.6714 52.5601C76.6687 52.6032 76.6665 52.6392 76.6646 52.6679C76.6655 52.6535 76.6741 52.6324 76.6759 52.6037C76.679 52.6688 76.6754 52.7263 76.6718 52.7838C78.334 51.8632 80.0169 50.9584 81.7124 50.0831C81.2864 48.9234 81.0322 47.4425 81.4004 46.2965C81.8373 45.4363 82.7332 44.98 83.4046 44.5314C83.8627 44.257 84.3522 43.9413 84.8854 43.852C85.9325 43.5207 86.3185 44.8583 86.5673 45.6172C86.74 46.2053 86.9919 46.7984 87.0769 47.4027C88.547 46.6649 90.0238 45.9348 91.5069 45.2195C91.3472 44.7692 91.2491 44.2579 91.0642 43.8639C91.0755 43.9151 91.0939 43.9668 91.1128 44.0112C90.3147 42.0994 90.3125 40.8652 92.4274 39.9874C93.0866 39.6173 93.8092 39.3884 94.5359 39.2102C94.926 38.9821 95.3661 38.9952 95.7125 39.3489C96.086 39.7331 96.2632 40.2494 96.4792 40.7248C96.7775 41.2703 97.0888 41.9537 97.1783 42.6016C98.8139 41.8742 100.47 41.1697 102.131 40.5015C102.066 40.3748 102.016 40.249 101.972 40.1524C100.565 37.2353 101.993 36.0114 104.761 35.3117C106.161 34.5406 106.842 36.4812 107.317 37.4419C107.512 37.7789 107.615 38.0957 107.633 38.3927C109.089 37.8705 110.559 37.3708 112.034 36.9004C111.995 36.7175 111.956 36.5274 111.902 36.3509C111.675 35.4779 111.118 34.4543 111.833 33.6403C112.242 33.1247 112.912 33.044 113.506 32.8936C114.439 32.6562 115.357 32.0786 116.324 32.1031C117.162 32.4587 117.321 33.5006 117.554 34.2802C117.795 34.584 117.901 34.9731 117.884 35.3473C119.533 34.9816 121.202 34.6459 122.843 34.3013C122.589 33.506 122.227 32.7183 122.345 31.867C122.58 30.4168 124.189 30.2433 125.362 29.9632C126.185 29.755 127.026 29.6056 127.852 29.4481C128.113 29.4428 128.298 29.4904 128.52 29.6343C129.172 30.1803 129.411 31.0973 129.68 31.8792C129.843 32.1708 129.917 32.4857 129.927 32.7895C131.483 32.5261 133.042 32.3207 134.608 32.123C134.596 31.8624 134.598 31.6027 134.556 31.3475C134.111 29.8041 134.777 28.2871 136.504 28.1716C137.369 27.9733 138.282 27.9366 139.129 27.6866C139.815 27.4698 140.443 27.9349 140.754 28.5101C141.137 29.3279 141.449 30.3433 141.401 31.2208C143.995 30.7699 146.579 30.2534 149.194 29.9265C149.434 29.8983 146.651 19.0722 147.113 17.6868C148.938 12.2154 151.25 21.9151 151.55 23.2401C152.146 25.8393 152.316 27.849 153.543 30.1846C154.945 32.8487 155.834 35.7262 156.982 38.5115C158.281 41.6599 159.483 44.8528 160.634 48.0569C162.475 51.8888 164.361 55.7019 166.135 59.5729C166.996 61.4093 167.879 63.2327 168.703 65.0812C168.971 65.6465 171.439 72.5125 171.825 72.4574C172.912 72.3017 174.005 72.1538 175.098 72.013C177.652 71.6245 179.547 71.2669 182.017 71.0537C183.579 70.6969 184.674 72.3748 184.505 73.8003C184.495 73.9584 184.478 74.1233 184.446 74.2801C184.856 77.077 184.405 81.1622 183.003 83.3619C181.797 85.1772 180.242 84.6251 178.448 84.8735C175.835 84.8324 173.222 85.4626 170.594 85.6443C165.437 86.1727 160.258 86.5843 155.122 87.345C149.451 88.4618 143.824 89.899 138.359 91.7648C132.833 93.7928 126.974 95.136 121.507 97.2688C115.15 99.5189 109.019 102.325 102.806 104.937C99.0763 106.436 95.419 108.169 91.8889 110.063C86.2832 113.132 80.9519 116.666 75.4969 119.983C71.6235 122.396 67.5738 124.509 63.7526 127.012C59.3163 129.874 55.6004 133.35 51.5006 136.608C47.4702 139.797 43.4127 142.957 39.3953 146.169C35.2465 149.517 31.0122 152.846 27.0088 156.412C26.925 157.288 26.8408 158.17 26.7571 159.045C25.938 168.772 24.2649 178.403 23.2303 188.109C22.7716 192.085 22.3947 196.024 22.0331 199.949C23.8196 198.66 25.2343 197.652 25.8584 197.15C26.078 196.991 26.2976 196.831 26.5167 196.679C26.33 195.967 26.5249 195.164 26.5488 194.437C26.6893 193.002 26.8086 191.559 26.9275 190.123C27.2802 184.264 28.117 178.637 29.5608 173.012C30.005 171.113 30.5163 169.182 31.4203 167.442C32.2033 166.018 34.3503 162.552 36.0785 164.616C37.0251 166.118 37.1095 168 37.2903 169.729C37.4864 172.022 37.4867 174.324 37.5378 176.622C37.7099 181.027 37.3438 185.024 37.5042 189.27C40.0249 187.682 42.5925 186.154 45.1915 184.7C44.9648 183.589 45.121 182.365 45.0536 181.249C45.1173 177.349 45.1963 173.436 45.4908 169.543C45.6344 167.827 45.743 166.095 45.9797 164.392C46.51 160.543 46.7389 156.544 48.2874 152.939C49.4309 150.608 50.6603 148.174 52.5997 146.404C56.4263 143.122 60.8645 145.421 62.7901 149.525C65.7526 156.228 66.3137 163.768 66.5823 171.016C66.6102 172.187 66.6312 173.35 66.6447 174.52C66.6483 174.693 66.6505 174.888 66.6595 175.091C70.1652 173.817 73.6767 172.564 77.1932 171.349C77.1554 170.682 77.1829 170.013 77.1956 169.35C77.3061 164.24 77.8572 159.137 78.9437 154.139C80.7706 145.167 82.9008 136.201 86.6499 127.812C87.9127 124.846 89.5259 121.822 92.3329 120.049C96.919 116.988 101.919 119.199 104.304 123.816C106.164 127.014 107.114 130.646 107.93 134.233C108.387 135.135 108.674 136.437 108.542 137.151C110.038 144.995 110.331 153.009 110.895 160.961C110.895 160.968 110.894 160.983 110.9 160.998C114.892 159.812 118.885 158.611 122.876 157.433C122.775 156.394 122.974 155.288 122.944 154.269C123.023 152.318 123.123 150.376 123.209 148.425C123.286 140.16 124.7 132.007 127.572 124.242C130.106 117.134 136.518 107.425 143.691 104.49C148.771 102.427 154.546 105.661 157.158 110.111C161.669 117.581 162.747 126.446 164.25 134.882C164.841 138.369 165.2 142.202 165.871 145.578C165.923 146.122 166.157 146.779 166.34 147.433C168.795 147.01 171.243 146.578 173.693 146.118C180.096 144.853 186.604 144.344 193.115 144.016C190.101 134.445 186.327 125.123 183.025 115.643C180.125 106.679 177.88 97.9865 175.392 89.1274C175.258 88.4984 175.118 87.8474 175.267 87.2072C175.802 85.4654 177.37 86.1627 177.861 87.5645C180.065 93.1007 181.545 98.8945 183.225 104.607C185.049 111.029 187.382 117.28 189.516 123.598C190.141 125.391 190.751 127.19 191.346 128.995C193.033 128.372 195.356 128.215 196.397 128.092C211.44 127.007 226.481 129.198 241.245 131.877C249.124 133.251 257.085 134.002 264.969 135.29C273.761 136.844 282.502 138.878 291.119 141.157C296.587 142.59 302.111 144.054 307.392 146.052C311.405 148.216 310.742 153.147 310.528 157.146C311.138 156.982 311.797 157.182 312.417 157.322C314.013 157.689 315.579 158.198 317.129 158.714C325.248 161.445 333.21 164.6 340.903 168.366C344.418 169.943 347.925 171.533 351.365 173.264C355.778 174.688 357.125 177.544 357.441 181.944C357.806 191.811 357.227 201.639 356.984 211.504C356.67 222.973 356.277 234.444 356.093 245.921C356.03 253.617 355.699 261.311 355.009 268.982C354.86 270.907 354.71 272.825 354.648 274.748Z" fill="#2496F0"/>
<path d="M231.43 297.647C231.831 291.127 232.858 284.653 233.847 278.206C234.696 270.891 234.769 263.498 235.819 256.203C236.747 249.225 237.244 242.227 238.373 235.283C238.443 234.963 238.466 234.604 238.698 234.359C239.073 234.028 239.421 234.591 239.252 234.971C239.305 235.162 239.254 235.411 239.116 235.532C238.414 240.273 237.568 245.019 237.102 249.789C236.645 254.436 236.562 259.107 236.191 263.76C235.631 270.855 234.711 277.913 233.979 284.99C233.56 289.258 232.889 293.502 232.307 297.716C232.248 298.434 231.398 298.504 231.43 297.647Z" fill="#2496F0"/>
<path d="M237.511 297.472C238.806 288.684 239.626 279.982 241.13 271.315C242.171 265.665 243.284 260.019 244.074 254.324C244.853 248.47 245.519 242.572 246.346 236.75C246.48 235.993 246.354 235.12 246.814 234.47C247 234.272 247.284 234.355 247.401 234.572C247.59 235.017 247.413 235.525 247.392 235.986C246.425 244.83 244.915 253.598 243.741 262.415C242.801 269.688 242.406 277.024 241.43 284.295C240.814 288.817 240.155 293.344 239.368 297.834C239.038 299.286 237.389 298.966 237.511 297.472Z" fill="#2496F0"/>
<path d="M172.315 293.503C172.24 283.287 173.366 273.153 174.285 262.992C174.716 256.805 174.845 250.477 174.986 244.302C175.059 239.904 175.342 235.498 174.996 231.103C174.965 230.675 175.021 230.008 175.564 229.991C176.164 230.115 176.019 230.922 176.113 231.382C176.579 239.061 175.781 246.726 175.431 254.389C175.073 261.475 175.352 268.565 175.045 275.654C174.891 280.653 174.426 285.646 174.258 290.644C174.083 291.824 174.791 294.25 173.314 294.626C172.702 294.711 172.332 294.045 172.315 293.503Z" fill="#2496F0"/>
<path d="M181.229 295.31C180.996 294.992 180.92 294.583 180.944 294.195C180.991 293.216 181.038 292.238 181.1 291.253C181.307 287.824 181.609 284.4 181.824 280.964C182.235 273.485 182.35 265.987 183.064 258.519C183.555 252.185 184.576 246.035 185.406 239.831C185.669 237.711 185.93 235.62 186.186 233.5C186.415 232.028 186.368 230.473 186.897 229.07C187.116 228.565 187.719 228.4 187.779 229.176C187.813 229.438 187.721 229.757 187.734 230.018C187.854 230.4 187.449 230.527 187.426 230.078C185.771 238.273 186.117 246.709 185.452 255.017C184.865 263.236 183.94 271.42 183.41 279.642C183.188 283.309 183.084 286.918 183.094 290.57C183.099 291.754 183.083 292.943 183.088 294.134C183.098 294.777 182.771 295.616 182.064 295.701C181.736 295.753 181.428 295.582 181.229 295.31Z" fill="#2496F0"/>
<path d="M115.898 294.745C115.742 283.745 116.952 272.974 117.191 262.005C117.321 254.617 117.197 247.255 117.082 239.865C117.03 238.274 116.971 236.683 116.94 235.093C116.932 234.761 116.887 234.332 117.078 234.041C117.078 234.041 117.078 234.041 117.078 234.048C118.422 232.545 118.166 237.328 118.266 237.933C118.804 246.988 118.269 256.105 117.962 265.15C117.854 272.879 118.042 280.605 117.97 288.337C118.008 290.382 117.994 292.437 118.155 294.483C118.208 295.135 117.8 296.005 117.086 296.09C116.373 296.168 115.887 295.387 115.898 294.745Z" fill="#2496F0"/>
<path d="M123.885 296.696C124.162 290.89 124.266 285.08 124.579 279.276C124.949 272.797 125.679 266.34 126.056 259.862C126.559 251.262 126.91 242.653 127.449 234.056C127.475 233.646 127.466 233.213 127.577 232.815C127.687 232.44 128.125 232.143 128.459 232.474C128.842 232.931 128.67 233.606 128.693 234.155C128.447 245.347 126.971 256.448 126.43 267.621C126.077 276.028 126.521 284.629 126.025 293.005C125.833 294.336 126.619 297.589 124.971 297.94C124.316 298.015 123.906 297.282 123.885 296.696Z" fill="#2496F0"/>
<path d="M74.2931 294C73.8308 283.846 73.8026 273.568 74.1128 263.427C74.1938 256.713 73.5953 250 73.1831 243.314C73.1759 242.967 72.9978 242.58 73.1764 242.267C73.2817 242.086 73.5337 241.986 73.6961 242.162C74.0695 242.777 74.0047 243.582 74.1424 244.269C74.656 254.411 75.0824 264.563 75.9079 274.689C76.2549 281.032 76.4781 287.39 76.4993 293.742C76.4398 295.268 74.5752 295.728 74.2931 294Z" fill="#2496F0"/>
<path d="M79.84 290.711C80.6433 274.545 79.5698 258.342 80.8342 242.198C80.9243 241.684 80.8514 241.001 81.3405 240.693C81.9696 240.458 81.8962 241.399 81.8863 241.788C81.6204 247.877 81.6317 253.925 81.4793 259.934C81.2579 267.158 81.0415 274.188 81.2417 281.374C81.256 283.684 81.3935 285.987 81.4442 288.293C81.3762 289.263 81.6277 290.325 81.2596 291.24C80.783 292.04 79.8224 291.568 79.84 290.711Z" fill="#2496F0"/>
<path d="M41.0843 288.318C41.1895 282.025 40.4911 275.753 40.5383 269.463C40.5349 265.364 40.8128 261.275 41.048 257.177C41.2673 254.484 41.208 251.738 41.6856 249.076C41.8112 248.456 42.5779 248.1 42.7574 248.927C42.4392 258.159 41.8797 267.433 41.9372 276.667C41.9928 280.509 42.1716 284.345 42.1475 288.19C42.1826 289.015 41.1598 289.305 41.0843 288.318Z" fill="#2496F0"/>
<path d="M38.3714 238.535C39.0276 228.985 39.2788 219.323 39.3568 209.773C39.4635 207.723 39.3075 205.484 40.0996 203.57C40.2593 203.328 40.6027 203.27 40.8056 203.492C41.3378 204.225 40.8262 205.24 41.07 206.078C41.3219 206.324 41.1572 206.992 40.7599 206.874C40.3351 214.345 39.9959 221.836 40.0048 229.306C40.0006 232.373 40.0175 235.448 39.8837 238.507C39.8166 239.693 38.4275 239.83 38.3714 238.535Z" fill="#2496F0"/>
<path d="M68.6686 230.467C68.7198 224.228 68.7278 217.986 68.6999 211.742C68.663 203.678 68.398 195.68 69.6467 187.748C69.7205 187.378 70.1998 186.996 70.5003 187.39C70.7509 187.659 70.5655 188.08 70.5416 188.345C69.5159 199.871 69.2457 211.451 70.0112 222.995C70.2212 225.411 70.5185 227.819 70.5548 230.238C70.571 230.788 70.2798 231.513 69.6611 231.583C69.0635 231.661 68.6712 231.001 68.6686 230.467Z" fill="#2496F0"/>
<path d="M73.9393 229.982C73.8792 218.944 74.59 208.062 75.3713 197.092C75.6663 192.614 75.4812 188.071 76.2289 183.636C76.2878 183.272 76.8066 182.951 76.9596 183.509C76.9186 184.509 76.6796 185.555 76.68 186.587C76.3033 194.559 75.3638 202.518 75.658 210.511C75.7953 216.971 76.0878 223.491 75.821 229.941C75.739 231.365 74.0148 231.545 73.9393 229.982Z" fill="#2496F0"/>
<path d="M113.883 221.71C113.834 215.457 114.721 209.256 114.78 203.01C115.02 192.258 113.771 181.507 114.452 170.768C114.518 170.281 114.61 169.277 115.271 169.462C115.494 169.585 115.563 169.877 115.511 170.127C115.395 170.82 115.394 171.527 115.358 172.224C115.407 181.818 115.319 191.418 115.817 201.004C116.178 207.803 116.294 214.616 116.264 221.426C116.33 223.372 114.055 223.936 113.883 221.71Z" fill="#2496F0"/>
<path d="M121.422 221.367C121.177 212.244 122.098 203.303 122.486 194.227C122.873 185.057 122.559 175.887 123.665 166.77C123.786 166.214 123.706 165.069 124.464 165.203C124.648 165.272 124.706 165.5 124.701 165.694C124.687 166.264 124.608 166.829 124.572 167.404C123.636 181.064 123.003 194.757 123.453 208.447C123.553 212.739 123.659 217.033 123.564 221.321C123.469 222.953 121.54 223.171 121.422 221.367Z" fill="#2496F0"/>
<path d="M168.942 218.485C168.52 206.067 169.619 193.615 169.991 181.219C170.113 174.414 169.853 167.614 169.845 160.816C169.904 160.228 169.616 159.401 170.14 158.994C170.423 158.867 170.581 159.108 170.623 159.364C170.623 159.356 170.631 159.35 170.631 159.35C171.115 165.925 170.624 172.491 170.84 179.078C171.14 188.486 171.501 197.948 170.977 207.347C170.781 211.044 170.737 214.751 170.657 218.455C170.574 219.778 169.036 219.984 168.942 218.485Z" fill="#2496F0"/>
<path d="M176.087 219.336C176.002 208.463 177.093 197.627 177.261 186.762C177.716 177.077 177.41 167.2 179.48 157.689C179.562 157.297 180.137 156.546 180.437 157.294C180.48 158.112 180.174 158.952 180.108 159.785C178.973 172.018 177.922 184.292 178.177 196.591C178.373 204.08 178.265 211.571 178.424 219.064C178.495 220.931 176.277 221.499 176.087 219.336Z" fill="#2496F0"/>
<path d="M39.4258 185.602C39.4748 179.399 39.9359 173.077 40.0268 166.898C40.1343 159.761 40.0556 152.597 39.9237 145.473C40.1532 144.809 40.8079 145.088 40.8479 145.719C42.0288 156.747 40.8155 167.807 40.5142 178.843C40.4556 181.048 40.6503 183.247 40.6421 185.455C40.6906 186.41 39.5072 186.726 39.4258 185.602Z" fill="#2496F0"/>
<path d="M45.1188 182.524C45.2254 175.862 45.1629 169.017 45.3032 162.394C45.4738 154.481 45.9652 146.523 45.9247 138.633C48.078 135.412 47.2749 148.46 47.2465 149.259C47.0602 156.615 46.7088 163.954 46.2845 171.303C46.1484 174.282 46.0267 177.262 45.9635 180.231C45.9523 180.988 45.9338 181.745 45.9153 182.502C45.9094 182.71 45.7636 182.961 45.5377 182.99C45.2898 183.025 45.1116 182.754 45.1188 182.524Z" fill="#2496F0"/>
<path d="M66.1546 172.779C66.359 163.172 67.507 153.617 67.8622 144.027C67.9481 137.119 67.8747 130.215 68.1915 123.314C68.1942 123.04 68.1974 122.759 68.2721 122.489C68.3891 122.121 68.9038 122.096 68.9465 122.568C69.0608 123.513 69.022 124.478 69.0485 125.439C69.0865 129.216 68.7569 132.976 68.6793 136.753C68.6695 142.677 68.6592 148.609 68.7358 154.538C68.8974 160.61 68.884 166.707 68.7355 172.767C68.5545 174.733 66.2818 174.901 66.1546 172.779Z" fill="#2496F0"/>
<path d="M73.5157 172.598C73.6168 167.639 74.162 162.744 74.3639 157.792C74.6688 152.925 74.6637 148.047 74.9686 143.18C75.5424 135.061 76.7285 126.974 76.7331 118.827C76.8925 117.437 78.1154 117.874 78.1608 119.111C78.4521 123.459 77.9897 127.839 77.6673 132.178C76.9112 141.014 76.0045 149.834 75.306 158.674C75.021 162.3 74.7283 165.933 74.6088 169.57C74.6029 170.588 74.5678 171.61 74.5502 172.583C74.5474 172.857 74.3535 173.184 74.0624 173.217C73.7348 173.254 73.5116 172.893 73.5157 172.598Z" fill="#2496F0"/>
<path d="M111.829 160.132C111.706 145.727 113.595 131.377 113.58 116.971C113.478 111.098 114.183 105.268 113.455 99.4633C113.415 99.1866 113.551 98.8487 113.847 98.8672C114.47 99.0651 114.37 99.9681 114.503 100.496C115.115 106.185 114.626 111.913 114.378 117.613C114.008 124.669 114.144 131.613 114.209 138.653C114.298 144.259 114.049 149.851 113.735 155.445C113.677 156.589 113.606 157.732 113.585 158.878C113.549 159.677 113.745 160.931 112.734 161.149C112.173 161.229 111.856 160.625 111.829 160.132Z" fill="#2496F0"/>
<path d="M118.76 158.524C118.41 149.575 119.747 140.696 120.406 131.796C120.958 123.799 121.062 115.78 121.593 107.781C121.881 103.989 122.106 100.164 122.206 96.3744C122.237 95.9939 122.75 95.658 123.021 96.0502C123.267 96.4048 123.218 96.8276 123.2 97.2377C123.208 98.6022 123.217 99.9667 123.189 101.329C123.018 110.519 121.724 119.639 121.351 128.817C121.118 134.612 121.122 140.328 120.992 146.093C120.982 150.4 120.897 154.292 120.909 158.478C120.814 160.111 118.899 160.344 118.76 158.524Z" fill="#2496F0"/>
<path d="M167.198 147.595C166.964 134.951 167.818 122.47 168.045 109.855C168.093 101.696 167.839 93.5326 167.388 85.3929C167.343 84.9427 167.898 84.5084 168.186 84.9955C168.494 85.8375 168.456 86.8021 168.566 87.6894C169.253 93.9099 168.883 100.172 168.867 106.414C168.669 113.733 169.125 120.877 169.334 128.158C169.437 133.894 169.028 139.613 168.749 145.34C168.574 146.274 169.113 148.17 168.002 148.483C167.536 148.547 167.2 148.028 167.198 147.595Z" fill="#2496F0"/>
<path d="M172.508 148.426C172.268 148.107 172.206 147.714 172.216 147.318C172.286 145.395 172.407 143.469 172.47 141.546C172.722 133.941 173.097 126.344 173.652 118.758C173.958 113.877 174.069 108.984 174.296 104.098C174.509 98.6123 175.076 93.1416 175.138 87.6465C175.247 86.7224 174.942 85.8156 175.416 85.0587C176.265 84.5418 176.243 86.1642 176.292 86.6579C176.428 93.1325 175.921 99.4946 175.553 105.945C174.768 115.71 173.852 125.482 174.322 135.29C174.451 139.224 174.457 143.164 174.398 147.101C174.564 148.143 173.442 149.552 172.508 148.426Z" fill="#2496F0"/>
</g>
<defs>
<clipPath id="clip0_288_3361">
<rect width="360.669" height="299.118" fill="white" transform="translate(19.5117 0.836914) rotate(3.58531)"/>
</clipPath>
</defs>
</svg>
