<svg width="46" height="47" viewBox="0 0 46 47" fill="none" xmlns="http://www.w3.org/2000/svg">
<g clip-path="url(#clip0_288_3489)">
<path d="M26.9394 6.79573C26.6341 4.33895 24.9937 0 23.0161 0C21.0385 0 19.3981 4.33442 19.0928 6.79573H19.0381L19.0381 40.3943H19.1156C19.4801 42.8782 21.0886 47.0045 23.0207 47.0045C24.9527 47.0045 26.5612 42.8782 26.9258 40.3943H27.0032L27.0032 6.79573H26.9485H26.9394Z" fill="black"/>
<path d="M19.033 40.3943L12.4395 44.4708V46.3213L20.4957 44.6654L19.033 40.3943Z" fill="black"/>
<path d="M7.21747 20.3827H4.85254L4.85254 24.5813H7.21747V20.3827Z" fill="black"/>
<path d="M14.2712 15.0709H11.9062V19.2696H14.2712V15.0709Z" fill="black"/>
<path d="M19.0334 13.3426L0 28.409L0 32.1146L19.0334 24.8302V13.3426Z" fill="black"/>
<path d="M26.9666 40.3943L33.5602 44.4708V46.3213L25.5039 44.6654L26.9666 40.3943Z" fill="black"/>
<path d="M38.7864 24.5813H41.1514V20.3827H38.7864V24.5813Z" fill="black"/>
<path d="M31.7239 19.2696H34.0889V15.0709H31.7239V19.2696Z" fill="black"/>
<path d="M26.9668 13.3426L46.0002 28.409V32.1146L26.9668 24.8302V13.3426Z" fill="black"/>
</g>
<defs>
<clipPath id="clip0_288_3489">
<rect width="46" height="47" fill="white"/>
</clipPath>
</defs>
</svg>
