<svg width="294" height="65" viewBox="0 0 294 65" fill="none" xmlns="http://www.w3.org/2000/svg">
<rect width="289" height="60" rx="10" fill="#FFFAF1"/>
<rect x="5" y="5" width="289" height="60" rx="10" fill="#FF837E"/>
<rect x="1" y="1" width="287" height="58" rx="9" stroke="black" stroke-width="2"/>
<path d="M100.05 19.75L100.225 19.625C108.7 20.5 105.55 27.025 102.15 24.55C101.9 22.8 100.975 21.025 100.05 19.75ZM113.7 26.075H92.475L92.275 25.375H108.8L110.8 22.825C110.8 22.825 113.075 24.525 114.425 25.675C114.35 25.95 114.075 26.075 113.7 26.075ZM95.55 27.625L95.85 27.525C104.8 33.975 102.025 42.625 98.15 38.925C98.025 35.225 96.8 31.15 95.55 27.625ZM109.475 40.925L111.525 38.3C111.525 38.3 113.875 40.05 115.275 41.225C115.2 41.5 114.9 41.625 114.525 41.625H91.5L91.3 40.925H103.95C105.1 36.8 106.3 31.075 106.9 27.225L112.025 28.5C111.925 28.825 111.65 29.1 111 29.1C109.675 32.25 107.275 37.15 104.75 40.925H109.475ZM123.875 30.825H127.3V26.95H123.875V30.825ZM123.875 26.25H127.3V22.525H123.875V26.25ZM127.05 21.825L128.575 20.15L131.7 22.55C131.525 22.75 131.2 22.975 130.7 23.075V32.175C130.65 32.35 129 32.975 127.875 32.975H127.3V31.525H123.875V37.375C124.925 36.95 126.075 36.45 127.275 35.925C126.975 34.95 126.6 34.05 126.175 33.225L126.425 33.1C134.15 36.825 130.95 43.475 127.95 40.525C128 39.375 127.85 38.15 127.575 36.975C126.375 38.225 124.775 39.775 122.85 41.45C122.6 42 122.225 42.4 121.875 42.6L119.675 38.775C120.425 38.25 120.55 37.975 120.55 37.3V20.45L124.225 21.825H127.05ZM139.325 20.2L142.4 22.575C142.25 22.775 141.95 22.975 141.475 23.075V35.225C141.475 37.525 141.025 38.825 137.65 39.125C137.625 37.975 137.525 37.1 137.275 36.6C137 36.05 136.625 35.7 135.7 35.475V35.15C135.7 35.15 137.275 35.25 137.675 35.25C138.025 35.25 138.1 35.1 138.1 34.8V22.575H135.35V42.075C135.35 42.5 134.075 43.35 132.55 43.35H131.975V20.425L135.45 21.875H137.85L139.325 20.2ZM151.55 19.925L151.725 19.8C159.8 19.95 156.875 26.25 153.55 24C153.3 22.5 152.425 20.95 151.55 19.925ZM151.625 35.8H154.25V32.425H151.675V34.2C151.675 34.725 151.675 35.25 151.625 35.8ZM154.25 28.7H151.675V31.725H154.25V28.7ZM154 28L155.5 26.3L158.625 28.725C158.475 28.925 158.15 29.15 157.625 29.25V39.7C157.625 41.85 157.175 43.025 153.875 43.3C153.85 42.275 153.775 41.525 153.525 41.025C153.3 40.575 152.975 40.2 152.1 40.025V39.7C152.1 39.7 153.4 39.8 153.85 39.8C154.175 39.8 154.25 39.625 154.25 39.375V36.5H151.575C151.275 39 150.275 41.5 146.85 43.3L146.65 43.125C148.25 40.65 148.275 37.4 148.275 34.2V26.675L152.2 28H154ZM162.575 28.4V37.65C162.575 37.875 161.15 38.4 159.9 38.4H159.325V27.325L163.5 27.7C163.45 28.025 163.275 28.3 162.575 28.4ZM164.375 39.4V26.475L168.675 26.85C168.625 27.225 168.375 27.45 167.8 27.525V39.575C167.8 41.85 167.275 43.075 163.5 43.375C163.425 42.325 163.275 41.575 162.85 41.05C162.425 40.575 161.9 40.2 160.525 39.95V39.65C160.525 39.65 163.325 39.8 163.875 39.8C164.25 39.8 164.375 39.7 164.375 39.4ZM164.775 24.675L166.7 22.175C166.7 22.175 168.9 23.85 170.2 24.975C170.125 25.25 169.85 25.375 169.475 25.375H146.575L146.375 24.675H159.825C160.4 23.15 160.975 21.075 161.3 19.65L166.2 20.825C166.125 21.15 165.85 21.35 165.25 21.35C164.15 22.3 162.3 23.625 160.625 24.675H164.775ZM184.225 20.325L184.375 20.15C193.775 19.35 191.75 26.925 187.95 24.975C187.4 23.15 185.875 21.3 184.225 20.325ZM178.35 19.6L182.45 21.825C182.325 22.075 182.1 22.25 181.5 22.175C179.75 23.925 176.95 25.9 173.95 27.05L173.775 26.8C175.7 24.8 177.55 21.65 178.35 19.6ZM178.65 24.95L182.925 27.075C182.8 27.35 182.575 27.525 181.95 27.475C181.3 28.3 180.525 29.225 179.625 30.125L181.05 30.65C180.975 30.875 180.75 31.05 180.275 31.15V42.3C180.225 42.6 178.875 43.4 177.425 43.4H176.775V32.65C175.825 33.375 174.8 34.05 173.75 34.625L173.55 34.4C175.775 31.725 177.775 27.6 178.65 24.95ZM193.075 42.025L194.775 39.675C194.775 39.675 196.7 41.25 197.825 42.325C197.75 42.6 197.475 42.725 197.1 42.725H181.4L181.2 42.025H186.875V34.025H182.425L182.225 33.325H186.875V26.4H181.775L181.575 25.7H192.625L194.275 23.4C194.275 23.4 196.175 24.95 197.25 26C197.2 26.275 196.925 26.4 196.55 26.4H190.55V33.325H192.45L194.075 31.075C194.075 31.075 195.925 32.6 197 33.625C196.925 33.9 196.675 34.025 196.3 34.025H190.55V42.025H193.075Z" fill="black"/>
</svg>
