<svg width="294" height="65" viewBox="0 0 294 65" fill="none" xmlns="http://www.w3.org/2000/svg">
<rect width="289" height="60" rx="10" fill="#FFFAF1"/>
<rect x="5" y="5" width="289" height="60" rx="10" fill="#FFFAF1"/>
<rect x="1" y="1" width="287" height="58" rx="9" stroke="black" stroke-width="2"/>
<path d="M93.125 20.275L93.3 20.125C101.1 20.15 98.875 26.125 95.65 24.325C95.2 22.875 94.075 21.275 93.125 20.275ZM91.25 25.75L91.425 25.6C98.95 25.725 96.5 31.575 93.425 29.65C93.125 28.225 92.15 26.7 91.25 25.75ZM110 34.275H103.325V40.3H110V34.275ZM110.45 28.125L112.225 25.675C112.225 25.675 114.225 27.325 115.375 28.425C115.325 28.7 115.025 28.825 114.675 28.825H108.4V33.575H109.725L111.35 31.825L114.6 34.3C114.425 34.5 114.125 34.75 113.6 34.85V42.2C113.575 42.425 111.85 43.15 110.625 43.15H110V41H103.325V42.2C103.325 42.525 101.775 43.3 100.275 43.3H99.775V32.15L103.475 33.575H104.7V28.825H98.675L98.5 28.2C97.65 30.725 96.8 33.45 96.55 34.35C96.325 35.175 96.1 36.125 96.125 36.775C96.175 38.2 97.375 38.9 97.3 41.15C97.25 42.5 96.2 43.4 94.75 43.4C94.1 43.4 93.35 43.075 93.075 42.1C93.6 39.475 93.5 37.05 92.9 36.65C92.525 36.4 92.075 36.25 91.55 36.2V35.775H92.725C93.15 35.775 93.275 35.775 93.6 35.275C94.275 34.325 94.275 34.325 99.2 25.05L99.55 25.15C99.25 25.975 98.9 27.025 98.525 28.125H104.7V24.025C102.725 24.175 100.675 24.275 98.8 24.3L98.75 23.975C102.9 23 108.25 21.175 110.95 19.825L114.375 23.125C114.05 23.375 113.425 23.4 112.55 23.075C111.375 23.275 109.95 23.475 108.4 23.675V28.125H110.45ZM126.95 34.15V36.4H127.975L129.375 34.675C129.2 34.7 129.025 34.7 128.825 34.7H128.25V34.15H126.95ZM122.675 33.45H123.875V31.025H122.675V33.45ZM123.875 27.925H122.675V30.325H123.875V27.925ZM128.25 27.925H126.95V30.325H128.25V27.925ZM128.25 33.45V31.025H126.95V33.45H128.25ZM140 24.325L142.875 26.875C142.7 27.1 142.35 27.3 141.8 27.375C141.625 37.8 141.35 40.575 139.95 41.925C139.075 42.8 137.95 43.15 136.55 43.15C136.575 42.05 136.5 41.3 136.2 40.85C135.875 40.35 135.35 40 134.475 39.75V39.45C135.125 39.5 136.125 39.55 136.6 39.55C136.95 39.55 137.175 39.45 137.4 39.25C138.15 38.55 138.375 35.125 138.525 26.8H136.875C136.7 34.375 135.8 39.75 129.05 43.375L128.8 43.05C130.075 41.75 131.025 40.35 131.7 38.85C129.5 39.825 126.225 41.05 121.325 42.6C121.15 42.925 120.85 43.125 120.525 43.175L119.1 39.1C120.125 39.075 121.8 39 123.875 38.9V37.1H119.575L119.375 36.4H123.875V34.15H122.675V34.475C122.675 34.7 121.725 35.175 120.15 35.175H119.6V25.975L122.925 27.225H123.875V25.5H119.175L118.975 24.8H123.875V22.95C122.2 23.025 120.5 23.05 118.95 23.05L118.9 22.7C122.375 21.95 126.975 20.575 129.325 19.575L132.225 22.575C131.9 22.825 131.3 22.8 130.525 22.475C129.5 22.6 128.275 22.7 126.95 22.8V24.8H128.275L129.85 22.825C129.85 22.825 131.65 24.15 132.725 25.1C132.675 25.375 132.4 25.5 132.025 25.5H126.95V27.225H128.175L129.65 25.55L132.425 27.65C132.275 27.875 132.05 28.025 131.475 28.125V34.05C131.475 34.15 130.775 34.55 129.575 34.675C129.975 34.975 131.3 35.975 132.175 36.7C132.1 36.975 131.85 37.1 131.475 37.1H126.95V38.725C128.525 38.625 130.2 38.525 131.9 38.4C133.25 35.175 133.5 31.375 133.525 26.8H131.65L131.425 26.1H133.525C133.525 24.2 133.5 22.15 133.5 19.95L137.85 20.35C137.775 20.75 137.5 20.975 136.925 21.05C136.9 22.825 136.9 24.5 136.875 26.1H138.225L140 24.325ZM160.8 24.35L160.6 23.65H164.35C164.1 23.55 163.875 23.4 163.65 23.2C163.725 21.975 163.3 20.625 162.75 19.75L162.95 19.625C167.525 20.4 167.2 23 165.75 23.65H166.5L167.8 21.8C167.8 21.8 169.3 23.075 170.15 23.95C170.1 24.225 169.825 24.35 169.5 24.35H160.8ZM146.6 24.35L146.4 23.65H149.25C149.125 23.575 148.975 23.475 148.85 23.35C148.925 22.125 148.475 20.775 147.925 19.9L148.15 19.775C152.275 20.575 152.225 22.875 151.05 23.65H151.725L152.925 21.975C152.925 21.975 154.325 23.15 155.125 23.95C155.075 24.225 154.825 24.35 154.475 24.35H146.6ZM147.3 24.625L147.6 24.525C152.55 27.125 149.675 30.975 147.825 28.875C148 27.45 147.7 25.8 147.3 24.625ZM158.325 26.225V28.025C158.3 31.925 157.8 36.125 155.75 39.475C156.275 39.525 156.975 39.55 157.35 39.55C157.725 39.55 157.9 39.475 158.1 39.275C158.775 38.575 158.9 35.35 158.975 26.225H158.325ZM169.7 30.425H166.7V33.95L167.775 32.35C167.775 32.35 169.175 33.625 169.975 34.5C169.9 34.775 169.65 34.9 169.325 34.9H166.7V42.325C166.7 42.475 165.775 43.025 164.2 43.025H163.65V34.9H161.875L161.675 34.2H163.65V30.425H161.45C161.325 38.075 161.05 40.25 160.075 41.35C159.375 42.15 158.375 42.475 157.3 42.475C157.3 41.625 157.25 41.025 157 40.65C156.725 40.275 156.325 40.025 155.625 39.825V39.65C154.725 41.1 153.55 42.375 151.975 43.375L151.725 43.15C154.925 39.05 155.425 33.3 155.425 28V26.225H154.575L154.45 25.875C154.325 25.95 154.125 25.975 153.9 25.975C153.275 27.075 152.3 28.525 151.175 29.725H152.025L153.15 28.025C153.15 28.025 154.425 29.225 155.125 30.025C155.075 30.3 154.825 30.425 154.5 30.425H151.825V33.6L152.825 32.1C152.825 32.1 154.15 33.35 154.9 34.175C154.85 34.45 154.6 34.575 154.25 34.575H151.8C151.7 37.45 151.05 41.1 147 43.4L146.775 43.175C148.675 40.625 148.95 37.375 148.975 34.575H146.775L146.575 33.875H148.975V33.8V30.425H146.45L146.25 29.725H150.625C150.95 28.175 151.2 26.075 151.275 24.55L154.8 25.475L154.775 25.525H155.425V19.625L159.225 20C159.175 20.35 158.975 20.6 158.325 20.7V25.525H158.7L160.1 24.075L162 25.725C161.9 25.375 161.8 25.05 161.675 24.75L161.95 24.65C167.45 27 164.4 31.175 162.35 28.975C162.425 28.175 162.35 27.275 162.175 26.475C162 26.55 161.775 26.6 161.475 26.65L161.45 29.725H165.325C165.775 28.15 166.075 26.025 166.2 24.45L169.9 25.35C169.825 25.65 169.55 25.875 169 25.875C168.3 27.05 167.175 28.525 165.95 29.725H166.8L168.075 27.925C168.075 27.925 169.525 29.175 170.35 30.025C170.275 30.3 170.025 30.425 169.7 30.425ZM176 20.075L176.175 19.95C183.9 20.425 181.05 26.275 177.925 24.15C177.625 22.675 176.75 21.125 176 20.075ZM173.825 25.8L174 25.675C181.375 25.95 178.775 31.6 175.775 29.625C175.5 28.25 174.6 26.75 173.825 25.8ZM182.05 22.95L182.425 23.05C181.4 26.35 179.7 32.425 179.35 33.95C179.125 34.875 178.925 35.875 178.95 36.55C179 38.025 180.175 38.8 180.1 41.125C180.075 42.475 179.075 43.4 177.675 43.4C177.025 43.4 176.275 43.1 176.025 42.075C176.55 39.425 176.45 36.875 175.825 36.45C175.45 36.2 175 36.075 174.45 36.025V35.575H175.625C176.025 35.575 176.15 35.575 176.45 35.05C177.05 34.025 177.05 34.025 182.05 22.95ZM192.725 31L194.625 28.475C194.625 28.475 196.775 30.15 198.05 31.3C197.975 31.575 197.7 31.7 197.325 31.7H187.7L191.5 33.375C191.4 33.6 191.125 33.8 190.65 33.775C189.1 35.5 186.4 37.65 184 38.975C186.275 38.925 189.425 38.8 192.8 38.65C192.2 37.275 191.45 35.975 190.675 34.875L190.9 34.75C200.725 37.65 197.675 45.275 193.95 42.35C193.8 41.375 193.5 40.4 193.125 39.425C190.85 40.25 187.55 41.3 183.45 42.425C183.225 42.7 183 42.9 182.75 43L181.1 38.95C181.1 38.95 181.775 38.775 182.1 38.55C183.55 37.6 185.7 34 186.475 31.7H180.825L180.625 31H186.95V25.6H182.6L182.4 24.9H186.95V19.675L191.5 20.05C191.45 20.4 191.275 20.65 190.575 20.75V24.9H191.8L193.6 22.525C193.6 22.525 195.625 24.125 196.825 25.2C196.75 25.475 196.475 25.6 196.1 25.6H190.575V31H192.725Z" fill="black"/>
</svg>
