<svg width="299" height="101" viewBox="0 0 299 101" fill="none" xmlns="http://www.w3.org/2000/svg">
<path fill-rule="evenodd" clip-rule="evenodd" d="M1.35353 30.934C1.35353 30.934 2.62263 30.3169 4.10353 30.2234C5.67926 30.1245 7.47552 30.5484 7.47552 30.5484L7.95092 35.085C7.95092 35.085 6.26833 34.384 4.80489 34.4757C3.2117 34.5763 1.82768 35.4679 1.82768 35.4679L1.35228 30.9313L1.35353 30.934Z" fill="#FED430"/>
<path fill-rule="evenodd" clip-rule="evenodd" d="M160.662 12.5048C160.662 12.5048 163.563 13.4988 165.979 15.6287C168.549 17.8959 170.647 21.3112 170.647 21.3112L164.352 29.0646C164.352 29.0646 162.857 25.3949 160.471 23.2891C157.872 20.9978 154.369 20.2522 154.369 20.2522L160.664 12.4988L160.662 12.5048Z" fill="#FED430"/>
<path fill-rule="evenodd" clip-rule="evenodd" d="M77.4718 58.7945C77.4718 58.7945 75.5982 59.1355 73.641 58.7737C71.5603 58.386 69.3927 57.2951 69.3927 57.2951L70.4803 51.6354C70.4803 51.6354 72.3995 53.0258 74.3258 53.3862C76.4267 53.777 78.5555 53.1377 78.5555 53.1377L77.4679 58.7973L77.4718 58.7945Z" fill="#2496F0"/>
<path fill-rule="evenodd" clip-rule="evenodd" d="M293.033 0.233363C293.033 0.233363 294.423 0.0489075 295.842 0.396834C297.351 0.768156 298.894 1.67717 298.894 1.67717L297.85 5.91377C297.85 5.91377 296.503 4.78784 295.103 4.44415C293.577 4.06882 291.99 4.46996 291.99 4.46996L293.033 0.233363Z" fill="#FF837E"/>
<path fill-rule="evenodd" clip-rule="evenodd" d="M31.9796 94.8822C31.9796 94.8822 33.2422 94.2831 34.6945 94.1843C36.2407 94.08 37.9822 94.4798 37.9822 94.4798L38.2867 98.8466C38.2867 98.8466 36.6639 98.1802 35.2308 98.2774C33.6678 98.3828 32.2841 99.249 32.2841 99.249L31.9796 94.8822Z" fill="#FF837E"/>
</svg>
