<svg width="350" height="326" viewBox="0 0 350 326" fill="none" xmlns="http://www.w3.org/2000/svg">
<rect x="8" y="93" width="286" height="233" rx="20" fill="#FED430"/>
<rect x="1" y="86.9451" width="284" height="231" rx="19" stroke="black" stroke-width="2"/>
<path d="M106.1 172.125H97.375V174.925H106.1V172.125ZM97.375 178.525H106.1V175.625H97.375V178.525ZM108.375 191.65L110.15 189.2C110.15 189.2 112.15 190.85 113.3 191.95C113.225 192.225 112.95 192.35 112.6 192.35H90.05L89.85 191.65H100.025V188.025H93.725L93.525 187.325H100.025V184.225H96.35C94.725 186.175 92.775 187.525 90.6 188.45L90.35 188.25C91.975 186.475 93.55 183.7 94.5 180.625C94.35 180.65 94.225 180.65 94.1 180.65H93.55V169.9L97.575 171.425H105.85L107.5 169.6L110.925 172.175C110.775 172.375 110.475 172.625 109.95 172.725V179.45C109.925 179.65 108 180.275 106.775 180.275H106.1V179.225H97.375V179.475C97.375 179.65 96.925 179.95 96.275 180.225L99.1 181.325C98.975 181.65 98.625 181.825 98.05 181.775C97.7 182.4 97.3 182.975 96.9 183.525H100.025V179.775L104.775 180.15C104.75 180.525 104.575 180.775 103.875 180.875V183.525H106.825L108.575 181.125C108.575 181.125 110.55 182.75 111.7 183.825C111.625 184.1 111.35 184.225 110.975 184.225H103.875V187.325H106.9L108.6 184.975C108.6 184.975 110.55 186.55 111.675 187.625C111.6 187.9 111.325 188.025 110.95 188.025H103.875V191.65H108.375ZM135.275 172.2L138.4 175.125C138.2 175.35 137.95 175.425 137.425 175.45C136.6 176.25 135.225 177.275 134.075 177.925L134.525 178.3C134.45 178.575 134.175 178.7 133.8 178.7H128.325V182.8H133.2L134.95 180.5C134.95 180.5 136.95 182.05 138.125 183.1C138.05 183.375 137.775 183.5 137.425 183.5H128.325V189.05C128.325 191.45 127.675 193.125 123.525 193.425C123.475 192.2 123.275 191.275 122.775 190.725C122.3 190.2 121.7 189.775 120.05 189.5V189.2C120.05 189.2 123.375 189.4 124.05 189.4C124.425 189.4 124.575 189.2 124.575 188.925V183.5H115.225L115.025 182.8H124.575V178.7H118.8L118.6 178H129.525L131.3 175.75C131.3 175.75 132.575 176.7 133.7 177.625C133.75 176.725 133.775 175.6 133.775 174.7H118.975C119.275 176.675 118.7 178.1 117.7 178.725C116.725 179.35 115.1 178.9 114.675 177.575C114.35 176.325 115.075 175.4 116.1 174.925C116.9 174.525 118.025 173.5 118 172.425H118.275C118.525 172.975 118.7 173.5 118.825 174H126.35C126.025 173.9 125.675 173.75 125.35 173.5C125.375 172.1 124.775 170.65 123.8 169.825L123.925 169.7C130.5 169.325 129.925 173.325 127.675 174H133.5L135.275 172.2ZM150.075 175.5L149.875 174.8H158.575L160.325 172.325C160.325 172.325 162.325 174 163.45 175.1C163.375 175.375 163.1 175.5 162.75 175.5H150.075ZM153 169.825L153.2 169.7C160.675 170.475 157.7 176.25 154.725 173.975C154.625 172.5 153.875 170.875 153 169.825ZM144 182.975L144.35 182.825C148.875 186.125 145.475 189.525 144.425 187.5C144.6 186.425 144.625 184.4 144 182.975ZM143.85 175.125L144.175 174.95C148.85 177.75 145.7 181.3 144.525 179.325C144.625 178.3 144.55 176.425 143.85 175.125ZM143.775 174.15V180.8C144.75 180.725 145.8 180.65 146.9 180.55V174.15H143.775ZM149.675 180.975V190.075C149.675 192.025 149.3 193.05 146.4 193.3C146.375 192.45 146.275 191.75 146.025 191.35C145.75 190.95 145.375 190.65 144.475 190.475V190.125C144.475 190.125 146.075 190.25 146.475 190.25C146.825 190.25 146.9 190.1 146.9 189.8V181.9C145.95 182.175 144.9 182.475 143.775 182.8C143.725 186.5 143.3 190.5 139.825 193.4L139.525 193.2C140.875 190.45 141.05 186.975 141.075 183.5L140.95 183.525C140.775 183.825 140.5 184.05 140.2 184.1L139.475 180.95C139.9 180.95 140.45 180.95 141.075 180.925V172.325L143.5 173.2C143.575 172.15 143.625 170.675 143.65 169.65L147.825 170.425C147.725 170.825 147.4 171.025 146.825 171.075C146.225 171.75 145.3 172.725 144.575 173.45H146.675L147.9 172.05L150.5 174.075C150.375 174.225 150.075 174.4 149.675 174.5V180.3L151.025 180.15L151.05 180.5C150.625 180.65 150.15 180.825 149.675 180.975ZM162.475 185.825L162.575 189.325C163.225 189.675 163.35 190 163.35 190.575C163.35 191.7 162.35 192.375 160.325 192.375H159.425C157.525 192.375 157.3 191.725 157.3 189.9V179.2H154.7V183.55C154.7 186.8 154.275 190.9 149.25 193.425L149.05 193.2C151.375 190.45 151.575 186.875 151.575 183.55V177.25L155.175 178.5H157.025L158.5 176.825L161.225 179.075C161.075 179.25 160.825 179.4 160.35 179.475V189.025C160.35 189.325 160.375 189.425 160.55 189.425H160.7H160.875C161 189.425 161.1 189.375 161.225 189.125C161.45 188.7 161.875 187.2 162.225 185.825H162.475ZM183.15 177.5L183.025 177.35C183.175 176.45 183.35 175.175 183.425 174.15H181.275V177.175C181.275 177.85 181.3 177.85 181.9 177.85H184.15H184.925C185.125 177.85 185.475 177.85 185.8 177.75H186.025L186.15 177.775C187.175 178.2 187.35 178.45 187.35 178.95C187.35 180.35 186.625 180.925 183.85 180.925H182.425C183.075 181.475 183.975 182.275 184.6 182.9C184.55 183.175 184.275 183.3 183.9 183.3H178.35V191.35H182.525L184.275 188.925C184.275 188.925 186.25 190.55 187.4 191.65C187.325 191.925 187.05 192.05 186.675 192.05H165.95L165.75 191.35H174.6V183.3H168.625L168.425 182.6H180.05L181.25 180.925C178.025 180.925 177.725 180.45 177.725 177.2V174.15H172.875L177.1 176.175C177 176.525 176.7 176.775 175.825 176.775C173.9 179.55 170.85 181.575 165.85 182.125L165.725 181.9C169.95 179.75 171.875 176.925 172.55 174.15H169.075C169.45 176.175 168.8 177.625 167.775 178.175C166.775 178.75 165.5 178.35 165.125 177.2C164.8 176.1 165.475 175.275 166.425 174.85C167.2 174.35 168.05 173.075 167.85 171.675L168.15 171.65C168.475 172.275 168.725 172.875 168.9 173.45H175.5C175.25 173.35 174.975 173.175 174.725 172.975C174.775 171.725 174.325 170.475 173.775 169.65L173.9 169.55C179.625 169.6 179.325 172.625 177.475 173.45H183.2L185.075 171.55L188.325 174.6C188.125 174.85 187.875 174.925 187.325 174.95C186.3 175.8 184.55 176.9 183.15 177.5ZM96.775 213.125H99.55V210.325H96.775V213.125ZM99.55 206.825H96.775V209.625H99.55V206.825ZM106.05 206.825H103.275V209.625H106.05V206.825ZM103.275 213.125H106.05V210.325H103.275V213.125ZM106.05 213.825H103.725C105.875 216.425 109.8 218.15 113.375 218.875L113.325 219.15C111.95 219.525 110.9 220.725 110.475 222.5C106.9 220.8 104.7 218.05 103.275 214.125V222.325C103.275 222.625 101.725 223.35 100.3 223.35H99.55V217.65C97.025 219.8 93.675 221.475 89.75 222.65L89.6 222.375C93.35 220.3 96.375 216.95 98.025 213.825H96.775V214.3C96.775 214.65 95.125 215.45 93.6 215.45H93.075V204.65L97 206.125H99.55V203.875H90.4L90.2 203.175H99.55V199.625L104.2 200.075C104.15 200.425 103.975 200.7 103.275 200.8V203.175H107.325L109.3 200.575C109.3 200.575 111.525 202.3 112.85 203.475C112.775 203.75 112.5 203.875 112.125 203.875H103.275V206.125H105.8L107.45 204.325L110.825 206.875C110.675 207.075 110.375 207.3 109.875 207.4V213.95C109.85 214.175 108.025 214.975 106.725 214.975H106.05V213.825ZM122.7 212.4H130.35V207.775H122.7V212.4ZM130.35 213.1H128.5V219.275C128.5 221.625 127.9 223.125 123.95 223.375C123.875 222.225 123.775 221.4 123.375 220.875C123.025 220.375 122.55 219.975 121.2 219.725V219.45C121.2 219.45 123.675 219.6 124.2 219.6C124.575 219.6 124.675 219.425 124.675 219.175V213.1H122.7V213.525C122.7 213.825 121.4 214.475 120.025 214.65L124.025 217C123.9 217.225 123.65 217.4 123.05 217.3C121.15 219.175 118.125 221.15 114.725 222.225L114.55 222C116.85 220.025 118.975 216.85 119.925 214.65C119.775 214.675 119.6 214.675 119.45 214.675H118.925V205.575L122.9 207.075H130.1L131.75 205.275L135.15 207.825C135 208.025 134.7 208.275 134.175 208.375V213.525C134.15 213.725 132.3 214.45 131.025 214.45H130.35V213.1ZM129.5 215.45L129.7 215.3C139.725 216.425 137.65 223.55 133.925 221.55C133 219.4 131.1 217.05 129.5 215.45ZM132.9 203.6L134.825 201.1C134.825 201.1 137.025 202.775 138.325 203.9C138.25 204.175 137.975 204.3 137.6 204.3H115.05L114.85 203.6H125.7L125.65 203.575C125.225 202.1 124.1 200.55 123.05 199.625L123.2 199.5C129.425 198.9 129.75 202.5 128.05 203.6H132.9ZM155.775 205.425L160.1 206.4C160.025 206.725 159.725 206.95 159.15 206.975C158.95 207.575 158.725 208.15 158.45 208.675C164.425 210.125 161.9 215.025 159.1 213.05C158.9 211.975 158.4 210.85 157.825 209.875C156.95 211.275 155.875 212.35 154.575 213.15C156.7 215.875 159.975 217.725 163.325 218.525L163.275 218.825C161.95 219.15 160.9 220.3 160.5 222.025C156.65 220.05 154.475 216.875 153.175 211.95V222.125C153.175 222.5 151.575 223.4 150.2 223.4H149.5V216.6C147.025 218.875 143.6 220.925 139.8 222.1L139.625 221.8C143.95 219.45 147.825 214.8 149.5 210.05V204.625H140.175L139.975 203.925H149.5V199.775L154.1 200.225C154.05 200.575 153.875 200.825 153.175 200.925V203.925H157.55L159.525 201.5C159.525 201.5 161.725 203.125 163.075 204.225C163 204.5 162.7 204.625 162.325 204.625H153.175V210.825C153.45 211.45 153.8 212.05 154.175 212.6C155.1 210.65 155.675 208.075 155.775 205.425ZM143.925 205.45L148.125 206.625C148.025 206.95 147.7 207.175 147.15 207.175C146.9 207.8 146.65 208.375 146.375 208.925C150.875 210.5 147.95 214.25 145.7 212.2C145.7 211.625 145.6 211.025 145.45 210.45C144.225 212.275 142.725 213.6 140.95 214.55L140.675 214.35C142.225 212.2 143.5 208.95 143.925 205.45ZM175.25 214.1H178.175V207.625H175.25V214.1ZM179.375 205.375L182.325 207.6C182.175 207.775 181.875 207.975 181.425 208.075V215.825C181.4 216.025 179.85 216.7 178.725 216.7H178.175V214.8H175.25V216.25C175.25 216.55 173.875 217.275 172.55 217.275H172.075V205.625L175.35 206.925H177.925L179.375 205.375ZM169.825 219.725H183.175V202.825H169.825V219.725ZM184.575 200.275L187.775 202.85C187.6 203.075 187.3 203.275 186.8 203.4V221.75C186.75 222.025 185.075 222.825 183.75 222.825H183.175V220.425H169.825V221.675C169.825 222.125 168.375 222.975 166.85 222.975H166.275V200.625L170.1 202.125H182.925L184.575 200.275ZM195.1 206.7V207.925C199.8 210.45 197.425 214.225 195.675 212.4C195.8 211.225 195.5 209.85 195.1 208.75V222.275C195.1 222.6 193.75 223.375 192.575 223.375H191.975V214.4C191.3 215.475 190.55 216.475 189.675 217.4L189.375 217.15C190.65 214.25 191.325 210.35 191.675 206.7H189.825L189.625 206H191.975V199.575L196.025 199.975C195.975 200.325 195.775 200.575 195.1 200.675V205.55L195.975 204.125C195.975 204.125 197.3 205.45 198 206.3C197.95 206.575 197.7 206.7 197.375 206.7H195.1ZM201.75 207.65L201.825 207.625C202.85 208.225 203.45 208.875 203.725 209.45C203.65 208.225 203.6 206.9 203.575 205.525C203.075 206.175 202.45 206.925 201.75 207.65ZM199.725 209.575C200.35 209.525 201.1 209.45 201.85 209.375C201.8 208.825 201.675 208.3 201.55 207.85C200.975 208.475 200.35 209.075 199.725 209.575ZM210.725 208.775C210.625 208.275 210.475 207.825 210.3 207.425C209.825 207.975 209.3 208.475 208.8 208.925C209.4 208.875 210.05 208.825 210.725 208.775ZM213.075 216.05L212.675 220.075C213.55 221.225 213.7 221.825 213.4 222.325C212.575 223.7 210.85 223.1 209.475 222.4C208.6 221.925 207.825 221.325 207.2 220.625C205.35 221.85 203.3 222.65 201.1 223.125L200.95 222.8C202.775 221.925 204.525 220.675 206.025 219.025C205.2 217.6 204.65 215.875 204.275 213.9H202.725C202.65 214.6 202.55 215.3 202.375 216C207.1 216.875 204.65 220.9 202.35 219.125C202.325 218.55 202.175 217.95 201.95 217.4C201.075 219.6 199.35 221.675 195.8 223.25L195.525 222.925C198.925 220.05 199.275 216.85 199.35 213.9H197.425L197.225 213.2H204.15C204.025 212.475 203.925 211.7 203.85 210.925C203.55 211.725 202.6 212.025 201.875 211.175C201.925 210.875 201.925 210.55 201.925 210.225C201.175 210.75 200.2 211.4 199.225 212.025C199.1 212.2 198.95 212.325 198.8 212.4L197.575 209.825C197.575 209.825 198.025 209.725 198.225 209.575C199 208.875 199.9 207.425 200.6 206C200.2 206.3 199.75 206.625 199.3 206.975C199.125 207.3 198.925 207.525 198.675 207.65L197.325 204.75C197.325 204.75 197.8 204.625 198 204.525C198.775 203.775 199.725 201.325 199.975 200.1L203.35 201.55C203.25 201.775 203 201.975 202.525 201.925C201.675 202.9 200.375 204.05 199.225 204.85C199.8 204.825 200.5 204.775 201.175 204.725C201.4 204.225 201.55 203.775 201.675 203.4L203.55 204.475C203.525 203 203.525 201.475 203.525 199.875L207.5 200.3C207.475 200.625 207.25 200.925 206.6 201.05C206.575 202.3 206.55 203.5 206.55 204.65C206.65 204.6 206.725 204.575 206.8 204.525C207.45 203.75 208.175 201.275 208.325 200.025L211.875 201.5C211.775 201.725 211.525 201.9 211.075 201.9C210.3 202.825 209.2 203.9 208.2 204.7C208.6 204.675 209.05 204.65 209.5 204.6C209.675 204.075 209.825 203.575 209.9 203.175L213.05 204.775C212.95 205 212.65 205.175 212.175 205.125C211.7 205.8 211.075 206.575 210.4 207.325L210.575 207.25C214.9 209.25 212.475 212.5 210.9 210.8C210.95 210.425 210.925 210.05 210.9 209.65C210.4 209.975 209.8 210.375 209.175 210.75C212.175 211.675 209.975 214.075 208.5 212.625C208.575 212.225 208.525 211.8 208.425 211.425C208.325 211.55 208.2 211.675 208.05 211.725L206.775 209.1C206.775 209.1 207.225 208.975 207.4 208.85C207.875 208.325 208.425 207.325 208.875 206.225L208.2 206.75C208 207.2 207.725 207.5 207.45 207.625L206.55 205.6C206.55 208.525 206.675 211.075 207.05 213.2H210.15L211.325 211.75C211.325 211.75 212.65 212.75 213.475 213.5C213.425 213.775 213.175 213.9 212.825 213.9H207.2C207.4 214.85 207.65 215.7 208 216.45C208.5 215.65 208.95 214.8 209.325 213.9L212.65 215.825C212.475 216.1 212.2 216.2 211.575 216.075C210.975 217.025 210.3 217.875 209.575 218.65C209.9 218.925 210.25 219.175 210.65 219.4C211.05 219.625 211.2 219.6 211.425 219.2C211.8 218.525 212.425 217.1 212.825 216.025L213.075 216.05ZM227.35 202.4H225.45V204.925H227.35V202.4ZM232.25 205.625H230.475V209.375H232.25V205.625ZM225.45 205.625V209.375H227.35V205.625H225.45ZM220.775 205.625V209.375H222.375V205.625H220.775ZM222.375 202.4H215.325L215.125 201.7H232.825L234.625 199.6C234.625 199.6 236.65 201 237.9 202C237.825 202.275 237.55 202.4 237.175 202.4H230.475V204.925H232L233.575 203.2L236.85 205.65C236.7 205.85 236.4 206.1 235.875 206.2V210.275C235.85 210.475 234.2 211.1 233 211.15C233.625 211.625 234.4 212.225 234.975 212.725C234.925 213 234.65 213.125 234.275 213.125H217.925L217.725 212.425H230.3L231.95 210.35L232.25 210.575V210.075H220.775V210.95C220.775 211.275 219.175 212.025 217.725 212.025H217.225V203.5L221.05 204.925H222.375V202.4ZM214.7 222.55L214.525 222.275C216.775 220.775 218.75 218.25 219.625 216.325L223.55 218.6C223.425 218.825 223.175 218.975 222.6 218.9C220.8 220.525 217.875 221.925 214.7 222.55ZM229.4 217.175L229.575 217C239.025 217.125 237.575 223.85 233.95 222.35C232.95 220.525 230.95 218.45 229.4 217.175ZM232.825 215.5L234.65 213.25C234.65 213.25 236.7 214.75 237.975 215.8C237.9 216.075 237.6 216.2 237.25 216.2H228.275V222.7C228.275 222.825 227.2 223.35 225.325 223.35H224.65V216.2H215.325L215.125 215.5H232.825Z" fill="black"/>
<ellipse cx="61" cy="195.286" rx="20" ry="19.7143" fill="white"/>
<path d="M66.2426 205.2H68.2426V198.4H66.2426V205.2ZM61.0426 198.4V205.2H62.8676V198.4H61.0426ZM55.1676 191.175V195.6C56.0176 195.475 56.9176 195.325 57.7926 195.175V191.175H55.1676ZM62.8676 191.125H61.0426V197.7H62.8676V191.125ZM68.2426 191.125H66.2426V197.7H68.2426V191.125ZM69.5426 188.7L72.6176 191.125C72.4426 191.35 72.1176 191.55 71.6176 191.675V207.125C71.5926 207.375 69.9926 208.075 68.7926 208.075H68.2426V205.9H61.0426V207C61.0426 207.375 59.7426 208.15 58.3176 208.15H57.7926V195.6C57.0926 196.075 56.2426 196.625 55.1676 197.275V204.6C55.1676 206.875 54.7176 208.075 51.3176 208.375C51.2676 207.3 51.1676 206.525 50.8676 206.025C50.5926 205.525 50.1926 205.175 49.1926 204.975V204.625C49.1926 204.625 50.9676 204.75 51.3926 204.75C51.7426 204.75 51.8426 204.65 51.8426 204.4V199.2L50.7176 199.8C50.5926 200.125 50.2926 200.4 49.9676 200.45L48.6926 196.475C49.3676 196.4 50.4926 196.275 51.8426 196.075V191.175H49.0926L48.8926 190.475H51.8426V184.65L56.0676 185.05C56.0426 185.425 55.7926 185.675 55.1676 185.75V190.075L56.2926 188.225C56.2926 188.225 57.0426 188.975 57.7926 189.775V189.05L61.2176 190.425H62.8676V185L67.0426 185.4C67.0176 185.725 66.8426 185.95 66.2426 186.05V190.425H67.9926L69.5426 188.7Z" fill="black"/>
<path d="M66.6 116.42V115.26H63.74V116.42H66.6ZM68.82 113.84V117.84H61.64V113.84H68.82ZM58.2 116.42V115.26H55.4V116.42H58.2ZM60.42 113.84V117.84H53.28V113.84H60.42ZM56.32 124.3H59.7V123.22H56.32V124.3ZM56.32 120.46V121.52H59.7V120.46H56.32ZM65.74 121.52V120.46H62.14V121.52H65.74ZM65.74 124.3V123.22H62.14V124.3H65.74ZM69.92 127.16V129.2H62.14V131.74H59.7V129.2H52.1V127.16H59.7V126.12H54V118.62H68.18V126.12H62.14V127.16H69.92ZM79.74 117.7H81.72C81.28 117.3 80.56 116.72 80.08 116.44C80.3 116.28 80.5 116.1 80.7 115.92H77.78C78.28 116.42 78.78 116.98 79.06 117.36L77.5 118.64H79.74V117.7ZM85.58 120.28H82.16V120.98H85.58V120.28ZM85.58 123.48V122.7H82.16V123.48H85.58ZM90.22 114.14V115.92H86.64C87.12 116.4 87.62 116.94 87.9 117.32L86.16 118.54C85.84 117.98 85.08 117.14 84.48 116.52L85.36 115.92H83.58C83.08 116.6 82.56 117.22 82.04 117.7H82.16V118.64H88.04V120.98H90.1V122.7H88.04V125.14H82.16V125.82H88.46V127.56H82.16V128.28H89.74V130.06H82.16V131.74H79.74V130.06H72.34V128.28H79.74V127.56H73.58V125.82H79.74V125.14H74.14V123.48H79.74V122.7H71.94V120.98H79.74V120.28H74.34V118.64H77.46C77.12 118.08 76.4 117.24 75.8 116.62L76.72 115.92H75.2C74.6 116.74 73.92 117.44 73.24 118C72.9 117.56 72.14 116.76 71.66 116.36C72.84 115.5 74 114.2 74.66 112.88L76.74 113.52C76.64 113.72 76.52 113.94 76.42 114.14H80.78V115.86C81.64 115.04 82.38 113.96 82.82 112.88L84.96 113.44C84.86 113.68 84.76 113.9 84.66 114.14H90.22ZM96.12 113.1L98.32 113.82C97.78 115.2 97.12 116.62 96.34 117.96V131.68H94.08V121.4C93.62 121.98 93.14 122.52 92.68 123.02C92.46 122.44 91.8 121.16 91.4 120.58C93.26 118.78 95.08 115.94 96.12 113.1ZM99.68 125.34L101.82 125.98C101 127.7 99.78 129.64 98.76 130.86C98.34 130.5 97.46 129.86 96.92 129.58C97.92 128.48 99 126.82 99.68 125.34ZM100.98 116.02V118.7H106.84V116.02H100.98ZM110.22 124.72H105.04V131.74H102.64V124.72H97.42V122.56H102.64V120.8H98.72V113.92H109.22V120.8H105.04V122.56H110.22V124.72ZM105.72 126.3L107.48 125.32C108.62 126.64 109.84 128.36 110.42 129.54L108.54 130.68C108 129.5 106.78 127.66 105.72 126.3ZM116.8 126.52V127.36H125.4V126.52H116.8ZM122.08 119.78H119.38C119.16 120.24 118.84 120.66 118.44 121.04H122.08V119.78ZM115.78 117.52L115.64 118.4H117.54C117.62 118.12 117.66 117.82 117.68 117.52H115.78ZM119.86 115.34V116.14H122.08V115.34H119.86ZM126.42 115.34H124.34V116.14H126.42V115.34ZM122.08 118.4V117.52H119.86C119.84 117.82 119.82 118.12 119.78 118.4H122.08ZM127.52 119.78H124.34V121.04H126.12C126.04 120.8 125.96 120.56 125.84 120.38C126.32 120.44 126.74 120.46 126.96 120.44C127.14 120.44 127.26 120.44 127.38 120.32C127.44 120.22 127.5 120.06 127.52 119.78ZM125.4 124.44H116.8V125.26H125.4V124.44ZM125.4 122.38H116.8V123.18H125.4V122.38ZM127.82 128.7H125.62C127.26 129.26 128.88 129.86 129.94 130.34L128.2 131.76C126.92 131.12 124.68 130.16 122.52 129.46L123.28 128.7H118.4L119.86 129.38C118.22 130.36 115.64 131.28 113.6 131.78C113.24 131.32 112.4 130.46 111.88 130.06C113.7 129.76 115.68 129.3 117.1 128.7H114.48V122.76C114.02 122.86 113.52 122.96 113 123.04C112.8 122.52 112.24 121.62 111.86 121.18C114.24 120.88 115.66 120.4 116.52 119.78H113.3C113.52 118.78 113.76 117.32 113.88 116.14H117.7V115.34H113.16V113.94H117.7V113.06H119.86V113.94H122.08V113.06H124.34V113.94H128.58V117.52H124.34V118.4H129.86C129.86 118.4 129.84 118.78 129.84 119.02C129.74 120.26 129.62 120.96 129.28 121.32C129 121.64 128.58 121.78 128.14 121.8C128.06 121.8 127.94 121.82 127.82 121.82V128.7ZM134.1 131.52L131.96 130.3C132.7 128.76 133.76 126.22 134.54 123.88L136.46 125.12C135.8 127.26 134.92 129.56 134.1 131.52ZM136.12 120.28L134.74 122.2C134.08 121.58 132.72 120.78 131.62 120.28L132.92 118.54C134.02 118.96 135.44 119.66 136.12 120.28ZM141.68 116.54V117.68H145.1V116.54H141.68ZM147.72 122.6H144.36V127.88C145 127.16 145.28 126.16 145.36 125.2H145.78L145.74 124.72H144.82V123.26H146.8C146.86 125.14 147.12 126.7 147.72 127.66V122.6ZM139.54 123.26H141.52C141.56 125 141.78 126.5 142.28 127.46V122.6H139.04V128.12C139.72 127.34 139.98 126.24 140.06 125.2H140.48L140.44 124.72H139.54V123.26ZM147.42 119.66H144.36V120.62H149.8V129.7C149.8 130.64 149.64 131.08 149.04 131.38C148.46 131.68 147.64 131.7 146.48 131.7C146.42 131.16 146.18 130.44 145.96 129.96C146.58 129.98 147.24 129.98 147.44 129.96C147.64 129.96 147.72 129.9 147.72 129.7V128.38C147.46 128.6 147.2 128.86 147.06 129.06C146.68 128.62 146.38 128.02 146.18 127.32C145.92 128.02 145.52 128.64 144.94 129.12C144.82 128.92 144.6 128.64 144.36 128.42V131.6H142.28V128.48C142.06 128.68 141.84 128.9 141.72 129.08C141.36 128.64 141.1 128.08 140.88 127.42C140.64 128.16 140.24 128.82 139.68 129.32C139.54 129.1 139.28 128.8 139.04 128.58V131.7H137.02V120.62H142.28V119.66H139.46V116.54H136.74V115.28L135.48 117C134.84 116.36 133.48 115.48 132.38 114.98L133.72 113.22C134.74 113.66 136.02 114.38 136.74 114.96V114.48H139.46V113.06H141.68V114.48H145.1V113.06H147.42V114.48H150.16V116.54H147.42V119.66Z" fill="black"/>
<path d="M49.2068 256.152C47.7348 253.752 46.8548 251.176 46.8548 248.024C46.8548 244.888 47.7348 242.296 49.2068 239.912L50.1188 240.328C48.7268 242.616 48.0708 245.304 48.0708 248.024C48.0708 250.744 48.7268 253.448 50.1188 255.72L49.2068 256.152ZM61.6211 242.28V241.336H59.8611V242.28H61.6211ZM64.3731 243.064H62.6131V244.6H64.3731V243.064ZM59.8611 243.064V244.6H61.6211V243.064H59.8611ZM57.1731 243.064V244.6H58.8851V243.064H57.1731ZM58.8851 242.28V241.336H55.7651V240.424H65.9411V241.336H62.6131V242.28H65.4451V245.368H56.1331V242.28H58.8851ZM57.5731 250.184V251.128H64.1171V250.184H57.5731ZM57.5731 248.536V249.448H64.1171V248.536H57.5731ZM57.5731 246.904V247.8H64.1171V246.904H57.5731ZM65.2691 251.88H56.4691V246.136H65.2691V251.88ZM54.5491 239.704L55.6531 240.008C55.3011 241.064 54.8851 242.12 54.4051 243.128V254.216H53.2691V245.256C52.7891 246.056 52.2931 246.776 51.7651 247.4C51.6531 247.112 51.3331 246.488 51.1411 246.2C52.5171 244.6 53.7811 242.168 54.5491 239.704ZM59.0131 251.992L59.8771 252.584C58.9011 253.272 57.3331 253.896 55.9251 254.232C55.7651 254.008 55.4771 253.64 55.2531 253.432C56.6451 253.128 58.1811 252.52 59.0131 251.992ZM61.6211 252.68L62.3891 252.008C63.7811 252.488 65.3171 253.096 66.2291 253.56L65.2211 254.264C64.4051 253.784 62.9971 253.16 61.6211 252.68ZM71.0451 239.64L72.1171 239.976C71.6851 241.224 71.1251 242.472 70.4851 243.624V254.216H69.3811V245.4C68.9491 246.04 68.4851 246.616 68.0211 247.144C67.9091 246.872 67.5571 246.264 67.3651 245.976C68.8371 244.424 70.2131 242.056 71.0451 239.64ZM73.9891 251.416V252.728H79.5411V251.416H73.9891ZM79.5411 244.712H73.9891V246.056H79.5411V244.712ZM79.5411 248.296V246.936H73.9891V248.296H79.5411ZM73.9891 249.16V250.536H79.5411V249.16H73.9891ZM80.6451 252.728H82.0691V253.752H71.3971V252.728H72.9171V243.784H75.6691C75.7651 243.352 75.8611 242.824 75.9731 242.296H72.0691V241.256H76.1491C76.2291 240.68 76.3091 240.104 76.3571 239.624L77.6211 239.704C77.5251 240.184 77.4291 240.728 77.3171 241.256H81.5891V242.296H77.1091C76.9811 242.824 76.8691 243.352 76.7411 243.784H80.6451V252.728ZM83.4931 253V252.136C87.1731 248.92 88.8691 246.584 88.8691 244.568C88.8691 243.224 88.1651 242.248 86.7091 242.248C85.7491 242.248 84.9171 242.84 84.2771 243.608L83.4291 242.776C84.3891 241.736 85.3971 241.048 86.8851 241.048C88.9811 241.048 90.2931 242.424 90.2931 244.52C90.2931 246.856 88.4531 249.24 85.7011 251.848C86.3091 251.8 87.0291 251.736 87.6211 251.736H90.8691V253H83.4931ZM96.1121 253.208C93.8721 253.208 92.4481 251.176 92.4481 247.096C92.4481 243.016 93.8721 241.048 96.1121 241.048C98.3361 241.048 99.7601 243.032 99.7601 247.096C99.7601 251.176 98.3361 253.208 96.1121 253.208ZM96.1121 252.04C97.4401 252.04 98.3361 250.552 98.3361 247.096C98.3361 243.672 97.4401 242.232 96.1121 242.232C94.7681 242.232 93.8721 243.672 93.8721 247.096C93.8721 250.552 94.7681 252.04 96.1121 252.04ZM101.739 256.04L101.387 255.176C102.379 254.744 102.971 253.976 102.987 253C102.923 253.016 102.875 253.016 102.811 253.016C102.251 253.016 101.739 252.664 101.739 251.992C101.739 251.368 102.251 250.968 102.843 250.968C103.611 250.968 104.075 251.624 104.075 252.696C104.075 254.232 103.179 255.432 101.739 256.04ZM109.44 253.208C107.2 253.208 105.776 251.176 105.776 247.096C105.776 243.016 107.2 241.048 109.44 241.048C111.664 241.048 113.088 243.032 113.088 247.096C113.088 251.176 111.664 253.208 109.44 253.208ZM109.44 252.04C110.768 252.04 111.664 250.552 111.664 247.096C111.664 243.672 110.768 242.232 109.44 242.232C108.096 242.232 107.2 243.672 107.2 247.096C107.2 250.552 108.096 252.04 109.44 252.04ZM118.315 253.208C116.075 253.208 114.651 251.176 114.651 247.096C114.651 243.016 116.075 241.048 118.315 241.048C120.539 241.048 121.963 243.032 121.963 247.096C121.963 251.176 120.539 253.208 118.315 253.208ZM118.315 252.04C119.643 252.04 120.539 250.552 120.539 247.096C120.539 243.672 119.643 242.232 118.315 242.232C116.971 242.232 116.075 243.672 116.075 247.096C116.075 250.552 116.971 252.04 118.315 252.04ZM127.19 253.208C124.95 253.208 123.526 251.176 123.526 247.096C123.526 243.016 124.95 241.048 127.19 241.048C129.414 241.048 130.838 243.032 130.838 247.096C130.838 251.176 129.414 253.208 127.19 253.208ZM127.19 252.04C128.518 252.04 129.414 250.552 129.414 247.096C129.414 243.672 128.518 242.232 127.19 242.232C125.846 242.232 124.95 243.672 124.95 247.096C124.95 250.552 125.846 252.04 127.19 252.04ZM145.297 240.872V242.008H134.033V240.872H145.297ZM142.897 252.808H144.961C145.601 252.808 145.697 252.392 145.777 249.944C146.049 250.168 146.561 250.376 146.881 250.472C146.753 253.192 146.433 253.944 145.041 253.944H142.753C141.329 253.944 140.945 253.528 140.945 252.168V246.472H137.953C137.649 249.896 136.881 252.696 133.201 254.184C133.057 253.896 132.721 253.464 132.449 253.256C135.857 251.96 136.449 249.464 136.689 246.472H132.641V245.32H146.641V246.472H142.145V252.152C142.145 252.696 142.273 252.808 142.897 252.808ZM152.609 241.768L151.553 242.152C151.393 241.56 151.009 240.648 150.689 239.96L151.697 239.608C152.065 240.296 152.449 241.176 152.609 241.768ZM151.297 245.448H154.209C154.209 245.448 154.209 245.816 154.193 245.992C154.065 251.224 153.937 252.968 153.553 253.512C153.313 253.848 153.025 253.976 152.641 254.008C152.289 254.056 151.729 254.056 151.153 254.024C151.137 253.704 151.025 253.256 150.849 252.968C151.425 253.016 151.921 253.032 152.161 253.032C152.353 253.032 152.481 253 152.609 252.808C152.849 252.456 152.993 250.904 153.105 246.536H151.297C151.233 249.016 150.833 251.784 149.025 254.184C148.849 253.96 148.449 253.672 148.177 253.512C150.001 251.048 150.209 248.136 150.209 245.816V243.384H148.497V242.264H154.673V243.384H151.297V245.448ZM162.705 242.824H156.705C156.257 243.736 155.713 244.552 155.153 245.192C154.945 245.016 154.481 244.648 154.209 244.472C155.345 243.304 156.209 241.496 156.673 239.608L157.825 239.816C157.649 240.488 157.425 241.128 157.185 241.736H162.705V242.824ZM161.857 246.056L162.721 246.792C161.985 247.512 161.025 248.296 160.225 248.856C160.833 250.68 161.713 252.168 162.929 253.016C162.657 253.224 162.289 253.656 162.113 253.976C159.985 252.376 158.913 249.192 158.369 245.4C157.889 245.528 157.393 245.64 156.913 245.752V252.28L159.313 251.224C159.329 251.544 159.409 252.024 159.489 252.28C156.561 253.64 156.113 253.848 155.841 254.12C155.729 253.864 155.409 253.416 155.233 253.224C155.457 253.032 155.777 252.648 155.777 251.912V245.016C157.825 244.584 160.145 243.928 161.441 243.288L162.401 244.12C161.537 244.488 160.481 244.84 159.377 245.144C159.521 246.072 159.681 246.984 159.921 247.848C160.609 247.288 161.361 246.616 161.857 246.056ZM176.721 248.136V250.824C176.721 251.352 176.625 251.656 176.209 251.816C175.841 251.992 175.249 252.008 174.353 252.008C174.305 251.72 174.145 251.304 173.985 251.016C174.657 251.032 175.249 251.032 175.441 251.016C175.633 251.016 175.681 250.968 175.681 250.808V248.136H173.489V247.144H175.681V245.784C176.097 245.496 176.545 245.096 176.929 244.696H174.033V243.768H177.777L177.969 243.704L178.641 244.2C178.113 244.872 177.393 245.544 176.721 246.072V247.144H178.849V248.136H176.721ZM172.017 245.48H170.513C170.481 247.496 170.161 249.944 168.561 251.752C168.385 251.544 168.049 251.224 167.809 251.064C169.329 249.32 169.505 246.936 169.505 245.112V242.792H167.985V241.784H170.513C170.321 241.24 170.049 240.552 169.825 239.992L170.865 239.784C171.185 240.424 171.521 241.224 171.697 241.784H173.425V242.664C173.953 241.768 174.369 240.664 174.625 239.56L175.665 239.816C175.521 240.328 175.361 240.856 175.185 241.352H178.769V242.376H174.737C174.433 243.032 174.097 243.608 173.729 244.104C173.553 243.928 173.121 243.592 172.881 243.448C173.041 243.256 173.201 243.032 173.345 242.792H170.513V244.488H173.073C173.073 244.488 173.057 244.84 173.057 244.984C172.945 249.528 172.833 251.064 172.497 251.544C172.257 251.832 172.017 251.96 171.665 251.992C171.345 252.024 170.849 252.024 170.353 252.008C170.337 251.704 170.225 251.288 170.081 251.016C170.577 251.064 170.993 251.064 171.201 251.064C171.377 251.064 171.489 251.048 171.585 250.872C171.809 250.568 171.921 249.24 172.017 245.48ZM166.945 242.296L165.985 242.632C165.809 241.944 165.457 240.84 165.201 240.008L166.145 239.752C166.417 240.584 166.769 241.624 166.945 242.296ZM167.297 247.032L167.793 247.24C167.553 248.648 167.121 250.264 166.609 251.48C166.913 251.64 167.281 251.944 167.873 252.296C169.025 252.968 170.513 253.08 172.433 253.08C174.561 253.08 177.169 252.936 178.993 252.76C178.865 253.048 178.689 253.608 178.673 253.928C177.457 254.008 174.337 254.12 172.385 254.12C170.273 254.12 168.849 253.96 167.617 253.24C166.977 252.856 166.369 252.312 166.001 252.312C165.713 252.312 165.265 253.32 164.913 254.312L164.113 253.288C164.657 252.408 165.185 251.688 165.649 251.416C166.049 250.504 166.401 249.24 166.625 248.12H164.833C165.201 247.176 165.665 245.816 166.017 244.552H164.417V243.48H167.361C167.009 244.632 166.593 245.976 166.209 247.08H167.121L167.297 247.032ZM194.929 244.296L193.841 245C192.817 243.72 190.577 241.768 188.721 240.424L189.697 239.832C191.537 241.112 193.793 243 194.929 244.296ZM185.169 239.816L186.401 240.232C185.153 242.2 183.105 243.864 181.169 244.936C180.945 244.696 180.465 244.232 180.145 244.04C182.177 243.096 184.097 241.56 185.169 239.816ZM184.641 244.584V247.544H190.609V244.584H184.641ZM190.305 252.904H192.705C193.313 252.904 193.425 252.648 193.473 251.016C193.745 251.192 194.225 251.368 194.561 251.448C194.417 253.464 194.065 253.992 192.801 253.992H190.193C188.689 253.992 188.305 253.64 188.305 252.392V248.632H186.737C186.369 251.544 185.377 253.384 181.489 254.344C181.393 254.04 181.089 253.576 180.849 253.352C184.385 252.552 185.217 251.048 185.521 248.632H183.409V243.496H191.889V248.632H189.473V252.376C189.473 252.824 189.601 252.904 190.305 252.904ZM201.073 247.544L199.377 248.168V252.728C199.377 253.4 199.233 253.72 198.849 253.928C198.481 254.136 197.873 254.184 196.929 254.184C196.881 253.848 196.721 253.352 196.577 253C197.217 253.016 197.793 253.016 197.969 253.016C198.177 253.016 198.241 252.952 198.241 252.744V248.584C197.617 248.808 197.041 249.016 196.497 249.192L196.193 248.056C196.769 247.88 197.473 247.64 198.241 247.384V243.928H196.353V242.824H198.241V239.624H199.377V242.824H200.993V243.928H199.377V247L200.881 246.472L201.073 247.544ZM203.249 249.432H205.233C205.345 248.952 205.425 248.424 205.473 247.848H206.625C206.577 248.408 206.497 248.952 206.401 249.432H208.849V244.392H206.065L206.817 244.584C206.705 244.856 206.561 245.144 206.401 245.416C207.281 245.944 208.273 246.648 208.785 247.16L208.209 247.816C207.729 247.32 206.817 246.632 205.969 246.104C205.457 246.808 204.849 247.416 204.241 247.88C204.081 247.72 203.681 247.432 203.473 247.32C204.497 246.616 205.377 245.576 205.873 244.392H203.249V249.432ZM206.705 241.816H204.289C203.985 242.36 203.617 242.888 203.217 243.4H205.761C206.081 242.968 206.433 242.36 206.705 241.816ZM210.897 250.408H206.129C205.505 252.312 204.145 253.56 201.041 254.248C200.945 253.976 200.657 253.56 200.449 253.32C203.137 252.776 204.353 251.848 204.945 250.408H200.913V249.432H202.257V244.472C202.113 244.616 201.953 244.76 201.809 244.888C201.665 244.664 201.313 244.28 201.089 244.12C202.641 242.808 203.649 241.032 204.177 239.624L205.281 239.784C205.153 240.136 204.993 240.472 204.817 240.84H207.265L207.441 240.792L208.145 241.256C207.825 241.96 207.361 242.744 206.913 243.4H209.873V249.432H210.897V250.408ZM206.497 251.24L207.217 250.616C208.465 251.48 210.145 252.744 210.993 253.512L210.225 254.264C209.393 253.48 207.745 252.152 206.497 251.24ZM215.745 248.104H223.153C222.417 247.544 221.777 246.888 221.281 246.184H217.697C217.137 246.872 216.497 247.512 215.745 248.104ZM226.609 246.184H222.625C223.713 247.384 225.377 248.36 227.137 248.824C226.865 249.048 226.545 249.512 226.369 249.816C225.489 249.544 224.641 249.112 223.857 248.616V248.632C223.649 251.864 223.425 253.128 222.977 253.592C222.689 253.912 222.385 254.008 221.921 254.056C221.473 254.088 220.641 254.088 219.777 254.024C219.761 253.688 219.617 253.224 219.425 252.904C220.273 253 221.089 253 221.393 253C221.681 253 221.841 252.968 221.985 252.84C222.273 252.552 222.465 251.576 222.641 249.192H218.769C218.337 251.576 217.249 253.288 213.873 254.216C213.745 253.912 213.441 253.448 213.185 253.208C216.209 252.472 217.153 251.096 217.553 249.192H215.073V248.616C214.417 249.048 213.729 249.448 212.961 249.8C212.849 249.512 212.481 249.048 212.209 248.824C213.809 248.136 215.105 247.208 216.113 246.184H212.673V245.112H217.041C217.457 244.584 217.793 244.04 218.097 243.48H213.649V242.424H216.305C216.049 241.88 215.505 241.048 215.009 240.456L215.953 239.976C216.481 240.584 217.073 241.416 217.345 241.976L216.481 242.424H218.577C218.961 241.48 219.201 240.504 219.329 239.576L220.577 239.704C220.417 240.616 220.177 241.528 219.857 242.424H221.761C222.289 241.752 222.945 240.728 223.297 240.024L224.385 240.392C223.953 241.096 223.441 241.832 222.945 242.424H225.521V243.48H219.409C219.137 244.04 218.849 244.584 218.481 245.112H226.609V246.184ZM234.305 249.992L233.953 249.144C235.185 248.632 235.889 247.88 235.969 246.792C235.873 246.808 235.793 246.808 235.697 246.808C235.041 246.808 234.497 246.424 234.497 245.672C234.497 244.92 235.057 244.52 235.713 244.52C236.593 244.52 237.073 245.24 237.073 246.36C237.073 248.088 235.985 249.4 234.305 249.992ZM127.231 271.536L127.391 272.608L125.439 273.216V277.856C125.439 278.512 125.279 278.832 124.863 279.024C124.463 279.2 123.823 279.232 122.767 279.232C122.719 278.928 122.559 278.464 122.399 278.144C123.119 278.16 123.791 278.16 123.983 278.16C124.207 278.16 124.287 278.08 124.287 277.856V273.568L122.191 274.224L121.871 273.072C122.543 272.896 123.375 272.656 124.287 272.384V268.928H122.079V267.824H124.287V264.624H125.439V267.824H127.215V268.928H125.439V272.08C126.031 271.904 126.623 271.712 127.231 271.536ZM132.559 276.912H135.199V273.648H132.559V276.912ZM128.911 273.648V276.912H131.423V273.648H128.911ZM131.423 269.408H128.911V272.528H131.423V269.408ZM135.199 269.408H132.559V272.528H135.199V269.408ZM132.559 268.272H136.367V279.072H135.199V278.048H128.911V279.184H127.775V268.272H131.423V264.64H132.559V268.272ZM141.535 278.208C139.711 278.208 138.591 277.44 137.807 276.656L138.527 275.696C139.199 276.368 140.047 276.992 141.407 276.992C142.783 276.992 143.903 275.936 143.903 274.224C143.903 272.544 142.943 271.552 141.471 271.552C140.687 271.552 140.191 271.792 139.519 272.24L138.735 271.76L139.103 266.272H144.815V267.52H140.383L140.095 270.912C140.607 270.624 141.135 270.448 141.839 270.448C143.791 270.448 145.375 271.6 145.375 274.176C145.375 276.752 143.519 278.208 141.535 278.208ZM151.466 277.296H158.57V273.664H151.466V277.296ZM157.946 267.296H152.026C151.69 267.632 151.322 267.936 150.954 268.256C152.042 269.024 153.386 270.032 154.17 270.784C155.706 269.824 157.034 268.64 157.946 267.296ZM159.786 272.56V279.216H158.57V278.384H151.466V279.216H150.298V273.952C149.418 274.256 148.522 274.512 147.642 274.72C147.546 274.4 147.274 273.888 147.034 273.632C149.066 273.216 151.178 272.464 153.066 271.44C152.298 270.672 151.082 269.712 150.026 268.928C149.466 269.312 148.874 269.68 148.234 270C148.058 269.728 147.674 269.28 147.418 269.104C149.994 267.856 151.802 266.08 152.762 264.56L154.09 264.848C153.786 265.296 153.45 265.76 153.05 266.208H158.714L158.906 266.144L159.706 266.64C158.394 269.184 156.09 271.152 153.434 272.56H159.786ZM163.818 281.152L162.922 280.72C164.298 278.448 164.97 275.744 164.97 273.024C164.97 270.304 164.298 267.616 162.922 265.328L163.818 264.912C165.306 267.296 166.186 269.888 166.186 273.024C166.186 276.176 165.306 278.752 163.818 281.152Z" fill="black"/>
<path d="M234.093 114.497V116.797H219.893V114.497H234.093ZM231.433 129.217H233.233C233.893 129.217 234.013 128.697 234.113 125.817C234.633 126.237 235.653 126.657 236.313 126.817C236.073 130.397 235.473 131.437 233.433 131.437H231.033C228.773 131.437 228.193 130.677 228.193 128.337V122.217H225.193C224.833 126.377 223.913 129.797 219.133 131.737C218.853 131.137 218.193 130.257 217.653 129.797C221.813 128.237 222.373 125.537 222.613 122.217H218.093V119.897H235.933V122.217H230.653V128.337C230.653 129.097 230.773 129.217 231.433 129.217Z" fill="black"/>
<path d="M161.462 113.31L161.042 119.01C162.332 118.62 163.652 118.47 165.092 118.47C170.162 118.47 173.282 120.93 173.282 125.37C173.282 129.99 169.562 132.51 164.462 132.51C160.262 132.51 157.712 130.44 157.472 127.17C157.832 126.27 158.612 125.82 159.422 125.82C160.652 125.82 161.342 126.48 161.552 128.25L161.972 131.22C162.452 131.4 162.932 131.46 163.622 131.46C166.322 131.46 168.152 129.39 168.152 125.61C168.152 122.13 166.382 120.15 163.622 120.15C162.482 120.15 161.462 120.3 160.412 120.66L159.542 120.03L160.262 109.59H172.472V113.31H161.462ZM180.254 120.75C180.254 129.21 181.724 131.46 183.494 131.46C185.264 131.46 186.794 129.18 186.794 120.75C186.794 112.38 185.264 110.13 183.494 110.13C181.724 110.13 180.254 112.35 180.254 120.75ZM183.494 109.08C187.634 109.08 191.324 112.62 191.324 120.75C191.324 128.94 187.634 132.51 183.494 132.51C179.324 132.51 175.694 128.94 175.694 120.75C175.694 112.62 179.324 109.08 183.494 109.08ZM198.506 120.75C198.506 129.21 199.976 131.46 201.746 131.46C203.516 131.46 205.046 129.18 205.046 120.75C205.046 112.38 203.516 110.13 201.746 110.13C199.976 110.13 198.506 112.35 198.506 120.75ZM201.746 109.08C205.886 109.08 209.576 112.62 209.576 120.75C209.576 128.94 205.886 132.51 201.746 132.51C197.576 132.51 193.946 128.94 193.946 120.75C193.946 112.62 197.576 109.08 201.746 109.08Z" fill="black"/>
<g clip-path="url(#clip0_747_3418)">
<path d="M328.912 78.0228C328.912 78.0228 323.912 73.6962 320.848 73.6125C317.79 73.5296 311.315 72.3527 311.315 72.3527L318.713 60.882C318.713 60.882 317.01 59.4515 314.493 60.886C311.975 62.3205 302.457 62.9583 302.457 62.9583L297.949 68.1895L296.883 70.8143L288.638 66.4624L286.52 64.1215C286.52 64.1215 285.006 63.4919 288.616 62.9507C292.232 62.4104 299.921 61.1985 299.921 61.1985L329.613 55.0752C329.613 55.0752 340.048 53.4661 340.671 48.7572C341.295 44.0482 335.456 44.6336 333.943 44.4132C332.431 44.1871 319.023 43.5373 319.023 43.5373L283.316 45.5988L267.531 46.1458L250.351 46.8707C250.351 46.8707 244.431 42.3338 239.933 41.3274C235.434 40.321 211.695 27.0842 211.695 27.0842C211.695 27.0842 194.177 20.4121 190.735 20.4259C187.292 20.4397 175.656 16.3632 171.026 16.9323C166.396 17.5014 163.371 20.1371 164.113 23.3962C164.854 26.6553 172.837 36.0364 179.611 41.8507C186.38 47.6641 188.442 52.6638 193.192 54.2503C197.942 55.8368 206.372 61.807 206.372 61.807L199.51 68.7281C199.51 68.7281 195.077 68.6131 194.499 71.2954C193.92 73.9777 193.007 76.8103 193.007 76.8103C193.007 76.8103 182.844 85.6449 180.311 88.4194C177.779 91.194 177.142 96.7822 178.95 97.3014C180.758 97.8205 196.162 91.9612 199.199 91.3149C202.237 90.6631 233.822 74.0744 233.822 74.0744C233.822 74.0744 264.036 81.0336 270.091 82.538C276.147 84.0424 294.037 83.5416 294.952 83.3362C295.871 83.1372 299.922 80.5091 299.922 80.5091C299.922 80.5091 300.501 81.8191 305.865 81.8867C311.228 81.9543 323.49 79.3866 323.49 79.3866L328.912 78.0228Z" fill="#FBFBFB"/>
<path d="M243.992 55.2112C250.254 52.922 256.748 51.907 263.346 51.1153C264.193 51.0147 264.188 49.689 263.315 49.774C256.585 50.4073 249.962 51.5869 243.625 53.9913C242.87 54.2845 243.221 55.4963 243.992 55.2112Z" fill="black"/>
<path d="M204.603 62.2039C203.426 62.732 202.38 63.6778 201.406 64.4617C200.049 65.5556 198.614 66.6665 197.578 68.0803C197.461 68.241 197.428 68.4146 197.449 68.5791C197.372 68.596 197.3 68.6138 197.221 68.6363C197.169 68.6398 197.124 68.6329 197.075 68.6485C196.537 68.8079 196.056 69.0453 195.607 69.3394C195.595 69.3433 195.582 69.3528 195.575 69.3576C195.557 69.3662 195.555 69.3775 195.536 69.3862C194.442 70.1229 193.619 71.2007 193.022 72.417C192.854 72.7656 192.866 73.2513 193.189 73.5141C193.425 73.7058 193.668 73.8525 193.914 73.9823C188.283 79.3869 181.182 83.9497 177.779 91.1995C175.979 95.0311 177.6 97.9354 181.754 97.8751C188.452 97.7844 196.342 93.3136 202.237 90.6686C213.11 85.7854 223.683 80.3433 233.822 74.0743C241.713 76.5572 249.733 78.6508 257.74 80.6098C270.981 83.8552 285.058 86.3474 298.403 82.4767C298.475 82.459 298.517 82.4135 298.573 82.3875C300.81 83.6062 303.092 84.2382 305.085 83.5472C312.845 80.8654 321.23 81.1773 328.9 78.0266C329.504 77.7793 329.887 77.0891 329.49 76.4752C326.419 71.7299 319.813 71.6332 314.751 71.6291C314.03 71.628 313.304 71.655 312.585 71.6773C314.762 68.1339 317.601 64.9744 318.701 60.8858C318.864 60.277 318.347 59.5467 317.679 59.6114C313.455 60.0124 307.672 60.6468 303.012 62.6918C303.332 62.3376 303.43 61.7362 303.056 61.3159C302.888 61.1289 302.714 60.9467 302.546 60.7597C319.822 57.8315 344.805 52.709 343.085 47.5139C342.88 46.8949 341.961 46.7137 341.563 47.1597C338.612 42.4269 331.613 42.5177 326.688 42.5232C317.422 42.5314 308.201 44.1654 298.954 44.62C288.479 45.1342 278.03 46.2285 267.53 46.1513C261.77 46.1094 255.995 46.1285 250.35 46.8762C250.369 46.6372 250.299 46.3844 250.085 46.1558C247.06 42.9613 242.942 41.2011 238.971 39.4689C233.268 36.9816 228.029 34.1045 222.559 31.1518C211.615 25.2397 200.144 22.2369 188.274 18.8561C182.588 17.2356 171.62 12.4202 166.39 17.5061C161.403 22.3585 165.585 29.1579 168.947 33.6598C177.992 45.7501 190.947 55.1158 204.603 62.2039ZM197.128 70.6037C197.2 70.5859 197.264 70.5785 197.336 70.5608C197.326 70.8184 197.413 71.0738 197.643 71.2703C197.714 71.3331 197.809 71.3937 197.886 71.4517C197.21 72.2524 196.071 72.8614 195.05 72.5204C195.563 71.6947 196.234 71.0083 197.128 70.6037ZM191.336 80.408C191.073 80.6501 190.796 80.838 190.501 80.9944C190.722 80.7978 190.942 80.6012 191.157 80.4037C191.22 80.4076 191.278 80.405 191.336 80.408ZM191.907 81.9128C193.4 84.4864 197.377 85.1652 198.773 87.8851C195.794 86.4549 193.113 84.7072 190.666 82.5175C191.11 82.3723 191.521 82.1705 191.907 81.9128ZM197.057 74.1877C197.976 73.8792 198.818 73.2824 199.47 72.4951C203.637 74.8737 210.608 77.181 210.805 81.7681C205.671 80.5029 201.215 78.0569 196.766 75.3355C196.826 75.2814 196.886 75.2273 196.947 75.1731C197.25 74.8856 197.235 74.4972 197.057 74.1877ZM184.665 95.1932C179.955 96.5797 178.408 94.0612 180.638 89.9039C180.833 89.951 181.046 89.9146 181.232 89.724C183.551 87.3202 185.986 85.0665 188.445 82.8453C188.59 82.8444 188.728 82.8426 188.868 82.8353C191.792 85.7146 194.964 87.9925 198.67 89.8395C195.956 91.0078 193.237 92.1406 190.489 93.1998C188.575 93.9376 186.635 94.6138 184.665 95.1932ZM201.043 88.815C200.732 86.9295 199.596 85.4881 198.158 84.1787C196.811 82.9468 195.057 81.399 193.401 80.4885C193.768 79.9801 193.603 79.3614 192.995 79.1473C192.88 79.1066 192.779 79.091 192.668 79.0569C193.645 78.1812 194.618 77.2934 195.586 76.4048C200.307 79.911 205.745 82.4672 211.448 83.8656C211.465 83.8682 211.483 83.8652 211.505 83.8686C208.054 85.5978 204.567 87.2525 201.043 88.815ZM212.498 83.3813C212.531 83.3172 212.574 83.2605 212.591 83.1882C214.139 76.6624 205.39 73.5294 200.391 70.6259C200.481 70.0059 200.363 69.3829 199.846 68.9466C199.744 68.8617 199.627 68.7977 199.515 68.7345C200.595 67.8631 201.575 66.8611 202.629 65.9685C203.777 64.9923 205.043 64.1898 206.205 63.2388C206.258 63.195 206.295 63.1431 206.332 63.0911C210.812 65.3449 215.352 67.3601 219.847 69.1437C223.459 70.5789 227.128 71.8787 230.826 73.0966C224.862 76.7564 218.751 80.2037 212.498 83.3813ZM260.247 79.0125C256.474 78.1747 252.717 77.2244 248.967 76.2347C249.483 75.9566 249.688 75.1413 249.178 74.7405C248.237 73.9913 246.942 74.2306 245.931 73.5918C245.053 73.0365 244.048 74.3919 244.853 75.0567C244.898 75.0983 244.961 75.1368 245.014 75.1736C241.743 74.2573 238.49 73.2978 235.257 72.2837C235.086 71.5547 234.29 70.9487 233.465 71.4676C233.383 71.5183 233.3 71.5689 233.217 71.6196C231.456 71.0559 229.695 70.4978 227.944 69.9068C208.486 63.3118 190.801 53.1693 176.241 38.609C173.633 36.0028 168.13 30.5908 166.627 25.5962C168.352 25.5321 170.066 24.4758 171.187 23.265C172.106 22.2767 172.682 21.0457 173.031 19.7455C182.638 27.4572 193.635 33.0661 204.456 38.8786C215.394 44.7551 225.639 52.0692 237.723 55.3274C238.245 56.4443 238.882 57.5213 239.645 58.681C239.734 58.8157 239.845 58.8845 239.965 58.9316C239.994 59.0801 240.076 59.2195 240.24 59.3195C249.707 65.2643 259.824 68.7451 270.974 67.7467C271.94 70.9308 277.242 72.2679 279.981 73.4193C284.53 75.3323 289.177 76.9895 293.727 78.9025C294.461 79.5392 295.237 80.1594 296.032 80.7364C284.186 83.7192 272.031 81.6369 260.247 79.0125ZM277.449 63.1628C277.406 63.1793 277.369 63.191 277.326 63.2074C275.073 61.8307 272.782 60.2813 271.175 59.1248C273.909 58.6912 274.718 56.3093 274.134 54.1746C279.19 56.7759 283.465 61.6885 286.651 66.0194C286.596 66.0744 286.553 66.1312 286.513 66.2C286.502 66.1636 286.496 66.1281 286.484 66.0918C286.206 65.3463 285.125 65.3132 284.908 66.1268C284.629 67.1612 281.67 65.7859 278.384 63.8419C278.349 63.3873 277.986 62.9687 277.449 63.1628ZM269.637 52.5923C269.811 52.6247 269.991 52.6524 270.164 52.6961C273.855 53.9937 273.483 55.5957 269.047 57.4965C268.979 57.4515 268.914 57.4186 268.848 57.4026C266.498 56.2762 267.953 53.521 269.637 52.5923ZM286.694 67.3222C287.928 68.2718 289.271 69.1863 290.668 70.0515C289.012 69.521 287.39 68.9153 285.798 68.2333C286.29 68.1072 286.632 67.837 286.694 67.3222ZM280.16 66.8678C280.176 66.876 280.208 66.8925 280.224 66.9007C280.28 66.9842 280.35 67.0583 280.456 67.1206C283.697 69.0231 287.081 70.5961 290.632 71.8318C291.437 72.1108 291.867 71.1513 291.525 70.563C293.181 71.5428 294.892 72.433 296.589 73.1886C294.689 73.3812 292.794 73.5401 290.889 73.6168C290.633 73.6294 290.446 73.7217 290.289 73.8416C289.866 73.7421 289.456 74.1172 289.46 74.5441C287.704 73.9119 285.943 73.3079 284.254 72.6515C282.135 71.8312 274.007 69.4215 272.52 67.5978C272.544 67.5957 272.573 67.5943 272.596 67.5922C273.444 67.4859 273.443 66.1723 272.591 66.2318C274.029 65.8877 275.444 65.4363 276.844 64.9597C277.959 65.6318 279.068 66.2684 280.16 66.8678ZM326.893 76.5494C321.445 78.5371 315.732 79.1995 310.027 80.2317C306.316 80.9015 303.573 82.3417 299.939 80.5172C299.392 80.2433 298.866 79.9438 298.34 79.65C298.576 79.1676 298.503 78.5515 297.876 78.1962C297.59 78.0313 297.289 77.8816 296.995 77.7271C304.562 78.0345 312.096 77.6915 319.582 76.5291C320.73 76.3478 320.719 74.5316 319.54 74.6964C311.754 75.7784 303.993 76.4032 296.125 76.2111C295.636 76.1995 295.406 76.5732 295.424 76.9447C294.497 76.5146 293.556 76.1052 292.592 75.727C297.64 75.631 302.747 74.6224 307.749 74.1506C312.975 73.6497 322.669 72.2036 326.893 76.5494ZM299.101 72.9169C299.119 72.6892 299.045 72.4533 298.807 72.2381C298.213 71.7036 297.562 71.2465 296.883 70.8142C300.061 63.9793 309.221 62.48 316.23 61.7973C316.061 62.2208 315.865 62.6286 315.659 63.0348C315.704 62.5174 315.194 61.9265 314.581 62.086C309.491 63.3913 302.544 66.6872 299.837 71.3936C299.452 72.0605 300.453 72.8361 300.942 72.2026C304.478 67.5886 310.224 65.952 315.262 63.5904C315.337 63.5557 315.385 63.5055 315.438 63.4617C314.014 66.0836 312.004 68.3852 310.529 71.0049C310.371 71.2803 310.366 71.5444 310.429 71.773C306.645 72.0168 302.872 72.4926 299.101 72.9169ZM295.608 70.0598C293.328 68.8174 290.829 67.8351 288.644 66.4632C288.876 66.1878 288.941 65.8003 288.653 65.4219C288.037 64.6189 287.391 63.7882 286.711 62.9524C286.861 63.1021 287.086 63.1826 287.381 63.1358C289.077 62.883 293.852 62.1978 299.933 61.2002C300.523 61.7226 301.108 62.2329 301.762 62.6731L301.767 62.6796C301.835 62.7246 301.89 62.7791 301.958 62.8241C302.137 62.9379 302.3 62.9686 302.463 62.9591C299.257 64.4782 296.671 66.7029 295.608 70.0598ZM292.345 46.7235C300.135 46.2125 307.89 45.6327 315.662 44.9404C304.792 46.9033 293.732 47.0514 282.754 48.0991C281.992 48.1724 282.006 49.3613 282.784 49.2962C294.184 48.2843 305.646 48.221 316.925 46.0787C317.632 45.9452 317.475 45.0512 316.919 44.8336C317.042 44.8236 317.165 44.8136 317.288 44.8036C323.3 44.2562 336.608 41.9065 340.233 48.3844C340.345 48.5918 340.508 48.6974 340.677 48.7579C338.889 50.4079 334.3 51.3866 332.845 51.8376C327.183 53.6024 321.355 54.8693 315.562 56.0954C310.699 57.13 305.813 58.0863 300.915 58.9715C298.592 56.5068 296.181 54.1209 293.911 51.6069C293.339 50.9719 292.478 51.9172 293.01 52.5518C294.386 54.1971 295.796 55.8074 297.21 57.4241C294.161 56.0004 291.315 54.458 288.704 52.1337C290.595 52.0376 292.438 51.5366 294.196 50.6885C294.683 50.452 294.52 49.8221 294.171 49.5728C293.652 49.1936 293.161 48.934 292.535 48.7978C291.714 48.62 291.392 49.8899 292.22 50.0629C292.259 50.069 292.285 50.0902 292.318 50.101C290.743 50.6949 289.089 50.9828 287.409 50.904C288.128 50.5072 288.932 50.3884 289.892 50.3341C290.661 50.2906 290.641 49.1008 289.862 49.137C288.094 49.2231 286.647 49.5542 285.447 50.9373C285.167 51.263 285.263 51.8769 285.741 51.9616C286.213 52.0455 286.679 52.0939 287.147 52.1254C287.134 52.2847 287.183 52.4536 287.334 52.6033C290.013 55.2723 293.723 58.18 297.497 59.5823C294.117 60.1702 290.727 60.7395 287.335 61.2563C286.466 61.3882 286.253 62.4386 286.677 62.9126C282.844 58.2059 278.003 53.2987 272.272 51.4465C271.39 50.8333 270.271 50.5291 268.941 50.8035C268.447 50.9062 268.26 51.4479 268.376 51.8921C265.777 53.7115 265.947 57.7588 268.722 58.8985C270.673 60.7472 272.92 62.4283 275.246 63.937C273.846 64.4079 272.441 64.8378 270.988 65.1277C270.309 65.2656 270.372 66.0587 270.825 66.3816C259.873 67.1799 250.294 64.1502 240.885 58.3123C240.885 58.2028 240.861 58.0954 240.792 57.9755C240.509 57.4885 239.908 56.6647 239.362 55.7457C239.401 55.7573 239.439 55.769 239.479 55.7751C240.521 56.0156 240.925 54.401 239.88 54.1718C239.394 54.0684 238.911 53.9425 238.427 53.8223C238.056 52.7053 238.107 51.6935 239.232 51.2092C241.63 50.1769 244.193 49.5732 246.737 49.0184C252.404 47.7845 258.367 47.8229 264.135 47.7796C273.571 47.7168 282.922 47.3414 292.345 46.7235ZM181.379 18.911C180.678 19.3047 180.583 20.4884 181.58 20.7622C184.102 21.4483 186.414 22.7072 188.582 24.1515C189.081 24.5103 189.577 24.8513 190.07 25.1803C191.51 26.1385 192.826 23.7708 191.369 22.839C190.848 22.4767 190.372 22.0811 189.904 21.6695C190.29 21.7863 190.654 21.894 190.983 21.9732C202.308 24.873 212.902 28.5883 223.232 34.1411C227.637 36.5101 231.834 38.8414 236.463 40.7666C240.599 42.4836 245.012 44.1568 248.407 47.1659C244.439 47.8193 240.543 48.8697 236.774 50.5617C236.439 50.712 236.36 51.1549 236.427 51.4705C236.579 52.1736 236.761 52.8295 236.971 53.455C226.057 50.3992 216.762 43.9681 206.84 38.5758C195.347 32.3262 183.64 26.5334 173.3 18.4444C173.349 18.1236 173.381 17.8001 173.402 17.475C175.862 17.5121 178.664 18.1318 181.379 18.911ZM167.391 19.7104C168.421 18.3763 170.004 17.7317 171.88 17.5411C171.642 19.2042 171.03 20.7521 169.877 22.0214C168.834 23.175 167.597 23.3771 166.247 23.5618C166.175 22.1855 166.491 20.8744 167.391 19.7104Z" fill="black"/>
<path d="M191.636 47.761C190.871 46.9178 190.227 45.9607 189.573 45.0308C188.915 44.0889 187.415 44.9824 188.043 45.9716C188.698 47.0053 189.355 48.0334 190.114 48.991C190.811 49.8697 191.702 51.0952 192.872 51.2975C193.642 51.4328 194.303 50.6586 193.871 49.9413C193.339 49.082 192.317 48.5164 191.636 47.761Z" fill="black"/>
<path d="M196.43 27.5955C196.7 27.6772 196.675 27.6907 196.763 27.8712C196.953 28.2461 197.472 28.481 197.862 28.5697C198.397 28.6921 199.063 28.3794 199.164 27.7957C199.295 27.0553 199.101 26.3631 198.419 25.9532C198.419 25.9532 198.093 25.7074 197.957 25.6174C197.678 25.4421 197.335 25.3435 197.016 25.2773C195.501 24.9586 194.948 27.1668 196.43 27.5955Z" fill="black"/>
<path d="M202.761 31.7863C202.755 31.7854 202.743 31.7893 202.737 31.7885C202.823 31.7958 202.829 31.7967 202.761 31.7863Z" fill="black"/>
<path d="M202.567 31.7682C202.658 31.7764 202.726 31.7868 202.761 31.7863C203.439 31.8788 204.103 31.5773 204.282 30.8616C204.443 30.2238 204.038 29.4416 203.359 29.3145C202.624 29.1787 201.946 29.3053 201.314 29.7037C199.99 30.5435 201.201 32.469 202.567 31.7682Z" fill="black"/>
<path d="M207.327 33.9267C207.917 34.0343 208.546 34.2229 209.137 34.0197C209.911 33.7524 210.262 32.7059 209.597 32.1142C209.114 31.6831 208.554 31.6088 207.953 31.4647C206.343 31.0854 205.726 33.6408 207.327 33.9267Z" fill="black"/>
<path d="M211.078 36.1607C211.123 37.147 212.679 37.6159 213.243 36.6135C213.546 36.0666 213.342 35.3614 212.794 35.0585C212.582 34.9394 212.336 34.9192 212.101 34.9465C212.023 34.8539 211.947 34.75 211.87 34.6461C211.302 33.8734 210.078 34.5902 210.584 35.4339C210.735 35.6876 210.9 35.9317 211.078 36.1607ZM211.723 35.0786C211.623 35.1323 211.518 35.1739 211.436 35.2592C211.486 35.1977 211.529 35.141 211.595 35.0475C211.634 35.0592 211.679 35.0661 211.723 35.0786Z" fill="black"/>
<path d="M216.397 38.9291C216.53 38.9321 216.656 38.9342 216.789 38.9372C217.871 38.9534 218.409 37.2154 217.322 36.778C217.202 36.7308 217.082 36.6836 216.968 36.6373C216.245 36.3479 215.391 36.5684 215.182 37.4062C214.98 38.199 215.608 38.9176 216.397 38.9291Z" fill="black"/>
<path d="M221.408 41.2239C222.079 41.0618 222.389 40.0205 221.804 39.5794C221.685 39.492 221.572 39.3998 221.444 39.334C221.411 39.2829 221.373 39.231 221.34 39.1799C220.602 38.0068 218.721 39.1701 219.512 40.2995C219.99 40.9835 220.532 41.441 221.408 41.2239Z" fill="black"/>
<path d="M224.048 43.017C224.363 43.3762 224.967 43.3882 225.355 43.1539C225.885 42.826 225.968 42.2052 225.708 41.6814C225.624 41.513 225.54 41.3446 225.456 41.1762C225.179 40.6151 224.377 40.498 223.88 40.802C223.211 41.2122 223.209 42.053 223.691 42.5993C223.807 42.7438 223.931 42.878 224.048 43.017Z" fill="black"/>
<path d="M228.87 45.9742C229.704 46.2229 230.305 45.088 229.677 44.5136C229.252 44.1258 228.866 43.9285 228.331 43.7312C228.019 43.62 227.8 43.3559 227.608 43.1018C227.041 42.3581 225.827 43.0477 226.34 43.881C226.94 44.8602 227.761 45.6428 228.87 45.9742Z" fill="black"/>
<path d="M231.827 47.3204C232.637 47.4964 233.44 47.798 234.204 47.3277C234.645 47.0552 234.849 46.401 234.53 45.9547C233.993 45.2041 233.25 45.1592 232.414 45.0022C230.905 44.7134 230.314 46.9904 231.827 47.3204Z" fill="black"/>
<path d="M237.175 49.0389C238.178 49.1637 238.997 48.5232 238.797 47.4612C238.663 46.7148 237.723 46.6687 237.242 47.0559C236.269 47.2696 236.042 48.8997 237.175 49.0389Z" fill="black"/>
<path d="M207.68 64.6169C205.652 66.2877 203.41 67.6954 201.475 69.4727C200.749 70.1392 201.767 71.407 202.562 70.8146C204.742 69.2074 206.947 67.627 209.035 65.9077C209.961 65.1394 208.598 63.8591 207.68 64.6169Z" fill="black"/>
<path d="M255.121 73.2147C253.731 72.944 252.393 72.7849 251.07 72.2306C250.044 71.8027 249.183 73.2433 250.216 73.7704C251.587 74.4702 253.089 74.9885 254.593 75.3055C255.957 75.5953 256.489 73.4819 255.121 73.2147Z" fill="black"/>
<path d="M311.715 95.0484C309.908 94.3738 309.282 96.9856 310.575 97.9269C322.802 106.812 336.672 116.307 336.789 133.129C336.918 151.532 323.361 168.309 314.443 183.366C314.038 184.053 315.108 184.637 315.523 183.964C325.558 167.603 339.28 149.976 339.283 129.848C339.284 114.558 325.338 100.132 311.715 95.0484Z" fill="black"/>
<path d="M285.955 91.3413C303.85 101.96 324.536 112.476 325.486 135.988C326.211 153.854 316.89 171.845 308.097 186.806C308.065 186.864 308.045 186.919 308.031 186.969L308.017 187.064C308.017 187.064 308.143 187.257 308.354 187.577C308.606 187.702 308.933 187.677 309.113 187.365C318.765 171.061 327.856 152.314 327.003 132.908C326.091 112.161 305.429 94.9718 286.955 88.81C285.428 88.3051 284.664 90.5731 285.955 91.3413Z" fill="black"/>
</g>
<line x1="1" y1="148" x2="286" y2="148" stroke="black" stroke-width="2"/>
<defs>
<clipPath id="clip0_747_3418">
<rect width="202.823" height="166.435" fill="white" transform="translate(159.22) rotate(8.71552)"/>
</clipPath>
</defs>
</svg>
