<svg width="656" height="387" viewBox="0 0 656 387" fill="none" xmlns="http://www.w3.org/2000/svg">
<path d="M434.256 364.419C430.755 374.54 421.905 372.979 414.518 374.009C410.739 374.532 407.672 372.096 405.43 368.719C400.563 361.402 396.105 359.931 387.688 363.029C375.754 367.428 363.132 368.589 350.78 370.919C347.386 371.556 343.247 370.796 340.016 369.382C323.893 362.334 307.198 361.549 289.995 363.225C282.224 363.986 274.134 364.231 266.503 362.907C260.024 361.778 253.996 358.083 247.787 355.475C246.585 354.968 245.529 353.774 244.335 353.668C233.75 352.728 223.059 351.003 212.564 352.924C205.808 354.159 199.509 357.731 192.842 359.743C188.524 361.051 183.951 361.844 179.444 362.13C168.908 362.808 158.634 360.446 148.303 358.819C135.616 356.824 122.904 354.968 110.16 353.382C105.906 352.851 101.457 352.867 97.2111 353.439C80.5568 355.679 64.1479 351.959 47.6 351.542C41.416 351.387 35.2156 347.757 29.2361 345.206C25.6696 343.686 22.4713 341.249 19.2075 339.075C16.4345 337.227 16.4018 334.832 18.4713 332.403C19.5919 331.087 20.778 329.754 22.1686 328.749C26.0623 325.945 29.9232 323.026 34.0949 320.688C39.6409 317.573 43.1092 313.142 46.2012 307.566C51.4609 298.082 56.8514 288.222 64.2379 280.48C71.9516 272.403 81.6529 266.026 92.0251 261.12C107.714 253.705 121.661 243.804 134.741 232.35C152.311 216.948 166.241 198.61 180.123 180.076C189.211 167.943 196.785 154.821 202.773 141.152C208.253 128.627 215.648 117.941 224.695 108.139C228.965 103.511 233.513 98.9574 238.601 95.3029C254.045 84.2086 266.077 69.8278 278.241 55.5368C283.615 49.2253 288.809 42.7584 294.323 36.5776C296.916 33.6671 300.065 31.239 302.985 28.6146C304.212 27.5109 306.028 26.8977 304.883 24.5023C303.909 22.4584 305.398 20.905 307.157 20.5453C312.67 19.4007 318.224 18.3379 323.819 17.8065C325.676 17.6266 327.983 18.7712 329.594 19.9648C334.461 23.5621 339.451 24.6821 345.545 23.374C351.893 22.0169 358.486 21.837 364.981 21.1748C370.592 20.6025 375.41 23.0143 379.279 26.4562C385.946 32.3835 392.457 38.597 398.199 45.3991C402.06 49.9774 404.98 55.545 407.426 61.0635C411.835 71.0296 416.113 80.9711 421.986 90.2586C428.563 100.65 436.146 110.174 444.776 118.791C454.33 128.332 464.645 137.105 474.436 146.409C483.933 155.434 494.133 163.528 504.595 171.41C511.172 176.364 516.432 183.035 518.485 191.415C522.608 208.216 532.914 221.183 544.89 232.792C549.601 237.362 555.458 241.262 562.223 243.02C580.489 247.753 594.648 258.782 606.19 273.081C614.771 283.71 625.503 290.446 638.173 294.64C643.139 296.284 648.259 297.559 653.044 299.603C662.95 303.83 672.521 308.841 677.821 318.873C680.823 324.555 686.353 326.378 691.441 328.332C697.658 330.719 704.455 331.537 710.934 333.303C713.322 333.957 715.506 335.371 717.592 336.352C717.739 340.342 716.12 342.329 712.979 343.122C709.821 343.915 707.711 345.771 706.042 348.599C703.801 352.409 700.169 353.464 695.744 354.298C680.971 357.061 666.173 354.159 651.458 355.393C642.787 356.121 634.141 357.2 625.478 358.026C618.983 358.639 612.488 359.35 605.977 359.505C603.507 359.563 600.955 358.336 598.542 357.421C596.93 356.808 595.515 355.688 593.994 354.829C585.249 349.883 580.153 349.678 573.454 357.094C566.468 364.828 558.354 366.332 548.8 366.193C538.567 366.046 528.276 367.469 518.084 366.913C510.133 366.479 502.28 364.1 494.403 362.506C492.056 362.032 489.757 361.312 487.458 360.642C481.397 358.876 476.326 360.527 471.941 364.918C470.886 365.972 469.651 367.272 468.317 367.534C461.054 368.94 453.765 370.33 446.412 371.107C444.358 371.327 441.994 369.635 439.949 368.507C438.076 367.501 436.465 366.046 434.256 364.419ZM314.47 156.571C317.308 156.244 319.042 151.592 322.928 154.879C326.911 158.247 330.911 161.255 328.67 166.512C331.361 169.447 333.602 171.892 335.729 174.206C336.326 171.181 336.645 167.919 337.66 164.885C338.87 161.264 342.38 160.217 345.545 162.318C347.983 163.937 349.733 166.128 349.57 169.357C349.496 170.886 349.553 172.415 349.553 173.952C350.502 172.84 350.592 171.769 350.478 170.715C350.265 168.744 349.709 166.341 352.204 165.809C353.414 165.556 355.026 167.068 356.408 167.861C357.39 168.417 358.298 169.096 359.287 169.758C358.453 161.386 357.308 153.472 356.981 145.526C356.645 137.432 355.966 129.076 361.521 121.342C370.069 127.768 368.343 138.527 373.349 146.106C373.741 143.433 373.471 140.955 373.087 138.503C372.686 135.927 371.492 133.262 371.868 130.826C372.866 124.441 374.347 118.113 376.015 111.859C376.768 109.022 377.749 105.032 381.373 105.367C384.923 105.694 385.864 109.627 386.886 112.741C386.952 112.946 386.968 113.167 387.001 113.387C388.645 124.351 390.273 135.314 391.974 146.27C392.154 147.431 392.792 148.526 393.259 149.752C398.314 146.278 399.426 146.253 402.404 150.832C404.252 153.677 405.602 156.963 406.567 160.225C407.312 162.752 407.598 165.286 410.641 167.101C409.897 160.43 406.461 153.088 416.081 150.218C418.575 153.006 420.833 155.541 423.794 158.852C423.974 156.824 424.326 155.786 424.105 154.879C422.69 148.976 421.381 143.024 419.573 137.236C418.33 133.254 416.669 129.379 417.774 125.177C418.289 123.239 419.099 120.582 420.571 119.862C423.099 118.628 424.915 121.121 426.354 123.018C427.933 125.103 429.078 127.515 430.714 129.542C434.125 133.769 435.86 138.347 435.876 143.923C435.892 149.851 437.97 155.32 442.665 160.511C442.665 158.803 442.551 157.953 442.682 157.143C443.704 150.856 446.935 149.483 451.958 153.137C455.082 155.41 458.256 157.634 461.422 159.898C462.87 156.98 464.759 157.192 466.927 158.558C471.197 161.231 473.782 165.098 475.409 169.807C476.358 172.554 477.806 175.138 479.172 178.081C482.788 175.914 485.577 174.246 488.497 172.497C484.244 169.333 479.696 166.602 475.925 163.054C459.091 147.234 442.485 131.169 425.782 115.219C416.293 106.16 410.6 94.5426 404.432 83.3093C400.784 76.6544 398.396 69.3127 395.246 62.3798C392.359 56.0192 389.12 49.8548 383.819 45.0312C380.596 42.0962 377.062 39.3655 374.445 35.9563C371.107 31.615 367.026 30.0126 361.913 30.7157C357.619 31.3044 353.251 31.893 349.136 33.1848C344.768 34.5501 340.58 35.0406 336.367 33.2665C332.367 31.5823 328.465 29.6774 324.58 27.7316C320.596 25.7368 318.674 26.1047 317.995 30.1843C317.365 33.9614 314.944 35.6047 312.31 37.5505C307.14 41.3603 301.791 45.0067 299.28 51.4163C298.601 53.1577 297.316 55.5777 295.869 55.9374C290.83 57.1965 288.785 61.4396 285.832 64.7834C278.764 72.7955 271.918 81.0038 264.678 88.8606C261.906 91.8774 258.478 94.3709 255.075 96.7173C241.603 105.997 230.748 117.819 221.341 131.055C219.918 133.05 219.149 135.511 218.069 137.751C220.662 136.304 222.397 133.377 224.482 133.099C231.967 132.101 234.323 125.822 238.282 121.146C241.219 117.671 243.975 114.033 247.075 110.706C251.37 106.087 255.869 101.664 260.343 97.2242C262.045 95.54 263.795 93.8313 265.799 92.5723C266.674 92.0245 268.556 92.139 269.398 92.7603C270.167 93.3244 270.486 95.0004 270.372 96.1205C270.241 97.355 269.554 98.6222 268.818 99.6851C265.357 104.68 261.75 109.586 258.282 114.581C256.114 117.704 254.086 120.925 252 124.097C253.619 124.065 254.298 123.394 254.912 122.667C260.392 116.159 265.742 109.545 271.362 103.16C276.09 97.7883 281.922 93.3898 285.218 86.7676C285.824 85.5494 287.402 84.6256 288.727 83.9961C292.752 82.083 295.034 83.7345 294.323 88.1902C293.766 91.6893 292.678 95.1067 291.566 99.6196C294.887 96.8154 297.406 94.7879 299.803 92.6295C302.723 90.0051 305.48 89.6372 307.983 92.654C309.774 101.181 306.159 108.139 302.282 114.63C304.327 115.587 306.977 115.979 307.541 117.279C308.531 119.56 308.253 122.397 308.457 124.473C310.821 125.095 313.668 125.005 315.075 126.387C318.249 129.51 319.991 133.671 318.969 138.307C317.619 144.446 315.991 150.521 314.486 156.628C314.232 160.659 313.971 164.681 313.717 168.712C314.241 168.712 314.756 168.712 315.279 168.712C315.001 164.632 314.731 160.601 314.47 156.571ZM30.9538 334.93C39.4282 340.432 47.7063 342.983 56.9005 342.696C60.3852 342.59 63.8862 342.77 67.379 342.901C74.1192 343.146 80.8513 343.555 87.5997 343.694C97.8655 343.906 108.197 343.228 118.373 344.25C131.796 345.599 145.162 347.839 158.413 350.406C173.055 353.243 187.018 352.033 200.515 345.721C205.963 343.171 211.697 342.198 217.677 342.353C224.008 342.517 230.347 342.77 236.679 342.713C242.961 342.656 248.646 344.168 254.11 347.348C263.771 352.981 274.208 355.107 285.455 354.101C294.56 353.292 303.738 352.973 312.875 352.998C322.805 353.03 332.089 356.611 341.529 359.228C344.433 360.029 347.631 361.288 350.396 360.773C360.653 358.876 370.813 356.399 380.972 354.003C393.234 351.117 405.079 349.351 414.183 361.32C417.177 365.253 419.999 364.885 422.731 360.11C425.471 355.328 429.397 354.723 433.888 355.777C437.029 356.513 440.432 357.519 442.886 359.465C446.134 362.04 449.242 361.664 452.661 360.928C456.178 360.176 460.105 360.748 462.755 357.298C465.602 353.586 469.937 351.919 474.24 351.78C480.276 351.583 486.42 352.09 492.383 353.096C501.552 354.641 510.199 358.901 519.892 357.895C525.732 357.29 531.638 357.388 537.519 357.159C542.1 356.979 546.689 356.48 551.254 356.677C555.851 356.873 558.82 354.837 561.937 351.698C572.022 341.544 583.605 339.377 596.456 346.613C602.852 350.218 608.897 351.019 615.809 349.556C636.431 345.19 657.224 344.372 678.247 346.008C683.245 346.4 688.463 344.405 693.527 343.285C694.312 343.113 694.827 341.724 695.629 340.677C689.322 337.979 683.286 335.551 677.388 332.829C672.095 330.392 667.965 326.615 665.437 321.219C664.701 319.658 663.932 317.834 662.631 316.862C657.233 312.847 651.989 308.645 645.216 306.757C638.509 304.893 631.867 302.587 625.494 299.791C616.3 295.76 607.49 290.904 600.472 283.497C597.478 280.341 594.975 276.719 592.039 273.498C584.816 265.584 577.02 258.365 566.844 254.31C560.783 251.89 554.354 250.132 548.693 246.985C529.978 236.561 516.693 221.117 508.334 201.406C507.507 199.452 506.632 197.04 505.021 195.994C500.268 192.895 497.332 188.374 494.019 184.041C492.505 182.062 490.395 180.534 488.882 179.111C487.614 179.503 487.139 179.52 486.845 179.765C479.18 186.15 472.53 181.466 470.78 173.731C470.264 171.442 469.283 169.259 468.473 166.905C462.15 171.508 459.851 171.099 456.767 164.542C455.001 160.789 452.064 159.563 447.868 158.157C448.89 161.288 449.872 163.299 450.109 165.392C450.256 166.668 449.635 168.581 448.677 169.284C447.712 169.995 445.692 170.061 444.514 169.546C442.772 168.785 441.226 167.395 439.843 166.03C433.684 159.915 430.518 152.532 430.289 143.784C430.101 136.582 428.277 133.311 422.763 129.109C424.858 136.222 428.015 142.983 428.571 149.957C429.144 157.176 434.461 163.88 430.903 172.243C421.79 171.467 421.062 161.754 414.944 156.939C414.944 162.858 414.944 168.025 414.944 172.808C410.649 175.456 407.745 173.887 405.88 170.919C403.95 167.853 402.854 164.28 401.291 160.969C400.391 159.064 401.242 156.048 397.733 155.287C397.733 157.953 397.537 160.348 397.774 162.703C398.175 166.684 396.13 167.011 392.809 166.439C390.158 157.576 386.78 149.123 386.093 139.86C385.479 131.586 384.081 123.394 381.259 114.516C380.253 116.339 379.623 117.214 379.263 118.178C376.711 125.128 376.416 132.142 378.224 139.369C378.878 141.986 378.772 144.937 378.347 147.627C377.905 150.415 375.844 152.295 372.866 152.426C369.831 152.557 368.015 150.684 367.189 147.937C366.314 145.027 365.7 142.026 364.858 139.108C364.482 137.816 363.811 136.606 363.271 135.355C361.97 146.253 361.578 156.832 364.596 167.314C366.584 174.214 363.107 177.451 355.754 175.873C355.402 177.321 355.058 178.768 354.707 180.223C354.093 182.765 352.163 183.648 349.856 183.877C347.206 184.147 345.766 182.586 345.226 180.215C344.752 178.105 344.441 175.947 344.236 173.797C344.04 171.745 344.056 169.676 343.983 167.608C342.298 168.221 341.422 168.99 341.308 169.873C341.046 171.802 341.521 173.879 341.063 175.734C340.245 179.046 339.312 182.43 337.692 185.39C336.989 186.673 334.51 187.205 332.744 187.507C332.359 187.573 331.386 185.226 330.977 183.902C330.216 181.449 329.676 178.931 329.071 176.544C321.889 176.593 320.564 174.925 322.281 168.425C322.674 166.954 323.361 165.49 323.41 164.011C323.443 162.964 322.633 161.885 322.191 160.822C320.752 162.474 320.482 164.06 320.163 165.638C319.386 169.464 318.838 173.355 317.725 177.075C316.801 180.174 314.625 182.226 309.987 181.793C309.259 177.247 307.492 172.513 307.991 168.025C309.046 158.558 311.206 149.213 313.095 139.852C313.75 136.622 314.061 133.671 311.23 130.172C309.202 135.085 307.517 139.255 305.758 143.392C303.206 149.401 300.67 155.426 297.971 161.378C296.171 165.335 294.347 169.325 292.057 173.004C290.355 175.743 287.926 178.064 283.361 176.364C283.967 161.999 290.2 149.352 295.566 135.396C294.102 136.606 293.488 136.933 293.128 137.448C291.41 139.844 289.046 141.054 286.372 139.844C283.124 138.38 283.345 135.069 284.139 132.387C285.055 129.297 286.429 126.19 288.269 123.558C291.999 118.203 296.269 113.224 300.147 107.975C302.339 104.999 303.983 101.729 302.641 96.7091C299.819 99.4234 297.684 101.762 295.255 103.74C286.331 111.016 278.903 119.331 275.1 130.491C274.274 132.919 272.638 135.085 271.312 137.334C269.431 140.514 267.443 143.637 265.57 146.817C264.245 149.074 263.468 151.837 261.685 153.595C257.521 157.683 255.304 162.825 252.556 167.763C248.728 174.623 243.452 180.223 236.45 183.657C233.08 181.155 234.895 178.808 235.599 176.74C240.793 161.525 249.341 148.101 258.593 135.143C266.56 123.991 274.977 113.15 283.149 102.138C284.376 100.478 285.341 98.6222 286.421 96.8563C282.363 99.2763 278.543 101.77 275.738 105.122C268.327 113.96 261.431 123.214 254.176 132.183C252.008 134.865 249.488 137.325 246.822 139.508C245.938 140.236 243.861 140.269 242.732 139.754C241.03 138.977 240.523 137.375 241.505 135.355C244.163 129.878 246.65 124.318 249.178 118.775C249.734 117.557 250.192 116.29 250.699 115.039C250.282 114.802 249.873 114.565 249.456 114.328C246.773 118.227 244.261 122.25 241.374 125.986C237.595 130.875 234.626 136.778 227.476 137.857C226.372 138.02 225.12 139.034 224.466 140.015C223.026 142.157 221.922 144.528 220.687 146.809C218.298 151.208 216.368 156.522 211.55 158.32C207.55 159.808 205.611 162.31 203.763 165.564C193.914 182.88 182.053 198.757 168.867 213.645C163.403 219.817 157.571 225.671 151.82 231.59C142.07 241.613 131.788 251.032 119.559 257.989C111.624 262.51 103.338 266.41 95.3461 270.841C79.2971 279.736 66.0947 291.746 58.7492 308.751C54.5447 318.489 47.7145 324.645 38.8802 329.46C36.2953 330.891 33.9886 332.82 30.9538 334.93ZM242.208 172.276C242.625 172.538 243.034 172.799 243.452 173.061C245.325 169.995 247.272 166.97 249.055 163.863C250.576 161.223 251.353 157.895 253.447 155.9C260.27 149.401 262.576 140.081 268.449 133.025C269.668 131.554 270.069 129.403 270.846 127.564C259.525 141.528 249.006 155.778 242.208 172.276ZM295.034 149.679C295.492 149.924 295.958 150.169 296.417 150.415C298.756 145.885 301.758 141.634 301.578 136.017C299.394 140.571 297.218 145.125 295.034 149.679ZM293.603 126.648C293.235 126.485 292.866 126.321 292.498 126.158C291.787 127.817 291.083 129.485 290.372 131.145C290.715 131.284 291.067 131.423 291.41 131.57C292.138 129.935 292.875 128.291 293.603 126.648Z" fill="#FFEB9B"/>
</svg>
