<svg width="947" height="927" viewBox="0 0 947 927" fill="none" xmlns="http://www.w3.org/2000/svg">
<path fill-rule="evenodd" clip-rule="evenodd" d="M16.9924 50.4082C16.9924 50.4082 17.0457 54.3028 15.6373 58.1138C14.1375 62.1682 11.1684 66.1617 11.1684 66.1617L0 62.0388C0 62.0388 3.4944 58.6539 4.8876 54.8886C6.4026 50.7886 5.83162 46.2854 5.83162 46.2854L17 50.4082H16.9924Z" fill="#FED430"/>
<path fill-rule="evenodd" clip-rule="evenodd" d="M794.752 32.2076C794.752 32.2076 798.876 36.1186 801.41 41.4833C804.106 47.1922 805.229 54.3861 805.229 54.3861L789.456 61.9455C789.456 61.9455 789.508 54.8184 787.005 49.5162C784.277 43.7447 778.987 39.7589 778.987 39.7589L794.76 32.1995L794.752 32.2076Z" fill="#FED430"/>
<path fill-rule="evenodd" clip-rule="evenodd" d="M560.23 157.221C560.23 157.221 561.145 160.249 560.811 163.56C560.455 167.082 558.847 170.907 558.847 170.907L548.522 170.348C548.522 170.348 550.707 166.873 551.039 163.601C551.398 160.039 549.91 156.659 549.91 156.659L560.236 157.219L560.23 157.221Z" fill="#FED430"/>
<path fill-rule="evenodd" clip-rule="evenodd" d="M463.966 255.439C463.966 255.439 464.52 252.313 466.22 249.459C468.032 246.427 470.993 243.663 470.993 243.663L479.207 248.611C479.207 248.611 475.922 250.815 474.242 253.621C472.413 256.683 472.178 260.379 472.178 260.379L463.964 255.431L463.966 255.439Z" fill="#2496F0"/>
<path fill-rule="evenodd" clip-rule="evenodd" d="M467.283 865.138C467.283 865.138 464.225 867.55 460.344 868.752C456.214 870.029 451.238 870.104 451.238 870.104L447.713 858.733C447.713 858.733 452.525 859.445 456.361 858.259C460.536 856.966 463.762 853.773 463.762 853.773L467.288 865.144L467.283 865.138Z" fill="#FED430"/>
<path fill-rule="evenodd" clip-rule="evenodd" d="M673.905 899.898C673.905 899.898 670.835 899.093 668.135 897.168C665.266 895.116 662.761 891.942 662.761 891.942L668.391 884.161C668.391 884.161 670.31 887.613 672.965 889.515C675.862 891.585 679.527 892.119 679.527 892.119L673.897 899.9L673.905 899.898Z" fill="#2496F0"/>
<path fill-rule="evenodd" clip-rule="evenodd" d="M558.867 911.521C558.867 911.521 563.008 910.589 567.396 911.218C572.067 911.889 577 914.135 577 914.135L575.133 926.901C575.133 926.901 570.723 923.962 566.393 923.341C561.671 922.662 557 924.287 557 924.287L558.867 911.521Z" fill="#FF837E"/>
<path fill-rule="evenodd" clip-rule="evenodd" d="M928.867 0.520919C928.867 0.520919 933.008 -0.410551 937.396 0.21765C942.067 0.889175 947 3.13481 947 3.13481L945.133 15.901C945.133 15.901 940.723 12.9622 936.393 12.3412C931.671 11.6625 927 13.2871 927 13.2871L928.867 0.520919Z" fill="#FF837E"/>
<path fill-rule="evenodd" clip-rule="evenodd" d="M672.622 198.572C672.622 198.572 670.365 201.499 667.05 203.487C663.519 205.601 658.913 206.776 658.913 206.776L652.877 196.95C652.877 196.95 657.527 196.542 660.799 194.581C664.368 192.443 666.587 188.746 666.587 188.746L672.622 198.572Z" fill="#FF837E"/>
</svg>
