<svg width="898" height="474" viewBox="0 0 898 474" fill="none" xmlns="http://www.w3.org/2000/svg">
<path d="M530.27 445.74C525.99 458.12 515.17 456.21 506.14 457.47C501.52 458.11 497.77 455.13 495.03 451C489.08 442.05 483.63 440.25 473.34 444.04C458.75 449.42 443.32 450.84 428.22 453.69C424.07 454.47 419.01 453.54 415.06 451.81C395.35 443.19 374.94 442.23 353.91 444.28C344.41 445.21 334.52 445.51 325.19 443.89C317.27 442.51 309.9 437.99 302.31 434.8C300.84 434.18 299.55 432.72 298.09 432.59C285.15 431.44 272.08 429.33 259.25 431.68C250.99 433.19 243.29 437.56 235.14 440.02C229.86 441.62 224.27 442.59 218.76 442.94C205.88 443.77 193.32 440.88 180.69 438.89C165.18 436.45 149.64 434.18 134.06 432.24C128.86 431.59 123.42 431.61 118.23 432.31C97.8701 435.05 77.8101 430.5 57.5801 429.99C50.0201 429.8 42.4401 425.36 35.1301 422.24C30.7701 420.38 26.8601 417.4 22.8701 414.74C19.4801 412.48 19.4401 409.55 21.9701 406.58C23.3401 404.97 24.7901 403.34 26.4901 402.11C31.2501 398.68 35.9701 395.11 41.0701 392.25C47.8501 388.44 52.0901 383.02 55.8701 376.2C62.3001 364.6 68.8901 352.54 77.9201 343.07C87.3501 333.19 99.2101 325.39 111.89 319.39C131.07 310.32 148.12 298.21 164.11 284.2C185.59 265.36 202.62 242.93 219.59 220.26C230.7 205.42 239.96 189.37 247.28 172.65C253.98 157.33 263.02 144.26 274.08 132.27C279.3 126.61 284.86 121.04 291.08 116.57C309.96 103 324.67 85.4098 339.54 67.9298C346.11 60.2098 352.46 52.2998 359.2 44.7398C362.37 41.1798 366.22 38.2098 369.79 34.9998C371.29 33.6498 373.51 32.8998 372.11 29.9698C370.92 27.4698 372.74 25.5698 374.89 25.1298C381.63 23.7298 388.42 22.4298 395.26 21.7798C397.53 21.5598 400.35 22.9598 402.32 24.4198C408.27 28.8198 414.37 30.1898 421.82 28.5898C429.58 26.9298 437.64 26.7098 445.58 25.8998C452.44 25.1998 458.33 28.1498 463.06 32.3598C471.21 39.6098 479.17 47.2098 486.19 55.5298C490.91 61.1298 494.48 67.9398 497.47 74.6898C502.86 86.8798 508.09 99.0398 515.27 110.4C523.31 123.11 532.58 134.76 543.13 145.3C554.81 156.97 567.42 167.7 579.39 179.08C591 190.12 603.47 200.02 616.26 209.66C624.3 215.72 630.73 223.88 633.24 234.13C638.28 254.68 650.88 270.54 665.52 284.74C671.28 290.33 678.44 295.1 686.71 297.25C709.04 303.04 726.35 316.53 740.46 334.02C750.95 347.02 764.07 355.26 779.56 360.39C785.63 362.4 791.89 363.96 797.74 366.46C809.85 371.63 821.55 377.76 828.03 390.03C831.7 396.98 838.46 399.21 844.68 401.6C852.28 404.52 860.59 405.52 868.51 407.68C871.43 408.48 874.1 410.21 876.65 411.41C876.83 416.29 874.85 418.72 871.01 419.69C867.15 420.66 864.57 422.93 862.53 426.39C859.79 431.05 855.35 432.34 849.94 433.36C831.88 436.74 813.79 433.19 795.8 434.7C785.2 435.59 774.63 436.91 764.04 437.92C756.1 438.67 748.16 439.54 740.2 439.73C737.18 439.8 734.06 438.3 731.11 437.18C729.14 436.43 727.41 435.06 725.55 434.01C714.86 427.96 708.63 427.71 700.44 436.78C691.9 446.24 681.98 448.08 670.3 447.91C657.79 447.73 645.21 449.47 632.75 448.79C623.03 448.26 613.43 445.35 603.8 443.4C600.93 442.82 598.12 441.94 595.31 441.12C587.9 438.96 581.7 440.98 576.34 446.35C575.05 447.64 573.54 449.23 571.91 449.55C563.03 451.27 554.12 452.97 545.13 453.92C542.62 454.19 539.73 452.12 537.23 450.74C534.94 449.51 532.97 447.73 530.27 445.74ZM383.83 191.51C387.3 191.11 389.42 185.42 394.17 189.44C399.04 193.56 403.93 197.24 401.19 203.67C404.48 207.26 407.22 210.25 409.82 213.08C410.55 209.38 410.94 205.39 412.18 201.68C413.66 197.25 417.95 195.97 421.82 198.54C424.8 200.52 426.94 203.2 426.74 207.15C426.65 209.02 426.72 210.89 426.72 212.77C427.88 211.41 427.99 210.1 427.85 208.81C427.59 206.4 426.91 203.46 429.96 202.81C431.44 202.5 433.41 204.35 435.1 205.32C436.3 206 437.41 206.83 438.62 207.64C437.6 197.4 436.2 187.72 435.8 178C435.39 168.1 434.56 157.88 441.35 148.42C451.8 156.28 449.69 169.44 455.81 178.71C456.29 175.44 455.96 172.41 455.49 169.41C455 166.26 453.54 163 454 160.02C455.22 152.21 457.03 144.47 459.07 136.82C459.99 133.35 461.19 128.47 465.62 128.88C469.96 129.28 471.11 134.09 472.36 137.9C472.44 138.15 472.46 138.42 472.5 138.69C474.51 152.1 476.5 165.51 478.58 178.91C478.8 180.33 479.58 181.67 480.15 183.17C486.33 178.92 487.69 178.89 491.33 184.49C493.59 187.97 495.24 191.99 496.42 195.98C497.33 199.07 497.68 202.17 501.4 204.39C500.49 196.23 496.29 187.25 508.05 183.74C511.1 187.15 513.86 190.25 517.48 194.3C517.7 191.82 518.13 190.55 517.86 189.44C516.13 182.22 514.53 174.94 512.32 167.86C510.8 162.99 508.77 158.25 510.12 153.11C510.75 150.74 511.74 147.49 513.54 146.61C516.63 145.1 518.85 148.15 520.61 150.47C522.54 153.02 523.94 155.97 525.94 158.45C530.11 163.62 532.23 169.22 532.25 176.04C532.27 183.29 534.81 189.98 540.55 196.33C540.55 194.24 540.41 193.2 540.57 192.21C541.82 184.52 545.77 182.84 551.91 187.31C555.73 190.09 559.61 192.81 563.48 195.58C565.25 192.01 567.56 192.27 570.21 193.94C575.43 197.21 578.59 201.94 580.58 207.7C581.74 211.06 583.51 214.22 585.18 217.82C589.6 215.17 593.01 213.13 596.58 210.99C591.38 207.12 585.82 203.78 581.21 199.44C560.63 180.09 540.33 160.44 519.91 140.93C508.31 129.85 501.35 115.64 493.81 101.9C489.35 93.7598 486.43 84.7798 482.58 76.2998C479.05 68.5198 475.09 60.9798 468.61 55.0798C464.67 51.4898 460.35 48.1498 457.15 43.9798C453.07 38.6698 448.08 36.7098 441.83 37.5698C436.58 38.2898 431.24 39.0098 426.21 40.5898C420.87 42.2598 415.75 42.8598 410.6 40.6898C405.71 38.6298 400.94 36.2998 396.19 33.9198C391.32 31.4798 388.97 31.9298 388.14 36.9198C387.37 41.5398 384.41 43.5498 381.19 45.9298C374.87 50.5898 368.33 55.0498 365.26 62.8898C364.43 65.0198 362.86 67.9798 361.09 68.4198C354.93 69.9598 352.43 75.1498 348.82 79.2398C340.18 89.0398 331.81 99.0798 322.96 108.69C319.57 112.38 315.38 115.43 311.22 118.3C294.75 129.65 281.48 144.11 269.98 160.3C268.24 162.74 267.3 165.75 265.98 168.49C269.15 166.72 271.27 163.14 273.82 162.8C282.97 161.58 285.85 153.9 290.69 148.18C294.28 143.93 297.65 139.48 301.44 135.41C306.69 129.76 312.19 124.35 317.66 118.92C319.74 116.86 321.88 114.77 324.33 113.23C325.4 112.56 327.7 112.7 328.73 113.46C329.67 114.15 330.06 116.2 329.92 117.57C329.76 119.08 328.92 120.63 328.02 121.93C323.79 128.04 319.38 134.04 315.14 140.15C312.49 143.97 310.01 147.91 307.46 151.79C309.44 151.75 310.27 150.93 311.02 150.04C317.72 142.08 324.26 133.99 331.13 126.18C336.91 119.61 344.04 114.23 348.07 106.13C348.81 104.64 350.74 103.51 352.36 102.74C357.28 100.4 360.07 102.42 359.2 107.87C358.52 112.15 357.19 116.33 355.83 121.85C359.89 118.42 362.97 115.94 365.9 113.3C369.47 110.09 372.84 109.64 375.9 113.33C378.09 123.76 373.67 132.27 368.93 140.21C371.43 141.38 374.67 141.86 375.36 143.45C376.57 146.24 376.23 149.71 376.48 152.25C379.37 153.01 382.85 152.9 384.57 154.59C388.45 158.41 390.58 163.5 389.33 169.17C387.68 176.68 385.69 184.11 383.85 191.58C383.54 196.51 383.22 201.43 382.91 206.36C383.55 206.36 384.18 206.36 384.82 206.36C384.48 201.37 384.15 196.44 383.83 191.51ZM37.2301 409.67C47.5901 416.4 57.7101 419.52 68.9501 419.17C73.2101 419.04 77.4901 419.26 81.7601 419.42C90.0001 419.72 98.2301 420.22 106.48 420.39C119.03 420.65 131.66 419.82 144.1 421.07C160.51 422.72 176.85 425.46 193.05 428.6C210.95 432.07 228.02 430.59 244.52 422.87C251.18 419.75 258.19 418.56 265.5 418.75C273.24 418.95 280.99 419.26 288.73 419.19C296.41 419.12 303.36 420.97 310.04 424.86C321.85 431.75 334.61 434.35 348.36 433.12C359.49 432.13 370.71 431.74 381.88 431.77C394.02 431.81 405.37 436.19 416.91 439.39C420.46 440.37 424.37 441.91 427.75 441.28C440.29 438.96 452.71 435.93 465.13 433C480.12 429.47 494.6 427.31 505.73 441.95C509.39 446.76 512.84 446.31 516.18 440.47C519.53 434.62 524.33 433.88 529.82 435.17C533.66 436.07 537.82 437.3 540.82 439.68C544.79 442.83 548.59 442.37 552.77 441.47C557.07 440.55 561.87 441.25 565.11 437.03C568.59 432.49 573.89 430.45 579.15 430.28C586.53 430.04 594.04 430.66 601.33 431.89C612.54 433.78 623.11 438.99 634.96 437.76C642.1 437.02 649.32 437.14 656.51 436.86C662.11 436.64 667.72 436.03 673.3 436.27C678.92 436.51 682.55 434.02 686.36 430.18C698.69 417.76 712.85 415.11 728.56 423.96C736.38 428.37 743.77 429.35 752.22 427.56C777.43 422.22 802.85 421.22 828.55 423.22C834.66 423.7 841.04 421.26 847.23 419.89C848.19 419.68 848.82 417.98 849.8 416.7C842.09 413.4 834.71 410.43 827.5 407.1C821.03 404.12 815.98 399.5 812.89 392.9C811.99 390.99 811.05 388.76 809.46 387.57C802.86 382.66 796.45 377.52 788.17 375.21C779.97 372.93 771.85 370.11 764.06 366.69C752.82 361.76 742.05 355.82 733.47 346.76C729.81 342.9 726.75 338.47 723.16 334.53C714.33 324.85 704.8 316.02 692.36 311.06C684.95 308.1 677.09 305.95 670.17 302.1C647.29 289.35 631.05 270.46 620.83 246.35C619.82 243.96 618.75 241.01 616.78 239.73C610.97 235.94 607.38 230.41 603.33 225.11C601.48 222.69 598.9 220.82 597.05 219.08C595.5 219.56 594.92 219.58 594.56 219.88C585.19 227.69 577.06 221.96 574.92 212.5C574.29 209.7 573.09 207.03 572.1 204.15C564.37 209.78 561.56 209.28 557.79 201.26C555.63 196.67 552.04 195.17 546.91 193.45C548.16 197.28 549.36 199.74 549.65 202.3C549.83 203.86 549.07 206.2 547.9 207.06C546.72 207.93 544.25 208.01 542.81 207.38C540.68 206.45 538.79 204.75 537.1 203.08C529.57 195.6 525.7 186.57 525.42 175.87C525.19 167.06 522.96 163.06 516.22 157.92C518.78 166.62 522.64 174.89 523.32 183.42C524.02 192.25 530.52 200.45 526.17 210.68C515.03 209.73 514.14 197.85 506.66 191.96C506.66 199.2 506.66 205.52 506.66 211.37C501.41 214.61 497.86 212.69 495.58 209.06C493.22 205.31 491.88 200.94 489.97 196.89C488.87 194.56 489.91 190.87 485.62 189.94C485.62 193.2 485.38 196.13 485.67 199.01C486.16 203.88 483.66 204.28 479.6 203.58C476.36 192.74 472.23 182.4 471.39 171.07C470.64 160.95 468.93 150.93 465.48 140.07C464.25 142.3 463.48 143.37 463.04 144.55C459.92 153.05 459.56 161.63 461.77 170.47C462.57 173.67 462.44 177.28 461.92 180.57C461.38 183.98 458.86 186.28 455.22 186.44C451.51 186.6 449.29 184.31 448.28 180.95C447.21 177.39 446.46 173.72 445.43 170.15C444.97 168.57 444.15 167.09 443.49 165.56C441.9 178.89 441.42 191.83 445.11 204.65C447.54 213.09 443.29 217.05 434.3 215.12C433.87 216.89 433.45 218.66 433.02 220.44C432.27 223.55 429.91 224.63 427.09 224.91C423.85 225.24 422.09 223.33 421.43 220.43C420.85 217.85 420.47 215.21 420.22 212.58C419.98 210.07 420 207.54 419.91 205.01C417.85 205.76 416.78 206.7 416.64 207.78C416.32 210.14 416.9 212.68 416.34 214.95C415.34 219 414.2 223.14 412.22 226.76C411.36 228.33 408.33 228.98 406.17 229.35C405.7 229.43 404.51 226.56 404.01 224.94C403.08 221.94 402.42 218.86 401.68 215.94C392.9 216 391.28 213.96 393.38 206.01C393.86 204.21 394.7 202.42 394.76 200.61C394.8 199.33 393.81 198.01 393.27 196.71C391.51 198.73 391.18 200.67 390.79 202.6C389.84 207.28 389.17 212.04 387.81 216.59C386.68 220.38 384.02 222.89 378.35 222.36C377.46 216.8 375.3 211.01 375.91 205.52C377.2 193.94 379.84 182.51 382.15 171.06C382.95 167.11 383.33 163.5 379.87 159.22C377.39 165.23 375.33 170.33 373.18 175.39C370.06 182.74 366.96 190.11 363.66 197.39C361.46 202.23 359.23 207.11 356.43 211.61C354.35 214.96 351.38 217.8 345.8 215.72C346.54 198.15 354.16 182.68 360.72 165.61C358.93 167.09 358.18 167.49 357.74 168.12C355.64 171.05 352.75 172.53 349.48 171.05C345.51 169.26 345.78 165.21 346.75 161.93C347.87 158.15 349.55 154.35 351.8 151.13C356.36 144.58 361.58 138.49 366.32 132.07C369 128.43 371.01 124.43 369.37 118.29C365.92 121.61 363.31 124.47 360.34 126.89C349.43 135.79 340.35 145.96 335.7 159.61C334.69 162.58 332.69 165.23 331.07 167.98C328.77 171.87 326.34 175.69 324.05 179.58C322.43 182.34 321.48 185.72 319.3 187.87C314.21 192.87 311.5 199.16 308.14 205.2C303.46 213.59 297.01 220.44 288.45 224.64C284.33 221.58 286.55 218.71 287.41 216.18C293.76 197.57 304.21 181.15 315.52 165.3C325.26 151.66 335.55 138.4 345.54 124.93C347.04 122.9 348.22 120.63 349.54 118.47C344.58 121.43 339.91 124.48 336.48 128.58C327.42 139.39 318.99 150.71 310.12 161.68C307.47 164.96 304.39 167.97 301.13 170.64C300.05 171.53 297.51 171.57 296.13 170.94C294.05 169.99 293.43 168.03 294.63 165.56C297.88 158.86 300.92 152.06 304.01 145.28C304.69 143.79 305.25 142.24 305.87 140.71C305.36 140.42 304.86 140.13 304.35 139.84C301.07 144.61 298 149.53 294.47 154.1C289.85 160.08 286.22 167.3 277.48 168.62C276.13 168.82 274.6 170.06 273.8 171.26C272.04 173.88 270.69 176.78 269.18 179.57C266.26 184.95 263.9 191.45 258.01 193.65C253.12 195.47 250.75 198.53 248.49 202.51C236.45 223.69 221.95 243.11 205.83 261.32C199.15 268.87 192.02 276.03 184.99 283.27C173.07 295.53 160.5 307.05 145.55 315.56C135.85 321.09 125.72 325.86 115.95 331.28C96.3301 342.16 80.1901 356.85 71.2101 377.65C66.0701 389.56 57.7201 397.09 46.9201 402.98C43.7601 404.73 40.9401 407.09 37.2301 409.67ZM295.49 210.72C296 211.04 296.5 211.36 297.01 211.68C299.3 207.93 301.68 204.23 303.86 200.43C305.72 197.2 306.67 193.13 309.23 190.69C317.57 182.74 320.39 171.34 327.57 162.71C329.06 160.91 329.55 158.28 330.5 156.03C316.66 173.11 303.8 190.54 295.49 210.72ZM360.07 183.08C360.63 183.38 361.2 183.68 361.76 183.98C364.62 178.44 368.29 173.24 368.07 166.37C365.4 171.94 362.74 177.51 360.07 183.08ZM358.32 154.91C357.87 154.71 357.42 154.51 356.97 154.31C356.1 156.34 355.24 158.38 354.37 160.41C354.79 160.58 355.22 160.75 355.64 160.93C356.53 158.93 357.43 156.92 358.32 154.91Z" fill="#FFEB9B"/>
</svg>
