<svg width="387" height="1268" viewBox="0 0 387 1268" fill="none" xmlns="http://www.w3.org/2000/svg">
<path fill-rule="evenodd" clip-rule="evenodd" d="M153.227 61.53C153.227 61.53 153.243 62.656 152.804 63.7577C152.337 64.9299 151.411 66.0845 151.411 66.0845L147.929 64.8925C147.929 64.8925 149.018 63.9139 149.453 62.8253C149.925 61.6399 149.747 60.338 149.747 60.338L153.229 61.53H153.227Z" fill="#FED430"/>
<path fill-rule="evenodd" clip-rule="evenodd" d="M9.91333 27.5884C9.91333 27.5884 7.74646 28.316 5.34522 28.2492C2.79185 28.1744 0 27.3052 0 27.3052L0.209697 20.5916C0.209697 20.5916 2.76307 21.8501 5.1273 21.9209C7.70534 21.9956 10.1189 20.8787 10.1189 20.8787L9.90922 27.5924L9.91333 27.5884Z" fill="#2496F0"/>
<path fill-rule="evenodd" clip-rule="evenodd" d="M140.655 52.1958C140.655 52.1958 139.176 51.8077 137.875 50.8801C136.493 49.8915 135.286 48.3618 135.286 48.3618L137.999 44.6128C137.999 44.6128 138.923 46.2761 140.202 47.1924C141.598 48.19 143.365 48.4475 143.365 48.4475L140.652 52.1965L140.655 52.1958Z" fill="#2496F0"/>
<path fill-rule="evenodd" clip-rule="evenodd" d="M71.2502 53.2848C71.2502 53.2848 73.2456 52.8359 75.3599 53.1386C77.6108 53.4622 79.9876 54.5443 79.9876 54.5443L79.088 60.6957C79.088 60.6957 76.9632 59.2796 74.8768 58.9804C72.6015 58.6533 70.3506 59.4362 70.3506 59.4362L71.2502 53.2848Z" fill="#FF837E"/>
<path fill-rule="evenodd" clip-rule="evenodd" d="M117.907 0.542375C117.907 0.542375 119.457 1.05852 120.775 2.13703C122.177 3.2861 123.349 5.00518 123.349 5.00518L120.167 8.83572C120.167 8.83572 119.306 6.99243 118.006 5.92783C116.589 4.76629 114.725 4.37292 114.725 4.37292L117.907 0.542375Z" fill="#FF837E"/>
<path fill-rule="evenodd" clip-rule="evenodd" d="M332.099 401.289C332.099 401.289 333.586 402.699 334.5 404.634C335.472 406.692 335.877 409.287 335.877 409.287L330.189 412.013C330.189 412.013 330.208 409.442 329.305 407.53C328.322 405.449 326.414 404.012 326.414 404.012L332.102 401.286L332.099 401.289Z" fill="#FED430"/>
<path fill-rule="evenodd" clip-rule="evenodd" d="M327.087 363.613C327.087 363.613 329.06 363.894 330.882 364.903C332.817 365.979 334.603 367.785 334.603 367.785L331.631 373.067C331.631 373.067 330.192 371.045 328.401 370.047C326.447 368.961 324.12 368.894 324.12 368.894L327.092 363.612L327.087 363.613Z" fill="#2496F0"/>
<path fill-rule="evenodd" clip-rule="evenodd" d="M380.461 389.862C380.461 389.862 381.955 389.527 383.537 389.753C385.221 389.995 387 390.805 387 390.805L386.327 395.409C386.327 395.409 384.737 394.349 383.175 394.125C381.473 393.88 379.788 394.466 379.788 394.466L380.461 389.862Z" fill="#FF837E"/>
<path fill-rule="evenodd" clip-rule="evenodd" d="M109.287 436.163C109.287 436.163 109.901 438.196 109.677 440.419C109.438 442.784 108.359 445.353 108.359 445.353L101.425 444.977C101.425 444.977 102.893 442.644 103.115 440.447C103.356 438.055 102.358 435.786 102.358 435.786L109.291 436.161L109.287 436.163Z" fill="#FED430"/>
<path fill-rule="evenodd" clip-rule="evenodd" d="M44.6486 502.113C44.6486 502.113 45.0203 500.014 46.1618 498.098C47.3787 496.062 49.3673 494.206 49.3673 494.206L54.8827 497.528C54.8827 497.528 52.6766 499.008 51.5485 500.892C50.3205 502.948 50.1626 505.43 50.1626 505.43L44.6472 502.108L44.6486 502.113Z" fill="#2496F0"/>
<path fill-rule="evenodd" clip-rule="evenodd" d="M184.754 463.929C184.754 463.929 183.239 465.894 181.013 467.229C178.642 468.649 175.549 469.437 175.549 469.437L171.496 462.839C171.496 462.839 174.619 462.565 176.815 461.248C179.212 459.813 180.702 457.331 180.702 457.331L184.754 463.929Z" fill="#FF837E"/>
<path fill-rule="evenodd" clip-rule="evenodd" d="M273.895 83.0938C273.895 83.0938 273.923 85.1325 273.186 87.1275C272.401 89.2499 270.846 91.3404 270.846 91.3404L265 89.1822C265 89.1822 266.829 87.4102 267.559 85.4391C268.352 83.2929 268.053 80.9355 268.053 80.9355L273.899 83.0938H273.895Z" fill="#FED430"/>
<path fill-rule="evenodd" clip-rule="evenodd" d="M309.269 60.3141C309.269 60.3141 307.592 59.0023 306.435 57.0993C305.209 55.0739 304.501 52.4542 304.501 52.4542L310.006 49.1632C310.006 49.1632 310.281 51.7977 311.415 53.6738C312.655 55.7184 314.769 57.0219 314.769 57.0219L309.264 60.3129L309.269 60.3141Z" fill="#2496F0"/>
<path fill-rule="evenodd" clip-rule="evenodd" d="M229.044 1229.83C229.044 1229.83 227.164 1231.32 224.778 1232.06C222.239 1232.84 219.179 1232.89 219.179 1232.89L217.012 1225.89C217.012 1225.89 219.971 1226.33 222.329 1225.6C224.896 1224.81 226.879 1222.85 226.879 1222.85L229.047 1229.84L229.044 1229.83Z" fill="#FED430"/>
<path fill-rule="evenodd" clip-rule="evenodd" d="M356.085 1251.21C356.085 1251.21 354.198 1250.71 352.537 1249.53C350.773 1248.26 349.233 1246.31 349.233 1246.31L352.695 1241.53C352.695 1241.53 353.874 1243.65 355.507 1244.82C357.288 1246.09 359.542 1246.42 359.542 1246.42L356.08 1251.21L356.085 1251.21Z" fill="#2496F0"/>
<path fill-rule="evenodd" clip-rule="evenodd" d="M285.354 1258.35C285.354 1258.35 287.9 1257.78 290.598 1258.16C293.47 1258.58 296.503 1259.96 296.503 1259.96L295.355 1267.81C295.355 1267.81 292.644 1266 289.982 1265.62C287.078 1265.2 284.206 1266.2 284.206 1266.2L285.354 1258.35Z" fill="#FF837E"/>
</svg>
