<svg width="337" height="298" viewBox="0 0 337 298" fill="none" xmlns="http://www.w3.org/2000/svg">
<rect x="50.0459" y="64.7579" width="286" height="233" rx="20" fill="#FF837E"/>
<rect x="44" y="60.0001" width="284" height="231" rx="19" stroke="black" stroke-width="2"/>
<line x1="45" y1="123" x2="328" y2="123" stroke="black" stroke-width="2"/>
<path d="M156.77 152.85L156.07 162.35C158.22 161.7 160.42 161.45 162.82 161.45C171.27 161.45 176.47 165.55 176.47 172.95C176.47 180.65 170.27 184.85 161.77 184.85C154.77 184.85 150.52 181.4 150.12 175.95C150.72 174.45 152.02 173.7 153.37 173.7C155.42 173.7 156.57 174.8 156.92 177.75L157.62 182.7C158.42 183 159.22 183.1 160.37 183.1C164.87 183.1 167.92 179.65 167.92 173.35C167.92 167.55 164.97 164.25 160.37 164.25C158.47 164.25 156.77 164.5 155.02 165.1L153.57 164.05L154.77 146.65H175.12V152.85H156.77ZM188.09 165.25C188.09 179.35 190.54 183.1 193.49 183.1C196.44 183.1 198.99 179.3 198.99 165.25C198.99 151.3 196.44 147.55 193.49 147.55C190.54 147.55 188.09 151.25 188.09 165.25ZM193.49 145.8C200.39 145.8 206.54 151.7 206.54 165.25C206.54 178.9 200.39 184.85 193.49 184.85C186.54 184.85 180.49 178.9 180.49 165.25C180.49 151.7 186.54 145.8 193.49 145.8ZM218.51 165.25C218.51 179.35 220.96 183.1 223.91 183.1C226.86 183.1 229.41 179.3 229.41 165.25C229.41 151.3 226.86 147.55 223.91 147.55C220.96 147.55 218.51 151.25 218.51 165.25ZM223.91 145.8C230.81 145.8 236.96 151.7 236.96 165.25C236.96 178.9 230.81 184.85 223.91 184.85C216.96 184.85 210.91 178.9 210.91 165.25C210.91 151.7 216.96 145.8 223.91 145.8Z" fill="black"/>
<path d="M131.1 212.75C131.85 213 132.55 213.225 133.175 213.475C133.85 211.325 134.225 209.05 134.4 206.825C133.775 207 133.125 207.15 132.45 207.325C132.025 209.25 131.55 211.175 131.1 212.75ZM140.125 204.7L140.15 205.025C139.45 205.275 138.725 205.525 137.925 205.775C137.6 208.95 137 212 135.7 214.7C140.725 217.7 137.5 220.675 135.3 219.25C134.95 218.65 134.525 218.05 134 217.45C132.525 219.375 130.525 221.05 127.775 222.35L127.525 222.125C129.725 220.3 131.275 218.075 132.325 215.7C131 214.45 129.5 213.325 128.1 212.525C128.425 211.4 128.8 209.825 129.15 208.125L128.725 208.225C128.55 208.55 128.25 208.75 127.925 208.8L127.35 205.25C127.95 205.275 128.75 205.275 129.725 205.25C130.2 202.6 130.6 200.05 130.725 198.65L134.95 199.275C134.875 199.575 134.75 199.85 133.95 199.925C133.725 201.225 133.35 203.1 132.925 205.15L134.5 205.075C134.525 204.15 134.525 203.25 134.5 202.35L139.075 203.125C138.975 203.525 138.7 203.75 138.1 203.8L138.025 204.875C138.725 204.825 139.425 204.75 140.125 204.7ZM146.75 209.925L148.5 207.525C148.5 207.525 150.45 209.15 151.6 210.225C151.525 210.5 151.25 210.625 150.9 210.625H145.7V218.425C145.7 220.775 145.2 222.05 141.5 222.375C141.425 221.25 141.325 220.45 140.95 219.9C140.575 219.375 140.1 219 138.875 218.775V218.45C138.875 218.45 141.275 218.6 141.775 218.6C142.1 218.6 142.225 218.475 142.225 218.225V210.625H137.9L137.7 209.925H142.225V205.725L144.55 205.925C145.05 204.65 145.575 202.95 145.95 201.75H138.625L138.4 201.05H145.85L147.7 199.25L150.775 201.975C150.55 202.2 150.3 202.275 149.75 202.325C148.625 203.375 146.95 204.875 145.425 206L146.575 206.1C146.525 206.475 146.275 206.7 145.7 206.775V209.925H146.75ZM156.275 198.8L156.45 198.7C163.425 199.75 159.425 204.525 156.825 202C156.925 200.825 156.625 199.625 156.275 198.8ZM166.55 215.575H171.525V212.8H166.55V215.575ZM160.15 209.175V209.55C160.9 209.825 161.5 210.125 161.95 210.45L161.825 210H173.7L174.625 208.85C174.225 208.95 173.75 209 173.2 209H172.65V208.675H165.625V208.8C165.625 209 164.7 209.5 163.15 209.5H162.6V205.5C162.475 205.525 162.35 205.525 162.2 205.55C161.7 206.75 161 207.975 160.15 209.175ZM166.4 202.35H165.625V204.825H166.4V202.35ZM169.5 202.35H168.7V204.825H169.5V202.35ZM172.65 202.35H171.8V204.825H172.65V202.35ZM171.8 205.525V207.975H172.65V205.525H171.8ZM168.7 205.525V207.975H169.5V205.525H168.7ZM165.625 205.525V207.975H166.4V205.525H165.625ZM173.2 220.425L174.9 218.25C174.9 218.25 176.85 219.7 178.025 220.725C177.95 221 177.675 221.125 177.325 221.125H161.175L160.975 220.425H169.65C170.075 219.225 170.5 217.6 170.75 216.475L171.525 216.725V216.275H166.55V216.725C166.55 216.775 166.475 216.85 166.325 216.95C170.4 218.55 167.3 221.7 165.375 219.7C165.45 218.9 165.325 218.025 165.15 217.325C164.825 217.375 164.45 217.4 164.025 217.4H163.475V210.85L166.8 212.1H171.425L172.675 210.7H162.275C164.675 212.725 162.55 215.25 160.775 213.65C160.75 212.725 160.475 211.725 160.15 210.825V221.325C160.15 221.525 159.1 222.325 157.5 222.325H156.9V212.825C155.95 213.675 154.9 214.45 153.8 215.075L153.575 214.9C156.125 211.95 158 208.075 158.75 204.775H154.275L154.05 204.075H158.575L160.35 202.35L162.6 204.5V200.4L165.9 201.65H166.4V198.75L169.225 199.025C169.2 199.25 169.05 199.425 168.7 199.5V201.65H169.5V198.75L172.45 199.025C172.4 199.3 172.25 199.475 171.8 199.575V201.65H172.55L174 200L176.775 202.075C176.6 202.3 176.375 202.45 175.825 202.55V208.375C175.825 208.425 175.7 208.5 175.475 208.6C176 209 176.95 209.725 177.625 210.3C177.575 210.575 177.3 210.7 176.95 210.7H173.175L175.65 212.525C175.5 212.75 175.275 212.9 174.725 212.975V216.425C174.725 216.525 173.825 216.95 172.325 217L174.425 217.7C174.3 218 174 218.175 173.45 218.125C172.7 218.8 171.525 219.675 170.4 220.425H173.2ZM185.125 209.825H188.55V205.95H185.125V209.825ZM185.125 205.25H188.55V201.525H185.125V205.25ZM188.3 200.825L189.825 199.15L192.95 201.55C192.775 201.75 192.45 201.975 191.95 202.075V211.175C191.9 211.35 190.25 211.975 189.125 211.975H188.55V210.525H185.125V216.375C186.175 215.95 187.325 215.45 188.525 214.925C188.225 213.95 187.85 213.05 187.425 212.225L187.675 212.1C195.4 215.825 192.2 222.475 189.2 219.525C189.25 218.375 189.1 217.15 188.825 215.975C187.625 217.225 186.025 218.775 184.1 220.45C183.85 221 183.475 221.4 183.125 221.6L180.925 217.775C181.675 217.25 181.8 216.975 181.8 216.3V199.45L185.475 200.825H188.3ZM200.575 199.2L203.65 201.575C203.5 201.775 203.2 201.975 202.725 202.075V214.225C202.725 216.525 202.275 217.825 198.9 218.125C198.875 216.975 198.775 216.1 198.525 215.6C198.25 215.05 197.875 214.7 196.95 214.475V214.15C196.95 214.15 198.525 214.25 198.925 214.25C199.275 214.25 199.35 214.1 199.35 213.8V201.575H196.6V221.075C196.6 221.5 195.325 222.35 193.8 222.35H193.225V199.425L196.7 200.875H199.1L200.575 199.2ZM214.45 208.2H221.925V205.35H214.45V208.2ZM214.65 204.65H221.675L223.25 202.9L226.625 205.4C226.475 205.6 226.175 205.825 225.65 205.95V209.2C225.625 209.375 223.725 209.925 222.575 209.925H221.925V208.9H214.45V209.375C214.45 209.675 212.8 210.45 211.325 210.45H210.825V203.225L214.65 204.65ZM206.9 202.9L206.7 202.2H217.1C217 202.15 216.9 202.1 216.8 202.025C216.675 200.775 216 199.45 215.275 198.65L215.425 198.525C220.8 198.325 220.85 201.225 219.325 202.2H224.75L226.6 199.65C226.6 199.65 228.7 201.35 229.925 202.5C229.85 202.775 229.55 202.9 229.2 202.9H206.9ZM225 215.45L226.85 213C226.85 213 228.95 214.65 230.2 215.75C230.15 216.025 229.85 216.15 229.475 216.15H220V218.375C220 220.8 219.375 222.05 215.2 222.375C215.1 221.25 214.95 220.475 214.45 219.925C213.975 219.425 213.425 219.05 211.875 218.775V218.475C211.875 218.475 215.125 218.675 215.7 218.675C216.025 218.675 216.15 218.575 216.15 218.275V216.15H206.55L206.35 215.45H216.15V212.8L219.725 213.075C220.8 212.625 221.875 212.125 222.775 211.65H208.8L208.575 210.95H223.7L225.7 209.175L228.775 212.1C228.55 212.325 228.3 212.4 227.725 212.425C225.675 213 222.625 213.5 220 213.85V215.45H225ZM235.3 199.5L235.475 199.375C243.25 200.35 239.8 206.25 236.7 203.7C236.65 202.175 236.025 200.6 235.3 199.5ZM247.425 212.5L249.025 211C248.725 210.475 248.475 209.95 248.3 209.475H241.7C240.85 210.575 239.825 211.6 238.625 212.5H247.425ZM255.65 209.475H249.025C250.175 210.45 252.725 211.25 256.625 211.65V211.975C255.05 212.35 254.225 213.05 254.175 214.95C253.2 214.65 252.35 214.225 251.625 213.725C251.5 213.75 251.375 213.775 251.25 213.8C251 218.525 250.5 220.7 249.175 221.625C248.325 222.2 247.325 222.475 245.65 222.475C245.65 221.475 245.55 220.65 245.1 220.15C244.65 219.625 243.825 219.225 242.7 218.975V218.725C243.75 218.8 245.4 218.875 245.9 218.875C246.275 218.875 246.475 218.825 246.65 218.675C247.15 218.275 247.45 216.425 247.65 213.2H244.725C243.575 217.925 240 221 233.55 222.375L233.45 222.1C237.975 220.05 240.1 217.025 240.675 213.2H237.625C236.2 214.1 234.575 214.875 232.65 215.475L232.475 215.225C235.15 213.675 237.1 211.7 238.525 209.475H233.05L232.85 208.775H238.95C239.525 207.75 240.025 206.65 240.425 205.55H234.325L234.125 204.85H240.65C241.35 202.75 241.725 200.55 241.95 198.375L246.775 199.425C246.7 199.725 246.5 199.925 245.825 199.975C245.45 201.625 244.975 203.275 244.325 204.85H247.125C247.7 203.225 248.425 200.975 248.825 199.3L252.725 201.275C252.575 201.525 252.225 201.7 251.675 201.625C250.7 202.575 249.4 203.85 248.05 204.85H250.675L252.275 202.475C252.275 202.475 254.125 204.1 255.15 205.15C255.1 205.425 254.825 205.55 254.475 205.55H244.025C243.525 206.675 242.925 207.75 242.225 208.775H251.5L253.25 206.225C253.25 206.225 255.25 207.95 256.375 209.075C256.3 209.35 256.025 209.475 255.65 209.475Z" fill="black"/>
<path d="M264.739 161.875H246.839L246.639 161.175H260.139L262.039 158.775C262.039 158.775 264.189 160.375 265.464 161.475C265.389 161.75 265.114 161.875 264.739 161.875ZM266.739 173.9L266.814 177.9C267.739 178.3 267.939 178.725 267.939 179.45C267.939 180.9 266.739 181.625 262.639 181.625H260.439C257.614 181.625 256.939 181 256.939 178.55V168.175H254.314C253.914 174.75 251.864 180.05 243.814 182.375L243.714 182.15C249.114 178.725 250.164 173.775 250.214 168.175H244.289L244.089 167.475H262.039L263.989 164.925C263.989 164.925 266.214 166.625 267.539 167.775C267.464 168.05 267.164 168.175 266.789 168.175H260.639V168.8V177.575C260.639 177.975 260.789 178.1 261.389 178.1H263.089C263.589 178.1 264.064 178.1 264.389 178.075C264.714 178.075 264.864 178 265.039 177.675C265.389 177.125 265.889 175.7 266.489 173.9H266.739Z" fill="black"/>
<ellipse cx="123" cy="164.286" rx="20" ry="19.7143" fill="white"/>
<path d="M128.243 174.2H130.243V167.4H128.243V174.2ZM123.043 167.4V174.2H124.868V167.4H123.043ZM117.168 160.175V164.6C118.018 164.475 118.918 164.325 119.793 164.175V160.175H117.168ZM124.868 160.125H123.043V166.7H124.868V160.125ZM130.243 160.125H128.243V166.7H130.243V160.125ZM131.543 157.7L134.618 160.125C134.443 160.35 134.118 160.55 133.618 160.675V176.125C133.593 176.375 131.993 177.075 130.793 177.075H130.243V174.9H123.043V176C123.043 176.375 121.743 177.15 120.318 177.15H119.793V164.6C119.093 165.075 118.243 165.625 117.168 166.275V173.6C117.168 175.875 116.718 177.075 113.318 177.375C113.268 176.3 113.168 175.525 112.868 175.025C112.593 174.525 112.193 174.175 111.193 173.975V173.625C111.193 173.625 112.968 173.75 113.393 173.75C113.743 173.75 113.843 173.65 113.843 173.4V168.2L112.718 168.8C112.593 169.125 112.293 169.4 111.968 169.45L110.693 165.475C111.368 165.4 112.493 165.275 113.843 165.075V160.175H111.093L110.893 159.475H113.843V153.65L118.068 154.05C118.043 154.425 117.793 154.675 117.168 154.75V159.075L118.293 157.225C118.293 157.225 119.043 157.975 119.793 158.775V158.05L123.218 159.425H124.868V154L129.043 154.4C129.018 154.725 128.843 154.95 128.243 155.05V159.425H129.993L131.543 157.7Z" fill="black"/>
<path d="M114.6 91.4201V90.2601H111.74V91.4201H114.6ZM116.82 88.8401V92.8401H109.64V88.8401H116.82ZM106.2 91.4201V90.2601H103.4V91.4201H106.2ZM108.42 88.8401V92.8401H101.28V88.8401H108.42ZM104.32 99.3001H107.7V98.2201H104.32V99.3001ZM104.32 95.4601V96.5201H107.7V95.4601H104.32ZM113.74 96.5201V95.4601H110.14V96.5201H113.74ZM113.74 99.3001V98.2201H110.14V99.3001H113.74ZM117.92 102.16V104.2H110.14V106.74H107.7V104.2H100.1V102.16H107.7V101.12H102V93.6201H116.18V101.12H110.14V102.16H117.92ZM127.74 92.7001H129.72C129.28 92.3001 128.56 91.7201 128.08 91.4401C128.3 91.2801 128.5 91.1001 128.7 90.9201H125.78C126.28 91.4201 126.78 91.9801 127.06 92.3601L125.5 93.6401H127.74V92.7001ZM133.58 95.2801H130.16V95.9801H133.58V95.2801ZM133.58 98.4801V97.7001H130.16V98.4801H133.58ZM138.22 89.1401V90.9201H134.64C135.12 91.4001 135.62 91.9401 135.9 92.3201L134.16 93.5401C133.84 92.9801 133.08 92.1401 132.48 91.5201L133.36 90.9201H131.58C131.08 91.6001 130.56 92.2201 130.04 92.7001H130.16V93.6401H136.04V95.9801H138.1V97.7001H136.04V100.14H130.16V100.82H136.46V102.56H130.16V103.28H137.74V105.06H130.16V106.74H127.74V105.06H120.34V103.28H127.74V102.56H121.58V100.82H127.74V100.14H122.14V98.4801H127.74V97.7001H119.94V95.9801H127.74V95.2801H122.34V93.6401H125.46C125.12 93.0801 124.4 92.2401 123.8 91.6201L124.72 90.9201H123.2C122.6 91.7401 121.92 92.4401 121.24 93.0001C120.9 92.5601 120.14 91.7601 119.66 91.3601C120.84 90.5001 122 89.2001 122.66 87.8801L124.74 88.5201C124.64 88.7201 124.52 88.9401 124.42 89.1401H128.78V90.8601C129.64 90.0401 130.38 88.9601 130.82 87.8801L132.96 88.4401C132.86 88.6801 132.76 88.9001 132.66 89.1401H138.22ZM144.12 88.1001L146.32 88.8201C145.78 90.2001 145.12 91.6201 144.34 92.9601V106.68H142.08V96.4001C141.62 96.9801 141.14 97.5201 140.68 98.0201C140.46 97.4401 139.8 96.1601 139.4 95.5801C141.26 93.7801 143.08 90.9401 144.12 88.1001ZM147.68 100.34L149.82 100.98C149 102.7 147.78 104.64 146.76 105.86C146.34 105.5 145.46 104.86 144.92 104.58C145.92 103.48 147 101.82 147.68 100.34ZM148.98 91.0201V93.7001H154.84V91.0201H148.98ZM158.22 99.7201H153.04V106.74H150.64V99.7201H145.42V97.5601H150.64V95.8001H146.72V88.9201H157.22V95.8001H153.04V97.5601H158.22V99.7201ZM153.72 101.3L155.48 100.32C156.62 101.64 157.84 103.36 158.42 104.54L156.54 105.68C156 104.5 154.78 102.66 153.72 101.3ZM164.8 101.52V102.36H173.4V101.52H164.8ZM170.08 94.7801H167.38C167.16 95.2401 166.84 95.6601 166.44 96.0401H170.08V94.7801ZM163.78 92.5201L163.64 93.4001H165.54C165.62 93.1201 165.66 92.8201 165.68 92.5201H163.78ZM167.86 90.3401V91.1401H170.08V90.3401H167.86ZM174.42 90.3401H172.34V91.1401H174.42V90.3401ZM170.08 93.4001V92.5201H167.86C167.84 92.8201 167.82 93.1201 167.78 93.4001H170.08ZM175.52 94.7801H172.34V96.0401H174.12C174.04 95.8001 173.96 95.5601 173.84 95.3801C174.32 95.4401 174.74 95.4601 174.96 95.4401C175.14 95.4401 175.26 95.4401 175.38 95.3201C175.44 95.2201 175.5 95.0601 175.52 94.7801ZM173.4 99.4401H164.8V100.26H173.4V99.4401ZM173.4 97.3801H164.8V98.1801H173.4V97.3801ZM175.82 103.7H173.62C175.26 104.26 176.88 104.86 177.94 105.34L176.2 106.76C174.92 106.12 172.68 105.16 170.52 104.46L171.28 103.7H166.4L167.86 104.38C166.22 105.36 163.64 106.28 161.6 106.78C161.24 106.32 160.4 105.46 159.88 105.06C161.7 104.76 163.68 104.3 165.1 103.7H162.48V97.7601C162.02 97.8601 161.52 97.9601 161 98.0401C160.8 97.5201 160.24 96.6201 159.86 96.1801C162.24 95.8801 163.66 95.4001 164.52 94.7801H161.3C161.52 93.7801 161.76 92.3201 161.88 91.1401H165.7V90.3401H161.16V88.9401H165.7V88.0601H167.86V88.9401H170.08V88.0601H172.34V88.9401H176.58V92.5201H172.34V93.4001H177.86C177.86 93.4001 177.84 93.7801 177.84 94.0201C177.74 95.2601 177.62 95.9601 177.28 96.3201C177 96.6401 176.58 96.7801 176.14 96.8001C176.06 96.8001 175.94 96.8201 175.82 96.8201V103.7ZM182.1 106.52L179.96 105.3C180.7 103.76 181.76 101.22 182.54 98.8801L184.46 100.12C183.8 102.26 182.92 104.56 182.1 106.52ZM184.12 95.2801L182.74 97.2001C182.08 96.5801 180.72 95.7801 179.62 95.2801L180.92 93.5401C182.02 93.9601 183.44 94.6601 184.12 95.2801ZM189.68 91.5401V92.6801H193.1V91.5401H189.68ZM195.72 97.6001H192.36V102.88C193 102.16 193.28 101.16 193.36 100.2H193.78L193.74 99.7201H192.82V98.2601H194.8C194.86 100.14 195.12 101.7 195.72 102.66V97.6001ZM187.54 98.2601H189.52C189.56 100 189.78 101.5 190.28 102.46V97.6001H187.04V103.12C187.72 102.34 187.98 101.24 188.06 100.2H188.48L188.44 99.7201H187.54V98.2601ZM195.42 94.6601H192.36V95.6201H197.8V104.7C197.8 105.64 197.64 106.08 197.04 106.38C196.46 106.68 195.64 106.7 194.48 106.7C194.42 106.16 194.18 105.44 193.96 104.96C194.58 104.98 195.24 104.98 195.44 104.96C195.64 104.96 195.72 104.9 195.72 104.7V103.38C195.46 103.6 195.2 103.86 195.06 104.06C194.68 103.62 194.38 103.02 194.18 102.32C193.92 103.02 193.52 103.64 192.94 104.12C192.82 103.92 192.6 103.64 192.36 103.42V106.6H190.28V103.48C190.06 103.68 189.84 103.9 189.72 104.08C189.36 103.64 189.1 103.08 188.88 102.42C188.64 103.16 188.24 103.82 187.68 104.32C187.54 104.1 187.28 103.8 187.04 103.58V106.7H185.02V95.6201H190.28V94.6601H187.46V91.5401H184.74V90.2801L183.48 92.0001C182.84 91.3601 181.48 90.4801 180.38 89.9801L181.72 88.2201C182.74 88.6601 184.02 89.3801 184.74 89.9601V89.4801H187.46V88.0601H189.68V89.4801H193.1V88.0601H195.42V89.4801H198.16V91.5401H195.42V94.6601Z" fill="black"/>
<path d="M156.91 250.152C155.438 247.752 154.558 245.176 154.558 242.024C154.558 238.888 155.438 236.296 156.91 233.912L157.822 234.328C156.43 236.616 155.774 239.304 155.774 242.024C155.774 244.744 156.43 247.448 157.822 249.72L156.91 250.152ZM164.364 240.536L164.524 241.608L162.572 242.216V246.856C162.572 247.512 162.412 247.832 161.996 248.024C161.596 248.2 160.956 248.232 159.9 248.232C159.852 247.928 159.692 247.464 159.532 247.144C160.252 247.16 160.924 247.16 161.116 247.16C161.34 247.16 161.42 247.08 161.42 246.856V242.568L159.324 243.224L159.004 242.072C159.676 241.896 160.508 241.656 161.42 241.384V237.928H159.212V236.824H161.42V233.624H162.572V236.824H164.348V237.928H162.572V241.08C163.164 240.904 163.756 240.712 164.364 240.536ZM169.692 245.912H172.332V242.648H169.692V245.912ZM166.044 242.648V245.912H168.556V242.648H166.044ZM168.556 238.408H166.044V241.528H168.556V238.408ZM172.332 238.408H169.692V241.528H172.332V238.408ZM169.692 237.272H173.5V248.072H172.332V247.048H166.044V248.184H164.908V237.272H168.556V233.64H169.692V237.272ZM175.9 247V245.784H178.508V237.032H176.428V236.104C177.468 235.912 178.22 235.64 178.86 235.272H179.98V245.784H182.332V247H175.9ZM187.815 247.208C185.575 247.208 184.151 245.176 184.151 241.096C184.151 237.016 185.575 235.048 187.815 235.048C190.039 235.048 191.463 237.032 191.463 241.096C191.463 245.176 190.039 247.208 187.815 247.208ZM187.815 246.04C189.143 246.04 190.039 244.552 190.039 241.096C190.039 237.672 189.143 236.232 187.815 236.232C186.471 236.232 185.575 237.672 185.575 241.096C185.575 244.552 186.471 246.04 187.815 246.04ZM196.69 247.208C194.45 247.208 193.026 245.176 193.026 241.096C193.026 237.016 194.45 235.048 196.69 235.048C198.914 235.048 200.338 237.032 200.338 241.096C200.338 245.176 198.914 247.208 196.69 247.208ZM196.69 246.04C198.018 246.04 198.914 244.552 198.914 241.096C198.914 237.672 198.018 236.232 196.69 236.232C195.346 236.232 194.45 237.672 194.45 241.096C194.45 244.552 195.346 246.04 196.69 246.04ZM206.349 246.296H213.453V242.664H206.349V246.296ZM212.829 236.296H206.909C206.573 236.632 206.205 236.936 205.837 237.256C206.925 238.024 208.269 239.032 209.053 239.784C210.589 238.824 211.917 237.64 212.829 236.296ZM214.669 241.56V248.216H213.453V247.384H206.349V248.216H205.181V242.952C204.301 243.256 203.405 243.512 202.525 243.72C202.429 243.4 202.157 242.888 201.917 242.632C203.949 242.216 206.061 241.464 207.949 240.44C207.181 239.672 205.965 238.712 204.909 237.928C204.349 238.312 203.757 238.68 203.117 239C202.941 238.728 202.557 238.28 202.301 238.104C204.877 236.856 206.685 235.08 207.645 233.56L208.973 233.848C208.669 234.296 208.333 234.76 207.933 235.208H213.597L213.789 235.144L214.589 235.64C213.277 238.184 210.973 240.152 208.317 241.56H214.669ZM218.701 250.152L217.805 249.72C219.181 247.448 219.853 244.744 219.853 242.024C219.853 239.304 219.181 236.616 217.805 234.328L218.701 233.912C220.189 236.296 221.069 238.888 221.069 242.024C221.069 245.176 220.189 247.752 218.701 250.152Z" fill="black"/>
<path d="M275.879 89.4601V91.7601H261.679V89.4601H275.879ZM273.219 104.18H275.019C275.679 104.18 275.799 103.66 275.899 100.78C276.419 101.2 277.439 101.62 278.099 101.78C277.859 105.36 277.259 106.4 275.219 106.4H272.819C270.559 106.4 269.979 105.64 269.979 103.3V97.1801H266.979C266.619 101.34 265.699 104.76 260.919 106.7C260.639 106.1 259.979 105.22 259.439 104.76C263.599 103.2 264.159 100.5 264.399 97.1801H259.879V94.8601H277.719V97.1801H272.439V103.3C272.439 104.06 272.559 104.18 273.219 104.18Z" fill="black"/>
<path d="M205.352 103.31H217.922V107H202.892V104.3C204.632 102.41 206.312 100.52 207.782 98.8401C211.052 95.1501 212.522 93.1701 212.522 89.9301C212.522 86.9601 211.112 85.1001 208.802 85.1001C208.442 85.1001 208.052 85.1301 207.662 85.2201L207.002 88.1901C206.672 90.2001 205.682 90.6801 204.752 90.6801C203.882 90.6801 203.162 90.2001 202.802 89.4501C203.072 86.0001 206.462 84.0801 210.482 84.0801C215.222 84.0801 217.412 86.6601 217.412 90.2301C217.412 93.4401 214.622 95.7801 209.072 100.16C208.112 100.94 206.732 102.08 205.352 103.31ZM225.254 95.7501C225.254 104.21 226.724 106.46 228.494 106.46C230.264 106.46 231.794 104.18 231.794 95.7501C231.794 87.3801 230.264 85.1301 228.494 85.1301C226.724 85.1301 225.254 87.3501 225.254 95.7501ZM228.494 84.0801C232.634 84.0801 236.324 87.6201 236.324 95.7501C236.324 103.94 232.634 107.51 228.494 107.51C224.324 107.51 220.694 103.94 220.694 95.7501C220.694 87.6201 224.324 84.0801 228.494 84.0801ZM243.506 95.7501C243.506 104.21 244.976 106.46 246.746 106.46C248.516 106.46 250.046 104.18 250.046 95.7501C250.046 87.3801 248.516 85.1301 246.746 85.1301C244.976 85.1301 243.506 87.3501 243.506 95.7501ZM246.746 84.0801C250.886 84.0801 254.576 87.6201 254.576 95.7501C254.576 103.94 250.886 107.51 246.746 107.51C242.576 107.51 238.946 103.94 238.946 95.7501C238.946 87.6201 242.576 84.0801 246.746 84.0801Z" fill="black"/>
<g clip-path="url(#clip0_747_3417)">
<path fill-rule="evenodd" clip-rule="evenodd" d="M73.8277 10.7553C73.8277 10.7553 47.733 44.6713 44.2765 49.2836C40.8223 53.8933 9.2401 90.4849 9.2401 90.4849L23.2173 102.943C23.2173 102.943 26.6842 103.004 27.9458 102.815C29.21 102.629 32.6022 101.502 36.4189 104.75C40.2334 108.001 39.4564 113.701 38.4291 114.69C37.4017 115.679 38.4058 116.328 38.4058 116.328L53.8548 128.349C53.8548 128.349 85.6497 86.8934 88.1514 83.8766C90.6531 80.8598 120.209 47.2061 120.209 47.2061C120.209 47.2061 115.747 42.9322 112.761 39.7262C109.775 36.5203 103.366 34.883 100.242 35.6024C97.1186 36.3268 94.9283 37.086 92.5399 34.0036C90.1537 30.9185 88.4899 28.0283 89.2694 25.7502C90.0489 23.4722 88.977 22.0278 88.977 22.0278L73.8277 10.7553Z" fill="#FBFBFB"/>
<path fill-rule="evenodd" clip-rule="evenodd" d="M79.5783 8.28421C79.5783 8.28421 50.428 46.64 40.0076 62.6981C29.5871 78.7562 15.2168 90.7446 15.2168 90.7446C15.2168 90.7446 17.2519 94.1309 20.9441 96.807C24.7799 99.5931 24.5694 96.2049 30.4062 95.8895C37.046 95.5329 39.6954 98.717 42.8684 104.084C46.0392 109.455 45.3349 113.058 45.3349 113.058L61.3012 124.305C61.3012 124.305 97.9011 76.4718 102.775 71.3498C107.648 66.2277 126.457 48.3204 126.457 48.3204C126.457 48.3204 111.973 36.2404 109.51 33.1422C107.048 30.044 102.703 34.1725 97.8023 32.8263C92.9014 31.4801 90.5604 30.278 91.9685 24.0221C93.2869 18.1739 86.7887 14.1349 86.7887 14.1349L79.5783 8.28421Z" fill="#FFFAF1"/>
<path d="M103.622 33.2085C103.278 33.0467 102.795 33.0735 102.488 33.3102C99.7165 35.4925 95.613 35.7164 92.7933 33.4149C89.9791 31.118 89.304 26.6191 91.2209 23.558C91.5137 23.0938 91.5775 22.4673 91.0762 22.0837C85.6456 17.9063 80.1064 13.8822 74.4842 9.96371C74.0348 9.6507 73.3076 9.5894 72.9542 10.1044C67.504 17.9482 61.8992 25.673 56.1294 33.2748C55.8616 33.6311 55.5937 33.9875 55.3276 34.3361C40.5233 53.7876 24.7029 72.4379 7.91762 90.2421C7.55921 90.6243 7.60935 91.4188 8.06057 91.7241C11.973 94.3901 19.7213 102.046 22.4237 104.25C23.1534 104.841 23.9388 105.571 24.949 105.541C26.1399 105.509 27.1295 104.36 28.1503 103.912C30.7493 102.771 34.1158 102.992 36.4185 104.745C39.0139 106.723 38.6142 112.823 36.1744 114.849C35.6761 115.267 35.4827 116.144 36.1076 116.585C41.9768 120.749 47.8555 124.908 53.7297 129.072C54.2146 129.415 54.9676 129.456 55.3544 128.923C65.822 114.529 76.595 100.361 87.7512 86.4967C90.4795 83.1122 95.1086 77.4523 99.7773 71.8389C100.192 71.3334 100.612 70.8324 101.027 70.3319C106.086 64.2705 110.991 58.5047 113.354 56.0108C115.74 53.4947 117.28 51.8428 121.128 48.363C122.387 47.227 122.037 45.8117 120.779 44.6534C116.387 40.6117 110.517 36.525 103.622 33.2085ZM119.276 46.5104C110.707 54.8167 103.195 64.0864 102.921 64.4056C101.691 65.8556 100.462 67.3155 99.2381 68.775C98.8136 69.2814 98.3817 69.791 97.9608 70.3097C93.9016 75.1659 89.8905 80.0529 85.9239 84.986C74.9933 98.5781 64.3928 112.444 54.1913 126.595C48.9471 122.925 43.7025 119.251 38.4551 115.575C40.0965 113.479 40.2908 110.702 40.2329 107.996C40.1562 104.613 37.9503 102.448 34.8101 101.433C32.0121 100.526 28.8309 100.776 26.2571 102.209C25.2141 102.795 25.0117 103.072 23.9667 102.389C23.2211 101.895 22.5338 101.247 21.839 100.652C18.3679 96.8881 14.5399 93.6264 10.3302 90.7415C26.7779 73.3001 42.3166 54.9671 56.8577 35.8942C57.1775 35.4753 57.4968 35.0514 57.8165 34.6325C63.3802 27.2959 68.8006 19.8544 74.0675 12.3039C79.1213 15.8474 84.1161 19.4843 89.0662 23.1806C87.1501 27.0458 87.8092 31.9859 91.1372 34.9568C94.4793 37.944 99.645 38.027 103.264 35.5835C109.094 38.4802 114.439 42.1503 119.276 46.5104Z" fill="#1D1D1B"/>
<path d="M60.6384 37.4639C60.7413 37.8339 60.4831 38.1065 60.1195 38.0896C58.8127 38.0389 57.7675 36.8232 56.858 35.8991C56.7888 35.8326 56.7197 35.7661 56.661 35.7036C56.2092 35.2602 55.7683 34.7981 55.3324 34.3356C55.5984 33.987 55.8686 33.6279 56.1342 33.2743C56.6852 33.7313 57.2485 34.1846 57.8167 34.6375L57.9068 34.7121C58.9051 35.5124 60.2782 36.1828 60.6384 37.4639Z" fill="#1D1D1B"/>
<path d="M67.0096 42.0498C65.8379 41.0644 64.6501 40.1207 63.3778 39.2676C62.6421 38.7724 61.8028 39.7291 62.4867 40.3422C63.5523 41.2946 64.6471 42.2117 65.7149 43.1614C66.5771 43.9315 67.3166 44.9441 68.5118 45.0906C68.7916 45.1252 69.1338 44.8902 69.0709 44.5718C68.834 43.3974 67.8949 42.7977 67.0096 42.0498Z" fill="#1D1D1B"/>
<path d="M75.0427 48.8351C74.5036 48.4247 73.73 47.4756 72.964 47.2168C72.9317 47.1947 72.8995 47.1725 72.8604 47.1585C72.8395 47.1504 72.8187 47.1422 72.7978 47.1341C72.5291 47.0307 72.1881 47.1198 72.0723 47.4094C72.0584 47.4484 72.0418 47.4851 72.0229 47.5245C71.928 47.7167 71.9346 48.0251 72.0861 48.1921C72.9405 49.1439 73.9343 49.9497 74.9637 50.7069C75.7204 51.2656 76.5058 51.9674 77.4851 51.6914C77.6223 51.6536 77.7458 51.4714 77.7144 51.326C77.4759 50.1091 75.9663 49.5367 75.0427 48.8351Z" fill="#1D1D1B"/>
<path d="M81.7639 54.2106C81.7593 54.216 81.7598 54.221 81.7553 54.2264C81.1258 53.7641 80.2092 54.4364 80.6885 55.1965C81.4098 56.3364 82.539 57.2453 83.5562 58.1117C84.3956 58.8261 85.2753 59.7806 86.4499 59.6299C86.6959 59.5997 86.9597 59.3594 86.9011 59.0858C86.6662 57.9866 85.7784 57.5305 84.9306 56.8596C83.8573 56.0109 82.9029 54.9577 81.7639 54.2106Z" fill="#1D1D1B"/>
<path d="M91.8424 62.587C91.191 62.0789 90.5788 61.507 89.827 61.159C89.8247 61.1617 89.8252 61.1667 89.8229 61.1694C89.3609 60.9882 88.7034 61.3979 88.9698 61.954C89.7318 63.55 91.5417 64.9039 93.0352 65.7844C93.9455 66.3189 94.7704 64.8911 93.9952 64.2436C93.2996 63.6668 92.5561 63.1421 91.8424 62.587Z" fill="#1D1D1B"/>
<path d="M99.2355 68.7776C99.8316 69.2857 100.397 69.8645 100.995 70.3146C101.003 70.3214 101.011 70.3282 101.024 70.3346C100.609 70.8351 100.189 71.3361 99.7746 71.8416C99.1892 71.3928 98.5228 70.8862 97.9605 70.3096C97.434 69.7675 96.9948 69.1646 96.7983 68.4966C96.6468 67.9853 97.1174 67.54 97.6207 67.7324C98.2076 67.9574 98.7344 68.3437 99.2355 68.7776Z" fill="#1D1D1B"/>
<path d="M19.182 84.8417C17.201 86.4034 15.7079 88.6314 13.8508 90.3601C13.62 90.5773 13.7064 91.0117 13.9296 91.1922C17.0956 93.7533 20.2493 96.3181 23.4979 98.7686C23.8119 99.0061 24.1774 98.5654 23.8859 98.3007C21.0543 95.7139 18.1369 93.2304 15.2169 90.7447C17.0078 89.2457 18.9556 87.5186 19.8235 85.3783C19.9789 85.0021 19.5354 84.5654 19.182 84.8417Z" fill="#1D1D1B"/>
<path d="M106.617 40.8841C105.989 40.492 105.502 41.5571 106.142 41.9406C108.607 43.4202 110.846 45.1669 112.944 47.1176C111.219 48.3316 109.656 49.7443 108.258 51.3353C107.161 52.5872 105.88 54.0091 105.989 55.7657C106.012 56.1204 106.479 56.2458 106.703 55.9865C107.777 54.7192 108.529 53.2403 109.656 51.9934C111.084 50.4096 112.711 49.0413 114.415 47.7639C114.779 47.4917 114.794 46.9852 114.459 46.6843C112.025 44.5007 109.392 42.6117 106.617 40.8841Z" fill="#1D1D1B"/>
<path d="M56.0154 63.0761C48.0456 72.5814 40.2088 82.1373 31.6615 91.1453C31.0855 91.7511 32.0889 92.5786 32.6627 91.9755C41.1844 83.0427 49.4318 73.6024 56.3345 63.3408C56.4801 63.1264 56.1895 62.8716 56.0154 63.0761Z" fill="#1D1D1B"/>
<path d="M77.4586 67.1685C70.2234 73.4173 64.7768 81.9619 59.8033 90.0358C59.7119 90.1849 59.9713 90.3496 60.0677 90.2C65.2915 82.0352 71.8584 75.1266 77.7499 67.4835C77.8911 67.3021 77.6515 67.0025 77.4586 67.1685Z" fill="#1D1D1B"/>
<path d="M47.3317 95.7157C47.1864 95.9075 47.0644 96.1047 46.9731 96.3091C46.8402 96.5248 46.7241 96.7315 46.6224 96.9318C46.5557 97.1566 46.5917 97.3242 46.7309 97.4395C46.8579 97.5862 46.9487 97.7487 47.0083 97.9267C47.0556 98.1083 47.041 98.2981 46.9682 98.4857C46.9134 98.5963 46.8407 98.6784 46.748 98.7346C46.6686 98.8248 46.5832 98.9056 46.4892 98.9745C46.0697 99.2694 45.6442 99.394 45.2103 99.3509C44.7377 99.3768 44.2861 99.3329 43.8533 99.2219C42.9742 98.9107 42.2281 98.4113 41.6095 97.7193C41.43 97.575 41.2612 97.4121 41.1005 97.2284C40.9668 97.0899 40.828 96.9519 40.6806 96.8021C40.5322 96.6423 40.4096 96.4626 40.3028 96.2639C40.1825 96.0814 40.0743 95.8953 39.973 95.7011C39.8785 95.5264 39.7971 95.3303 39.7238 95.1134C39.6845 94.9109 39.6709 94.6885 39.6841 94.4561C39.6501 94.3361 39.6769 94.2206 39.7644 94.1095C39.8426 94.0596 39.9344 94.021 40.0354 93.9991C40.2414 93.945 40.4489 93.9059 40.655 93.8794C40.8893 93.8855 41.1137 93.8925 41.3336 93.9049C41.5127 93.9387 41.6856 93.9857 41.8512 94.0358C42.0237 94.1054 42.2025 94.1618 42.3898 94.2024C42.4841 94.2163 42.5697 94.1909 42.6515 94.1256C42.6839 94.0698 42.7282 94.0331 42.7821 94.0181C42.848 93.9441 42.8934 93.8671 42.9135 93.7873C43.1934 93.6108 43.4119 93.3696 43.5739 93.0632C43.6403 92.65 43.4708 92.4269 43.065 92.3888C42.6516 92.3489 42.225 92.3303 41.7858 92.338C41.5742 92.3323 41.3494 92.348 41.1166 92.3845C40.9038 92.4467 40.6878 92.5018 40.4682 92.5446C40.0561 92.6252 39.6893 92.8398 39.3684 93.1935C39.2877 93.2964 39.2146 93.4011 39.1489 93.5027C39.0817 93.5893 39.013 93.6609 38.938 93.7181C38.8573 93.821 38.7915 93.9225 38.7379 94.0204C38.6763 94.1392 38.6164 94.2502 38.5479 94.3495C38.4218 94.5571 38.3487 94.7674 38.3264 94.983C38.2742 95.2014 38.2437 95.4103 38.235 95.6096C38.2739 96.0734 38.3865 96.4928 38.5733 96.8727C38.7522 97.301 38.9866 97.679 39.2715 98.0071C39.5702 98.3742 39.8788 98.7127 40.2 99.025C40.5388 99.3381 40.8957 99.6294 41.2657 99.8995C41.6112 100.177 41.9815 100.424 42.3739 100.639C42.7464 100.857 43.1552 100.98 43.6013 101.019C43.8398 101.042 44.0738 101.071 44.3 101.098C44.5276 101.112 44.7519 101.092 44.9783 101.041C45.3998 101.032 45.8027 100.907 46.1965 100.66C46.5889 100.292 46.9554 99.8891 47.2977 99.443C47.3165 99.3759 47.3425 99.3057 47.3681 99.2305C47.4218 99.1602 47.4722 99.0827 47.519 98.9929C47.6319 98.7514 47.7565 98.5012 47.8905 98.2451C47.9776 98.0235 48.0588 97.7924 48.1417 97.5536C48.2569 97.3369 48.3186 97.1126 48.3341 96.8775C48.3134 96.6859 48.2543 96.5129 48.1544 96.3613C48.0703 96.163 47.9477 95.9832 47.7961 95.8162C47.6701 95.6796 47.519 95.6507 47.3317 95.7157ZM51.0321 86.5954C50.8461 86.5421 50.6885 86.4435 50.5614 86.2969C50.4804 86.2113 50.3814 86.1476 50.2638 86.1006C50.1654 86.0694 50.065 86.0183 49.965 85.9446C49.7734 85.8592 49.5922 85.7502 49.4263 85.6172C49.3264 85.5711 49.2161 85.5486 49.0974 85.5419C49.0031 85.5279 48.9195 85.4954 48.8491 85.4416C48.6765 85.3444 48.4904 85.2635 48.2907 85.1989C48.0711 85.1362 47.8492 85.0761 47.6229 85.0216C47.5421 84.9913 47.4545 84.9692 47.3629 84.9575C47.27 84.9585 47.1816 84.9541 47.0928 84.9446C46.9067 84.8914 46.7136 84.8689 46.5128 84.8723C46.3012 84.8943 46.0962 84.9584 45.9048 85.0614C45.8176 85.1222 45.7363 85.1925 45.6636 85.2745C45.5628 85.3517 45.4748 85.4301 45.3939 85.5054C45.3335 85.5838 45.2776 85.6568 45.2239 85.7271C45.1433 85.8576 45.0626 85.9882 44.9743 86.1169C44.9433 86.1876 44.8977 86.237 44.8452 86.267C44.5858 86.4466 44.4768 86.6502 44.514 86.883C44.42 86.9519 44.3682 87.0421 44.3537 87.154C44.32 87.2501 44.2819 87.3516 44.2338 87.454C44.1883 87.6366 44.1572 87.8129 44.1429 87.98C44.1042 88.1821 44.0818 88.3701 44.0834 88.5459C44.0836 88.7343 44.1124 88.9051 44.1746 89.0577C44.2086 89.1777 44.2511 89.2818 44.3027 89.3751C44.3542 89.4407 44.3867 89.5182 44.3919 89.6006C44.4316 89.7804 44.5106 89.9239 44.632 90.0384C44.7777 90.2235 44.9325 90.3978 45.0904 90.5516C45.1916 90.7182 45.2919 90.8748 45.3985 91.0183C46.0223 91.6596 46.7219 92.1984 47.4922 92.6352C47.6717 92.7519 47.8584 92.8654 48.0501 92.9784C48.2362 93.0593 48.4344 93.1089 48.6498 93.1268C49.0624 93.2899 49.4984 93.4082 49.9555 93.4843C50.3357 93.5699 50.7257 93.5215 51.1334 93.3408C51.365 93.2391 51.6003 93.122 51.8318 92.9926C51.9314 92.9558 52.0296 92.9041 52.1213 92.8379C52.2153 92.7689 52.3084 92.69 52.4023 92.5934C52.4436 92.4991 52.5036 92.4157 52.5817 92.3382C52.6813 92.1958 52.79 92.0426 52.9109 91.8858C53.1043 91.6192 53.2654 91.3305 53.4021 91.0214C53.5484 90.7617 53.6339 90.4975 53.651 90.227C53.7113 89.9878 53.6815 89.7794 53.5626 89.612C53.6819 89.4125 53.6952 89.2077 53.6042 88.99C53.5255 88.663 53.3658 88.3836 53.1256 88.1569C52.908 87.903 52.6691 87.6636 52.4168 87.4406C52.1712 87.237 51.9014 87.0683 51.6099 86.9368C51.4087 86.8296 51.217 86.7166 51.0321 86.5954ZM51.3158 88.9792C51.4551 89.1498 51.5845 89.3214 51.7049 89.5038C51.8428 89.6595 51.9775 89.8079 52.1045 89.9546C52.1977 90.142 52.2718 90.3413 52.3315 90.5469C52.3573 90.6324 52.3712 90.7267 52.3725 90.8195C52.3927 90.9006 52.3985 90.988 52.392 91.0791C52.1451 91.4712 51.8184 91.7098 51.4117 91.7949C51.0455 91.909 50.6947 91.9211 50.3617 91.8286C49.9953 91.7819 49.6406 91.6989 49.293 91.5851C48.9544 91.4604 48.6356 91.3063 48.3335 91.1154C47.6808 90.7256 47.1065 90.2356 46.6079 89.6432C46.3621 89.3567 46.123 89.062 45.8908 88.7592C45.7828 88.6284 45.6935 88.4808 45.6231 88.3214C45.5767 88.1774 45.5236 88.0416 45.4651 87.9012C45.3866 87.7627 45.3728 87.5905 45.4237 87.3848C45.4492 87.282 45.4719 87.1769 45.4946 87.0717C45.5346 86.9902 45.5542 86.9054 45.5552 86.8098C45.5816 86.5838 45.7035 86.4645 45.9255 86.4466C46.1317 86.4478 46.3299 86.4698 46.5227 86.5149C46.9768 86.639 47.417 86.7744 47.8485 86.9257C48.2869 87.0689 48.6969 87.2573 49.0758 87.4889C49.456 87.7354 49.8399 87.9664 50.235 88.1839C50.6374 88.3982 50.9969 88.6642 51.3158 88.9792ZM55.4564 78.4287C54.6591 77.9467 53.8975 77.4161 53.1715 76.837C52.9445 76.4834 52.6397 76.4235 52.2549 76.6599C52.1097 76.8517 51.9585 77.0339 51.8042 77.209C51.69 77.33 51.5857 77.4502 51.4838 77.5676C51.3243 77.9542 51.419 78.1842 51.771 78.2649C51.9558 78.3585 52.1253 78.4761 52.2791 78.6127C52.4464 78.7607 52.6263 78.8824 52.8193 78.9827C53.2064 79.2211 53.5889 79.4648 53.9642 79.7118L54.5419 80.1311C54.7267 80.2247 54.9093 80.321 55.0819 80.4182C55.2669 80.5671 55.4397 80.7195 55.6003 80.8757C55.773 81.0005 55.9429 81.1231 56.1102 81.2434C56.2952 81.3923 56.4707 81.547 56.6368 81.7076C56.7959 81.8488 56.9474 81.9882 57.0957 82.1203C57.4275 82.3863 57.6943 82.7086 57.8934 83.0848C58.0857 83.4968 58.0084 83.901 57.6618 84.3022C57.4304 84.4592 57.1871 84.5972 56.9419 84.7152C56.7628 84.8146 56.5871 84.871 56.4122 84.882C55.9865 84.8458 55.6129 84.6967 55.2942 84.437C54.5508 83.9123 53.8001 83.3907 53.0498 82.8742C52.6695 82.6277 52.3023 82.3599 51.9432 82.0713C51.572 81.8415 51.2107 81.5832 50.8665 81.2932C50.7855 81.2077 50.7023 81.1249 50.6068 81.0457C50.5206 81.0109 50.4329 80.9612 50.3465 80.8987C50.1875 80.7852 50.0207 80.6699 49.8467 80.5577C49.4343 80.4499 49.0838 80.6505 48.798 81.1617C48.6315 81.368 48.5181 81.577 48.4577 81.7886C48.4838 81.9847 48.5741 82.1146 48.7266 82.186C49.0856 82.447 49.4447 82.708 49.8033 82.9641C50.5536 83.5082 51.3125 84.0366 52.0749 84.5495C52.3812 84.7575 52.6847 84.9633 52.9828 85.1646L53.52 85.555C53.6131 85.6092 53.6995 85.6717 53.7791 85.7422C53.8059 85.7599 53.8349 85.7748 53.869 85.7893C53.8868 85.8178 53.914 85.8404 53.9386 85.8608C53.9982 85.9332 54.0727 85.9766 54.158 86.0014C54.3443 86.11 54.5278 86.2162 54.7058 86.318C55.0054 86.5618 55.3638 86.657 55.7843 86.6108C56.2379 86.4912 56.6722 86.2729 57.0943 85.9526C57.3204 85.8188 57.5201 85.6446 57.6933 85.4302C57.8534 85.2094 58.0385 85.014 58.2418 84.852C58.3021 84.6128 58.4322 84.3948 58.6323 84.198C58.7453 84.1172 58.8038 84.0188 58.8129 83.9024C58.9448 83.7822 59.0285 83.6313 59.0618 83.4523C59.1534 83.3308 59.2285 83.1958 59.2819 83.0426C59.3018 82.9076 59.2922 82.7803 59.2528 82.6558C59.2269 82.5149 59.2077 82.3659 59.1926 82.2065C59.1946 81.8821 59.1358 81.5809 59.0142 81.3056C58.8561 81.0689 58.6604 80.8607 58.4349 80.6829C58.2215 80.4462 57.9854 80.2367 57.7264 80.0495C57.4955 79.8671 57.2636 79.6749 57.038 79.4694C56.5218 79.1148 55.9889 78.7693 55.4564 78.4287ZM58.9753 69.9659C58.7962 69.9321 58.609 69.9191 58.4164 69.9293C58.3236 69.9579 58.228 69.9843 58.1375 70.0102C58.0488 70.056 57.9624 70.0992 57.8683 70.1405C57.6433 70.2064 57.433 70.3212 57.2391 70.4773C57.1597 70.5675 57.0766 70.6455 56.9889 70.7013C56.9002 70.7471 56.822 70.7971 56.7493 70.8515C56.6473 70.9689 56.5434 71.0664 56.4282 71.1499C56.3288 71.242 56.2339 71.3286 56.1491 71.4143C55.9827 71.6482 55.8172 71.8644 55.648 72.0685C55.4422 72.2834 55.2517 72.5019 55.078 72.7114C54.9316 72.9435 54.7892 73.1652 54.6459 73.3769L54.6268 73.361C54.5801 73.4784 54.5161 73.5722 54.438 73.6498C54.383 73.7327 54.338 73.8148 54.298 73.8963C54.2242 74.0464 54.1903 74.1927 54.1986 74.3327C54.3233 74.5876 54.5206 74.7604 54.7866 74.8616C55.1525 75.1421 55.5179 75.4176 55.8838 75.6981C56.2561 75.9654 56.6287 76.2377 57.0009 76.5051C57.3519 76.7869 57.6961 77.0769 58.0281 77.3706C58.7595 77.9542 59.5076 78.5011 60.2728 79.0163C60.4633 79.1696 60.6555 79.3153 60.8414 79.4465C61.0399 79.5514 61.2198 79.673 61.3817 79.8165C61.4816 79.9957 61.6369 80.0694 61.8498 80.0348C61.9818 79.9422 62.106 79.8202 62.2201 79.6715C62.3354 79.4825 62.4589 79.3003 62.5906 79.1249C62.7305 78.9838 62.8183 78.8225 62.8516 78.6435C62.8333 78.3713 62.7012 78.1975 62.4626 78.1189C61.8661 77.7666 61.2963 77.3767 60.7576 76.9438C60.4783 76.8086 60.2374 76.6272 60.0294 76.395C59.9415 76.1568 60.009 75.9144 60.2293 75.6655C60.4886 75.325 60.7206 74.9619 60.9181 74.5794C61.0162 74.3945 61.1315 74.2055 61.2591 74.0128C61.3531 73.8383 61.4363 73.6548 61.5085 73.4622C61.5634 73.3516 61.6124 73.2315 61.6581 73.1042C61.6726 72.9922 61.6894 72.8776 61.7184 72.7594C61.772 72.6615 61.7879 72.5645 61.769 72.4707C61.7433 72.3852 61.7139 72.2873 61.6813 72.1823C61.6837 72.074 61.6728 71.9594 61.651 71.8358C61.6104 71.7516 61.5697 71.6673 61.5213 71.5813C61.4685 71.3952 61.384 71.2195 61.2728 71.0538C60.9608 70.7584 60.6108 70.5141 60.2276 70.3156C59.8348 70.1231 59.4187 70.003 58.9753 69.9659ZM59.8483 72.7328C60.1146 73.0224 60.2492 73.3819 60.2581 73.8209C60.2449 74.0533 60.1814 74.2853 60.0676 74.5169C60.0422 74.6197 60.0063 74.7185 59.9672 74.8101C59.8947 74.9198 59.8371 75.0281 59.7967 75.1323C59.7645 75.2433 59.7027 75.3345 59.6169 75.4102C59.5443 75.5199 59.4676 75.6124 59.3873 75.6926C59.2204 75.7884 59.0925 75.765 59.0086 75.6219C58.6575 75.3124 58.287 75.0098 57.9024 74.7184C57.5379 74.4529 57.1685 74.1878 56.7958 73.9155C56.6094 73.7793 56.4236 73.6482 56.2372 73.512C56.0969 73.437 55.9882 73.3238 55.9083 73.1703C55.8754 72.9824 55.9363 72.8034 56.0884 72.6311C56.2404 72.4312 56.411 72.2421 56.598 72.0666C56.9975 71.7735 57.408 71.6227 57.8268 71.6119C58.6896 71.6984 59.3636 72.0737 59.8483 72.7328ZM67.9279 64.4663C67.7419 64.413 67.5843 64.3144 67.4573 64.1678C67.3763 64.0823 67.2772 64.0185 67.1596 63.9715C67.0612 63.9404 66.9608 63.8893 66.8608 63.8155C66.6692 63.7301 66.488 63.6211 66.3221 63.4881C66.2222 63.442 66.112 63.4195 65.9932 63.4128C65.8989 63.3989 65.8153 63.3663 65.7449 63.3125C65.5723 63.2153 65.3862 63.1344 65.1865 63.0698C64.9669 63.0071 64.745 62.9471 64.5187 62.8925C64.4379 62.8622 64.3503 62.8401 64.2587 62.8284C64.1658 62.8294 64.0774 62.825 63.9886 62.8156C63.8025 62.7623 63.6094 62.7399 63.4086 62.7432C63.197 62.7652 62.992 62.8293 62.8006 62.9323C62.7134 62.9931 62.6321 63.0634 62.5594 63.1455C62.4587 63.2226 62.3706 63.3011 62.2897 63.3763C62.2293 63.4548 62.1734 63.5278 62.1197 63.598C62.0391 63.7286 61.9584 63.8591 61.8701 63.9879C61.8391 64.0586 61.7935 64.108 61.741 64.1379C61.4816 64.3176 61.3727 64.5211 61.4098 64.7539C61.3158 64.8228 61.264 64.913 61.2495 65.025C61.2159 65.121 61.1777 65.2225 61.1296 65.325C61.0841 65.5076 61.053 65.6838 61.0387 65.851C61 66.0531 60.9776 66.2411 60.9792 66.4168C60.9795 66.6053 61.0082 66.776 61.0704 66.9286C61.1044 67.0486 61.147 67.1528 61.1985 67.246C61.25 67.3117 61.2825 67.3891 61.2878 67.4715C61.3274 67.6513 61.4064 67.7949 61.5278 67.9093C61.6736 68.0945 61.8283 68.2687 61.9862 68.4226C62.0874 68.5892 62.1877 68.7458 62.2943 68.8893C62.9181 69.5305 63.6177 70.0693 64.388 70.5061C64.5675 70.6228 64.7542 70.7363 64.9459 70.8494C65.132 70.9303 65.3303 70.9799 65.5456 70.9978C65.9582 71.1609 66.3942 71.2791 66.8513 71.3552C67.2315 71.4409 67.6215 71.3925 68.0292 71.2117C68.2609 71.11 68.4961 70.9929 68.7277 70.8636C68.8272 70.8268 68.9254 70.775 69.0171 70.7088C69.1111 70.6399 69.2042 70.5609 69.2981 70.4644C69.3372 70.3728 69.3994 70.2867 69.4775 70.2091C69.5772 70.0668 69.6858 69.9136 69.8067 69.7567C70.0001 69.4901 70.1613 69.2014 70.2979 68.8923C70.4442 68.6326 70.5297 68.3684 70.5469 68.098C70.6071 67.8587 70.5773 67.6504 70.4584 67.4829C70.5778 67.2835 70.591 67.0787 70.5 66.8609C70.4213 66.5339 70.2616 66.2546 70.0214 66.0279C69.8038 65.774 69.565 65.5346 69.3126 65.3115C69.0671 65.1079 68.7972 64.9392 68.5057 64.8077C68.3068 64.6978 68.1129 64.5875 67.9279 64.4663ZM68.2139 66.8474C68.3532 67.018 68.4826 67.1896 68.6029 67.372C68.7408 67.5277 68.8756 67.6762 69.0026 67.8228C69.0957 68.0102 69.1699 68.2095 69.2296 68.4151C69.2553 68.5007 69.2693 68.5949 69.2705 68.6877C69.2908 68.7688 69.2966 68.8562 69.2901 68.9473C69.0432 69.3394 68.7164 69.578 68.3098 69.6631C67.9435 69.7772 67.5928 69.7893 67.2598 69.6968C66.8934 69.6501 66.5386 69.5671 66.191 69.4533C65.8525 69.3286 65.5337 69.1745 65.2316 68.9836C64.5788 68.5938 64.0045 68.1038 63.506 67.5114C63.2602 67.2249 63.0211 66.9302 62.7888 66.6274C62.6809 66.4966 62.5915 66.349 62.5211 66.1896C62.4748 66.0456 62.4217 65.9098 62.3632 65.7694C62.2847 65.6309 62.2709 65.4588 62.3218 65.2531C62.3472 65.1502 62.3699 65.0451 62.3926 64.94C62.4327 64.8584 62.4523 64.7737 62.4533 64.6781C62.4796 64.452 62.6015 64.3327 62.8236 64.3148C63.0298 64.316 63.2279 64.338 63.4207 64.3831C63.8749 64.5072 64.315 64.6426 64.7466 64.7939C65.185 64.9371 65.595 65.1256 65.9738 65.3571C66.3541 65.6036 66.738 65.8347 67.1331 66.0522C67.5359 66.2714 67.8954 66.5374 68.2139 66.8474ZM76.6313 59.3339C76.0808 59.0151 75.5333 58.676 74.9963 58.3132C74.7887 58.1916 74.5856 58.0645 74.387 57.932C74.1873 57.8398 74.0028 57.7235 73.8404 57.5751C73.6677 57.4503 73.4991 57.315 73.3317 57.167C73.1726 57.0259 73.0152 56.877 72.8628 56.7277C72.1112 56.2238 71.3845 55.69 70.6776 55.1268C70.4858 54.9861 70.3098 54.8264 70.1491 54.6426C70.0221 54.496 69.8725 54.3765 69.7022 54.2766C69.5339 54.2242 69.3727 54.2742 69.2115 54.4298C69.0395 54.6039 68.8774 54.7771 68.7335 54.9562C68.6788 55.0944 68.6049 55.2168 68.5147 55.3256C68.4474 55.4122 68.3912 55.5078 68.3431 55.6103C68.2828 55.744 68.2864 55.8617 68.3539 55.9636C68.5391 56.1677 68.756 56.3337 69.0031 56.4744C69.3622 56.763 69.7276 57.0385 70.1003 57.3108C70.4793 57.57 70.8578 57.8242 71.2358 58.0734C71.433 58.191 71.6116 58.3253 71.764 58.4746C71.8102 58.591 71.7682 58.625 71.6334 58.5821C71.4878 58.5578 71.3391 58.5263 71.1948 58.4893C70.9753 58.4542 70.7526 58.4118 70.5249 58.3699C70.0655 58.2966 69.6097 58.2078 69.1584 58.1136C68.6989 58.0126 68.2326 57.9198 67.7596 57.8351C67.5388 57.8127 67.3243 57.7771 67.1088 57.7316C66.9406 57.7068 66.7693 57.7301 66.5901 57.8019C66.2969 58.05 66.0342 58.3279 65.7992 58.6335L65.8074 58.6403C65.802 58.6634 65.7948 58.6665 65.7879 58.6471C65.686 58.7645 65.5994 58.8855 65.5283 59.0102C65.4666 59.1289 65.4217 59.2386 65.3881 59.3347C65.3214 59.5594 65.3551 59.7297 65.4875 59.8533C65.8331 60.1582 66.2008 60.431 66.5933 60.6738C66.9859 60.9443 67.3726 61.2053 67.7611 61.4586C67.9284 61.6065 68.0953 61.7495 68.2694 61.8893C68.4476 62.0187 68.6185 62.1512 68.7762 62.2775C69.1354 62.5661 69.5031 62.8389 69.882 63.098C70.248 63.3785 70.5994 63.6654 70.9395 63.9658C71.2729 64.2744 71.6352 64.5427 72.029 64.7728C72.2221 64.9008 72.4102 65.0293 72.5966 65.1654C72.7288 65.2613 72.8825 65.2648 73.0548 65.1736C73.2686 65.0157 73.4432 64.8162 73.576 64.5728C73.6675 64.4513 73.7559 64.3226 73.8365 64.192C74.0502 63.901 74.0765 63.6473 73.9184 63.4382C73.8253 63.3839 73.7249 63.3328 73.6196 63.2822C73.5401 63.2392 73.462 63.1836 73.3901 63.1148C73.2053 63.0212 73.0245 62.9172 72.8505 62.8051C72.7654 62.73 72.6799 62.6499 72.6012 62.5616C72.5217 62.5187 72.44 62.4784 72.351 62.4414C72.1715 62.3247 72.0056 62.1917 71.8505 62.0401C71.4846 61.7596 71.1259 61.4759 70.7735 61.1791C70.5953 61.0221 70.4125 60.8706 70.2247 60.7195C70.0398 60.5983 69.8612 60.4639 69.6966 60.3182C69.5888 60.215 69.6135 60.1575 69.7657 60.146C69.992 60.1729 70.2192 60.2099 70.4441 60.2495C70.8958 60.321 71.3412 60.4057 71.783 60.5059C72.2439 60.6218 72.7084 60.7223 73.1787 60.8048C73.4173 60.8557 73.6491 60.9148 73.8687 60.9775C74.0671 61.0548 74.2785 61.1107 74.4958 61.1486C74.8488 61.2669 75.2135 61.349 75.5949 61.3943C75.8209 61.366 76.0249 61.2643 76.2037 61.082C76.2977 61.0131 76.3799 60.9251 76.4524 60.8154C76.5074 60.7325 76.5756 60.6558 76.6614 60.5801C76.8134 60.3802 76.9226 60.154 76.9919 59.9039C77.0081 59.6235 76.8846 59.4338 76.6313 59.3339Z" fill="#1D1D1B"/>
</g>
<defs>
<clipPath id="clip0_747_3417">
<rect width="118.097" height="72.6351" fill="white" transform="translate(0 90.9071) rotate(-50.3326)"/>
</clipPath>
</defs>
</svg>
