<svg width="656" height="509" viewBox="0 0 656 509" fill="none" xmlns="http://www.w3.org/2000/svg">
<rect x="7" y="163" width="495" height="318" rx="20" fill="#FED430"/>
<rect x="1.5" y="157.5" width="492" height="315" rx="18.5" stroke="black" stroke-width="3"/>
<path d="M191.36 278.3H177.4V282.78H191.36V278.3ZM177.4 288.54H191.36V283.9H177.4V288.54ZM195 309.54L197.84 305.62C197.84 305.62 201.04 308.26 202.88 310.02C202.76 310.46 202.32 310.66 201.76 310.66H165.68L165.36 309.54H181.64V303.74H171.56L171.24 302.62H181.64V297.66H175.76C173.16 300.78 170.04 302.94 166.56 304.42L166.16 304.1C168.76 301.26 171.28 296.82 172.8 291.9C172.56 291.94 172.36 291.94 172.16 291.94H171.28V274.74L177.72 277.18H190.96L193.6 274.26L199.08 278.38C198.84 278.7 198.36 279.1 197.52 279.26V290.02C197.48 290.34 194.4 291.34 192.44 291.34H191.36V289.66H177.4V290.06C177.4 290.34 176.68 290.82 175.64 291.26L180.16 293.02C179.96 293.54 179.4 293.82 178.48 293.74C177.92 294.74 177.28 295.66 176.64 296.54H181.64V290.54L189.24 291.14C189.2 291.74 188.92 292.14 187.8 292.3V296.54H192.52L195.32 292.7C195.32 292.7 198.48 295.3 200.32 297.02C200.2 297.46 199.76 297.66 199.16 297.66H187.8V302.62H192.64L195.36 298.86C195.36 298.86 198.48 301.38 200.28 303.1C200.16 303.54 199.72 303.74 199.12 303.74H187.8V309.54H195ZM238.04 278.42L243.04 283.1C242.72 283.46 242.32 283.58 241.48 283.62C240.16 284.9 237.96 286.54 236.12 287.58L236.84 288.18C236.72 288.62 236.28 288.82 235.68 288.82H226.92V295.38H234.72L237.52 291.7C237.52 291.7 240.72 294.18 242.6 295.86C242.48 296.3 242.04 296.5 241.48 296.5H226.92V305.38C226.92 309.22 225.88 311.9 219.24 312.38C219.16 310.42 218.84 308.94 218.04 308.06C217.28 307.22 216.32 306.54 213.68 306.1V305.62C213.68 305.62 219 305.94 220.08 305.94C220.68 305.94 220.92 305.62 220.92 305.18V296.5H205.96L205.64 295.38H220.92V288.82H211.68L211.36 287.7H228.84L231.68 284.1C231.68 284.1 233.72 285.62 235.52 287.1C235.6 285.66 235.64 283.86 235.64 282.42H211.96C212.44 285.58 211.52 287.86 209.92 288.86C208.36 289.86 205.76 289.14 205.08 287.02C204.56 285.02 205.72 283.54 207.36 282.78C208.64 282.14 210.44 280.5 210.4 278.78H210.84C211.24 279.66 211.52 280.5 211.72 281.3H223.76C223.24 281.14 222.68 280.9 222.16 280.5C222.2 278.26 221.24 275.94 219.68 274.62L219.88 274.42C230.4 273.82 229.48 280.22 225.88 281.3H235.2L238.04 278.42ZM261.72 283.7L261.4 282.58H275.32L278.12 278.62C278.12 278.62 281.32 281.3 283.12 283.06C283 283.5 282.56 283.7 282 283.7H261.72ZM266.4 274.62L266.72 274.42C278.68 275.66 273.92 284.9 269.16 281.26C269 278.9 267.8 276.3 266.4 274.62ZM252 295.66L252.56 295.42C259.8 300.7 254.36 306.14 252.68 302.9C252.96 301.18 253 297.94 252 295.66ZM251.76 283.1L252.28 282.82C259.76 287.3 254.72 292.98 252.84 289.82C253 288.18 252.88 285.18 251.76 283.1ZM251.64 281.54V292.18C253.2 292.06 254.88 291.94 256.64 291.78V281.54H251.64ZM261.08 292.46V307.02C261.08 310.14 260.48 311.78 255.84 312.18C255.8 310.82 255.64 309.7 255.24 309.06C254.8 308.42 254.2 307.94 252.76 307.66V307.1C252.76 307.1 255.32 307.3 255.96 307.3C256.52 307.3 256.64 307.06 256.64 306.58V293.94C255.12 294.38 253.44 294.86 251.64 295.38C251.56 301.3 250.88 307.7 245.32 312.34L244.84 312.02C247 307.62 247.28 302.06 247.32 296.5L247.12 296.54C246.84 297.02 246.4 297.38 245.92 297.46L244.76 292.42C245.44 292.42 246.32 292.42 247.32 292.38V278.62L251.2 280.02C251.32 278.34 251.4 275.98 251.44 274.34L258.12 275.58C257.96 276.22 257.44 276.54 256.52 276.62C255.56 277.7 254.08 279.26 252.92 280.42H256.28L258.24 278.18L262.4 281.42C262.2 281.66 261.72 281.94 261.08 282.1V291.38L263.24 291.14L263.28 291.7C262.6 291.94 261.84 292.22 261.08 292.46ZM281.56 300.22L281.72 305.82C282.76 306.38 282.96 306.9 282.96 307.82C282.96 309.62 281.36 310.7 278.12 310.7H276.68C273.64 310.7 273.28 309.66 273.28 306.74V289.62H269.12V296.58C269.12 301.78 268.44 308.34 260.4 312.38L260.08 312.02C263.8 307.62 264.12 301.9 264.12 296.58V286.5L269.88 288.5H272.84L275.2 285.82L279.56 289.42C279.32 289.7 278.92 289.94 278.16 290.06V305.34C278.16 305.82 278.2 305.98 278.48 305.98H278.72H279C279.2 305.98 279.36 305.9 279.56 305.5C279.92 304.82 280.6 302.42 281.16 300.22H281.56ZM314.64 286.9L314.44 286.66C314.68 285.22 314.96 283.18 315.08 281.54H311.64V286.38C311.64 287.46 311.68 287.46 312.64 287.46H316.24H317.48C317.8 287.46 318.36 287.46 318.88 287.3H319.24L319.44 287.34C321.08 288.02 321.36 288.42 321.36 289.22C321.36 291.46 320.2 292.38 315.76 292.38H313.48C314.52 293.26 315.96 294.54 316.96 295.54C316.88 295.98 316.44 296.18 315.84 296.18H306.96V309.06H313.64L316.44 305.18C316.44 305.18 319.6 307.78 321.44 309.54C321.32 309.98 320.88 310.18 320.28 310.18H287.12L286.8 309.06H300.96V296.18H291.4L291.08 295.06H309.68L311.6 292.38C306.44 292.38 305.96 291.62 305.96 286.42V281.54H298.2L304.96 284.78C304.8 285.34 304.32 285.74 302.92 285.74C299.84 290.18 294.96 293.42 286.96 294.3L286.76 293.94C293.52 290.5 296.6 285.98 297.68 281.54H292.12C292.72 284.78 291.68 287.1 290.04 287.98C288.44 288.9 286.4 288.26 285.8 286.42C285.28 284.66 286.36 283.34 287.88 282.66C289.12 281.86 290.48 279.82 290.16 277.58L290.64 277.54C291.16 278.54 291.56 279.5 291.84 280.42H302.4C302 280.26 301.56 279.98 301.16 279.66C301.24 277.66 300.52 275.66 299.64 274.34L299.84 274.18C309 274.26 308.52 279.1 305.56 280.42H314.72L317.72 277.38L322.92 282.26C322.6 282.66 322.2 282.78 321.32 282.82C319.68 284.18 316.88 285.94 314.64 286.9ZM176.44 340.9H180.88V336.42H176.44V340.9ZM180.88 330.82H176.44V335.3H180.88V330.82ZM191.28 330.82H186.84V335.3H191.28V330.82ZM186.84 340.9H191.28V336.42H186.84V340.9ZM191.28 342.02H187.56C191 346.18 197.28 348.94 203 350.1L202.92 350.54C200.72 351.14 199.04 353.06 198.36 355.9C192.64 353.18 189.12 348.78 186.84 342.5V355.62C186.84 356.1 184.36 357.26 182.08 357.26H180.88V348.14C176.84 351.58 171.48 354.26 165.2 356.14L164.96 355.7C170.96 352.38 175.8 347.02 178.44 342.02H176.44V342.78C176.44 343.34 173.8 344.62 171.36 344.62H170.52V327.34L176.8 329.7H180.88V326.1H166.24L165.92 324.98H180.88V319.3L188.32 320.02C188.24 320.58 187.96 321.02 186.84 321.18V324.98H193.32L196.48 320.82C196.48 320.82 200.04 323.58 202.16 325.46C202.04 325.9 201.6 326.1 201 326.1H186.84V329.7H190.88L193.52 326.82L198.92 330.9C198.68 331.22 198.2 331.58 197.4 331.74V342.22C197.36 342.58 194.44 343.86 192.36 343.86H191.28V342.02ZM217.92 339.74H230.16V332.34H217.92V339.74ZM230.16 340.86H227.2V350.74C227.2 354.5 226.24 356.9 219.92 357.3C219.8 355.46 219.64 354.14 219 353.3C218.44 352.5 217.68 351.86 215.52 351.46V351.02C215.52 351.02 219.48 351.26 220.32 351.26C220.92 351.26 221.08 350.98 221.08 350.58V340.86H217.92V341.54C217.92 342.02 215.84 343.06 213.64 343.34L220.04 347.1C219.84 347.46 219.44 347.74 218.48 347.58C215.44 350.58 210.6 353.74 205.16 355.46L204.88 355.1C208.56 351.94 211.96 346.86 213.48 343.34C213.24 343.38 212.96 343.38 212.72 343.38H211.88V328.82L218.24 331.22H229.76L232.4 328.34L237.84 332.42C237.6 332.74 237.12 333.14 236.28 333.3V341.54C236.24 341.86 233.28 343.02 231.24 343.02H230.16V340.86ZM228.8 344.62L229.12 344.38C245.16 346.18 241.84 357.58 235.88 354.38C234.4 350.94 231.36 347.18 228.8 344.62ZM234.24 325.66L237.32 321.66C237.32 321.66 240.84 324.34 242.92 326.14C242.8 326.58 242.36 326.78 241.76 326.78H205.68L205.36 325.66H222.72L222.64 325.62C221.96 323.26 220.16 320.78 218.48 319.3L218.72 319.1C228.68 318.14 229.2 323.9 226.48 325.66H234.24ZM270.84 328.58L277.76 330.14C277.64 330.66 277.16 331.02 276.24 331.06C275.92 332.02 275.56 332.94 275.12 333.78C284.68 336.1 280.64 343.94 276.16 340.78C275.84 339.06 275.04 337.26 274.12 335.7C272.72 337.94 271 339.66 268.92 340.94C272.32 345.3 277.56 348.26 282.92 349.54L282.84 350.02C280.72 350.54 279.04 352.38 278.4 355.14C272.24 351.98 268.76 346.9 266.68 339.02V355.3C266.68 355.9 264.12 357.34 261.92 357.34H260.8V346.46C256.84 350.1 251.36 353.38 245.28 355.26L245 354.78C251.92 351.02 258.12 343.58 260.8 335.98V327.3H245.88L245.56 326.18H260.8V319.54L268.16 320.26C268.08 320.82 267.8 321.22 266.68 321.38V326.18H273.68L276.84 322.3C276.84 322.3 280.36 324.9 282.52 326.66C282.4 327.1 281.92 327.3 281.32 327.3H266.68V337.22C267.12 338.22 267.68 339.18 268.28 340.06C269.76 336.94 270.68 332.82 270.84 328.58ZM251.88 328.62L258.6 330.5C258.44 331.02 257.92 331.38 257.04 331.38C256.64 332.38 256.24 333.3 255.8 334.18C263 336.7 258.32 342.7 254.72 339.42C254.72 338.5 254.56 337.54 254.32 336.62C252.36 339.54 249.96 341.66 247.12 343.18L246.68 342.86C249.16 339.42 251.2 334.22 251.88 328.62ZM302 342.46H306.68V332.1H302V342.46ZM308.6 328.5L313.32 332.06C313.08 332.34 312.6 332.66 311.88 332.82V345.22C311.84 345.54 309.36 346.62 307.56 346.62H306.68V343.58H302V345.9C302 346.38 299.8 347.54 297.68 347.54H296.92V328.9L302.16 330.98H306.28L308.6 328.5ZM293.32 351.46H314.68V324.42H293.32V351.46ZM316.92 320.34L322.04 324.46C321.76 324.82 321.28 325.14 320.48 325.34V354.7C320.4 355.14 317.72 356.42 315.6 356.42H314.68V352.58H293.32V354.58C293.32 355.3 291 356.66 288.56 356.66H287.64V320.9L293.76 323.3H314.28L316.92 320.34ZM333.76 330.62V332.58C341.28 336.62 337.48 342.66 334.68 339.74C334.88 337.86 334.4 335.66 333.76 333.9V355.54C333.76 356.06 331.6 357.3 329.72 357.3H328.76V342.94C327.68 344.66 326.48 346.26 325.08 347.74L324.6 347.34C326.64 342.7 327.72 336.46 328.28 330.62H325.32L325 329.5H328.76V319.22L335.24 319.86C335.16 320.42 334.84 320.82 333.76 320.98V328.78L335.16 326.5C335.16 326.5 337.28 328.62 338.4 329.98C338.32 330.42 337.92 330.62 337.4 330.62H333.76ZM344.4 332.14L344.52 332.1C346.16 333.06 347.12 334.1 347.56 335.02C347.44 333.06 347.36 330.94 347.32 328.74C346.52 329.78 345.52 330.98 344.4 332.14ZM341.16 335.22C342.16 335.14 343.36 335.02 344.56 334.9C344.48 334.02 344.28 333.18 344.08 332.46C343.16 333.46 342.16 334.42 341.16 335.22ZM358.76 333.94C358.6 333.14 358.36 332.42 358.08 331.78C357.32 332.66 356.48 333.46 355.68 334.18C356.64 334.1 357.68 334.02 358.76 333.94ZM362.52 345.58L361.88 352.02C363.28 353.86 363.52 354.82 363.04 355.62C361.72 357.82 358.96 356.86 356.76 355.74C355.36 354.98 354.12 354.02 353.12 352.9C350.16 354.86 346.88 356.14 343.36 356.9L343.12 356.38C346.04 354.98 348.84 352.98 351.24 350.34C349.92 348.06 349.04 345.3 348.44 342.14H345.96C345.84 343.26 345.68 344.38 345.4 345.5C352.96 346.9 349.04 353.34 345.36 350.5C345.32 349.58 345.08 348.62 344.72 347.74C343.32 351.26 340.56 354.58 334.88 357.1L334.44 356.58C339.88 351.98 340.44 346.86 340.56 342.14H337.48L337.16 341.02H348.24C348.04 339.86 347.88 338.62 347.76 337.38C347.28 338.66 345.76 339.14 344.6 337.78C344.68 337.3 344.68 336.78 344.68 336.26C343.48 337.1 341.92 338.14 340.36 339.14C340.16 339.42 339.92 339.62 339.68 339.74L337.72 335.62C337.72 335.62 338.44 335.46 338.76 335.22C340 334.1 341.44 331.78 342.56 329.5C341.92 329.98 341.2 330.5 340.48 331.06C340.2 331.58 339.88 331.94 339.48 332.14L337.32 327.5C337.32 327.5 338.08 327.3 338.4 327.14C339.64 325.94 341.16 322.02 341.56 320.06L346.96 322.38C346.8 322.74 346.4 323.06 345.64 322.98C344.28 324.54 342.2 326.38 340.36 327.66C341.28 327.62 342.4 327.54 343.48 327.46C343.84 326.66 344.08 325.94 344.28 325.34L347.28 327.06C347.24 324.7 347.24 322.26 347.24 319.7L353.6 320.38C353.56 320.9 353.2 321.38 352.16 321.58C352.12 323.58 352.08 325.5 352.08 327.34C352.24 327.26 352.36 327.22 352.48 327.14C353.52 325.9 354.68 321.94 354.92 319.94L360.6 322.3C360.44 322.66 360.04 322.94 359.32 322.94C358.08 324.42 356.32 326.14 354.72 327.42C355.36 327.38 356.08 327.34 356.8 327.26C357.08 326.42 357.32 325.62 357.44 324.98L362.48 327.54C362.32 327.9 361.84 328.18 361.08 328.1C360.32 329.18 359.32 330.42 358.24 331.62L358.52 331.5C365.44 334.7 361.56 339.9 359.04 337.18C359.12 336.58 359.08 335.98 359.04 335.34C358.24 335.86 357.28 336.5 356.28 337.1C361.08 338.58 357.56 342.42 355.2 340.1C355.32 339.46 355.24 338.78 355.08 338.18C354.92 338.38 354.72 338.58 354.48 338.66L352.44 334.46C352.44 334.46 353.16 334.26 353.44 334.06C354.2 333.22 355.08 331.62 355.8 329.86L354.72 330.7C354.4 331.42 353.96 331.9 353.52 332.1L352.08 328.86C352.08 333.54 352.28 337.62 352.88 341.02H357.84L359.72 338.7C359.72 338.7 361.84 340.3 363.16 341.5C363.08 341.94 362.68 342.14 362.12 342.14H353.12C353.44 343.66 353.84 345.02 354.4 346.22C355.2 344.94 355.92 343.58 356.52 342.14L361.84 345.22C361.56 345.66 361.12 345.82 360.12 345.62C359.16 347.14 358.08 348.5 356.92 349.74C357.44 350.18 358 350.58 358.64 350.94C359.28 351.3 359.52 351.26 359.88 350.62C360.48 349.54 361.48 347.26 362.12 345.54L362.52 345.58ZM385.36 323.74H382.32V327.78H385.36V323.74ZM393.2 328.9H390.36V334.9H393.2V328.9ZM382.32 328.9V334.9H385.36V328.9H382.32ZM374.84 328.9V334.9H377.4V328.9H374.84ZM377.4 323.74H366.12L365.8 322.62H394.12L397 319.26C397 319.26 400.24 321.5 402.24 323.1C402.12 323.54 401.68 323.74 401.08 323.74H390.36V327.78H392.8L395.32 325.02L400.56 328.94C400.32 329.26 399.84 329.66 399 329.82V336.34C398.96 336.66 396.32 337.66 394.4 337.74C395.4 338.5 396.64 339.46 397.56 340.26C397.48 340.7 397.04 340.9 396.44 340.9H370.28L369.96 339.78H390.08L392.72 336.46L393.2 336.82V336.02H374.84V337.42C374.84 337.94 372.28 339.14 369.96 339.14H369.16V325.5L375.28 327.78H377.4V323.74ZM365.12 355.98L364.84 355.54C368.44 353.14 371.6 349.1 373 346.02L379.28 349.66C379.08 350.02 378.68 350.26 377.76 350.14C374.88 352.74 370.2 354.98 365.12 355.98ZM388.64 347.38L388.92 347.1C404.04 347.3 401.72 358.06 395.92 355.66C394.32 352.74 391.12 349.42 388.64 347.38ZM394.12 344.7L397.04 341.1C397.04 341.1 400.32 343.5 402.36 345.18C402.24 345.62 401.76 345.82 401.2 345.82H386.84V356.22C386.84 356.42 385.12 357.26 382.12 357.26H381.04V345.82H366.12L365.8 344.7H394.12Z" fill="black"/>
<circle cx="121.5" cy="314" r="34.5" fill="white"/>
<path d="M129.863 329.22H133.063V318.34H129.863V329.22ZM121.543 318.34V329.22H124.463V318.34H121.543ZM112.143 306.78V313.86C113.503 313.66 114.943 313.42 116.343 313.18V306.78H112.143ZM124.463 306.7H121.543V317.22H124.463V306.7ZM133.063 306.7H129.863V317.22H133.063V306.7ZM135.143 302.82L140.063 306.7C139.783 307.06 139.263 307.38 138.463 307.58V332.3C138.423 332.7 135.863 333.82 133.943 333.82H133.063V330.34H121.543V332.1C121.543 332.7 119.463 333.94 117.183 333.94H116.343V313.86C115.223 314.62 113.863 315.5 112.143 316.54V328.26C112.143 331.9 111.423 333.82 105.983 334.3C105.903 332.58 105.743 331.34 105.263 330.54C104.823 329.74 104.183 329.18 102.583 328.86V328.3C102.583 328.3 105.423 328.5 106.103 328.5C106.663 328.5 106.823 328.34 106.823 327.94V319.62L105.023 320.58C104.823 321.1 104.343 321.54 103.823 321.62L101.783 315.26C102.863 315.14 104.663 314.94 106.823 314.62V306.78H102.423L102.103 305.66H106.823V296.34L113.583 296.98C113.543 297.58 113.143 297.98 112.143 298.1V305.02L113.943 302.06C113.943 302.06 115.143 303.26 116.343 304.54V303.38L121.823 305.58H124.463V296.9L131.143 297.54C131.103 298.06 130.823 298.42 129.863 298.58V305.58H132.663L135.143 302.82Z" fill="black"/>
<path d="M154.6 197.42V196.26H151.74V197.42H154.6ZM156.82 194.84V198.84H149.64V194.84H156.82ZM146.2 197.42V196.26H143.4V197.42H146.2ZM148.42 194.84V198.84H141.28V194.84H148.42ZM144.32 205.3H147.7V204.22H144.32V205.3ZM144.32 201.46V202.52H147.7V201.46H144.32ZM153.74 202.52V201.46H150.14V202.52H153.74ZM153.74 205.3V204.22H150.14V205.3H153.74ZM157.92 208.16V210.2H150.14V212.74H147.7V210.2H140.1V208.16H147.7V207.12H142V199.62H156.18V207.12H150.14V208.16H157.92ZM169.74 198.7H171.72C171.28 198.3 170.56 197.72 170.08 197.44C170.3 197.28 170.5 197.1 170.7 196.92H167.78C168.28 197.42 168.78 197.98 169.06 198.36L167.5 199.64H169.74V198.7ZM175.58 201.28H172.16V201.98H175.58V201.28ZM175.58 204.48V203.7H172.16V204.48H175.58ZM180.22 195.14V196.92H176.64C177.12 197.4 177.62 197.94 177.9 198.32L176.16 199.54C175.84 198.98 175.08 198.14 174.48 197.52L175.36 196.92H173.58C173.08 197.6 172.56 198.22 172.04 198.7H172.16V199.64H178.04V201.98H180.1V203.7H178.04V206.14H172.16V206.82H178.46V208.56H172.16V209.28H179.74V211.06H172.16V212.74H169.74V211.06H162.34V209.28H169.74V208.56H163.58V206.82H169.74V206.14H164.14V204.48H169.74V203.7H161.94V201.98H169.74V201.28H164.34V199.64H167.46C167.12 199.08 166.4 198.24 165.8 197.62L166.72 196.92H165.2C164.6 197.74 163.92 198.44 163.24 199C162.9 198.56 162.14 197.76 161.66 197.36C162.84 196.5 164 195.2 164.66 193.88L166.74 194.52C166.64 194.72 166.52 194.94 166.42 195.14H170.78V196.86C171.64 196.04 172.38 194.96 172.82 193.88L174.96 194.44C174.86 194.68 174.76 194.9 174.66 195.14H180.22ZM188.12 194.1L190.32 194.82C189.78 196.2 189.12 197.62 188.34 198.96V212.68H186.08V202.4C185.62 202.98 185.14 203.52 184.68 204.02C184.46 203.44 183.8 202.16 183.4 201.58C185.26 199.78 187.08 196.94 188.12 194.1ZM191.68 206.34L193.82 206.98C193 208.7 191.78 210.64 190.76 211.86C190.34 211.5 189.46 210.86 188.92 210.58C189.92 209.48 191 207.82 191.68 206.34ZM192.98 197.02V199.7H198.84V197.02H192.98ZM202.22 205.72H197.04V212.74H194.64V205.72H189.42V203.56H194.64V201.8H190.72V194.92H201.22V201.8H197.04V203.56H202.22V205.72ZM197.72 207.3L199.48 206.32C200.62 207.64 201.84 209.36 202.42 210.54L200.54 211.68C200 210.5 198.78 208.66 197.72 207.3ZM210.8 207.52V208.36H219.4V207.52H210.8ZM216.08 200.78H213.38C213.16 201.24 212.84 201.66 212.44 202.04H216.08V200.78ZM209.78 198.52L209.64 199.4H211.54C211.62 199.12 211.66 198.82 211.68 198.52H209.78ZM213.86 196.34V197.14H216.08V196.34H213.86ZM220.42 196.34H218.34V197.14H220.42V196.34ZM216.08 199.4V198.52H213.86C213.84 198.82 213.82 199.12 213.78 199.4H216.08ZM221.52 200.78H218.34V202.04H220.12C220.04 201.8 219.96 201.56 219.84 201.38C220.32 201.44 220.74 201.46 220.96 201.44C221.14 201.44 221.26 201.44 221.38 201.32C221.44 201.22 221.5 201.06 221.52 200.78ZM219.4 205.44H210.8V206.26H219.4V205.44ZM219.4 203.38H210.8V204.18H219.4V203.38ZM221.82 209.7H219.62C221.26 210.26 222.88 210.86 223.94 211.34L222.2 212.76C220.92 212.12 218.68 211.16 216.52 210.46L217.28 209.7H212.4L213.86 210.38C212.22 211.36 209.64 212.28 207.6 212.78C207.24 212.32 206.4 211.46 205.88 211.06C207.7 210.76 209.68 210.3 211.1 209.7H208.48V203.76C208.02 203.86 207.52 203.96 207 204.04C206.8 203.52 206.24 202.62 205.86 202.18C208.24 201.88 209.66 201.4 210.52 200.78H207.3C207.52 199.78 207.76 198.32 207.88 197.14H211.7V196.34H207.16V194.94H211.7V194.06H213.86V194.94H216.08V194.06H218.34V194.94H222.58V198.52H218.34V199.4H223.86C223.86 199.4 223.84 199.78 223.84 200.02C223.74 201.26 223.62 201.96 223.28 202.32C223 202.64 222.58 202.78 222.14 202.8C222.06 202.8 221.94 202.82 221.82 202.82V209.7ZM230.1 212.52L227.96 211.3C228.7 209.76 229.76 207.22 230.54 204.88L232.46 206.12C231.8 208.26 230.92 210.56 230.1 212.52ZM232.12 201.28L230.74 203.2C230.08 202.58 228.72 201.78 227.62 201.28L228.92 199.54C230.02 199.96 231.44 200.66 232.12 201.28ZM237.68 197.54V198.68H241.1V197.54H237.68ZM243.72 203.6H240.36V208.88C241 208.16 241.28 207.16 241.36 206.2H241.78L241.74 205.72H240.82V204.26H242.8C242.86 206.14 243.12 207.7 243.72 208.66V203.6ZM235.54 204.26H237.52C237.56 206 237.78 207.5 238.28 208.46V203.6H235.04V209.12C235.72 208.34 235.98 207.24 236.06 206.2H236.48L236.44 205.72H235.54V204.26ZM243.42 200.66H240.36V201.62H245.8V210.7C245.8 211.64 245.64 212.08 245.04 212.38C244.46 212.68 243.64 212.7 242.48 212.7C242.42 212.16 242.18 211.44 241.96 210.96C242.58 210.98 243.24 210.98 243.44 210.96C243.64 210.96 243.72 210.9 243.72 210.7V209.38C243.46 209.6 243.2 209.86 243.06 210.06C242.68 209.62 242.38 209.02 242.18 208.32C241.92 209.02 241.52 209.64 240.94 210.12C240.82 209.92 240.6 209.64 240.36 209.42V212.6H238.28V209.48C238.06 209.68 237.84 209.9 237.72 210.08C237.36 209.64 237.1 209.08 236.88 208.42C236.64 209.16 236.24 209.82 235.68 210.32C235.54 210.1 235.28 209.8 235.04 209.58V212.7H233.02V201.62H238.28V200.66H235.46V197.54H232.74V196.28L231.48 198C230.84 197.36 229.48 196.48 228.38 195.98L229.72 194.22C230.74 194.66 232.02 195.38 232.74 195.96V195.48H235.46V194.06H237.68V195.48H241.1V194.06H243.42V195.48H246.16V197.54H243.42V200.66Z" fill="black"/>
<path d="M100.458 419.94C98.6177 416.94 97.5177 413.72 97.5177 409.78C97.5177 405.86 98.6177 402.62 100.458 399.64L101.598 400.16C99.8577 403.02 99.0377 406.38 99.0377 409.78C99.0377 413.18 99.8577 416.56 101.598 419.4L100.458 419.94ZM115.976 402.6V401.42H113.776V402.6H115.976ZM119.416 403.58H117.216V405.5H119.416V403.58ZM113.776 403.58V405.5H115.976V403.58H113.776ZM110.416 403.58V405.5H112.556V403.58H110.416ZM112.556 402.6V401.42H108.656V400.28H121.376V401.42H117.216V402.6H120.756V406.46H109.116V402.6H112.556ZM110.916 412.48V413.66H119.096V412.48H110.916ZM110.916 410.42V411.56H119.096V410.42H110.916ZM110.916 408.38V409.5H119.096V408.38H110.916ZM120.536 414.6H109.536V407.42H120.536V414.6ZM107.136 399.38L108.516 399.76C108.076 401.08 107.556 402.4 106.956 403.66V417.52H105.536V406.32C104.936 407.32 104.316 408.22 103.656 409C103.516 408.64 103.116 407.86 102.876 407.5C104.596 405.5 106.176 402.46 107.136 399.38ZM112.716 414.74L113.796 415.48C112.576 416.34 110.616 417.12 108.856 417.54C108.656 417.26 108.296 416.8 108.016 416.54C109.756 416.16 111.676 415.4 112.716 414.74ZM115.976 415.6L116.936 414.76C118.676 415.36 120.596 416.12 121.736 416.7L120.476 417.58C119.456 416.98 117.696 416.2 115.976 415.6ZM127.756 399.3L129.096 399.72C128.556 401.28 127.856 402.84 127.056 404.28V417.52H125.676V406.5C125.136 407.3 124.556 408.02 123.976 408.68C123.836 408.34 123.396 407.58 123.156 407.22C124.996 405.28 126.716 402.32 127.756 399.3ZM131.436 414.02V415.66H138.376V414.02H131.436ZM138.376 405.64H131.436V407.32H138.376V405.64ZM138.376 410.12V408.42H131.436V410.12H138.376ZM131.436 411.2V412.92H138.376V411.2H131.436ZM139.756 415.66H141.536V416.94H128.196V415.66H130.096V404.48H133.536C133.656 403.94 133.776 403.28 133.916 402.62H129.036V401.32H134.136C134.236 400.6 134.336 399.88 134.396 399.28L135.976 399.38C135.856 399.98 135.736 400.66 135.596 401.32H140.936V402.62H135.336C135.176 403.28 135.036 403.94 134.876 404.48H139.756V415.66ZM143.316 416V414.92C147.916 410.9 150.036 407.98 150.036 405.46C150.036 403.78 149.156 402.56 147.336 402.56C146.136 402.56 145.096 403.3 144.296 404.26L143.236 403.22C144.436 401.92 145.696 401.06 147.556 401.06C150.176 401.06 151.816 402.78 151.816 405.4C151.816 408.32 149.516 411.3 146.076 414.56C146.836 414.5 147.736 414.42 148.476 414.42H152.536V416H143.316ZM159.089 416.26C156.289 416.26 154.509 413.72 154.509 408.62C154.509 403.52 156.289 401.06 159.089 401.06C161.869 401.06 163.649 403.54 163.649 408.62C163.649 413.72 161.869 416.26 159.089 416.26ZM159.089 414.8C160.749 414.8 161.869 412.94 161.869 408.62C161.869 404.34 160.749 402.54 159.089 402.54C157.409 402.54 156.289 404.34 156.289 408.62C156.289 412.94 157.409 414.8 159.089 414.8ZM166.123 419.8L165.683 418.72C166.923 418.18 167.663 417.22 167.683 416C167.603 416.02 167.543 416.02 167.463 416.02C166.763 416.02 166.123 415.58 166.123 414.74C166.123 413.96 166.763 413.46 167.503 413.46C168.463 413.46 169.043 414.28 169.043 415.62C169.043 417.54 167.923 419.04 166.123 419.8ZM175.749 416.26C172.949 416.26 171.169 413.72 171.169 408.62C171.169 403.52 172.949 401.06 175.749 401.06C178.529 401.06 180.309 403.54 180.309 408.62C180.309 413.72 178.529 416.26 175.749 416.26ZM175.749 414.8C177.409 414.8 178.529 412.94 178.529 408.62C178.529 404.34 177.409 402.54 175.749 402.54C174.069 402.54 172.949 404.34 172.949 408.62C172.949 412.94 174.069 414.8 175.749 414.8ZM186.843 416.26C184.043 416.26 182.263 413.72 182.263 408.62C182.263 403.52 184.043 401.06 186.843 401.06C189.623 401.06 191.403 403.54 191.403 408.62C191.403 413.72 189.623 416.26 186.843 416.26ZM186.843 414.8C188.503 414.8 189.623 412.94 189.623 408.62C189.623 404.34 188.503 402.54 186.843 402.54C185.163 402.54 184.043 404.34 184.043 408.62C184.043 412.94 185.163 414.8 186.843 414.8ZM197.937 416.26C195.137 416.26 193.357 413.72 193.357 408.62C193.357 403.52 195.137 401.06 197.937 401.06C200.717 401.06 202.497 403.54 202.497 408.62C202.497 413.72 200.717 416.26 197.937 416.26ZM197.937 414.8C199.597 414.8 200.717 412.94 200.717 408.62C200.717 404.34 199.597 402.54 197.937 402.54C196.257 402.54 195.137 404.34 195.137 408.62C195.137 412.94 196.257 414.8 197.937 414.8ZM220.571 400.84V402.26H206.491V400.84H220.571ZM217.571 415.76H220.151C220.951 415.76 221.071 415.24 221.171 412.18C221.511 412.46 222.151 412.72 222.551 412.84C222.391 416.24 221.991 417.18 220.251 417.18H217.391C215.611 417.18 215.131 416.66 215.131 414.96V407.84H211.391C211.011 412.12 210.051 415.62 205.451 417.48C205.271 417.12 204.851 416.58 204.511 416.32C208.771 414.7 209.511 411.58 209.811 407.84H204.751V406.4H222.251V407.84H216.631V414.94C216.631 415.62 216.791 415.76 217.571 415.76ZM229.711 401.96L228.391 402.44C228.191 401.7 227.711 400.56 227.311 399.7L228.571 399.26C229.031 400.12 229.511 401.22 229.711 401.96ZM228.071 406.56H231.711C231.711 406.56 231.711 407.02 231.691 407.24C231.531 413.78 231.371 415.96 230.891 416.64C230.591 417.06 230.231 417.22 229.751 417.26C229.311 417.32 228.611 417.32 227.891 417.28C227.871 416.88 227.731 416.32 227.511 415.96C228.231 416.02 228.851 416.04 229.151 416.04C229.391 416.04 229.551 416 229.711 415.76C230.011 415.32 230.191 413.38 230.331 407.92H228.071C227.991 411.02 227.491 414.48 225.231 417.48C225.011 417.2 224.511 416.84 224.171 416.64C226.451 413.56 226.711 409.92 226.711 407.02V403.98H224.571V402.58H232.291V403.98H228.071V406.56ZM242.331 403.28H234.831C234.271 404.42 233.591 405.44 232.891 406.24C232.631 406.02 232.051 405.56 231.711 405.34C233.131 403.88 234.211 401.62 234.791 399.26L236.231 399.52C236.011 400.36 235.731 401.16 235.431 401.92H242.331V403.28ZM241.271 407.32L242.351 408.24C241.431 409.14 240.231 410.12 239.231 410.82C239.991 413.1 241.091 414.96 242.611 416.02C242.271 416.28 241.811 416.82 241.591 417.22C238.931 415.22 237.591 411.24 236.911 406.5C236.311 406.66 235.691 406.8 235.091 406.94V415.1L238.091 413.78C238.111 414.18 238.211 414.78 238.311 415.1C234.651 416.8 234.091 417.06 233.751 417.4C233.611 417.08 233.211 416.52 232.991 416.28C233.271 416.04 233.671 415.56 233.671 414.64V406.02C236.231 405.48 239.131 404.66 240.751 403.86L241.951 404.9C240.871 405.36 239.551 405.8 238.171 406.18C238.351 407.34 238.551 408.48 238.851 409.56C239.711 408.86 240.651 408.02 241.271 407.32ZM259.851 409.92V413.28C259.851 413.94 259.731 414.32 259.211 414.52C258.751 414.74 258.011 414.76 256.891 414.76C256.831 414.4 256.631 413.88 256.431 413.52C257.271 413.54 258.011 413.54 258.251 413.52C258.491 413.52 258.551 413.46 258.551 413.26V409.92H255.811V408.68H258.551V406.98C259.071 406.62 259.631 406.12 260.111 405.62H256.491V404.46H261.171L261.411 404.38L262.251 405C261.591 405.84 260.691 406.68 259.851 407.34V408.68H262.511V409.92H259.851ZM253.971 406.6H252.091C252.051 409.12 251.651 412.18 249.651 414.44C249.431 414.18 249.011 413.78 248.711 413.58C250.611 411.4 250.831 408.42 250.831 406.14V403.24H248.931V401.98H252.091C251.851 401.3 251.511 400.44 251.231 399.74L252.531 399.48C252.931 400.28 253.351 401.28 253.571 401.98H255.731V403.08C256.391 401.96 256.911 400.58 257.231 399.2L258.531 399.52C258.351 400.16 258.151 400.82 257.931 401.44H262.411V402.72H257.371C256.991 403.54 256.571 404.26 256.111 404.88C255.891 404.66 255.351 404.24 255.051 404.06C255.251 403.82 255.451 403.54 255.631 403.24H252.091V405.36H255.291C255.291 405.36 255.271 405.8 255.271 405.98C255.131 411.66 254.991 413.58 254.571 414.18C254.271 414.54 253.971 414.7 253.531 414.74C253.131 414.78 252.511 414.78 251.891 414.76C251.871 414.38 251.731 413.86 251.551 413.52C252.171 413.58 252.691 413.58 252.951 413.58C253.171 413.58 253.311 413.56 253.431 413.34C253.711 412.96 253.851 411.3 253.971 406.6ZM247.631 402.62L246.431 403.04C246.211 402.18 245.771 400.8 245.451 399.76L246.631 399.44C246.971 400.48 247.411 401.78 247.631 402.62ZM248.071 408.54L248.691 408.8C248.391 410.56 247.851 412.58 247.211 414.1C247.591 414.3 248.051 414.68 248.791 415.12C250.231 415.96 252.091 416.1 254.491 416.1C257.151 416.1 260.411 415.92 262.691 415.7C262.531 416.06 262.311 416.76 262.291 417.16C260.771 417.26 256.871 417.4 254.431 417.4C251.791 417.4 250.011 417.2 248.471 416.3C247.671 415.82 246.911 415.14 246.451 415.14C246.091 415.14 245.531 416.4 245.091 417.64L244.091 416.36C244.771 415.26 245.431 414.36 246.011 414.02C246.511 412.88 246.951 411.3 247.231 409.9H244.991C245.451 408.72 246.031 407.02 246.471 405.44H244.471V404.1H248.151C247.711 405.54 247.191 407.22 246.711 408.6H247.851L248.071 408.54ZM282.611 405.12L281.251 406C279.971 404.4 277.171 401.96 274.851 400.28L276.071 399.54C278.371 401.14 281.191 403.5 282.611 405.12ZM270.411 399.52L271.951 400.04C270.391 402.5 267.831 404.58 265.411 405.92C265.131 405.62 264.531 405.04 264.131 404.8C266.671 403.62 269.071 401.7 270.411 399.52ZM269.751 405.48V409.18H277.211V405.48H269.751ZM276.831 415.88H279.831C280.591 415.88 280.731 415.56 280.791 413.52C281.131 413.74 281.731 413.96 282.151 414.06C281.971 416.58 281.531 417.24 279.951 417.24H276.691C274.811 417.24 274.331 416.8 274.331 415.24V410.54H272.371C271.911 414.18 270.671 416.48 265.811 417.68C265.691 417.3 265.311 416.72 265.011 416.44C269.431 415.44 270.471 413.56 270.851 410.54H268.211V404.12H278.811V410.54H275.791V415.22C275.791 415.78 275.951 415.88 276.831 415.88ZM290.291 409.18L288.171 409.96V415.66C288.171 416.5 287.991 416.9 287.511 417.16C287.051 417.42 286.291 417.48 285.111 417.48C285.051 417.06 284.851 416.44 284.671 416C285.471 416.02 286.191 416.02 286.411 416.02C286.671 416.02 286.751 415.94 286.751 415.68V410.48C285.971 410.76 285.251 411.02 284.571 411.24L284.191 409.82C284.911 409.6 285.791 409.3 286.751 408.98V404.66H284.391V403.28H286.751V399.28H288.171V403.28H290.191V404.66H288.171V408.5L290.051 407.84L290.291 409.18ZM293.011 411.54H295.491C295.631 410.94 295.731 410.28 295.791 409.56H297.231C297.171 410.26 297.071 410.94 296.951 411.54H300.011V405.24H296.531L297.471 405.48C297.331 405.82 297.151 406.18 296.951 406.52C298.051 407.18 299.291 408.06 299.931 408.7L299.211 409.52C298.611 408.9 297.471 408.04 296.411 407.38C295.771 408.26 295.011 409.02 294.251 409.6C294.051 409.4 293.551 409.04 293.291 408.9C294.571 408.02 295.671 406.72 296.291 405.24H293.011V411.54ZM297.331 402.02H294.311C293.931 402.7 293.471 403.36 292.971 404H296.151C296.551 403.46 296.991 402.7 297.331 402.02ZM302.571 412.76H296.611C295.831 415.14 294.131 416.7 290.251 417.56C290.131 417.22 289.771 416.7 289.511 416.4C292.871 415.72 294.391 414.56 295.131 412.76H290.091V411.54H291.771V405.34C291.591 405.52 291.391 405.7 291.211 405.86C291.031 405.58 290.591 405.1 290.311 404.9C292.251 403.26 293.511 401.04 294.171 399.28L295.551 399.48C295.391 399.92 295.191 400.34 294.971 400.8H298.031L298.251 400.74L299.131 401.32C298.731 402.2 298.151 403.18 297.591 404H301.291V411.54H302.571V412.76ZM297.071 413.8L297.971 413.02C299.531 414.1 301.631 415.68 302.691 416.64L301.731 417.58C300.691 416.6 298.631 414.94 297.071 413.8ZM308.631 409.88H317.891C316.971 409.18 316.171 408.36 315.551 407.48H311.071C310.371 408.34 309.571 409.14 308.631 409.88ZM322.211 407.48H317.231C318.591 408.98 320.671 410.2 322.871 410.78C322.531 411.06 322.131 411.64 321.911 412.02C320.811 411.68 319.751 411.14 318.771 410.52V410.54C318.511 414.58 318.231 416.16 317.671 416.74C317.311 417.14 316.931 417.26 316.351 417.32C315.791 417.36 314.751 417.36 313.671 417.28C313.651 416.86 313.471 416.28 313.231 415.88C314.291 416 315.311 416 315.691 416C316.051 416 316.251 415.96 316.431 415.8C316.791 415.44 317.031 414.22 317.251 411.24H312.411C311.871 414.22 310.511 416.36 306.291 417.52C306.131 417.14 305.751 416.56 305.431 416.26C309.211 415.34 310.391 413.62 310.891 411.24H307.791V410.52C306.971 411.06 306.111 411.56 305.151 412C305.011 411.64 304.551 411.06 304.211 410.78C306.211 409.92 307.831 408.76 309.091 407.48H304.791V406.14H310.251C310.771 405.48 311.191 404.8 311.571 404.1H306.011V402.78H309.331C309.011 402.1 308.331 401.06 307.711 400.32L308.891 399.72C309.551 400.48 310.291 401.52 310.631 402.22L309.551 402.78H312.171C312.651 401.6 312.951 400.38 313.111 399.22L314.671 399.38C314.471 400.52 314.171 401.66 313.771 402.78H316.151C316.811 401.94 317.631 400.66 318.071 399.78L319.431 400.24C318.891 401.12 318.251 402.04 317.631 402.78H320.851V404.1H313.211C312.871 404.8 312.511 405.48 312.051 406.14H322.211V407.48ZM331.831 412.24L331.391 411.18C332.931 410.54 333.811 409.6 333.911 408.24C333.791 408.26 333.691 408.26 333.571 408.26C332.751 408.26 332.071 407.78 332.071 406.84C332.071 405.9 332.771 405.4 333.591 405.4C334.691 405.4 335.291 406.3 335.291 407.7C335.291 409.86 333.931 411.5 331.831 412.24ZM350.811 407.92L351.011 409.26L348.571 410.02V415.82C348.571 416.64 348.371 417.04 347.851 417.28C347.351 417.5 346.551 417.54 345.231 417.54C345.171 417.16 344.971 416.58 344.771 416.18C345.671 416.2 346.511 416.2 346.751 416.2C347.031 416.2 347.131 416.1 347.131 415.82V410.46L344.511 411.28L344.111 409.84C344.951 409.62 345.991 409.32 347.131 408.98V404.66H344.371V403.28H347.131V399.28H348.571V403.28H350.791V404.66H348.571V408.6C349.311 408.38 350.051 408.14 350.811 407.92ZM357.471 414.64H360.771V410.56H357.471V414.64ZM352.911 410.56V414.64H356.051V410.56H352.911ZM356.051 405.26H352.911V409.16H356.051V405.26ZM360.771 405.26H357.471V409.16H360.771V405.26ZM357.471 403.84H362.231V417.34H360.771V416.06H352.911V417.48H351.491V403.84H356.051V399.3H357.471V403.84ZM368.691 416.26C366.411 416.26 365.011 415.3 364.031 414.32L364.931 413.12C365.771 413.96 366.831 414.74 368.531 414.74C370.251 414.74 371.651 413.42 371.651 411.28C371.651 409.18 370.451 407.94 368.611 407.94C367.631 407.94 367.011 408.24 366.171 408.8L365.191 408.2L365.651 401.34H372.791V402.9H367.251L366.891 407.14C367.531 406.78 368.191 406.56 369.071 406.56C371.511 406.56 373.491 408 373.491 411.22C373.491 414.44 371.171 416.26 368.691 416.26ZM381.104 415.12H389.984V410.58H381.104V415.12ZM389.204 402.62H381.804C381.384 403.04 380.924 403.42 380.464 403.82C381.824 404.78 383.504 406.04 384.484 406.98C386.404 405.78 388.064 404.3 389.204 402.62ZM391.504 409.2V417.52H389.984V416.48H381.104V417.52H379.644V410.94C378.544 411.32 377.424 411.64 376.324 411.9C376.204 411.5 375.864 410.86 375.564 410.54C378.104 410.02 380.744 409.08 383.104 407.8C382.144 406.84 380.624 405.64 379.304 404.66C378.604 405.14 377.864 405.6 377.064 406C376.844 405.66 376.364 405.1 376.044 404.88C379.264 403.32 381.524 401.1 382.724 399.2L384.384 399.56C384.004 400.12 383.584 400.7 383.084 401.26H390.164L390.404 401.18L391.404 401.8C389.764 404.98 386.884 407.44 383.564 409.2H391.504ZM396.544 419.94L395.424 419.4C397.144 416.56 397.984 413.18 397.984 409.78C397.984 406.38 397.144 403.02 395.424 400.16L396.544 399.64C398.404 402.62 399.504 405.86 399.504 409.78C399.504 413.72 398.404 416.94 396.544 419.94Z" fill="black"/>
<path d="M356.6 195.46V197.76H342.4V195.46H356.6ZM353.94 210.18H355.74C356.4 210.18 356.52 209.66 356.62 206.78C357.14 207.2 358.16 207.62 358.82 207.78C358.58 211.36 357.98 212.4 355.94 212.4H353.54C351.28 212.4 350.7 211.64 350.7 209.3V203.18H347.7C347.34 207.34 346.42 210.76 341.64 212.7C341.36 212.1 340.7 211.22 340.16 210.76C344.32 209.2 344.88 206.5 345.12 203.18H340.6V200.86H358.44V203.18H353.16V209.3C353.16 210.06 353.28 210.18 353.94 210.18Z" fill="black"/>
<path d="M264.116 189.08L263.556 196.68C265.276 196.16 267.036 195.96 268.956 195.96C275.716 195.96 279.876 199.24 279.876 205.16C279.876 211.32 274.916 214.68 268.116 214.68C262.516 214.68 259.116 211.92 258.796 207.56C259.276 206.36 260.316 205.76 261.396 205.76C263.036 205.76 263.956 206.64 264.236 209L264.796 212.96C265.436 213.2 266.076 213.28 266.996 213.28C270.596 213.28 273.036 210.52 273.036 205.48C273.036 200.84 270.676 198.2 266.996 198.2C265.476 198.2 264.116 198.4 262.716 198.88L261.556 198.04L262.516 184.12H278.796V189.08H264.116ZM289.172 199C289.172 210.28 291.132 213.28 293.492 213.28C295.852 213.28 297.892 210.24 297.892 199C297.892 187.84 295.852 184.84 293.492 184.84C291.132 184.84 289.172 187.8 289.172 199ZM293.492 183.44C299.012 183.44 303.932 188.16 303.932 199C303.932 209.92 299.012 214.68 293.492 214.68C287.932 214.68 283.092 209.92 283.092 199C283.092 188.16 287.932 183.44 293.492 183.44ZM313.508 199C313.508 210.28 315.468 213.28 317.828 213.28C320.188 213.28 322.228 210.24 322.228 199C322.228 187.84 320.188 184.84 317.828 184.84C315.468 184.84 313.508 187.8 313.508 199ZM317.828 183.44C323.348 183.44 328.268 188.16 328.268 199C328.268 209.92 323.348 214.68 317.828 214.68C312.268 214.68 307.428 209.92 307.428 199C307.428 188.16 312.268 183.44 317.828 183.44Z" fill="black"/>
<g clip-path="url(#clip0_176_8122)">
<path d="M598.507 145.111C598.507 145.111 589.209 137.064 583.511 136.908C577.823 136.754 565.78 134.565 565.78 134.565L579.539 113.232C579.539 113.232 576.372 110.571 571.69 113.239C567.008 115.907 549.305 117.093 549.305 117.093L540.921 126.822L538.938 131.704L523.603 123.61L519.665 119.257C519.665 119.257 516.849 118.086 523.563 117.079C530.287 116.074 544.589 113.82 544.589 113.82L599.811 102.432C599.811 102.432 619.218 99.4392 620.379 90.6812C621.539 81.9232 610.679 83.012 607.864 82.602C605.052 82.1815 580.115 80.9731 580.115 80.9731L513.705 84.807L484.348 85.8244L452.395 87.1726C452.395 87.1726 441.385 78.7347 433.019 76.8629C424.653 74.9911 380.502 50.3726 380.502 50.3726C380.502 50.3726 347.92 37.9636 341.518 37.9892C335.115 38.0149 313.474 30.433 304.863 31.4915C296.252 32.55 290.626 37.4519 292.005 43.5134C293.384 49.5749 308.23 67.0224 320.83 77.8361C333.419 88.6482 337.254 97.9469 346.088 100.898C354.923 103.848 370.602 114.952 370.602 114.952L357.839 127.824C357.839 127.824 349.594 127.61 348.518 132.599C347.442 137.588 345.743 142.856 345.743 142.856C345.743 142.856 326.842 159.287 322.132 164.447C317.422 169.607 316.237 180.001 319.6 180.966C322.962 181.932 351.612 171.034 357.261 169.832C362.911 168.62 421.653 137.768 421.653 137.768C421.653 137.768 477.847 150.711 489.109 153.509C500.372 156.307 533.646 155.375 535.347 154.993C537.057 154.623 544.591 149.735 544.591 149.735C544.591 149.735 545.667 152.172 555.643 152.297C565.619 152.423 588.424 147.647 588.424 147.647L598.507 145.111Z" fill="#FBFBFB"/>
<path d="M440.569 102.685C452.216 98.4274 464.293 96.5395 476.564 95.0671C478.139 94.8799 478.131 92.4143 476.507 92.5725C463.991 93.7502 451.673 95.9442 439.887 100.416C438.482 100.961 439.135 103.215 440.569 102.685Z" fill="black"/>
<path d="M367.311 115.69C365.12 116.672 363.176 118.432 361.364 119.889C358.84 121.924 356.172 123.99 354.245 126.62C354.027 126.918 353.967 127.241 354.006 127.547C353.861 127.579 353.727 127.612 353.581 127.654C353.484 127.66 353.4 127.647 353.31 127.676C352.309 127.973 351.414 128.414 350.579 128.961C350.556 128.969 350.532 128.986 350.52 128.995C350.485 129.011 350.482 129.032 350.447 129.048C348.412 130.418 346.881 132.423 345.772 134.685C345.458 135.333 345.481 136.237 346.082 136.726C346.521 137.082 346.973 137.355 347.43 137.597C336.957 147.648 323.75 156.134 317.421 169.618C314.074 176.744 317.089 182.146 324.815 182.034C337.273 181.865 351.946 173.55 362.91 168.631C383.133 159.548 402.796 149.427 421.653 137.768C436.33 142.385 451.246 146.279 466.137 149.923C490.763 155.959 516.946 160.594 541.765 153.395C541.899 153.362 541.976 153.277 542.08 153.229C546.242 155.495 550.485 156.671 554.193 155.386C568.624 150.398 584.22 150.978 598.485 145.118C599.607 144.658 600.319 143.375 599.582 142.233C593.871 133.407 581.584 133.227 572.17 133.22C570.828 133.218 569.479 133.268 568.141 133.309C572.189 126.719 577.471 120.843 579.517 113.239C579.819 112.107 578.857 110.748 577.615 110.869C569.76 111.615 559.004 112.794 550.337 116.598C550.932 115.939 551.114 114.82 550.418 114.039C550.106 113.691 549.782 113.352 549.471 113.004C581.601 107.558 628.066 98.0311 624.866 88.3691C624.485 87.2177 622.775 86.8807 622.036 87.7103C616.547 78.908 603.531 79.0769 594.371 79.0871C577.138 79.1024 559.988 82.1413 542.789 82.9868C523.307 83.9431 503.874 85.9785 484.346 85.8349C473.633 85.7568 462.892 85.7924 452.393 87.183C452.429 86.7385 452.297 86.2683 451.901 85.8432C446.274 79.902 438.616 76.6281 431.23 73.4065C420.623 68.7805 410.88 63.4296 400.706 57.9378C380.351 46.9423 359.016 41.3574 336.941 35.0697C326.366 32.0558 305.967 23.0999 296.24 32.5588C286.965 41.5836 294.743 54.2296 300.996 62.6025C317.818 85.0887 341.912 102.507 367.311 115.69ZM353.407 131.313C353.541 131.28 353.661 131.266 353.795 131.233C353.775 131.712 353.939 132.187 354.366 132.553C354.498 132.669 354.674 132.782 354.819 132.89C353.56 134.379 351.443 135.512 349.543 134.878C350.498 133.342 351.746 132.065 353.407 131.313ZM342.635 149.547C342.147 149.997 341.632 150.347 341.083 150.638C341.493 150.272 341.903 149.907 342.303 149.539C342.42 149.547 342.528 149.542 342.635 149.547ZM343.698 152.346C346.475 157.132 353.872 158.395 356.467 163.454C350.927 160.794 345.94 157.543 341.389 153.471C342.214 153.201 342.981 152.825 343.698 152.346ZM353.276 137.978C354.985 137.405 356.551 136.295 357.763 134.831C365.513 139.254 378.479 143.546 378.846 152.077C369.297 149.724 361.009 145.175 352.734 140.113C352.846 140.013 352.958 139.912 353.07 139.811C353.636 139.276 353.607 138.554 353.276 137.978ZM330.228 177.046C321.469 179.624 318.591 174.94 322.739 167.208C323.102 167.296 323.499 167.228 323.843 166.874C328.157 162.403 332.686 158.211 337.259 154.08C337.528 154.079 337.786 154.075 338.046 154.062C343.484 159.417 349.383 163.653 356.275 167.088C351.229 169.261 346.171 171.368 341.06 173.338C337.5 174.71 333.893 175.968 330.228 177.046ZM360.69 165.183C360.111 161.676 357.999 158.995 355.323 156.56C352.819 154.269 349.556 151.39 346.477 149.697C347.159 148.751 346.852 147.601 345.721 147.202C345.507 147.127 345.319 147.098 345.114 147.034C346.931 145.406 348.741 143.755 350.54 142.102C359.321 148.623 369.435 153.377 380.041 155.978C380.072 155.983 380.105 155.977 380.147 155.984C373.728 159.2 367.244 162.277 360.69 165.183ZM381.993 155.077C382.054 154.958 382.135 154.853 382.166 154.718C385.047 142.581 368.773 136.754 359.477 131.354C359.643 130.201 359.424 129.042 358.464 128.231C358.273 128.073 358.055 127.954 357.848 127.836C359.857 126.216 361.678 124.352 363.639 122.692C365.775 120.876 368.13 119.384 370.29 117.615C370.389 117.534 370.457 117.437 370.526 117.34C378.858 121.532 387.302 125.28 395.661 128.597C402.381 131.267 409.203 133.684 416.081 135.949C404.989 142.756 393.624 149.167 381.993 155.077ZM470.801 146.952C463.782 145.394 456.796 143.626 449.82 141.786C450.78 141.268 451.163 139.752 450.214 139.007C448.463 137.613 446.054 138.058 444.175 136.87C442.541 135.837 440.673 138.358 442.169 139.595C442.253 139.672 442.371 139.744 442.468 139.812C436.384 138.108 430.335 136.323 424.322 134.437C424.004 133.081 422.523 131.954 420.99 132.919C420.836 133.014 420.682 133.108 420.528 133.202C417.253 132.154 413.977 131.116 410.721 130.017C374.532 117.751 341.641 98.8872 314.561 71.8071C309.711 66.96 299.477 56.8946 296.681 47.6053C299.888 47.4862 303.077 45.5215 305.162 43.2695C306.871 41.4316 307.942 39.1421 308.592 36.7238C326.458 51.0664 346.911 61.4983 367.036 72.3086C387.38 83.2381 406.434 96.8412 428.909 102.901C429.879 104.978 431.064 106.981 432.484 109.138C432.649 109.389 432.855 109.517 433.078 109.604C433.132 109.881 433.286 110.14 433.59 110.326C451.198 121.382 470.013 127.856 490.75 125.999C492.548 131.921 502.408 134.408 507.502 136.549C515.964 140.107 524.606 143.189 533.068 146.747C534.432 147.931 535.877 149.085 537.355 150.158C515.323 155.706 492.716 151.833 470.801 146.952ZM502.793 117.474C502.713 117.504 502.645 117.526 502.565 117.557C498.374 114.996 494.113 112.115 491.125 109.964C496.209 109.157 497.715 104.727 496.627 100.757C506.031 105.595 513.981 114.732 519.907 122.787C519.806 122.889 519.725 122.994 519.652 123.122C519.63 123.055 519.619 122.989 519.597 122.921C519.079 121.535 517.07 121.473 516.667 122.986C516.146 124.91 510.644 122.352 504.532 118.737C504.468 117.891 503.793 117.113 502.793 117.474ZM488.264 97.8142C488.588 97.8745 488.923 97.9259 489.244 98.0072C496.11 100.42 495.417 103.4 487.166 106.935C487.04 106.852 486.92 106.79 486.796 106.761C482.426 104.666 485.133 99.5413 488.264 97.8142ZM519.987 125.21C522.282 126.976 524.78 128.677 527.379 130.286C524.298 129.299 521.283 128.173 518.321 126.904C519.237 126.67 519.872 126.167 519.987 125.21ZM507.834 124.365C507.864 124.38 507.924 124.41 507.954 124.426C508.059 124.581 508.188 124.719 508.385 124.835C514.413 128.373 520.707 131.299 527.311 133.597C528.81 134.116 529.609 132.331 528.972 131.237C532.053 133.059 535.235 134.715 538.39 136.12C534.857 136.479 531.333 136.774 527.79 136.917C527.314 136.94 526.966 137.112 526.674 137.335C525.886 137.15 525.124 137.847 525.132 138.641C521.866 137.466 518.591 136.342 515.451 135.121C511.508 133.596 496.392 129.114 493.627 125.722C493.67 125.718 493.724 125.716 493.768 125.712C495.344 125.514 495.343 123.071 493.759 123.182C496.433 122.542 499.063 121.702 501.669 120.816C503.742 122.066 505.804 123.25 507.834 124.365ZM594.751 142.371C584.619 146.068 573.995 147.3 563.383 149.219C556.482 150.465 551.38 153.144 544.621 149.75C543.604 149.241 542.627 148.684 541.648 148.137C542.086 147.24 541.95 146.095 540.785 145.434C540.252 145.127 539.693 144.849 539.147 144.561C553.22 145.133 567.231 144.495 581.154 142.333C583.289 141.996 583.27 138.618 581.076 138.924C566.596 140.937 552.16 142.099 537.529 141.742C536.619 141.72 536.191 142.415 536.224 143.106C534.5 142.306 532.749 141.545 530.957 140.841C540.346 140.663 549.845 138.787 559.148 137.909C568.867 136.978 586.897 134.288 594.751 142.371ZM543.063 135.615C543.095 135.191 542.959 134.753 542.515 134.353C541.412 133.358 540.2 132.508 538.938 131.704C544.849 118.992 561.885 116.204 574.919 114.934C574.605 115.722 574.242 116.48 573.858 117.236C573.941 116.273 572.993 115.174 571.853 115.471C562.387 117.899 549.466 124.029 544.431 132.782C543.715 134.022 545.577 135.465 546.487 134.286C553.063 125.705 563.75 122.661 573.12 118.269C573.259 118.205 573.348 118.111 573.446 118.03C570.799 122.906 567.061 127.187 564.317 132.059C564.024 132.571 564.013 133.062 564.131 133.488C557.094 133.941 550.076 134.826 543.063 135.615ZM536.566 130.301C532.325 127.99 527.678 126.164 523.614 123.612C524.046 123.1 524.168 122.379 523.631 121.675C522.486 120.182 521.284 118.637 520.02 117.082C520.299 117.361 520.716 117.511 521.266 117.423C524.42 116.953 533.3 115.679 544.61 113.823C545.707 114.795 546.796 115.744 548.012 116.563L548.021 116.575C548.148 116.659 548.251 116.76 548.377 116.844C548.71 117.056 549.013 117.113 549.316 117.095C543.354 119.92 538.543 124.058 536.566 130.301ZM530.498 86.8991C544.986 85.9487 559.409 84.8704 573.864 83.5827C553.647 87.2335 533.077 87.5088 512.66 89.4574C511.243 89.5938 511.269 91.805 512.716 91.6839C533.918 89.8019 555.236 89.6842 576.212 85.6999C577.528 85.4515 577.235 83.7888 576.202 83.384C576.431 83.3654 576.659 83.3469 576.887 83.3283C588.069 82.3103 612.82 77.9401 619.561 89.988C619.771 90.3737 620.073 90.5701 620.389 90.6828C617.063 93.7515 608.528 95.5717 605.823 96.4106C595.292 99.6927 584.453 102.049 573.679 104.329C564.634 106.254 555.547 108.032 546.438 109.679C542.116 105.095 537.632 100.657 533.41 95.9814C532.346 94.8004 530.745 96.5586 531.735 97.7388C534.293 100.799 536.915 103.794 539.546 106.801C533.876 104.153 528.582 101.284 523.727 96.9612C527.243 96.7824 530.671 95.8508 533.941 94.2734C534.845 93.8335 534.542 92.662 533.894 92.1983C532.928 91.4931 532.015 91.0102 530.851 90.7568C529.324 90.4262 528.725 92.7881 530.265 93.1099C530.338 93.1211 530.386 93.1606 530.447 93.1807C527.519 94.2853 524.441 94.8207 521.318 94.6741C522.655 93.9362 524.149 93.7152 525.936 93.6141C527.366 93.5333 527.329 91.3205 525.88 91.3877C522.592 91.5479 519.899 92.1637 517.669 94.7362C517.147 95.3418 517.326 96.4836 518.215 96.6412C519.093 96.7972 519.959 96.8872 520.83 96.9458C520.806 97.2421 520.898 97.5561 521.177 97.8347C526.16 102.799 533.061 108.206 540.08 110.815C533.792 111.908 527.489 112.967 521.179 113.928C519.564 114.173 519.168 116.127 519.956 117.008C512.827 108.255 503.823 99.1279 493.164 95.6832C491.525 94.5426 489.443 93.977 486.971 94.4873C486.05 94.6783 485.702 95.6857 485.919 96.5119C481.085 99.8958 481.402 107.423 486.563 109.543C490.19 112.981 494.371 116.108 498.696 118.914C496.093 119.79 493.48 120.589 490.777 121.128C489.514 121.385 489.632 122.86 490.474 123.46C470.105 124.945 452.289 119.31 434.79 108.452C434.789 108.249 434.744 108.049 434.617 107.826C434.091 106.92 432.973 105.388 431.957 103.679C432.029 103.701 432.101 103.722 432.174 103.734C434.113 104.181 434.863 101.178 432.921 100.752C432.017 100.559 431.118 100.325 430.219 100.102C429.528 98.0244 429.623 96.1425 431.715 95.2418C436.175 93.3219 440.942 92.1991 445.674 91.1673C456.214 88.8723 467.304 88.9438 478.031 88.8632C495.58 88.7464 512.972 88.0482 530.498 86.8991ZM324.117 35.1717C322.813 35.904 322.637 38.1055 324.491 38.6148C329.181 39.8908 333.481 42.2322 337.514 44.9183C338.442 45.5857 339.365 46.22 340.28 46.8317C342.96 48.6139 345.406 44.2103 342.698 42.4773C341.728 41.8035 340.842 41.0678 339.972 40.3022C340.69 40.5194 341.368 40.7198 341.978 40.867C363.042 46.2603 382.746 53.1702 401.958 63.4977C410.151 67.9036 417.957 72.2396 426.566 75.82C434.257 79.0134 442.465 82.1253 448.779 87.7218C441.399 88.937 434.154 90.8906 427.144 94.0374C426.521 94.317 426.374 95.1408 426.498 95.7278C426.781 97.0354 427.12 98.2552 427.511 99.4187C407.211 93.7353 389.924 81.7744 371.471 71.7455C350.095 60.1222 328.321 49.3485 309.091 34.304C309.183 33.7073 309.243 33.1058 309.282 32.501C313.855 32.57 319.068 33.7227 324.117 35.1717ZM298.102 36.6586C300.017 34.1773 302.96 32.9784 306.45 32.6241C306.008 35.7171 304.869 38.596 302.725 40.9567C300.786 43.1023 298.484 43.478 295.973 43.8217C295.839 41.2619 296.428 38.8235 298.102 36.6586Z" fill="black"/>
<path d="M343.193 88.8287C341.77 87.2605 340.572 85.4804 339.355 83.751C338.131 81.9991 335.343 83.661 336.51 85.5006C337.729 87.4233 338.95 89.3354 340.363 91.1162C341.658 92.7506 343.316 95.0298 345.492 95.4061C346.924 95.6578 348.154 94.2178 347.349 92.8837C346.359 91.2855 344.459 90.2335 343.193 88.8287Z" fill="black"/>
<path d="M352.11 51.3238C352.613 51.4759 352.566 51.5008 352.729 51.8366C353.084 52.5338 354.047 52.9708 354.774 53.1357C355.769 53.3634 357.007 52.7817 357.195 51.6962C357.439 50.3192 357.078 49.0317 355.81 48.2695C355.81 48.2695 355.203 47.8123 354.95 47.6448C354.431 47.3188 353.793 47.1354 353.2 47.0123C350.382 46.4195 349.355 50.5265 352.11 51.3238Z" fill="black"/>
<path d="M363.884 59.1181C363.873 59.1165 363.851 59.1237 363.84 59.1221C363.999 59.1358 364.01 59.1374 363.884 59.1181Z" fill="black"/>
<path d="M363.524 59.0843C363.693 59.0996 363.819 59.1189 363.884 59.1181C365.146 59.2901 366.38 58.7294 366.713 57.3982C367.013 56.2121 366.259 54.7572 364.997 54.5207C363.629 54.2682 362.369 54.5036 361.192 55.2447C358.731 56.8066 360.984 60.3878 363.524 59.0843Z" fill="black"/>
<path d="M372.378 63.0987C373.474 63.299 374.644 63.6498 375.744 63.2719C377.183 62.7747 377.836 60.8283 376.598 59.7279C375.701 58.9261 374.66 58.7878 373.541 58.5199C370.547 57.8144 369.399 62.5672 372.378 63.0987Z" fill="black"/>
<path d="M379.353 67.2537C379.436 69.088 382.33 69.9602 383.378 68.0958C383.942 67.0787 383.563 65.7671 382.544 65.2036C382.148 64.9823 381.693 64.9446 381.255 64.9954C381.11 64.8231 380.968 64.6299 380.826 64.4367C379.768 62.9996 377.492 64.3328 378.432 65.9019C378.714 66.3737 379.021 66.8278 379.353 67.2537ZM380.552 65.2411C380.365 65.341 380.171 65.4184 380.017 65.5771C380.11 65.4627 380.191 65.3572 380.314 65.1832C380.386 65.205 380.47 65.2178 380.552 65.2411Z" fill="black"/>
<path d="M389.245 72.4025C389.491 72.4081 389.727 72.412 389.973 72.4176C391.987 72.4477 392.987 69.2153 390.964 68.4017C390.742 68.314 390.519 68.2262 390.307 68.1401C388.961 67.6017 387.374 68.012 386.985 69.5702C386.608 71.0447 387.778 72.3811 389.245 72.4025Z" fill="black"/>
<path d="M398.565 76.6705C399.813 76.369 400.389 74.4323 399.302 73.612C399.08 73.4494 398.87 73.278 398.631 73.1556C398.571 73.0606 398.5 72.964 398.439 72.869C397.066 70.6871 393.568 72.8508 395.039 74.9513C395.928 76.2234 396.935 77.0743 398.565 76.6705Z" fill="black"/>
<path d="M403.475 80.0053C404.06 80.6735 405.184 80.6958 405.905 80.26C406.89 79.6502 407.046 78.4955 406.561 77.5213C406.406 77.2081 406.25 76.8949 406.094 76.5817C405.577 75.5382 404.086 75.3204 403.162 75.8858C401.918 76.6487 401.914 78.2125 402.811 79.2284C403.027 79.4973 403.257 79.7469 403.475 80.0053Z" fill="black"/>
<path d="M412.445 85.5054C413.995 85.9681 415.113 83.8573 413.945 82.789C413.154 82.0677 412.437 81.7007 411.442 81.3338C410.861 81.127 410.454 80.6359 410.097 80.1633C409.042 78.7801 406.784 80.0626 407.738 81.6124C408.854 83.4336 410.381 84.8891 412.445 85.5054Z" fill="black"/>
<path d="M417.944 88.0092C419.451 88.3366 420.943 88.8975 422.365 88.0227C423.184 87.516 423.563 86.2992 422.971 85.4692C421.972 84.0731 420.589 83.9897 419.035 83.6978C416.229 83.1605 415.129 87.3955 417.944 88.0092Z" fill="black"/>
<path d="M427.889 91.2052C429.754 91.4375 431.279 90.2462 430.905 88.2711C430.656 86.8829 428.909 86.7972 428.015 87.5173C426.204 87.9147 425.782 90.9465 427.889 91.2052Z" fill="black"/>
<path d="M373.032 120.178C369.26 123.286 365.09 125.904 361.491 129.209C360.142 130.449 362.035 132.807 363.514 131.705C367.568 128.716 371.669 125.777 375.552 122.579C377.274 121.15 374.74 118.769 373.032 120.178Z" fill="black"/>
<path d="M461.267 136.169C458.682 135.665 456.193 135.37 453.732 134.339C451.825 133.543 450.222 136.222 452.144 137.202C454.693 138.504 457.487 139.468 460.284 140.058C462.821 140.596 463.81 136.666 461.267 136.169Z" fill="black"/>
<path d="M566.524 176.776C563.162 175.522 561.999 180.379 564.404 182.13C587.143 198.655 612.94 216.313 613.157 247.601C613.396 281.827 588.182 313.03 571.597 341.034C570.843 342.311 572.834 343.399 573.606 342.146C592.27 311.717 617.791 278.933 617.796 241.498C617.797 213.062 591.86 186.232 566.524 176.776Z" fill="black"/>
<path d="M518.614 169.882C551.895 189.63 590.37 209.189 592.137 252.918C593.484 286.146 576.148 319.607 559.794 347.432C559.734 347.541 559.697 347.642 559.672 347.735L559.645 347.913C559.645 347.913 559.88 348.27 560.272 348.866C560.741 349.099 561.349 349.053 561.685 348.472C579.636 318.148 596.543 283.283 594.958 247.189C593.261 208.604 554.832 176.634 520.474 165.174C517.633 164.235 516.213 168.453 518.614 169.882Z" fill="black"/>
</g>
<line x1="2" y1="230.5" x2="495" y2="230.5" stroke="black" stroke-width="3"/>
<rect x="107" y="444" width="289" height="60" rx="10" fill="#FFFAF1"/>
<rect x="112" y="449" width="289" height="60" rx="10" fill="#2496F0"/>
<rect x="108" y="445" width="287" height="58" rx="9" stroke="black" stroke-width="2"/>
<path d="M193.15 475.275L192.975 475.075C195.375 472.725 195.625 469.75 195.625 467.45V464.225L199.325 465.5H201.4L202.95 463.825L205.725 466.05C205.575 466.225 205.275 466.35 204.825 466.425V470C204.825 470.25 204.875 470.35 205.125 470.35H205.55H205.975C206.1 470.35 206.425 470.35 206.575 470.325C206.725 470.3 207 470.25 207.175 470.2H207.4L207.55 470.25C208.25 470.625 208.45 470.925 208.45 471.525C208.45 472.725 207.4 473.375 205.075 473.375H203.975C201.875 473.375 201.675 472.75 201.675 470.825V466.2H198.825V467.45C198.825 469.65 198.275 473.35 193.15 475.275ZM190.975 475.775V483.125C190.975 485.625 190.5 487.025 186.825 487.375C186.775 486.1 186.65 485.2 186.325 484.6C185.975 483.975 185.5 483.6 184.4 483.35V483.025C184.4 483.025 186.5 483.15 187 483.15C187.375 483.15 187.475 483.025 187.475 482.75V478.55L186.75 479.075C186.65 479.425 186.425 479.75 186.1 479.875L184.45 475.975C185.1 475.8 186.175 475.475 187.475 475.05V470.325H184.8L184.6 469.625H187.475V463.625L191.875 464.025C191.85 464.4 191.6 464.65 190.975 464.75V469.425L192.325 467.35C192.325 467.35 193.975 468.9 194.875 469.925C194.825 470.2 194.55 470.325 194.2 470.325H190.975V473.875C191.95 473.525 192.975 473.175 193.975 472.8L194.05 473.025C193.3 473.75 192.275 474.675 190.975 475.775ZM202.275 475.9H196.275C197.025 477.95 198.25 479.475 199.8 480.65C200.875 479.225 201.7 477.625 202.275 475.9ZM204.025 473.4L207.05 476.125C206.875 476.4 206.625 476.5 206 476.55C205.1 478.65 203.85 480.525 202.225 482.1C204.125 483 206.325 483.55 208.575 483.95L208.55 484.25C207.1 484.6 206.1 485.7 205.65 487.35C203.375 486.5 201.45 485.45 199.9 483.95C197.525 485.525 194.575 486.675 190.9 487.325L190.75 487.025C193.9 485.875 196.475 484.25 198.425 482.25C197.275 480.625 196.425 478.55 195.85 475.9H193.95L193.725 475.2H202.15L204.025 473.4ZM229.2 478.8L229.425 478.675C238.575 480.8 236 487.55 232.55 485.175C231.95 482.975 230.475 480.575 229.2 478.8ZM224.425 466.475V472.175H230.075V466.475H224.425ZM230.875 476.75L232.75 474.3C232.75 474.3 234.85 475.95 236.1 477.05C236.025 477.325 235.75 477.45 235.375 477.45H229.05V486.4C229.025 486.6 227.95 487.35 226.1 487.35H225.425V480.325C223.525 482.8 221.175 484.6 218.725 485.8L218.5 485.6C219.85 483.75 221.4 480.7 222.325 477.75L225.425 479.125V477.45H219.1L218.9 476.75H225.425V472.875H224.425V473.75C224.425 473.975 223.375 474.525 221.6 474.525H220.975V465.35C220.8 465.475 220.525 465.575 220.175 465.55C219.425 467.475 218.575 469.2 217.625 470.725L219.15 471.3C219.05 471.525 218.85 471.7 218.35 471.775V486.375C218.325 486.625 216.85 487.375 215.475 487.375H214.8V474.35C213.875 475.3 212.9 476.125 211.85 476.875L211.575 476.7C213.55 473.5 215.525 468.475 216.4 463.6L220.975 464.95V464.4L224.675 465.775H229.975L231.625 463.925L234.65 466.225C234.5 466.45 234.275 466.6 233.7 466.7V473.3C233.7 473.425 232.6 474 230.725 474H230.075V472.875H229.05V476.75H230.875ZM248.3 463.75L248.475 463.625C256.95 464.5 253.8 471.025 250.4 468.55C250.15 466.8 249.225 465.025 248.3 463.75ZM261.95 470.075H240.725L240.525 469.375H257.05L259.05 466.825C259.05 466.825 261.325 468.525 262.675 469.675C262.6 469.95 262.325 470.075 261.95 470.075ZM243.8 471.625L244.1 471.525C253.05 477.975 250.275 486.625 246.4 482.925C246.275 479.225 245.05 475.15 243.8 471.625ZM257.725 484.925L259.775 482.3C259.775 482.3 262.125 484.05 263.525 485.225C263.45 485.5 263.15 485.625 262.775 485.625H239.75L239.55 484.925H252.2C253.35 480.8 254.55 475.075 255.15 471.225L260.275 472.5C260.175 472.825 259.9 473.1 259.25 473.1C257.925 476.25 255.525 481.15 253 484.925H257.725ZM272.125 474.825H275.55V470.95H272.125V474.825ZM272.125 470.25H275.55V466.525H272.125V470.25ZM275.3 465.825L276.825 464.15L279.95 466.55C279.775 466.75 279.45 466.975 278.95 467.075V476.175C278.9 476.35 277.25 476.975 276.125 476.975H275.55V475.525H272.125V481.375C273.175 480.95 274.325 480.45 275.525 479.925C275.225 478.95 274.85 478.05 274.425 477.225L274.675 477.1C282.4 480.825 279.2 487.475 276.2 484.525C276.25 483.375 276.1 482.15 275.825 480.975C274.625 482.225 273.025 483.775 271.1 485.45C270.85 486 270.475 486.4 270.125 486.6L267.925 482.775C268.675 482.25 268.8 481.975 268.8 481.3V464.45L272.475 465.825H275.3ZM287.575 464.2L290.65 466.575C290.5 466.775 290.2 466.975 289.725 467.075V479.225C289.725 481.525 289.275 482.825 285.9 483.125C285.875 481.975 285.775 481.1 285.525 480.6C285.25 480.05 284.875 479.7 283.95 479.475V479.15C283.95 479.15 285.525 479.25 285.925 479.25C286.275 479.25 286.35 479.1 286.35 478.8V466.575H283.6V486.075C283.6 486.5 282.325 487.35 280.8 487.35H280.225V464.425L283.7 465.875H286.1L287.575 464.2ZM311.95 484.2H313.95V477.4H311.95V484.2ZM306.75 477.4V484.2H308.575V477.4H306.75ZM300.875 470.175V474.6C301.725 474.475 302.625 474.325 303.5 474.175V470.175H300.875ZM308.575 470.125H306.75V476.7H308.575V470.125ZM313.95 470.125H311.95V476.7H313.95V470.125ZM315.25 467.7L318.325 470.125C318.15 470.35 317.825 470.55 317.325 470.675V486.125C317.3 486.375 315.7 487.075 314.5 487.075H313.95V484.9H306.75V486C306.75 486.375 305.45 487.15 304.025 487.15H303.5V474.6C302.8 475.075 301.95 475.625 300.875 476.275V483.6C300.875 485.875 300.425 487.075 297.025 487.375C296.975 486.3 296.875 485.525 296.575 485.025C296.3 484.525 295.9 484.175 294.9 483.975V483.625C294.9 483.625 296.675 483.75 297.1 483.75C297.45 483.75 297.55 483.65 297.55 483.4V478.2L296.425 478.8C296.3 479.125 296 479.4 295.675 479.45L294.4 475.475C295.075 475.4 296.2 475.275 297.55 475.075V470.175H294.8L294.6 469.475H297.55V463.65L301.775 464.05C301.75 464.425 301.5 464.675 300.875 464.75V469.075L302 467.225C302 467.225 302.75 467.975 303.5 468.775V468.05L306.925 469.425H308.575V464L312.75 464.4C312.725 464.725 312.55 464.95 311.95 465.05V469.425H313.7L315.25 467.7Z" fill="white"/>
<defs>
<clipPath id="clip0_176_8122">
<rect width="377.222" height="309.544" fill="white" transform="translate(282.905) rotate(8.71552)"/>
</clipPath>
</defs>
</svg>
