<svg width="79" height="36" viewBox="0 0 79 36" fill="none" xmlns="http://www.w3.org/2000/svg">
<path d="M76.1872 5.22161C73.3741 6.35626 70.3548 6.74152 67.3831 7.24815C63.9989 7.82339 60.8632 8.97388 57.5848 9.93437C50.7424 11.9398 44.8994 9.32746 38.0623 9.49634C31.7752 9.64939 25.4563 10.6996 19.2273 11.5018C15.4677 11.9873 11.7768 12.7472 7.97489 12.7631C4.2523 12.7789 0.497978 12.4675 -3.19817 13.085C-1.90267 13.6972 -0.31105 14.0719 0.67247 15.1907C2.43859 17.1961 -1.23642 17.5181 -2.37858 17.4864C-1.48494 19.1593 -3.70052 19.0749 -4.72105 18.9324C-5.78918 18.8163 -6.11174 20.0829 -7.27505 20.2096C-8.19513 20.3098 -9.12577 20.104 -10.0406 20.0407C-11.3837 19.9457 -19.0192 19.6343 -17.4434 16.8531C-25.1742 16.6314 -32.8943 15.9718 -40.6304 16.1829C-33.1957 17.27 -25.6078 18.2305 -18.5274 20.8534C-15.2332 22.0725 -15.4976 23.6927 -18.8288 24.5265C-22.7894 25.5187 -27.2893 25.3603 -31.3503 25.4553C-40.2338 25.6717 -49.1384 25.545 -57.9848 24.5951C-66.9106 23.6346 -75.72 21.835 -84.7251 21.7664C-88.1516 21.74 -91.6521 21.835 -95.0204 21.1067C-98.1085 20.4365 -97.5744 18.7741 -94.6397 20.0301C-91.5358 21.3548 -87.1892 21.0856 -83.8791 21.1278C-79.4426 21.1806 -74.9745 21.0487 -70.5803 21.7453C-53.4796 24.4632 -35.681 26.3947 -18.5592 22.8061C-22.5409 21.5395 -26.6125 20.579 -30.684 19.6554C-32.9472 19.1382 -35.2104 18.6052 -37.4841 18.1355C-39.3613 17.7503 -42.0158 17.7292 -43.6973 16.795C-46.8382 15.0588 -37.3361 14.6207 -36.5006 14.5996C-32.0219 14.4835 -27.5484 14.7474 -23.0696 14.7738C-25.8722 12.019 -18.6438 12.114 -17.3694 12.1456C-15.101 12.2089 -12.8061 12.3198 -10.5693 12.6734C-8.02592 13.0744 -7.19045 14.969 -4.81624 15.006C-7.53944 13.523 -6.23336 11.3382 -3.64764 11.1165C-0.612457 10.8579 2.40687 11.734 5.44205 11.7181C12.8026 11.6812 20.1209 10.061 27.3705 8.9686C31.5108 8.34586 35.6405 7.60702 39.8073 7.18482C43.826 6.77318 47.8394 7.50674 51.8581 7.49619C55.9244 7.48564 59.9167 6.57792 63.9354 6.07128C66.1457 5.79158 68.3613 5.77047 70.5822 5.6227C71.2326 5.58048 76.2084 4.35611 76.3776 4.61471C76.4675 4.86802 76.3987 5.06857 76.1872 5.22161ZM-2.31512 12.9636C-2.50019 12.9847 -2.50019 12.9847 -2.31512 12.9636V12.9636ZM-15.1221 14.721C-15.5451 14.7316 -16.6609 14.5996 -17.3324 14.5574C-16.407 14.7685 -16.2273 14.758 -15.1221 14.721ZM-92.9476 20.389C-93.0851 20.3732 -93.0851 20.3732 -92.9476 20.389V20.389Z" fill="black" fill-opacity="0.1"/>
</svg>
