<svg width="343" height="66" viewBox="0 0 343 66" fill="none" xmlns="http://www.w3.org/2000/svg">
<path d="M337.698 56.5757C332.396 54.4361 326.706 53.7096 321.106 52.7542C314.728 51.6695 308.818 49.5 302.64 47.6888C289.744 43.9071 278.733 48.8332 265.847 48.5148C253.998 48.2262 242.09 46.2458 230.35 44.7331C223.265 43.8176 216.309 42.3845 209.144 42.3547C202.128 42.3248 195.053 42.912 188.087 41.7476C190.529 40.5932 193.528 39.8866 195.382 37.7769C198.71 33.9952 191.784 33.3881 189.632 33.4478C191.316 30.2931 187.14 30.4524 185.217 30.7211C183.204 30.94 182.596 28.5516 180.404 28.3127C178.67 28.1237 176.916 28.5118 175.192 28.6312C172.661 28.8103 158.27 29.3975 161.24 34.6421C146.671 35.06 132.121 36.304 117.542 35.9059C131.553 33.8559 145.854 32.0446 159.197 27.0986C165.406 24.7998 164.907 21.7446 158.629 20.1722C151.165 18.3013 142.685 18.5998 135.031 18.4207C118.289 18.0127 101.507 18.2515 84.8352 20.0428C68.0136 21.8541 51.4112 25.2476 34.4401 25.377C27.9825 25.4267 21.3854 25.2476 15.0374 26.6209C9.21758 27.8848 10.2241 31.0196 15.7549 28.6511C21.6046 26.1532 29.7962 26.6607 36.0345 26.5811C44.3955 26.4816 52.8163 26.7304 61.0976 25.4168C93.3258 20.2916 126.869 16.6493 159.137 23.4165C151.633 25.8049 143.96 27.6161 136.287 29.3577C132.022 30.3329 127.756 31.3381 123.471 32.2238C119.933 32.9503 114.931 32.9901 111.762 34.7515C105.842 38.0256 123.75 38.8516 125.325 38.8914C133.765 39.1104 142.196 38.6128 150.637 38.563C145.355 43.7579 158.978 43.5787 161.38 43.519C165.655 43.3996 169.98 43.1906 174.195 42.5238C178.989 41.7675 180.563 38.1948 185.038 38.1252C179.905 40.9216 182.367 45.0416 187.24 45.4596C192.96 45.9472 198.65 44.2952 204.371 44.3251C218.242 44.3948 232.035 47.45 245.697 49.51C253.5 50.6843 261.283 52.0775 269.136 52.8737C276.71 53.6499 284.273 52.2666 291.847 52.2865C299.51 52.3064 307.034 54.0181 314.608 54.9735C318.774 55.5009 322.949 55.5407 327.135 55.8194C328.36 55.899 337.738 58.2078 338.057 57.7202C338.226 57.2425 338.097 56.8643 337.698 56.5757ZM189.751 41.9765C189.402 41.9367 189.402 41.9367 189.751 41.9765ZM165.615 38.6626C164.818 38.6427 162.715 38.8914 161.449 38.9711C163.193 38.573 163.532 38.5929 165.615 38.6626ZM18.9438 27.9744C18.6847 28.0042 18.6847 28.0042 18.9438 27.9744Z" fill="black" fill-opacity="0.1"/>
</svg>
