<svg width="414" height="141" viewBox="0 0 414 141" fill="none" xmlns="http://www.w3.org/2000/svg">
<path d="M204.87 125.85C199.55 123.7 193.84 122.97 188.22 122.01C181.82 120.92 175.89 118.74 169.69 116.92C156.75 113.12 145.7 118.07 132.77 117.75C120.88 117.46 108.93 115.47 97.1501 113.95C90.0401 113.03 83.0601 111.59 75.8701 111.56C68.8301 111.53 61.7301 112.12 54.7401 110.95C57.1901 109.79 60.2001 109.08 62.0601 106.96C65.4001 103.16 58.4501 102.55 56.2901 102.61C57.9801 99.44 53.7901 99.6 51.8601 99.87C49.8401 100.09 49.2301 97.69 47.0301 97.45C45.2901 97.26 43.5301 97.65 41.8001 97.77C39.2601 97.95 24.8201 98.54 27.8001 103.81C13.1801 104.23 -1.41995 105.48 -16.0499 105.08C-1.98995 103.02 12.3601 101.2 25.7501 96.23C31.9801 93.92 31.4801 90.85 25.1801 89.27C17.69 87.39 9.18005 87.69 1.50005 87.51C-15.2999 87.1 -32.14 87.34 -48.8699 89.14C-65.7499 90.96 -82.4099 94.37 -99.4399 94.5C-105.92 94.55 -112.54 94.37 -118.91 95.75C-124.75 97.02 -123.74 100.17 -118.19 97.79C-112.32 95.28 -104.1 95.79 -97.8399 95.71C-89.4499 95.61 -80.9999 95.86 -72.6899 94.54C-40.3499 89.39 -6.68994 85.73 25.6901 92.53C18.1601 94.93 10.4601 96.75 2.76005 98.5C-1.51995 99.48 -5.79994 100.49 -10.0999 101.38C-13.6499 102.11 -18.6699 102.15 -21.8499 103.92C-27.7899 107.21 -9.81995 108.04 -8.23994 108.08C0.230057 108.3 8.69006 107.8 17.1601 107.75C11.8601 112.97 25.5301 112.79 27.9401 112.73C32.2301 112.61 36.5701 112.4 40.8001 111.73C45.6101 110.97 47.19 107.38 51.6801 107.31C46.5301 110.12 49.0001 114.26 53.8901 114.68C59.6301 115.17 65.3401 113.51 71.0801 113.54C85.0001 113.61 98.8401 116.68 112.55 118.75C120.38 119.93 128.19 121.33 136.07 122.13C143.67 122.91 151.26 121.52 158.86 121.54C166.55 121.56 174.1 123.28 181.7 124.24C185.88 124.77 190.07 124.81 194.27 125.09C195.5 125.17 204.91 127.49 205.23 127C205.4 126.52 205.27 126.14 204.87 125.85ZM56.4101 111.18C56.0601 111.14 56.0601 111.14 56.4101 111.18V111.18ZM32.1901 107.85C31.3901 107.83 29.2801 108.08 28.0101 108.16C29.7601 107.76 30.1001 107.78 32.1901 107.85ZM-114.99 97.11C-115.25 97.14 -115.25 97.14 -114.99 97.11V97.11Z" fill="black" fill-opacity="0.1"/>
<g clip-path="url(#clip0_823_3272)">
<path d="M470.92 82.4854C462.897 81.0604 454.181 82.672 446.607 79.0789C443.329 77.5287 440.077 74.8522 436.251 76.5551C431.185 78.7988 430.567 82.4294 424.568 82.1755C421.213 82.0259 417.628 82.5756 414.346 81.6628C410.488 80.5707 407.474 75.9201 404.359 73.5283C394.78 66.1135 399.19 77.0922 394.861 82.5453C389.72 89.0053 385.78 80.6998 381.942 77.3593C375.828 72.0414 366.222 69.2224 360.095 76.1076C358.274 78.1627 356.724 85.3291 353.279 84.5875C349.902 83.8542 344.837 83.701 342.503 80.8593C340.722 78.6857 339.465 74.938 336.082 74.9597C332.383 75.4063 330.785 79.7798 328.742 82.3321C326.568 85.0514 322.975 85.8033 320.232 87.8566C317.396 89.9717 314.314 92.9389 310.504 91.8241C306.223 90.5671 303.929 90.4523 299.494 90.7733C295.124 91.0861 291.717 87.3061 287.334 90.0509C280.449 94.3662 277.344 91.9227 271.653 86.6356C265.584 81.0102 260.236 76.0488 255.811 68.9605C252.057 62.9446 245.688 54.7925 237.493 57.4785C228.155 60.5425 229.781 71.6519 230.854 79.1435C231.887 86.3216 230.625 92.6979 230.42 99.7629C230.277 104.373 231.418 111.471 237.604 107.997C243.992 104.398 241.821 89.0827 240.386 83.2455C238.68 76.3193 235.346 59.2057 247.355 68.897C251.009 71.8415 254.115 75.3576 257.396 78.6673C261.64 82.9792 267.259 85.5436 271.672 89.7338C274.165 92.1031 276.866 94.3961 280.177 95.5399C283.767 96.7662 286.349 93.5599 289.344 92.3131C292.467 91.0168 295.572 93.058 298.634 93.5459C301.745 94.0277 304.383 92.8759 307.505 93.8424C315.093 96.2102 317.718 91.0711 324.186 88.2494C327.047 87.0026 329.919 85.8384 332.03 83.4285C332.484 82.9023 334.977 78.182 336.027 78.6706C337.733 79.4456 339.189 84.107 340.237 85.6517C342.21 88.5555 344.509 91.2508 347.115 93.5892C351.589 97.5875 358.48 101.082 363.43 95.7687C368.111 90.7239 366.525 85.0229 366.206 78.9957C365.739 70.1879 378.86 77.5108 381.608 79.9152C385.13 83.0103 388.429 88.9995 393.486 85.4831C395.784 83.8879 398.265 81.8842 398.856 78.9777C399.326 76.7064 397.875 73.5529 399.093 71.5063C402.198 70.0615 409.55 82.8504 410.649 84.1372C415.144 89.3731 430.901 97.8071 436.199 90.1878C437.733 87.9843 437.516 81.0391 440.021 80.1555C442.622 79.243 446.369 82.2597 448.519 83.3647C452.552 85.4572 456.923 84.2223 461.303 84.3943C464.369 84.513 467.436 85.1845 470.453 85.7117C472.47 86.0288 472.977 82.8478 470.92 82.4854ZM440.219 79.7285C439.765 79.7183 439.765 79.7183 440.219 79.7285ZM439.954 79.6275C439.711 79.6915 439.711 79.6915 439.954 79.6275ZM439.831 79.4419C439.519 79.7658 439.519 79.7658 439.831 79.4419ZM403.414 73.2109C403.216 73.1016 403.216 73.1016 403.414 73.2109ZM389.927 85.1748C389.874 85.148 389.7 85.1026 389.927 85.1748ZM366.913 76.0746C366.775 76.1757 366.377 76.6111 366.913 76.0746ZM366.836 76.0004C366.657 76.3078 366.657 76.3078 366.836 76.0004ZM366.655 76.2913C366.601 76.3986 366.315 76.6524 366.655 76.2913ZM356.829 84.964C356.586 85.028 356.586 85.028 356.829 84.964ZM336.727 79.1695C336.574 78.887 336.574 78.887 336.727 79.1695ZM282.52 92.8329C282.277 92.8969 282.277 92.8969 282.52 92.8329ZM265.016 83.9642C264.78 83.8261 264.78 83.8261 265.016 83.9642ZM240.734 65.6873C240.113 65.6813 240.113 65.6813 240.734 65.6873ZM231.994 84.6321C231.99 85.1354 231.99 85.1354 231.994 84.6321ZM261.424 81.917C262.022 82.2778 260.718 81.5026 261.424 81.917ZM397.314 75.9026C397.312 75.6179 397.306 75.8366 397.314 75.9026Z" fill="black" fill-opacity="0.1"/>
<path d="M236.029 106.803C232.983 105.509 229.351 116.255 232.172 117.36C234.903 118.425 239.111 108.127 236.029 106.803Z" fill="black" fill-opacity="0.1"/>
</g>
<defs>
<clipPath id="clip0_823_3272">
<rect width="382.919" height="92.9804" fill="white" transform="translate(200 48.2817) rotate(-7.14148)"/>
</clipPath>
</defs>
</svg>
