<svg width="1056" height="781" viewBox="0 0 1056 781" fill="none" xmlns="http://www.w3.org/2000/svg">
<path fill-rule="evenodd" clip-rule="evenodd" d="M317.995 643.632C317.995 643.632 318.03 645.969 317.118 648.256C316.148 650.688 314.227 653.084 314.227 653.084L307 650.611C307 650.611 309.261 648.58 310.163 646.321C311.143 643.861 310.773 641.159 310.773 641.159L318 643.632H317.995Z" fill="#FED430"/>
<path fill-rule="evenodd" clip-rule="evenodd" d="M559.837 51.5479C559.837 51.5479 561.951 50.5196 564.419 50.3639C567.045 50.1991 570.038 50.9055 570.038 50.9055L570.83 58.465C570.83 58.465 568.026 57.2969 565.588 57.4498C562.933 57.6174 560.627 59.1031 560.627 59.1031L559.834 51.5435L559.837 51.5479Z" fill="#FED430"/>
<path fill-rule="evenodd" clip-rule="evenodd" d="M825.305 20.8379C825.305 20.8379 830.14 22.4942 834.165 26.0435C838.447 29.8215 841.943 35.5127 841.943 35.5127L831.454 48.4327C831.454 48.4327 828.963 42.3177 824.986 38.8086C820.656 34.9904 814.819 33.7479 814.819 33.7479L825.308 20.8278L825.305 20.8379Z" fill="#FED430"/>
<path fill-rule="evenodd" clip-rule="evenodd" d="M20.5733 573.193C20.5733 573.193 16.0764 574.703 11.0931 574.564C5.79399 574.409 0 572.605 0 572.605L0.435189 558.672C0.435189 558.672 5.73425 561.284 10.6408 561.431C15.9911 561.586 21 559.268 21 559.268L20.5648 573.201L20.5733 573.193Z" fill="#2496F0"/>
<path fill-rule="evenodd" clip-rule="evenodd" d="M291.905 624.261C291.905 624.261 288.835 623.456 286.135 621.531C283.266 619.479 280.761 616.304 280.761 616.304L286.391 608.524C286.391 608.524 288.31 611.976 290.965 613.877C293.862 615.948 297.527 616.482 297.527 616.482L291.897 624.263L291.905 624.261Z" fill="#2496F0"/>
<path fill-rule="evenodd" clip-rule="evenodd" d="M844.854 700.729C844.854 700.729 850.326 701.508 855.377 704.306C860.743 707.29 865.697 712.297 865.697 712.297L857.456 726.944C857.456 726.944 853.464 721.337 848.497 718.571C843.078 715.56 836.627 715.372 836.627 715.372L844.867 700.725L844.854 700.729Z" fill="#2496F0"/>
<path fill-rule="evenodd" clip-rule="evenodd" d="M686.678 97.9742C686.678 97.9742 683.556 98.5423 680.295 97.9395C676.828 97.2934 673.216 95.4755 673.216 95.4755L675.028 86.0444C675.028 86.0444 678.226 88.3614 681.436 88.9619C684.937 89.6132 688.484 88.5477 688.484 88.5477L686.672 97.9789L686.678 97.9742Z" fill="#2496F0"/>
<path fill-rule="evenodd" clip-rule="evenodd" d="M148.566 779.892C148.566 779.892 145.362 777.386 143.153 773.751C140.809 769.882 139.457 764.878 139.457 764.878L149.974 758.591C149.974 758.591 150.499 763.624 152.666 767.208C155.033 771.113 159.073 773.603 159.073 773.603L148.556 779.89L148.566 779.892Z" fill="#2496F0"/>
<path fill-rule="evenodd" clip-rule="evenodd" d="M147.867 626.521C147.867 626.521 152.008 625.589 156.396 626.218C161.067 626.889 166 629.135 166 629.135L164.133 641.901C164.133 641.901 159.723 638.962 155.393 638.341C150.671 637.662 146 639.287 146 639.287L147.867 626.521Z" fill="#FF837E"/>
<path fill-rule="evenodd" clip-rule="evenodd" d="M1045.89 0.388872C1045.89 0.388872 1048.2 0.0814985 1050.57 0.661277C1053.08 1.28004 1055.65 2.7948 1055.65 2.7948L1053.91 9.85458C1053.91 9.85458 1051.67 7.97836 1049.34 7.40564C1046.79 6.78019 1044.15 7.44865 1044.15 7.44865L1045.89 0.388872Z" fill="#FF837E"/>
<path fill-rule="evenodd" clip-rule="evenodd" d="M610.871 158.11C610.871 158.11 612.975 157.111 615.395 156.947C617.971 156.773 620.873 157.439 620.873 157.439L621.381 164.716C621.381 164.716 618.676 163.605 616.288 163.767C613.684 163.943 611.378 165.386 611.378 165.386L610.871 158.11Z" fill="#FF837E"/>
<path fill-rule="evenodd" clip-rule="evenodd" d="M244.696 517.064C244.696 517.064 247.913 518.135 250.648 520.373C253.558 522.758 255.99 526.325 255.99 526.325L249.385 534.275C249.385 534.275 247.6 530.45 244.902 528.24C241.96 525.83 238.091 525.013 238.091 525.013L244.696 517.064Z" fill="#FF837E"/>
</svg>
