<svg width="974" height="263" viewBox="0 0 974 263" fill="none" xmlns="http://www.w3.org/2000/svg">
<rect x="85" y="44" width="808" height="219" rx="20" fill="#2496F0"/>
<rect x="73.5" y="37.5" width="809" height="216" rx="18.5" stroke="black" stroke-width="3"/>
<line x1="483.5" y1="39" x2="483.5" y2="255" stroke="black" stroke-width="3"/>
<path d="M646.368 88.16L645.248 103.36C648.688 102.32 652.208 101.92 656.048 101.92C669.568 101.92 677.888 108.48 677.888 120.32C677.888 132.64 667.968 139.36 654.368 139.36C643.168 139.36 636.368 133.84 635.728 125.12C636.688 122.72 638.768 121.52 640.928 121.52C644.208 121.52 646.048 123.28 646.608 128L647.728 135.92C649.008 136.4 650.288 136.56 652.128 136.56C659.328 136.56 664.208 131.04 664.208 120.96C664.208 111.68 659.488 106.4 652.128 106.4C649.088 106.4 646.368 106.8 643.568 107.76L641.248 106.08L643.168 78.24H675.728V88.16H646.368ZM696.48 108C696.48 130.56 700.4 136.56 705.12 136.56C709.84 136.56 713.92 130.48 713.92 108C713.92 85.68 709.84 79.68 705.12 79.68C700.4 79.68 696.48 85.6 696.48 108ZM705.12 76.88C716.16 76.88 726 86.32 726 108C726 129.84 716.16 139.36 705.12 139.36C694 139.36 684.32 129.84 684.32 108C684.32 86.32 694 76.88 705.12 76.88Z" fill="black"/>
<path d="M568.68 181.042L568.76 190.002H545.64L545.68 188.642L549.24 188.282C549.36 184.282 549.36 180.242 549.36 177.042V174.202C549.36 170.042 549.36 165.922 549.24 161.802L545.64 161.482V160.122H560.12V161.482L556.2 161.842C556.12 165.882 556.12 169.962 556.12 173.562V176.162C556.12 180.122 556.12 184.282 556.2 188.442H564.52L566.52 181.042H568.68ZM587.619 161.482L584.059 161.802C583.979 165.882 583.979 170.042 583.979 174.202V175.922C583.979 180.042 583.979 184.162 584.059 188.282L587.619 188.642V190.002H573.499V188.642L577.099 188.282C577.219 184.242 577.219 180.122 577.219 175.962V174.202C577.219 170.042 577.219 165.922 577.099 161.802L573.499 161.482V160.122H587.619V161.482ZM622.961 160.122V161.482L619.281 162.002L619.001 190.082H615.481L597.841 165.202L598.081 188.042L603.441 188.642V190.002H592.321V188.642L596.001 188.082L596.241 162.922L595.481 161.802L592.641 161.482V160.122H602.281L617.441 181.082L617.241 162.042L611.921 161.482V160.122H622.961ZM651.218 181.722L651.298 190.002H627.578V188.642L631.178 188.282C631.298 184.242 631.298 180.122 631.298 175.962V174.202C631.298 170.042 631.298 165.922 631.178 161.802L627.578 161.482V160.122H650.458L650.418 168.082H648.098L646.258 161.682H638.138C638.058 165.682 638.058 169.802 638.058 174.042H643.498L644.098 169.602H646.098V179.722H644.098L643.538 175.482H638.058V175.602C638.058 180.042 638.058 184.282 638.138 188.442H647.138L648.978 181.722H651.218ZM680.533 161.642H678.973C678.893 165.762 678.893 169.962 678.893 174.202V176.562H680.213C684.853 176.562 687.093 173.442 687.093 168.962C687.093 164.122 684.773 161.642 680.533 161.642ZM680.413 178.042H678.893C678.893 181.042 678.893 184.602 678.973 188.202L683.253 188.642V190.002H668.413V188.642L672.013 188.282C672.133 184.242 672.133 180.122 672.133 175.962V174.202C672.133 170.042 672.133 165.922 672.013 161.802L668.413 161.482V160.122H680.613C689.693 160.122 693.333 163.362 693.333 169.002C693.333 174.002 689.933 178.042 680.413 178.042ZM705.464 175.042C705.464 183.282 707.664 189.282 712.584 189.282C717.464 189.282 719.704 183.282 719.704 175.042C719.704 166.882 717.464 160.842 712.584 160.842C707.664 160.842 705.464 166.882 705.464 175.042ZM712.584 159.322C720.104 159.322 726.744 164.682 726.744 175.042C726.744 185.442 720.144 190.802 712.584 190.802C705.064 190.802 698.384 185.482 698.384 175.042C698.384 164.722 705.104 159.322 712.584 159.322ZM745.674 161.482L742.114 161.802C742.034 165.882 742.034 170.042 742.034 174.202V175.922C742.034 180.042 742.034 184.162 742.114 188.282L745.674 188.642V190.002H731.554V188.642L735.154 188.282C735.274 184.242 735.274 180.122 735.274 175.962V174.202C735.274 170.042 735.274 165.922 735.154 161.802L731.554 161.482V160.122H745.674V161.482ZM781.016 160.122V161.482L777.336 162.002L777.056 190.082H773.536L755.896 165.202L756.136 188.042L761.496 188.642V190.002H750.376V188.642L754.056 188.082L754.296 162.922L753.536 161.802L750.696 161.482V160.122H760.336L775.496 181.082L775.296 162.042L769.976 161.482V160.122H781.016ZM807.624 161.682H802.064C801.984 165.802 801.984 169.962 801.984 174.202V175.922C801.984 180.002 801.984 184.162 802.064 188.242L806.144 188.642V190.002H791.104V188.642L795.144 188.242C795.224 184.242 795.224 180.122 795.224 175.962V174.202C795.224 170.002 795.224 165.802 795.144 161.682H789.624L787.624 168.682H785.264L785.424 160.122H811.824L811.984 168.682H809.664L807.624 161.682ZM827.265 171.282L829.385 172.242C835.345 174.922 837.545 177.322 837.545 181.842C837.545 187.162 833.505 190.802 825.985 190.802C822.705 190.802 819.065 189.962 816.665 188.402L816.945 181.522H819.265L821.385 188.482C822.585 188.922 823.785 189.082 825.305 189.082C829.265 189.082 831.465 187.202 831.465 184.082C831.465 181.362 830.305 179.922 827.105 178.522L825.185 177.682C819.825 175.282 816.985 172.602 816.985 167.802C816.985 162.402 821.345 159.322 827.865 159.322C830.985 159.322 833.785 160.162 835.985 161.602L835.625 168.122H833.305L831.265 161.482C830.465 161.122 829.665 161.002 828.665 161.002C825.185 161.002 822.945 162.762 822.945 165.762C822.945 168.522 824.465 170.002 827.265 171.282Z" fill="black"/>
<path d="M635.882 229.94C634.042 226.94 632.942 223.72 632.942 219.78C632.942 215.86 634.042 212.62 635.882 209.64L637.022 210.16C635.282 213.02 634.462 216.38 634.462 219.78C634.462 223.18 635.282 226.56 637.022 229.4L635.882 229.94ZM647.199 217.92L647.399 219.26L644.959 220.02V225.82C644.959 226.64 644.759 227.04 644.239 227.28C643.739 227.5 642.939 227.54 641.619 227.54C641.559 227.16 641.359 226.58 641.159 226.18C642.059 226.2 642.899 226.2 643.139 226.2C643.419 226.2 643.519 226.1 643.519 225.82V220.46L640.899 221.28L640.499 219.84C641.339 219.62 642.379 219.32 643.519 218.98V214.66H640.759V213.28H643.519V209.28H644.959V213.28H647.179V214.66H644.959V218.6C645.699 218.38 646.439 218.14 647.199 217.92ZM653.859 224.64H657.159V220.56H653.859V224.64ZM649.299 220.56V224.64H652.439V220.56H649.299ZM652.439 215.26H649.299V219.16H652.439V215.26ZM657.159 215.26H653.859V219.16H657.159V215.26ZM653.859 213.84H658.619V227.34H657.159V226.06H649.299V227.48H647.879V213.84H652.439V209.3H653.859V213.84ZM662.739 226V224.92C667.339 220.9 669.459 217.98 669.459 215.46C669.459 213.78 668.579 212.56 666.759 212.56C665.559 212.56 664.519 213.3 663.719 214.26L662.659 213.22C663.859 211.92 665.119 211.06 666.979 211.06C669.599 211.06 671.239 212.78 671.239 215.4C671.239 218.32 668.939 221.3 665.499 224.56C666.259 224.5 667.159 224.42 667.899 224.42H671.959V226H662.739ZM680.513 226.26C677.713 226.26 675.933 223.72 675.933 218.62C675.933 213.52 677.713 211.06 680.513 211.06C683.293 211.06 685.073 213.54 685.073 218.62C685.073 223.72 683.293 226.26 680.513 226.26ZM680.513 224.8C682.173 224.8 683.293 222.94 683.293 218.62C683.293 214.34 682.173 212.54 680.513 212.54C678.833 212.54 677.713 214.34 677.713 218.62C677.713 222.94 678.833 224.8 680.513 224.8ZM693.607 226.26C690.807 226.26 689.027 223.72 689.027 218.62C689.027 213.52 690.807 211.06 693.607 211.06C696.387 211.06 698.167 213.54 698.167 218.62C698.167 223.72 696.387 226.26 693.607 226.26ZM693.607 224.8C695.267 224.8 696.387 222.94 696.387 218.62C696.387 214.34 695.267 212.54 693.607 212.54C691.927 212.54 690.807 214.34 690.807 218.62C690.807 222.94 691.927 224.8 693.607 224.8ZM707.681 225.12H716.561V220.58H707.681V225.12ZM715.781 212.62H708.381C707.961 213.04 707.501 213.42 707.041 213.82C708.401 214.78 710.081 216.04 711.061 216.98C712.981 215.78 714.641 214.3 715.781 212.62ZM718.081 219.2V227.52H716.561V226.48H707.681V227.52H706.221V220.94C705.121 221.32 704.001 221.64 702.901 221.9C702.781 221.5 702.441 220.86 702.141 220.54C704.681 220.02 707.321 219.08 709.681 217.8C708.721 216.84 707.201 215.64 705.881 214.66C705.181 215.14 704.441 215.6 703.641 216C703.421 215.66 702.941 215.1 702.621 214.88C705.841 213.32 708.101 211.1 709.301 209.2L710.961 209.56C710.581 210.12 710.161 210.7 709.661 211.26H716.741L716.981 211.18L717.981 211.8C716.341 214.98 713.461 217.44 710.141 219.2H718.081ZM725.121 229.94L724.001 229.4C725.721 226.56 726.561 223.18 726.561 219.78C726.561 216.38 725.721 213.02 724.001 210.16L725.121 209.64C726.981 212.62 728.081 215.86 728.081 219.78C728.081 223.72 726.981 226.94 725.121 229.94Z" fill="black"/>
<path d="M747.48 129.48H748.04C749.84 133.76 749.72 137 748.48 138.68C747.56 139.88 745.2 139.76 744.4 138.16C743.72 136.76 744.4 135.4 745.64 134.56C746.52 133.64 747.76 131.36 747.48 129.48ZM750.4 129.92L750.92 129.8C757.76 135.32 752.6 141.4 749.88 137.6C750.56 135.08 750.68 132.12 750.4 129.92ZM753.84 129.8L754.28 129.6C763.16 133.6 758.48 140.72 755.12 137.16C755.48 134.68 754.8 131.8 753.84 129.8ZM775.52 122H769.72V134.96H775.52V122ZM750 108.96V115.88H752.64V113.16C752.16 113.88 751.28 114 750.52 113.16C750.56 111.88 750.32 110.32 750 108.96ZM750 105.48V106.88C751.4 108 752.2 109.12 752.64 110.08V105.48H750ZM758.44 105.48H755.96V113.04C756.2 111.04 756.44 108.36 756.52 106.96L758.44 107.6V105.48ZM755.96 115.88H758.44V110.72C757.8 111.72 757.08 112.84 756.36 113.8L755.96 113.68V115.88ZM781.92 113.24H775.12V120.88H775.32L778 117.88L782.84 121.6C782.56 121.96 782.16 122.24 781.2 122.44V138.04C781.2 138.28 779.44 139.28 776.52 139.28H775.52V136.08H769.72V138.4C769.72 138.76 768.08 139.68 765.32 139.68H764.32V136.32C763.76 138.08 761.76 138.96 760.04 137.2C760.4 134.64 759.6 131.68 758.44 129.68L758.84 129.48C762.28 130.8 763.88 132.64 764.32 134.32V128.2C764.12 128.32 763.92 128.36 763.64 128.36H744.72L744.4 127.24H751.8V121.84H745.36L745.04 120.72H751.8V117H750V117.08C750 117.48 748.04 118.48 746.2 118.48H745.56V102.52L750.2 104.36H758.08L760.12 102.16L764.4 105.4C764.16 105.68 763.68 106 762.92 106.12V116.88C762.88 117.16 760.68 118 759.2 118H758.44V117H756.8V120.72H757.28L759.48 118C759.48 118 762 119.84 763.56 121.2C763.44 121.64 763.04 121.84 762.48 121.84H756.8V127.24H757.76L760.24 124.2C760.24 124.2 762.6 125.96 764.32 127.4V118.72L769.64 120.68V102.44L776.56 103C776.52 103.6 776.2 104 775.12 104.16V112.12H775.8L778.36 108.56C778.36 108.56 781.32 110.96 783.04 112.6C782.92 113.04 782.48 113.24 781.92 113.24Z" fill="black"/>
<circle cx="580.5" cy="109.5" r="34.5" fill="white"/>
<path d="M588.863 124.72H592.063V113.84H588.863V124.72ZM580.543 113.84V124.72H583.463V113.84H580.543ZM571.143 102.28V109.36C572.503 109.16 573.943 108.92 575.343 108.68V102.28H571.143ZM583.463 102.2H580.543V112.72H583.463V102.2ZM592.063 102.2H588.863V112.72H592.063V102.2ZM594.143 98.32L599.063 102.2C598.783 102.56 598.263 102.88 597.463 103.08V127.8C597.423 128.2 594.863 129.32 592.943 129.32H592.063V125.84H580.543V127.6C580.543 128.2 578.463 129.44 576.183 129.44H575.343V109.36C574.223 110.12 572.863 111 571.143 112.04V123.76C571.143 127.4 570.423 129.32 564.983 129.8C564.903 128.08 564.743 126.84 564.263 126.04C563.823 125.24 563.183 124.68 561.583 124.36V123.8C561.583 123.8 564.423 124 565.103 124C565.663 124 565.823 123.84 565.823 123.44V115.12L564.023 116.08C563.823 116.6 563.343 117.04 562.823 117.12L560.783 110.76C561.863 110.64 563.663 110.44 565.823 110.12V102.28H561.423L561.103 101.16H565.823V91.84L572.583 92.48C572.543 93.08 572.143 93.48 571.143 93.6V100.52L572.943 97.56C572.943 97.56 574.143 98.76 575.343 100.04V98.88L580.823 101.08H583.463V92.4L590.143 93.04C590.103 93.56 589.823 93.92 588.863 94.08V101.08H591.663L594.143 98.32Z" fill="black"/>
<path d="M198.68 159.4L197.76 166.16C199.2 168.52 199.4 169.72 198.72 170.36C196.92 172.12 193.56 170.44 191.68 168.76C189.84 167.2 188.32 165.4 187.04 163.44C183.84 166.64 179.8 169.32 174.64 171.2L174.36 170.72C179 168 182.6 164.36 185.28 160.32C182.92 155.4 181.76 149.64 181.28 143.36H170.04V149.76H174.76L177 147.52L181.04 150.88C180.76 151.2 180.28 151.44 179.48 151.56C179.24 160.12 178.72 163.2 176.96 164.6C175.88 165.44 174.52 165.88 172.64 165.88C172.64 164.6 172.56 163.56 172.08 162.92C171.6 162.36 170.76 161.96 169.6 161.64V161.12C170.52 161.2 172.16 161.28 172.84 161.28C173.4 161.28 173.68 161.2 173.92 160.96C174.64 160.32 174.96 157.32 175.12 150.88H170.04C170.04 157.28 169.48 166.12 161.52 171.76L161.16 171.4C165 165.32 165.36 157.6 165.36 150.84V140.32L170.76 142.24H181.16C181 139.56 180.92 136.84 180.92 134.04L187 134.64C186.96 135.16 186.6 135.64 185.56 135.8C185.52 137.96 185.56 140.12 185.68 142.24H191.68L193.12 140.44C192.64 140.48 192.12 140.4 191.56 140.12C190.92 138.36 189.04 136.4 187.52 135.36L187.8 135.04C194.2 134.64 195.6 137.64 194.76 139.32C195.64 140 197.64 141.6 198.96 142.76C198.88 143.16 198.44 143.36 197.84 143.36H185.72C186.04 147.64 186.72 151.8 188.08 155.4C189.44 152.52 190.44 149.52 191.12 146.64L197.36 148.72C197.2 149.2 196.84 149.52 195.76 149.48C194.48 152.96 192.72 156.52 190.24 159.8C191.36 161.56 192.76 163.08 194.44 164.36C195.04 164.92 195.32 164.92 195.76 164.2C196.4 163.2 197.52 161.04 198.28 159.32L198.68 159.4ZM221.64 154.44L221.8 154.92C218.76 157.04 214.08 160.08 207.2 163.84C207.04 164.36 206.68 164.76 206.24 164.96L203.44 159.88C204.8 159.56 207.04 158.92 209.8 158.12V141.12H204.56L204.24 139.96H215.08L217.48 136.8C217.48 136.8 220.12 138.96 221.72 140.48C221.6 140.92 221.16 141.12 220.6 141.12H214.44V156.72C216.76 156 219.24 155.24 221.64 154.44ZM236.88 141.88L241.12 145.6C240.84 145.96 240.28 146.2 239.4 146.36C238.88 160.6 238 167.24 235.64 169.48C234.24 170.84 232.44 171.44 229.96 171.44C230 169.96 229.8 168.88 229.16 168.24C228.48 167.52 227.04 166.92 225.2 166.52L225.24 165.96C227 166.12 229.68 166.32 230.64 166.32C231.36 166.32 231.76 166.2 232.16 165.8C233.64 164.48 234.4 157.44 234.8 145.56H228.8C228.2 156.48 225.52 165.44 211.88 171.56L211.44 170.96C221.52 164.08 223.76 155.68 224.2 145.56H218.28L217.92 144.44H224.24C224.36 141.16 224.32 137.76 224.32 134.12L230.56 134.72C230.44 135.32 230.04 135.72 229.08 135.84C229.04 138.8 229 141.68 228.88 144.44H234.36L236.88 141.88ZM270.24 150.56L269.64 150.28C271.12 145.96 272 140 272.08 134.4L277.52 135.24C277.4 135.76 277 136.16 276.08 136.24C275.68 138.32 275.2 140.32 274.6 142.2H277.4L279.4 139.4C279.4 139.4 281.68 141.36 283 142.68C282.88 143.12 282.52 143.32 281.96 143.32H280.36C280.08 147.48 279.44 151.28 278.2 154.72C283.4 162 281.36 167.28 278.32 164.64C278.04 162.72 277.36 160.6 276.48 158.4C274.88 161.28 272.72 163.8 269.64 165.88L269.28 165.4C272.16 162.32 273.92 158.76 274.96 154.84C273.92 152.64 272.84 150.56 271.84 148.76L272.44 148.56C273.64 149.6 274.72 150.6 275.68 151.6C276.16 149 276.36 146.24 276.44 143.32H274.24C273.2 146.2 271.92 148.68 270.24 150.56ZM266.2 140.08H261.4V143.2H266.2V140.08ZM261.4 147.4H266.2V144.36H261.4V147.4ZM261.4 148.56V149.52C261.4 149.84 259.8 150.64 258.28 150.64H257.72V137.36L261.56 138.96H261.76C261.92 137.48 262.04 135.48 262.08 134.08L267.56 134.88C267.44 135.36 267.04 135.8 266.16 135.8C265.36 136.8 264.12 137.96 262.92 138.96H265.88L267.56 137.2L271.08 139.8C270.88 140.08 270.4 140.32 269.84 140.44V148.72C269.8 148.96 268 149.68 266.84 149.68H266.2V148.56H261.4ZM247.56 134.84L247.96 134.6C258.4 136.08 254.88 143.76 250.96 141.04C250.6 138.88 249 136.36 247.56 134.84ZM258.16 153.72L258.44 153.96C258.16 154.32 257.8 154.44 256.92 154.48C256.08 157.32 254.4 160.48 251.96 163C252.28 163.04 252.48 163.2 252.84 163.4C256.04 166 260.92 166.56 269.8 166.56C274.48 166.52 278.44 166.52 283.24 166.28V166.76C281.28 167.16 280.2 168.88 279.92 170.64H268.16C259.4 170.64 255.8 169.04 252.32 164.88C251.72 164.12 251.28 164.2 250.92 164.92C250.32 166.16 249.36 168.28 248.64 170.32C248.72 170.68 248.6 170.88 248.36 171.12L245.12 166.6C246.72 165.68 249 164 250.36 163.24C251.64 160.68 252.56 157.2 252.92 154.24H251.04L249.64 155.52L246.32 153.04C246.68 152.76 247.32 152.48 247.88 152.28C249.08 150.4 250.72 147.72 251.76 145.76H246.44L246.08 144.6H251.84L253.72 142.72L257.48 146.12C257.12 146.52 256.36 146.68 255.44 146.76C254.4 148.48 252.76 151.16 251.48 153.12H252.68L254.76 151.04L257.56 153.28L257.36 152.6H264.08C263.64 152.52 263.2 152.36 262.8 152C262.88 150.92 262.36 149.64 261.76 148.96L262.16 148.76C267.64 149.16 266.68 152.32 264.68 152.6H266.64L268.64 150.4C268.64 150.4 270.84 151.92 272.28 153.08C272.16 153.52 271.76 153.72 271.2 153.72H263.64C263.6 154.48 263.48 155.28 263.32 156.04H265.92L267.8 154.24L271.28 157.04C271 157.32 270.52 157.56 269.84 157.64C269.48 161.68 269.04 163.6 267.76 164.56C267 165.12 265.88 165.28 264.8 165.32C264.8 164.56 264.64 163.84 264.24 163.36C263.84 162.88 262.96 162.44 262 162.24V161.68C262.92 161.76 264.32 161.84 264.84 161.84C265.12 161.84 265.28 161.76 265.4 161.6C265.76 161.16 266.04 159.8 266.24 157.16H263.08C262.28 160.08 260.56 162.96 256.92 165.16L256.4 164.6C259.36 161.16 259.72 157.24 259.8 153.72H258.16ZM291.28 134.84L291.64 134.6C301.84 136.2 297.2 143.52 293.32 140.28C293.24 138.32 292.28 136.2 291.28 134.84ZM297.96 141.8L300 139.16C300 139.16 302.32 141 303.64 142.32C303.56 142.76 303.16 142.96 302.64 142.96H287.88L287.56 141.8H297.96ZM289.2 146.92H296.64L298.56 144.4C298.56 144.4 300.76 146.16 302.08 147.44C301.96 147.88 301.6 148.08 301.04 148.08H289.52L289.2 146.92ZM296.64 152.08L298.56 149.64C298.56 149.64 300.76 151.32 302.08 152.6C301.96 153.04 301.6 153.24 301.04 153.24H289.52L289.2 152.08H296.64ZM293.84 166.28H297.32V158.44H293.84V166.28ZM298.88 155.24L302.96 158.32C302.72 158.6 302.2 158.92 301.44 159.08V168.36C301.4 168.68 299.4 169.56 298 169.56H297.32V167.4H293.84V169.8C293.84 170.2 292.08 171.12 290.36 171.12H289.76V155.6L294 157.32H296.92L298.88 155.24ZM309.36 161.48H317.76V158.08H309.4V159.96C309.4 160.44 309.4 160.96 309.36 161.48ZM317.76 153.52H309.4V156.96H317.76V153.52ZM317.36 152.4L319.24 150.2L323.56 153.44C323.32 153.76 322.76 154.08 321.92 154.24V166.36C321.92 169.2 321.32 170.84 316.68 171.24C316.6 169.96 316.44 168.92 315.96 168.32C315.44 167.68 314.72 167.24 313.12 167V166.4C313.12 166.4 316.28 166.6 317 166.6C317.6 166.6 317.76 166.36 317.76 165.88V162.64H309.28C308.88 166 307.36 169.4 302.2 171.68L301.84 171.32C304.96 168.2 305.2 164.16 305.2 159.96V150.6L310.08 152.4H317.36ZM318.96 148.4L321.24 145.48C321.24 145.48 323.76 147.48 325.32 148.92C325.24 149.36 324.8 149.56 324.24 149.56H302.68L302.36 148.4H311.16V144.64H304.76L304.44 143.52H311.16V140H303.24L302.92 138.84H311.16V134L316.84 134.52C316.76 135.04 316.48 135.4 315.56 135.56V138.84H318.2L320.44 135.96C320.44 135.96 322.96 137.92 324.48 139.36C324.4 139.8 324 140 323.4 140H315.56V143.52H317.4L319.48 140.88C319.48 140.88 321.84 142.68 323.24 144C323.12 144.44 322.72 144.64 322.16 144.64H315.56V148.4H318.96ZM343.12 166.04L348.84 166.76V168H331.68V166.76L337.6 166.04C337.68 163.56 337.72 161.08 337.72 158.6V141.24L332.52 141.76V140.28L342.6 137.88L343.16 138.32L343 144.76V158.6C343 161.08 343.04 163.56 343.12 166.04ZM373.48 139.44H363.12C360.8 142.32 358 144.36 355.12 145.76L354.68 145.36C357.12 142.72 359.56 138.32 360.88 133.68L366.88 135.6C366.72 136.08 366.2 136.4 365.28 136.36C364.88 137.04 364.44 137.68 364 138.32H368.92L370.92 135.6C370.92 135.6 373.2 137.48 374.56 138.8C374.44 139.24 374.04 139.44 373.48 139.44ZM363.92 140.24L364.28 140C372.44 140.72 369.16 146.6 366 144.32C365.84 142.88 364.84 141.2 363.92 140.24ZM375.76 156.76V160.24H382.56L384.48 158C383.8 158.2 383.04 158.36 382.44 158.36H381.64V156.76H375.76ZM375.76 152.2V155.6H381.64V152.2H375.76ZM375.76 147.68V151.08H381.64V147.68H375.76ZM384.96 164.64L387.32 161.72C387.32 161.72 390.04 163.72 391.64 165.16C391.52 165.6 391.12 165.8 390.6 165.8H375.76V170.16C375.76 170.56 373.68 171.56 371.92 171.56H371.04V165.8H356.88L356.56 164.64H371.04V161.36H359.52L359.2 160.24H371.04V156.76H360.4L360.04 155.6H371.04V152.2H356.6L356.28 151.08H371.04V147.68H360.76L360.4 146.52H371.04V143.6L377.08 144.16C377 144.68 376.72 145.04 375.76 145.2V146.52H381.28L383.04 144.64C382.76 144.56 382.44 144.44 382.12 144.2C381.96 142.72 380.88 141.08 379.88 140.16L380.24 139.92C387.44 140.24 386.28 144.64 383.76 144.72L387.52 147.52C387.32 147.8 386.84 148.08 386.2 148.2V151.08H386.52L388.4 148.2C388.4 148.2 390.48 150.24 391.6 151.56C391.52 152 391.16 152.2 390.6 152.2H386.2V157.24C386.2 157.36 385.76 157.56 385.2 157.8C385.92 158.32 387.84 159.64 389.2 160.72C389.08 161.16 388.64 161.36 388.04 161.36H375.76V164.64H384.96ZM386.56 138.28L388.8 135.48C388.8 135.48 391.24 137.4 392.76 138.8C392.68 139.24 392.24 139.44 391.68 139.44H378.52C376.84 141.08 374.92 142.36 372.96 143.24L372.52 142.84C374.16 140.68 375.76 137.2 376.64 133.68L382.44 135.92C382.24 136.4 381.72 136.72 380.84 136.64C380.48 137.2 380.04 137.76 379.6 138.28H386.56Z" fill="black"/>
<path d="M940.701 239.469C940.701 239.469 938.016 223.476 938.514 218.408C939.017 213.339 946.979 204.069 946.979 204.069L958.283 191.299H945.628L940.707 187.039L938.519 180.683L948.69 171.971L964.529 153.473C964.529 153.473 953.023 155.452 952.069 154.67C951.116 153.888 940.701 156.409 940.701 156.409L937.841 147.649L948.684 141.506L954.633 133.417L938.514 134.858L934.822 121.099C934.822 121.099 935.123 120.716 939.716 116.435C944.309 112.153 961.461 103.707 961.461 103.707L960.232 100.069L934.392 103.021V85.7303C934.392 85.7303 944.685 82.4062 945.909 81.9328C947.127 81.4648 960.232 70.7372 960.232 70.7372C960.232 70.7372 959.528 69.2906 958.283 69.5299C957.038 69.7639 934.822 72.8221 934.822 72.8221C934.822 72.8221 922.839 64.6953 916.281 58.0205C909.723 51.3456 903.149 39.9266 903.149 39.9266C903.149 39.9266 895.277 54.0741 893.948 56.143C892.618 58.2173 888.11 71.3914 882.649 72.8221C877.187 74.2528 857.704 81.3478 851.554 80.9595C845.404 80.5713 843.301 80.9595 843.301 80.9595C843.301 80.9595 851.236 85.592 855.702 88.7194C860.167 91.8467 874.767 93.4954 874.767 93.4954L874.486 106.861L851.554 111.871C851.554 111.871 851.723 116.243 855.469 117.089C859.214 117.934 870.661 125.45 870.661 125.45V135.363C870.661 135.363 863.34 140.007 858.117 140.368C852.894 140.725 843.301 141.506 843.301 141.506C843.301 141.506 857.948 149.654 864.082 151.771C870.216 153.888 871.678 156.409 871.678 156.409L869.098 164.605C869.098 164.605 853.207 167.387 849.541 168.509C845.875 169.631 840.228 169.61 840.228 169.61C840.228 169.61 845.949 176.79 848.487 177.795C851.024 178.8 862.673 187.039 862.673 187.039L871.519 190.501L870.672 198.585L851.559 204.069C851.559 204.069 853.837 209.318 854.775 209.919C855.707 210.515 869.962 220.376 869.962 220.376L867.949 233.31L866.556 245.916C866.556 245.916 877.362 248.612 883.576 248.511C889.79 248.41 923.289 245.995 924.953 245.995C926.616 245.995 943.334 244.097 943.334 244.097L940.701 239.469Z" fill="#FBFBFB"/>
<path d="M960.238 69.4927C960.238 69.4927 953.643 75.2101 951.349 76.0186C949.05 76.827 929.429 77.3748 928.083 77.7099C926.738 78.045 889.456 78.8215 889.456 78.8215L853.498 87.2302L842.607 78.396C842.607 78.396 857.333 81.1404 869.3 76.6515C881.266 72.1626 888.598 69.8756 891.84 63.5731C895.087 57.2652 903.149 42.1924 903.149 42.1924L905.379 39.9266C905.379 39.9266 915.698 53.2657 916.186 55.8399C916.673 58.414 932.432 73.1572 935.934 72.6732C939.435 72.1892 955.518 69.9447 955.518 69.9447L962.643 67.2482L960.238 69.4927Z" fill="#FF837E"/>
<path d="M960.238 100.08C960.238 100.08 940.844 103.165 934.398 103.032C927.951 102.899 899.203 102.223 899.203 102.223H892.263L880.148 104.803L848.492 112.972L857.132 118.057C857.132 118.057 869.586 115.413 870.672 115.163C871.758 114.913 892.269 107.787 892.269 107.787L895.113 110.015C895.113 110.015 927.919 110.818 932.3 110.015C936.681 109.212 955.756 108.515 955.756 108.515L960.238 100.08Z" fill="#FF837E"/>
<path d="M956.593 132.05C956.593 132.05 931.124 134.603 929.545 134.613C927.967 134.624 909.305 132.965 909.305 132.965L893.911 130.391C893.911 130.391 884.079 134.645 880.149 135.369C876.218 136.092 852.661 140.772 852.264 140.804C851.866 140.836 845.282 142.597 845.282 142.597L853.329 147.351C853.329 147.351 862.826 144.612 865.666 144.224C868.505 143.836 891.199 138.629 891.199 138.629C891.199 138.629 901.216 138.714 904.436 138.629C907.657 138.544 930.133 138.661 934.822 137.688C939.51 136.709 955.539 134.613 955.539 134.613L956.593 132.05Z" fill="#FF837E"/>
<path d="M963.501 154.675C963.501 154.675 947.678 157.345 944.51 157.313C941.342 157.287 920.943 159.26 917.648 159.393C914.353 159.526 889.948 157.313 889.948 157.313C889.948 157.313 885.652 161.366 878.501 163.499C871.35 165.637 842.602 169.541 842.602 169.541C842.602 169.541 844.604 174.641 845.261 175.269C845.918 175.896 854.648 181.529 854.648 181.529L864.612 178.689L890.42 168.514C890.42 168.514 898.329 169.301 901.677 169.711C905.024 170.12 934.588 169.142 940.701 168.105C946.814 167.062 953.219 166.679 953.219 166.679L963.501 154.675Z" fill="#FF837E"/>
<path d="M959.194 188.719C959.194 188.719 931.792 193.139 925.509 193.644C919.226 194.15 891.024 192.134 891.024 192.134C891.024 192.134 884.598 192.756 879.863 195.985C875.127 199.213 850.452 205.68 850.452 205.68L857.932 212.408C857.932 212.408 864.882 212.892 869.093 212.01C873.305 211.127 889.074 205.68 889.074 205.68C889.074 205.68 905.989 204.005 906.418 204.069C906.852 204.133 952.901 202.686 952.901 202.686L960.238 188.948L959.194 188.719Z" fill="#FF837E"/>
<path d="M919.248 240.911C919.364 241.235 919.602 241.57 919.571 241.879C919.539 242.177 919.242 242.682 919.057 242.687C918.686 242.692 918.215 242.506 917.971 242.23C917.711 241.937 917.669 241.448 917.499 240.953C917.288 241.948 917.102 242.815 916.896 243.772C915.169 243.198 915.561 241.916 915.312 241.065C915.052 241.927 915.804 243.341 913.987 243.98C913.797 243.299 913.474 242.703 913.484 242.113C913.511 239.645 913.696 237.177 913.701 234.709C913.707 232.981 914.062 231.199 913.018 229.077C913.018 234.007 913.018 238.475 913.018 242.985C912.038 243.384 911.153 243.74 910.269 244.102C909.453 243.501 909.58 242.751 909.607 241.916C909.718 238.251 909.723 234.582 909.76 230.912C909.76 230.672 909.691 230.428 909.654 230.183C909.495 230.178 909.342 230.173 909.183 230.167C909.135 230.832 909.05 231.502 909.04 232.167C908.976 235.619 908.939 239.065 908.881 242.517C908.875 242.879 908.897 243.304 908.722 243.581C908.558 243.831 908.155 244.017 907.837 244.054C907.625 244.081 907.286 243.852 907.17 243.645C906.995 243.341 906.873 242.948 906.9 242.602C907.043 240.48 907.292 238.368 907.387 236.246C907.461 234.512 907.355 232.768 907.355 231.023C907.35 229.662 906.857 228.21 908.033 227.05C911.762 226.832 915.492 226.636 919.216 226.386C920.201 226.322 920.884 226.646 920.868 227.646C920.8 231.321 922.209 234.683 922.966 238.182C923.162 239.086 922.998 240.065 922.998 240.98C920.858 242.389 920.858 242.389 919.248 240.911C919.343 239.246 919.449 237.581 919.549 235.917C919.375 235.917 919.2 235.911 919.03 235.911C919.099 237.576 919.173 239.241 919.248 240.911ZM916.678 230.912C916.911 233.768 916.413 236.693 917.468 239.469C917.044 236.629 917.87 233.672 916.678 230.912Z" fill="black"/>
<path d="M920.137 63.5784C920.116 63.5571 920.095 63.5412 920.079 63.5252H920.074L920.137 63.5784Z" fill="black"/>
<path d="M968.666 151.085C968.538 150.707 967.627 150.436 967.05 150.404C966.42 150.372 965.773 150.66 965.138 150.819C962.659 151.441 960.201 152.17 957.695 152.675C953.902 153.441 950.078 154.058 946.264 154.718C944.764 154.978 943.255 155.191 941.544 155.452C940.638 153.33 939.79 151.351 938.805 149.053C940.675 149.543 941.819 148.862 942.836 148.043C944.664 146.575 946.385 144.979 948.192 143.485C950.507 141.57 952.927 139.783 955.184 137.805C957.303 135.943 959.284 133.917 961.292 131.928C961.996 131.231 962.478 130.353 961.906 129.353C961.408 128.481 960.524 128.662 959.729 128.779C955.973 129.332 952.228 129.992 948.462 130.449C945.077 130.859 941.671 131.055 938.323 131.343C937.814 127.726 937.332 124.333 936.882 121.136C937.29 120.663 937.756 120.349 937.894 119.924C938.265 118.785 939.043 118.243 940.066 117.69C943.986 115.573 947.911 113.44 951.661 111.036C955.089 108.84 958.813 106.994 961.461 103.712C962.235 102.755 963.183 101.947 964.015 101.032C964.709 100.271 964.301 99.0108 963.247 98.8459C962.553 98.7396 961.811 98.947 961.091 99.0108C958.622 99.2395 956.159 99.5693 953.685 99.665C948.647 99.8618 943.599 99.9256 938.561 100.043C937.995 100.053 937.428 100.043 936.649 100.043C936.336 97.8141 935.982 95.7239 935.759 93.6231C935.542 91.5222 935.595 89.4214 936.331 87.5705C939.6 85.6399 942.746 83.7731 945.903 81.9275C946.274 81.7095 946.703 81.5552 947.122 81.4595C948.382 81.1616 949.352 80.55 950.162 79.4703C950.756 78.6832 951.63 77.9865 952.525 77.5716C955.136 76.359 957.679 75.2421 959.576 72.8168C961.234 70.7 963.405 68.9821 965.403 67.1418C965.943 66.6472 966.292 66.2058 966.123 65.4559C965.922 64.5836 965.164 64.5623 964.555 64.5517C963.872 64.5411 963.114 64.6634 962.51 64.9665C958.315 67.0727 953.987 68.7906 949.373 69.7107C947.657 70.0564 945.803 69.9394 944.198 70.5351C941.819 71.4233 939.706 71.0989 937.475 70.2C934.006 68.8013 930.515 67.4822 928.062 64.4187C927.755 64.0358 927.225 63.839 926.838 63.5093C924.465 61.4616 921.515 60.1479 919.454 57.7067C918.559 56.643 917.748 55.5101 916.853 54.457C913.754 50.8191 911.302 46.7504 908.96 42.6072C908.431 41.6711 908.076 40.6819 908.356 39.4639C908.6 38.4215 908.42 37.2673 908.367 36.1664C908.16 32.1296 907.89 28.0981 907.721 24.0613C907.599 21.0563 907.615 18.046 907.546 15.041C907.525 14.0304 907.594 12.972 906.704 12.254C903.531 12.7167 903.79 12.9135 903.361 15.642C902.969 18.0992 902.937 20.6095 902.784 23.1039C902.545 26.9865 902.386 30.8744 902.095 34.7516C901.931 36.9429 901.263 39.1342 901.401 41.2882C901.502 42.8678 900.908 43.9475 900.246 45.1176C897.825 49.3937 895.373 53.6433 892.925 57.9035C892.857 58.0258 892.719 58.1109 892.613 58.2119C890.801 57.813 890.732 57.813 890.07 59.5044C889.403 61.2063 888.931 62.988 888.163 64.6368C887.528 66.009 886.77 67.4131 885.753 68.4981C883.104 71.3169 879.804 73.2582 876.234 74.6357C873.993 75.4974 871.646 76.1515 869.294 76.6462C865.231 77.5025 861.147 78.3481 857.031 78.8481C854.441 79.1619 851.771 78.88 849.138 78.7842C846.956 78.7045 844.779 78.4864 842.596 78.3907C841.743 78.3534 840.843 78.3481 840.027 78.5768C838.915 78.8906 838.756 80.0288 839.651 80.8053C840.091 81.1829 840.636 81.4382 841.118 81.768C843.592 83.4646 845.986 85.3048 848.561 86.8259C850.876 88.1928 853.387 89.2406 855.834 90.3788C856.761 90.8096 857.725 91.1872 858.705 91.4584C860.676 92.0009 862.673 92.453 864.654 92.953C867.059 93.554 869.459 94.1709 871.858 94.7772C872.436 96.2877 871.54 98.1599 873.183 99.2608C873.262 99.314 873.23 99.5427 873.23 99.6863C873.23 101.808 873.23 103.925 873.23 106.01C871.689 106.414 870.216 106.829 868.733 107.175C866.248 107.755 863.759 108.308 861.258 108.834C859.473 109.207 857.678 109.51 855.887 109.845C854.6 110.084 853.318 110.366 852.025 110.568C850.584 110.792 849.122 110.893 847.687 111.153C846.341 111.398 845.261 112.063 844.683 113.722C847.226 114.78 849.71 115.807 852.184 116.849C852.709 117.073 853.572 117.254 853.662 117.61C853.959 118.785 854.865 118.796 855.68 118.929C857.534 119.232 859.14 120.025 860.665 121.088C861.682 121.796 862.784 122.375 863.838 123.035C865.978 124.375 868.113 125.731 870.036 126.949C869.543 130.093 869.098 132.901 868.622 135.943C867.758 136.204 866.805 136.544 865.825 136.767C863.69 137.251 861.539 137.677 859.394 138.129C858.753 138.262 858.122 138.48 857.476 138.528C854.054 138.804 850.627 139.102 847.2 139.262C844.784 139.374 842.983 140.592 840.991 142.065C841.547 142.48 841.849 142.777 842.21 142.964C844.593 144.198 846.797 145.74 849.101 147.101C854.351 150.197 859.473 153.409 865.586 154.558C866.773 154.782 867.859 155.526 868.992 156.031C869.67 156.335 869.999 156.813 869.904 157.595C869.623 159.84 869.379 162.089 869.093 164.584C865.258 165.334 861.486 166.232 857.662 166.775C852.74 167.472 847.782 167.913 842.835 168.397C841.118 168.567 840.032 169.487 839.211 170.886C838.798 171.588 838.925 172.056 839.646 172.514C840.758 173.216 841.955 173.891 842.824 174.843C844.471 176.646 846.384 178.088 848.365 179.46C849.684 180.375 850.955 181.369 852.682 181.481C853.207 181.513 853.747 181.896 854.208 182.22C857.132 184.278 860.056 186.337 862.943 188.443C864.845 189.831 866.731 191.187 869.522 191.187C869.331 193.65 869.157 195.953 868.982 198.192C864.304 199.857 859.849 201.245 855.23 202.058C853.577 202.351 851.919 202.622 850.267 202.925C849.17 203.127 847.803 204.287 847.809 205.17C847.814 206.329 848.561 206.983 849.604 207.404C850.134 207.616 850.6 207.999 851.067 208.34C853.89 210.398 856.051 213.217 859.081 215.078C861.566 216.605 863.828 218.504 866.105 220.338C866.9 220.977 868.103 221.407 868.081 222.753C868.065 223.928 868.161 225.13 867.959 226.274C867.207 230.609 866.339 234.922 865.555 239.251C865.268 240.842 865.062 242.448 864.919 244.054C864.802 245.309 865.3 245.799 866.535 245.889C867.938 245.995 868.881 245.166 869.215 243.256C869.782 240.007 870.211 236.736 870.741 233.481C871.154 230.965 871.63 228.46 872.06 226.056C873.315 225.609 874.343 225.21 875.386 224.87C878.724 223.785 882.055 222.679 885.419 221.679C886.955 221.221 887.824 221.913 887.888 223.466C887.93 224.46 887.893 225.46 887.893 226.449C884.349 226.423 884.185 226.481 883.343 228.125C884.725 228.258 885.986 228.375 887.432 228.513C887.432 229.295 887.056 230.524 887.506 231.114C888.534 232.46 888.253 233.89 888.317 235.3C888.486 239.028 888.592 242.762 888.661 246.495C888.677 247.399 888.815 248.117 889.768 248.383C890.716 248.649 891.564 248.373 892.099 247.58C892.449 247.059 892.724 246.378 892.735 245.767C892.793 243.001 892.814 240.23 892.724 237.464C892.586 233.353 892.337 229.247 892.163 225.136C892.141 224.583 892.258 224.019 892.3 223.588C894.933 223.806 897.407 224.019 899.875 224.216C901.767 224.37 903.663 224.636 905.554 224.62C911.042 224.561 916.525 224.311 922.007 224.274C926.68 224.248 931.357 224.907 936.024 224.109C936.278 224.067 936.57 224.21 936.94 224.285C936.983 224.769 937.041 225.194 937.062 225.625C937.338 231.242 939.102 236.571 940.145 242.044C940.352 243.123 941.199 243.671 942.174 243.591C943.186 243.506 944.108 242.591 944.033 241.528C943.88 239.336 943.747 237.135 943.366 234.981C942.799 231.805 942.031 228.662 941.321 225.513C941.062 224.365 940.76 223.29 941.311 222.083C941.549 221.562 941.141 220.743 940.987 219.796C941.713 219.131 941.909 218.28 941.146 216.972C940.738 216.264 941.035 214.807 941.522 213.993C942.344 212.632 943.535 211.483 944.632 210.308C945.925 208.925 947.334 207.643 948.61 206.244C950.136 204.569 951.82 202.957 952.97 201.037C953.696 199.83 954.178 198.442 955.147 197.357C957.79 194.41 960.476 191.506 963.066 188.512C963.458 188.055 963.649 187.204 963.559 186.592C963.427 185.736 962.616 185.576 961.822 185.667C961.456 185.704 961.091 185.73 960.736 185.805C954.872 186.975 949.013 188.177 943.138 189.294C942.688 189.379 941.851 189.039 941.681 188.672C940.707 186.592 939.88 184.443 938.99 182.279C939.896 182.007 940.633 181.986 941.088 181.614C942.683 180.327 944.314 179.045 945.681 177.534C948.292 174.662 950.734 171.631 953.251 168.668C953.627 168.222 954.019 167.78 954.453 167.392C955.65 166.334 956.98 165.403 958.066 164.243C960.725 161.414 963.273 158.473 965.885 155.595C966.674 154.728 967.627 153.989 968.3 153.042C968.692 152.558 968.856 151.66 968.666 151.085ZM944.441 158.366C942.259 159.85 939.801 160.472 937.301 160.456C933.423 160.435 929.63 160.887 925.832 161.595C924.412 161.861 922.94 161.802 921.446 161.488C929.111 160.451 936.776 159.409 944.441 158.366ZM921.271 155.361C921.308 156.154 921.276 156.946 921.276 157.802C917.828 158.701 914.48 158.207 910.798 158.286C910.904 156.212 910.994 154.425 911.095 152.404C908.213 151.92 905.575 151.383 902.916 151.085C902.254 151.011 901.507 151.702 900.797 152.032C899.875 152.457 899.923 153.154 900.003 154.042C900.087 154.962 899.801 155.92 899.685 156.803C897.831 156.803 895.987 156.803 893.932 156.803C893.932 155.797 893.874 155.069 893.943 154.356C894.154 152.25 894.414 150.149 894.668 147.942C899.436 148.766 904.103 148.181 908.764 148.144C912.79 148.112 916.821 148.16 920.847 148.144C921.647 148.139 922.474 148.107 923.236 147.91C927.066 146.91 930.901 147.532 934.525 147.612C934.821 150.612 936.188 153.122 936.755 156.159C935.213 156.345 933.635 156.542 931.807 156.765C931.807 155.308 931.892 154.143 931.786 152.994C931.643 151.5 930.843 150.894 929.455 150.968C928.232 151.032 927.003 151.043 925.774 151.09C925.414 151.106 925.048 151.144 924.693 151.223C921.07 151.995 921.091 151.612 921.271 155.361ZM908.187 154.984C906.73 154.93 906.73 154.93 907.053 153.218C907.498 153.915 907.8 154.388 908.187 154.984ZM903.186 157.483C902.572 157.483 902.169 157.483 901.618 157.483C901.512 155.867 901.438 154.399 902.646 153.069C903.599 154.537 902.969 155.989 903.186 157.483ZM904.526 161.19C902.789 161.712 898.604 161.318 895.966 160.052C898.8 160.43 901.634 160.807 904.526 161.19ZM904.579 153.473C905.692 154.893 905.273 156.207 905.231 157.457C904.415 156.388 904.452 155.154 904.579 153.473ZM927.993 157.313C927.818 155.957 927.665 154.718 927.469 153.186C928.941 154.76 929.047 155.819 927.993 157.313ZM925.933 154.26C925.933 154.702 925.933 155.149 925.933 155.59C925.885 155.595 925.837 155.606 925.79 155.611C925.694 155.17 925.604 154.723 925.509 154.282C925.652 154.271 925.79 154.266 925.933 154.26ZM924.19 157.287C924.036 157.308 923.883 157.329 923.729 157.35C923.252 156.223 922.712 155.106 923.205 153.803C923.385 153.787 923.559 153.766 923.74 153.75C923.888 154.93 924.042 156.106 924.19 157.287ZM947.461 110.414C947.302 110.6 947.143 110.765 946.979 110.893C946.195 111.515 943.451 112.504 941.946 113.025C941.109 113.775 940.193 114.44 939.276 115.169C938.969 114.515 938.699 113.94 938.434 113.366C938.201 112.871 922.405 112.781 921.08 112.775C919.761 112.775 902.275 113.366 900.575 113.366C898.874 113.366 896.533 112.664 896.533 112.664C896.104 112.621 895.643 112.579 895.103 112.525C895.627 110.823 896.03 109.52 896.485 108.047C897.423 108.153 898.244 108.244 899.33 108.361C899.33 108.361 901.274 108.43 903.478 108.622C903.61 108.622 903.732 108.622 903.87 108.622C903.864 108.632 903.864 108.643 903.859 108.653C904.744 108.733 905.649 108.834 906.481 108.957C906.804 108.978 907.191 109.047 907.647 109.153C910.687 109.754 923.914 108.313 926.245 108.047C928.576 107.781 943.806 107.138 945.951 107.185C947.577 107.106 949.664 106.999 952.064 106.877C950.719 108.366 949.182 109.324 947.461 110.414ZM901.062 90.9744C904.998 91.251 908.923 91.8626 912.859 91.9371C918.252 92.0382 923.65 91.7669 929.047 91.6605C929.842 91.6446 930.637 91.6605 931.527 91.6605C931.871 94.7187 932.178 97.4738 932.522 100.532C931.384 100.649 930.213 100.771 928.957 100.899C929.567 98.6173 929.307 96.5217 929.069 94.4475C928.957 93.4901 928.226 93.07 927.315 93.1763C925.509 93.3891 923.713 93.7454 921.901 93.9103C920.646 94.022 920.323 94.6762 920.302 95.7984C920.275 97.4684 920.153 99.1385 920.063 100.92C916.79 100.92 913.733 100.92 910.406 100.92C910.3 100.16 910.094 99.4948 910.131 98.8406C910.21 97.5269 910.454 96.2239 910.581 94.9155C910.692 93.788 910.12 93.0221 909.093 93.2987C907.398 93.7561 905.898 93.0168 904.362 92.7562C903.011 92.5275 901.92 92.9796 900.755 93.2348C899.801 93.4476 899.891 94.2986 900.262 95.0272C900.998 96.4898 900.919 97.9737 900.458 99.6331C899.966 99.6331 899.468 99.6597 898.97 99.6278C895.828 99.447 895.315 98.9523 895.262 95.809C895.235 94.2135 895.362 92.6126 895.426 90.9585C897.46 90.9532 899.272 90.8468 901.062 90.9744ZM896.083 85.9165C896.295 85.826 896.416 85.7197 896.517 85.741C897.624 85.959 898.721 86.3047 899.833 86.4005C901.936 86.5813 904.055 86.6983 906.163 86.7036C907.837 86.7089 909.506 86.4483 911.18 86.4111C914.687 86.3366 918.193 86.3473 921.695 86.2834C925.027 86.2249 928.354 86.1133 931.929 86.0175C932.093 86.9642 932.189 87.5173 932.289 88.0864C932.046 88.246 931.881 88.4268 931.696 88.4534C931.045 88.5492 930.388 88.6449 929.736 88.6449C925.726 88.6662 921.721 88.6555 917.711 88.6609C915.746 88.6662 913.77 88.7885 911.815 88.6662C908.611 88.4694 905.422 88.0545 902.222 87.8524C900.267 87.7301 898.297 87.8312 896.199 87.8312C896.146 86.9802 896.114 86.4324 896.083 85.9165ZM927.358 95.5963C927.358 96.7292 927.358 97.7397 927.358 98.9683C926.293 97.4472 926.293 97.2717 927.358 95.5963ZM925.541 101.117C924.91 100.846 924.587 100.793 924.577 100.697C924.354 98.9417 924.179 97.1865 924.693 95.4314C925.742 97.1706 924.232 99.1119 925.541 101.117ZM922.161 100.612C922.214 99.415 922.267 98.2184 922.331 96.7238C923.385 98.2556 922.897 99.4629 922.161 100.612ZM907.948 98.8938C908.07 98.9098 908.192 98.9257 908.314 98.9417C908.314 99.4629 908.314 99.9841 908.314 100.543C908.06 100.473 907.832 100.436 907.832 100.404C907.853 99.899 907.901 99.3938 907.948 98.8938ZM907.233 97.2131C907.048 96.41 906.926 95.8994 906.788 95.2984C907.302 95.2984 907.641 95.2984 908.287 95.2984C907.901 96.0058 907.641 96.4685 907.233 97.2131ZM905.379 98.346C905.379 98.9417 905.379 99.5321 905.379 100.128C905.289 100.133 905.199 100.133 905.109 100.138C905.109 99.532 905.109 98.931 905.109 98.3247C905.199 98.33 905.289 98.3407 905.379 98.346ZM904.442 96.0537C904.32 96.0803 904.198 96.1069 904.076 96.1335C903.986 95.7399 903.896 95.341 903.806 94.9474C903.954 94.9155 904.103 94.8836 904.251 94.8517C904.315 95.2506 904.378 95.6495 904.442 96.0537ZM895.897 102.223C896.877 103.26 897.677 104.106 898.509 104.989C897.598 104.946 896.549 104.898 895.044 104.824C895.399 103.744 895.627 103.048 895.897 102.223ZM895.044 115.328C898.519 115.982 901.936 114.35 905.443 115.36C906.19 115.578 907.048 115.456 907.848 115.44C912.086 115.35 916.318 115.248 920.556 115.147C920.921 115.137 921.298 115.153 921.652 115.089C925.747 114.302 929.789 115.647 933.873 115.435C934.933 115.381 934.996 115.716 934.604 117.754C933.073 117.754 931.5 117.764 929.927 117.748C929.27 117.743 928.613 117.626 927.956 117.647C924.158 117.78 920.36 118.062 916.557 118.051C913.055 118.046 909.548 117.769 906.047 117.546C903.785 117.403 901.528 117.153 899.272 116.913C898.037 116.786 896.803 116.621 895.585 116.397C895.336 116.349 895.145 115.972 894.928 115.748C894.965 115.615 895.007 115.472 895.044 115.328ZM936.702 104.101C938.291 103.973 939.88 104.005 941.332 103.037C941.93 102.638 942.873 102.659 943.657 102.654C948.472 102.622 953.282 102.638 958.098 102.638C958.161 102.792 958.219 102.947 958.283 103.101C957.653 103.292 957.033 103.606 956.392 103.649C948.96 104.127 941.517 104.51 934.09 105.021C929.439 105.34 924.804 105.946 920.148 106.223C916.954 106.414 913.738 106.26 910.528 106.26C910.528 106.09 910.523 105.92 910.523 105.755C911.757 105.755 912.997 105.707 914.226 105.76C920.466 106.031 926.595 104.867 932.777 104.372C934.085 104.266 935.394 104.202 936.702 104.101ZM941.75 74.0613C944.484 73.6944 947.244 73.471 949.95 72.9657C951.725 72.636 953.431 71.9233 955.168 71.3861C955.64 71.2372 956.116 71.0989 956.588 70.9553C955.603 72.5243 954.48 73.5827 952.546 73.6305C951.291 73.6624 950.03 74.3273 948.812 74.7953C945.956 75.9016 942.926 75.641 939.758 76.0133C939.329 75.4335 938.869 74.6677 937.655 75.141C936.771 75.4867 935.68 75.3059 934.663 75.0453C937.025 74.7155 939.388 74.3751 941.75 74.0613ZM934.864 79.0236C934.768 79.1087 934.684 79.1938 934.594 79.2789C935.632 79.1884 936.628 79.0927 937.433 79.0236C937.915 78.8587 938.498 78.8002 939.229 78.9066C939.388 78.9119 939.684 78.9332 940.055 78.9598C940.045 78.8108 940.023 78.6566 939.997 78.497C942.471 78.497 944.653 78.497 946.979 78.497C946.306 79.6458 945.13 79.9756 943.933 80.5181C943.927 80.4862 943.917 80.4596 943.912 80.4277L937.655 84.2198C937.655 84.2198 933.481 83.3582 931.055 83.321C930.907 83.3742 930.753 83.4274 930.584 83.4646C930.594 83.4114 930.6 83.3742 930.605 83.321C930.329 83.3316 930.08 83.3529 929.89 83.3955C928.889 83.6188 923.401 83.6135 918.146 83.6295C917.754 83.7305 917.325 83.7199 916.843 83.6348C913.023 83.6454 909.543 83.6827 908.282 83.8369C905.173 84.2145 896.533 82.6615 896.533 82.6615V82.6508C895.341 82.4541 894.848 81.6988 895.023 80.3639C895.134 79.5235 895.277 78.6885 895.426 77.7099C896.231 78.0024 897.026 78.2896 898.069 78.6672C898.053 78.7789 898.037 78.8746 898.021 78.9863C898.689 79.0182 899.653 79.0714 900.463 79.1193C900.845 79.0821 901.327 79.1193 901.92 79.2257C902.402 79.3001 912.096 79.2842 915.37 79.098C918.49 78.9225 925.62 79.4597 928.375 79.598C928.846 79.3108 929.503 79.3799 930.695 79.5076C930.679 79.5288 930.663 79.5554 930.647 79.5767C931.352 79.5395 932.146 79.481 932.962 79.4172C933.079 79.2948 933.185 79.1672 933.301 79.0502C933.481 78.8747 933.979 79.0236 934.864 79.0236ZM900.167 53.2444C899.812 54.3453 899.462 55.4516 899.044 56.7493C898.694 56.4887 898.223 56.2919 898.233 56.1164C898.297 54.8346 898.821 53.7656 900.167 53.2444ZM901.549 59.0523C903.451 55.8292 904.579 52.4253 905.136 48.7714C905.273 47.846 905.591 46.9472 905.835 45.9951C908.706 49.9735 911.551 53.7975 914.257 57.7173C915.857 60.0309 918.093 61.6371 920.079 63.5199C920.609 63.7433 921.213 63.8656 921.647 64.2113C923.422 65.6048 925.064 67.1791 926.918 68.4609C928.528 69.5724 930.345 70.3809 932.077 71.3063C932.448 71.5084 932.856 71.652 933.248 72.2371C931.744 72.4073 930.239 72.6838 928.73 72.7264C924.232 72.8487 919.73 73.0295 915.237 72.9125C909.215 72.753 903.319 71.8701 897.99 68.7055C897.306 68.296 896.491 68.1098 895.791 67.7269C895.193 67.3971 894.663 66.9344 893.943 66.4132C897.539 64.7432 899.722 62.153 901.549 59.0523ZM903.753 74.6091C902.535 74.9921 902.074 74.9761 900.855 74.7474C899.425 74.4815 897.99 74.2262 896.543 74.0879C894.356 73.8805 894.207 73.7901 893.99 71.6892C893.958 71.402 893.948 71.1148 893.921 70.7479C897.327 72.0828 900.575 73.3593 903.753 74.6091ZM894.541 119.402C898.519 119.806 902.429 120.301 906.349 120.583C909.702 120.822 913.071 120.923 916.429 120.897C921.547 120.854 926.669 120.418 931.776 121.168C932.056 121.211 932.332 121.253 932.745 121.322C933.296 124.646 933.841 127.944 934.398 131.316C930.568 131.316 926.955 131.316 923.295 131.316C923.782 129.518 923.289 125.184 922.341 123.061C919.878 123.987 917.076 122.748 914.676 124.205C914.501 126.418 914.326 128.577 914.162 130.672C912.213 131.204 911.445 131.172 909.538 130.582C909.421 127.699 909.31 124.886 909.183 121.753C907.466 121.976 906.073 122.147 904.685 122.343C903.287 122.54 901.751 121.636 900.474 122.897C900.474 123.896 900.516 124.912 900.463 125.918C900.405 126.923 900.246 127.923 900.124 129.034C897.921 129.359 895.94 128.593 893.651 128.045C894.329 125.104 893.264 122.179 894.541 119.402ZM904.044 133.278C904.685 133.369 905.31 133.56 905.941 133.704C905.957 133.864 905.967 134.028 905.983 134.193C903.091 133.981 900.193 133.816 897.312 133.539C895.966 133.411 894.568 132.699 893.709 134.8C893.577 132.087 893.858 131.853 895.834 132.146C898.562 132.56 901.311 132.89 904.044 133.278ZM901.677 124.359C901.83 124.301 901.984 124.237 902.143 124.178C902.355 124.45 902.688 124.689 902.757 124.997C903.117 126.508 903.562 128.045 902.392 129.566C902.153 127.827 901.915 126.093 901.677 124.359ZM902.593 135.885C906.471 135.89 910.348 135.81 914.226 135.704C916.636 135.64 919.046 135.518 921.451 135.326C923.628 135.151 925.784 134.704 927.962 134.629C929.837 134.566 931.717 134.858 933.598 134.991C921.997 137.379 910.401 138.991 898.768 135.427C900.045 135.587 901.316 135.885 902.593 135.885ZM907.239 124.131C907.021 124.955 906.81 125.785 906.592 126.609C906.518 125.726 906.02 124.747 907.239 124.131ZM916.122 126.109C917.314 127.763 917.219 129.816 915.852 131.332C915.259 129.513 915.958 127.864 916.122 126.109ZM920.402 127.003C920.471 126.487 920.54 125.971 920.609 125.455C920.763 125.481 920.921 125.508 921.075 125.535C920.959 126.04 920.847 126.545 920.731 127.05C920.62 127.034 920.508 127.019 920.402 127.003ZM893.551 138.049C894.573 138.31 895.436 138.533 896.485 138.804C896.485 138.804 899.43 139.613 902.376 139.81C905.321 140.006 913.389 140.501 917.981 140.225C922.569 139.948 935.907 138.475 939.229 138.049C939.292 138.044 939.361 138.028 939.425 138.023C939.6 137.922 939.769 137.81 939.949 137.73C939.923 137.805 939.886 137.884 939.859 137.959C940.691 137.831 941.708 137.645 942.767 137.438C942.953 137.23 943.329 137.182 943.763 137.236C945.093 136.964 946.438 136.672 947.561 136.422C947.577 136.406 947.588 136.385 947.604 136.369C947.598 136.385 947.593 136.4 947.588 136.416C949.177 136.06 950.316 135.794 950.316 135.794C950.883 135.587 951.704 135.475 952.896 135.369C951.725 136.422 950.549 137.48 949.267 138.629C949.262 138.586 949.262 138.544 949.256 138.501C947.975 139.501 945.845 141.155 944.123 142.485C943.546 143.075 942.889 143.613 942.132 144.07C942.158 144.027 942.185 143.99 942.206 143.948C941.835 144.224 941.565 144.426 941.47 144.485C941.115 144.708 939.997 145.474 939.022 146.144C938.673 146.671 938.228 147.144 937.836 147.644C937.698 147.511 937.56 147.383 937.422 147.25C937.422 147.25 936.437 145.304 934.657 144.788C933.349 144.405 928.989 144.229 922.781 144.304C922.749 144.384 922.717 144.463 922.685 144.549C920.937 144.549 919.216 144.549 917.393 144.549C917.399 144.501 917.404 144.463 917.415 144.421C916.747 144.442 916.069 144.463 915.375 144.485C913.177 144.565 910.936 144.618 908.78 144.666C908.775 144.666 908.77 144.671 908.764 144.671C907.186 144.862 905.591 144.942 903.885 145.07C903.907 144.958 903.923 144.852 903.944 144.74C903.573 144.745 903.207 144.751 902.853 144.751C902.842 144.82 902.837 144.884 902.826 144.953C901.062 144.953 899.155 144.953 896.973 144.953C896.978 144.9 896.988 144.841 896.994 144.788C895.341 144.793 894.35 144.788 894.35 144.788L894.361 144.756C894.043 144.777 893.651 144.783 893.148 144.788C893.275 142.623 893.402 140.469 893.551 138.049ZM893.99 161.648C897.794 163.11 901.767 163.632 905.798 163.722C911.1 163.844 916.408 163.908 921.711 163.956C925.578 163.993 929.439 163.961 933.317 163.961C927.246 165.19 921.197 165.057 915.153 164.94C912.165 164.882 909.177 164.685 906.195 164.642C904.669 164.621 903.139 164.903 901.613 164.892C899.425 164.882 897.237 164.685 895.044 164.658C894.297 164.648 893.551 164.919 892.671 165.084C892.56 163.972 892.428 162.696 892.279 161.228C893.031 161.414 893.535 161.472 893.99 161.648ZM921.954 167.413C909.76 168.817 899.155 168.599 896.644 166.69C899.674 166.69 902.413 166.653 905.146 166.7C907.98 166.754 910.83 166.711 913.638 167.041C916.366 167.365 919.147 166.254 921.954 167.413ZM936.193 184.693C936.877 186.369 937.364 188.118 938.016 190.076C935.95 190.235 934.112 190.374 932.215 190.522C931.399 188.156 931.855 185.619 930.356 183.731C927.818 184.108 925.313 184.427 922.834 184.89C922.436 184.965 921.901 185.64 921.859 186.081C921.748 187.241 921.859 188.427 921.912 189.597C921.939 190.251 922.029 190.9 922.113 191.852C918.236 192.182 914.496 191.767 910.459 191.831C911.577 189.666 911.143 187.624 911.148 185.629C911.148 185.204 910.592 184.496 910.184 184.395C908.568 184.018 906.91 183.81 905.268 183.582C904.616 183.491 903.954 183.47 903.297 183.491C900.67 183.571 899.902 184.294 899.764 186.906C899.695 188.198 899.754 189.496 899.754 191.038C898.106 190.836 896.745 190.666 895.389 190.496C894.091 190.336 892.798 190.182 891.342 190.001C891.22 187.007 891.103 184.05 890.976 180.885C891.792 180.992 892.772 181.204 893.757 181.242C895.876 181.316 897.995 181.321 900.114 181.316C905.231 181.311 910.353 181.327 915.471 181.242C917.876 181.204 920.28 180.938 922.685 180.8C926.092 180.598 929.492 180.641 932.883 181.109C934.154 181.284 935.436 181.412 937.253 181.624C935.685 182.635 935.727 183.55 936.193 184.693ZM928.994 191.4C928.067 189.533 928.036 187.959 927.951 186.416C927.94 186.209 928.565 185.964 929.153 185.555C928.793 187.528 930.308 189.193 928.994 191.4ZM926.881 189.698C926.685 189.735 926.494 189.767 926.298 189.804C926.203 189.113 926.107 188.416 926.012 187.725C926.16 187.698 926.314 187.672 926.462 187.645C926.6 188.326 926.743 189.012 926.881 189.698ZM924.857 191.629C923.342 190.214 923.226 189.278 924.195 186.996C924.439 188.688 924.619 189.959 924.857 191.629ZM908.542 189.246C908.319 189.273 908.102 189.304 907.88 189.331C907.779 188.597 907.684 187.863 907.583 187.124C907.721 187.092 907.853 187.065 907.991 187.033C908.176 187.773 908.356 188.512 908.542 189.246ZM906.418 191.565C905.077 190.421 904.812 188.592 905.342 185.922C905.506 185.906 905.671 185.89 905.835 185.874C906.02 187.677 906.206 189.48 906.418 191.565ZM903.589 190.501C903.499 190.475 903.403 190.453 903.313 190.427C903.313 189.932 903.313 189.443 903.313 188.948C903.382 188.948 903.451 188.943 903.52 188.943C903.541 189.464 903.568 189.985 903.589 190.501ZM892.147 193.416C892.131 193.49 892.12 193.57 892.104 193.644C891.575 193.644 891.04 193.644 890.51 193.644C890.51 193.57 890.51 193.49 890.505 193.416C891.05 193.416 891.601 193.416 892.147 193.416ZM891.024 111.366C891.05 110.754 891.082 110.137 891.108 109.526C891.352 109.547 891.596 109.563 891.84 109.584C891.734 110.201 891.628 110.818 891.522 111.43C891.357 111.403 891.188 111.387 891.024 111.366ZM892.263 88.7619C886.828 90.7457 881.462 92.703 876.027 94.6868C875.858 93.7295 876.255 92.7402 877.389 92.586C881.891 91.9743 885.334 89.0278 889.334 87.3153C890.06 87.0015 890.785 86.6877 891.548 86.3579C891.787 87.1557 891.988 87.8418 892.263 88.7619ZM880.535 96.4526C880.297 96.4951 880.021 96.3515 879.756 96.2771C883.465 94.8677 887.189 93.4689 891.193 91.9637C891.193 94.4262 891.193 96.6334 891.193 99.0321C890.404 99.3246 889.472 99.6703 888.359 100.08C888.063 98.4417 887.798 96.9578 887.512 95.3835C887.098 95.3623 886.738 95.2772 886.41 95.3357C884.455 95.6973 882.5 96.1016 880.535 96.4526ZM884.238 98.1864C884.238 99.3885 884.238 100.585 884.238 101.787C884.143 101.792 884.047 101.798 883.947 101.808C883.819 100.606 883.698 99.3991 883.57 98.1971C883.798 98.1864 884.015 98.1864 884.238 98.1864ZM881.695 103.032C881.017 101.899 880.932 99.5161 881.531 98.3673C882.373 99.7235 882.432 101.527 881.695 103.032ZM891.204 103.01C890.621 103.228 890.038 103.447 889.45 103.67C889.858 102.798 890.372 102.415 891.204 103.01ZM879.693 96.3143C879.56 98.83 879.433 101.346 879.29 104.095C878.782 104.282 878.136 104.51 877.314 104.808C877.314 102.298 877.314 100.043 877.314 97.9099C878.178 97.3301 878.935 96.8196 879.693 96.3143ZM857.985 81.7307C860.978 81.1882 863.992 80.7574 866.953 80.0767C870.576 79.2416 874.3 78.5555 877.706 77.1408C881.091 75.7367 884.153 73.5454 887.31 71.6254C888.094 71.1521 888.767 70.6362 889.864 71.1574C889.991 71.7265 890.15 72.4232 890.319 73.1678C888.206 73.9975 886.113 74.7847 884.047 75.641C879.391 77.5663 874.809 79.7256 869.819 80.6777C866.81 81.2467 863.769 81.6616 860.734 82.0711C859.818 82.1988 858.864 82.0924 857.932 82.0924C857.953 81.9701 857.969 81.8477 857.985 81.7307ZM850.738 84.023C849.996 83.789 849.318 83.1614 849.615 81.9754C850.108 83.2093 851.019 83.2412 852.105 83.305C854.653 83.4486 857.185 83.8848 859.733 83.9964C861.094 84.0549 862.482 83.7146 863.844 83.5018C867.011 83.0019 870.227 82.7413 873.267 81.5978C873.522 81.502 873.829 81.5499 874.194 81.7573C873.744 81.9701 873.315 82.236 872.849 82.3796C869.353 83.4433 865.825 84.3475 862.154 84.5602C861.131 84.6187 860.077 84.6347 859.108 84.9166C856.178 85.7782 853.456 84.874 850.738 84.023ZM867.186 90.5224C866.704 90.3468 865.925 89.9692 865.104 89.5544C865.279 89.7299 865.454 89.8948 865.645 90.1022C863.616 89.5225 861.582 88.9427 859.553 88.363C860.496 88.0279 861.237 87.8577 861.894 87.8524C861.884 87.8471 861.868 87.8365 861.868 87.8365C861.868 87.8365 866.402 87.161 867.25 86.7249C868.097 86.2834 876.848 84.4645 879.497 83.4061C882.146 82.3477 887.4 80.7255 887.4 80.7255C888.651 80.1405 889.869 79.5661 891.188 78.9491C891.188 80.6457 891.188 82.1084 891.188 83.6135C890.023 84.3103 889.297 84.7038 888.741 84.6772C886.632 85.9431 883.041 88.0652 881.886 88.5066C881.489 88.6555 880.848 88.8789 880.095 89.1395C880.095 89.1448 880.101 89.1448 880.101 89.1502C880.064 89.1555 880.037 89.1608 880 89.1714C877.569 90.0011 873.998 91.1712 873.299 91.485C872.377 91.8946 868.579 91.0383 867.186 90.5224ZM857.296 112.477C858.424 112.275 859.558 112.079 860.686 111.876C860.713 112.036 860.745 112.196 860.771 112.36C859.643 112.563 858.514 112.77 857.381 112.972C857.354 112.807 857.323 112.642 857.296 112.477ZM858.122 114.903C863.738 113.605 869.427 112.531 874.968 110.935C880.445 109.361 885.774 107.255 891.167 105.388C891.252 105.537 891.336 105.691 891.421 105.84C891.093 106.122 890.807 106.526 890.425 106.664C886.934 107.946 883.422 109.191 879.915 110.435C876.816 111.536 873.723 112.653 870.608 113.717C869.925 113.951 869.173 113.977 868.457 114.105C866.015 114.536 863.573 114.956 861.137 115.419C860.035 115.621 858.959 115.865 858.122 114.903ZM867.816 120.679C865.745 120.099 864.379 118.977 862.604 117.695C863.695 117.482 864.432 117.333 865.072 117.211C865.072 117.211 868.918 116.945 873.066 115.849C877.214 114.754 887.469 110.276 887.469 110.276L887.586 110.664C888.131 110.456 888.661 110.254 889.286 110.015C889.795 112.775 890.266 115.339 890.754 118.003C890.171 118.36 889.636 118.45 889.239 118.089L887.475 119.152L871.98 124.178C871.98 124.178 868.823 121.227 867.35 120.083C867.499 120.28 867.652 120.471 867.816 120.679ZM888.1 130.816C887.951 128.47 887.808 126.168 887.639 123.503C884.89 124.338 882.575 124.944 880.339 125.758C879.025 126.237 878.427 128.449 878.787 130.406C878.983 131.465 879.073 132.55 879.227 133.741C877.097 134.241 875.27 135.23 873.071 134.73C873.098 132.007 873.405 129.412 874.284 126.928C874.491 126.338 875.143 125.71 875.736 125.487C879.28 124.141 882.855 122.859 886.452 121.657C887.464 121.317 888.587 121.312 889.959 121.11C889.959 121.961 889.97 122.593 889.959 123.221C889.932 124.753 889.837 126.279 889.88 127.811C889.917 129.699 889.657 130.268 888.1 130.816ZM879.433 137.172C878.745 137.342 878.051 137.517 877.362 137.688C877.33 137.571 877.304 137.454 877.272 137.337C877.955 137.14 878.644 136.948 879.327 136.752C879.359 136.895 879.396 137.033 879.433 137.172ZM876.356 137.624C873.516 139.368 870.709 139.379 867.949 139.64C870.317 137.762 873.22 138.188 876.356 137.624ZM853.381 144.166C853.366 144.033 853.35 143.894 853.328 143.761C854.875 143.448 856.417 142.9 857.969 142.873C862.005 142.809 865.915 142.044 869.872 141.373C874.74 140.549 879.349 139.039 883.915 137.294C885.742 136.597 887.49 135.693 889.392 134.832C889.975 136.023 889.752 136.762 888.629 137.172C882.379 139.437 876.144 141.756 869.474 142.517C864.617 143.07 859.759 143.618 854.902 144.155C854.404 144.214 853.89 144.166 853.381 144.166ZM867.928 151.585C866.731 151.128 865.348 150.633 864.082 150.277C863.679 150.165 863.293 150.027 862.922 149.878C863.038 150.011 863.15 150.138 863.271 150.277C860.882 149.984 859.055 148.697 857.121 147.453C858.297 146.905 859.081 146.74 859.982 147.187C860.665 147.117 861.597 146.984 862.758 146.708C863.208 146.538 863.616 146.458 864.002 146.469C865.046 146.293 866.27 146.144 867.536 145.963C867.562 145.926 867.589 145.894 867.615 145.857C867.711 145.868 867.795 145.894 867.891 145.91C869.708 145.65 871.567 145.325 873.061 144.788C876.138 143.682 888.01 140.953 888.015 140.953C888.465 140.762 888.915 140.57 889.382 140.368C889.382 141.857 889.382 143.277 889.382 144.846L889.948 146.458L889.382 146.681C889.382 146.729 889.382 146.766 889.382 146.814C889.355 146.777 889.339 146.745 889.313 146.708L887.432 147.447C887.316 147.984 886.823 148.218 886.071 148.176C886.05 148.117 886.023 148.064 886.002 148.006L882.283 149.468L871.037 152.84C871.037 152.84 870.698 152.691 870.158 152.463C869.241 152.436 868.563 151.995 867.928 151.585ZM880.048 155.18C881.648 154.452 881.648 154.452 882.188 155.537C881.462 155.414 880.816 155.308 880.048 155.18ZM880.429 158.425C880.429 159.074 880.429 159.717 880.429 160.366C880.239 160.366 880.048 160.366 879.857 160.371C879.921 159.723 879.984 159.068 880.048 158.419C880.18 158.414 880.307 158.419 880.429 158.425ZM877.537 161.722C876.191 162.111 874.883 162.493 873.257 162.967C873.32 160.217 873.257 157.712 873.829 155.18C874.74 154.909 875.572 154.659 876.403 154.415C877.193 156.787 876.064 159.393 877.537 161.722ZM846.214 171.971C846.188 171.801 846.161 171.631 846.14 171.461C847.92 171.189 849.7 170.918 851.48 170.647C851.506 170.817 851.533 170.993 851.559 171.163C849.774 171.434 847.994 171.7 846.214 171.971ZM848.487 174.146C858.891 171.567 869.194 169.014 879.497 166.456C879.555 166.578 879.619 166.7 879.682 166.828C876.795 167.817 873.951 168.956 871.016 169.764C864.188 171.647 857.307 173.343 850.468 175.178C849.297 175.492 848.895 174.944 848.487 174.146ZM852.258 177.12C852.264 176.917 852.269 176.721 852.28 176.519C858.409 174.976 864.612 173.689 870.64 171.817C876.695 169.934 882.575 167.472 888.529 165.259C889.302 166.727 889.313 166.849 888.158 167.45C884.005 169.61 879.831 171.679 875.233 172.801C871.191 173.79 867.244 175.157 863.213 176.184C860.459 176.886 857.64 177.375 854.828 177.774C854.017 177.891 853.117 177.359 852.258 177.12ZM853.615 205.707C865.099 203.67 875.762 199.373 886.309 194.011C886.309 195.027 886.309 195.767 886.309 196.602C882.628 198.016 878.93 199.373 875.28 200.851C870.396 202.83 865.48 204.712 860.358 205.984C858.938 206.335 857.508 206.654 856.062 206.851C855.161 206.978 854.112 207.132 853.615 205.707ZM878.03 189.757C878.824 191.054 878.967 192.458 878.861 193.884C878.845 194.107 878.337 194.288 878.024 194.511C876.88 192.852 877.807 191.32 878.03 189.757ZM882.447 187.672C882.622 187.677 882.797 187.688 882.977 187.693C882.977 188.895 882.977 190.097 882.977 191.299C882.527 190.108 882.114 188.922 882.447 187.672ZM858.218 209.531C857.783 209.627 857.264 209.318 856.782 208.919C867.064 206.643 876.525 202.186 886.272 198.585C886.373 198.777 886.473 198.968 886.574 199.16C886.325 199.383 886.113 199.676 885.827 199.814C882.988 201.165 880.207 202.691 877.267 203.776C872.949 205.367 868.526 206.67 864.124 208.026C862.185 208.627 860.204 209.095 858.218 209.531ZM869.792 218.387C868.267 218.19 866.693 216.663 865.586 215.334C864.686 214.727 863.748 214.1 862.678 213.382C863.24 213.281 863.7 213.249 864.098 213.302L864.092 213.297C864.092 213.297 869.988 211.696 872.658 211.254C875.328 210.813 883.947 208.771 883.947 208.771L884.296 209.515C884.296 208.994 884.535 208.6 884.974 208.1C885.218 209.627 885.435 211.026 885.658 212.414L886.32 213.823C886.309 213.813 872.557 218.743 869.792 218.387ZM885.478 218.365C883.12 219.147 880.736 219.838 878.374 220.604C876.928 221.072 875.508 221.62 874.073 222.131C873.94 221.993 873.808 221.854 873.67 221.716C874.11 221.216 874.459 220.429 875 220.259C878.618 219.12 882.267 218.11 885.917 217.078C886.166 217.009 886.468 217.121 886.759 217.147C886.876 218.243 886.007 218.195 885.478 218.365ZM885.991 204.053C881.801 206.797 877.124 208.17 872.293 209.106C870.163 209.515 867.986 209.653 865.83 209.919C865.809 209.85 865.793 209.781 865.772 209.717C868.076 208.93 870.386 208.154 872.679 207.345C875.09 206.494 877.526 205.718 879.873 204.718C882.13 203.76 884.286 202.558 886.516 201.452C887.21 202.739 887.024 203.372 885.991 204.053ZM888.216 189.427C887.358 189.799 886.526 190.166 885.366 190.671C885.599 188.544 885.266 186.821 883.867 185.172C883.412 185.246 882.659 185.161 882.214 185.491C880.816 186.539 879.211 186.927 877.59 187.379C875.741 187.895 875.731 187.948 875.609 189.969C875.545 190.99 875.439 192.049 875.64 193.033C875.985 194.713 875.413 195.687 873.834 196.181C873.511 196.282 873.214 196.49 872.573 196.814C872.738 193.496 872.881 190.592 873.029 187.571C878.136 185.592 883.269 183.598 888.619 181.529C888.481 184.236 888.349 186.752 888.216 189.427ZM889.355 178.199C889.355 178.199 885.663 180.21 884.969 179.635C884.736 179.699 884.503 179.758 884.27 179.821C884.259 179.805 884.249 179.784 884.243 179.768C883.788 179.933 883.152 180.215 882.389 180.587C882.442 180.71 882.49 180.827 882.538 180.949C882.172 180.928 881.886 180.954 881.669 180.938C880.985 181.279 880.228 181.672 879.444 182.092C879.025 182.497 878.655 182.757 878.279 182.72C874.073 184.991 869.448 187.677 869.448 187.677C869.448 187.677 865.067 185.613 863.277 184.321C862.62 183.848 862.027 183.231 861.545 182.64C860.602 181.933 859.653 181.226 858.71 180.518C858.806 180.332 858.901 180.146 859.002 179.954C859.468 180.146 859.908 180.369 860.326 180.63C860.591 180.513 861.28 180.204 862.148 179.827C862.122 179.795 862.095 179.768 862.064 179.736C863.049 179.332 863.759 179.04 864.612 178.689C864.633 178.715 864.659 178.742 864.68 178.774C865.385 178.497 866.037 178.252 866.529 178.098C868.447 177.508 882.061 173.7 882.538 173.136C883.014 172.572 885.615 171.998 887.893 171.269C887.898 171.269 887.904 171.269 887.909 171.264C888.105 171.104 888.455 170.945 889.074 170.663C889.62 173.311 889.652 175.758 889.355 178.199ZM883.936 158.808C883.936 156.372 883.936 154.425 883.936 152.239C885.954 151.601 888.269 150.872 890.833 150.064C890.51 152.032 890.234 153.739 889.954 155.457C888.11 156.483 886.277 157.51 883.936 158.808ZM890.457 215.86C890.272 215.243 890.817 215.02 891.4 214.993C892.057 214.961 892.714 214.887 893.37 214.86C897.163 214.711 900.961 214.616 904.754 214.403C906.269 214.318 907.763 213.945 909.278 213.781C911.37 213.557 913.468 213.297 915.571 213.243C920.98 213.116 926.378 213.233 931.76 213.871C932.766 213.988 933.799 213.887 935.055 213.887C935.055 214.616 935.055 215.094 935.055 215.69C935.648 215.78 936.183 215.86 936.824 215.961C936.591 216.121 936.501 216.232 936.405 216.238C930.414 216.365 924.428 216.488 918.437 216.599C913.691 216.69 908.966 216.961 904.209 216.408C900.76 216.009 897.237 216.217 893.752 216.211C893.037 216.211 892.316 216.557 891.601 216.541C891.193 216.53 890.552 216.185 890.457 215.86ZM937.316 220.711C935.457 220.87 933.603 221.115 931.744 221.168C926.775 221.312 921.801 221.397 916.832 221.45C915.153 221.466 913.474 221.301 911.794 221.275C910.777 221.259 909.76 221.397 908.748 221.397C906.852 221.386 904.961 221.349 903.07 221.28C901.83 221.232 900.585 221.142 899.351 221.019C897.614 220.844 895.876 220.599 894.139 220.418C893.148 220.317 892.157 220.28 890.87 220.195C891.193 219.807 891.395 219.344 891.617 219.333C893.148 219.28 894.684 219.28 896.22 219.344C897.968 219.413 899.711 219.578 901.459 219.684C901.899 219.711 902.344 219.636 902.778 219.679C910.083 220.402 917.372 219.663 924.667 219.413C928.391 219.285 932.125 219.562 935.854 219.7C936.368 219.721 936.871 220.003 937.38 220.168C937.354 220.344 937.338 220.53 937.316 220.711ZM941.3 205.59C940.087 207.313 938.959 208.925 937.799 210.515C937.74 210.595 937.502 210.542 937.195 210.504C936.617 210.494 935.68 210.478 934.599 210.457C934.371 210.616 934.106 210.744 933.767 210.818C933.804 210.696 933.836 210.568 933.868 210.446C933.031 210.43 932.141 210.414 931.293 210.398C931.203 210.456 931.108 210.51 931.018 210.552C930.886 210.616 930.653 210.478 930.351 210.382C929.424 210.366 928.592 210.35 927.993 210.334C927.988 210.339 927.988 210.345 927.988 210.345C927.914 210.456 927.469 210.329 927.077 210.308C926.298 210.276 907.392 211.44 900.871 211.696C900.781 211.749 900.691 211.802 900.606 211.861C900.569 211.813 900.532 211.76 900.495 211.712C899.611 211.744 899.007 211.754 898.774 211.738C898.583 211.728 898.339 211.717 898.074 211.712C897.9 211.765 897.518 211.77 897.052 211.85C897.057 211.802 897.063 211.754 897.068 211.706C896.438 211.712 895.738 211.728 895.044 211.749C894.912 211.786 894.758 211.829 894.583 211.887C894.578 211.845 894.578 211.802 894.573 211.76C893.837 211.786 893.143 211.813 892.581 211.839C892.571 211.946 892.56 212.047 892.549 212.153C891.908 212.244 891.294 212.329 890.791 212.398C890.791 209.951 890.791 207.606 890.791 204.925C891.892 205.165 892.507 205.297 893.259 205.462C893.254 205.494 893.254 205.526 893.249 205.558C893.953 205.425 894.864 205.282 895.728 205.228C897.486 205.117 911.635 204.989 917.468 204.93C923.295 204.872 942.142 202.675 942.142 202.675C942.142 202.675 942.089 202.878 941.989 203.181C942.725 202.995 943.562 202.931 944.51 202.979C943.159 204.154 942.815 205.787 941.3 205.59ZM954.638 193.086C953.129 194.873 951.646 196.687 950.083 198.421C949.739 198.803 949.092 199.075 948.568 199.117C941.793 199.596 935.139 201.154 928.322 201.346C924.672 201.452 921.033 201.968 917.383 202.165C913.172 202.394 908.95 202.436 904.738 202.633C900.23 202.846 895.754 202.404 890.96 202.08C890.674 199.91 890.404 197.899 890.134 195.83C891.606 195.049 893.058 195.49 894.478 195.612C896.803 195.82 899.123 196.064 901.443 196.277C904.06 196.516 906.693 196.671 909.305 196.979C913.987 197.538 918.66 197.373 923.337 197.011C924.868 196.894 926.409 196.857 927.946 196.798C932.04 196.639 936.135 196.495 940.23 196.32C940.866 196.293 941.496 196.102 942.158 196.155C940.182 196.953 938.058 197 935.982 197.245C933.873 197.495 931.754 197.601 929.635 197.756C927.448 197.915 925.26 198.054 923.067 198.197C920.879 198.335 918.691 198.516 916.504 198.591C914.385 198.66 912.26 198.639 910.136 198.628C907.943 198.617 905.75 198.575 903.557 198.532C901.438 198.49 899.319 198.421 897.2 198.383C895.129 198.351 893.074 197.288 890.748 198.08C891.543 199.474 892.745 199.564 893.731 199.692C896.411 200.043 899.118 200.287 901.82 200.388C906.343 200.559 910.878 200.713 915.402 200.633C919.788 200.553 924.169 200.218 928.549 199.904C931.829 199.67 935.097 199.33 938.365 198.99C942.857 198.522 947.016 196.841 951.169 195.213C951.99 194.889 952.594 194.022 953.325 193.437C953.653 193.176 954.05 192.996 954.638 193.086ZM940.733 193.277C944.319 192.751 947.874 191.974 951.439 191.31C951.46 191.48 951.481 191.65 951.503 191.82C947.307 193.575 942.963 194.448 938.381 194.299C936.056 194.219 933.725 194.474 931.394 194.57C930.901 194.591 930.404 194.575 929.916 194.458C933.518 194.075 937.142 193.799 940.733 193.277ZM945.813 172.274C945.771 172.195 945.739 172.125 945.702 172.051C945.4 172.524 945.114 172.923 944.881 173.136C944.139 173.817 941.078 176.588 939.838 177.705C939.653 178.05 939.457 178.385 939.276 178.731C938.805 178.598 938.556 178.385 938.445 178.135C937.799 178.104 936.824 178.061 935.616 178.029C933.381 177.971 911.408 178.678 908.558 178.683C905.708 178.689 893.911 178.683 893.911 178.683L893.953 178.082C893.588 177.971 893.264 177.87 892.973 177.779C892.973 175.072 892.973 172.418 892.973 169.578C893.81 169.743 894.742 169.924 895.738 170.115C895.722 170.211 895.707 170.301 895.691 170.392C896.321 170.36 897.179 170.386 898.292 170.594C898.503 170.45 898.906 170.599 899.351 170.727C903.456 171.115 914.925 171.29 916.456 170.86C917.229 170.642 920.084 170.594 923.411 170.578C923.692 170.525 923.989 170.461 924.328 170.365C924.296 170.439 924.275 170.503 924.243 170.578C926.208 170.572 928.285 170.572 930.17 170.551C930.647 170.402 931.219 170.402 931.897 170.477C931.892 170.493 931.881 170.509 931.876 170.525C932.914 170.503 933.852 170.471 934.62 170.423C934.848 170.205 935.399 170.322 936.024 170.264C936.019 170.28 936.013 170.296 936.003 170.312C937.004 170.216 938.074 170.083 939.16 169.934C939.298 169.838 939.435 169.743 939.578 169.631C939.584 169.721 939.589 169.796 939.594 169.876C943.647 169.301 947.625 168.525 947.625 168.525C947.625 168.525 947.588 168.605 947.524 168.727C947.837 168.658 948.144 168.589 948.457 168.525C948.536 168.679 948.616 168.833 948.695 168.982C947.757 170.041 946.825 171.11 945.813 172.274ZM945.85 165.855C939.864 166.674 933.836 166.903 927.818 167.264C926.886 167.317 925.943 167.27 925.006 167.27C925.022 167.11 925.043 166.945 925.059 166.786C934.053 166.77 942.852 165.062 952.027 163.499C950.417 164.855 948.631 165.472 945.85 165.855ZM953.637 160.898C952.228 161.228 950.761 161.323 949.309 161.43C947.058 161.6 944.801 161.696 942.55 161.823C942.518 161.664 942.487 161.51 942.455 161.35C948.245 159.51 954.474 159.276 960.238 156.414C958.929 159.675 956.249 160.281 953.637 160.898Z" fill="black"/>
<path d="M943.477 78.8215C943.345 78.9491 943.212 79.0661 943.08 79.1885C943.255 79.2044 943.424 79.2151 943.588 79.2257C943.557 79.1034 943.52 78.9757 943.477 78.8215Z" fill="black"/>
<path d="M115.214 35.1263C117.376 33.7912 120.802 31.9263 120.802 31.9263L124.079 30.0049L127.47 27.8079L129.787 24.9541L134.181 20.4331L135.41 13.5951L85.8137 15.9404L22.3294 13.5951L6.09625 14.7607L10.0662 21.6976L11.4508 28.5426H19.4472L25.7625 33.6852L31.7174 34.985C31.7174 34.985 33.1514 35.5218 32.6146 37.7399C32.0777 39.951 32.6146 45.8918 32.6146 45.8918C32.6146 45.8918 19.1223 45.5174 17.0525 45.8918C14.9828 46.2662 15.8446 48.5267 15.8446 48.5267L16.0283 50.8366L34.204 51.7055L28.6517 115.14L31.6751 126.867L38.5907 109.715L43.8252 53.4433L93.9444 52.8852H102.781L99.8923 117.132L101.793 124.345L108.729 108.832L111.491 54.3616L129.801 52.8781H131.631L131.271 47.5448L117.023 46.8878H113.053L112.869 40.5585L114.663 36.2353C114.663 36.2212 113.045 36.4614 115.214 35.1263ZM61.796 46.6194C61.796 46.6194 53.5311 46.7748 50.4653 46.7042C47.3996 46.6335 42.5113 45.8777 42.5113 45.8777C42.5113 45.8777 42.3488 39.9157 42.815 38.9408C43.2812 37.966 44.1431 35.1192 44.1431 35.1192C44.1431 35.1192 46.8556 33.9607 47.3996 33.6711C47.9435 33.3815 63.004 35.1192 63.004 35.1192L61.796 46.6194ZM95.555 48.5196C93.0402 47.8627 77.8808 45.3338 77.8808 45.3338V35.1263L100.952 35.8821L101.785 46.8737C101.785 46.8737 98.0698 49.1766 95.555 48.5196Z" fill="#FF837E"/>
<path d="M138.504 10.3104C135.862 10.3245 133.22 10.3316 130.571 10.3669C127.753 10.4093 124.934 10.4799 122.116 10.5364C114.628 10.6918 107.133 10.7766 99.6451 11.038C95.4137 11.1863 91.2036 11.7302 86.9722 11.921C81.5612 12.1611 76.136 12.3024 70.7179 12.3448C66.4089 12.3801 62.1069 12.1823 57.7978 12.1117C51.3696 12.0057 44.9342 11.8291 38.506 11.8715C32.4945 11.9139 26.4901 12.0834 20.4715 11.7797C15.5126 11.5325 10.5961 11.1722 5.7572 9.9925C5.24859 9.87241 4.70466 9.85828 4.17486 9.87947C2.23932 9.95011 1.58943 11.0238 2.5572 12.6698C3.39075 14.0896 4.38678 15.4177 5.25565 16.8234C6.21636 18.3775 7.28303 19.8962 7.9753 21.5704C8.40621 22.6088 8.75941 23.6331 9.50113 24.4879C10.476 25.5969 11.4084 26.7272 11.4437 28.5285C12.8777 28.5921 14.2128 28.698 15.555 28.7051C17.0738 28.7121 18.4654 29.0371 19.6804 29.9766C21.2133 31.1634 22.7532 32.336 24.272 33.5369C25.4729 34.4834 26.7868 35.0344 28.3409 34.985C29.3863 34.9497 30.4318 34.9779 31.7104 34.9779C31.7104 35.9033 31.7528 36.5885 31.7033 37.2737C31.6327 38.1921 31.2654 39.0962 32.0707 39.9439C32.3179 40.2053 32.2119 40.8411 32.1908 41.3002C32.1413 42.2962 32.0495 43.2923 31.9506 44.2883C31.9082 44.7333 31.8022 45.1713 31.7598 45.3903C29.6477 45.3903 27.7192 45.4044 25.7908 45.3832C25.0844 45.3762 24.3497 45.3832 23.6786 45.2066C20.9872 44.5144 18.4159 45.3903 15.8093 45.7364C15.0464 45.8353 14.7921 46.3369 14.8345 47.1351C14.9051 48.4207 14.8203 49.7135 14.8415 51.0062C14.8486 51.3382 14.9687 51.6702 15.0605 52.1506C16.1554 52.2071 17.208 52.3272 18.2534 52.306C20.189 52.2565 22.1245 52.1082 24.0601 52.0234C26.5961 51.9104 29.0543 52.4402 31.4208 52.7439C31.4208 56.0287 31.5409 59.151 31.3925 62.2662C31.2018 66.2009 30.7921 70.1285 30.4883 74.0631C30.1281 78.8172 29.7961 83.5784 29.4287 88.3325C29.1603 91.8009 28.8636 95.2623 28.581 98.7307C28.2914 102.256 27.9382 105.774 27.7192 109.298C27.4014 114.413 27.1824 119.534 26.9281 124.649C26.8786 125.588 26.9281 126.542 26.808 127.474C26.4406 130.328 26.0027 133.175 25.6283 136.029C25.4093 137.668 26.1228 138.409 27.8323 138.699C31.6256 139.342 35.4402 138.543 39.2336 138.897C39.3325 138.904 39.4384 138.798 39.3395 138.854C40.1236 137.555 40.8089 136.424 41.6142 135.082C40.9431 134.941 40.4274 134.828 39.8411 134.701C39.94 134.136 40.1872 133.549 40.1166 132.998C39.7069 129.699 40.8442 126.471 40.5263 123.179C40.4486 122.374 40.8089 121.519 40.6605 120.742C40.3214 118.92 40.498 117.147 40.6464 115.324C40.9501 111.707 40.9431 108.062 41.1267 104.438C41.4234 98.5965 41.7696 92.7616 42.1086 86.9196C42.1581 86.0366 42.3559 85.1678 42.4124 84.2848C42.5678 81.8406 42.6667 79.3894 42.8292 76.9453C42.9069 75.7726 43.1612 74.6071 43.1894 73.4274C43.3378 67.649 43.4367 61.8706 43.5779 56.0923C43.5991 55.1669 43.7404 54.2415 43.8181 53.4291C53.4464 53.4291 62.8698 53.3656 72.2861 53.4433C81.759 53.521 91.2318 53.74 100.945 53.8954C100.705 58.9744 100.507 64.0252 100.217 69.0759C99.9488 73.717 99.5179 78.351 99.2848 82.9991C98.9952 88.7704 98.8044 94.5488 98.642 100.327C98.5431 103.979 98.5572 107.638 98.5431 111.298C98.5148 119.492 98.5077 127.693 98.4936 135.887C98.4936 137.279 99.3554 138.607 100.726 138.911C103.566 139.547 106.328 138.996 109.033 138.106C109.146 138.07 109.245 138 109.344 137.936C109.895 137.597 110.199 137.138 110.043 136.46C109.69 134.934 109.612 133.408 110.008 131.868C110.05 131.706 109.98 131.515 109.98 131.345C110.029 128.294 110.107 125.242 110.135 122.19C110.149 120.311 110.1 118.425 110.05 116.546C110.022 115.55 109.754 114.54 109.881 113.572C110.404 109.574 110.043 105.562 110.199 101.563C110.368 97.1625 110.686 92.7757 110.955 88.3819C111.053 86.8137 111.188 85.2455 111.315 83.6773C111.463 81.8477 111.456 79.9828 111.816 78.1956C112.177 76.4155 112.544 74.7201 112.403 72.8552C112.254 70.9479 112.65 68.9982 112.812 67.0698C112.827 66.9002 112.812 66.66 112.911 66.5682C113.568 65.996 113.328 65.325 113.215 64.6327C113.123 64.0605 113.137 63.46 113.18 62.8737C113.356 60.6839 113.554 58.494 113.759 56.3113C113.801 55.8592 113.893 55.4141 113.971 54.9055C114.995 54.7925 115.928 54.63 116.867 54.5947C120.752 54.4605 124.645 54.3616 128.53 54.2556C129.356 54.2344 130.183 54.2698 131.002 54.1921C132.055 54.0932 132.782 53.2384 132.535 52.2424C132.217 50.9497 132.182 49.7064 132.457 48.4066C132.676 47.347 132.26 46.6759 131.214 46.3934C130.374 46.1603 129.476 46.0331 128.6 46.0261C124.115 45.9907 119.629 46.0049 115.144 45.9907C114.698 45.9907 114.261 45.8848 113.801 45.8283C113.702 44.698 113.596 43.702 113.54 42.706C113.498 41.9925 113.505 41.2649 114.218 40.8199C115.108 40.2618 115.214 39.4706 114.988 38.517C114.819 37.8035 114.776 37.0618 114.663 36.2353C115.504 36.1717 116.21 36.1294 116.91 36.0728C118.139 35.9669 119.375 35.8609 120.604 35.7479C121.233 35.6914 121.748 35.5007 121.861 34.7519C122.13 32.9435 123.317 31.5801 124.087 30.0119C124.645 28.8746 125.372 28.6274 126.432 28.6274C126.905 28.6274 127.378 28.6486 127.852 28.6344C128.897 28.5921 129.745 28.2671 130.381 27.3064C130.995 26.381 131.808 25.5828 132.535 24.728C133.305 23.8168 133.906 22.849 133.863 21.5775C133.849 21.196 133.976 20.751 134.195 20.4402C134.965 19.3382 135.778 18.2574 136.618 17.2049C137.939 15.5519 139.31 13.9342 140.616 12.2671C140.849 11.9704 140.878 11.5183 140.998 11.1581C140.284 10.3245 139.394 10.3104 138.504 10.3104ZM129.794 48.5267C129.695 49.6358 129.589 50.766 129.469 52.0163C124.27 52.306 119.262 52.5815 114.098 52.864C113.985 51.1121 113.893 49.6146 113.794 48.1664C115.002 47.7709 127.47 48.0746 129.794 48.5267ZM17.0455 50.5894C17.0455 49.2967 17.0455 48.2583 17.0455 47.1068C18.6561 46.6971 20.2596 46.5347 21.8985 46.6547C23.6574 46.7819 25.4093 46.902 27.1612 47.0503C28.6093 47.1704 30.0645 47.3258 31.661 47.4812C31.661 48.6892 31.661 49.6993 31.661 50.8296C26.7727 49.3038 22.0115 50.4269 17.0455 50.5894ZM40.2579 54.5735C40.3921 59.151 39.9965 63.7497 39.7846 68.3342C39.5727 72.9117 39.2972 77.4821 39.0499 82.0596C38.8097 86.6441 38.4495 91.2287 38.3718 95.8203C38.2941 100.398 38.1881 104.961 37.5523 109.701C35.3554 109.475 33.3351 109.263 31.4137 109.065C30.5802 107.928 30.891 106.805 31.0111 105.71C31.442 101.74 31.8941 97.77 32.3038 93.7929C32.6217 90.7483 32.8972 87.7038 33.1797 84.6592C33.3422 82.9144 33.4552 81.1695 33.6036 79.4247C33.8225 76.8605 34.0839 74.2962 34.2746 71.732C34.6985 65.989 35.313 60.26 35.0234 54.4817C34.9033 52.0305 35.1859 49.5581 35.2707 47.0927C35.3342 45.3974 35.3696 43.702 35.4261 42.0137C35.4402 41.6181 35.5108 41.2225 35.5885 40.5514C37.3616 40.6503 38.9369 40.7422 40.71 40.8411C40.9007 45.4821 40.1307 50.0102 40.2579 54.5735ZM40.7877 38.2768C39.0358 38.291 37.2839 38.2415 35.5391 38.1567C35.2353 38.1426 34.9457 37.8459 34.649 37.6764C34.7197 37.5139 34.7832 37.3514 34.8539 37.189C37.3899 37.3232 39.9259 37.4645 42.4618 37.5987C42.483 37.7046 42.4972 37.8177 42.5183 37.9236C41.9391 38.0437 41.3599 38.2698 40.7877 38.2768ZM34.5219 35.8821C34.4089 35.7055 34.3029 35.5219 34.1899 35.3453C34.4159 35.2817 34.642 35.211 34.868 35.1687C35.8146 34.9709 41.9391 35.5289 42.808 35.8892C40.0389 35.8821 37.2768 35.8821 34.5219 35.8821ZM44.0583 41.4344C44.0936 40.9823 44.4186 40.396 44.793 40.1629C46.6084 39.0397 46.6367 39.0609 46.2693 36.9841C46.2199 36.7015 46.1634 36.419 46.0786 35.981C48.7771 35.5219 51.3837 36.1294 53.9832 36.0517C56.5475 35.9669 59.1188 36.0305 61.7961 36.0305C61.7961 39.0821 61.7961 42.0985 61.7961 45.0371C60.0724 45.8565 46.1422 46.2521 44.023 45.5457C44.023 44.1258 43.9665 42.7766 44.0583 41.4344ZM44.1431 51.4865C44.1431 50.1797 44.1431 49.0989 44.1431 47.8839C49.985 47.8839 55.7846 47.8839 61.6124 47.8839C62.0857 49.0071 62.5025 50.0031 63.004 51.1969C56.7877 51.2887 50.536 51.3876 44.1431 51.4865ZM65.54 48.5196C65.4835 48.3854 65.427 48.2583 65.3704 48.1241C65.5541 47.9404 65.7519 47.5801 65.9144 47.5943C66.8327 47.672 67.751 47.8344 68.6623 47.9687C68.6693 48.0181 68.6764 48.0675 68.6764 48.117C67.638 48.2512 66.5855 48.3854 65.54 48.5196ZM65.2362 44.9947C65.3351 40.947 65.4693 36.8993 65.5824 32.8587C65.5965 32.2936 65.8084 31.9616 66.43 32.0181C66.3241 32.4631 66.1404 32.9011 66.1334 33.3461C66.0557 37.3868 66.0062 41.4344 65.9426 45.4751C65.9426 45.5598 65.8155 45.6517 65.6389 45.8777C65.4693 45.5386 65.2292 45.2631 65.2362 44.9947ZM72.936 44.4508C72.8866 46.4216 72.3991 46.8172 70.4424 46.683C69.4605 46.6124 68.4786 46.457 67.4543 46.3369C67.4543 42.1479 67.4543 38.0225 67.4543 33.6781C69.2557 33.6781 70.8662 33.6781 72.604 33.6781C72.7029 35.1545 72.8371 36.5391 72.8724 37.9307C72.936 40.0993 72.9925 42.2751 72.936 44.4508ZM73.8614 35.6349C73.7272 34.7519 73.9815 33.8124 74.0804 32.5267C74.4477 32.9859 74.7656 33.2119 74.8292 33.4945C75.6345 36.8993 75.6274 40.3607 75.5285 43.8362C75.5073 44.6556 75.4861 45.4821 75.4437 46.3015C75.3519 48.0252 75.147 48.1806 73.1479 48.011C74.1086 47.1422 74.151 46.0684 74.151 44.9241C74.1722 41.823 74.3347 38.7219 73.8614 35.6349ZM73.2963 51.1828C73.2892 51.0768 73.2892 50.9709 73.2821 50.8649C74.1651 50.7166 75.0411 50.5046 75.9312 50.434C77.0614 50.3351 77.7113 49.77 78.1775 48.7528C78.7991 47.3965 78.8557 47.4459 80.3391 47.6366C83.6592 48.0675 86.9722 48.562 90.3064 48.8658C92.8777 49.0989 95.4773 49.0777 98.0627 49.1837C98.8821 49.219 99.7016 49.2755 100.662 49.332C100.754 50.1726 100.839 50.9567 100.917 51.6985C91.6203 51.5219 82.4583 51.3523 73.2963 51.1828ZM100.952 46.8737C96.0636 46.4216 91.472 47.0927 86.8945 46.2097C84.6552 45.7788 82.31 45.8918 80.0212 45.7435C79.7387 45.7294 79.4561 45.6587 79.0817 45.6022C79.0464 45.1572 78.9969 44.7616 78.9828 44.3731C78.9051 42.494 78.8203 40.6079 78.7568 38.7289C78.7356 38.0296 78.7497 37.3373 78.7497 36.4049C82.3665 36.6521 85.7996 36.97 89.2468 37.0901C92.7153 37.2031 96.1908 37.1183 99.7581 37.1183C99.7298 37.0971 99.857 37.1536 99.8994 37.2525C100.549 38.7148 99.5744 40.5585 100.966 41.8512C100.952 43.4194 100.952 45.0018 100.952 46.8737ZM110.389 55.6331C110.022 61.7364 109.598 67.8327 109.09 73.9219C108.793 77.4892 108.2 81.0353 107.889 84.6097C107.507 88.9541 107.274 93.3055 106.978 97.657C106.766 100.702 106.554 103.746 106.335 106.974C104.766 106.974 103.382 106.974 101.87 106.974C101.835 106.353 101.771 105.837 101.793 105.328C101.898 101.676 101.962 98.0243 102.174 94.3793C102.315 91.9139 102.697 89.4627 102.93 87.0044C103.022 86.079 102.993 85.1466 103.036 84.2141C103.05 83.9245 103.078 83.6208 103.177 83.3523C104.124 80.8517 103.799 78.238 103.869 75.6525C103.94 73.3144 104.088 70.9762 104.131 68.638C104.18 65.8689 104.152 63.0998 104.166 60.3307C104.173 58.6283 104.223 56.9188 104.223 55.2163C104.223 51.091 104.194 46.9656 104.187 42.8331C104.187 42.4799 104.23 42.1338 104.272 41.5757C106.229 41.4768 108.171 41.385 110.269 41.279C110.368 43.5678 110.51 45.6234 110.524 47.672C110.524 50.328 110.552 52.9912 110.389 55.6331ZM103.679 38.8702C103.693 38.7854 103.707 38.6936 103.714 38.6088C104.851 38.6088 105.981 38.6088 107.119 38.6088C107.119 38.6936 107.119 38.7854 107.119 38.8702C105.967 38.8702 104.823 38.8702 103.679 38.8702ZM111.414 37.0194C108.835 37.0194 106.264 37.0194 103.686 37.0194C103.664 36.9488 103.643 36.8781 103.622 36.8004C103.848 36.7157 104.067 36.5603 104.293 36.5461C106.285 36.4119 108.27 36.2848 110.262 36.1929C110.665 36.1717 111.075 36.3342 111.484 36.4119C111.463 36.6168 111.435 36.8146 111.414 37.0194ZM125.28 25.8441C123.479 25.272 122.434 26.487 121.204 27.2852C121.028 27.3982 121.042 27.9139 121.091 28.2318C121.339 29.913 120.653 30.7536 118.937 30.902C115.899 31.1634 112.869 31.5801 109.831 31.7143C105.706 31.898 101.574 31.9121 97.4482 31.9263C91.7404 31.9404 86.0327 31.898 80.325 31.8627C79.2795 31.8556 78.3047 31.7567 77.3581 31.0362C76.6587 30.5064 75.6062 30.3086 74.6879 30.2238C72.0601 29.9837 69.4464 29.4327 66.7762 29.687C65.2645 29.8283 63.7598 29.8141 62.7144 31.2693C62.4601 31.6225 61.676 31.7355 61.1391 31.7355C55.1347 31.7002 49.1303 31.6508 43.1259 31.5377C39.0005 31.46 34.8751 31.3046 30.7568 31.0998C28.8848 31.0009 27.0058 30.7607 25.155 30.4358C24.4557 30.3157 23.6998 29.913 23.1912 29.4115C21.291 27.5748 19.1223 26.494 16.438 26.5152C13.9797 26.5364 13.9656 26.5082 12.8071 23.7108C13.0261 23.7249 13.2874 23.7391 13.5771 23.7532C14.7497 23.8592 15.8093 23.9651 16.8618 24.0358C20.627 24.283 24.4203 24.2689 28.1431 24.7987C34.1334 25.6464 40.1448 25.3567 46.1493 25.5898C48.2049 25.6676 50.2464 26.0349 52.302 26.0985C56.1307 26.2185 59.9665 26.1832 63.7669 26.8049C64.7417 26.9673 65.766 26.8472 66.7691 26.8543C71.2406 26.8614 75.7122 26.9108 80.1766 26.8543C84.8954 26.7978 89.6142 26.7342 94.3259 26.494C97.7378 26.3245 101.129 25.83 104.533 25.5475C110.46 25.06 116.387 24.5868 122.321 24.1982C124.475 24.057 126.644 24.177 128.869 24.177C127.732 26.2892 127.407 26.5152 125.28 25.8441ZM130.416 19.5925C126.185 19.7832 121.946 19.8962 117.715 20.1223C114.536 20.2918 111.371 20.7298 108.2 20.8075C103.128 20.9276 98.0557 20.7722 92.9837 20.8711C85.4464 21.0124 77.9091 21.3726 70.3718 21.4574C63.5409 21.5351 56.71 22.0155 49.8791 21.3232C47.3007 21.0618 44.6941 21.083 42.1086 20.9205C40.8795 20.8428 39.6574 20.5673 38.4283 20.4967C34.9033 20.2918 31.3784 20.094 27.8464 19.9951C22.2517 19.8397 16.657 19.7762 11.0623 19.6349C10.7161 19.6278 10.2782 19.3876 10.0521 19.1121C9.61415 18.5823 9.30334 17.9466 8.73115 17.0283C9.72011 17.0283 10.3912 16.9082 10.9987 17.0494C14.3117 17.7982 17.6813 17.5651 21.0296 17.7205C27.0976 17.996 33.1868 17.996 39.2336 18.5046C49.547 19.3664 59.8676 19.1192 70.1881 19.1121C74.8998 19.1121 79.6115 18.5753 84.3232 18.4552C90.2217 18.3068 96.1272 18.4057 102.033 18.2715C105.508 18.1938 108.97 17.8265 112.445 17.6852C116.973 17.5015 121.508 17.3603 126.036 17.2967C128.141 17.2684 130.253 17.4662 132.394 17.5651C131.97 19.4724 131.956 19.5289 130.416 19.5925Z" fill="black"/>
</svg>
