<svg width="404" height="207" viewBox="0 0 404 207" fill="none" xmlns="http://www.w3.org/2000/svg">
<rect x="33" y="29.9337" width="355" height="146" rx="20" fill="#2496F0"/>
<rect x="26" y="23.9337" width="353" height="145" rx="19" stroke="black" stroke-width="2"/>
<line x1="193" y1="24.9337" x2="193" y2="169.934" stroke="black" stroke-width="2"/>
<path d="M269.661 67.0137L269.101 74.6137C270.821 74.0937 272.581 73.8937 274.501 73.8937C281.261 73.8937 285.421 77.1737 285.421 83.0937C285.421 89.2537 280.461 92.6137 273.661 92.6137C268.061 92.6137 264.661 89.8537 264.341 85.4937C264.821 84.2937 265.861 83.6937 266.941 83.6937C268.581 83.6937 269.501 84.5737 269.781 86.9337L270.341 90.8937C270.981 91.1337 271.621 91.2137 272.541 91.2137C276.141 91.2137 278.581 88.4537 278.581 83.4137C278.581 78.7737 276.221 76.1337 272.541 76.1337C271.021 76.1337 269.661 76.3337 268.261 76.8137L267.101 75.9737L268.061 62.0537H284.341V67.0137H269.661ZM294.716 76.9337C294.716 88.2137 296.676 91.2137 299.036 91.2137C301.396 91.2137 303.436 88.1737 303.436 76.9337C303.436 65.7737 301.396 62.7737 299.036 62.7737C296.676 62.7737 294.716 65.7337 294.716 76.9337ZM299.036 61.3737C304.556 61.3737 309.476 66.0937 309.476 76.9337C309.476 87.8537 304.556 92.6137 299.036 92.6137C293.476 92.6137 288.636 87.8537 288.636 76.9337C288.636 66.0937 293.476 61.3737 299.036 61.3737Z" fill="black"/>
<path d="M231.34 116.454L231.38 120.934H219.82L219.84 120.254L221.62 120.074C221.68 118.074 221.68 116.054 221.68 114.454V113.034C221.68 110.954 221.68 108.894 221.62 106.834L219.82 106.674V105.994H227.06V106.674L225.1 106.854C225.06 108.874 225.06 110.914 225.06 112.714V114.014C225.06 115.994 225.06 118.074 225.1 120.154H229.26L230.26 116.454H231.34ZM239.81 106.674L238.03 106.834C237.99 108.874 237.99 110.954 237.99 113.034V113.894C237.99 115.954 237.99 118.014 238.03 120.074L239.81 120.254V120.934H232.75V120.254L234.55 120.074C234.61 118.054 234.61 115.994 234.61 113.914V113.034C234.61 110.954 234.61 108.894 234.55 106.834L232.75 106.674V105.994H239.81V106.674ZM256.481 105.994V106.674L254.641 106.934L254.501 120.974H252.741L243.921 108.534L244.041 119.954L246.721 120.254V120.934H241.161V120.254L243.001 119.974L243.121 107.394L242.741 106.834L241.321 106.674V105.994H246.141L253.721 116.474L253.621 106.954L250.961 106.674V105.994H256.481ZM269.609 116.794L269.649 120.934H257.789V120.254L259.589 120.074C259.649 118.054 259.649 115.994 259.649 113.914V113.034C259.649 110.954 259.649 108.894 259.589 106.834L257.789 106.674V105.994H269.229L269.209 109.974H268.049L267.129 106.774H263.069C263.029 108.774 263.029 110.834 263.029 112.954H265.749L266.049 110.734H267.049V115.794H266.049L265.769 113.674H263.029V113.734C263.029 115.954 263.029 118.074 263.069 120.154H267.569L268.489 116.794H269.609ZM282.267 106.754H281.487C281.447 108.814 281.447 110.914 281.447 113.034V114.214H282.107C284.427 114.214 285.547 112.654 285.547 110.414C285.547 107.994 284.387 106.754 282.267 106.754ZM282.207 114.954H281.447C281.447 116.454 281.447 118.234 281.487 120.034L283.627 120.254V120.934H276.207V120.254L278.007 120.074C278.067 118.054 278.067 115.994 278.067 113.914V113.034C278.067 110.954 278.067 108.894 278.007 106.834L276.207 106.674V105.994H282.307C286.847 105.994 288.667 107.614 288.667 110.434C288.667 112.934 286.967 114.954 282.207 114.954ZM293.732 113.454C293.732 117.574 294.832 120.574 297.292 120.574C299.732 120.574 300.852 117.574 300.852 113.454C300.852 109.374 299.732 106.354 297.292 106.354C294.832 106.354 293.732 109.374 293.732 113.454ZM297.292 105.594C301.052 105.594 304.372 108.274 304.372 113.454C304.372 118.654 301.072 121.334 297.292 121.334C293.532 121.334 290.192 118.674 290.192 113.454C290.192 108.294 293.552 105.594 297.292 105.594ZM312.837 106.674L311.057 106.834C311.017 108.874 311.017 110.954 311.017 113.034V113.894C311.017 115.954 311.017 118.014 311.057 120.074L312.837 120.254V120.934H305.777V120.254L307.577 120.074C307.637 118.054 307.637 115.994 307.637 113.914V113.034C307.637 110.954 307.637 108.894 307.577 106.834L305.777 106.674V105.994H312.837V106.674ZM329.508 105.994V106.674L327.668 106.934L327.528 120.974H325.768L316.948 108.534L317.068 119.954L319.748 120.254V120.934H314.188V120.254L316.028 119.974L316.148 107.394L315.768 106.834L314.348 106.674V105.994H319.168L326.748 116.474L326.648 106.954L323.988 106.674V105.994H329.508ZM341.812 106.774H339.032C338.992 108.834 338.992 110.914 338.992 113.034V113.894C338.992 115.934 338.992 118.014 339.032 120.054L341.072 120.254V120.934H333.552V120.254L335.572 120.054C335.612 118.054 335.612 115.994 335.612 113.914V113.034C335.612 110.934 335.612 108.834 335.572 106.774H332.812L331.812 110.274H330.632L330.712 105.994H343.912L343.992 110.274H342.832L341.812 106.774ZM350.633 111.574L351.693 112.054C354.673 113.394 355.773 114.594 355.773 116.854C355.773 119.514 353.753 121.334 349.993 121.334C348.353 121.334 346.533 120.914 345.333 120.134L345.473 116.694H346.633L347.693 120.174C348.293 120.394 348.893 120.474 349.653 120.474C351.633 120.474 352.733 119.534 352.733 117.974C352.733 116.614 352.153 115.894 350.553 115.194L349.592 114.774C346.913 113.574 345.493 112.234 345.493 109.834C345.493 107.134 347.673 105.594 350.933 105.594C352.493 105.594 353.893 106.014 354.993 106.734L354.813 109.994H353.653L352.633 106.674C352.233 106.494 351.833 106.434 351.333 106.434C349.592 106.434 348.473 107.314 348.473 108.814C348.473 110.194 349.233 110.934 350.633 111.574Z" fill="black"/>
<path d="M251.805 147.086C250.317 144.686 249.437 142.126 249.437 138.974C249.437 135.838 250.317 133.246 251.805 130.846L252.701 131.278C251.325 133.55 250.653 136.254 250.653 138.974C250.653 141.694 251.325 144.398 252.701 146.67L251.805 147.086ZM255.435 139.006C256.811 138.654 258.859 138.046 260.843 137.47L260.987 138.558C259.163 139.134 257.243 139.742 255.755 140.174L255.435 139.006ZM255.643 133.726H260.827V134.846H255.643V133.726ZM257.867 130.51H259.035V143.838C259.035 144.494 258.875 144.83 258.459 145.006C258.043 145.198 257.403 145.23 256.331 145.214C256.299 144.926 256.123 144.446 255.979 144.126C256.699 144.142 257.371 144.142 257.563 144.142C257.787 144.142 257.867 144.062 257.867 143.838V130.51ZM261.387 134.19H270.043V145.07H268.844V135.326H262.523V145.166H261.387V134.19ZM262.075 138.462H269.196V139.598H262.075V138.462ZM262.107 142.894H269.227V144.046H262.107V142.894ZM265.068 130.526H266.203V143.598H265.068V130.526ZM273.292 143.934V143.086C276.972 139.87 278.652 137.518 278.652 135.518C278.652 134.174 277.964 133.182 276.508 133.182C275.548 133.182 274.716 133.774 274.06 134.542L273.212 133.726C274.172 132.686 275.196 131.998 276.684 131.998C278.78 131.998 280.092 133.358 280.092 135.454C280.092 137.806 278.252 140.19 275.484 142.798C276.108 142.734 276.812 142.686 277.404 142.686H280.652V143.934H273.292ZM287.511 144.158C285.271 144.158 283.847 142.126 283.847 138.03C283.847 133.966 285.271 131.998 287.511 131.998C289.719 131.998 291.142 133.966 291.142 138.03C291.142 142.126 289.719 144.158 287.511 144.158ZM287.511 142.974C288.839 142.974 289.735 141.486 289.735 138.03C289.735 134.622 288.839 133.166 287.511 133.166C286.167 133.166 285.255 134.622 285.255 138.03C285.255 141.486 286.167 142.974 287.511 142.974ZM297.986 144.158C295.746 144.158 294.322 142.126 294.322 138.03C294.322 133.966 295.746 131.998 297.986 131.998C300.194 131.998 301.618 133.966 301.618 138.03C301.618 142.126 300.194 144.158 297.986 144.158ZM297.986 142.974C299.314 142.974 300.21 141.486 300.21 138.03C300.21 134.622 299.314 133.166 297.986 133.166C296.642 133.166 295.73 134.622 295.73 138.03C295.73 141.486 296.642 142.974 297.986 142.974ZM309.836 143.47H317.564V144.574H309.836V143.47ZM309.292 132.11H315.164V133.182H309.292V132.11ZM310.012 130.446L311.356 130.718C310.156 132.798 308.236 134.974 305.452 136.622C305.276 136.318 304.876 135.902 304.604 135.694C307.244 134.254 309.084 132.19 310.012 130.446ZM314.764 132.11H314.988L315.212 132.046L316.012 132.478C314.092 137.31 309.58 140.526 305.228 141.934C305.084 141.614 304.78 141.118 304.524 140.862C308.668 139.662 313.1 136.526 314.764 132.318V132.11ZM307.292 134.958L308.188 134.19C309.452 135.054 310.988 136.334 311.724 137.246L310.748 138.11C310.076 137.198 308.556 135.854 307.292 134.958ZM316.972 138.414H318.204V145.246H316.972V138.414ZM310.38 138.414H317.58V139.518H310.38V145.214H309.18V139.358L310.14 138.414H310.38ZM323.197 147.086L322.285 146.67C323.661 144.398 324.333 141.694 324.333 138.974C324.333 136.254 323.661 133.55 322.285 131.278L323.197 130.846C324.669 133.246 325.549 135.838 325.549 138.974C325.549 142.126 324.669 144.686 323.197 147.086Z" fill="black"/>
<path d="M318.801 83.8587H319.151C320.276 86.5337 320.201 88.5587 319.426 89.6087C318.851 90.3587 317.376 90.2837 316.876 89.2837C316.451 88.4087 316.876 87.5587 317.651 87.0337C318.201 86.4587 318.976 85.0337 318.801 83.8587ZM320.626 84.1337L320.951 84.0587C325.226 87.5087 322.001 91.3087 320.301 88.9337C320.726 87.3587 320.801 85.5087 320.626 84.1337ZM322.776 84.0587L323.051 83.9337C328.601 86.4337 325.676 90.8837 323.576 88.6587C323.801 87.1087 323.376 85.3087 322.776 84.0587ZM336.326 79.1837H332.701V87.2837H336.326V79.1837ZM320.376 71.0337V75.3587H322.026V73.6587C321.726 74.1087 321.176 74.1837 320.701 73.6587C320.726 72.8587 320.576 71.8837 320.376 71.0337ZM320.376 68.8587V69.7337C321.251 70.4337 321.751 71.1337 322.026 71.7337V68.8587H320.376ZM325.651 68.8587H324.101V73.5837C324.251 72.3337 324.401 70.6587 324.451 69.7837L325.651 70.1837V68.8587ZM324.101 75.3587H325.651V72.1337C325.251 72.7587 324.801 73.4587 324.351 74.0587L324.101 73.9837V75.3587ZM340.326 73.7087H336.076V78.4837H336.201L337.876 76.6087L340.901 78.9337C340.726 79.1587 340.476 79.3337 339.876 79.4587V89.2087C339.876 89.3587 338.776 89.9837 336.951 89.9837H336.326V87.9837H332.701V89.4337C332.701 89.6587 331.676 90.2337 329.951 90.2337H329.326V88.1337C328.976 89.2337 327.726 89.7837 326.651 88.6837C326.876 87.0837 326.376 85.2337 325.651 83.9837L325.901 83.8587C328.051 84.6837 329.051 85.8337 329.326 86.8837V83.0587C329.201 83.1337 329.076 83.1587 328.901 83.1587H317.076L316.876 82.4587H321.501V79.0837H317.476L317.276 78.3837H321.501V76.0587H320.376V76.1087C320.376 76.3587 319.151 76.9837 318.001 76.9837H317.601V67.0087L320.501 68.1587H325.426L326.701 66.7837L329.376 68.8087C329.226 68.9837 328.926 69.1837 328.451 69.2587V75.9837C328.426 76.1587 327.051 76.6837 326.126 76.6837H325.651V76.0587H324.626V78.3837H324.926L326.301 76.6837C326.301 76.6837 327.876 77.8337 328.851 78.6837C328.776 78.9587 328.526 79.0837 328.176 79.0837H324.626V82.4587H325.226L326.776 80.5587C326.776 80.5587 328.251 81.6587 329.326 82.5587V77.1337L332.651 78.3587V66.9587L336.976 67.3087C336.951 67.6837 336.751 67.9337 336.076 68.0337V73.0087H336.501L338.101 70.7837C338.101 70.7837 339.951 72.2837 341.026 73.3087C340.951 73.5837 340.676 73.7087 340.326 73.7087Z" fill="black"/>
<circle cx="239" cy="78.1578" r="20" fill="white"/>
<path d="M244.489 86.1337H246.489V79.3337H244.489V86.1337ZM239.289 79.3337V86.1337H241.114V79.3337H239.289ZM233.414 72.1087V76.5337C234.264 76.4087 235.164 76.2587 236.039 76.1087V72.1087H233.414ZM241.114 72.0587H239.289V78.6337H241.114V72.0587ZM246.489 72.0587H244.489V78.6337H246.489V72.0587ZM247.789 69.6337L250.864 72.0587C250.689 72.2837 250.364 72.4837 249.864 72.6087V88.0587C249.839 88.3087 248.239 89.0087 247.039 89.0087H246.489V86.8337H239.289V87.9337C239.289 88.3087 237.989 89.0837 236.564 89.0837H236.039V76.5337C235.339 77.0087 234.489 77.5587 233.414 78.2087V85.5337C233.414 87.8087 232.964 89.0087 229.564 89.3087C229.514 88.2337 229.414 87.4587 229.114 86.9587C228.839 86.4587 228.439 86.1087 227.439 85.9087V85.5587C227.439 85.5587 229.214 85.6837 229.639 85.6837C229.989 85.6837 230.089 85.5837 230.089 85.3337V80.1337L228.964 80.7337C228.839 81.0587 228.539 81.3337 228.214 81.3837L226.939 77.4087C227.614 77.3337 228.739 77.2087 230.089 77.0087V72.1087H227.339L227.139 71.4087H230.089V65.5837L234.314 65.9837C234.289 66.3587 234.039 66.6087 233.414 66.6837V71.0087L234.539 69.1587C234.539 69.1587 235.289 69.9087 236.039 70.7087V69.9837L239.464 71.3587H241.114V65.9337L245.289 66.3337C245.264 66.6587 245.089 66.8837 244.489 66.9837V71.3587H246.239L247.789 69.6337Z" fill="black"/>
<path d="M78.8402 103.634L78.3802 107.014C79.1002 108.194 79.2002 108.794 78.8602 109.114C77.9602 109.994 76.2802 109.154 75.3402 108.314C74.4202 107.534 73.6602 106.634 73.0202 105.654C71.4202 107.254 69.4002 108.594 66.8202 109.534L66.6802 109.294C69.0002 107.934 70.8002 106.114 72.1402 104.094C70.9602 101.634 70.3802 98.7537 70.1402 95.6137H64.5202V98.8137H66.8802L68.0002 97.6937L70.0202 99.3737C69.8802 99.5337 69.6402 99.6537 69.2402 99.7137C69.1202 103.994 68.8602 105.534 67.9802 106.234C67.4402 106.654 66.7602 106.874 65.8202 106.874C65.8202 106.234 65.7802 105.714 65.5402 105.394C65.3002 105.114 64.8802 104.914 64.3002 104.754V104.494C64.7602 104.534 65.5802 104.574 65.9202 104.574C66.2002 104.574 66.3402 104.534 66.4602 104.414C66.8202 104.094 66.9802 102.594 67.0602 99.3737H64.5202C64.5202 102.574 64.2402 106.994 60.2602 109.814L60.0802 109.634C62.0002 106.594 62.1802 102.734 62.1802 99.3537V94.0937L64.8802 95.0537H70.0802C70.0002 93.7137 69.9602 92.3537 69.9602 90.9537L73.0002 91.2537C72.9802 91.5137 72.8002 91.7537 72.2802 91.8337C72.2602 92.9137 72.2802 93.9937 72.3402 95.0537H75.3402L76.0602 94.1537C75.8202 94.1737 75.5602 94.1337 75.2802 93.9937C74.9602 93.1137 74.0202 92.1337 73.2602 91.6137L73.4002 91.4537C76.6002 91.2537 77.3002 92.7537 76.8802 93.5937C77.3202 93.9337 78.3202 94.7337 78.9802 95.3137C78.9402 95.5137 78.7202 95.6137 78.4202 95.6137H72.3602C72.5202 97.7537 72.8602 99.8337 73.5402 101.634C74.2202 100.194 74.7202 98.6937 75.0602 97.2537L78.1802 98.2937C78.1002 98.5337 77.9202 98.6937 77.3802 98.6737C76.7402 100.414 75.8602 102.194 74.6202 103.834C75.1802 104.714 75.8802 105.474 76.7202 106.114C77.0202 106.394 77.1602 106.394 77.3802 106.034C77.7002 105.534 78.2602 104.454 78.6402 103.594L78.8402 103.634ZM89.3202 101.154L89.4002 101.394C87.8802 102.454 85.5402 103.974 82.1002 105.854C82.0202 106.114 81.8402 106.314 81.6202 106.414L80.2202 103.874C80.9002 103.714 82.0202 103.394 83.4002 102.994V94.4937H80.7802L80.6202 93.9137H86.0402L87.2402 92.3337C87.2402 92.3337 88.5602 93.4137 89.3602 94.1737C89.3002 94.3937 89.0802 94.4937 88.8002 94.4937H85.7202V102.294C86.8802 101.934 88.1202 101.554 89.3202 101.154ZM96.9402 94.8737L99.0602 96.7337C98.9202 96.9137 98.6402 97.0337 98.2002 97.1137C97.9402 104.234 97.5002 107.554 96.3202 108.674C95.6202 109.354 94.7202 109.654 93.4802 109.654C93.5002 108.914 93.4002 108.374 93.0802 108.054C92.7402 107.694 92.0202 107.394 91.1002 107.194L91.1202 106.914C92.0002 106.994 93.3402 107.094 93.8202 107.094C94.1802 107.094 94.3802 107.034 94.5802 106.834C95.3202 106.174 95.7002 102.654 95.9002 96.7137H92.9002C92.6002 102.174 91.2602 106.654 84.4402 109.714L84.2202 109.414C89.2602 105.974 90.3802 101.774 90.6002 96.7137H87.6402L87.4602 96.1537H90.6202C90.6802 94.5137 90.6602 92.8137 90.6602 90.9937L93.7802 91.2937C93.7202 91.5937 93.5202 91.7937 93.0402 91.8537C93.0202 93.3337 93.0002 94.7737 92.9402 96.1537H95.6802L96.9402 94.8737ZM112.62 99.2137L112.32 99.0737C113.06 96.9137 113.5 93.9337 113.54 91.1337L116.26 91.5537C116.2 91.8137 116 92.0137 115.54 92.0537C115.34 93.0937 115.1 94.0937 114.8 95.0337H116.2L117.2 93.6337C117.2 93.6337 118.34 94.6137 119 95.2737C118.94 95.4937 118.76 95.5937 118.48 95.5937H117.68C117.54 97.6737 117.22 99.5737 116.6 101.294C119.2 104.934 118.18 107.574 116.66 106.254C116.52 105.294 116.18 104.234 115.74 103.134C114.94 104.574 113.86 105.834 112.32 106.874L112.14 106.634C113.58 105.094 114.46 103.314 114.98 101.354C114.46 100.254 113.92 99.2137 113.42 98.3137L113.72 98.2137C114.32 98.7337 114.86 99.2337 115.34 99.7337C115.58 98.4337 115.68 97.0537 115.72 95.5937H114.62C114.1 97.0337 113.46 98.2737 112.62 99.2137ZM110.6 93.9737H108.2V95.5337H110.6V93.9737ZM108.2 97.6337H110.6V96.1137H108.2V97.6337ZM108.2 98.2137V98.6937C108.2 98.8537 107.4 99.2537 106.64 99.2537H106.36V92.6137L108.28 93.4137H108.38C108.46 92.6737 108.52 91.6737 108.54 90.9737L111.28 91.3737C111.22 91.6137 111.02 91.8337 110.58 91.8337C110.18 92.3337 109.56 92.9137 108.96 93.4137H110.44L111.28 92.5337L113.04 93.8337C112.94 93.9737 112.7 94.0937 112.42 94.1537V98.2937C112.4 98.4137 111.5 98.7737 110.92 98.7737H110.6V98.2137H108.2ZM101.28 91.3537L101.48 91.2337C106.7 91.9737 104.94 95.8137 102.98 94.4537C102.8 93.3737 102 92.1137 101.28 91.3537ZM106.58 100.794L106.72 100.914C106.58 101.094 106.4 101.154 105.96 101.174C105.54 102.594 104.7 104.174 103.48 105.434C103.64 105.454 103.74 105.534 103.92 105.634C105.52 106.934 107.96 107.214 112.4 107.214C114.74 107.194 116.72 107.194 119.12 107.074V107.314C118.14 107.514 117.6 108.374 117.46 109.254H111.58C107.2 109.254 105.4 108.454 103.66 106.374C103.36 105.994 103.14 106.034 102.96 106.394C102.66 107.014 102.18 108.074 101.82 109.094C101.86 109.274 101.8 109.374 101.68 109.494L100.06 107.234C100.86 106.774 102 105.934 102.68 105.554C103.32 104.274 103.78 102.534 103.96 101.054H103.02L102.32 101.694L100.66 100.454C100.84 100.314 101.16 100.174 101.44 100.074C102.04 99.1337 102.86 97.7937 103.38 96.8137H100.72L100.54 96.2337H103.42L104.36 95.2937L106.24 96.9937C106.06 97.1937 105.68 97.2737 105.22 97.3137C104.7 98.1737 103.88 99.5137 103.24 100.494H103.84L104.88 99.4537L106.28 100.574L106.18 100.234H109.54C109.32 100.194 109.1 100.114 108.9 99.9337C108.94 99.3937 108.68 98.7537 108.38 98.4137L108.58 98.3137C111.32 98.5137 110.84 100.094 109.84 100.234H110.82L111.82 99.1337C111.82 99.1337 112.92 99.8937 113.64 100.474C113.58 100.694 113.38 100.794 113.1 100.794H109.32C109.3 101.174 109.24 101.574 109.16 101.954H110.46L111.4 101.054L113.14 102.454C113 102.594 112.76 102.714 112.42 102.754C112.24 104.774 112.02 105.734 111.38 106.214C111 106.494 110.44 106.574 109.9 106.594C109.9 106.214 109.82 105.854 109.62 105.614C109.42 105.374 108.98 105.154 108.5 105.054V104.774C108.96 104.814 109.66 104.854 109.92 104.854C110.06 104.854 110.14 104.814 110.2 104.734C110.38 104.514 110.52 103.834 110.62 102.514H109.04C108.64 103.974 107.78 105.414 105.96 106.514L105.7 106.234C107.18 104.514 107.36 102.554 107.4 100.794H106.58ZM122.14 91.3537L122.32 91.2337C127.42 92.0337 125.1 95.6937 123.16 94.0737C123.12 93.0937 122.64 92.0337 122.14 91.3537ZM125.48 94.8337L126.5 93.5137C126.5 93.5137 127.66 94.4337 128.32 95.0937C128.28 95.3137 128.08 95.4137 127.82 95.4137H120.44L120.28 94.8337H125.48ZM121.1 97.3937H124.82L125.78 96.1337C125.78 96.1337 126.88 97.0137 127.54 97.6537C127.48 97.8737 127.3 97.9737 127.02 97.9737H121.26L121.1 97.3937ZM124.82 99.9737L125.78 98.7537C125.78 98.7537 126.88 99.5937 127.54 100.234C127.48 100.454 127.3 100.554 127.02 100.554H121.26L121.1 99.9737H124.82ZM123.42 107.074H125.16V103.154H123.42V107.074ZM125.94 101.554L127.98 103.094C127.86 103.234 127.6 103.394 127.22 103.474V108.114C127.2 108.274 126.2 108.714 125.5 108.714H125.16V107.634H123.42V108.834C123.42 109.034 122.54 109.494 121.68 109.494H121.38V101.734L123.5 102.594H124.96L125.94 101.554ZM131.18 104.674H135.38V102.974H131.2V103.914C131.2 104.154 131.2 104.414 131.18 104.674ZM135.38 100.694H131.2V102.414H135.38V100.694ZM135.18 100.134L136.12 99.0337L138.28 100.654C138.16 100.814 137.88 100.974 137.46 101.054V107.114C137.46 108.534 137.16 109.354 134.84 109.554C134.8 108.914 134.72 108.394 134.48 108.094C134.22 107.774 133.86 107.554 133.06 107.434V107.134C133.06 107.134 134.64 107.234 135 107.234C135.3 107.234 135.38 107.114 135.38 106.874V105.254H131.14C130.94 106.934 130.18 108.634 127.6 109.774L127.42 109.594C128.98 108.034 129.1 106.014 129.1 103.914V99.2337L131.54 100.134H135.18ZM135.98 98.1337L137.12 96.6737C137.12 96.6737 138.38 97.6737 139.16 98.3937C139.12 98.6137 138.9 98.7137 138.62 98.7137H127.84L127.68 98.1337H132.08V96.2537H128.88L128.72 95.6937H132.08V93.9337H128.12L127.96 93.3537H132.08V90.9337L134.92 91.1937C134.88 91.4537 134.74 91.6337 134.28 91.7137V93.3537H135.6L136.72 91.9137C136.72 91.9137 137.98 92.8937 138.74 93.6137C138.7 93.8337 138.5 93.9337 138.2 93.9337H134.28V95.6937H135.2L136.24 94.3737C136.24 94.3737 137.42 95.2737 138.12 95.9337C138.06 96.1537 137.86 96.2537 137.58 96.2537H134.28V98.1337H135.98ZM147.06 106.954L149.92 107.314V107.934H141.34V107.314L144.3 106.954C144.34 105.714 144.36 104.474 144.36 103.234V94.5537L141.76 94.8137V94.0737L146.8 92.8737L147.08 93.0937L147 96.3137V103.234C147 104.474 147.02 105.714 147.06 106.954ZM161.24 93.6537H156.06C154.9 95.0937 153.5 96.1137 152.06 96.8137L151.84 96.6137C153.06 95.2937 154.28 93.0937 154.94 90.7737L157.94 91.7337C157.86 91.9737 157.6 92.1337 157.14 92.1137C156.94 92.4537 156.72 92.7737 156.5 93.0937H158.96L159.96 91.7337C159.96 91.7337 161.1 92.6737 161.78 93.3337C161.72 93.5537 161.52 93.6537 161.24 93.6537ZM156.46 94.0537L156.64 93.9337C160.72 94.2937 159.08 97.2337 157.5 96.0937C157.42 95.3737 156.92 94.5337 156.46 94.0537ZM162.38 102.314V104.054H165.78L166.74 102.934C166.4 103.034 166.02 103.114 165.72 103.114H165.32V102.314H162.38ZM162.38 100.034V101.734H165.32V100.034H162.38ZM162.38 97.7737V99.4737H165.32V97.7737H162.38ZM166.98 106.254L168.16 104.794C168.16 104.794 169.52 105.794 170.32 106.514C170.26 106.734 170.06 106.834 169.8 106.834H162.38V109.014C162.38 109.214 161.34 109.714 160.46 109.714H160.02V106.834H152.94L152.78 106.254H160.02V104.614H154.26L154.1 104.054H160.02V102.314H154.7L154.52 101.734H160.02V100.034H152.8L152.64 99.4737H160.02V97.7737H154.88L154.7 97.1937H160.02V95.7337L163.04 96.0137C163 96.2737 162.86 96.4537 162.38 96.5337V97.1937H165.14L166.02 96.2537C165.88 96.2137 165.72 96.1537 165.56 96.0337C165.48 95.2937 164.94 94.4737 164.44 94.0137L164.62 93.8937C168.22 94.0537 167.64 96.2537 166.38 96.2937L168.26 97.6937C168.16 97.8337 167.92 97.9737 167.6 98.0337V99.4737H167.76L168.7 98.0337C168.7 98.0337 169.74 99.0537 170.3 99.7137C170.26 99.9337 170.08 100.034 169.8 100.034H167.6V102.554C167.6 102.614 167.38 102.714 167.1 102.834C167.46 103.094 168.42 103.754 169.1 104.294C169.04 104.514 168.82 104.614 168.52 104.614H162.38V106.254H166.98ZM167.78 93.0737L168.9 91.6737C168.9 91.6737 170.12 92.6337 170.88 93.3337C170.84 93.5537 170.62 93.6537 170.34 93.6537H163.76C162.92 94.4737 161.96 95.1137 160.98 95.5537L160.76 95.3537C161.58 94.2737 162.38 92.5337 162.82 90.7737L165.72 91.8937C165.62 92.1337 165.36 92.2937 164.92 92.2537C164.74 92.5337 164.52 92.8137 164.3 93.0737H167.78Z" fill="black"/>
<path d="M389.416 200.824C389.416 200.824 388.262 193.952 388.476 191.774C388.692 189.597 392.113 185.613 392.113 185.613L396.97 180.127H391.532L389.418 178.296L388.478 175.566L392.848 171.822L399.653 163.875C399.653 163.875 394.71 164.725 394.3 164.389C393.89 164.053 389.416 165.136 389.416 165.136L388.187 161.372L392.846 158.733L395.402 155.257L388.476 155.877L386.889 149.965C386.889 149.965 387.019 149.8 388.992 147.961C390.966 146.121 398.335 142.492 398.335 142.492L397.807 140.929L386.705 142.198V134.768C386.705 134.768 391.127 133.34 391.653 133.137C392.176 132.936 397.807 128.327 397.807 128.327C397.807 128.327 397.505 127.705 396.97 127.808C396.435 127.908 386.889 129.222 386.889 129.222C386.889 129.222 381.741 125.731 378.923 122.863C376.106 119.995 373.281 115.089 373.281 115.089C373.281 115.089 369.899 121.167 369.328 122.056C368.756 122.947 366.819 128.608 364.473 129.222C362.126 129.837 353.755 132.885 351.113 132.719C348.47 132.552 347.567 132.719 347.567 132.719C347.567 132.719 350.976 134.709 352.895 136.053C354.813 137.396 361.086 138.105 361.086 138.105L360.966 143.847L351.113 146C351.113 146 351.186 147.878 352.795 148.242C354.404 148.605 359.322 151.834 359.322 151.834V156.094C359.322 156.094 356.177 158.089 353.933 158.244C351.689 158.397 347.567 158.733 347.567 158.733C347.567 158.733 353.86 162.234 356.495 163.143C359.131 164.053 359.759 165.136 359.759 165.136L358.651 168.658C358.651 168.658 351.823 169.853 350.248 170.335C348.673 170.817 346.247 170.808 346.247 170.808C346.247 170.808 348.705 173.893 349.795 174.325C350.885 174.757 355.89 178.296 355.89 178.296L359.691 179.784L359.327 183.257L351.115 185.613C351.115 185.613 352.094 187.869 352.497 188.127C352.897 188.383 359.022 192.62 359.022 192.62L358.157 198.177L357.558 203.593C357.558 203.593 362.201 204.752 364.871 204.708C367.541 204.665 381.934 203.628 382.649 203.628C383.364 203.628 390.547 202.812 390.547 202.812L389.416 200.824Z" fill="#FBFBFB"/>
<path d="M397.81 127.792C397.81 127.792 394.976 130.248 393.99 130.596C393.003 130.943 384.572 131.178 383.994 131.322C383.416 131.466 367.398 131.8 367.398 131.8L351.948 135.413L347.269 131.617C347.269 131.617 353.596 132.796 358.737 130.868C363.879 128.939 367.029 127.956 368.422 125.248C369.817 122.538 373.281 116.062 373.281 116.062L374.239 115.089C374.239 115.089 378.673 120.82 378.882 121.926C379.092 123.032 385.863 129.366 387.367 129.158C388.872 128.95 395.782 127.986 395.782 127.986L398.843 126.827L397.81 127.792Z" fill="#FF837E"/>
<path d="M397.809 140.934C397.809 140.934 389.477 142.259 386.707 142.202C383.937 142.145 371.585 141.855 371.585 141.855H368.604L363.398 142.963L349.797 146.473L353.509 148.658C353.509 148.658 358.86 147.522 359.327 147.415C359.793 147.307 368.606 144.245 368.606 144.245L369.828 145.203C369.828 145.203 383.923 145.548 385.806 145.203C387.688 144.857 395.884 144.558 395.884 144.558L397.809 140.934Z" fill="#FF837E"/>
<path d="M396.244 154.67C396.244 154.67 385.301 155.767 384.622 155.771C383.944 155.776 375.926 155.063 375.926 155.063L369.312 153.957C369.312 153.957 365.087 155.785 363.399 156.096C361.71 156.407 351.588 158.418 351.418 158.431C351.247 158.445 348.418 159.201 348.418 159.201L351.875 161.244C351.875 161.244 355.956 160.068 357.176 159.901C358.396 159.734 368.146 157.497 368.146 157.497C368.146 157.497 372.45 157.533 373.834 157.497C375.218 157.46 384.875 157.51 386.889 157.092C388.904 156.672 395.791 155.771 395.791 155.771L396.244 154.67Z" fill="#FF837E"/>
<path d="M399.211 164.391C399.211 164.391 392.413 165.538 391.052 165.525C389.691 165.513 380.926 166.361 379.51 166.418C378.095 166.475 367.609 165.525 367.609 165.525C367.609 165.525 365.763 167.266 362.691 168.182C359.618 169.101 347.266 170.778 347.266 170.778C347.266 170.778 348.126 172.97 348.409 173.239C348.691 173.509 352.442 175.929 352.442 175.929L356.723 174.709L367.812 170.337C367.812 170.337 371.21 170.675 372.648 170.851C374.087 171.027 386.789 170.607 389.415 170.161C392.042 169.713 394.794 169.549 394.794 169.549L399.211 164.391Z" fill="#FF837E"/>
<path d="M397.361 179.018C397.361 179.018 385.587 180.917 382.888 181.135C380.189 181.352 368.071 180.486 368.071 180.486C368.071 180.486 365.31 180.753 363.276 182.14C361.241 183.527 350.639 186.306 350.639 186.306L353.853 189.197C353.853 189.197 356.839 189.405 358.648 189.025C360.458 188.646 367.234 186.306 367.234 186.306C367.234 186.306 374.501 185.586 374.685 185.614C374.872 185.641 394.657 185.019 394.657 185.019L397.809 179.117L397.361 179.018Z" fill="#FF837E"/>
<path d="M380.198 201.443C380.248 201.582 380.35 201.726 380.336 201.859C380.323 201.987 380.195 202.204 380.116 202.206C379.956 202.208 379.754 202.128 379.649 202.01C379.538 201.884 379.519 201.674 379.446 201.461C379.355 201.889 379.276 202.261 379.187 202.672C378.445 202.426 378.613 201.875 378.506 201.509C378.395 201.879 378.718 202.487 377.937 202.761C377.856 202.469 377.717 202.213 377.721 201.959C377.733 200.899 377.812 199.839 377.815 198.778C377.817 198.036 377.969 197.27 377.521 196.358C377.521 198.477 377.521 200.396 377.521 202.334C377.1 202.506 376.72 202.659 376.34 202.814C375.989 202.556 376.044 202.234 376.055 201.875C376.103 200.3 376.105 198.724 376.121 197.147C376.121 197.044 376.092 196.939 376.076 196.834C376.007 196.831 375.941 196.829 375.873 196.827C375.853 197.113 375.816 197.4 375.812 197.686C375.784 199.169 375.768 200.65 375.743 202.133C375.741 202.288 375.75 202.471 375.675 202.59C375.605 202.697 375.432 202.777 375.295 202.793C375.204 202.805 375.058 202.707 375.008 202.617C374.933 202.487 374.881 202.318 374.892 202.17C374.954 201.258 375.061 200.351 375.102 199.439C375.133 198.694 375.088 197.944 375.088 197.195C375.086 196.61 374.874 195.986 375.379 195.488C376.982 195.394 378.584 195.31 380.184 195.202C380.607 195.175 380.901 195.314 380.894 195.744C380.864 197.323 381.47 198.767 381.795 200.271C381.88 200.659 381.809 201.08 381.809 201.473C380.889 202.078 380.889 202.078 380.198 201.443C380.239 200.728 380.284 200.012 380.327 199.297C380.252 199.297 380.177 199.295 380.104 199.295C380.134 200.01 380.166 200.725 380.198 201.443ZM379.094 197.147C379.194 198.374 378.98 199.631 379.433 200.824C379.251 199.603 379.606 198.333 379.094 197.147Z" fill="black"/>
<path d="M380.58 125.251C380.571 125.242 380.562 125.235 380.555 125.228H380.553L380.58 125.251Z" fill="black"/>
<path d="M401.431 162.849C401.376 162.686 400.985 162.57 400.736 162.556C400.466 162.542 400.188 162.666 399.915 162.734C398.85 163.002 397.794 163.315 396.717 163.532C395.087 163.861 393.444 164.126 391.805 164.409C391.161 164.521 390.513 164.613 389.777 164.725C389.388 163.813 389.024 162.963 388.601 161.976C389.404 162.186 389.896 161.893 390.333 161.542C391.118 160.911 391.858 160.225 392.634 159.583C393.628 158.76 394.669 157.993 395.638 157.143C396.549 156.343 397.4 155.472 398.262 154.617C398.565 154.318 398.772 153.941 398.526 153.511C398.313 153.137 397.932 153.214 397.591 153.265C395.977 153.502 394.368 153.786 392.75 153.982C391.296 154.158 389.832 154.243 388.394 154.366C388.175 152.812 387.968 151.354 387.775 149.981C387.95 149.777 388.15 149.643 388.209 149.46C388.369 148.971 388.703 148.738 389.142 148.5C390.827 147.591 392.513 146.674 394.125 145.641C395.597 144.697 397.197 143.905 398.335 142.495C398.668 142.083 399.075 141.736 399.432 141.343C399.73 141.016 399.555 140.474 399.102 140.404C398.804 140.358 398.485 140.447 398.176 140.474C397.115 140.573 396.057 140.714 394.994 140.756C392.83 140.84 390.661 140.868 388.496 140.918C388.253 140.922 388.009 140.918 387.674 140.918C387.54 139.96 387.388 139.062 387.292 138.16C387.199 137.257 387.222 136.354 387.538 135.559C388.942 134.73 390.294 133.927 391.651 133.135C391.81 133.041 391.994 132.975 392.174 132.933C392.716 132.805 393.132 132.543 393.481 132.079C393.735 131.741 394.111 131.441 394.496 131.263C395.618 130.742 396.71 130.262 397.525 129.22C398.237 128.311 399.171 127.572 400.029 126.782C400.261 126.569 400.411 126.38 400.338 126.057C400.252 125.683 399.926 125.673 399.664 125.669C399.371 125.664 399.045 125.717 398.786 125.847C396.983 126.752 395.124 127.49 393.141 127.885C392.404 128.034 391.607 127.984 390.918 128.24C389.896 128.621 388.988 128.482 388.03 128.096C386.539 127.495 385.039 126.928 383.985 125.612C383.853 125.447 383.625 125.363 383.459 125.221C382.44 124.341 381.172 123.777 380.287 122.728C379.902 122.271 379.554 121.784 379.169 121.332C377.838 119.769 376.784 118.02 375.778 116.24C375.55 115.838 375.398 115.413 375.518 114.89C375.623 114.442 375.546 113.946 375.523 113.473C375.434 111.738 375.318 110.006 375.245 108.272C375.193 106.981 375.2 105.687 375.17 104.396C375.161 103.962 375.191 103.507 374.808 103.199C373.445 103.398 373.556 103.482 373.372 104.654C373.204 105.71 373.19 106.789 373.124 107.861C373.022 109.529 372.953 111.199 372.828 112.865C372.757 113.807 372.471 114.748 372.53 115.674C372.573 116.352 372.318 116.816 372.034 117.319C370.994 119.156 369.94 120.982 368.888 122.812C368.859 122.865 368.8 122.902 368.754 122.945C367.976 122.774 367.946 122.774 367.662 123.5C367.375 124.231 367.172 124.997 366.842 125.705C366.569 126.295 366.244 126.898 365.807 127.364C364.669 128.576 363.251 129.41 361.717 130.002C360.754 130.372 359.746 130.653 358.735 130.865C356.989 131.233 355.235 131.597 353.466 131.811C352.353 131.946 351.206 131.825 350.075 131.784C349.137 131.75 348.202 131.656 347.264 131.615C346.897 131.599 346.511 131.597 346.16 131.695C345.682 131.83 345.614 132.319 345.998 132.652C346.187 132.815 346.422 132.924 346.629 133.066C347.692 133.795 348.721 134.586 349.827 135.239C350.821 135.826 351.9 136.277 352.952 136.766C353.35 136.951 353.764 137.113 354.185 137.23C355.032 137.463 355.89 137.657 356.741 137.872C357.775 138.13 358.806 138.395 359.837 138.655C360.085 139.304 359.7 140.109 360.406 140.582C360.44 140.605 360.426 140.703 360.426 140.765C360.426 141.676 360.426 142.586 360.426 143.482C359.764 143.655 359.131 143.834 358.494 143.982C357.426 144.231 356.357 144.469 355.282 144.695C354.515 144.855 353.744 144.985 352.974 145.129C352.421 145.232 351.871 145.353 351.315 145.44C350.696 145.536 350.068 145.58 349.451 145.692C348.873 145.797 348.409 146.082 348.161 146.795C349.253 147.25 350.321 147.691 351.384 148.139C351.609 148.235 351.98 148.313 352.019 148.466C352.146 148.971 352.535 148.975 352.886 149.032C353.682 149.163 354.372 149.503 355.027 149.96C355.464 150.264 355.938 150.513 356.391 150.797C357.31 151.372 358.227 151.955 359.054 152.479C358.842 153.829 358.651 155.036 358.446 156.343C358.075 156.455 357.665 156.601 357.244 156.697C356.327 156.905 355.403 157.088 354.481 157.282C354.206 157.339 353.935 157.433 353.657 157.453C352.187 157.572 350.714 157.7 349.242 157.769C348.204 157.817 347.43 158.34 346.574 158.973C346.813 159.151 346.943 159.279 347.098 159.359C348.122 159.889 349.069 160.552 350.059 161.137C352.314 162.467 354.515 163.847 357.142 164.341C357.652 164.437 358.118 164.757 358.605 164.974C358.897 165.104 359.038 165.31 358.997 165.646C358.876 166.61 358.771 167.577 358.649 168.648C357.001 168.971 355.38 169.357 353.737 169.59C351.622 169.889 349.492 170.079 347.366 170.287C346.629 170.36 346.162 170.755 345.81 171.356C345.632 171.658 345.687 171.859 345.996 172.056C346.474 172.357 346.989 172.647 347.362 173.056C348.07 173.831 348.891 174.45 349.743 175.04C350.309 175.433 350.855 175.86 351.597 175.908C351.823 175.922 352.055 176.087 352.253 176.226C353.509 177.11 354.766 177.995 356.006 178.9C356.823 179.496 357.633 180.079 358.833 180.079C358.751 181.137 358.676 182.126 358.601 183.088C356.591 183.804 354.677 184.4 352.692 184.75C351.982 184.875 351.27 184.992 350.56 185.122C350.088 185.209 349.501 185.707 349.504 186.087C349.506 186.585 349.827 186.866 350.275 187.046C350.503 187.138 350.703 187.302 350.903 187.449C352.116 188.333 353.045 189.544 354.347 190.344C355.414 191 356.386 191.815 357.365 192.604C357.706 192.878 358.223 193.063 358.214 193.641C358.207 194.146 358.248 194.663 358.161 195.154C357.838 197.017 357.465 198.87 357.128 200.73C357.005 201.413 356.916 202.103 356.855 202.793C356.805 203.333 357.019 203.543 357.549 203.582C358.152 203.628 358.557 203.271 358.701 202.451C358.944 201.054 359.129 199.649 359.356 198.251C359.534 197.17 359.739 196.093 359.923 195.06C360.463 194.868 360.904 194.697 361.352 194.551C362.786 194.085 364.218 193.609 365.663 193.18C366.323 192.983 366.696 193.28 366.724 193.948C366.742 194.375 366.726 194.804 366.726 195.23C365.203 195.218 365.133 195.243 364.771 195.949C365.365 196.006 365.907 196.057 366.528 196.116C366.528 196.452 366.366 196.98 366.56 197.234C367.001 197.812 366.881 198.426 366.908 199.032C366.981 200.634 367.027 202.238 367.056 203.842C367.063 204.231 367.122 204.539 367.532 204.654C367.939 204.768 368.303 204.649 368.533 204.309C368.683 204.085 368.802 203.792 368.806 203.529C368.831 202.341 368.84 201.15 368.802 199.962C368.743 198.196 368.636 196.432 368.561 194.665C368.551 194.427 368.602 194.185 368.62 194C369.751 194.094 370.814 194.185 371.874 194.27C372.687 194.336 373.502 194.45 374.314 194.443C376.672 194.418 379.028 194.311 381.384 194.295C383.391 194.283 385.401 194.567 387.406 194.224C387.515 194.206 387.64 194.267 387.8 194.299C387.818 194.507 387.843 194.69 387.852 194.875C387.97 197.288 388.728 199.578 389.177 201.93C389.265 202.394 389.63 202.629 390.048 202.595C390.483 202.558 390.879 202.165 390.847 201.708C390.781 200.766 390.724 199.82 390.56 198.895C390.317 197.531 389.987 196.18 389.682 194.827C389.57 194.334 389.441 193.872 389.677 193.353C389.78 193.129 389.604 192.778 389.538 192.371C389.85 192.085 389.935 191.719 389.607 191.157C389.432 190.853 389.559 190.227 389.768 189.878C390.121 189.293 390.633 188.799 391.104 188.294C391.66 187.7 392.265 187.149 392.814 186.548C393.469 185.828 394.193 185.136 394.687 184.311C394.999 183.792 395.206 183.196 395.622 182.73C396.758 181.464 397.912 180.216 399.025 178.929C399.193 178.733 399.275 178.367 399.237 178.104C399.18 177.737 398.831 177.668 398.49 177.707C398.333 177.723 398.176 177.734 398.023 177.766C395.504 178.269 392.987 178.785 390.463 179.265C390.269 179.302 389.909 179.156 389.837 178.998C389.418 178.104 389.063 177.181 388.68 176.251C389.07 176.135 389.386 176.125 389.582 175.966C390.267 175.412 390.968 174.862 391.555 174.213C392.677 172.979 393.726 171.676 394.807 170.403C394.969 170.211 395.137 170.022 395.324 169.855C395.838 169.4 396.41 169 396.876 168.502C398.019 167.286 399.114 166.023 400.236 164.786C400.575 164.414 400.985 164.096 401.274 163.69C401.442 163.482 401.513 163.095 401.431 162.849ZM391.022 165.977C390.085 166.615 389.029 166.882 387.954 166.875C386.288 166.866 384.659 167.06 383.027 167.364C382.417 167.478 381.784 167.453 381.142 167.318C384.436 166.873 387.729 166.425 391.022 165.977ZM381.067 164.686C381.083 165.026 381.069 165.367 381.069 165.735C379.588 166.121 378.149 165.908 376.568 165.943C376.613 165.052 376.652 164.284 376.695 163.415C375.457 163.207 374.323 162.977 373.181 162.849C372.896 162.817 372.575 163.114 372.27 163.255C371.874 163.438 371.895 163.738 371.929 164.119C371.965 164.515 371.843 164.926 371.792 165.305C370.996 165.305 370.204 165.305 369.321 165.305C369.321 164.873 369.296 164.56 369.325 164.254C369.416 163.349 369.528 162.446 369.637 161.498C371.685 161.852 373.691 161.601 375.694 161.585C377.423 161.571 379.155 161.592 380.885 161.585C381.229 161.583 381.584 161.569 381.912 161.484C383.557 161.055 385.205 161.322 386.762 161.356C386.889 162.645 387.476 163.724 387.72 165.029C387.058 165.109 386.379 165.193 385.594 165.289C385.594 164.663 385.631 164.163 385.585 163.669C385.524 163.027 385.18 162.766 384.584 162.798C384.058 162.826 383.53 162.83 383.002 162.851C382.847 162.858 382.69 162.874 382.537 162.908C380.981 163.239 380.99 163.075 381.067 164.686ZM375.445 164.524C374.82 164.501 374.82 164.501 374.958 163.765C375.15 164.064 375.279 164.268 375.445 164.524ZM373.297 165.598C373.033 165.598 372.86 165.598 372.623 165.598C372.578 164.903 372.546 164.272 373.065 163.701C373.474 164.332 373.204 164.956 373.297 165.598ZM373.873 167.19C373.126 167.414 371.328 167.245 370.195 166.701C371.412 166.864 372.63 167.026 373.873 167.19ZM373.895 163.875C374.373 164.485 374.194 165.049 374.175 165.586C373.825 165.127 373.841 164.597 373.895 163.875ZM383.955 165.525C383.88 164.942 383.814 164.409 383.73 163.751C384.363 164.428 384.408 164.882 383.955 165.525ZM383.07 164.213C383.07 164.403 383.07 164.594 383.07 164.784C383.05 164.786 383.029 164.791 383.009 164.793C382.968 164.604 382.929 164.412 382.888 164.222C382.949 164.217 383.009 164.215 383.07 164.213ZM382.321 165.513C382.255 165.522 382.189 165.531 382.123 165.541C381.918 165.056 381.686 164.576 381.898 164.016C381.975 164.009 382.05 164 382.128 163.993C382.192 164.501 382.258 165.006 382.321 165.513ZM392.32 145.374C392.251 145.454 392.183 145.525 392.113 145.58C391.776 145.847 390.597 146.272 389.95 146.496C389.591 146.818 389.197 147.104 388.803 147.417C388.671 147.136 388.555 146.889 388.441 146.642C388.341 146.43 381.554 146.391 380.985 146.389C380.419 146.389 372.905 146.642 372.175 146.642C371.444 146.642 370.438 146.341 370.438 146.341C370.254 146.322 370.056 146.304 369.824 146.281C370.049 145.55 370.222 144.99 370.418 144.357C370.821 144.403 371.173 144.442 371.64 144.492C371.64 144.492 372.475 144.522 373.422 144.604C373.479 144.604 373.531 144.604 373.591 144.604C373.588 144.608 373.588 144.613 373.586 144.618C373.966 144.652 374.355 144.695 374.713 144.748C374.851 144.757 375.018 144.787 375.213 144.832C376.52 145.091 382.203 144.471 383.204 144.357C384.206 144.243 390.749 143.966 391.671 143.987C392.37 143.953 393.267 143.907 394.298 143.854C393.72 144.494 393.059 144.905 392.32 145.374ZM372.384 137.022C374.075 137.14 375.762 137.403 377.453 137.435C379.77 137.479 382.089 137.362 384.408 137.316C384.75 137.31 385.091 137.316 385.474 137.316C385.621 138.63 385.753 139.814 385.901 141.128C385.412 141.178 384.909 141.231 384.37 141.286C384.631 140.305 384.52 139.405 384.417 138.514C384.37 138.102 384.056 137.922 383.664 137.968C382.888 138.059 382.116 138.212 381.338 138.283C380.799 138.331 380.66 138.612 380.651 139.094C380.639 139.812 380.587 140.529 380.548 141.295C379.142 141.295 377.828 141.295 376.399 141.295C376.354 140.968 376.265 140.682 376.281 140.401C376.315 139.837 376.42 139.277 376.474 138.715C376.522 138.23 376.276 137.901 375.835 138.02C375.106 138.217 374.462 137.899 373.802 137.787C373.222 137.689 372.753 137.883 372.252 137.993C371.843 138.084 371.881 138.45 372.041 138.763C372.357 139.391 372.323 140.029 372.125 140.742C371.913 140.742 371.699 140.753 371.485 140.74C370.136 140.662 369.915 140.449 369.892 139.099C369.881 138.413 369.935 137.725 369.963 137.015C370.837 137.012 371.615 136.967 372.384 137.022ZM370.245 134.848C370.336 134.81 370.388 134.764 370.431 134.773C370.907 134.867 371.378 135.015 371.856 135.056C372.76 135.134 373.67 135.184 374.576 135.187C375.295 135.189 376.012 135.077 376.731 135.061C378.238 135.029 379.745 135.033 381.249 135.006C382.681 134.981 384.11 134.933 385.647 134.892C385.717 135.299 385.758 135.536 385.801 135.781C385.697 135.849 385.626 135.927 385.546 135.938C385.266 135.98 384.984 136.021 384.704 136.021C382.981 136.03 381.261 136.025 379.538 136.028C378.693 136.03 377.844 136.082 377.005 136.03C375.628 135.945 374.257 135.767 372.883 135.68C372.043 135.628 371.196 135.671 370.295 135.671C370.272 135.305 370.258 135.07 370.245 134.848ZM383.682 139.007C383.682 139.494 383.682 139.928 383.682 140.456C383.225 139.803 383.225 139.727 383.682 139.007ZM382.902 141.379C382.631 141.263 382.492 141.24 382.487 141.199C382.392 140.445 382.317 139.691 382.537 138.937C382.988 139.684 382.339 140.518 382.902 141.379ZM381.45 141.162C381.472 140.648 381.495 140.134 381.522 139.492C381.975 140.15 381.766 140.669 381.45 141.162ZM375.343 140.424C375.395 140.431 375.448 140.438 375.5 140.445C375.5 140.669 375.5 140.893 375.5 141.133C375.391 141.103 375.293 141.087 375.293 141.073C375.302 140.856 375.323 140.639 375.343 140.424ZM375.036 139.702C374.956 139.357 374.904 139.138 374.845 138.879C375.065 138.879 375.211 138.879 375.489 138.879C375.323 139.183 375.211 139.382 375.036 139.702ZM374.239 140.189C374.239 140.445 374.239 140.698 374.239 140.954C374.2 140.957 374.162 140.957 374.123 140.959C374.123 140.698 374.123 140.44 374.123 140.18C374.162 140.182 374.2 140.187 374.239 140.189ZM373.836 139.204C373.784 139.215 373.732 139.227 373.679 139.238C373.641 139.069 373.602 138.898 373.563 138.729C373.627 138.715 373.691 138.701 373.754 138.687C373.782 138.859 373.809 139.03 373.836 139.204ZM370.165 141.855C370.586 142.3 370.93 142.664 371.287 143.043C370.896 143.025 370.445 143.004 369.799 142.972C369.951 142.508 370.049 142.209 370.165 141.855ZM369.799 147.485C371.292 147.766 372.76 147.065 374.266 147.499C374.587 147.593 374.956 147.54 375.3 147.533C377.121 147.495 378.939 147.451 380.76 147.408C380.917 147.403 381.079 147.41 381.231 147.383C382.99 147.044 384.727 147.623 386.482 147.531C386.937 147.508 386.964 147.652 386.796 148.527C386.138 148.527 385.462 148.532 384.786 148.525C384.504 148.523 384.222 148.473 383.94 148.482C382.308 148.539 380.676 148.66 379.042 148.655C377.537 148.653 376.03 148.534 374.526 148.438C373.554 148.377 372.585 148.269 371.615 148.166C371.085 148.112 370.554 148.041 370.031 147.945C369.924 147.924 369.842 147.762 369.749 147.666C369.765 147.609 369.783 147.547 369.799 147.485ZM387.697 142.661C388.38 142.607 389.063 142.62 389.686 142.204C389.944 142.033 390.349 142.042 390.686 142.04C392.754 142.026 394.821 142.033 396.89 142.033C396.917 142.099 396.942 142.166 396.97 142.232C396.699 142.314 396.433 142.449 396.157 142.467C392.964 142.673 389.766 142.837 386.575 143.057C384.577 143.194 382.585 143.454 380.585 143.573C379.212 143.655 377.831 143.589 376.451 143.589C376.451 143.516 376.449 143.443 376.449 143.372C376.979 143.372 377.512 143.352 378.04 143.374C380.721 143.491 383.355 142.99 386.011 142.778C386.573 142.732 387.135 142.705 387.697 142.661ZM389.866 129.755C391.041 129.597 392.226 129.501 393.389 129.284C394.152 129.142 394.885 128.836 395.631 128.605C395.834 128.541 396.039 128.482 396.241 128.42C395.818 129.094 395.335 129.549 394.505 129.57C393.965 129.583 393.424 129.869 392.9 130.07C391.673 130.545 390.372 130.433 389.01 130.593C388.826 130.344 388.628 130.015 388.107 130.219C387.727 130.367 387.258 130.289 386.821 130.178C387.836 130.036 388.851 129.89 389.866 129.755ZM386.907 131.887C386.866 131.923 386.83 131.96 386.791 131.997C387.237 131.958 387.665 131.917 388.011 131.887C388.218 131.816 388.469 131.791 388.783 131.837C388.851 131.839 388.979 131.848 389.138 131.859C389.133 131.795 389.124 131.729 389.113 131.661C390.176 131.661 391.113 131.661 392.113 131.661C391.824 132.154 391.318 132.296 390.804 132.529C390.802 132.515 390.797 132.504 390.795 132.49L388.107 134.119C388.107 134.119 386.313 133.749 385.271 133.733C385.207 133.756 385.141 133.779 385.068 133.795C385.073 133.772 385.075 133.756 385.078 133.733C384.959 133.738 384.852 133.747 384.77 133.765C384.34 133.861 381.982 133.859 379.724 133.866C379.556 133.909 379.372 133.905 379.164 133.868C377.523 133.873 376.028 133.889 375.486 133.955C374.15 134.117 370.438 133.45 370.438 133.45V133.445C369.926 133.361 369.714 133.036 369.79 132.463C369.837 132.102 369.899 131.743 369.963 131.322C370.309 131.448 370.65 131.571 371.098 131.734C371.091 131.782 371.085 131.823 371.078 131.871C371.365 131.885 371.779 131.907 372.127 131.928C372.291 131.912 372.498 131.928 372.753 131.974C372.96 132.006 377.125 131.999 378.532 131.919C379.872 131.843 382.936 132.074 384.119 132.134C384.322 132.01 384.604 132.04 385.116 132.095C385.109 132.104 385.103 132.115 385.096 132.124C385.398 132.108 385.74 132.083 386.09 132.056C386.14 132.003 386.186 131.949 386.236 131.898C386.313 131.823 386.527 131.887 386.907 131.887ZM372 120.811C371.847 121.284 371.697 121.759 371.517 122.317C371.367 122.205 371.164 122.12 371.169 122.045C371.196 121.494 371.421 121.035 372 120.811ZM372.594 123.306C373.411 121.921 373.895 120.459 374.134 118.889C374.194 118.491 374.33 118.105 374.435 117.696C375.669 119.405 376.891 121.048 378.054 122.732C378.741 123.726 379.702 124.417 380.555 125.226C380.783 125.322 381.042 125.374 381.229 125.523C381.991 126.121 382.697 126.798 383.493 127.348C384.185 127.826 384.966 128.173 385.71 128.571C385.87 128.658 386.045 128.72 386.213 128.971C385.567 129.044 384.92 129.163 384.272 129.181C382.339 129.234 380.405 129.311 378.475 129.261C375.887 129.193 373.354 128.813 371.064 127.454C370.771 127.278 370.42 127.198 370.12 127.033C369.862 126.891 369.635 126.693 369.325 126.469C370.871 125.751 371.808 124.638 372.594 123.306ZM373.54 129.99C373.017 130.155 372.819 130.148 372.295 130.05C371.681 129.935 371.064 129.826 370.443 129.766C369.503 129.677 369.439 129.638 369.346 128.736C369.332 128.612 369.328 128.489 369.316 128.331C370.78 128.905 372.175 129.453 373.54 129.99ZM369.582 149.236C371.292 149.41 372.971 149.622 374.656 149.743C376.096 149.846 377.544 149.889 378.987 149.878C381.186 149.86 383.386 149.672 385.581 149.995C385.701 150.013 385.819 150.031 385.997 150.061C386.234 151.489 386.468 152.906 386.707 154.355C385.062 154.355 383.509 154.355 381.937 154.355C382.146 153.582 381.934 151.72 381.527 150.808C380.469 151.206 379.265 150.673 378.234 151.299C378.158 152.25 378.083 153.178 378.013 154.078C377.175 154.307 376.845 154.293 376.026 154.039C375.976 152.801 375.928 151.592 375.873 150.246C375.136 150.342 374.537 150.415 373.941 150.5C373.34 150.584 372.68 150.196 372.132 150.737C372.132 151.167 372.15 151.603 372.127 152.035C372.102 152.467 372.034 152.897 371.981 153.374C371.035 153.514 370.183 153.185 369.2 152.949C369.491 151.686 369.034 150.429 369.582 149.236ZM373.666 155.198C373.941 155.237 374.21 155.319 374.48 155.381C374.487 155.449 374.492 155.52 374.499 155.591C373.256 155.5 372.011 155.429 370.773 155.31C370.195 155.255 369.594 154.949 369.225 155.851C369.168 154.686 369.289 154.585 370.138 154.711C371.31 154.889 372.491 155.031 373.666 155.198ZM372.648 151.366C372.714 151.34 372.78 151.313 372.849 151.288C372.94 151.404 373.083 151.507 373.113 151.64C373.267 152.289 373.459 152.949 372.956 153.603C372.853 152.856 372.751 152.111 372.648 151.366ZM373.042 156.318C374.708 156.32 376.374 156.286 378.04 156.24C379.076 156.212 380.111 156.16 381.145 156.078C382.08 156.002 383.006 155.81 383.942 155.778C384.748 155.751 385.555 155.877 386.363 155.934C381.379 156.96 376.397 157.652 371.399 156.121C371.947 156.19 372.493 156.318 373.042 156.318ZM375.038 151.267C374.945 151.622 374.854 151.978 374.76 152.332C374.729 151.953 374.515 151.532 375.038 151.267ZM378.855 152.117C379.367 152.828 379.326 153.71 378.739 154.361C378.484 153.58 378.784 152.872 378.855 152.117ZM380.694 152.501C380.724 152.28 380.753 152.058 380.783 151.836C380.849 151.848 380.917 151.859 380.983 151.871C380.933 152.088 380.885 152.305 380.835 152.522C380.787 152.515 380.739 152.508 380.694 152.501ZM369.157 157.248C369.596 157.36 369.967 157.456 370.418 157.572C370.418 157.572 371.683 157.919 372.949 158.004C374.214 158.089 377.68 158.301 379.654 158.182C381.625 158.063 387.356 157.43 388.783 157.248C388.81 157.245 388.84 157.239 388.867 157.236C388.942 157.193 389.015 157.145 389.092 157.111C389.081 157.143 389.065 157.177 389.054 157.209C389.411 157.154 389.848 157.074 390.303 156.985C390.383 156.896 390.544 156.875 390.731 156.898C391.302 156.781 391.881 156.656 392.363 156.548C392.37 156.542 392.374 156.532 392.381 156.526C392.379 156.532 392.377 156.539 392.374 156.546C393.057 156.393 393.547 156.279 393.547 156.279C393.79 156.19 394.143 156.142 394.655 156.096C394.152 156.548 393.647 157.003 393.096 157.497C393.094 157.478 393.094 157.46 393.091 157.442C392.541 157.872 391.626 158.582 390.886 159.153C390.638 159.407 390.356 159.638 390.03 159.834C390.041 159.816 390.053 159.8 390.062 159.782C389.903 159.901 389.787 159.988 389.746 160.013C389.593 160.109 389.113 160.438 388.694 160.726C388.544 160.952 388.353 161.155 388.184 161.37C388.125 161.313 388.066 161.258 388.007 161.201C388.007 161.201 387.583 160.365 386.819 160.143C386.256 159.978 384.383 159.903 381.716 159.935C381.702 159.969 381.689 160.004 381.675 160.04C380.924 160.04 380.184 160.04 379.401 160.04C379.403 160.02 379.406 160.004 379.41 159.985C379.123 159.994 378.832 160.004 378.534 160.013C377.589 160.047 376.627 160.07 375.7 160.09C375.698 160.09 375.696 160.093 375.694 160.093C375.015 160.175 374.33 160.209 373.597 160.264C373.606 160.216 373.613 160.17 373.622 160.122C373.463 160.125 373.306 160.127 373.154 160.127C373.149 160.157 373.147 160.184 373.142 160.214C372.384 160.214 371.565 160.214 370.627 160.214C370.629 160.191 370.634 160.166 370.636 160.143C369.926 160.145 369.501 160.143 369.501 160.143L369.505 160.129C369.369 160.138 369.2 160.141 368.984 160.143C369.038 159.213 369.093 158.287 369.157 157.248ZM369.346 167.387C370.98 168.015 372.687 168.239 374.419 168.278C376.697 168.331 378.978 168.358 381.256 168.379C382.918 168.395 384.577 168.381 386.243 168.381C383.635 168.909 381.035 168.852 378.438 168.801C377.155 168.776 375.871 168.692 374.59 168.674C373.934 168.664 373.276 168.785 372.621 168.781C371.681 168.776 370.741 168.692 369.799 168.68C369.478 168.676 369.157 168.792 368.779 168.863C368.731 168.386 368.674 167.837 368.611 167.206C368.934 167.286 369.15 167.312 369.346 167.387ZM381.361 169.864C376.121 170.467 371.565 170.374 370.486 169.553C371.788 169.553 372.965 169.537 374.139 169.558C375.357 169.581 376.581 169.562 377.787 169.704C378.96 169.844 380.155 169.366 381.361 169.864ZM387.479 177.289C387.772 178.008 387.982 178.76 388.262 179.601C387.374 179.67 386.584 179.729 385.769 179.793C385.419 178.776 385.615 177.686 384.971 176.875C383.88 177.037 382.804 177.174 381.739 177.373C381.568 177.405 381.338 177.695 381.32 177.885C381.272 178.383 381.32 178.893 381.343 179.396C381.354 179.677 381.393 179.955 381.429 180.364C379.763 180.506 378.156 180.328 376.422 180.355C376.902 179.425 376.715 178.548 376.718 177.691C376.718 177.508 376.479 177.204 376.304 177.161C375.609 176.998 374.897 176.909 374.191 176.811C373.911 176.772 373.627 176.763 373.345 176.772C372.216 176.806 371.886 177.117 371.827 178.239C371.797 178.795 371.822 179.352 371.822 180.015C371.114 179.928 370.529 179.855 369.947 179.782C369.389 179.713 368.834 179.647 368.208 179.569C368.155 178.283 368.105 177.012 368.051 175.652C368.401 175.698 368.822 175.79 369.246 175.806C370.156 175.838 371.066 175.84 371.977 175.838C374.175 175.835 376.376 175.842 378.575 175.806C379.608 175.79 380.642 175.675 381.675 175.616C383.138 175.529 384.6 175.547 386.056 175.748C386.602 175.824 387.153 175.879 387.934 175.97C387.26 176.404 387.278 176.797 387.479 177.289ZM384.386 180.17C383.987 179.368 383.974 178.692 383.937 178.029C383.933 177.94 384.201 177.835 384.454 177.659C384.299 178.507 384.95 179.222 384.386 180.17ZM383.477 179.439C383.393 179.455 383.311 179.469 383.227 179.485C383.186 179.188 383.145 178.888 383.104 178.591C383.168 178.58 383.234 178.568 383.298 178.557C383.357 178.849 383.418 179.144 383.477 179.439ZM382.608 180.268C381.957 179.661 381.907 179.258 382.324 178.278C382.428 179.005 382.506 179.551 382.608 180.268ZM375.598 179.245C375.502 179.256 375.409 179.27 375.313 179.281C375.27 178.966 375.229 178.651 375.186 178.333C375.245 178.319 375.302 178.308 375.361 178.294C375.441 178.612 375.518 178.929 375.598 179.245ZM374.685 180.241C374.109 179.75 373.996 178.964 374.223 177.816C374.294 177.81 374.364 177.803 374.435 177.796C374.515 178.571 374.594 179.345 374.685 180.241ZM373.47 179.784C373.431 179.773 373.39 179.763 373.352 179.752C373.352 179.54 373.352 179.329 373.352 179.117C373.381 179.117 373.411 179.114 373.44 179.114C373.449 179.338 373.461 179.562 373.47 179.784ZM368.554 181.036C368.547 181.068 368.542 181.103 368.535 181.135C368.308 181.135 368.078 181.135 367.85 181.135C367.85 181.103 367.85 181.068 367.848 181.036C368.083 181.036 368.319 181.036 368.554 181.036ZM368.071 145.783C368.083 145.52 368.096 145.255 368.108 144.992C368.212 145.001 368.317 145.008 368.422 145.017C368.376 145.282 368.331 145.548 368.285 145.81C368.215 145.799 368.142 145.792 368.071 145.783ZM368.604 136.071C366.269 136.923 363.963 137.764 361.628 138.617C361.555 138.205 361.726 137.78 362.213 137.714C364.147 137.451 365.627 136.185 367.345 135.449C367.657 135.315 367.969 135.18 368.297 135.038C368.399 135.381 368.485 135.676 368.604 136.071ZM363.565 139.375C363.462 139.394 363.344 139.332 363.23 139.3C364.823 138.694 366.423 138.093 368.144 137.447C368.144 138.505 368.144 139.453 368.144 140.484C367.805 140.609 367.404 140.758 366.926 140.934C366.799 140.23 366.685 139.592 366.562 138.916C366.385 138.907 366.23 138.87 366.089 138.895C365.249 139.051 364.409 139.225 363.565 139.375ZM365.156 140.12C365.156 140.637 365.156 141.151 365.156 141.667C365.115 141.67 365.074 141.672 365.03 141.676C364.976 141.16 364.923 140.641 364.869 140.125C364.967 140.12 365.06 140.12 365.156 140.12ZM364.063 142.202C363.772 141.715 363.735 140.692 363.993 140.198C364.354 140.781 364.38 141.555 364.063 142.202ZM368.149 142.193C367.898 142.287 367.648 142.38 367.395 142.476C367.57 142.102 367.791 141.937 368.149 142.193ZM363.203 139.316C363.146 140.397 363.091 141.478 363.03 142.659C362.811 142.739 362.534 142.837 362.181 142.965C362.181 141.887 362.181 140.918 362.181 140.001C362.552 139.752 362.877 139.533 363.203 139.316ZM353.876 133.05C355.162 132.817 356.457 132.632 357.729 132.339C359.286 131.981 360.886 131.686 362.349 131.078C363.804 130.475 365.119 129.533 366.476 128.708C366.813 128.505 367.102 128.283 367.573 128.507C367.627 128.752 367.696 129.051 367.768 129.371C366.86 129.727 365.961 130.066 365.074 130.433C363.073 131.261 361.104 132.188 358.96 132.598C357.668 132.842 356.361 133.02 355.057 133.196C354.663 133.251 354.254 133.205 353.853 133.205C353.862 133.153 353.869 133.1 353.876 133.05ZM350.762 134.035C350.444 133.934 350.152 133.665 350.28 133.155C350.491 133.685 350.883 133.699 351.349 133.726C352.444 133.788 353.532 133.975 354.627 134.023C355.212 134.049 355.808 133.902 356.393 133.811C357.754 133.596 359.136 133.484 360.442 132.993C360.551 132.952 360.683 132.972 360.84 133.061C360.647 133.153 360.462 133.267 360.262 133.329C358.76 133.786 357.244 134.174 355.667 134.266C355.228 134.291 354.775 134.298 354.358 134.419C353.1 134.789 351.93 134.401 350.762 134.035ZM357.829 136.827C357.622 136.752 357.287 136.59 356.935 136.411C357.01 136.487 357.085 136.558 357.167 136.647C356.295 136.398 355.421 136.149 354.549 135.9C354.955 135.756 355.273 135.682 355.555 135.68C355.551 135.678 355.544 135.673 355.544 135.673C355.544 135.673 357.492 135.383 357.856 135.196C358.221 135.006 361.981 134.225 363.119 133.77C364.257 133.315 366.514 132.618 366.514 132.618C367.052 132.367 367.575 132.12 368.142 131.855C368.142 132.584 368.142 133.212 368.142 133.859C367.641 134.158 367.329 134.327 367.09 134.316C366.184 134.86 364.641 135.772 364.145 135.961C363.974 136.025 363.699 136.121 363.376 136.233C363.376 136.236 363.378 136.235 363.378 136.238C363.362 136.24 363.351 136.242 363.335 136.247C362.29 136.603 360.756 137.106 360.456 137.241C360.06 137.417 358.428 137.049 357.829 136.827ZM353.58 146.261C354.065 146.174 354.552 146.089 355.036 146.002C355.048 146.071 355.062 146.139 355.073 146.21C354.588 146.297 354.103 146.386 353.616 146.473C353.605 146.402 353.591 146.331 353.58 146.261ZM353.935 147.303C356.347 146.745 358.792 146.283 361.173 145.598C363.526 144.921 365.816 144.017 368.133 143.214C368.169 143.278 368.205 143.345 368.242 143.409C368.101 143.53 367.978 143.703 367.814 143.763C366.314 144.314 364.805 144.848 363.298 145.383C361.967 145.856 360.638 146.336 359.299 146.793C359.006 146.894 358.683 146.905 358.375 146.96C357.326 147.145 356.277 147.325 355.23 147.524C354.757 147.611 354.295 147.716 353.935 147.303ZM358.1 149.784C357.21 149.535 356.623 149.053 355.86 148.502C356.329 148.411 356.646 148.347 356.921 148.294C356.921 148.294 358.573 148.18 360.356 147.709C362.138 147.239 366.544 145.314 366.544 145.314L366.594 145.481C366.828 145.392 367.056 145.305 367.325 145.203C367.543 146.389 367.746 147.49 367.955 148.635C367.705 148.788 367.475 148.827 367.304 148.671L366.546 149.128L359.889 151.288C359.889 151.288 358.532 150.02 357.9 149.528C357.963 149.613 358.029 149.695 358.1 149.784ZM366.815 154.14C366.751 153.132 366.69 152.143 366.617 150.998C365.436 151.356 364.441 151.617 363.48 151.967C362.916 152.172 362.659 153.123 362.814 153.964C362.898 154.419 362.937 154.885 363.003 155.397C362.088 155.611 361.302 156.037 360.358 155.822C360.369 154.652 360.501 153.537 360.879 152.469C360.968 152.216 361.248 151.946 361.503 151.85C363.025 151.272 364.562 150.721 366.107 150.205C366.542 150.059 367.024 150.056 367.614 149.969C367.614 150.335 367.618 150.607 367.614 150.877C367.602 151.535 367.561 152.191 367.58 152.849C367.596 153.66 367.484 153.904 366.815 154.14ZM363.091 156.871C362.795 156.944 362.497 157.019 362.201 157.092C362.188 157.042 362.176 156.992 362.163 156.941C362.456 156.857 362.752 156.775 363.046 156.69C363.059 156.752 363.075 156.811 363.091 156.871ZM361.769 157.065C360.549 157.814 359.343 157.819 358.157 157.931C359.174 157.124 360.422 157.307 361.769 157.065ZM351.898 159.876C351.891 159.818 351.884 159.759 351.875 159.702C352.54 159.567 353.202 159.332 353.869 159.32C355.603 159.293 357.283 158.964 358.983 158.676C361.075 158.322 363.055 157.673 365.017 156.923C365.802 156.624 366.553 156.235 367.37 155.865C367.621 156.377 367.525 156.695 367.042 156.871C364.357 157.844 361.678 158.84 358.812 159.167C356.725 159.405 354.638 159.64 352.551 159.871C352.337 159.896 352.116 159.876 351.898 159.876ZM358.148 163.063C357.633 162.867 357.039 162.654 356.495 162.501C356.322 162.453 356.156 162.394 355.997 162.33C356.047 162.387 356.095 162.442 356.147 162.501C355.121 162.376 354.335 161.823 353.505 161.288C354.01 161.052 354.347 160.982 354.734 161.174C355.027 161.144 355.428 161.087 355.926 160.968C356.12 160.895 356.295 160.861 356.461 160.865C356.91 160.79 357.435 160.726 357.979 160.648C357.991 160.632 358.002 160.618 358.014 160.602C358.054 160.607 358.091 160.618 358.132 160.625C358.913 160.513 359.711 160.374 360.353 160.143C361.676 159.668 366.776 158.495 366.778 158.495C366.972 158.413 367.165 158.331 367.366 158.244C367.366 158.884 367.366 159.494 367.366 160.168L367.609 160.861L367.366 160.956C367.366 160.977 367.366 160.993 367.366 161.014C367.354 160.998 367.347 160.984 367.336 160.968L366.528 161.286C366.478 161.516 366.266 161.617 365.943 161.599C365.934 161.573 365.923 161.551 365.914 161.526L364.316 162.154L359.484 163.603C359.484 163.603 359.338 163.539 359.106 163.44C358.712 163.429 358.421 163.239 358.148 163.063ZM363.355 164.608C364.043 164.295 364.043 164.295 364.275 164.761C363.963 164.709 363.685 164.663 363.355 164.608ZM363.519 166.002C363.519 166.281 363.519 166.557 363.519 166.836C363.437 166.836 363.355 166.836 363.273 166.839C363.301 166.56 363.328 166.279 363.355 166C363.412 165.998 363.467 166 363.519 166.002ZM362.276 167.419C361.698 167.586 361.136 167.75 360.437 167.954C360.465 166.772 360.437 165.696 360.683 164.608C361.075 164.492 361.432 164.384 361.789 164.279C362.129 165.298 361.644 166.418 362.276 167.419ZM348.818 171.822C348.807 171.749 348.796 171.676 348.787 171.603C349.551 171.487 350.316 171.37 351.081 171.253C351.092 171.327 351.104 171.402 351.115 171.475C350.348 171.592 349.583 171.706 348.818 171.822ZM349.795 172.757C354.265 171.649 358.692 170.552 363.119 169.453C363.144 169.505 363.171 169.558 363.198 169.613C361.958 170.038 360.736 170.527 359.475 170.874C356.541 171.683 353.584 172.412 350.646 173.2C350.143 173.335 349.97 173.1 349.795 172.757ZM351.415 174.035C351.418 173.948 351.42 173.863 351.424 173.776C354.058 173.114 356.723 172.561 359.313 171.756C361.915 170.947 364.441 169.889 366.999 168.939C367.331 169.569 367.336 169.622 366.84 169.88C365.055 170.808 363.262 171.697 361.286 172.179C359.55 172.604 357.854 173.191 356.122 173.632C354.939 173.934 353.728 174.144 352.519 174.316C352.171 174.366 351.784 174.137 351.415 174.035ZM351.998 186.317C356.932 185.442 361.514 183.596 366.046 181.292C366.046 181.729 366.046 182.046 366.046 182.405C364.464 183.013 362.875 183.596 361.307 184.231C359.208 185.081 357.096 185.89 354.895 186.436C354.285 186.587 353.671 186.724 353.05 186.809C352.663 186.863 352.212 186.93 351.998 186.317ZM362.488 179.464C362.83 180.022 362.891 180.625 362.845 181.237C362.839 181.333 362.62 181.411 362.486 181.507C361.994 180.794 362.393 180.136 362.488 179.464ZM364.386 178.568C364.461 178.571 364.537 178.575 364.614 178.577C364.614 179.094 364.614 179.61 364.614 180.127C364.42 179.615 364.243 179.105 364.386 178.568ZM353.976 187.96C353.789 188.002 353.566 187.869 353.359 187.698C357.777 186.72 361.842 184.805 366.03 183.257C366.073 183.34 366.116 183.422 366.159 183.504C366.052 183.6 365.961 183.726 365.838 183.785C364.618 184.366 363.424 185.022 362.16 185.488C360.305 186.171 358.405 186.731 356.514 187.314C355.681 187.572 354.829 187.773 353.976 187.96ZM358.949 191.765C358.293 191.681 357.617 191.025 357.142 190.453C356.755 190.193 356.352 189.923 355.892 189.615C356.134 189.571 356.332 189.558 356.502 189.581L356.5 189.578C356.5 189.578 359.033 188.89 360.18 188.701C361.327 188.511 365.03 187.634 365.03 187.634L365.181 187.954C365.181 187.73 365.283 187.56 365.472 187.346C365.577 188.002 365.67 188.603 365.766 189.199L366.05 189.805C366.046 189.8 360.137 191.918 358.949 191.765ZM365.688 191.756C364.675 192.092 363.651 192.389 362.636 192.718C362.015 192.919 361.405 193.155 360.788 193.374C360.731 193.315 360.674 193.255 360.615 193.196C360.804 192.981 360.954 192.643 361.186 192.57C362.741 192.081 364.309 191.646 365.877 191.203C365.984 191.173 366.114 191.221 366.239 191.233C366.289 191.703 365.916 191.683 365.688 191.756ZM365.909 185.607C364.109 186.786 362.099 187.375 360.023 187.778C359.108 187.954 358.173 188.013 357.247 188.127C357.237 188.097 357.231 188.068 357.221 188.04C358.212 187.702 359.204 187.369 360.189 187.021C361.225 186.656 362.272 186.322 363.28 185.892C364.25 185.481 365.176 184.965 366.134 184.489C366.432 185.042 366.353 185.314 365.909 185.607ZM366.865 179.322C366.496 179.482 366.139 179.64 365.64 179.857C365.741 178.943 365.597 178.203 364.996 177.494C364.801 177.526 364.477 177.49 364.286 177.631C363.685 178.082 362.996 178.248 362.299 178.443C361.505 178.664 361.5 178.687 361.448 179.556C361.421 179.994 361.375 180.449 361.462 180.872C361.61 181.594 361.364 182.012 360.686 182.225C360.547 182.268 360.419 182.357 360.144 182.497C360.214 181.071 360.276 179.823 360.34 178.525C362.534 177.675 364.739 176.818 367.038 175.929C366.979 177.092 366.922 178.173 366.865 179.322ZM367.354 174.498C367.354 174.498 365.768 175.362 365.47 175.115C365.37 175.143 365.269 175.168 365.169 175.195C365.165 175.189 365.16 175.179 365.158 175.173C364.962 175.243 364.689 175.365 364.361 175.524C364.384 175.577 364.405 175.627 364.425 175.68C364.268 175.671 364.145 175.682 364.052 175.675C363.758 175.822 363.433 175.991 363.096 176.171C362.916 176.345 362.757 176.457 362.595 176.441C360.788 177.417 358.801 178.571 358.801 178.571C358.801 178.571 356.919 177.684 356.149 177.129C355.867 176.925 355.612 176.66 355.405 176.407C355 176.103 354.593 175.799 354.188 175.495C354.229 175.415 354.269 175.335 354.313 175.253C354.513 175.335 354.702 175.431 354.882 175.543C354.996 175.492 355.291 175.36 355.665 175.198C355.653 175.184 355.642 175.173 355.628 175.159C356.052 174.985 356.357 174.859 356.723 174.709C356.732 174.72 356.744 174.732 356.753 174.745C357.055 174.626 357.335 174.521 357.547 174.455C358.371 174.201 364.22 172.565 364.425 172.323C364.63 172.081 365.747 171.834 366.726 171.521C366.728 171.521 366.731 171.521 366.733 171.519C366.817 171.45 366.967 171.381 367.234 171.26C367.468 172.398 367.482 173.45 367.354 174.498ZM365.026 166.167C365.026 165.12 365.026 164.284 365.026 163.344C365.893 163.07 366.888 162.757 367.989 162.41C367.85 163.255 367.732 163.989 367.611 164.727C366.819 165.168 366.032 165.609 365.026 166.167ZM367.828 190.68C367.748 190.415 367.982 190.319 368.233 190.307C368.515 190.294 368.797 190.262 369.079 190.25C370.709 190.186 372.341 190.145 373.971 190.054C374.622 190.017 375.263 189.857 375.914 189.786C376.813 189.69 377.715 189.578 378.618 189.555C380.942 189.501 383.261 189.551 385.574 189.825C386.006 189.875 386.45 189.832 386.989 189.832C386.989 190.145 386.989 190.351 386.989 190.607C387.244 190.645 387.474 190.68 387.75 190.723C387.649 190.792 387.611 190.84 387.57 190.842C384.996 190.897 382.424 190.949 379.85 190.997C377.81 191.036 375.78 191.153 373.736 190.915C372.254 190.744 370.741 190.833 369.243 190.831C368.936 190.831 368.627 190.979 368.319 190.972C368.144 190.968 367.869 190.819 367.828 190.68ZM387.961 192.764C387.162 192.832 386.366 192.937 385.567 192.96C383.432 193.022 381.295 193.059 379.16 193.081C378.438 193.088 377.717 193.017 376.995 193.006C376.558 192.999 376.121 193.059 375.687 193.059C374.872 193.054 374.059 193.038 373.247 193.008C372.714 192.988 372.179 192.949 371.649 192.896C370.903 192.821 370.156 192.716 369.409 192.638C368.984 192.595 368.558 192.579 368.005 192.542C368.144 192.375 368.231 192.177 368.326 192.172C368.984 192.149 369.644 192.149 370.304 192.177C371.055 192.206 371.804 192.277 372.555 192.323C372.744 192.334 372.935 192.302 373.122 192.32C376.26 192.631 379.392 192.314 382.526 192.206C384.126 192.151 385.731 192.27 387.333 192.33C387.554 192.339 387.77 192.46 387.989 192.531C387.977 192.606 387.97 192.686 387.961 192.764ZM389.673 186.267C389.152 187.007 388.667 187.7 388.168 188.383C388.143 188.417 388.041 188.395 387.909 188.379C387.661 188.374 387.258 188.367 386.794 188.358C386.696 188.427 386.582 188.481 386.436 188.513C386.452 188.461 386.466 188.406 386.48 188.353C386.12 188.347 385.738 188.34 385.373 188.333C385.335 188.358 385.294 188.381 385.255 188.399C385.198 188.427 385.098 188.367 384.968 188.326C384.57 188.319 384.213 188.312 383.955 188.305C383.953 188.308 383.953 188.31 383.953 188.31C383.921 188.358 383.73 188.303 383.562 188.294C383.227 188.28 375.104 188.781 372.302 188.89C372.264 188.913 372.225 188.936 372.188 188.961C372.173 188.941 372.157 188.918 372.141 188.897C371.761 188.911 371.501 188.916 371.401 188.909C371.319 188.904 371.214 188.9 371.101 188.897C371.025 188.92 370.862 188.922 370.661 188.957C370.664 188.936 370.666 188.916 370.668 188.895C370.397 188.897 370.097 188.904 369.799 188.913C369.742 188.929 369.676 188.948 369.601 188.973C369.598 188.954 369.598 188.936 369.596 188.918C369.28 188.929 368.982 188.941 368.74 188.952C368.736 188.998 368.731 189.041 368.727 189.087C368.451 189.126 368.187 189.162 367.971 189.192C367.971 188.141 367.971 187.133 367.971 185.981C368.444 186.084 368.708 186.141 369.032 186.212C369.029 186.226 369.029 186.24 369.027 186.253C369.33 186.196 369.721 186.135 370.092 186.112C370.848 186.064 376.927 186.009 379.433 185.984C381.937 185.959 390.035 185.015 390.035 185.015C390.035 185.015 390.012 185.102 389.969 185.232C390.285 185.152 390.645 185.124 391.052 185.145C390.472 185.65 390.324 186.352 389.673 186.267ZM395.404 180.895C394.755 181.662 394.118 182.442 393.446 183.187C393.298 183.351 393.021 183.468 392.795 183.486C389.884 183.692 387.026 184.361 384.097 184.443C382.528 184.489 380.965 184.711 379.397 184.795C377.587 184.894 375.773 184.912 373.964 184.997C372.027 185.088 370.104 184.898 368.044 184.759C367.921 183.826 367.805 182.963 367.689 182.074C368.322 181.738 368.945 181.928 369.555 181.98C370.554 182.069 371.551 182.174 372.548 182.266C373.672 182.369 374.804 182.435 375.926 182.567C377.938 182.807 379.945 182.736 381.955 182.581C382.613 182.531 383.275 182.515 383.935 182.49C385.694 182.421 387.454 182.359 389.213 182.284C389.486 182.273 389.757 182.19 390.041 182.213C389.193 182.556 388.28 182.577 387.388 182.682C386.482 182.789 385.571 182.835 384.661 182.901C383.721 182.97 382.781 183.029 381.839 183.091C380.899 183.15 379.959 183.228 379.019 183.26C378.108 183.289 377.196 183.28 376.283 183.276C375.341 183.271 374.398 183.253 373.456 183.235C372.546 183.216 371.635 183.187 370.725 183.171C369.835 183.157 368.952 182.7 367.953 183.04C368.294 183.639 368.811 183.678 369.234 183.733C370.386 183.884 371.549 183.989 372.71 184.032C374.653 184.105 376.602 184.172 378.545 184.137C380.43 184.103 382.312 183.959 384.194 183.824C385.603 183.724 387.008 183.577 388.412 183.431C390.342 183.23 392.129 182.508 393.913 181.809C394.266 181.669 394.525 181.297 394.839 181.045C394.98 180.933 395.151 180.856 395.404 180.895ZM389.429 180.977C390.97 180.751 392.497 180.417 394.029 180.131C394.038 180.205 394.047 180.278 394.056 180.351C392.254 181.105 390.387 181.48 388.419 181.416C387.42 181.381 386.418 181.491 385.417 181.532C385.205 181.541 384.991 181.534 384.782 181.484C386.329 181.32 387.886 181.201 389.429 180.977ZM391.612 171.953C391.594 171.918 391.58 171.889 391.564 171.857C391.434 172.06 391.312 172.232 391.211 172.323C390.893 172.615 389.577 173.806 389.045 174.286C388.965 174.434 388.881 174.578 388.803 174.727C388.601 174.67 388.494 174.578 388.446 174.471C388.168 174.457 387.75 174.439 387.231 174.425C386.27 174.4 376.829 174.704 375.605 174.706C374.38 174.709 369.312 174.706 369.312 174.706L369.33 174.448C369.173 174.4 369.034 174.357 368.909 174.318C368.909 173.155 368.909 172.014 368.909 170.794C369.268 170.865 369.669 170.943 370.097 171.025C370.09 171.066 370.083 171.105 370.076 171.144C370.347 171.13 370.716 171.142 371.194 171.231C371.285 171.169 371.458 171.233 371.649 171.288C373.413 171.455 378.341 171.53 378.998 171.345C379.331 171.251 380.557 171.231 381.987 171.224C382.107 171.201 382.235 171.174 382.38 171.132C382.367 171.164 382.358 171.192 382.344 171.224C383.188 171.221 384.081 171.221 384.891 171.212C385.096 171.148 385.342 171.148 385.633 171.18C385.631 171.187 385.626 171.194 385.624 171.201C386.07 171.192 386.473 171.178 386.803 171.158C386.901 171.064 387.137 171.114 387.406 171.089C387.404 171.096 387.401 171.103 387.397 171.11C387.827 171.068 388.287 171.011 388.753 170.947C388.812 170.906 388.872 170.865 388.933 170.817C388.935 170.856 388.938 170.888 388.94 170.922C390.681 170.675 392.39 170.342 392.39 170.342C392.39 170.342 392.374 170.376 392.347 170.429C392.481 170.399 392.613 170.369 392.748 170.342C392.782 170.408 392.816 170.474 392.85 170.538C392.447 170.993 392.047 171.452 391.612 171.953ZM391.628 169.195C389.056 169.546 386.466 169.645 383.88 169.8C383.48 169.823 383.075 169.802 382.672 169.802C382.679 169.734 382.688 169.663 382.695 169.594C386.559 169.588 390.34 168.854 394.282 168.182C393.59 168.765 392.823 169.03 391.628 169.195ZM394.974 167.065C394.368 167.206 393.738 167.248 393.114 167.293C392.147 167.366 391.177 167.408 390.21 167.462C390.196 167.394 390.183 167.328 390.169 167.259C392.657 166.468 395.333 166.368 397.81 165.138C397.247 166.539 396.096 166.8 394.974 167.065Z" fill="black"/>
<path d="M390.608 131.8C390.551 131.855 390.494 131.905 390.438 131.958C390.513 131.965 390.585 131.969 390.656 131.974C390.642 131.921 390.626 131.866 390.608 131.8Z" fill="black"/>
<path d="M62.4078 19.9071C63.5786 19.1282 65.4344 18.0404 65.4344 18.0404L67.2098 16.9196L69.0465 15.638L70.3015 13.9733L72.6815 11.336L73.3473 7.34723L46.4825 8.71529L12.0952 7.34723L3.30225 8.02714L5.45265 12.0736L6.20261 16.0666H10.534L13.9548 19.0664L17.1804 19.8246C17.1804 19.8246 17.9571 20.1378 17.6663 21.4317C17.3755 22.7215 17.6663 26.187 17.6663 26.187C17.6663 26.187 10.358 25.9686 9.2369 26.187C8.11579 26.4054 8.5826 27.724 8.5826 27.724L8.68208 29.0714L18.5273 29.5783L15.5198 66.582L17.1574 73.4223L20.9034 63.4173L23.7387 30.592L50.8867 30.2664H55.6734L54.1084 67.744L55.1377 71.9512L58.8952 62.9022L60.3913 31.1277L70.3092 30.2623H71.3002L71.105 27.1512L63.3873 26.768H61.2369L61.1374 23.0759L62.1093 20.554C62.1093 20.5458 61.2331 20.6859 62.4078 19.9071ZM33.473 26.6114C33.473 26.6114 28.9961 26.702 27.3355 26.6608C25.6749 26.6196 23.027 26.1787 23.027 26.1787C23.027 26.1787 22.939 22.7009 23.1916 22.1322C23.4441 21.5636 23.9109 19.9029 23.9109 19.9029C23.9109 19.9029 25.3802 19.2271 25.6749 19.0582C25.9695 18.8892 34.1273 19.9029 34.1273 19.9029L33.473 26.6114ZM51.7591 27.7199C50.3969 27.3366 42.1855 25.8614 42.1855 25.8614V19.9071L54.6824 20.348L55.1339 26.7597C55.1339 26.7597 53.1212 28.1031 51.7591 27.7199Z" fill="#FF837E"/>
<path d="M75.0232 5.43112C73.5922 5.43936 72.1611 5.44348 70.7263 5.46409C69.1995 5.48881 67.6728 5.53002 66.1461 5.56298C62.0902 5.65364 58.0305 5.70308 53.9745 5.85555C51.6825 5.94208 49.4021 6.25938 47.1101 6.37063C44.1791 6.51074 41.2405 6.59315 38.3057 6.61788C35.9716 6.63848 33.6413 6.5231 31.3073 6.48189C27.8253 6.42008 24.3395 6.31707 20.8575 6.34179C17.6013 6.36651 14.3489 6.46541 11.0889 6.28822C8.40279 6.144 5.73965 5.93384 3.11861 5.24569C2.84311 5.17564 2.54848 5.1674 2.26151 5.17976C1.21309 5.22097 0.861068 5.84731 1.38528 6.80743C1.83678 7.63568 2.3763 8.41037 2.84694 9.23038C3.36732 10.1369 3.9451 11.0229 4.32008 11.9995C4.55349 12.6052 4.74481 13.2027 5.14657 13.7013C5.67461 14.3483 6.17968 15.0076 6.19882 16.0583C6.97556 16.0954 7.69874 16.1572 8.42575 16.1614C9.24841 16.1655 10.0022 16.355 10.6603 16.9031C11.4906 17.5954 12.3248 18.2794 13.1475 18.9799C13.7979 19.5321 14.5096 19.8535 15.3514 19.8246C15.9177 19.804 16.484 19.8205 17.1766 19.8205C17.1766 20.3603 17.1996 20.76 17.1728 21.1597C17.1345 21.6954 16.9355 22.2229 17.3717 22.7174C17.5057 22.8698 17.4483 23.2407 17.4368 23.5085C17.41 24.0895 17.3603 24.6706 17.3067 25.2516C17.2837 25.5112 17.2263 25.7667 17.2034 25.8944C16.0593 25.8944 15.0147 25.9026 13.9701 25.8903C13.5875 25.8862 13.1895 25.8903 12.826 25.7873C11.3682 25.3834 9.97542 25.8944 8.56349 26.0963C8.15025 26.154 8.0125 26.4466 8.03546 26.9122C8.07372 27.6622 8.02781 28.4163 8.03929 29.1703C8.04311 29.364 8.10816 29.5577 8.1579 29.8379C8.75099 29.8709 9.32111 29.9409 9.88741 29.9285C10.9358 29.8997 11.9842 29.8132 13.0327 29.7637C14.4063 29.6978 15.7379 30.0068 17.0197 30.184C17.0197 32.1001 17.0848 33.9215 17.0044 35.7387C16.9011 38.0339 16.6792 40.325 16.5146 42.6202C16.3195 45.3934 16.1397 48.1708 15.9407 50.944C15.7953 52.9673 15.6346 54.9864 15.4815 57.0096C15.3246 59.0659 15.1333 61.1179 15.0147 63.1742C14.8425 66.1575 14.7239 69.145 14.5862 72.1284C14.5594 72.6764 14.5862 73.2327 14.5211 73.7767C14.3221 75.4414 14.0849 77.1021 13.8821 78.7668C13.7635 79.7228 14.15 80.1555 15.0759 80.3244C17.1307 80.6994 19.1969 80.2338 21.2516 80.4398C21.3052 80.4439 21.3626 80.3821 21.309 80.4151C21.7338 79.6569 22.1049 78.9976 22.5411 78.2146C22.1776 78.1322 21.8983 78.0663 21.5807 77.9921C21.6343 77.6625 21.7682 77.3204 21.7299 76.999C21.508 75.0747 22.1241 73.1915 21.9519 71.2713C21.9098 70.8015 22.1049 70.3029 22.0246 69.8497C21.8409 68.7865 21.9366 67.7522 22.0169 66.6891C22.1814 64.5793 22.1776 62.453 22.2771 60.3391C22.4378 56.9313 22.6253 53.5277 22.809 50.1199C22.8358 49.6048 22.9429 49.0979 22.9735 48.5829C23.0577 47.1571 23.1112 45.7272 23.1993 44.3015C23.2413 43.6174 23.3791 42.9375 23.3944 42.2494C23.4748 38.8787 23.5283 35.5079 23.6048 32.1372C23.6163 31.5974 23.6929 31.0576 23.7349 30.5837C28.9502 30.5837 34.0546 30.5466 39.1551 30.592C44.2862 30.6373 49.4174 30.765 54.6786 30.8557C54.5485 33.8185 54.4413 36.7648 54.2845 39.711C54.1391 42.4183 53.9057 45.1215 53.7794 47.8329C53.6225 51.1995 53.5192 54.5702 53.4312 57.9409C53.3776 60.0713 53.3853 62.2058 53.3776 64.3403C53.3623 69.1203 53.3585 73.9044 53.3508 78.6844C53.3508 79.4962 53.8176 80.2709 54.56 80.448C56.0981 80.8189 57.5942 80.4975 59.0597 79.9783C59.121 79.9577 59.1745 79.9165 59.2281 79.8794C59.5266 79.6816 59.6911 79.4137 59.6069 79.0182C59.4156 78.1281 59.3735 77.238 59.5878 76.3397C59.6107 76.2449 59.5725 76.1337 59.5725 76.0348C59.5993 74.2547 59.6413 72.4745 59.6567 70.6944C59.6643 69.5983 59.6375 68.4981 59.6107 67.402C59.5954 66.821 59.45 66.2317 59.5189 65.6672C59.802 63.3349 59.6069 60.9943 59.6911 58.662C59.7829 56.0948 59.9551 53.5359 60.1005 50.9728C60.1541 50.0581 60.2268 49.1433 60.2956 48.2285C60.376 47.1612 60.3722 46.0734 60.5673 45.0308C60.7625 43.9924 60.9614 43.0035 60.8849 41.9156C60.8046 40.803 61.0188 39.6657 61.1068 38.5408C61.1145 38.4419 61.1068 38.3018 61.1604 38.2482C61.5162 37.9144 61.3862 37.523 61.3249 37.1191C61.2752 36.7854 61.2828 36.4351 61.3058 36.0931C61.4015 34.8157 61.5086 33.5383 61.6196 32.265C61.6425 32.0012 61.6923 31.7416 61.7343 31.445C62.2892 31.379 62.7943 31.2843 63.3032 31.2636C65.4076 31.1854 67.516 31.1277 69.6204 31.0659C70.0681 31.0535 70.5158 31.0741 70.9597 31.0288C71.5298 30.9711 71.9239 30.4725 71.79 29.8915C71.6178 29.1374 71.5987 28.4121 71.7479 27.6539C71.8665 27.0358 71.6408 26.6444 71.0745 26.4795C70.6191 26.3436 70.1332 26.2694 69.6587 26.2653C67.229 26.2447 64.7993 26.2529 62.3695 26.2447C62.1285 26.2447 61.8912 26.1828 61.6425 26.1499C61.589 25.4906 61.5316 24.9096 61.5009 24.3285C61.478 23.9124 61.4818 23.4879 61.8683 23.2283C62.3504 22.9028 62.4078 22.4413 62.2853 21.885C62.1935 21.4688 62.1706 21.0361 62.1093 20.554C62.5647 20.5169 62.9473 20.4922 63.3261 20.4592C63.9919 20.3974 64.6615 20.3356 65.3273 20.2697C65.6678 20.2367 65.9472 20.1255 66.0084 19.6887C66.1538 18.6338 66.7966 17.8385 67.2137 16.9237C67.516 16.2603 67.9101 16.116 68.484 16.116C68.7404 16.116 68.9967 16.1284 69.2531 16.1202C69.8194 16.0954 70.2786 15.9059 70.6229 15.3455C70.9558 14.8057 71.3959 14.34 71.79 13.8414C72.207 13.3099 72.5323 12.7453 72.5093 12.0036C72.5017 11.7811 72.5706 11.5215 72.6892 11.3402C73.1062 10.6973 73.5463 10.0669 74.0016 9.4529C74.7171 8.48866 75.4594 7.54503 76.1673 6.57255C76.2936 6.39948 76.3089 6.13576 76.3739 5.9256C75.9875 5.43936 75.5054 5.43112 75.0232 5.43112ZM70.3054 27.724C70.2518 28.3709 70.1944 29.0302 70.1293 29.7596C67.3132 29.9285 64.6003 30.0893 61.8032 30.2541C61.742 29.2322 61.6923 28.3586 61.6387 27.5138C62.293 27.2831 69.0465 27.4603 70.3054 27.724ZM9.2331 28.9272C9.2331 28.1731 9.2331 27.5674 9.2331 26.8957C10.1055 26.6567 10.9741 26.562 11.8618 26.632C12.8146 26.7062 13.7635 26.7762 14.7124 26.8628C15.4968 26.9328 16.2851 27.0235 17.1498 27.1141C17.1498 27.8188 17.1498 28.408 17.1498 29.0673C14.502 28.1773 11.923 28.8324 9.2331 28.9272ZM21.8065 31.2513C21.8792 33.9215 21.6649 36.604 21.5501 39.2784C21.4353 41.9486 21.2861 44.6146 21.1522 47.2848C21.0221 49.9592 20.8269 52.6335 20.7848 55.3119C20.7427 57.9821 20.6853 60.6441 20.341 63.409C19.151 63.2772 18.0567 63.1536 17.0159 63.0382C16.5644 62.3748 16.7327 61.7196 16.7978 61.0809C17.0312 58.765 17.2761 56.4492 17.498 54.1293C17.6702 52.3533 17.8194 50.5773 17.9725 48.8012C18.0605 47.7834 18.1217 46.7656 18.2021 45.7478C18.3207 44.252 18.4622 42.7562 18.5656 41.2604C18.7951 37.9103 19.128 34.5684 18.9711 31.1977C18.9061 29.7678 19.0592 28.3256 19.1051 26.8875C19.1395 25.8985 19.1586 24.9096 19.1892 23.9247C19.1969 23.694 19.2352 23.4632 19.2773 23.0717C20.2377 23.1294 21.0909 23.183 22.0514 23.2407C22.1547 25.948 21.7376 28.5893 21.8065 31.2513ZM22.0934 21.7449C21.1445 21.7531 20.1956 21.7243 19.2505 21.6748C19.0859 21.6666 18.9291 21.4935 18.7684 21.3946C18.8066 21.2998 18.8411 21.2051 18.8793 21.1103C20.253 21.1886 21.6266 21.271 23.0003 21.3493C23.0118 21.4111 23.0194 21.477 23.0309 21.5388C22.7171 21.6089 22.4034 21.7408 22.0934 21.7449ZM18.6995 20.348C18.6383 20.245 18.5809 20.1378 18.5196 20.0348C18.6421 19.9977 18.7645 19.9565 18.887 19.9318C19.3997 19.8164 22.7171 20.1419 23.1878 20.3521C21.6878 20.348 20.1917 20.348 18.6995 20.348ZM23.865 23.5868C23.8842 23.3231 24.0602 22.9811 24.263 22.8451C25.2463 22.1899 25.2617 22.2023 25.0627 20.9908C25.0359 20.826 25.0053 20.6611 24.9594 20.4057C26.421 20.1378 27.833 20.4922 29.2411 20.4469C30.63 20.3974 32.0228 20.4345 33.473 20.4345C33.473 22.2146 33.473 23.9742 33.473 25.6884C32.5394 26.1664 24.9938 26.3971 23.8459 25.9851C23.8459 25.1568 23.8153 24.3698 23.865 23.5868ZM23.911 29.4505C23.911 28.6882 23.911 28.0578 23.911 27.349C27.0753 27.349 30.2168 27.349 33.3735 27.349C33.6299 28.0042 33.8556 28.5852 34.1273 29.2816C30.7601 29.3352 27.3738 29.3929 23.911 29.4505ZM35.5009 27.7199C35.4703 27.6416 35.4397 27.5674 35.4091 27.4891C35.5086 27.382 35.6157 27.1718 35.7037 27.1801C36.2012 27.2254 36.6986 27.3202 37.1922 27.3984C37.196 27.4273 37.1998 27.4561 37.1998 27.485C36.6374 27.5633 36.0672 27.6416 35.5009 27.7199ZM35.3364 25.6636C35.39 23.3025 35.4627 20.9413 35.5239 18.5843C35.5316 18.2547 35.6463 18.061 35.9831 18.094C35.9257 18.3536 35.8262 18.609 35.8224 18.8686C35.7803 21.2257 35.7535 23.5868 35.719 25.9438C35.719 25.9933 35.6502 26.0469 35.5545 26.1787C35.4627 25.9809 35.3326 25.8202 35.3364 25.6636ZM39.5071 25.3464C39.4803 26.496 39.2163 26.7268 38.1564 26.6485C37.6246 26.6073 37.0927 26.5166 36.5379 26.4466C36.5379 24.003 36.5379 21.5965 36.5379 19.0623C37.5136 19.0623 38.386 19.0623 39.3273 19.0623C39.3809 19.9235 39.4536 20.7312 39.4727 21.543C39.5071 22.808 39.5377 24.0772 39.5071 25.3464ZM40.0084 20.2037C39.9357 19.6887 40.0734 19.1406 40.127 18.3906C40.326 18.6585 40.4981 18.7904 40.5326 18.9552C40.9688 20.9413 40.965 22.9605 40.9114 24.9879C40.8999 25.4659 40.8884 25.948 40.8655 26.426C40.8157 27.4314 40.7048 27.5221 39.6219 27.4232C40.1423 26.9163 40.1653 26.29 40.1653 25.6224C40.1767 23.8135 40.2647 22.0045 40.0084 20.2037ZM39.7023 29.2734C39.6984 29.2115 39.6984 29.1497 39.6946 29.0879C40.1729 29.0014 40.6474 28.8778 41.1295 28.8366C41.7417 28.7789 42.0937 28.4492 42.3463 27.8558C42.683 27.0647 42.7136 27.0935 43.5171 27.2048C45.3155 27.4561 47.1101 27.7446 48.9161 27.9218C50.3089 28.0578 51.717 28.0454 53.1174 28.1072C53.5613 28.1278 54.0051 28.1608 54.5255 28.1937C54.5753 28.6841 54.6212 29.1415 54.6633 29.5742C49.6278 29.4711 44.665 29.3723 39.7023 29.2734ZM54.6824 26.7597C52.0346 26.496 49.5475 26.8875 47.068 26.3724C45.855 26.121 44.5847 26.187 43.3449 26.1004C43.1919 26.0922 43.0388 26.051 42.836 26.018C42.8169 25.7584 42.7901 25.5277 42.7825 25.301C42.7404 24.2049 42.6945 23.1047 42.66 22.0086C42.6486 21.6007 42.6562 21.1968 42.6562 20.6529C44.6153 20.7971 46.4749 20.9826 48.3422 21.0526C50.2209 21.1185 52.1034 21.0691 54.0358 21.0691C54.0204 21.0567 54.0893 21.0897 54.1123 21.1474C54.4643 22.0004 53.9363 23.0759 54.6901 23.8299C54.6824 24.7447 54.6824 25.6678 54.6824 26.7597ZM59.7944 31.8694C59.5954 35.4296 59.3658 38.9858 59.0903 42.5378C58.9296 44.6188 58.6082 46.6873 58.4399 48.7724C58.2332 51.3066 58.107 53.845 57.9463 56.3833C57.8315 58.1593 57.7167 59.9353 57.5981 61.8185C56.7486 61.8185 55.9987 61.8185 55.1798 61.8185C55.1607 61.4558 55.1263 61.155 55.1377 60.8583C55.1951 58.728 55.2296 56.5976 55.3444 54.4713C55.4209 53.0332 55.6275 51.6033 55.7538 50.1693C55.8035 49.6295 55.7882 49.0856 55.8112 48.5416C55.8188 48.3727 55.8341 48.1955 55.8877 48.0389C56.4004 46.5802 56.2244 45.0556 56.2627 43.5474C56.3009 42.1834 56.3813 40.8195 56.4043 39.4556C56.431 37.8402 56.4157 36.2249 56.4234 34.6096C56.4272 33.6166 56.454 32.6193 56.454 31.6263C56.454 29.2198 56.4387 26.8133 56.4349 24.4027C56.4349 24.1967 56.4578 23.9948 56.4808 23.6692C57.5407 23.6115 58.5929 23.558 59.7294 23.4962C59.7829 24.8313 59.8594 26.0304 59.8671 27.2254C59.8671 28.7748 59.8824 30.3283 59.7944 31.8694ZM56.1594 22.091C56.167 22.0416 56.1747 21.988 56.1785 21.9386C56.7945 21.9386 57.4068 21.9386 58.0228 21.9386C58.0228 21.988 58.0228 22.0416 58.0228 22.091C57.3991 22.091 56.7792 22.091 56.1594 22.091ZM60.3492 21.0114C58.9526 21.0114 57.5598 21.0114 56.1632 21.0114C56.1517 20.9702 56.1402 20.929 56.1288 20.8837C56.2512 20.8342 56.3698 20.7436 56.4923 20.7353C57.5713 20.657 58.6465 20.5828 59.7255 20.5293C59.9436 20.5169 60.1656 20.6117 60.3875 20.657C60.376 20.7765 60.3607 20.8919 60.3492 21.0114ZM67.8603 14.4925C66.8846 14.1587 66.3183 14.8675 65.6525 15.3331C65.5569 15.399 65.5645 15.6998 65.5913 15.8853C65.7252 16.866 65.3541 17.3564 64.4243 17.4429C62.7789 17.5954 61.1374 17.8385 59.4921 17.9168C57.2575 18.0239 55.0191 18.0322 52.7845 18.0404C49.6929 18.0486 46.6012 18.0239 43.5095 18.0033C42.9432 17.9992 42.4151 17.9415 41.9024 17.5212C41.5236 17.2121 40.9535 17.0968 40.4561 17.0473C39.0327 16.9072 37.6169 16.5858 36.1706 16.7341C35.3517 16.8166 34.5367 16.8083 33.9704 17.6572C33.8327 17.8632 33.4079 17.9291 33.1171 17.9291C29.8647 17.9085 26.6124 17.8797 23.36 17.8138C21.1254 17.7684 18.8908 17.6778 16.66 17.5583C15.6461 17.5006 14.6282 17.3605 13.6257 17.1709C13.2469 17.1009 12.8375 16.866 12.562 16.5734C11.5327 15.5021 10.358 14.8716 8.90404 14.884C7.57247 14.8963 7.56482 14.8798 6.9373 13.248C7.05592 13.2563 7.19749 13.2645 7.35437 13.2728C7.98954 13.3346 8.5635 13.3964 9.13362 13.4376C11.1731 13.5818 13.2278 13.5736 15.2443 13.8826C18.489 14.3771 21.7452 14.2082 24.9976 14.3441C26.1111 14.3895 27.2169 14.6037 28.3304 14.6408C30.4043 14.7109 32.482 14.6903 34.5405 15.0529C35.0686 15.1477 35.6234 15.0776 36.1667 15.0817C38.5888 15.0859 41.0109 15.1147 43.4291 15.0817C45.9851 15.0488 48.5411 15.0117 51.0933 14.8716C52.9414 14.7727 54.7781 14.4842 56.6224 14.3194C59.8327 14.0351 63.043 13.759 66.2571 13.5324C67.4241 13.45 68.5988 13.52 69.8041 13.52C69.1881 14.7521 69.0121 14.884 67.8603 14.4925ZM70.6421 10.8457C68.3501 10.9569 66.0543 11.0229 63.7623 11.1547C62.0405 11.2536 60.3263 11.5091 58.6082 11.5544C55.8609 11.6245 53.1136 11.5338 50.3663 11.5915C46.2836 11.6739 42.2009 11.8841 38.1182 11.9335C34.4181 11.9789 30.718 12.2591 27.0179 11.8553C25.6213 11.7028 24.2094 11.7152 22.809 11.6204C22.1432 11.5751 21.4812 11.4143 20.8154 11.3731C18.9061 11.2536 16.9968 11.1383 15.0836 11.0806C12.0531 10.9899 9.02266 10.9528 5.99219 10.8704C5.8047 10.8663 5.56747 10.7262 5.44503 10.5655C5.20779 10.2564 5.03943 9.88557 4.7295 9.34988C5.26519 9.34988 5.62869 9.27983 5.95776 9.36225C7.75231 9.79904 9.57748 9.66306 11.3912 9.75371C14.678 9.91442 17.9763 9.91442 21.2516 10.2111C26.8381 10.7138 32.4284 10.5696 38.0187 10.5655C40.5709 10.5655 43.123 10.2523 45.6752 10.1823C48.8702 10.0957 52.069 10.1534 55.2678 10.0751C57.1504 10.0298 59.0253 9.81552 60.9079 9.73311C63.3605 9.62597 65.8171 9.54356 68.2697 9.50647C69.41 9.48999 70.5541 9.60537 71.7135 9.66306C71.4839 10.7756 71.4762 10.8086 70.6421 10.8457Z" fill="black"/>
</svg>
