<svg width="373" height="257" viewBox="0 0 373 257" fill="none" xmlns="http://www.w3.org/2000/svg">
<path fill-rule="evenodd" clip-rule="evenodd" d="M362.05 26.7541C362.05 26.7541 364.681 29.1411 366.216 32.4526C367.847 35.9765 368.392 40.4442 368.392 40.4442L357.694 45.3411C357.694 45.3411 357.929 40.9009 356.414 37.628C354.763 34.0655 351.358 31.6459 351.358 31.6459L362.056 26.749L362.05 26.7541Z" fill="#FED430"/>
<path fill-rule="evenodd" clip-rule="evenodd" d="M247.552 15.0077C247.552 15.0077 245.262 13.3205 243.683 10.873C242.008 8.26808 241.041 4.89873 241.041 4.89873L248.558 0.665988C248.558 0.665988 248.933 4.05431 250.482 6.46736C252.174 9.097 255.061 10.7734 255.061 10.7734L247.545 15.0062L247.552 15.0077Z" fill="#2496F0"/>
<path fill-rule="evenodd" clip-rule="evenodd" d="M331.264 74.5565C331.264 74.5565 333.564 75.2777 335.518 76.7847C337.598 78.3902 339.336 80.7922 339.336 80.7922L334.616 86.1445C334.616 86.1445 333.34 83.5689 331.412 82.0814C329.309 80.4584 326.544 79.9088 326.544 79.9088L331.264 74.5565Z" fill="#FF837E"/>
<path fill-rule="evenodd" clip-rule="evenodd" d="M2.45204 232.791C2.45204 232.791 1.8239 231.092 1.83313 229.223C1.84354 227.233 2.49103 225.062 2.49103 225.062L7.90238 225.285C7.90238 225.285 6.93592 227.264 6.9261 229.112C6.91628 231.123 7.86014 233.015 7.86014 233.015L2.44878 232.793L2.45204 232.791Z" fill="#2496F0"/>
<path fill-rule="evenodd" clip-rule="evenodd" d="M120.286 166.329C120.286 166.329 122.152 166.32 123.972 166.949C125.908 167.619 127.81 168.93 127.81 168.93L125.796 173.795C125.796 173.795 124.188 172.256 122.389 171.634C120.431 170.957 118.273 171.19 118.273 171.19L120.286 166.326L120.286 166.329Z" fill="#2496F0"/>
<path fill-rule="evenodd" clip-rule="evenodd" d="M113.47 205.918C113.47 205.918 115.848 206.579 117.869 208.196C120.02 209.917 121.826 212.603 121.826 212.603L116.988 219.281C116.988 219.281 115.661 216.355 113.663 214.757C111.488 213.018 108.632 212.591 108.632 212.591L113.471 205.913L113.47 205.918Z" fill="#FF837E"/>
<circle cx="88.4058" cy="59.4058" r="17.7463" transform="rotate(-23.8453 88.4058 59.4058)" fill="#FF837E"/>
<path d="M87.0506 69.3467L80.4077 54.3176L85.067 52.2582C88.2116 50.8683 91.1392 50.9581 92.7102 54.5123C94.2272 57.9446 92.4744 60.5645 89.4257 61.912L87.5274 62.751L89.8883 68.0925L87.0506 69.3467ZM86.4771 60.3748L88.1836 59.6205C90.1394 58.7561 90.6929 57.4675 89.9299 55.7412C89.1579 53.9945 87.8622 53.8632 85.9064 54.7276L84.2958 55.4395L86.4771 60.3748Z" fill="white"/>
<circle cx="344.627" cy="232.627" r="17.7463" transform="rotate(25.2952 344.627 232.627)" fill="#2496F0"/>
<path d="M336.222 238.106L343.243 223.25L347.849 225.426C350.957 226.895 352.805 229.168 351.144 232.682C349.541 236.075 346.413 236.463 343.399 235.038L341.523 234.152L339.027 239.432L336.222 238.106ZM342.633 231.803L344.32 232.6C346.253 233.514 347.59 233.089 348.396 231.383C349.212 229.656 348.464 228.59 346.53 227.677L344.938 226.924L342.633 231.803Z" fill="white"/>
</svg>
