<svg width="346" height="42" viewBox="0 0 346 42" fill="none" xmlns="http://www.w3.org/2000/svg">
<path d="M69.68 27.0401L69.76 36.0001H46.64L46.68 34.6401L50.24 34.2801C50.36 30.2801 50.36 26.2401 50.36 23.0401V20.2001C50.36 16.0401 50.36 11.9201 50.24 7.80012L46.64 7.48012V6.12012H61.12V7.48012L57.2 7.84012C57.12 11.8801 57.12 15.9601 57.12 19.5601V22.1601C57.12 26.1201 57.12 30.2801 57.2 34.4401H65.52L67.52 27.0401H69.68ZM88.6194 7.48012L85.0594 7.80012C84.9794 11.8801 84.9794 16.0401 84.9794 20.2001V21.9201C84.9794 26.0401 84.9794 30.1601 85.0594 34.2801L88.6194 34.6401V36.0001H74.4994V34.6401L78.0994 34.2801C78.2194 30.2401 78.2194 26.1201 78.2194 21.9601V20.2001C78.2194 16.0401 78.2194 11.9201 78.0994 7.80012L74.4994 7.48012V6.12012H88.6194V7.48012ZM123.961 6.12012V7.48012L120.281 8.00012L120.001 36.0801H116.481L98.8413 11.2001L99.0813 34.0401L104.441 34.6401V36.0001H93.3213V34.6401L97.0013 34.0801L97.2413 8.92012L96.4813 7.80012L93.6413 7.48012V6.12012H103.281L118.441 27.0801L118.241 8.04012L112.921 7.48012V6.12012H123.961ZM152.218 27.7201L152.298 36.0001H128.578V34.6401L132.178 34.2801C132.298 30.2401 132.298 26.1201 132.298 21.9601V20.2001C132.298 16.0401 132.298 11.9201 132.178 7.80012L128.578 7.48012V6.12012H151.458L151.418 14.0801H149.098L147.258 7.68012H139.138C139.058 11.6801 139.058 15.8001 139.058 20.0401H144.498L145.098 15.6001H147.098V25.7201H145.098L144.538 21.4801H139.058V21.6001C139.058 26.0401 139.058 30.2801 139.138 34.4401H148.138L149.978 27.7201H152.218ZM181.533 7.64012H179.973C179.893 11.7601 179.893 15.9601 179.893 20.2001V22.5601H181.213C185.853 22.5601 188.093 19.4401 188.093 14.9601C188.093 10.1201 185.773 7.64012 181.533 7.64012ZM181.413 24.0401H179.893C179.893 27.0401 179.893 30.6001 179.973 34.2001L184.253 34.6401V36.0001H169.413V34.6401L173.013 34.2801C173.133 30.2401 173.133 26.1201 173.133 21.9601V20.2001C173.133 16.0401 173.133 11.9201 173.013 7.80012L169.413 7.48012V6.12012H181.613C190.693 6.12012 194.333 9.36012 194.333 15.0001C194.333 20.0001 190.933 24.0401 181.413 24.0401ZM206.464 21.0401C206.464 29.2801 208.664 35.2801 213.584 35.2801C218.464 35.2801 220.704 29.2801 220.704 21.0401C220.704 12.8801 218.464 6.84012 213.584 6.84012C208.664 6.84012 206.464 12.8801 206.464 21.0401ZM213.584 5.32012C221.104 5.32012 227.744 10.6801 227.744 21.0401C227.744 31.4401 221.144 36.8001 213.584 36.8001C206.064 36.8001 199.384 31.4801 199.384 21.0401C199.384 10.7201 206.104 5.32012 213.584 5.32012ZM246.674 7.48012L243.114 7.80012C243.034 11.8801 243.034 16.0401 243.034 20.2001V21.9201C243.034 26.0401 243.034 30.1601 243.114 34.2801L246.674 34.6401V36.0001H232.554V34.6401L236.154 34.2801C236.274 30.2401 236.274 26.1201 236.274 21.9601V20.2001C236.274 16.0401 236.274 11.9201 236.154 7.80012L232.554 7.48012V6.12012H246.674V7.48012ZM282.016 6.12012V7.48012L278.336 8.00012L278.056 36.0801H274.536L256.896 11.2001L257.136 34.0401L262.496 34.6401V36.0001H251.376V34.6401L255.056 34.0801L255.296 8.92012L254.536 7.80012L251.696 7.48012V6.12012H261.336L276.496 27.0801L276.296 8.04012L270.976 7.48012V6.12012H282.016ZM308.624 7.68012H303.064C302.984 11.8001 302.984 15.9601 302.984 20.2001V21.9201C302.984 26.0001 302.984 30.1601 303.064 34.2401L307.144 34.6401V36.0001H292.104V34.6401L296.144 34.2401C296.224 30.2401 296.224 26.1201 296.224 21.9601V20.2001C296.224 16.0001 296.224 11.8001 296.144 7.68012H290.624L288.624 14.6801H286.264L286.424 6.12012H312.824L312.984 14.6801H310.664L308.624 7.68012ZM328.265 17.2801L330.385 18.2401C336.345 20.9201 338.545 23.3201 338.545 27.8401C338.545 33.1601 334.505 36.8001 326.985 36.8001C323.705 36.8001 320.065 35.9601 317.665 34.4001L317.945 27.5201H320.265L322.385 34.4801C323.585 34.9201 324.785 35.0801 326.305 35.0801C330.265 35.0801 332.465 33.2001 332.465 30.0801C332.465 27.3601 331.305 25.9201 328.105 24.5201L326.185 23.6801C320.825 21.2801 317.985 18.6001 317.985 13.8001C317.985 8.40012 322.345 5.32012 328.865 5.32012C331.985 5.32012 334.785 6.16012 336.985 7.60012L336.625 14.1201H334.305L332.265 7.48012C331.465 7.12012 330.665 7.00012 329.665 7.00012C326.185 7.00012 323.945 8.76012 323.945 11.7601C323.945 14.5201 325.465 16.0001 328.265 17.2801Z" fill="black"/>
<circle cx="20" cy="21.413" r="20" fill="white"/>
<path d="M25.6564 31.2001H27.6564V24.4001H25.6564V31.2001ZM20.4564 24.4001V31.2001H22.2813V24.4001H20.4564ZM14.5813 17.1751V21.6001C15.4313 21.4751 16.3314 21.3251 17.2063 21.1751V17.1751H14.5813ZM22.2813 17.1251H20.4564V23.7001H22.2813V17.1251ZM27.6564 17.1251H25.6564V23.7001H27.6564V17.1251ZM28.9563 14.7001L32.0314 17.1251C31.8563 17.3501 31.5314 17.5501 31.0314 17.6751V33.1251C31.0064 33.3751 29.4064 34.0751 28.2064 34.0751H27.6564V31.9001H20.4564V33.0001C20.4564 33.3751 19.1564 34.1501 17.7313 34.1501H17.2063V21.6001C16.5064 22.0751 15.6563 22.6251 14.5813 23.2751V30.6001C14.5813 32.8751 14.1313 34.0751 10.7313 34.3751C10.6813 33.3001 10.5813 32.5251 10.2813 32.0251C10.0063 31.5251 9.60635 31.1751 8.60635 30.9751V30.6251C8.60635 30.6251 10.3813 30.7501 10.8063 30.7501C11.1563 30.7501 11.2563 30.6501 11.2563 30.4001V25.2001L10.1313 25.8001C10.0063 26.1251 9.70635 26.4001 9.38135 26.4501L8.10635 22.4751C8.78135 22.4001 9.90635 22.2751 11.2563 22.0751V17.1751H8.50635L8.30635 16.4751H11.2563V10.6501L15.4813 11.0501C15.4563 11.4251 15.2063 11.6751 14.5813 11.7501V16.0751L15.7063 14.2251C15.7063 14.2251 16.4563 14.9751 17.2063 15.7751V15.0501L20.6313 16.4251H22.2813V11.0001L26.4564 11.4001C26.4313 11.7251 26.2564 11.9501 25.6564 12.0501V16.4251H27.4064L28.9563 14.7001Z" fill="black"/>
</svg>
