<svg width="35" height="16" viewBox="0 0 35 16" fill="none" xmlns="http://www.w3.org/2000/svg">
<path d="M10.8121 1.45265L9.62575 12.7656L7.29478 12.5212L3.54467 4.46108L2.7494 12.0445L0.418429 11.8L1.60482 0.487082L3.93579 0.731531L7.69286 8.8002L8.48894 1.20902L10.8121 1.45265ZM19.4355 11.9562L19.2449 13.7744L13.2232 13.1429L13.4139 11.3247L19.4355 11.9562ZM15.171 1.90977L13.9847 13.2227L11.6537 12.9783L12.8401 1.66532L15.171 1.90977ZM19.1633 6.98666L18.9775 8.7582L13.7406 8.209L13.9264 6.43747L19.1633 6.98666ZM20.4235 2.4606L20.232 4.28652L14.2181 3.65584L14.4096 1.82992L20.4235 2.4606ZM23.5201 12.4081L26.7715 3.12631L28.0302 3.25832L28.1515 4.87352L24.7304 14.3496L23.3785 14.2079L23.5201 12.4081ZM23.3605 2.7686L24.2271 12.4823L23.8835 14.2608L22.3761 14.1027L21.0529 2.5266L23.3605 2.7686ZM29.3049 12.9755L32.1405 3.68936L34.4481 3.93136L30.7599 14.982L29.2525 14.8239L29.3049 12.9755ZM28.7373 3.33246L30.0038 13.1274L29.7575 14.8768L28.4056 14.7351L27.0101 4.74597L27.4863 3.20128L28.7373 3.33246Z" fill="#2496F0"/>
</svg>
