<svg width="294" height="250" viewBox="0 0 294 250" fill="none" xmlns="http://www.w3.org/2000/svg">
<g opacity="0.5" clip-path="url(#clip0_208_4651)">
<path d="M115.077 10.6009C116.061 10.4667 116.7 11.548 116.622 12.4332C116.591 13.3718 115.986 14.5375 114.952 14.6631C113.494 14.8349 112.035 15.0402 110.577 15.2231C106.327 15.7518 102.09 16.3541 97.8767 17.1146C91.0707 18.3564 84.4409 20.2755 77.9514 22.6401C67.5202 26.885 57.8038 32.6975 48.618 39.1703C42.5053 43.4843 35.6115 47.7381 30.9404 53.654C29.8383 55.0461 28.8675 56.5808 27.5487 57.7634C26.8474 58.3969 26.2749 58.9432 25.3335 58.9346C24.5939 58.9275 23.7875 58.7314 23.0668 58.5127C22.148 58.2312 21.6901 58.1129 22.0329 57.1155C22.3011 56.3261 23.0334 55.6443 23.5679 54.9891C24.6312 53.6786 25.6704 52.3049 27.051 51.2997C28.3907 50.32 29.6614 49.3695 30.8835 48.2089C34.7478 44.521 39.2096 41.5871 43.8017 38.9021C49.7568 35.1325 55.9354 31.7351 62.2783 28.6672C66.3498 26.6829 70.4263 24.7102 74.4629 22.6566C81.6858 19.1456 89.2089 16.2132 96.9937 14.2041C102.014 13.0071 107.007 11.9819 112.033 11.1268C113.043 10.9493 114.058 10.7666 115.077 10.6009Z" fill="#2496F0"/>
<path d="M32.2454 68.0953C35.7612 66.6585 34.0936 74.1229 33.9431 75.8098C33.5684 77.4938 33.3276 83.217 30.6521 82.3384C28.3337 80.8607 29.7938 75.7233 29.6638 73.3247C29.7448 72.3893 30.0796 71.1618 30.1209 70.3247C30.1405 69.2062 30.8747 67.5111 32.2454 68.0953Z" fill="#2496F0"/>
<path d="M39.3331 68.9762C39.3299 70.0117 38.1001 70.9368 37.4429 69.7927C37.111 69.1841 37.2971 68.5407 37.4263 67.9106C37.4777 67.1805 37.5678 66.4583 37.7528 65.7421C37.8139 65.3933 38.1644 64.9002 38.5511 65.1707C38.8227 65.4005 38.8827 65.7849 38.9633 66.1091C39.8045 66.8224 39.2742 68.0376 39.3331 68.9762Z" fill="#2496F0"/>
<path d="M44.3406 63.9548C44.3559 64.6947 44.2647 65.4336 44.1907 66.1679C44.199 67.1985 42.9402 67.8698 42.4565 66.7311C42.2482 65.9398 42.2262 65.1267 42.2479 64.3331C41.9844 63.7064 42.0948 62.9295 42.5521 62.4319C42.9089 61.5697 43.8398 61.6561 44.1166 62.5187C44.3874 62.9388 44.4495 63.4689 44.3406 63.9548Z" fill="#2496F0"/>
<path d="M48.0321 59.086C49.0322 57.889 50.241 59.2692 49.9372 60.4482C49.675 61.4115 49.6805 62.3971 49.4745 63.3583C49.2978 64.6573 47.8199 65.1581 47.4185 63.6886C47.272 62.1791 47.2355 60.4357 48.0321 59.086Z" fill="#2496F0"/>
<path d="M60.9393 60.6896C60.7846 62.1747 61.292 64.0092 60.2615 65.2434C59.9254 65.5078 59.4035 65.6935 59.0911 65.937C58.1462 66.3425 56.0995 68.8511 55.2007 67.983C54.858 67.6368 54.8835 67.1402 54.9781 66.7038C55.0466 65.6108 55.0309 64.5182 55.0432 63.4273C55.0873 61.5602 55.2211 59.6931 55.3326 57.8247C55.4649 57.1444 55.257 55.631 56.0933 55.4371C56.158 54.495 56.9846 54.0093 57.6768 53.5209C58.2992 53.0728 58.7704 52.8 59.3764 52.4349C60.9113 51.3834 61.3304 52.7477 61.1227 54.0951C61.0723 56.2417 60.995 58.6385 60.9393 60.6896Z" fill="#2496F0"/>
<path d="M69.7563 49.5472C69.8352 50.3471 69.8337 51.4442 68.9687 51.8267C68.7226 52.3543 68.0451 52.7877 67.5229 52.3519C66.6765 51.8119 66.5639 48.5074 67.6537 48.2062C67.6946 47.4642 68.502 46.6582 69.2266 47.1739C69.9879 47.731 69.6555 48.7403 69.7563 49.5472Z" fill="#2496F0"/>
<path d="M76.2418 46.5384C76.2801 47.7164 75.6449 51.5003 73.8585 49.8544C73.4795 49.3716 73.4931 48.7063 73.5351 48.1267C73.3711 47.1647 73.4402 46.1501 73.7841 45.2255C74.0421 44.4187 75.029 43.7024 75.7518 44.4251C76.296 44.9574 76.2634 45.8344 76.2418 46.5384Z" fill="#2496F0"/>
<path d="M82.713 42.4038C83.5929 43.3939 82.7451 48.9615 80.8006 47.065C80.2146 46.0373 80.05 43.7429 80.849 42.8021C81.1433 42.0423 82.1951 41.6324 82.713 42.4038Z" fill="#2496F0"/>
<path d="M95.2788 46.6004C95.1789 47.7474 95.5526 49.6575 94.1257 50.0607C93.1039 50.6181 92.0106 51.0646 90.8832 51.3411C90.576 51.4114 90.2524 51.4751 89.9529 51.3332C88.9735 50.6784 89.6134 49.1454 89.5186 48.1541C89.6402 46.2135 89.2427 44.2348 89.4414 42.3158L89.447 42.3162C89.4547 42.2831 89.4676 42.2559 89.4809 42.2231C89.5287 42.0861 89.6313 41.9694 89.7587 41.9046C89.7962 40.1435 91.9384 39.7795 93.327 39.5418C94.7833 39.2971 95.2879 40.2805 95.1276 41.586C95.1743 43.2572 95.2999 44.9222 95.2788 46.6004Z" fill="#2496F0"/>
<path d="M104.762 37.6159C105.13 38.4452 104.785 39.3025 104.489 40.0901C104.305 40.6944 103.772 41.2432 103.09 41.1221C102.3 41.0278 101.918 40.2201 101.896 39.5077C101.862 38.8002 101.907 36.9948 102.984 37.2694C103.515 36.5749 104.485 36.8372 104.762 37.6159Z" fill="#2496F0"/>
<path d="M112.092 35.6118C112.417 36.3264 112.085 37.0725 111.895 37.7716C111.734 38.5453 111.152 39.427 110.253 39.1971C109.409 39.0602 108.981 38.1937 108.997 37.4053C108.979 36.6204 109.078 34.768 110.277 35.2349C110.783 34.3989 111.829 34.8004 112.092 35.6118Z" fill="#2496F0"/>
<path d="M263.464 173.892C263.504 178.076 263.386 182.284 262.913 186.437C262.677 187.883 263.116 189.641 261.906 190.612C260.807 191.327 259.388 191.249 258.129 191.388C257.196 191.604 256.584 191.073 256.476 190.109C256.44 189.704 256.529 189.267 256.758 188.929C257.033 183.107 257.535 177.422 258.004 171.635C258.118 170.528 258.266 169.423 258.396 168.323C258.621 166.445 258.649 164.476 259.459 162.735C260.569 160.314 262.333 161.505 262.731 163.579C263.557 166.939 263.382 170.449 263.464 173.892Z" fill="#2496F0"/>
<path d="M270.407 187.36C270.304 189.548 271.001 191.758 267.894 191.591C267.241 191.455 266.909 190.662 267.082 190.046C266.782 189.825 266.779 189.333 266.783 189.003C266.797 187.078 266.856 185.15 266.932 183.223C267.072 179.391 267.418 175.836 267.792 172.097C268.051 169.852 268.177 167.564 268.824 165.388C269.041 164.511 269.929 162.607 270.951 163.746C271.813 165.284 271.384 167.116 271.387 168.779C271.209 171.791 271.065 174.799 270.893 177.811C270.661 180.988 270.495 184.169 270.407 187.36Z" fill="#2496F0"/>
<path d="M252.86 145.28C252.823 146.851 253.479 149.35 251.351 149.76C250.536 149.977 249.645 150.241 248.795 150.103C247.924 149.78 247.692 148.741 247.57 147.916C246.343 147.542 247.489 140.98 247.786 139.823C248.117 138.114 249.32 134.03 251.358 136.85C252.885 139.336 252.749 142.485 252.86 145.28Z" fill="#2496F0"/>
<path d="M24.207 185.728C24.0181 181.943 23.8916 178.145 23.3871 174.385C23.1638 172.579 23.0191 170.683 22.1748 169.035C19.5926 171.768 19.2143 177.09 18.9882 180.698C18.956 182.824 19.0358 184.95 19.1212 187.077C19.1173 187.139 19.1187 187.206 19.1204 187.268C20.8152 186.708 22.5064 186.204 24.207 185.728ZM26.2486 147.597C26.1299 147.343 26.0612 147.008 26.0699 146.6C26.2038 144.285 26.3708 141.978 26.5433 139.671C26.5113 138.841 27.6883 127.93 26.2264 127.816C26.0756 127.807 25.8955 127.908 25.684 128.152C24.2245 129.522 23.7116 131.622 23.2039 133.46C22.1628 137.908 21.6351 142.392 21.1726 146.909C21.0636 148.022 20.9599 149.141 20.8398 150.253C20.7783 150.607 20.7765 150.994 20.7311 151.36C22.5442 150.074 24.3835 148.818 26.2486 147.597ZM23.8549 223.293C24.3918 223.315 24.9234 223.332 25.4602 223.354C25.0751 219.299 24.7825 215.29 24.211 211.257C23.9451 209.504 22.3983 200.456 20.9378 206.494C19.7399 211.833 19.4278 217.44 20.0925 222.85C20.1183 222.796 20.1543 222.759 20.2045 222.762C20.2269 222.763 20.2485 222.776 20.275 222.8C20.349 222.872 20.3326 223.044 20.2349 223.083L20.2345 223.089L20.2342 223.094C20.2384 223.117 20.2481 223.14 20.252 223.168C21.4496 223.204 22.6524 223.246 23.8549 223.293ZM46.2623 116.767C46.1915 116.645 46.1206 116.523 46.0439 116.406C45.3905 115.29 44.3563 114.615 43.2847 114.537C42.375 114.468 41.4388 114.824 40.6939 115.707C38.8486 117.954 37.9105 120.756 37.569 123.612C36.9268 127.597 36.6135 131.613 36.216 135.631C36.0186 137.706 35.9162 139.788 35.8194 141.87C38.0828 140.646 40.3919 139.498 42.7397 138.447C42.2137 131.897 42.9597 125.271 45.2238 119.114C45.481 118.588 45.8106 117.533 46.2623 116.767ZM44.3986 163.961C44.7271 163.193 45.3785 161.565 46.2226 160.442C45.4956 159.607 44.69 159.221 43.8585 159.158C42.0169 159.02 40.0429 160.458 38.4528 162.122C35.465 165.602 34.2598 170.341 34.0731 174.841C33.9676 177.153 33.9405 179.463 33.9243 181.78C33.8828 182.264 33.9341 182.788 33.9194 183.291C36.7073 182.643 39.5058 182.006 42.2896 181.335C42.1486 180.095 42.2401 178.723 42.2374 177.604C42.2025 172.972 42.57 168.27 44.3986 163.961ZM46.5489 202.215C46.8452 201.691 47.2739 200.934 47.7913 200.283C45.6684 198.997 42.8312 199.088 40.4921 200.537C37.8311 202.29 36.3635 205.401 35.565 208.391C34.7686 211.616 34.5694 215.242 34.506 218.491C34.4337 220.362 34.4824 222.089 34.6265 223.817C34.6192 223.844 34.6118 223.872 34.6045 223.899C34.7497 223.908 34.8893 223.917 35.0342 223.932C37.59 224.126 40.144 224.347 42.6967 224.591C42.4434 222.549 42.5803 220.452 42.5574 218.402C42.6286 212.791 43.9826 207.199 46.5489 202.215ZM76.1232 150.878C76.7697 150.135 77.7597 149.19 78.7978 148.818C77.7675 147.455 76.4869 146.327 74.7842 145.941C74.5953 145.912 74.4117 145.889 74.2218 145.878C71.6772 145.685 69.0945 146.816 67.4105 148.726C64.9515 151.819 63.6996 155.693 62.4811 159.39C61.3985 162.798 60.5909 166.292 60.1167 169.834C59.8614 171.76 59.7119 173.699 59.5571 175.632C59.4792 176.069 59.5277 176.638 59.4038 177.095C60.8489 176.76 62.2937 176.431 63.7381 176.107C66.0803 175.593 68.4194 175.04 70.7574 174.503C70.9759 169.495 71.0128 164.431 72.2666 159.544C73.0805 156.488 74.0413 153.323 76.1232 150.878ZM80.611 101.715C80.5876 101.641 80.5642 101.567 80.5408 101.492C79.5556 98.2452 77.5857 94.8748 74.8903 94.6723C73.6795 94.5796 72.3279 95.122 70.8506 96.5969C69.2744 98.5752 68.3887 101.257 67.4821 103.468C66.3841 106.405 65.4076 109.373 64.6562 112.416C63.3913 117.661 62.032 123.247 61.3542 128.517C61.2233 128.996 61.1768 130.454 60.976 131.69C64.5225 130.479 68.0882 129.32 71.6717 128.234C71.446 125.124 71.8784 121.983 72.1958 118.884C72.5912 115.348 73.0553 111.789 74.2695 108.428C75.03 105.598 77.5679 101.155 80.611 101.715ZM77.0473 199.485C77.3552 199.135 77.8338 198.387 78.3686 197.816C77.2293 196.759 75.8956 196.032 74.4002 195.916C73.418 195.843 72.3635 196.029 71.2423 196.563C67.4814 198.152 65.6692 202.109 64.7618 205.853C63.6368 210.385 63.3765 214.718 63.201 219.309C63.1091 221.313 63.0898 223.322 62.9867 225.325C62.9591 225.676 62.9493 226.19 62.7806 226.555C66.3578 226.824 69.9674 227.022 73.5648 227.147C73.1181 218.973 72.5273 206.211 77.0473 199.485ZM115.67 147.361C116.745 145.502 119.196 142.269 121.503 141.428C120.046 139.181 118.094 138.018 115.957 137.856C113.853 137.696 111.571 138.51 109.4 140.222C106.654 142.709 104.655 145.976 103.269 149.394C101.222 154.858 99.5175 160.412 98.4599 166.106C98.2518 166.653 98.0154 168.637 97.5838 170.065C102.283 169.525 106.986 169.092 111.694 168.766C111.243 161.46 112.046 153.829 115.67 147.361ZM121.466 91.0125C121.256 90.5179 121.04 90.0285 120.812 89.5384C119.501 86.4891 117.166 83.9355 113.717 83.6747C113.617 83.6684 113.51 83.6617 113.404 83.6551C109.186 83.9506 106.364 87.7374 104.026 90.866C102.206 93.5175 100.944 96.4839 100.055 99.5689C99.1239 102.534 98.3516 105.553 97.9507 108.641C97.6388 111.202 97.4774 113.778 97.2713 116.352C97.1427 117.867 96.9978 119.375 96.7523 120.876C100.213 119.867 103.684 118.887 107.161 117.979C107.115 117.271 107.253 116.507 107.239 115.834C107.475 110.458 108.354 105.021 110.334 100C112.078 96.2298 114.605 92.1446 118.811 90.8742C119.687 90.6827 120.602 90.7513 121.466 91.0125ZM118.055 194.312C117.219 193.42 116.279 192.588 115.052 192.383C114.903 192.357 114.752 192.342 114.607 192.327C111.857 192.115 109.202 193.948 107.427 195.88C105.113 198.629 103.843 202.065 102.916 205.495C101.556 211.103 101.388 216.915 101.129 222.654C101.049 224.021 101.214 225.408 101.068 226.765C104.327 226.65 107.585 226.557 110.846 226.504C110.434 222.515 110.541 218.48 110.618 214.476C110.828 209.787 111.478 205.041 113.321 200.689C114.266 198.576 115.705 195.217 118.055 194.312ZM128.847 56.1551C128.588 55.6462 128.357 55.1223 128.106 54.6587C126.464 51.2416 125.191 48.1108 123.792 44.6753C121.769 39.5437 119.816 34.3884 117.639 29.3198C117.059 27.9175 116.463 26.5142 115.93 25.0924C115.925 25.0864 115.925 25.0753 115.92 25.0694L115.915 25.069C111.801 25.5727 107.667 25.9686 103.597 26.7605C99.265 27.7095 95.0361 29.0736 90.7485 30.2102C80.9818 32.5318 71.3657 35.6689 62.3074 40.0167C51.6102 45.4654 42.3565 53.1991 32.9999 60.6073C31.2957 61.9449 29.6173 63.3177 27.9603 64.7086C27.5794 64.9703 27.23 65.3571 26.8422 65.6407C26.7095 66.5953 26.5768 67.5499 26.4549 68.5107C24.9188 78.7098 23.4441 88.9128 22.3414 99.1726C22.1277 101.331 21.9251 103.491 21.7229 105.645C27.3032 100.519 33.3132 95.8741 39.533 91.55C50.6793 84.0356 61.7369 76.2358 74.0645 70.7157C83.7187 66.5228 93.8398 63.4677 104.032 60.8817C109.469 59.6659 115.049 58.7448 120.461 57.6563C123.287 57.1167 126.06 56.6075 128.847 56.1551ZM138.861 61.6979C138.912 61.1637 138.934 60.622 138.94 60.0849C138.745 59.7928 138.636 59.4725 138.584 59.1389C137.022 59.1978 135.469 59.2908 133.924 59.5131C126.949 60.4981 120.061 61.4492 113.281 63.0679C102.895 65.3395 92.8757 69.2799 82.949 72.9014C74.2883 76.0929 65.8335 79.8459 57.5501 83.9063C49.1697 88.2629 40.8894 92.9002 33.3288 98.579C29.1032 101.768 25.1541 105.289 21.405 109.017C21.083 112.457 20.7669 115.891 20.4452 119.325C23.5778 116.219 26.6881 113.111 30.0106 110.195C32.5945 107.972 35.2974 106.087 37.9657 104.037C42.8464 100.502 47.7024 96.9156 52.7172 93.5685C55.751 91.592 59.013 89.9098 62.1428 88.1913C66.3156 85.8439 70.7864 84.1086 75.0985 82.0443C80.7666 79.186 86.2809 76.1893 92.1557 73.7918C98.8571 71.0878 106.05 70.027 112.991 68.1442C117.346 67.0174 121.723 65.4275 126.126 64.6005C130.365 63.8752 134.602 63.0098 138.787 62.1691C138.819 62.0144 138.846 61.8593 138.861 61.6979ZM155.297 141.67C156.949 140.626 159.049 140.13 160.989 140.487C160.087 139.216 158.957 138.115 157.698 137.168C156.191 135.988 154.625 135.307 152.978 135.182C151.706 135.085 150.391 135.316 149.02 135.902C142.052 139.093 141.668 147.915 140.325 154.492C139.644 158.296 139.034 162.115 138.725 165.97C138.674 166.61 138.64 167.252 138.577 167.892C140.186 167.897 141.801 167.898 143.411 167.876C144.635 167.846 145.859 167.816 147.083 167.792C147.063 166.951 147.082 166.113 147.123 165.275C147.216 162.991 147.376 160.701 147.681 158.43C148.497 152.743 150.637 145.353 155.297 141.67ZM168.81 115.163C168.981 114.86 169.15 114.485 169.341 114.116C160.734 113.599 152.111 114.486 143.592 115.593C134.464 116.941 125.548 119.462 116.39 120.662C100.868 123.379 85.1957 125.902 70.166 130.698C65.7141 132.132 61.3053 134.04 57.0223 135.82C48.6063 139.312 40.3299 143.172 32.3554 147.582C26.692 150.9 21.3359 154.684 16.0823 158.621C15.9192 160.419 15.7508 162.211 15.5657 164.002C15.5357 164.303 15.5053 164.609 15.4752 164.909C19.0546 162.099 22.6868 159.343 26.6913 157.175C32.5916 153.833 38.3523 150.482 44.2251 147.133C49.0063 144.382 53.7411 141.566 58.6934 139.127C62.1526 137.429 65.8416 136.272 69.4795 135.033C73.5458 133.67 77.6361 132.37 81.753 131.184C89.1608 129.017 96.5575 126.849 104.191 125.726C110.576 124.945 116.965 124.276 123.282 123.048C126.562 122.419 129.824 121.723 133.121 121.196C136.595 120.602 140.11 120.43 143.585 119.909C150.241 118.999 156.96 118.793 163.665 118.53C164.862 118.398 166.068 118.39 167.27 118.364C167.685 117.203 168.485 115.971 168.81 115.163ZM165.687 197.414C164.78 196.579 163.77 195.872 162.643 195.337C162.187 195.185 161.722 195.094 161.253 195.059C161.253 195.059 161.253 195.059 161.248 195.059C158.993 194.89 156.704 195.989 155.011 197.423C151.912 200.431 150.422 204.62 148.842 208.541C146.712 214.347 145.58 220.513 144.976 226.566C144.916 226.814 144.885 227.215 144.851 227.661C148.285 227.898 151.723 228.147 155.156 228.39C154.906 225.318 155.301 222.236 155.515 219.165C155.84 215.507 156.346 211.816 157.589 208.344C159.061 204.546 161.904 199.355 165.687 197.414ZM181.796 169.307C179.17 162.889 176.773 156.306 174.625 149.7C173.295 145.871 171.655 142.152 170.354 138.308C169.591 136.083 168.959 134 168.377 131.836C167.12 128.454 165.806 125.085 164.744 121.638C164.637 121.362 164.58 121.118 164.566 120.899C163.225 120.91 161.883 120.932 160.546 120.983C154.803 121.177 149.068 121.523 143.335 121.925C134.597 122.335 125.83 123.017 117.248 124.769C105.905 127.289 94.856 130.739 83.4493 132.925C78.8581 133.807 74.3332 135.063 69.9964 136.807C63.4465 139.509 57.2243 142.887 50.8273 145.923C46.8262 147.856 42.7271 149.564 38.7516 151.538C34.8263 153.514 31.0689 155.764 27.3206 158.049C23.6253 160.292 20.1087 163.083 16.6794 165.645C16.22 165.997 15.761 166.343 15.302 166.69C14.7456 172.169 14.1627 177.714 13.6771 183.137C13.5388 185.255 13.4064 187.369 13.2851 189.483C14.3396 189.028 15.242 188.676 15.7027 188.481C16.4148 188.212 17.1318 187.955 17.8481 187.709C17.6276 186.665 17.6751 185.548 17.5617 184.494C17.3218 180.986 17.5601 177.451 18.391 174.032C18.7322 172.705 19.1071 171.373 19.7226 170.141C20.3869 169.024 22.057 165.635 23.3446 167.905C24.6712 170.625 24.464 173.752 24.7511 176.687C24.9401 179.218 25.0122 181.915 25.1862 184.418C25.1747 184.691 25.2518 185.071 25.2902 185.443C27.6572 184.802 30.0374 184.218 32.4278 183.651C32.0921 181.67 32.1659 179.598 32.0617 177.593C31.8288 173.256 32.3663 168.884 34.0591 164.864C35.8787 159.895 43.1671 152.564 47.724 158.762C47.8424 158.932 47.9551 159.101 48.0675 159.276C48.1177 159.279 48.1677 159.288 48.2172 159.302C48.6036 159.578 48.6905 159.892 48.6252 160.218C50.2021 163.06 50.9984 166.278 51.4747 169.505C51.5822 169.668 51.6646 169.875 51.6981 170.056C52.315 172.917 52.3833 175.854 52.4246 178.774C54.3326 178.3 56.2451 177.843 58.1625 177.398C57.735 176.346 58.0192 175.121 57.9763 174.016C58.0365 171.624 58.2255 169.234 58.5813 166.865C59.2148 162.482 60.552 158.233 62.0514 154.078C62.8415 151.939 63.7865 149.831 65.0171 147.91C67.002 144.597 70.9458 142.414 74.8318 143.212C78.2686 143.931 80.4095 147.256 81.852 150.185C84.7952 156.723 85.7735 163.928 87.1532 170.901C87.208 171.1 87.2126 171.296 87.185 171.468C90.1342 171.02 93.0914 170.623 96.0462 170.265C96.5588 167.364 96.9053 164.43 97.4455 161.536C98.103 157.664 99.1654 153.862 100.507 150.167C101.233 148.063 102.179 146.028 103.39 144.156C105.087 141.681 106.882 139.168 109.458 137.594C114.319 134.562 119.712 135.471 122.828 140.414C124.397 142.746 125.282 145.444 126.165 148.091C127.23 151.589 128.053 155.179 128.453 158.821C128.632 160.713 128.923 162.595 129.091 164.487C129.166 164.805 129.194 165.165 129.155 165.521C129.316 166.343 129.49 167.328 128.966 167.995C129.533 167.98 130.095 167.97 130.661 167.961C132.773 167.903 134.887 167.896 137.001 167.899C136.997 167.345 137.06 166.778 137.037 166.256C137.073 164.954 137.188 163.656 137.304 162.354C137.963 156.578 138.802 150.786 140.116 145.119C140.91 141.927 141.935 138.633 144.263 136.198C146.613 133.417 150.463 131.923 154.055 132.763C156.435 133.439 158.427 135.025 160.117 136.782C161.498 138.173 162.522 139.822 163.354 141.576C163.623 141.85 163.832 142.177 163.927 142.547C163.937 142.648 163.937 142.749 163.919 142.848C164.572 144.418 165.115 146.042 165.649 147.631C166.936 151.793 167.662 156.049 168.261 160.346C168.582 163.009 168.85 165.635 169.511 168.24C173.604 168.497 177.713 168.866 181.796 169.307ZM201.919 177.084C201.98 176.651 202.052 176.219 202.145 175.799C199.938 175.499 197.728 175.248 195.508 175.064C191.511 174.786 187.501 174.798 183.498 174.524C175.147 173.934 166.794 173.383 158.459 172.631C149.295 171.861 140.084 171.127 130.88 171.536C118.013 172.162 105.336 174.039 92.5644 175.545C78.9147 177.108 65.204 178.035 51.7717 181.05C51.6199 181.147 51.4433 181.192 51.2712 181.165C50.1221 181.429 48.9663 181.709 47.8207 182.007C36.4461 184.843 25.1204 187.884 14.1032 191.908C13.7761 192.027 13.449 192.147 13.1216 192.272C13.0174 194.202 12.9301 196.134 12.8538 198.066C12.9575 198.022 13.0612 197.978 13.1649 197.935C15.0893 197.109 16.9735 196.208 18.8826 195.359C24.9871 192.428 31.4881 190.775 38.0114 189.123C44.261 187.634 50.5242 186.643 56.6806 184.941C60.7343 183.779 64.7594 182.446 68.9506 181.864C73.82 181.105 78.741 180.775 83.6544 180.389C87.3234 180.087 90.9784 179.65 94.6508 179.382C102.332 178.76 109.98 177.683 117.682 177.264C125.218 177.081 132.764 177.269 140.3 177.254C146.191 177.192 152.084 177.555 157.968 177.331C163.677 177.056 169.385 177.677 175.08 177.966C181.105 178.534 187.067 179.585 193.006 180.724C194.965 181.043 196.907 181.456 198.872 181.769C199.328 181.831 199.393 182.406 199.265 182.751C199.116 183.162 198.712 183.517 198.257 183.455C196.871 183.295 195.476 183.18 194.094 182.948C188.46 182.046 182.92 181.341 177.305 180.748C171.765 180.043 166.158 179.507 160.62 179.031C158.161 178.737 155.704 178.488 153.237 178.3C150.486 178.088 147.73 177.954 144.968 177.921C139.134 177.886 133.394 178.764 127.619 179.382C121.678 180.067 115.727 179.913 109.772 180.2C102.617 180.564 95.5132 181.098 88.4482 182.268C80.343 183.574 72.1893 184.491 64.0388 185.447C55.6037 186.917 47.0677 188.118 38.8221 190.411C30.9207 192.581 23.3303 195.604 15.745 198.634C14.7603 199.048 13.7756 199.462 12.786 199.865C12.5842 205.68 12.5172 211.492 12.6725 217.336C12.6909 218.921 13.1101 220.464 13.1906 222.043C13.207 222.318 13.194 222.614 13.1106 222.872C15.0884 222.984 17.0682 223.064 19.0488 223.132C18.3815 221.075 18.497 215.92 18.4196 214.919C18.3834 212.005 18.7739 209.085 19.55 206.273C19.9704 205.023 20.7391 202.328 22.5071 203.015C24.4889 204.494 25.2219 210.782 25.6427 213.283C26.1884 216.654 26.3949 220.071 27.0031 223.429C29.0321 223.528 31.0598 223.649 33.0861 223.793C33.0767 223.764 33.0672 223.736 33.0631 223.713C32.5176 221.322 32.6588 218.801 32.5315 216.357C32.5385 210.967 33.3246 205.222 36.754 200.868C40.3845 195.811 48.6402 194.52 51.722 200.815C52.6888 202.656 53.1267 204.704 53.4875 206.731C54.1515 210.54 54.477 214.385 54.5776 218.237C54.6738 220.46 54.8321 222.676 54.9116 224.897C54.9255 225.212 54.7946 225.601 54.53 225.797C55.3541 225.888 56.1786 225.973 56.9975 226.058C58.5302 226.205 60.0803 226.341 61.6316 226.461C61.3307 225.624 61.5095 224.65 61.4355 223.772C61.4129 222.433 61.4074 221.089 61.4075 219.745C61.468 212.426 61.8549 204.462 65.793 198.075C67.5214 195.457 70.4337 193.54 73.6129 193.358C77.2421 193.334 80.0375 196.146 81.6374 199.157C85.4609 205.963 86.0503 214.006 86.6712 221.636C86.7318 222.726 86.7758 223.815 86.8532 224.906C86.8207 225.514 87.0412 226.468 87.0185 227.279C87.355 227.277 87.6918 227.27 88.0287 227.264C91.9577 227.107 95.887 226.944 99.8206 226.804C99.4461 225.712 99.6211 224.441 99.5524 223.3C99.5465 221.693 99.6021 220.089 99.6521 218.486C100.04 209.973 100.34 200.267 106.585 193.745C109.213 191.351 113.452 189.203 116.837 191.291C121.796 194.994 124.323 201.025 125.975 206.783C126.961 210.915 127.661 215.135 128.035 219.369C128.175 220.799 128.265 222.227 128.349 223.665C128.38 224.154 128.225 224.738 127.902 225.16C127.888 225.652 127.851 226.142 127.782 226.625C130.383 226.715 132.987 226.856 135.589 227.041C138.163 227.214 140.736 227.392 143.315 227.57C143.348 227.141 143.392 226.707 143.395 226.293C143.495 224.793 143.611 223.295 143.783 221.8C144.413 215.776 145.877 209.855 148.235 204.27C149.236 201.803 150.299 199.328 151.962 197.226C153.979 194.469 157.276 192.588 160.734 192.603C164.859 192.727 168.437 197.099 170.156 200.527C171.282 202.697 172.056 205.024 172.767 207.358C174.369 212.402 175.576 217.561 176.364 222.794C176.594 224.219 176.78 225.647 176.976 227.076C176.998 227.889 177.358 228.947 177.438 229.904C182.233 230.059 186.997 230.817 191.822 230.761C192.921 230.751 194.019 230.775 195.106 230.603C196.992 230.301 196.955 229.638 197.123 227.851C197.604 222.597 198.101 217.343 198.582 212.088C198.835 209.305 199.088 206.516 199.33 203.732C200.062 194.826 200.698 185.92 201.919 177.084ZM217.372 173.501C217.94 168.369 218.656 163.118 218.71 158.055C218.741 152.1 216.891 140.278 208.722 141.614C207.809 141.775 206.918 142.049 206.07 142.416C207.548 143.438 208.53 145.134 209.386 146.677C213.156 153.357 212.551 165.428 212.075 173.018C211.936 175.332 211.741 177.638 211.529 179.942C211.517 180.048 211.515 180.165 211.508 180.288C213.348 180.358 215.183 180.423 217.018 180.583C216.997 180.279 217.005 179.977 217.039 179.705C217.006 177.637 217.181 175.566 217.372 173.501ZM235.264 144.307C236.147 137.644 236.97 131.045 236.797 124.322C236.599 116.746 237.588 117.244 230.138 114.622C226.411 113.347 222.67 112.117 218.902 110.957C213.979 109.355 209.1 107.571 204.049 106.404C191.013 103.353 177.673 101.779 164.324 100.953C158.962 100.707 153.639 100.485 148.442 101.363C149.46 104.54 150.391 107.745 151.192 110.991C152.013 110.953 152.833 110.921 153.654 110.882C156.783 110.787 159.918 110.693 163.052 110.699C164.867 110.717 166.68 110.954 168.491 110.776C169.428 110.684 171.689 110.568 172.447 111.259C173.316 112.064 172.031 115.124 171.876 116.083C171.363 117.562 171.206 119.613 169.906 120.673C169.605 120.923 169.221 121.14 168.821 121.171C168.629 121.187 167.922 120.93 167.834 120.991C167.418 121.284 167.874 122.237 167.979 122.624C168.927 126.278 169.996 129.983 171.063 133.622C172.518 138.852 174.747 143.812 176.921 148.757C179.468 154.56 181.597 160.04 183.804 165.883C184.208 167.05 184.834 168.237 184.704 169.506C184.702 169.545 184.699 169.589 184.691 169.628C185.053 169.667 185.409 169.712 185.771 169.752C188.231 170.046 190.687 170.39 193.136 170.773C192.899 169.549 193.085 168.273 193.185 167.042C193.385 165.185 193.558 163.32 193.858 161.48C194.982 153.662 197.386 144.374 205.178 140.731C214.232 136.635 218.494 144.583 220.355 152.196C221.739 158.384 221.612 164.624 221.239 170.832C221.033 173.321 220.793 175.809 220.553 178.296C220.442 178.995 220.452 180.003 220.29 180.883C224.258 181.176 228.242 181.308 232.213 181.552C232.275 180.738 232.35 179.993 232.336 179.494C232.428 176.868 232.537 174.238 232.891 171.635C233.852 162.547 234.246 153.396 235.264 144.307ZM244.621 204.997C244.848 201.282 245.064 197.562 244.905 193.84C244.854 192.605 245.057 191.241 244.107 190.381C243.167 189.538 241.179 189.604 240.01 189.458C233.606 188.67 226.977 188.518 220.499 188.101C217.322 187.896 214.009 187.521 210.811 187.556C209.083 187.576 205.415 188.13 204.129 186.739C203.356 191.371 203.181 196.22 202.793 200.898C202.134 208.913 201.302 222.101 200.654 230.116C201.776 229.929 203.069 230.049 204.34 230.078C206.932 230.14 209.516 230.246 212.106 230.335C212.136 228.781 212.672 221.57 212.764 220.915C213.712 215.08 214.79 209.157 217.354 203.843C219.341 200.233 223.584 196.854 227.577 198.358C229.64 199.35 230.304 202 230.642 204.21C231.055 207.551 230.585 210.936 230.103 214.248C229.661 217.182 229.208 220.121 228.644 223.03C228.444 224.076 227.791 229.398 227.635 230.452C231.923 230.743 236.861 230.33 241.124 230.743C241.506 227.592 242.057 220.959 242.528 217.82C243.222 213.547 244.237 209.328 244.621 204.997ZM273.464 176.791C273.908 171.674 274.201 166.548 274.505 161.422C274.778 156.888 274.777 152.347 274.652 147.81C274.562 145.207 274.594 142.555 273.911 140.027C273.591 138.339 271.84 137.568 270.59 136.751C268.591 135.635 266.486 134.691 264.431 133.667C258.951 130.832 253.355 128.248 247.535 126.187C245.217 125.325 242.861 124.545 240.604 123.524C240.473 123.466 240.331 123.406 240.189 123.342C239.88 129.609 239.03 135.837 238.459 142.088C238.146 146.284 238.129 150.493 237.933 154.691C237.835 157.954 237.787 161.226 237.533 164.48C237.302 168.071 236.742 171.635 236.551 175.229C236.497 176.63 236.403 178.03 236.355 179.432C236.36 180.244 236.404 181.064 236.387 181.875C237.858 182.017 239.328 182.182 240.798 182.347C240.601 181.825 240.628 180.937 240.628 180.584C240.693 177.224 240.982 173.866 241.421 170.529C241.779 167.399 242.47 164.252 244.148 161.541C245.243 159.364 247.232 157.334 249.875 158.098C255.386 159.804 252.388 174.541 252.304 179.194C252.1 181.919 251.93 184.36 251.647 187.007C251.493 188.923 251.054 194.052 248.849 194.334C248.314 194.379 247.804 194.548 247.277 194.638C247.175 196.267 247.034 197.898 246.848 199.527C246.931 199.442 247.031 199.376 247.146 199.327C247.691 199.132 248.295 199.421 248.747 199.724C250.957 201.324 250.667 205.683 250.802 208.183C250.717 212.315 249.516 226.387 248.79 230.45C249.854 230.383 251.189 230.814 252.295 230.715C253.203 230.621 254.508 230.294 255.415 230.216C255.362 230.079 255.044 224.779 255.029 224.661C254.89 222.765 255.565 215.827 255.617 213.932C255.751 211.427 255.938 208.902 256.401 206.435C256.851 204.52 257.399 202.494 258.554 200.876C259.296 200.133 260.159 200.954 260.372 201.746C261.346 206.073 260.849 210.599 260.742 214.992C260.606 216.54 259.92 228.119 259.678 229.655C262.867 229.401 266.37 229.783 269.5 229.139C269.639 222.704 271.085 205.625 271.46 199.199C271.834 193.042 272.832 182.932 273.464 176.791ZM274.496 212.489C274.437 214.322 274.169 216.181 274.25 218.016C274.443 222.636 274.333 227.169 273.359 231.699C273.153 232.66 272.898 235.029 272.203 235.752C271.639 236.344 270.08 236.336 269.185 236.397C263.795 236.793 258.034 236.018 252.603 235.722C247.205 235.429 241.765 235.816 236.36 235.628C230.189 235.415 224.045 235.047 217.859 235.074C208.863 235.115 199.65 235.22 190.723 234.605C189.556 234.526 188.441 234.692 187.264 234.696C184.37 234.705 181.48 234.658 178.594 234.455C166.753 233.187 154.869 232.431 142.955 232.693C129.641 232.39 116.328 232.245 103.02 231.752C94.1083 231.44 85.2241 230.682 76.3403 229.918C69.5923 229.339 62.8444 228.759 56.0783 228.38C45.1249 227.537 34.1306 227.525 23.1685 226.911C19.3533 226.683 15.5164 226.443 11.7134 226.468C11.4688 226.436 11.2174 226.42 10.9721 226.399C10.386 226.357 9.79433 226.314 9.24074 226.111C8.68296 225.886 8.53674 225.267 8.56505 224.725C8.61014 223.827 9.34844 223.05 10.1719 222.794C10.4337 222.732 10.7039 222.715 10.9726 222.721C10.0097 220.998 10.3747 216.872 10.3081 215.25C10.3806 211.946 10.5204 208.641 10.6655 205.341C10.7186 203.777 10.7662 202.213 10.8078 200.653C10.7911 200.294 10.7744 199.935 10.7577 199.575C10.7552 199.435 10.7531 199.289 10.7507 199.149C10.7497 199.076 10.7486 199.004 10.7476 198.931C10.7877 198.916 10.8223 198.902 10.8628 198.882C11.0016 194.071 11.1056 189.279 11.1715 184.469C11.2069 182.025 11.2256 179.579 11.2386 177.134C11.2422 175.913 11.2461 174.688 11.2441 173.467C11.2442 171.407 11.2894 169.344 11.3908 167.279C11.4268 166.525 11.336 165.915 11.2694 165.189C11.1041 163.353 11.1136 161.411 11.1671 159.573C11.3322 153.895 11.7033 148.063 12.2939 142.395C12.757 137.956 13.6704 133.58 14.2889 129.168C14.8962 124.845 15.4033 120.51 16.0273 116.188C16.2114 113.786 16.9963 111.462 17.195 109.095C17.391 106.773 17.6662 104.439 17.9637 102.106C18.6067 97.0352 19.2908 91.9332 19.6552 86.8335C20.1869 79.421 21.0722 72.2715 21.7303 64.9901C21.8819 63.3761 22.0432 61.5163 22.229 59.9828C22.2818 59.4095 22.3562 58.8487 22.4309 58.2824C22.5179 57.6104 22.9008 56.957 23.5044 56.6309C24.1833 56.2648 24.9948 56.3772 25.657 56.7266C28.0581 58.2263 27.7647 60.1337 27.3677 62.2642C28.1277 61.5896 28.8702 61.0147 29.1868 60.7043C29.4001 60.5217 29.6137 60.3336 29.827 60.151C29.5108 59.4706 29.514 58.6142 29.4641 57.8889C29.504 56.447 30.914 53.7194 32.5527 55.2161C33.0183 55.6595 33.2934 56.371 33.3383 57.0848C33.4155 57.0168 33.4923 56.9545 33.5694 56.8865C34.373 56.1419 35.2076 55.4384 36.0632 54.7586C35.5205 53.2187 35.9022 51.4231 37.1072 50.267C38.1719 49.2029 39.7131 47.5136 41.3473 48.3661C42.0105 48.6988 42.3424 49.397 42.3818 50.1104C43.3585 49.3767 44.3715 48.69 45.4048 48.0381C45.2422 47.5017 45.0966 46.9607 45.1323 46.3919C45.1827 44.4245 48.521 40.3621 50.4082 42.6357C50.871 43.2134 51.0497 44.0307 50.9034 44.7549C50.9016 44.7828 50.8943 44.8103 50.8869 44.8379C51.1194 44.7069 51.3575 44.5762 51.59 44.4453C52.4801 43.93 53.3643 43.42 54.2485 42.9099C54.2199 42.8298 54.1972 42.7444 54.1738 42.6701C54.0325 42.2414 53.9309 41.804 53.8521 41.3624C53.628 40.3742 53.6913 39.3649 54.4362 38.6614C55.2925 37.9704 56.2908 37.3388 57.2885 36.8975C58.5563 36.7977 58.8741 39.2417 58.8524 40.1249C58.8503 40.1584 58.8486 40.1863 58.8472 40.2086C58.8479 40.1974 58.8545 40.181 58.8559 40.1587C58.8583 40.2093 58.8555 40.2539 58.8527 40.2985C60.1422 39.5843 61.4477 38.8824 62.763 38.2034C62.4325 37.3037 62.2354 36.1549 62.521 35.2659C62.8599 34.5985 63.5549 34.2446 64.0757 33.8965C64.4311 33.6837 64.8109 33.4388 65.2245 33.3695C66.0368 33.1125 66.3362 34.1501 66.5292 34.7389C66.6632 35.1951 66.8587 35.6552 66.9246 36.124C68.065 35.5517 69.2107 34.9853 70.3612 34.4303C70.2373 34.0811 70.1612 33.6844 70.0178 33.3787C70.0265 33.4185 70.0408 33.4585 70.0555 33.4931C69.4363 32.0099 69.4347 31.0525 71.0753 30.3715C71.5867 30.0844 72.1473 29.9068 72.711 29.7686C73.0136 29.5916 73.355 29.6018 73.6238 29.8762C73.9135 30.1742 74.051 30.5747 74.2185 30.9435C74.4499 31.3667 74.6914 31.8969 74.7609 32.3995C76.0297 31.8352 77.3143 31.2887 78.6027 30.7704C78.5528 30.6721 78.514 30.5745 78.4795 30.4995C77.3878 28.2366 78.4957 27.2871 80.6435 26.7443C81.7295 26.1461 82.2575 27.6516 82.6257 28.3968C82.7776 28.6583 82.8575 28.904 82.8711 29.1344C84.001 28.7293 85.141 28.3417 86.2853 27.9767C86.2549 27.8348 86.2249 27.6874 86.183 27.5504C86.0068 26.8732 85.5744 26.0791 86.1298 25.4477C86.4464 25.0477 86.9661 24.9851 87.4276 24.8684C88.1512 24.6842 88.8633 24.2362 89.6134 24.2552C90.2634 24.5311 90.3865 25.3393 90.5673 25.9441C90.7544 26.1797 90.8364 26.4816 90.8238 26.7719C92.1031 26.4882 93.3978 26.2278 94.6705 25.9605C94.4736 25.3435 94.1923 24.7325 94.2842 24.072C94.4668 22.947 95.7144 22.8124 96.6251 22.5952C97.2631 22.4336 97.9152 22.3177 98.5564 22.1955C98.7585 22.1914 98.902 22.2284 99.0744 22.34C99.5805 22.7635 99.7658 23.4749 99.9745 24.0814C100.101 24.3077 100.158 24.552 100.166 24.7876C101.373 24.5833 102.583 24.424 103.798 24.2706C103.788 24.0685 103.789 23.867 103.757 23.669C103.411 22.4717 103.928 21.2949 105.268 21.2053C105.939 21.0514 106.648 21.023 107.305 20.829C107.837 20.6608 108.324 21.0217 108.565 21.4679C108.862 22.1023 109.104 22.89 109.067 23.5707C111.08 23.2209 113.084 22.8203 115.113 22.5667C115.299 22.5448 113.14 14.1463 113.498 13.0715C114.914 8.82711 116.707 16.3517 116.94 17.3796C117.403 19.396 117.535 20.955 118.487 22.7669C119.574 24.8336 120.264 27.0658 121.154 29.2266C122.162 31.669 123.094 34.1459 123.987 36.6315C125.416 39.6042 126.879 42.5622 128.255 45.5652C128.923 46.9898 129.608 48.4043 130.247 49.8383C130.455 50.2768 132.369 55.6033 132.669 55.5605C133.512 55.4397 134.36 55.3249 135.208 55.2157C137.19 54.9144 138.659 54.637 140.576 54.4715C141.787 54.1948 142.637 55.4964 142.506 56.6023C142.498 56.7249 142.484 56.8528 142.46 56.9745C142.778 59.1442 142.428 62.3133 141.34 64.0198C140.405 65.428 139.198 64.9997 137.807 65.1924C135.779 65.1605 133.753 65.6494 131.714 65.7904C127.713 66.2003 123.696 66.5196 119.711 67.1097C115.312 67.9761 110.947 69.091 106.707 70.5384C102.421 72.1117 97.8754 73.1537 93.6339 74.8082C88.7026 76.5538 83.9462 78.7302 79.1263 80.7571C76.2332 81.9195 73.396 83.2644 70.6576 84.7332C66.3089 87.1143 62.173 89.8559 57.9413 92.4291C54.9364 94.301 51.7948 95.9404 48.8305 97.882C45.389 100.102 42.5063 102.799 39.3259 105.326C36.1992 107.8 33.0516 110.251 29.9351 112.743C26.7166 115.34 23.4318 117.923 20.326 120.69C20.2611 121.368 20.1958 122.053 20.1308 122.732C19.4954 130.278 18.1975 137.749 17.3949 145.278C17.039 148.363 16.7466 151.418 16.4662 154.463C17.852 153.464 18.9495 152.682 19.4336 152.292C19.604 152.169 19.7743 152.045 19.9443 151.927C19.7995 151.375 19.9507 150.751 19.9692 150.187C20.0782 149.074 20.1708 147.955 20.263 146.841C20.5366 142.295 21.1857 137.93 22.3058 133.567C22.6504 132.093 23.047 130.596 23.7484 129.245C24.3558 128.141 26.0213 125.452 27.362 127.053C28.0963 128.219 28.1618 129.679 28.3021 131.02C28.4542 132.799 28.4544 134.584 28.4941 136.367C28.6276 139.785 28.3436 142.885 28.468 146.179C30.4235 144.947 32.4153 143.762 34.4315 142.634C34.2556 141.772 34.3768 140.823 34.3245 139.957C34.3739 136.932 34.4352 133.895 34.6637 130.876C34.7751 129.544 34.8593 128.201 35.043 126.88C35.4544 123.894 35.6319 120.792 36.8332 117.995C37.7202 116.187 38.674 114.298 40.1785 112.926C43.1471 110.38 46.5901 112.163 48.0838 115.347C50.382 120.546 50.8173 126.396 51.0257 132.018C51.0473 132.927 51.0636 133.829 51.074 134.736C51.0768 134.871 51.0786 135.022 51.0855 135.179C53.8051 134.191 56.5292 133.22 59.2572 132.277C59.2279 131.76 59.2492 131.24 59.259 130.726C59.3448 126.762 59.7723 122.803 60.6151 118.926C62.0324 111.966 63.6849 105.01 66.5933 98.5023C67.5729 96.2012 68.8244 93.8556 71.002 92.4804C74.5597 90.1057 78.4387 91.8211 80.2888 95.4024C81.7313 97.8833 82.4687 100.701 83.1017 103.484C83.456 104.183 83.6786 105.194 83.5767 105.747C84.7372 111.832 84.9644 118.05 85.4021 124.218C85.4018 124.224 85.4011 124.235 85.406 124.247C88.5025 123.327 91.5998 122.395 94.696 121.481C94.6175 120.675 94.7722 119.817 94.7488 119.027C94.81 117.513 94.8876 116.007 94.9544 114.494C95.0141 108.082 96.1112 101.757 98.3389 95.7328C100.305 90.2185 105.279 82.6869 110.843 80.4099C114.784 78.8094 119.264 81.3182 121.291 84.7706C124.791 90.5659 125.627 97.4426 126.792 103.987C127.251 106.692 127.53 109.665 128.05 112.284C128.091 112.707 128.272 113.217 128.414 113.724C130.318 113.395 132.217 113.061 134.118 112.704C139.086 111.722 144.134 111.327 149.185 111.073C146.847 103.648 143.919 96.4166 141.358 89.0623C139.108 82.1081 137.366 75.3649 135.436 68.4924C135.332 68.0045 135.224 67.4994 135.339 67.0028C135.754 65.6516 136.971 66.1925 137.351 67.28C139.061 71.5747 140.209 76.0694 141.513 80.5009C142.928 85.4825 144.737 90.3321 146.393 95.2336C146.878 96.6244 147.351 98.02 147.812 99.4205C149.121 98.9371 150.923 98.8149 151.731 98.7199C163.401 97.878 175.069 99.5776 186.522 101.656C192.634 102.722 198.81 103.304 204.926 104.304C211.747 105.509 218.528 107.087 225.212 108.855C229.454 109.966 233.74 111.103 237.837 112.653C240.95 114.331 240.435 118.156 240.269 121.258C240.742 121.131 241.254 121.287 241.735 121.395C242.973 121.68 244.187 122.075 245.39 122.475C251.689 124.594 257.865 127.041 263.833 129.962C266.56 131.186 269.28 132.42 271.949 133.763C275.373 134.867 276.417 137.083 276.663 140.496C276.946 148.15 276.496 155.775 276.308 163.427C276.065 172.324 275.76 181.223 275.617 190.127C275.568 196.097 275.311 202.066 274.776 208.017C274.66 209.51 274.544 210.998 274.496 212.489Z" fill="#2496F0"/>
<path d="M178.908 230.254C179.22 225.196 180.016 220.173 180.784 215.172C181.442 209.497 181.499 203.762 182.313 198.103C183.034 192.69 183.419 187.261 184.294 181.875C184.349 181.626 184.367 181.347 184.547 181.157C184.838 180.901 185.107 181.338 184.977 181.632C185.018 181.78 184.978 181.973 184.871 182.067C184.327 185.745 183.67 189.427 183.309 193.127C182.954 196.733 182.89 200.356 182.602 203.966C182.167 209.47 181.454 214.945 180.886 220.435C180.561 223.746 180.04 227.039 179.589 230.308C179.543 230.865 178.883 230.918 178.908 230.254Z" fill="#2496F0"/>
<path d="M183.626 230.118C184.631 223.301 185.267 216.55 186.434 209.827C187.241 205.443 188.105 201.064 188.718 196.646C189.322 192.104 189.838 187.529 190.48 183.012C190.584 182.425 190.487 181.748 190.843 181.244C190.988 181.09 191.208 181.155 191.298 181.323C191.445 181.668 191.308 182.062 191.291 182.419C190.542 189.281 189.37 196.082 188.459 202.922C187.73 208.564 187.424 214.255 186.667 219.896C186.189 223.404 185.677 226.916 185.067 230.399C184.811 231.525 183.531 231.277 183.626 230.118Z" fill="#2496F0"/>
<path d="M133.049 227.039C132.991 219.114 133.865 211.252 134.577 203.37C134.911 198.57 135.012 193.661 135.121 188.871C135.178 185.459 135.398 182.041 135.129 178.632C135.105 178.3 135.149 177.782 135.57 177.769C136.035 177.865 135.923 178.491 135.996 178.848C136.357 184.805 135.738 190.751 135.466 196.696C135.189 202.193 135.405 207.693 135.167 213.193C135.047 217.07 134.687 220.944 134.556 224.821C134.42 225.736 134.97 227.618 133.824 227.91C133.349 227.976 133.062 227.46 133.049 227.039Z" fill="#2496F0"/>
<path d="M139.964 228.441C139.783 228.194 139.725 227.877 139.743 227.576C139.78 226.817 139.816 226.058 139.864 225.294C140.025 222.634 140.259 219.978 140.426 217.312C140.744 211.51 140.834 205.693 141.388 199.9C141.769 194.986 142.561 190.216 143.205 185.402C143.408 183.758 143.611 182.136 143.809 180.491C143.987 179.349 143.951 178.143 144.361 177.055C144.531 176.662 144.999 176.535 145.046 177.137C145.072 177.34 145.001 177.588 145.01 177.79C145.104 178.087 144.789 178.185 144.772 177.836C143.488 184.194 143.756 190.738 143.24 197.183C142.785 203.559 142.067 209.908 141.656 216.286C141.484 219.131 141.404 221.931 141.411 224.764C141.415 225.682 141.402 226.605 141.406 227.529C141.414 228.028 141.16 228.678 140.612 228.745C140.357 228.785 140.119 228.652 139.964 228.441Z" fill="#2496F0"/>
<path d="M89.284 228.003C89.1627 219.469 90.1011 211.113 90.2866 202.604C90.3879 196.872 90.2915 191.162 90.2022 185.429C90.1618 184.195 90.1158 182.96 90.0921 181.727C90.0859 181.469 90.0506 181.137 90.1993 180.911C90.1993 180.911 90.1993 180.911 90.199 180.917C91.242 179.75 91.0432 183.461 91.1203 183.93C91.538 190.954 91.1229 198.027 90.8851 205.044C90.801 211.04 90.9469 217.033 90.8906 223.031C90.9202 224.618 90.91 226.212 91.0349 227.799C91.076 228.305 90.759 228.98 90.2054 229.046C89.6522 229.106 89.2752 228.5 89.284 228.003Z" fill="#2496F0"/>
<path d="M95.4798 229.516C95.6948 225.012 95.7753 220.505 96.0182 216.002C96.3051 210.976 96.8712 205.967 97.1637 200.941C97.5537 194.27 97.8263 187.592 98.2442 180.922C98.2641 180.604 98.2572 180.268 98.3438 179.96C98.4293 179.669 98.769 179.438 99.0276 179.695C99.325 180.05 99.1912 180.573 99.2094 181C99.0186 189.682 97.8735 198.293 97.4537 206.961C97.1797 213.483 97.5241 220.155 97.1394 226.653C96.9907 227.685 97.6006 230.209 96.322 230.482C95.8138 230.539 95.4962 229.971 95.4798 229.516Z" fill="#2496F0"/>
<path d="M57.0079 227.425C56.6492 219.548 56.6273 211.574 56.868 203.707C56.9308 198.499 56.4665 193.291 56.1468 188.104C56.1412 187.835 56.003 187.535 56.1416 187.292C56.2233 187.152 56.4187 187.074 56.5447 187.211C56.8344 187.688 56.7841 188.312 56.8909 188.845C57.2894 196.713 57.6202 204.588 58.2605 212.444C58.5297 217.365 58.7029 222.296 58.7193 227.224C58.6732 228.408 57.2267 228.765 57.0079 227.425Z" fill="#2496F0"/>
<path d="M61.3109 224.873C61.934 212.332 61.1012 199.762 62.0822 187.239C62.152 186.84 62.0955 186.31 62.4749 186.071C62.9629 185.889 62.906 186.619 62.8983 186.92C62.6921 191.644 62.7008 196.336 62.5826 200.997C62.4108 206.602 62.2429 212.055 62.3983 217.63C62.4093 219.422 62.516 221.209 62.5554 222.997C62.5026 223.749 62.6977 224.573 62.4121 225.283C62.0424 225.904 61.2972 225.538 61.3109 224.873Z" fill="#2496F0"/>
<path d="M31.2452 223.017C31.3269 218.135 30.7851 213.269 30.8217 208.39C30.8191 205.21 31.0346 202.038 31.217 198.858C31.3872 196.77 31.3412 194.639 31.7117 192.575C31.8091 192.094 32.4039 191.817 32.5432 192.459C32.2963 199.62 31.8623 206.815 31.9069 213.978C31.95 216.959 32.0887 219.935 32.07 222.918C32.0972 223.557 31.3038 223.782 31.2452 223.017Z" fill="#2496F0"/>
<path d="M29.1411 184.397C29.6501 176.988 29.845 169.493 29.9055 162.085C29.9883 160.494 29.8673 158.757 30.4818 157.273C30.6057 157.085 30.872 157.04 31.0294 157.212C31.4423 157.781 31.0454 158.568 31.2346 159.218C31.43 159.409 31.3022 159.927 30.994 159.835C30.6645 165.631 30.4013 171.443 30.4083 177.237C30.405 179.616 30.4181 182.002 30.3143 184.375C30.2622 185.295 29.1847 185.401 29.1411 184.397Z" fill="#2496F0"/>
<path d="M52.644 178.138C52.6838 173.298 52.69 168.456 52.6683 163.612C52.6397 157.357 52.4342 151.152 53.4028 144.999C53.4601 144.711 53.8319 144.415 54.065 144.721C54.2594 144.929 54.1156 145.256 54.0971 145.462C53.3014 154.403 53.0917 163.386 53.6856 172.342C53.8485 174.216 54.0791 176.084 54.1073 177.961C54.1198 178.387 53.8939 178.95 53.414 179.004C52.9504 179.064 52.6461 178.552 52.644 178.138Z" fill="#2496F0"/>
<path d="M56.7327 177.762C56.6861 169.199 57.2374 160.758 57.8435 152.247C58.0724 148.773 57.9288 145.249 58.5088 141.808C58.5545 141.526 58.957 141.277 59.0757 141.71C59.0439 142.486 58.8585 143.297 58.8588 144.098C58.5666 150.282 57.8377 156.456 58.0659 162.657C58.1724 167.668 58.3994 172.727 58.1924 177.73C58.1288 178.834 56.7912 178.975 56.7327 177.762Z" fill="#2496F0"/>
<path d="M87.7203 171.345C87.6822 166.494 88.3705 161.684 88.4162 156.838C88.6024 148.497 87.6336 140.157 88.1612 131.826C88.2129 131.448 88.2841 130.669 88.7965 130.813C88.97 130.908 89.0231 131.135 88.9829 131.329C88.8932 131.866 88.8924 132.415 88.8641 132.956C88.9024 140.398 88.8339 147.846 89.2202 155.282C89.5008 160.556 89.5902 165.841 89.5676 171.125C89.6188 172.634 87.8532 173.072 87.7203 171.345Z" fill="#2496F0"/>
<path d="M93.568 171.079C93.3779 164.002 94.0929 157.065 94.3938 150.025C94.6938 142.911 94.4499 135.797 95.3079 128.724C95.4022 128.294 95.3401 127.405 95.9279 127.509C96.0704 127.563 96.1154 127.739 96.1115 127.89C96.1007 128.332 96.0396 128.77 96.0116 129.216C95.286 139.813 94.7942 150.436 95.1436 161.056C95.2209 164.386 95.3038 167.716 95.2299 171.043C95.1562 172.309 93.6598 172.478 93.568 171.079Z" fill="#2496F0"/>
<path d="M130.432 168.843C130.105 159.21 130.957 149.55 131.246 139.933C131.341 134.655 131.139 129.379 131.133 124.105C131.178 123.649 130.955 123.008 131.362 122.692C131.581 122.594 131.704 122.781 131.736 122.979C131.737 122.973 131.742 122.968 131.742 122.968C132.118 128.069 131.737 133.162 131.905 138.273C132.137 145.571 132.417 152.911 132.011 160.203C131.859 163.071 131.825 165.946 131.763 168.82C131.698 169.846 130.505 170.006 130.432 168.843Z" fill="#2496F0"/>
<path d="M135.975 169.503C135.91 161.068 136.756 152.662 136.886 144.234C137.239 136.72 137.001 129.058 138.607 121.679C138.671 121.375 139.117 120.793 139.35 121.373C139.383 122.008 139.146 122.659 139.094 123.305C138.214 132.795 137.398 142.317 137.597 151.858C137.749 157.668 137.665 163.479 137.788 169.292C137.844 170.74 136.123 171.181 135.975 169.503Z" fill="#2496F0"/>
<path d="M29.9582 143.334C29.9962 138.521 30.354 133.617 30.4244 128.824C30.5078 123.287 30.4467 117.729 30.3445 112.203C30.5225 111.688 31.0304 111.905 31.0614 112.394C31.9775 120.949 31.0363 129.528 30.8026 138.09C30.7571 139.801 30.9081 141.506 30.9017 143.219C30.9394 143.961 30.0213 144.205 29.9582 143.334Z" fill="#2496F0"/>
<path d="M34.3746 140.946C34.4573 135.778 34.4088 130.468 34.5176 125.33C34.65 119.191 35.0312 113.017 34.9998 106.896C36.6702 104.398 36.0472 114.52 36.0252 115.14C35.8807 120.847 35.608 126.54 35.2789 132.241C35.1733 134.552 35.0789 136.864 35.0299 139.167C35.0211 139.754 35.0068 140.341 34.9924 140.928C34.9879 141.09 34.8748 141.285 34.6996 141.307C34.5072 141.335 34.369 141.124 34.3746 140.946Z" fill="#2496F0"/>
<path d="M50.6936 133.386C50.8522 125.933 51.7427 118.521 52.0182 111.081C52.0849 105.722 52.028 100.366 52.2737 95.0131C52.2758 94.8005 52.2783 94.5823 52.3362 94.3732C52.427 94.0877 52.8263 94.068 52.8595 94.4339C52.9481 95.1673 52.918 95.9156 52.9386 96.6614C52.968 99.5912 52.7124 102.509 52.6521 105.438C52.6445 110.034 52.6366 114.636 52.696 119.236C52.8213 123.946 52.8109 128.676 52.6958 133.377C52.5554 134.902 50.7923 135.032 50.6936 133.386Z" fill="#2496F0"/>
<path d="M56.4045 133.245C56.483 129.399 56.9059 125.602 57.0625 121.76C57.2991 117.984 57.2951 114.2 57.5317 110.425C57.9767 104.126 58.8969 97.8522 58.9004 91.5319C59.0241 90.4536 59.9728 90.7929 60.008 91.7525C60.234 95.1256 59.8753 98.5237 59.6251 101.889C59.0386 108.744 58.3352 115.586 57.7934 122.444C57.5723 125.257 57.3452 128.076 57.2525 130.897C57.2479 131.686 57.2207 132.479 57.207 133.234C57.2049 133.447 57.0544 133.7 56.8286 133.726C56.5745 133.754 56.4014 133.475 56.4045 133.245Z" fill="#2496F0"/>
<path d="M86.127 123.575C86.031 112.4 87.4967 101.268 87.4849 90.0926C87.4059 85.5362 87.9528 81.0134 87.3883 76.5105C87.3569 76.2958 87.4631 76.0338 87.692 76.0481C88.1758 76.2016 88.0983 76.9021 88.2016 77.3117C88.6764 81.7249 88.297 86.1686 88.1041 90.5904C87.8171 96.0644 87.9226 101.451 87.9728 106.913C88.0424 111.261 87.8491 115.599 87.6052 119.939C87.5608 120.827 87.5052 121.713 87.4888 122.602C87.4612 123.222 87.6133 124.194 86.829 124.364C86.3933 124.426 86.148 123.957 86.127 123.575Z" fill="#2496F0"/>
<path d="M91.5031 122.328C91.2316 115.386 92.2687 108.498 92.7798 101.593C93.2078 95.3891 93.2892 89.1688 93.7004 82.9636C93.924 80.0217 94.0987 77.0543 94.1764 74.1145C94.2005 73.8193 94.5981 73.5587 94.8089 73.863C94.9991 74.138 94.9618 74.466 94.9474 74.7842C94.954 75.8427 94.9606 76.9012 94.9392 77.9579C94.8065 85.0875 93.8025 92.1625 93.5134 99.2822C93.3326 103.778 93.3351 108.212 93.2343 112.684C93.2268 116.026 93.161 119.045 93.1706 122.292C93.0968 123.559 91.6109 123.74 91.5031 122.328Z" fill="#2496F0"/>
<path d="M129.079 113.849C128.897 104.041 129.56 94.3581 129.736 84.572C129.774 78.2426 129.576 71.9097 129.226 65.5953C129.192 65.246 129.622 64.9091 129.845 65.287C130.085 65.9402 130.055 66.6885 130.14 67.3768C130.674 72.2024 130.386 77.0606 130.374 81.9024C130.22 87.5806 130.574 93.1228 130.736 98.7704C130.816 103.221 130.499 107.657 130.282 112.1C130.147 112.825 130.565 114.295 129.703 114.538C129.341 114.588 129.08 114.185 129.079 113.849Z" fill="#2496F0"/>
<path d="M133.199 114.494C133.013 114.247 132.964 113.942 132.972 113.634C133.027 112.143 133.12 110.648 133.169 109.157C133.365 103.257 133.656 97.3635 134.086 91.4786C134.323 87.6922 134.41 83.8963 134.585 80.1061C134.751 75.8505 135.191 71.6065 135.239 67.3436C135.324 66.6267 135.087 65.9233 135.455 65.3361C136.114 64.9352 136.096 66.1937 136.134 66.5767C136.24 71.5995 135.846 76.535 135.561 81.5388C134.952 89.1144 134.241 96.6948 134.606 104.303C134.706 107.355 134.711 110.412 134.665 113.466C134.794 114.275 133.924 115.368 133.199 114.494Z" fill="#2496F0"/>
</g>
<defs>
<clipPath id="clip0_208_4651">
<rect width="279.793" height="232.044" fill="white" transform="translate(14.5107) rotate(3.58531)"/>
</clipPath>
</defs>
</svg>
